<svg xmlns="http://www.w3.org/2000/svg" width="152" height="151.999" viewBox="0 0 152 151.999">
  <g id="Grupo_15600" data-name="Grupo 15600" transform="translate(-503.793 -10640.873)">
    <ellipse id="Elipse_1064" data-name="Elipse 1064" cx="73.832" cy="73.832" rx="73.832" ry="73.832" transform="translate(505.961 10643.041)" fill="#fff"/>
    <path id="Trazado_40634" data-name="Trazado 40634" d="M2702.635,3929.606a76,76,0,1,1,76-76A76.086,76.086,0,0,1,2702.635,3929.606Zm0-146.58a70.581,70.581,0,1,0,70.581,70.581A70.661,70.661,0,0,0,2702.635,3783.026Z" transform="translate(-2122.841 6863.266)" fill="#0e2571"/>
    <ellipse id="Elipse_1065" data-name="Elipse 1065" cx="62.428" cy="62.428" rx="62.428" ry="62.428" transform="translate(517.838 10653.972)" fill="#0f3384"/>
    <g id="Grupo_15599" data-name="Grupo 15599">
      <g id="Grupo_15598" data-name="Grupo 15598" transform="translate(-2)">
        <g id="Grupo_15596" data-name="Grupo 15596" transform="translate(554.887 10675.849)">
          <path id="Trazado_40635" data-name="Trazado 40635" d="M2706.134,3885.258H2673.35a10.857,10.857,0,0,1-10.873-10.815v-52.118a10.857,10.857,0,0,1,10.873-10.816h1.119a6.909,6.909,0,0,0,6.927-6.875v-5.605a1.621,1.621,0,0,1,1.622-1.622h14.189a1.621,1.621,0,0,1,1.622,1.622v5.605a6.909,6.909,0,0,0,6.927,6.875h1.118a10.857,10.857,0,0,1,10.874,10.816v54.042a1.621,1.621,0,0,1-3.243,0v-54.042a7.611,7.611,0,0,0-7.631-7.574h-1.118a10.155,10.155,0,0,1-10.171-10.117v-3.985h-10.946v3.985a10.156,10.156,0,0,1-10.171,10.117h-1.119a7.611,7.611,0,0,0-7.631,7.574v52.118a7.611,7.611,0,0,0,7.631,7.573h32.785a7.654,7.654,0,0,0,5.045-1.892,1.621,1.621,0,0,1,2.135,2.44A10.894,10.894,0,0,1,2706.134,3885.258Z" transform="translate(-2662.477 -3797.406)" fill="#fff"/>
          <path id="Trazado_40636" data-name="Trazado 40636" d="M2703.2,3800.648h-28.379a1.621,1.621,0,1,1,0-3.242H2703.2a1.621,1.621,0,0,1,0,3.242Z" transform="translate(-2661.379 -3797.406)" fill="#fff"/>
          <path id="Trazado_40637" data-name="Trazado 40637" d="M2716.126,3826.233H2664.1a1.621,1.621,0,0,1,0-3.243h52.029a1.621,1.621,0,1,1,0,3.243Z" transform="translate(-2662.477 -3794.787)" fill="#fff"/>
          <path id="Trazado_40638" data-name="Trazado 40638" d="M2710.359,3862.477H2664.1a1.622,1.622,0,0,1,0-3.243h46.261a1.622,1.622,0,0,1,0,3.243Z" transform="translate(-2662.477 -3791.077)" fill="#fff"/>
        </g>
        <rect id="Rect치ngulo_4250" data-name="Rect치ngulo 4250" width="28.804" height="5.298" transform="translate(568.133 10667.306)" fill="#fff"/>
        <rect id="Rect치ngulo_4251" data-name="Rect치ngulo 4251" width="30.724" height="5.921" rx="2.395" transform="translate(566.962 10667.133)" fill="#0f3384" stroke="#fff" stroke-miterlimit="10" stroke-width="2"/>
      </g>
    </g>
  </g>
</svg>
