<svg xmlns="http://www.w3.org/2000/svg" width="493.161" height="314.808" viewBox="0 0 493.161 314.808">
  <g id="Grupo_15868" data-name="Grupo 15868" transform="translate(-2915.225 -6717.277)">
    <g id="Grupo_15866" data-name="Grupo 15866">
      <rect id="Rectángulo_4528" data-name="Rectángulo 4528" width="493.161" height="312.774" rx="14.71" transform="translate(2915.225 6717.277)" fill="#cee9f4"/>
      <g id="Grupo_15865" data-name="Grupo 15865">
        <rect id="Rectángulo_4529" data-name="Rectángulo 4529" width="216" height="250.065" rx="19.161" transform="translate(2922.58 6726.212)" fill="#4463aa"/>
        <text id="Es_importante_tener_claro_que_el_tiempo_aconsejado_como_máximo_para_transporte_y_entrega_a_laboratorio_es_de_seis_6_horas_si_no_se_puede_cumplir_se_debe_proceder_a_realizar_acciones_de_preservación_para_asegurar_su_entrega_p.56_._" data-name="Es importante tener claro que el tiempo aconsejado como máximo para transporte y entrega a laboratorio es de seis (6) horas, si no se puede cumplir se debe proceder a realizar acciones de preservación para asegurar su entrega (p.56). " transform="translate(2934.096 6735.476)" fill="#fff" font-size="18" font-family="MyriadPro-Regular, Myriad Pro"><tspan x="0" y="17">Es importante tener claro </tspan><tspan x="0" y="38.6">que el tiempo </tspan><tspan x="0" y="60.2">aconsejado como </tspan><tspan x="0" y="81.8">máximo para transporte </tspan><tspan x="0" y="103.4">y entrega a laboratorio es </tspan><tspan x="0" y="125">de seis (6) horas, si no se </tspan><tspan x="0" y="146.6">puede cumplir se debe </tspan><tspan x="0" y="168.2">proceder a realizar </tspan><tspan x="0" y="189.8">acciones de preservación </tspan><tspan x="0" y="211.4">para asegurar su entrega </tspan><tspan x="0" y="233">(p.56). </tspan></text>
        <g id="Grupo_15864" data-name="Grupo 15864">
          <g id="Grupo_15856" data-name="Grupo 15856">
            <path id="Trazado_41244" data-name="Trazado 41244" d="M3153.317,6998.709h238.4c4.719,0,8.544-4.456,8.544-9.953V6846.679c0-5.5-3.825-9.954-8.544-9.954h-238.4c-4.718,0-8.543,4.457-8.543,9.954v142.077C3144.774,6994.253,3148.6,6998.709,3153.317,6998.709Z" fill="#c8d9eb"/>
            <path id="Trazado_41245" data-name="Trazado 41245" d="M3153.382,6993.942h234.334c4.638,0,8.4-4.325,8.4-9.66v-137.9c0-5.336-3.76-9.661-8.4-9.661H3153.382c-4.638,0-8.4,4.325-8.4,9.661v137.9C3144.984,6989.617,3148.744,6993.942,3153.382,6993.942Z" fill="#f4f7fb"/>
            <path id="Trazado_41246" data-name="Trazado 41246" d="M3344.858,6876.319c-6.891,4.905-6.23-.743-4.13-7.04,1.326-3.974,2.924-7.816,4.259-11.783,2.492-7.4,4.525-13.8,5.683-20.771h20.142C3364.941,6852.183,3358.025,6866.945,3344.858,6876.319Z" fill="#c8d9eb"/>
            <path id="Trazado_41247" data-name="Trazado 41247" d="M3304.055,6875.041a15.95,15.95,0,0,1-2.007,3,28.93,28.93,0,0,1-6.552-3.268c-5.059-12.1,7.949-29.183,15.34-38.044h8.884c-3.436,5.709-6.526,11.872-9.218,17.526C3307.993,6859.521,3302.985,6868.106,3304.055,6875.041Z" fill="#c8d9eb"/>
          </g>
          <path id="Trazado_41248" data-name="Trazado 41248" d="M3347.656,6774.451c-1.206,1.842-2.39,5.413-4.394,6.587-2.553,1.5-6.5,1.378-9.295,1.3,1.688-3.668,2.123-12.078-1.554-15.324,2.42-1.479,2.529,3.316,4.349,1.341.665-.722,5.766-8.623,6.254-9.516,1.41,1.676.835,7.425,2.2,12.089a5.46,5.46,0,0,0,2.492,3.437Z" fill="#e17c5e"/>
          <path id="Trazado_41249" data-name="Trazado 41249" d="M3335.747,6747.13s-12.9,1.444-13.559,4.991,1.563,7.9,1.635,10.2-1.9,5.581-1.87,6.5,2.877,1.5,3.444,1.988,4.458,6.5,7.054,7.09,12.147-7.852,12.67-14.012c.1-1.18,1.711-3.485,1.414-4.875C3345.284,6753.146,3338.8,6747.427,3335.747,6747.13Z" fill="#ff9d8a"/>
          <path id="Trazado_41250" data-name="Trazado 41250" d="M3338.375,6742.869c5.342-.836,2.083,2.091,8.016,4.488,4.306,1.741,3.4,6.31,2.1,8.369-.525.829-.274,1.647.521,3.058.45,2.942-4.6,9.476-6.176,7.478-.377-.479,1.053-3.514.956-4.824.318-2.143-1.585-4.326-3.424-2.407a3.6,3.6,0,0,0-1.187,2.366c.075,2.537-.736,3.207-1.836,2.37-1.653-1.256.238-6.349-1.027-7.432a12.368,12.368,0,0,1-3.7-5.42C3330.28,6748.34,3333.034,6743.705,3338.375,6742.869Z" fill="#110239"/>
          <g id="Grupo_15858" data-name="Grupo 15858">
            <path id="Trazado_41251" data-name="Trazado 41251" d="M3301.915,6873.707c-.309.982-2.292,2.641-1.4,3.829.448.6,2.231-.957,2.6-1.553.515-.839,3.972-7.723,4.425-9.65.354-1.51.681-2.977,1.109-4.373a21.149,21.149,0,0,1-4.5-2.877c-2.014,1.2-4.12,2.8-6.107,3.939-1.064.61-2.255,1.084-3.346,1.627-.689.344-2.176.9-2.139,1.866.041,1.062,1.546.586,2.14.4.858-.271,2.376-1.28,3.1-.343,1.058,1.363-1.489,3.35-2.3,4.445-.751,1.014-3.566,4.194-1.259,4.176.485,0,3.424-3.134,3.892-3.558-.089.144-1.952,2.377-2.039,2.527-.457.781-1.854,2.455-1.309,3.149,1.166,1.487,4.136-3.081,4.6-3.7.005-.007-1.125,1.8-1.12,1.795-.975,1.377-1.556,2.514-.58,2.808C3298.911,6878.587,3301,6874.876,3301.915,6873.707Z" fill="#ff9d8a"/>
            <g id="Grupo_15857" data-name="Grupo 15857">
              <path id="Trazado_41252" data-name="Trazado 41252" d="M3322.373,6789.072s-.948.842-1.9,4.893c-3.209,13.7-6.344,32.521-7.743,36.5-1.692,4.81-13.64,29.578-13.64,29.578l9.735,6.835s14.176-27.2,15.987-31.812,10.84-27.864,10.84-27.864Z" fill="#fff"/>
              <path id="Trazado_41253" data-name="Trazado 41253" d="M3318.315,6835.27c4.714-8.579,8.433-23.385,10.106-33.329l7.234,5.26s-9.03,23.253-10.841,27.863-15.986,31.812-15.986,31.812l-2.441-1.7C3310.419,6854.321,3312.736,6845.427,3318.315,6835.27Z" fill="#d0d1de"/>
            </g>
          </g>
          <path id="Trazado_41254" data-name="Trazado 41254" d="M3329.885,6782.848c1.638-1.273,3.346-2.549,4.928-3.622,0,0,5.86,5.538,12.608-5.138l1,.273a37.711,37.711,0,0,0,6.09,7.715c4.946,5.273,6.163,10.587,7.207,17.386,1.925,12.541,4.168,24.959,7.326,37.214h-32.029c-2.659-9.6-5.643-19.164-7.483-28.719C3327.906,6799.5,3329.717,6791.234,3329.885,6782.848Z" fill="#56b2e5"/>
          <path id="Trazado_41255" data-name="Trazado 41255" d="M3347.421,6774.088s15.471,4.2,18.831,5.409c1.353.484-1.928,15.633,1.76,24.37,3.31,7.842,8.779,29.325,10.673,32.809H3353.4c-1.923-11.878-4.547-25.223-5.686-35.765C3346.1,6785.958,3346.464,6775.6,3347.421,6774.088Z" fill="#fff"/>
          <path id="Trazado_41256" data-name="Trazado 41256" d="M3322.417,6788.965s5.054-4.387,9.891-7.954c-1.442,7.43-1.363,11.644.1,23.832,1.343,11.158,3.7,20.993,5.656,31.833h-6.251c-2.624-9.77-5.774-21.718-6.922-27.227C3322.256,6796.783,3322.417,6788.965,3322.417,6788.965Z" fill="#fff"/>
          <path id="Trazado_41257" data-name="Trazado 41257" d="M3361.629,6791.638c2.358,4.207,5.248,8.837,7.234,12.646,3.2,8.085,7.491,28.977,9.348,32.391h-20.223c.11-1.6.8-4.234.8-6.023,0-5.059-.318-9.923-2.358-14.659-1.843-4.278.5-18.533,1.332-19.512C3359.12,6794.876,3360.4,6793.265,3361.629,6791.638Z" fill="#d0d1de"/>
          <path id="Trazado_41258" data-name="Trazado 41258" d="M3358.2,6877.071c-.308.981-2.292,2.641-1.4,3.828.448.6,2.232-.956,2.6-1.552.516-.839,3.972-7.723,4.425-9.651.354-1.509.681-2.977,1.11-4.372a21.186,21.186,0,0,1-4.505-2.877c-2.015,1.2-4.121,2.8-6.108,3.938-1.064.611-2.254,1.085-3.345,1.628-.69.343-2.176.9-2.14,1.865.041,1.062,1.546.587,2.14.4.858-.271,2.377-1.28,3.1-.343,1.058,1.363-1.489,3.35-2.3,4.444-.752,1.015-3.566,4.2-1.26,4.177.485,0,3.425-3.135,3.893-3.559-.09.145-1.952,2.378-2.04,2.527-.457.782-1.854,2.456-1.309,3.15,1.167,1.486,4.136-3.082,4.6-3.7l-1.121,1.795c-.975,1.376-1.556,2.513-.579,2.808C3355.2,6881.95,3357.285,6878.24,3358.2,6877.071Z" fill="#ff9d8a"/>
          <path id="Trazado_41259" data-name="Trazado 41259" d="M3357.578,6862.752l8.423,5.211s18.565-32.229,18.894-41.514c.265-7.482-1.278-16.766-8.558-33.23-4.642-10.5-9.685-14.724-11.781-13.89-1.488.592-9.928,4.357-5.772,17.248,1.45,4.5,10.92,23.689,11.072,25.525S3357.578,6862.752,3357.578,6862.752Z" fill="#fff"/>
          <path id="Trazado_41260" data-name="Trazado 41260" d="M3316.735,6746.436s-3.627,5.216,4.8,8.707,20.556-5.7,20.556-5.7-.31-4.577-7.036-6.535c-5.025-1.464-9.735-1.257-12.3,1.653C3318.4,6749.506,3316.735,6746.436,3316.735,6746.436Z" fill="#110239"/>
          <path id="Trazado_41261" data-name="Trazado 41261" d="M3190.276,6848.937l-10.883,1.014s-5.543.826-7.2,19.391-2.968,38.158-1.144,44.251,23.306,4.909,23.306,4.909-1.266-24.573,0-36.448,1.806-22.125,1.2-25.112S3193.3,6849.439,3190.276,6848.937Z" fill="#56b2e5"/>
          <path id="Trazado_41262" data-name="Trazado 41262" d="M3200.209,6856.942c32.572,15.55,24.852,13,30.139,14.41s36.459,3.373,36.459,3.373l3.442,13.378s-37.97-2.078-43.148-3.269-26.96-9.459-26.96-9.459Z" fill="#fff"/>
          <path id="Trazado_41263" data-name="Trazado 41263" d="M3266.556,6874.883c-2.278,1.371-2.867,3.881-5.987,4.328-14.749,2.109-26.745-1.153-28.769-1.455-2.908-.234-4.9.615-7.8-.266-5.074-1.541-15.276-4.412-23.824-10.08l-.03,7.965s21.784,8.268,26.961,9.459,43.147,3.269,43.147,3.269l-3.406-13.24C3266.748,6874.872,3266.65,6874.875,3266.556,6874.883Z" fill="#d0d1de"/>
          <path id="Trazado_41264" data-name="Trazado 41264" d="M3192.363,7014.574a27.382,27.382,0,0,0-1.394,7.145c-.014,3.116.212,6.427,1.167,7.21,1.91,1.565,26.077,1.768,28.043-.464s.657-5.846-4.461-7.095c-5.489-1.339-6.255-.767-9.708-2.079s-2.619-5.193-2.619-5.193Z" fill="#110239"/>
          <path id="Trazado_41265" data-name="Trazado 41265" d="M3156.784,7014.945a27.427,27.427,0,0,0-2.036,6.99c-.3,3.1-.371,6.42.51,7.286,1.76,1.732,25.81,4.122,27.97,2.077s1.183-5.761-3.8-7.469c-5.344-1.831-6.159-1.331-9.479-2.95s-2.138-5.409-2.138-5.409Z" fill="#110239"/>
          <path id="Trazado_41266" data-name="Trazado 41266" d="M3195.59,6911.862l-32.563,3.618s22.383,46.075,24.586,53.552,2.543,48.6,2.543,48.6H3204.9s-.189-48.48-.913-52.1S3195.59,6911.862,3195.59,6911.862Z" fill="#110239"/>
          <path id="Trazado_41267" data-name="Trazado 41267" d="M3182.816,6914.274h-25.639s-4.342,11.4-2.351,20.08,3.827,29.273,3.646,32.529-3.926,50.435-3.926,50.435l14.2.315s6.486-45.4,7.45-50.349C3178.677,6954.523,3182.816,6914.274,3182.816,6914.274Z" fill="#110239"/>
          <path id="Trazado_41268" data-name="Trazado 41268" d="M3193.678,6851.7c-.288-1.923-1.353-9.554-.9-14.335a33.049,33.049,0,0,1-8.976-.711,13.374,13.374,0,0,1-3.05-1.071c-.294,3.472-1.245,11.189-3.855,14.9C3182.246,6854.928,3188.2,6855.2,3193.678,6851.7Z" fill="#ff9d8a"/>
          <path id="Trazado_41269" data-name="Trazado 41269" d="M3176.317,6851.459c.015.077.041.185.081.318l.014.041a4.431,4.431,0,0,0,.184.481l.009.023a5.552,5.552,0,0,0,.326.6c.018.029.037.057.056.087a6.407,6.407,0,0,0,1.252,1.391c.032.027.061.054.093.08a8.351,8.351,0,0,0,.978.679c.048.028.1.055.149.083a10.4,10.4,0,0,0,1.3.631,10.975,10.975,0,0,1,2.958-5.209,13.763,13.763,0,0,1,9.335-3.977,52.929,52.929,0,0,1-.275-9.316,33.049,33.049,0,0,1-8.976-.711,13.374,13.374,0,0,1-3.05-1.071c-.316,3.736-1.367,12.452-4.459,15.731,0,0,.007.049.015.1Z" fill="#e17c5e"/>
          <path id="Trazado_41270" data-name="Trazado 41270" d="M3180.246,6815.148s12.932-3.183,14.822,0,1.293,8.157,2.038,10.4,3.8,4.7,4.1,5.6-2.238,2.462-2.611,3.134-1.99,7.833-4.278,9.325-13.973-3.282-16.659-9.027S3176.74,6816.839,3180.246,6815.148Z" fill="#ff9d8a"/>
          <path id="Trazado_41271" data-name="Trazado 41271" d="M3192.949,6900.991c-.461,5.281.206,32.124,1.352,36.459,1.53,5.789,2.447,11.7,3.646,17.555,3.637-.751,7.439-1.678,11.451-2.875,0,0-8.575-30.85-8.5-33.562.246-9.527.774-31.832.529-39.209-.461-13.87-.557-22.071-.557-22.071a85.321,85.321,0,0,0-7.118-6.427s-.7,1.547-1.746,1.8C3192.653,6861.48,3194.484,6883.434,3192.949,6900.991Z" fill="#fff"/>
          <path id="Trazado_41272" data-name="Trazado 41272" d="M3178.82,6909.784c-.039-1.589-.085-3.178-.043-4.772.253-9.787,2.359-19.2,3.373-28.892a107.962,107.962,0,0,0,.14-22.6,12.242,12.242,0,0,1-4.99-3.566s-14.149,8.108-15.87,8.807c-1.427.58,2.441,14.9.812,24.942-1.321,8.147-5.685,25.751-7.521,32.036-3.621,12.392-4.263,38.238-4.263,38.238s13.132,4.671,32.172,3.214C3179.554,6941.518,3175.93,6925.44,3178.82,6909.784Z" fill="#fff"/>
          <path id="Trazado_41273" data-name="Trazado 41273" d="M3164.166,6911.852c4.031-12.866,5.856-23.465,2.682-36.806a87.543,87.543,0,0,0-5.291-14.853c.6,6.866,1.715,17.159.685,23.507-1.321,8.147-5.685,25.751-7.521,32.036-3.621,12.392-4.263,38.238-4.263,38.238a64.361,64.361,0,0,0,9.63,2.283C3155.048,6941.316,3159.374,6927.143,3164.166,6911.852Z" fill="#d0d1de"/>
          <path id="Trazado_41274" data-name="Trazado 41274" d="M3185.807,6816.973a12.681,12.681,0,0,1-1.646,6.53c-.833,1.491,2.791,5.724,1.646,7.519-.763,1.2-1.781.837-2.608-1.631a3.688,3.688,0,0,0-1.981-1.857c-3.061-1.494-4.006,3.231-1.271,4.773,1.916,1.08.523,5.988.523,5.988-2.179,1.524-9.046-.748-8.051-5.792.633-3.211.905-4.432-.193-5.271-1.985-1.521-4.472-5.6-.944-8.8,4.862-4.411.688-6.073,6.126-7.161S3187.139,6813.668,3185.807,6816.973Z" fill="#110239"/>
          <path id="Trazado_41275" data-name="Trazado 41275" d="M3176.414,6813.819c.356-1.159,2.546-2.573,3.632-3.308a15.5,15.5,0,0,1,5.617-2.231,14.227,14.227,0,0,1,6.141.074c1.729.413,3.157,1.255,4.932,1.54a5.772,5.772,0,0,0,4.488-.659,11.391,11.391,0,0,1,.033,4.046,12.6,12.6,0,0,1-2.5,4.333c-2.765,3.743-9.9,5.558-14.774,3.29-2.353-1.095-4.466-2.047-5.548-4.186A12.511,12.511,0,0,0,3176.414,6813.819Z" fill="#110239"/>
          <path id="Trazado_41276" data-name="Trazado 41276" d="M3272.935,6884.427c2-2.318,1.09-6.15-.406-8.319-1.208-1.752-3.317-1.432-6.426-1.076-2.1.242-4.065.557-4.581,1.231-1.3,2.829,5.611,1.476,7.437,1.523,0,0-7.474.557-7.834,1.969-.6,2.629,6.107,1.149,7.84,1.075-1.686-.117-4.649.444-5.021.857-1.3.284-.838,1.224-.642,1.435.994,1.072,6.5-.071,6.5-.071-.976.2-4.731.19-3.672,1.617.69.93,2.262.666,3.135.693A5.47,5.47,0,0,0,3272.935,6884.427Z" fill="#ff9d8a"/>
          <g id="Grupo_15863" data-name="Grupo 15863">
            <path id="Trazado_41277" data-name="Trazado 41277" d="M3232.433,6904.805h93.307a4.84,4.84,0,0,0,4.84-4.84v-36.893H3227.593v36.893A4.84,4.84,0,0,0,3232.433,6904.805Z" fill="#ab3838"/>
            <path id="Trazado_41278" data-name="Trazado 41278" d="M3229.919,6899.9v-36.824h98.335V6899.9a2.6,2.6,0,0,1-2.6,2.6h-93.135A2.6,2.6,0,0,1,3229.919,6899.9Z" fill="#bd3e3e"/>
            <path id="Trazado_41279" data-name="Trazado 41279" d="M3239.5,6887.882v-26.83h79.167v26.83a5.284,5.284,0,0,1-5.284,5.284h-68.6A5.285,5.285,0,0,1,3239.5,6887.882Z" fill="#cc4343"/>
            <g id="Grupo_15859" data-name="Grupo 15859">
              <path id="Trazado_41280" data-name="Trazado 41280" d="M3233.735,6899.777a5.364,5.364,0,0,1-1.128-1.58c-1.514-3.1-1.234-6.55-1.234-9.892v-17.538c0-1.581-.374-3.7.191-5.218.631-1.687,3.221-1.615,4.606-1.03,2.074.877,1.879,2.753,1.879,4.668V6887.9a6.74,6.74,0,0,0,6.758,6.706h68.559a6.74,6.74,0,0,0,6.758-6.706v-15.375c0-2.132-.234-4.555.323-6.624.527-1.954,4.624-2.353,5.914-1.028,1.081,1.111.439,3.929.439,5.331v16.834c0,3.044.177,6.083-.7,9.042a5.762,5.762,0,0,1-2.455,3.472,8.06,8.06,0,0,1-1.66.646,14.7,14.7,0,0,1-4.676.853h-76.461C3238.2,6901.053,3235.556,6901.493,3233.735,6899.777Z" fill="#c24040"/>
            </g>
            <g id="Grupo_15860" data-name="Grupo 15860">
              <path id="Trazado_41281" data-name="Trazado 41281" d="M3322.648,6899.45a25.716,25.716,0,0,1-4.82.429c-3.517.055-7.027.246-10.546.243-6.938,0-13.876-.093-20.814-.13-6.909-.036-13.8.178-20.712.3-6.8.118-13.6.041-20.389-.34-2.519-.141-5,.08-7.514-.227a12.725,12.725,0,0,1-5.136-1.325,5.242,5.242,0,0,0,1.018,1.379c1.821,1.716,4.464,1.276,7.116,1.276h76.461a14.7,14.7,0,0,0,4.676-.853,8.06,8.06,0,0,0,1.66-.646,4.14,4.14,0,0,0,.887-.691A10.233,10.233,0,0,1,3322.648,6899.45Z" fill="#cc4343"/>
            </g>
            <path id="Trazado_41282" data-name="Trazado 41282" d="M3244.795,6891.146h68.584a3.255,3.255,0,0,0,3.255-3.256v-24.818h-75.095v24.818A3.256,3.256,0,0,0,3244.795,6891.146Z" fill="#9c3333"/>
            <path id="Trazado_41283" data-name="Trazado 41283" d="M3314.263,6864.965a2.133,2.133,0,0,0-.3.814,8.039,8.039,0,0,1-1.182,2.69,14.539,14.539,0,0,1-1.542,2.387,7.107,7.107,0,0,1-10,0,9.718,9.718,0,0,1-2.671-5.492,1.2,1.2,0,0,0-.4-.921,1.15,1.15,0,0,0-.54-.123c-.946-.057-1.882.037-2.835.037h-33.18c-1.135,0-2.075-.084-2.119,1.362-.116,3.908-3.849,6.785-7.585,6.951a7.555,7.555,0,0,1-5.853-2.858,5.565,5.565,0,0,1-.65-1.21q-.492-1.161-.869-2.368c-.2-.629-.157-1.587-.982-1.6a.747.747,0,0,0-.4.09,1.017,1.017,0,0,0-.35.832c-.373,4.4-.1,8.929-.1,13.351v9a2.1,2.1,0,0,0,2.1,2.089h68.559a2.1,2.1,0,0,0,2.1-2.089v-20.6c0-.615.269-2.062-.206-2.451a.708.708,0,0,0-.713-.115A.719.719,0,0,0,3314.263,6864.965Z" fill="#ab3838"/>
            <path id="Trazado_41284" data-name="Trazado 41284" d="M3234.831,6910.195h88.511a2.344,2.344,0,0,0,2.344-2.344v-3.046h-93.2v3.046A2.344,2.344,0,0,0,3234.831,6910.195Z" fill="#a13434"/>
            <path id="Trazado_41285" data-name="Trazado 41285" d="M3233.941,6908.242v-1.61h90.291v1.61a.9.9,0,0,1-.9.9h-88.5A.9.9,0,0,1,3233.941,6908.242Z" fill="#ab3838"/>
            <path id="Trazado_41286" data-name="Trazado 41286" d="M3233.954,6908.364a.9.9,0,0,0,.886.773h88.493a.9.9,0,0,0,.887-.773Z" fill="#bd3e3e"/>
            <rect id="Rectángulo_4530" data-name="Rectángulo 4530" width="93.198" height="1.341" transform="translate(3232.487 6904.805)" fill="#dedcdc" style="mix-blend-mode: multiply;isolation: isolate"/>
            <path id="Trazado_41287" data-name="Trazado 41287" d="M3315.718,6841.526h-73.262a14.643,14.643,0,0,0-6.159,1.357l-5.763,2.671a5.056,5.056,0,0,0-2.941,4.584v2.17H3330.58v-2.17a5.056,5.056,0,0,0-2.941-4.584l-5.763-2.671A14.639,14.639,0,0,0,3315.718,6841.526Z" fill="#bd3e3e"/>
            <path id="Trazado_41288" data-name="Trazado 41288" d="M3327.024,6846.849l-5.763-3.234a11.37,11.37,0,0,0-5.543-1.478h-9.152a4.451,4.451,0,0,0-1.6.053c-.589.263-.484,1.012-.936,1.415a2.519,2.519,0,0,1-1.622.5c-1.1,0-2.2,0-3.3,0h-4.047a6.469,6.469,0,0,1-1.809-.066,4.86,4.86,0,0,1-1.537-1.115,3.549,3.549,0,0,0-2.353-.791h-20.929c-.31,0-.629-.022-.938,0-.754.055-1.086.538-1.559,1.082-.8.915-1.739.745-2.85.745h-6.729a5.318,5.318,0,0,1-1.351-.012c-.675-.2-.783-1.026-1.21-1.5-.615-.672-2.348-.32-3.213-.32h-8.131a11.364,11.364,0,0,0-5.543,1.478l-5.764,3.234c-1.108.622-2.559,2.69-1.946,3.983a1.49,1.49,0,0,0,.285.414c.562.563,1.476.451,2.261.451h93.657c1.062,0,3.17-.023,3.606-1.279S3328.02,6847.408,3327.024,6846.849Z" fill="#cc4343"/>
            <path id="Trazado_41289" data-name="Trazado 41289" d="M3229.064,6850a1.662,1.662,0,0,0,.139.832,1.49,1.49,0,0,0,.285.414c.562.563,1.476.451,2.261.451h93.657c1.062,0,3.17-.023,3.606-1.279a1.456,1.456,0,0,0,.073-.418Z" fill="#d94747"/>
            <g id="Grupo_15861" data-name="Grupo 15861" style="mix-blend-mode: multiply;isolation: isolate">
              <path id="Trazado_41290" data-name="Trazado 41290" d="M3266.021,6841.526h-10.574a7.683,7.683,0,0,0-.456,1.569c0,.014-.035.029-.038.06,0,.012.014.031.023.04a1.383,1.383,0,0,0,.414.3,1.782,1.782,0,0,0,.274.085c.131.033.262.063.392.1a1.5,1.5,0,0,0,.4.021h7.033A2.559,2.559,0,0,0,3266.021,6841.526Z" fill="#dedcdc"/>
              <path id="Trazado_41291" data-name="Trazado 41291" d="M3294.687,6843.7h3.75a18.719,18.719,0,0,0,4.347-.21c.137-.033.443-.236.437-.331-.012-.161-.042-.121-.071-.286s-.056-.3-.1-.452a5.072,5.072,0,0,0-.328-.891h-10.574A2.558,2.558,0,0,0,3294.687,6843.7Z" fill="#dedcdc"/>
            </g>
            <path id="Trazado_41292" data-name="Trazado 41292" d="M3297.253,6838.062v-4.721a7.453,7.453,0,0,0-7.482-7.424H3268.4a7.454,7.454,0,0,0-7.482,7.424v4.721h-.835a5.112,5.112,0,0,0-5.132,5.093h8.533a2.556,2.556,0,0,0,2.566-2.547v-7.267a2.341,2.341,0,0,1,2.35-2.331h21.369a2.341,2.341,0,0,1,2.35,2.331v7.267a2.556,2.556,0,0,0,2.566,2.547h8.534a5.113,5.113,0,0,0-5.133-5.093Z" fill="#d4d5cf"/>
            <path id="Trazado_41293" data-name="Trazado 41293" d="M3294.687,6843.155a1.738,1.738,0,0,1-1.694-1.775v-7.672a3.3,3.3,0,0,0-3.222-3.376H3268.4a3.3,3.3,0,0,0-3.222,3.375v7.673a1.738,1.738,0,0,1-1.694,1.775h-7.571a4.321,4.321,0,0,1,4.17-3.549h1.707v-5.9a6.781,6.781,0,0,1,6.61-6.926h21.369a6.781,6.781,0,0,1,6.61,6.926v5.9h1.708a4.322,4.322,0,0,1,4.17,3.549Z" fill="#e4e6df"/>
            <path id="Trazado_41294" data-name="Trazado 41294" d="M3266.77,6828.715a13.275,13.275,0,0,1,6.132-1.219c2.439-.039,4.879-.006,7.319,0,4.1,0,8.923-.893,12.7,1.108a10.1,10.1,0,0,1,2.9,2.315,6.614,6.614,0,0,0-6.046-4.132H3268.4a6.781,6.781,0,0,0-6.61,6.926v4.379C3262.08,6834.393,3263.242,6830.577,3266.77,6828.715Z" fill="#ecede7"/>
            <rect id="Rectángulo_4531" data-name="Rectángulo 4531" width="102.987" height="5.385" transform="translate(3227.593 6852.302)" fill="#d4d5cf"/>
            <path id="Trazado_41295" data-name="Trazado 41295" d="M3232.22,6852.865c-.972,0-2.681-.307-3.494.3a.671.671,0,0,0-.286.464,7.3,7.3,0,0,0-.008,1.564,1.6,1.6,0,0,0,.423.938,1.508,1.508,0,0,0,1.089.386c.52,0,1.04,0,1.56,0h8.579c1.293,0,3.311.415,4.132-.846a9.409,9.409,0,0,0,.547-1.292c.707-1.55,3.179-1.026,4.58-1.026h7.744c.945,0,1.921.02,2.346,1.038a6.537,6.537,0,0,1,.236.891c.343,1.3,1.42,1.235,2.484,1.235h33.655c.83,0,2.115.2,2.571-.679a2.244,2.244,0,0,0,.134-.369c.256-.811.905-2.018,1.856-2.111.783-.076,1.608,0,2.4,0h8.378c.822,0,1.513-.123,2.074.59a3.479,3.479,0,0,1,.527,1.052,3.56,3.56,0,0,0,.417.968c.515.716,1.232.554,2.017.554h9.784a5.484,5.484,0,0,0,3.149-.454,1.651,1.651,0,0,0,.291-2.394,2.948,2.948,0,0,0-.594-.37,2.494,2.494,0,0,0-1.188-.436c-.183,0-.366,0-.549,0H3232.22Z" fill="#e2e3dd"/>
            <rect id="Rectángulo_4532" data-name="Rectángulo 4532" width="102.987" height="5.385" transform="translate(3227.593 6857.687)" fill="#d4d5cf"/>
            <path id="Trazado_41296" data-name="Trazado 41296" d="M3244.055,6859.274a.934.934,0,0,0-.093-.07,5.045,5.045,0,0,0-2.808-.347h-10.817a2.776,2.776,0,0,0-1.152.1c-.887.412-.872,1.524-.687,2.324a1.775,1.775,0,0,0,.413.822,1.3,1.3,0,0,0,.866.406c.485.04.991,0,1.478,0h10.666c.877,0,2.364-.023,2.481-1.144C3244.471,6860.707,3244.623,6859.752,3244.055,6859.274Z" fill="#e2e3dd"/>
            <path id="Trazado_41297" data-name="Trazado 41297" d="M3298.519,6859.34a3.929,3.929,0,0,0-2.464-.483h-34.807a1.586,1.586,0,0,0-1.57.928,2.963,2.963,0,0,0,.107,2.171c.211.705.8.555,1.385.555h32.2c1.541,0,3.38.316,4.783-.421a2.013,2.013,0,0,0,.485-.319,2.109,2.109,0,0,0,.18-2.054A1.3,1.3,0,0,0,3298.519,6859.34Z" fill="#e2e3dd"/>
            <path id="Trazado_41298" data-name="Trazado 41298" d="M3329.243,6859.191c-.329-.392-.935-.334-1.4-.334h-11.9a1.9,1.9,0,0,0-1.993,1.154,1.934,1.934,0,0,0,1.026,2.436,9.224,9.224,0,0,0,2.675.064h7.072a10.24,10.24,0,0,0,3.652-.18A1.946,1.946,0,0,0,3329.243,6859.191Z" fill="#e2e3dd"/>
            <path id="Trazado_41299" data-name="Trazado 41299" d="M3259.824,6855.7c.448.872,1.393.819,2.328.819h33.655c.83,0,2.115.2,2.571-.679a1.048,1.048,0,0,0,.058-.14Z" fill="#ecede7"/>
            <path id="Trazado_41300" data-name="Trazado 41300" d="M3228.57,6855.7a1.319,1.319,0,0,0,.285.433,1.508,1.508,0,0,0,1.089.386c.52,0,1.04,0,1.56,0h8.579c1.283,0,3.279.407,4.112-.819Z" fill="#ecede7"/>
            <path id="Trazado_41301" data-name="Trazado 41301" d="M3314,6855.7a1.747,1.747,0,0,0,.154.265c.515.716,1.232.554,2.017.554h9.784a5.484,5.484,0,0,0,3.149-.454,1.286,1.286,0,0,0,.367-.365Z" fill="#ecede7"/>
            <path id="Trazado_41302" data-name="Trazado 41302" d="M3228.553,6861.471a1.662,1.662,0,0,0,.358.634,1.3,1.3,0,0,0,.866.406c.485.04.991,0,1.478,0h10.666c.848,0,2.263-.025,2.461-1.04Z" fill="#ecede7"/>
            <path id="Trazado_41303" data-name="Trazado 41303" d="M3259.727,6861.76c.019.065.039.131.058.2.211.705.8.555,1.385.555h32.2c1.541,0,3.38.316,4.783-.422a1.981,1.981,0,0,0,.485-.318l.009-.011Z" fill="#ecede7"/>
            <path id="Trazado_41304" data-name="Trazado 41304" d="M3314.145,6861.76a1.557,1.557,0,0,0,.833.687,9.224,9.224,0,0,0,2.675.064h7.072a10.24,10.24,0,0,0,3.652-.18,2.173,2.173,0,0,0,.848-.571Z" fill="#ecede7"/>
            <rect id="Rectángulo_4533" data-name="Rectángulo 4533" width="102.987" height="1.22" transform="translate(3227.593 6857.077)" fill="#dedcdc" style="mix-blend-mode: multiply;isolation: isolate"/>
            <rect id="Rectángulo_4534" data-name="Rectángulo 4534" width="102.987" height="0.367" transform="translate(3227.593 6857.503)" fill="#dedcdc" style="mix-blend-mode: multiply;isolation: isolate"/>
            <g id="Grupo_15862" data-name="Grupo 15862" style="mix-blend-mode: multiply;isolation: isolate">
              <path id="Trazado_41305" data-name="Trazado 41305" d="M3330.58,6863.072h-17.5v-7.6a1.971,1.971,0,0,0-2.1-1.807H3301.5a1.97,1.97,0,0,0-2.1,1.807v7.6h-40.63v-7.6a1.971,1.971,0,0,0-2.1-1.807H3247.2a1.971,1.971,0,0,0-2.1,1.807v7.6h-17.5v.672h17.5v2.138c0,3.249,3.062,5.883,6.839,5.883s6.839-2.634,6.839-5.883v-2.138h40.63v2.138c0,3.249,3.061,5.883,6.838,5.883s6.839-2.634,6.839-5.883v-2.138h17.5Z" fill="#cbccc6"/>
            </g>
            <path id="Trazado_41306" data-name="Trazado 41306" d="M3256.31,6853.586h-8.754a1.848,1.848,0,0,0-1.941,1.739v10.012c0,3.126,2.829,5.661,6.318,5.661s6.318-2.535,6.318-5.661v-10.012A1.848,1.848,0,0,0,3256.31,6853.586Z" fill="#cbccc6"/>
            <path id="Trazado_41307" data-name="Trazado 41307" d="M3251.933,6870.132a4.819,4.819,0,0,1-4.832-4.795v-10.012a.878.878,0,0,1,.88-.874h7.9a.878.878,0,0,1,.881.874v10.012A4.819,4.819,0,0,1,3251.933,6870.132Z" fill="#e2e3dd"/>
            <path id="Trazado_41308" data-name="Trazado 41308" d="M3247.97,6856.6a5.368,5.368,0,0,1,7.549,0,5.087,5.087,0,0,1,1.246,2.046v-3.317a.878.878,0,0,0-.881-.874h-7.9a.878.878,0,0,0-.88.874v2.434A6.8,6.8,0,0,1,3247.97,6856.6Z" fill="#ecede7"/>
            <path id="Trazado_41309" data-name="Trazado 41309" d="M3255.628,6866.324a5.319,5.319,0,0,1-8.527-1.359v.372a4.832,4.832,0,0,0,9.664,0v-.756A5.922,5.922,0,0,1,3255.628,6866.324Z" fill="#ecede7"/>
            <path id="Trazado_41310" data-name="Trazado 41310" d="M3310.617,6853.586h-8.753a1.848,1.848,0,0,0-1.941,1.739v10.012c0,3.126,2.828,5.661,6.317,5.661s6.318-2.535,6.318-5.661v-10.012A1.848,1.848,0,0,0,3310.617,6853.586Z" fill="#cbccc6"/>
            <path id="Trazado_41311" data-name="Trazado 41311" d="M3306.24,6870.132a4.818,4.818,0,0,1-4.831-4.795v-10.012a.877.877,0,0,1,.88-.874h7.9a.878.878,0,0,1,.88.874v10.012A4.819,4.819,0,0,1,3306.24,6870.132Z" fill="#e2e3dd"/>
            <path id="Trazado_41312" data-name="Trazado 41312" d="M3302.277,6856.6a5.367,5.367,0,0,1,7.549,0,5.085,5.085,0,0,1,1.246,2.046v-3.317a.878.878,0,0,0-.88-.874h-7.9a.877.877,0,0,0-.88.874v2.434A6.737,6.737,0,0,1,3302.277,6856.6Z" fill="#ecede7"/>
            <path id="Trazado_41313" data-name="Trazado 41313" d="M3309.935,6866.324a5.367,5.367,0,0,1-7.549,0,5.344,5.344,0,0,1-.977-1.359v.372a4.832,4.832,0,0,0,9.663,0v-.756A5.907,5.907,0,0,1,3309.935,6866.324Z" fill="#ecede7"/>
            <path id="Trazado_41314" data-name="Trazado 41314" d="M3297.726,6842.366a4.1,4.1,0,0,1-3.627-3.082,35.431,35.431,0,0,1-.452-5.29c-.124-1.532-.322-3.232-1.966-3.864a7.759,7.759,0,0,0-3.211-.247c-6.388.353-12.8-.284-19.188.04a9.624,9.624,0,0,0-2.679.409,3.583,3.583,0,0,0-2.065,1.654,5.667,5.667,0,0,0-.381,2.6q0,2.38-.225,4.754a5.064,5.064,0,0,1-.373,1.686c-.674,1.431-2.632,1.457-4,1.61-1.519.169-3.078.4-4.608.52h8.533a2.556,2.556,0,0,0,2.566-2.547v-7.267a2.341,2.341,0,0,1,2.35-2.331h21.369a2.341,2.341,0,0,1,2.35,2.331v7.267a2.556,2.556,0,0,0,2.566,2.547H3303C3301.238,6842.946,3299.473,6842.664,3297.726,6842.366Z" fill="#f0eded" style="mix-blend-mode: multiply;isolation: isolate"/>
            <path id="Trazado_41315" data-name="Trazado 41315" d="M3329.731,6885.472c-.025.284-.049.569-.078.857a24.866,24.866,0,0,1-1.357,6.569,14.4,14.4,0,0,1-1.307,3.252,12.232,12.232,0,0,1-5.684,4.954c-2.116.848-6.235.551-8.747.583-18.869.244-39.816.237-58.687.231-6.77,0-19.593,1.226-22.041-2.679-3.419-5.455-3.439-19.482-3.986-28.034-.064-.987-.152-1.973-.251-2.957v31.717a4.84,4.84,0,0,0,4.84,4.84h93.307a4.84,4.84,0,0,0,4.84-4.84v-20.348a14,14,0,0,1-.5,3.53A13.95,13.95,0,0,0,3329.731,6885.472Z" fill="#e2e2e2" opacity="0.8" style="mix-blend-mode: multiply;isolation: isolate"/>
            <path id="Trazado_41316" data-name="Trazado 41316" d="M3232.487,6904.805v3.046a2.334,2.334,0,0,0,.51,1.457,2.6,2.6,0,0,1,2.408-1.771h87.124a2.513,2.513,0,0,1,2.437,2,2.339,2.339,0,0,0,.72-1.689v-3.046Z" fill="#e2e2e2" opacity="0.8" style="mix-blend-mode: multiply;isolation: isolate"/>
          </g>
          <path id="Trazado_41317" data-name="Trazado 41317" d="M3214.572,6893.977c1.507-2.128,3.835-4.334,5.476-6.461.748-.97,1.38-2.083,2.066-3.088.434-.636,1.183-2.031,2.136-1.862,1.046.185.37,1.609.1,2.171-.385.812-1.59,2.177-.761,3.024,1.2,1.233,3.516-1.016,4.708-1.669,1.107-.606,3.831-2.371,3.5-.091-.224,1.535-3.337,2.727-4.409,3.354a17.556,17.556,0,0,1,3.94-2.248c.835-.346,2.268-1.188,2.966-.649,1.024.789-1.336,2.58-2.009,2.952a12.726,12.726,0,0,1-3.337,1.444c1.236-.562,5.409-2.91,5.736-.836.2,1.269-3.98,2.393-5.26,3.139,1.013-.171,2.682-1.738,3.736-.693.528.524-.72,1.178-1.359,1.459-.9.4-1.916.589-2.774,1.026a12.554,12.554,0,0,1-2.129.717c-1.83.556-2.9,1.515-4.872,1.7a48.253,48.253,0,0,0-5.323.627C3217.5,6895.442,3214.463,6896.323,3214.572,6893.977Z" fill="#ff9d8a"/>
          <path id="Trazado_41318" data-name="Trazado 41318" d="M3216.357,6890.537l2.728,8.77s-37.421,13.713-44.258,6.179c-6-6.613-15.324-30.734-16.328-38.076-1.543-11.282,11.209-13.957,15.614-5.171,5,9.98,7.867,29.985,9.851,30.35S3216.357,6890.537,3216.357,6890.537Z" fill="#fff"/>
        </g>
        <path id="Trazado_41319" data-name="Trazado 41319" d="M3127.79,6886.947s31.341,15.464,67.122-36.448c0,0-59.093,39.946-75.255,3.681Z" fill="#4463aa"/>
      </g>
    </g>
    <g id="Grupo_15867" data-name="Grupo 15867" transform="translate(4 5)">
      <path id="Trazado_41320" data-name="Trazado 41320" d="M3145.348,6951.464h-34.065v38.71S3146.122,6952.238,3145.348,6951.464Z" fill="#0e2571"/>
      <text id="_5." data-name="5." transform="translate(3114.265 6967.954)" fill="#fff" font-size="18" font-family="MyriadPro-Bold, Myriad Pro" font-weight="700"><tspan x="0" y="0">5.</tspan></text>
    </g>
  </g>
</svg>
