<svg xmlns="http://www.w3.org/2000/svg" xmlns:xlink="http://www.w3.org/1999/xlink" width="675.688" height="423.654" viewBox="0 0 675.688 423.654">
  <defs>
    <radialGradient id="radial-gradient" cx="0.5" cy="0.5" r="0.535" gradientTransform="translate(0.059) scale(0.881 1)" gradientUnits="objectBoundingBox">
      <stop offset="0" stop-color="#274158"/>
      <stop offset="0.266" stop-color="#253d53"/>
      <stop offset="0.542" stop-color="#203347"/>
      <stop offset="0.821" stop-color="#182332"/>
      <stop offset="0.995" stop-color="#121622"/>
    </radialGradient>
    <linearGradient id="linear-gradient" x1="0.5" y1="1" x2="0.5" gradientUnits="objectBoundingBox">
      <stop offset="0" stop-color="#ffc12b"/>
      <stop offset="1" stop-color="#d76200"/>
    </linearGradient>
    <linearGradient id="linear-gradient-2" x1="0.5" y1="1" x2="0.5" gradientUnits="objectBoundingBox">
      <stop offset="0.006"/>
      <stop offset="0.318" stop-color="#212121"/>
      <stop offset="1" stop-color="#757575"/>
    </linearGradient>
    <linearGradient id="linear-gradient-3" x1="0.5" y1="1" x2="0.5" gradientUnits="objectBoundingBox">
      <stop offset="0" stop-color="#ffde13"/>
      <stop offset="1" stop-color="#ff9a2b"/>
    </linearGradient>
    <radialGradient id="radial-gradient-2" cx="0.5" cy="0.5" r="0.523" gradientTransform="translate(0.042) scale(0.917 1)" xlink:href="#radial-gradient"/>
    <radialGradient id="radial-gradient-3" cx="0.5" cy="0.5" r="0.535" xlink:href="#radial-gradient"/>
    <radialGradient id="radial-gradient-4" cx="0.5" cy="0.5" r="0.472" gradientTransform="translate(-0.066) scale(1.133 1)" xlink:href="#radial-gradient"/>
    <radialGradient id="radial-gradient-6" cx="0.5" cy="0.5" r="0.47" gradientTransform="translate(-0.071) scale(1.143 1)" xlink:href="#radial-gradient"/>
    <radialGradient id="radial-gradient-8" cx="0.5" cy="0.5" r="0.536" gradientTransform="translate(0.061) scale(0.879 1)" xlink:href="#radial-gradient"/>
    <radialGradient id="radial-gradient-9" cx="0.5" cy="0.5" r="0.535" xlink:href="#radial-gradient"/>
    <radialGradient id="radial-gradient-10" cx="0.5" cy="0.5" r="0.486" gradientTransform="translate(-0.03) scale(1.061 1)" xlink:href="#radial-gradient"/>
    <radialGradient id="radial-gradient-11" cx="0.5" cy="0.5" r="0.535" xlink:href="#radial-gradient"/>
    <radialGradient id="radial-gradient-12" cx="0.5" cy="0.5" r="0.502" gradientTransform="translate(0.003) scale(0.994 1)" xlink:href="#radial-gradient"/>
    <radialGradient id="radial-gradient-14" cx="0.5" cy="0.5" r="0.365" gradientTransform="translate(-1.461) scale(3.923 1)" xlink:href="#radial-gradient"/>
    <radialGradient id="radial-gradient-16" cx="0.5" cy="0.5" r="0.396" gradientTransform="translate(-0.485) scale(1.971 1)" xlink:href="#radial-gradient"/>
    <radialGradient id="radial-gradient-17" cx="0.5" cy="0.5" r="0.535" xlink:href="#radial-gradient"/>
    <radialGradient id="radial-gradient-18" cx="0.5" cy="0.5" r="0.441" gradientTransform="translate(-0.169) scale(1.337 1)" xlink:href="#radial-gradient"/>
    <radialGradient id="radial-gradient-19" cx="0.5" cy="0.5" r="0.535" xlink:href="#radial-gradient"/>
    <radialGradient id="radial-gradient-20" cx="0.5" cy="0.5" r="0.471" gradientTransform="translate(-0.067) scale(1.135 1)" xlink:href="#radial-gradient"/>
    <radialGradient id="radial-gradient-22" cx="0.5" cy="0.5" r="0.506" gradientTransform="translate(0.012) scale(0.975 1)" xlink:href="#radial-gradient"/>
    <linearGradient id="linear-gradient-34" x1="0.5" y1="1" x2="0.5" gradientUnits="objectBoundingBox">
      <stop offset="0.006" stop-color="#4f4f4f"/>
      <stop offset="1" stop-color="#6b6b6b"/>
    </linearGradient>
    <radialGradient id="radial-gradient-24" cx="0.5" cy="0.5" r="0.419" gradientTransform="translate(-0.285) scale(1.569 1)" xlink:href="#radial-gradient"/>
  </defs>
  <g id="Grupo_16784" data-name="Grupo 16784" transform="translate(-622 -7142)">
    <g id="Grupo_16506" data-name="Grupo 16506" transform="translate(0 -109)">
      <g id="Grupo_16483" data-name="Grupo 16483" transform="translate(-6148.334 7078.385)">
        <g id="Grupo_16482" data-name="Grupo 16482">
          <path id="Trazado_42059" data-name="Trazado 42059" d="M6778.6,299.721a8.268,8.268,0,0,1-7.16-12.4l63.838-110.57a8.268,8.268,0,0,1,14.32,0l63.838,110.57a8.268,8.268,0,0,1-7.16,12.4Z" fill="url(#radial-gradient)"/>
          <path id="Trazado_42060" data-name="Trazado 42060" d="M6784.214,288.214l58.228-100.852,58.227,100.852Z" fill="url(#linear-gradient)"/>
          <path id="Trazado_42061" data-name="Trazado 42061" d="M6843.842,186.554a1.617,1.617,0,0,0-2.8,0l-37.736,65.359c-2.739-.874-5.4-1.818-7.926-2.817l41.3-71.539a6.651,6.651,0,0,1,11.519,0l41.3,71.54c-2.539,1-5.194,1.945-7.928,2.817Z" opacity="0.73" fill="url(#linear-gradient-2)" style="mix-blend-mode: screen;isolation: isolate"/>
          <path id="Trazado_42062" data-name="Trazado 42062" d="M6789.814,284.981l52.627-91.151,52.627,91.151Z" fill="url(#linear-gradient-3)"/>
          <path id="Trazado_42063" data-name="Trazado 42063" d="M6838.1,243.986l-10.687-20.44a34.5,34.5,0,0,1,30.063,0l-10.688,20.44a11.365,11.365,0,0,0-8.688,0Zm-6.96,12.068-23.038.964a34.411,34.411,0,0,0,15.019,26.033l12.362-19.483A11.4,11.4,0,0,1,6831.137,256.054Zm18.265,7.514,12.362,19.483a34.407,34.407,0,0,0,15.019-26.033l-23.038-.964A11.4,11.4,0,0,1,6849.4,263.568Zm-6.961-17.117a8.088,8.088,0,1,0,8.088,8.088A8.089,8.089,0,0,0,6842.441,246.451Z" fill="url(#radial-gradient-2)"/>
        </g>
      </g>
      <g id="Grupo_16485" data-name="Grupo 16485" transform="translate(-6148.334 7078.385)">
        <g id="Grupo_16484" data-name="Grupo 16484">
          <path id="Trazado_42064" data-name="Trazado 42064" d="M6954.536,299.721a8.268,8.268,0,0,1-7.16-12.4l63.838-110.57a8.268,8.268,0,0,1,14.32,0l63.838,110.57a8.268,8.268,0,0,1-7.161,12.4Z" fill="url(#radial-gradient-3)"/>
          <path id="Trazado_42065" data-name="Trazado 42065" d="M6960.146,288.214l58.228-100.852L7076.6,288.214Z" fill="url(#linear-gradient)"/>
          <path id="Trazado_42066" data-name="Trazado 42066" d="M6965.747,284.981l52.627-91.151L7071,284.981Z" fill="url(#linear-gradient-3)"/>
          <path id="Trazado_42067" data-name="Trazado 42067" d="M7004.673,254.9c2.368,0,3.666-1.145,4.237-1.019.621.138.769.945.769,2.105h.029v5.617a1.312,1.312,0,0,0,2.567,0v-2.137h1.131v2.137a1.313,1.313,0,0,0,2.567,0v-2.137h1.132v2.137a1.293,1.293,0,0,0,1.254,1.029h0l.015,0v0h.01l0,0a1.38,1.38,0,0,0,.907-.36,1,1,0,0,0,.376-.678v-2.137h1.132v2.137a1,1,0,0,0,.376.678,1.38,1.38,0,0,0,.907.36,1.3,1.3,0,0,0,1.283-1.038v-2.137h1.132v2.137a1,1,0,0,0,.376.678,1.324,1.324,0,0,0,1.815,0,1,1,0,0,0,.376-.678v-5.617a3.019,3.019,0,0,1,.387-1.881.709.709,0,0,1,.382-.224,1.112,1.112,0,0,1,.57.106,8.975,8.975,0,0,0,3.667.913c2.3,0,5.118-2.473,6.654-6.427q.209-.539.385-1.114a16.721,16.721,0,0,0,.549-2.431,17.98,17.98,0,0,0,.2-2.67c0-1.435.026-2.849.027-4.222,0-3.433-.151-6.613-1.248-9.259a10.417,10.417,0,0,0-.777-1.521c-2.857-4.592-9.283-7.159-19.473-7.159h-.029c-10.19,0-16.616,2.567-19.473,7.159-2.409,3.872-2,9.26-2,15C6996.888,249.669,7001.326,254.9,7004.673,254.9Zm22.347-16.936c4.977-.9,7.749-1.441,8.171,2.353a14.292,14.292,0,0,1-.055,3.6,12.884,12.884,0,0,1-.311,1.508,10.835,10.835,0,0,1-.753,2.021,5.52,5.52,0,0,1-3.645,3.255,3.943,3.943,0,0,1-1.444-.149c-.422-.1-.9-.242-1.406-.417a22.387,22.387,0,0,1-2.394-.991c-2.155-1.04-4.179-2.446-4.456-3.751C7019.213,238.266,7021.516,238.964,7027.02,237.966Zm-7.824,11.123c1,0,4.253,3.939,4.253,5.159s-4.253,1.968-4.253,0Zm-1.645,5.159c0,1.968-4.253,1.218-4.253,0s3.254-5.159,4.253-5.159Zm-15.995-13.929c.422-3.794,3.194-3.255,8.171-2.353,5.5,1,7.807.3,6.293,7.425-.554,2.61-8.094,5.623-9.7,5.308C7003.045,250.055,7001.012,245.214,7001.556,240.319Zm20.544,30.2c-.408.05-.826.094-1.261.127q-1.162.088-2.451.09h-.029c-6.846-.006-11.165-1.981-11.037-4.516l.324-10.766.873-.53.793,12.033.4.3v-2.136a1.312,1.312,0,0,1,2.567,0v2.136h1.132v-2.136a1.313,1.313,0,0,1,2.567,0v2.136h1.131v-2.136a1.3,1.3,0,0,1,1.26-1.034.182.182,0,0,1,.024,0,1.409,1.409,0,0,1,1.183.7.731.731,0,0,1,.1.342v2.136h1.132v-2.136a.721.721,0,0,1,.1-.342,1.409,1.409,0,0,1,1.182-.7,1.371,1.371,0,0,1,1.031.511.9.9,0,0,1,.252.527v2.136h1.132v-2.136a.722.722,0,0,1,.1-.342,1.352,1.352,0,0,1,2.365,0,.716.716,0,0,1,.1.342v2.136l.4-.3.792-12.033.874.53.323,10.766h0a2.389,2.389,0,0,1-.637,1.684c-.026.031-.045.062-.073.093a8.038,8.038,0,0,1-3.8,1.98c-.34.093-.7.176-1.075.253Q7023.035,270.406,7022.1,270.524Zm19.9,6.312a1.9,1.9,0,0,1-.443.5,2.239,2.239,0,0,1-.409.256c-.817.394-1.6.149-1.961.382a.4.4,0,0,0-.142.162c-.1.212,0,.418.173.664.114.165.258.347.39.563a2.9,2.9,0,0,1,.183.349,2.234,2.234,0,0,1,.189.889h0a2.692,2.692,0,0,1-2.253,2.39,2.567,2.567,0,0,1-2.178-.5c-.168-.134-.322-.271-.466-.408a10.156,10.156,0,0,1-2.232-3.943c-.049-.106-.1-.208-.152-.3a2.533,2.533,0,0,0-.367-.516,1.741,1.741,0,0,0-.5-.369l-9.093-4.392h0a13.614,13.614,0,0,0,5.636-1.886l5.262,2.542a1.974,1.974,0,0,0,1.234.131,9.5,9.5,0,0,0,1.2-.324,8.278,8.278,0,0,1,3.039-.5,6.725,6.725,0,0,1,1.183.165,2.489,2.489,0,0,1,1.494,1.029A2.94,2.94,0,0,1,7042,276.836Zm-33.611-6.17a13.547,13.547,0,0,0,5.626,1.891l-9.1,4.395c-1.577.763-1.042,3.39-3.72,5.541-1.758,1.412-4.444-.091-4.431-1.894.01-1.382,1.208-1.9.934-2.465s-1.422.051-2.511-.8c-1.42-1.11-.928-4.149,1.271-4.648,3.349-.761,5.075,1.292,6.652.53Zm-15.726-8.889c-2.2-.5-2.691-3.538-1.271-4.649,1.089-.851,2.239-.234,2.512-.8s-.925-1.082-.935-2.464c-.013-1.8,2.673-3.306,4.432-1.894,2.678,2.151,2.142,4.778,3.719,5.54l4.8,2.319-.136,4.543-6.469-3.125C6997.739,260.485,6996.014,262.538,6992.664,261.777Zm53.492-2.822a2.925,2.925,0,0,1-1.329,2.525,2.508,2.508,0,0,1-.744.3,8.3,8.3,0,0,1-4.737-.5,2.568,2.568,0,0,0-1.915-.033l-6.439,3.11-.137-4.543,4.771-2.3a1.974,1.974,0,0,0,.87-.884c.587-1.065.8-2.735,2.384-4.248q.215-.207.466-.408c1.757-1.412,4.444.091,4.431,1.894-.01,1.382-1.208,1.9-.935,2.464s1.423-.051,2.512.8a1.912,1.912,0,0,1,.443.5A2.565,2.565,0,0,1,7046.156,258.955Z" fill="url(#radial-gradient-4)"/>
          <path id="Trazado_42068" data-name="Trazado 42068" d="M7019.774,186.554a1.617,1.617,0,0,0-2.8,0l-37.735,65.359c-2.739-.874-5.4-1.818-7.927-2.817l41.3-71.539a6.651,6.651,0,0,1,11.519,0l41.3,71.54c-2.539,1-5.194,1.945-7.928,2.817Z" opacity="0.73" fill="url(#linear-gradient-2)" style="mix-blend-mode: screen;isolation: isolate"/>
        </g>
      </g>
      <g id="Grupo_16487" data-name="Grupo 16487" transform="translate(-6148.334 7078.385)">
        <g id="Grupo_16486" data-name="Grupo 16486">
          <path id="Trazado_42069" data-name="Trazado 42069" d="M7130.466,299.721a8.268,8.268,0,0,1-7.161-12.4l63.838-110.57a8.268,8.268,0,0,1,14.321,0l63.838,110.57a8.268,8.268,0,0,1-7.161,12.4Z" fill="url(#radial-gradient-3)"/>
          <path id="Trazado_42070" data-name="Trazado 42070" d="M7136.076,288.214,7194.3,187.362l58.227,100.852Z" fill="url(#linear-gradient)"/>
          <path id="Trazado_42071" data-name="Trazado 42071" d="M7141.676,284.981l52.626-91.151,52.628,91.151Z" fill="url(#linear-gradient-3)"/>
          <path id="Trazado_42072" data-name="Trazado 42072" d="M7176.373,237.09a2.706,2.706,0,0,0,3.451,1.645l21.609-7.66.038.108a1.2,1.2,0,1,0,2.263-.8l-2.963-8.361a1.221,1.221,0,0,0-1.558-.742,1.181,1.181,0,0,0-.719,1.508l.045.126-21.609,7.66a2.706,2.706,0,0,0-1.644,3.451Zm.95-5.411,21.608-7.66,2.11,5.949-21.609,7.66a1.53,1.53,0,0,1-1.952-.931l-1.087-3.066A1.529,1.529,0,0,1,7177.323,231.679Zm-.508,1.8a1.082,1.082,0,0,1,.657-1.381l6.383-2.262h16.215l-20.788,7.368a1.082,1.082,0,0,1-1.38-.658Zm23.969,10.983c0-1.689,3.057-5.993,3.057-5.993s3.057,4.3,3.057,5.993a3.057,3.057,0,1,1-6.114,0Zm20.582,19.923a2.7,2.7,0,0,1-2.7,2.694h-19.525v1.8h16.831a2.695,2.695,0,0,1,0,5.389h-16.831v1.8h10.823a2.695,2.695,0,0,1,0,5.389h-40.242v.41h-.007a1.238,1.238,0,0,1-2.472,0h-.007V254.091h.007a1.238,1.238,0,0,1,2.472,0h.007v.411h4.432l16.64-11.344a3.786,3.786,0,0,1,4.265,6.257L7187.6,254.5h13.359a3.039,3.039,0,0,0,5.76,0h9.256a2.694,2.694,0,0,1,0,5.388h-16.831v1.8h19.525A2.7,2.7,0,0,1,7221.366,264.387Z" fill="url(#radial-gradient-6)"/>
          <path id="Trazado_42073" data-name="Trazado 42073" d="M7195.7,186.554a1.617,1.617,0,0,0-2.8,0l-37.736,65.359c-2.739-.874-5.4-1.818-7.927-2.817l41.3-71.539a6.651,6.651,0,0,1,11.519,0l41.3,71.54c-2.539,1-5.194,1.945-7.928,2.817Z" opacity="0.73" fill="url(#linear-gradient-2)" style="mix-blend-mode: screen;isolation: isolate"/>
        </g>
      </g>
      <g id="Grupo_16489" data-name="Grupo 16489" transform="translate(-6148.334 7078.385)">
        <g id="Grupo_16488" data-name="Grupo 16488">
          <path id="Trazado_42074" data-name="Trazado 42074" d="M7310.078,299.721a8.268,8.268,0,0,1-7.16-12.4l63.838-110.57a8.268,8.268,0,0,1,14.32,0l63.838,110.57a8.268,8.268,0,0,1-7.16,12.4Z" fill="url(#radial-gradient)"/>
          <path id="Trazado_42075" data-name="Trazado 42075" d="M7315.688,288.214l58.228-100.852,58.228,100.852Z" fill="url(#linear-gradient)"/>
          <path id="Trazado_42076" data-name="Trazado 42076" d="M7321.29,284.981l52.626-91.151,52.626,91.151Z" fill="url(#linear-gradient-3)"/>
          <path id="Trazado_42077" data-name="Trazado 42077" d="M7373.916,225.654a21.016,21.016,0,0,0-21.006,21.7l1.152,35.128h12.41L7365,247.363a8.925,8.925,0,1,1,17.834,0l-1.473,35.123h12.41l1.152-35.128a21.016,21.016,0,0,0-21.006-21.7ZM7393.2,281.9l-11.225,0,1.448-34.509a9.513,9.513,0,0,0-8.915-9.894l0-11.24a20.424,20.424,0,0,1,19.826,21.086Zm-43.681.348-1.2.282a56.022,56.022,0,0,1-1.133-19.23l1.222.14A54.807,54.807,0,0,0,7349.519,282.246Zm-4.555.268-1.107.537a25.845,25.845,0,0,1-1.163-19.748l1.162.4A24.619,24.619,0,0,0,7344.964,282.514Zm55.679-19.216a56.021,56.021,0,0,1-1.132,19.23l-1.2-.282a54.807,54.807,0,0,0,1.108-18.808Zm3.332,19.753-1.107-.537a24.614,24.614,0,0,0,1.108-18.808l1.163-.4A25.852,25.852,0,0,1,7403.975,283.051Z" fill="url(#radial-gradient-8)"/>
          <path id="Trazado_42078" data-name="Trazado 42078" d="M7375.316,186.554a1.617,1.617,0,0,0-2.8,0l-37.735,65.359c-2.739-.874-5.4-1.818-7.927-2.817l41.3-71.539a6.651,6.651,0,0,1,11.519,0l41.3,71.54c-2.538,1-5.193,1.945-7.927,2.817Z" opacity="0.73" fill="url(#linear-gradient-2)" style="mix-blend-mode: screen;isolation: isolate"/>
        </g>
      </g>
      <g id="Grupo_16491" data-name="Grupo 16491" transform="translate(-6148.334 7055.385)">
        <g id="Grupo_16490" data-name="Grupo 16490">
          <path id="Trazado_42079" data-name="Trazado 42079" d="M6778.6,471.1a8.269,8.269,0,0,1-7.16-12.4l63.838-110.57a8.268,8.268,0,0,1,14.32,0l63.838,110.57a8.269,8.269,0,0,1-7.16,12.4Z" fill="url(#radial-gradient-9)"/>
          <path id="Trazado_42080" data-name="Trazado 42080" d="M6784.214,459.589l58.228-100.852,58.227,100.852Z" fill="url(#linear-gradient)"/>
          <path id="Trazado_42081" data-name="Trazado 42081" d="M6789.815,456.355l52.626-91.151,52.626,91.151Z" fill="url(#linear-gradient-3)"/>
          <path id="Trazado_42082" data-name="Trazado 42082" d="M6864.485,419.236l-7.753,10.173a2.606,2.606,0,0,1-4.146-3.159l6.122-8.032-5.14-3.663-7.556,18.255a4.407,4.407,0,0,1-3.193,2.55l-11.532,1.911L6827.026,451a2.606,2.606,0,0,1-4.977-1.545l4.745-15.285a2.6,2.6,0,0,1,2.1-1.8l8.644-1.32-12.193-.3-11.3,8.022a2.606,2.606,0,0,1-3.017-4.25l12-8.523a2.683,2.683,0,0,1,1.573-.48l12.843.319,5.867-14.173-7.225,3.32a2.6,2.6,0,0,1-3.477-1.33l-5.257-12.107a2.605,2.605,0,1,1,4.779-2.076l4.2,9.667,9.37-4.306a2.563,2.563,0,0,1,.511-.172,3.411,3.411,0,0,1,2.239.453l15.474,10.427a2.608,2.608,0,0,1,.561,3.7Zm-6.994-24.254c-2.684-1.425-6.17-.112-7.787,2.933s-.751,6.667,1.933,8.092,6.17.113,7.787-2.932S6860.175,396.407,6857.491,394.982Zm-27.37,57.851h34.9V441.2Z" fill="url(#radial-gradient-10)"/>
          <path id="Trazado_42083" data-name="Trazado 42083" d="M6843.842,358a1.618,1.618,0,0,0-2.8,0l-37.736,65.359c-2.739-.874-5.4-1.818-7.926-2.817l41.3-71.539a6.65,6.65,0,0,1,11.519,0l41.3,71.541c-2.539,1-5.194,1.944-7.928,2.816Z" opacity="0.73" fill="url(#linear-gradient-2)" style="mix-blend-mode: screen;isolation: isolate"/>
        </g>
      </g>
      <g id="Grupo_16493" data-name="Grupo 16493" transform="translate(-6148.334 7055.385)">
        <g id="Grupo_16492" data-name="Grupo 16492">
          <path id="Trazado_42084" data-name="Trazado 42084" d="M6954.536,471.1a8.269,8.269,0,0,1-7.16-12.4l63.838-110.57a8.268,8.268,0,0,1,14.32,0l63.838,110.57a8.269,8.269,0,0,1-7.161,12.4Z" fill="url(#radial-gradient-11)"/>
          <path id="Trazado_42085" data-name="Trazado 42085" d="M6960.146,459.589l58.228-100.852L7076.6,459.589Z" fill="url(#linear-gradient)"/>
          <path id="Trazado_42086" data-name="Trazado 42086" d="M6965.747,456.355l52.626-91.151L7071,456.355Z" fill="url(#linear-gradient-3)"/>
          <path id="Trazado_42087" data-name="Trazado 42087" d="M7005.173,424.193l-.807-24.536,7.027-15.214Zm22.266-24.709,1.327-11.1-20.721,38.068Zm17.182,13.374-7.667-1.348L7011.6,430.491Zm-8.931-8.246-6.234,2.374L7016.145,420.3Zm-15.381-30.6-8.916,36.154,8.916-30.762Zm-21.181,30.6-1.516,4.537.541,16.618Zm-7.5,16.849-1.573-3.018,2.226,14.2Zm21.82,11.894,38.423-9.162-10.367-2.005Zm42.51-.056-10.238-.967s-20.383,2.379-20.646,2.642Zm-4.087,5.9h-40.7l52.112,6.395Zm-30.5,4.345,36.845,8.984-10.9-4.771Zm1.432,8.03,9.806.954-18.483-7.635Zm-16.886-5.038a13.681,13.681,0,0,0-2.717,1.706c0,1.137,2.464,2.554,3.064,2.554s3.064-2.87,3.064-3.407S7006.713,446.326,7005.915,446.54Zm6.749-35.674c-.306-.441-2.755.613-3.289,1.243a13.682,13.682,0,0,0-1.261,2.951c.648.934,3.481.694,3.974.352S7012.971,411.307,7012.664,410.866Zm-11.889,29.671c.366,1.024,3.181.259,3.44,0a4.388,4.388,0,0,0-.565-3.11C7003.061,436.838,7000.539,439.877,7000.775,440.537Zm29.318,7.749c-.027-.518-2.461-.162-2.627.242-.257.626,1.365,1.445,1.593,1.433A2.732,2.732,0,0,0,7030.093,448.286Zm4.456-18.338c-.027-.518-2.46-.162-2.626.242-.258.626,1.364,1.445,1.592,1.433A2.732,2.732,0,0,0,7034.549,429.948Zm-9.364-13.747c-.648-.37-2.965,2.161-2.672,2.622.456.717,3.258-.164,3.5-.385S7025.832,416.571,7025.185,416.2Zm-15.642,24.175c-1.516,0-1.9,1.417-.379,2.211S7010.929,440.376,7009.543,440.376ZM6994.6,428c1.349.68,1.565-1.892.336-1.892C6993.587,426.106,6993.246,427.318,6994.6,428Zm6.652-16.893c1.522.795,1.765-2.212.379-2.212C7000.11,408.893,6999.726,410.31,7001.247,411.105Zm6.558,20.51c-.664-.663-2.261.491-2.752,0s-.092-2.717-1.13-2.717c-1.544,0-1.71,4.518-.92,5.308S7008.468,432.278,7007.805,431.615Zm-6.866-5.715c0,.758,2.5.726,3.223,0s-.632-2.4-1.832-2.4C7001.381,423.5,7000.939,425.141,7000.939,425.9Zm16.884,7.75c-.563.508,1.134,2.339,2.16,2.391s1.358-2.078.554-2.969C7019.9,432.369,7018.386,433.142,7017.823,433.65Zm-19.669,8.05c-.553-1.538.836-3.443,3.106-4.309a9.45,9.45,0,0,0-3.452-2.826,4.5,4.5,0,0,1-3.441,2.532.985.985,0,0,1-.122.8,1.079,1.079,0,0,1-1.5.243,1.091,1.091,0,0,1-.462-1.241,4.506,4.506,0,0,1-2.611-2.333,9.439,9.439,0,1,0,9.18,16.449,2.583,2.583,0,0,1-.916-2.666,1.4,1.4,0,0,1,.079-1.537,1.477,1.477,0,0,1,1.177-.7.966.966,0,0,1,.13-.339,1.08,1.08,0,0,1,1.5-.243,1.158,1.158,0,0,1,.381.439,1.175,1.175,0,0,1,.212.235,1.407,1.407,0,0,1,1,.623,9.422,9.422,0,0,0,.784-3.753C7000.927,443.8,6998.7,443.217,6998.154,441.7Z" fill="url(#radial-gradient-12)"/>
          <path id="Trazado_42088" data-name="Trazado 42088" d="M7019.774,358a1.618,1.618,0,0,0-2.8,0l-37.735,65.359c-2.739-.874-5.4-1.818-7.927-2.817l41.3-71.539a6.65,6.65,0,0,1,11.519,0l41.3,71.541c-2.539,1-5.194,1.944-7.928,2.816Z" opacity="0.73" fill="url(#linear-gradient-2)" style="mix-blend-mode: screen;isolation: isolate"/>
        </g>
      </g>
      <g id="Grupo_16495" data-name="Grupo 16495" transform="translate(-6148.334 7055.385)">
        <g id="Grupo_16494" data-name="Grupo 16494">
          <path id="Trazado_42089" data-name="Trazado 42089" d="M7130.466,471.1a8.269,8.269,0,0,1-7.161-12.4l63.838-110.57a8.268,8.268,0,0,1,14.321,0l63.838,110.57a8.269,8.269,0,0,1-7.161,12.4Z" fill="url(#radial-gradient-11)"/>
          <path id="Trazado_42090" data-name="Trazado 42090" d="M7136.076,459.589,7194.3,358.737l58.227,100.852Z" fill="url(#linear-gradient)"/>
          <path id="Trazado_42091" data-name="Trazado 42091" d="M7141.676,456.355,7194.3,365.2l52.628,91.151Z" fill="url(#linear-gradient-3)"/>
          <path id="Trazado_42092" data-name="Trazado 42092" d="M7202.084,441.794a7.781,7.781,0,1,1-7.824-7.737A7.8,7.8,0,0,1,7202.084,441.794Zm-13.326-15.56-1.718-37.655h14.443l-1.721,37.655Z" fill="url(#radial-gradient-14)"/>
          <path id="Trazado_42093" data-name="Trazado 42093" d="M7195.7,358a1.618,1.618,0,0,0-2.8,0l-37.736,65.359c-2.739-.874-5.4-1.818-7.927-2.817l41.3-71.539a6.65,6.65,0,0,1,11.519,0l41.3,71.541c-2.539,1-5.194,1.944-7.928,2.816Z" opacity="0.73" fill="url(#linear-gradient-2)" style="mix-blend-mode: screen;isolation: isolate"/>
        </g>
      </g>
      <g id="Grupo_16497" data-name="Grupo 16497" transform="translate(-6148.334 7055.385)">
        <g id="Grupo_16496" data-name="Grupo 16496">
          <path id="Trazado_42094" data-name="Trazado 42094" d="M7310.078,471.1a8.269,8.269,0,0,1-7.16-12.4l63.838-110.57a8.268,8.268,0,0,1,14.32,0l63.838,110.57a8.269,8.269,0,0,1-7.16,12.4Z" fill="url(#radial-gradient-9)"/>
          <path id="Trazado_42095" data-name="Trazado 42095" d="M7315.688,459.589l58.228-100.852,58.228,100.852Z" fill="url(#linear-gradient)"/>
          <path id="Trazado_42096" data-name="Trazado 42096" d="M7321.29,456.355l52.626-91.151,52.626,91.151Z" fill="url(#linear-gradient-3)"/>
          <path id="Trazado_42097" data-name="Trazado 42097" d="M7388.416,414.615l-17.04,25.577,4.981-.217-13.2,12.557V435.42l3.447,3.377,4.558-18.166h-13.7l10.851-30.506h20.812l-13.875,24.49Z" fill="url(#radial-gradient-16)"/>
          <path id="Trazado_42098" data-name="Trazado 42098" d="M7375.316,358a1.618,1.618,0,0,0-2.8,0l-37.735,65.359c-2.739-.874-5.4-1.818-7.927-2.817l41.3-71.539a6.65,6.65,0,0,1,11.519,0l41.3,71.541c-2.538,1-5.193,1.944-7.927,2.816Z" opacity="0.73" fill="url(#linear-gradient-2)" style="mix-blend-mode: screen;isolation: isolate"/>
        </g>
      </g>
      <g id="Grupo_16499" data-name="Grupo 16499" transform="translate(-6148.334 7033.385)">
        <g id="Grupo_16498" data-name="Grupo 16498">
          <path id="Trazado_42099" data-name="Trazado 42099" d="M6778.6,641.269a8.268,8.268,0,0,1-7.16-12.4l63.838-110.57a8.268,8.268,0,0,1,14.32,0l63.838,110.57a8.268,8.268,0,0,1-7.16,12.4Z" fill="url(#radial-gradient-17)"/>
          <path id="Trazado_42100" data-name="Trazado 42100" d="M6784.214,629.762l58.228-100.852,58.227,100.852Z" fill="url(#linear-gradient)"/>
          <path id="Trazado_42101" data-name="Trazado 42101" d="M6789.815,626.528l52.626-91.151,52.626,91.151Z" fill="url(#linear-gradient-3)"/>
          <path id="Trazado_42102" data-name="Trazado 42102" d="M6825.12,576.833a19.254,19.254,0,0,0,.2,8.785c1.113-7.9,4.926-5.846,3.092-15.821,1.32.477,5.75,3.709,7.952,9.566,0-13.458,4.064-17.795,13.3-21.277-3.986,9.146.917,10.982,2.464,20.8,1.634-3.494,1.876-8.819,1.449-12.222,3.551,3.267,8.988,9.955,7.262,21.153,1.035-1.841,1.464-3.408,1.464-7.025,8.167,8.166,5.384,32.423-11.361,36.142a15.528,15.528,0,0,0,1.529-8.093,9.438,9.438,0,0,1-4.856,3.045c1.935-2.964,3.272-5.694,1.566-10.091a10.518,10.518,0,0,1-3.805,6.289c.856-7.9-1.325-7.211-1.965-12.237-3.021,2.917-.774,7.233-4.5,11.952a17,17,0,0,0-1.939-5.8c-1.089,1.089-2.239,5.083-1.4,9.747a6.218,6.218,0,0,1-3.22-4.529c-1.46,4.447.31,7.828,1.273,10.191A24.685,24.685,0,0,1,6825.12,576.833ZM6856.6,591.8a7.726,7.726,0,0,1-1.047,4.647,14.464,14.464,0,0,0-5.189-13.991,15.512,15.512,0,0,1-1.035,8.084c-1.106-6.492-4.609-7.706-1.761-13.755-6.6,2.3-9.506,5.171-9.506,14.072a12.114,12.114,0,0,0-5.681-6.327c1.31,6.6-1.415,5.239-2.21,10.464a11.8,11.8,0,0,1-.144-5.81c-8.965,8.433-7.9,18.34,2.239,26.833-1.04-2.364-2.29-6.792.1-11a9.492,9.492,0,0,0,2.507,5.43c-.9-4.664.75-8.665,1.928-9.755a15.224,15.224,0,0,1,2.193,5.622c2.729-4.609.872-8.921,4.865-12.033.468,5.172,2.983,5.655,2.143,12.409,1.875-1.875,2.581-4.274,3.121-6.913,1.843,4.4,2.2,7.56.1,10.525,2.46-.948,2.962-2.32,3.86-3.413.841,3.586.433,6.715-.784,8.652C6861.534,610.032,6862.438,597.2,6856.6,591.8Zm7.547,28.845H6820.4v2.842h43.747Z" fill="url(#radial-gradient-18)"/>
          <path id="Trazado_42103" data-name="Trazado 42103" d="M6843.842,527.7a1.618,1.618,0,0,0-2.8,0l-37.736,65.36c-2.739-.875-5.4-1.819-7.926-2.818l41.3-71.539a6.651,6.651,0,0,1,11.519,0l41.3,71.541c-2.539,1-5.194,1.944-7.928,2.817Z" opacity="0.73" fill="url(#linear-gradient-2)" style="mix-blend-mode: screen;isolation: isolate"/>
        </g>
      </g>
      <g id="Grupo_16501" data-name="Grupo 16501" transform="translate(-6148.334 7033.385)">
        <g id="Grupo_16500" data-name="Grupo 16500">
          <path id="Trazado_42104" data-name="Trazado 42104" d="M6954.536,641.269a8.268,8.268,0,0,1-7.16-12.4l63.838-110.57a8.268,8.268,0,0,1,14.32,0l63.838,110.57a8.268,8.268,0,0,1-7.161,12.4Z" fill="url(#radial-gradient-19)"/>
          <path id="Trazado_42105" data-name="Trazado 42105" d="M6960.146,629.762l58.228-100.852L7076.6,629.762Z" fill="url(#linear-gradient)"/>
          <path id="Trazado_42106" data-name="Trazado 42106" d="M6965.747,626.528l52.626-91.151L7071,626.528Z" fill="url(#linear-gradient-3)"/>
          <path id="Trazado_42107" data-name="Trazado 42107" d="M7030.006,577.042c-2.009-3.23-6.529-5.036-13.7-5.036h-.02c-7.168,0-11.688,1.806-13.7,5.036-1.694,2.724-1.406,6.514-1.406,10.553,0,5.211,3.123,8.892,5.477,8.892,1.665,0,2.579-.8,2.98-.716.437.1.541.664.541,1.48h.02V601.2a.923.923,0,0,0,1.806,0v-1.5h.8v1.5a.923.923,0,0,0,1.8,0v-1.5h.8v1.5a.913.913,0,0,0,.893.726v0h.01a.915.915,0,0,0,.9-.73v-1.5h.8v1.5a.923.923,0,0,0,1.805,0v-1.5h.8v1.5a.924.924,0,0,0,1.806,0v-3.951c0-.816.1-1.384.541-1.48.4-.089,1.314.716,2.98.716,2.354,0,5.476-3.681,5.476-8.892C7031.412,583.556,7031.7,579.766,7030.006,577.042ZM7016.878,592.4c.7,0,2.991,2.771,2.991,3.629s-2.991,1.385-2.991,0Zm-9.058,1.133c-2.3-.453-3.734-3.859-3.351-7.3.3-2.669,2.247-2.289,5.747-1.655,3.872.7,5.493.211,4.428,5.223C7014.253,591.633,7008.95,593.752,7007.82,593.531Zm7.9-1.133v3.629c0,1.385-2.991.857-2.991,0S7015.017,592.4,7015.72,592.4Zm9.057,1.133c-1.129.221-6.433-1.9-6.823-3.734-1.065-5.012.556-4.521,4.427-5.223,3.5-.634,5.451-1.014,5.747,1.655C7028.511,589.672,7027.081,593.078,7024.777,593.531Zm-.684,10.921c.09,1.786-2.956,3.177-7.784,3.177s-7.874-1.391-7.784-3.177l.228-7.573.614-.373.557,8.464.279.212v-1.5a.923.923,0,0,1,1.806,0v1.5h.8v-1.5a.923.923,0,0,1,1.8,0v1.5h.8v-1.5a.924.924,0,0,1,1.806,0v1.5h.8v-1.5a.923.923,0,0,1,1.805,0v1.5h.8v-1.5a.924.924,0,0,1,1.806,0v1.5l.278-.212.558-8.464.614.373Zm8.653-16.857c0-.319,0-.633,0-.948h12.913L7025.4,603.68l-.178-5.929a5.521,5.521,0,0,0,.711.069C7029.151,597.82,7032.746,593.447,7032.746,587.595Zm-32.894,0a13.227,13.227,0,0,0,1.159,5.476h-14.077l24.044-32.576H7033.2l-11.118,10.661a32.913,32.913,0,0,0-5.8-.483h-1.333v.044c-6.745.221-11.3,2.094-13.494,5.621-1.683,2.7-1.652,6.117-1.618,9.73C6999.847,586.572,6999.852,587.081,6999.852,587.595Zm16.457,21.367a21.887,21.887,0,0,0,3.06-.21l-6.7,5.63,5.6,1.4-19.9,11.353,8.412-18.625,2.364,3.959,3.547-3.8a19.171,19.171,0,0,0,2.258.258v.038Z" fill="url(#radial-gradient-20)"/>
          <path id="Trazado_42108" data-name="Trazado 42108" d="M7019.774,527.7a1.618,1.618,0,0,0-2.8,0l-37.735,65.36c-2.739-.875-5.4-1.819-7.927-2.818l41.3-71.539a6.651,6.651,0,0,1,11.519,0l41.3,71.541c-2.539,1-5.194,1.944-7.928,2.817Z" opacity="0.73" fill="url(#linear-gradient-2)" style="mix-blend-mode: screen;isolation: isolate"/>
        </g>
      </g>
      <g id="Grupo_16503" data-name="Grupo 16503" transform="translate(-6148.334 7033.385)">
        <g id="Grupo_16502" data-name="Grupo 16502">
          <path id="Trazado_42109" data-name="Trazado 42109" d="M7310.078,641.269a8.268,8.268,0,0,1-7.16-12.4l63.838-110.57a8.268,8.268,0,0,1,14.32,0l63.838,110.57a8.268,8.268,0,0,1-7.16,12.4Z" fill="url(#radial-gradient-17)"/>
          <path id="Trazado_42110" data-name="Trazado 42110" d="M7315.688,629.762l58.228-100.852,58.228,100.852Z" fill="url(#linear-gradient)"/>
          <path id="Trazado_42111" data-name="Trazado 42111" d="M7321.29,626.528l52.626-91.151,52.626,91.151Z" fill="url(#linear-gradient-3)"/>
          <path id="Trazado_42112" data-name="Trazado 42112" d="M7369.667,600.386c-.158-.516-1.457-7.793-.626-10.064.685-1.872,4.739-9.289,7.151-11.521a81.073,81.073,0,0,1,10.345-6.368l4.657-6.657,5.772,8.157-3.087,4.434a13.947,13.947,0,0,1-1.41,5.609c-1.432,2.486-3.379,4.608-4.817,7.166a55.821,55.821,0,0,0-2.58,5.2,1.31,1.31,0,0,1-1.943.747c-.939-.591-1.564-3.007-.91-5.441s2.277-4.881,1.823-5.522c-.615-.869-3.251-.193-4.568.3-1.694.636-4.807,4.019-6.165,5.832-.853,1.138-1.019,7.288-1.019,7.288C7372.42,601.8,7370.225,602.206,7369.667,600.386Zm-1.389-.555v3.394l-1.993.9a13.175,13.175,0,0,1-.445,1.633l1.279,1.786-.848,1.47-.849,1.469-2.193-.215a13.306,13.306,0,0,1-1.186,1.187l.215,2.193-1.47.848-1.47.849-1.786-1.279a13.285,13.285,0,0,1-1.633.445l-.9,1.992H7351.6l-.9-1.992a13.285,13.285,0,0,1-1.633-.445l-1.786,1.279-1.47-.849-1.469-.848.215-2.193a13.188,13.188,0,0,1-1.187-1.187l-2.193.215-.848-1.469-.849-1.47,1.279-1.786a13.346,13.346,0,0,1-.445-1.633l-1.992-.9v-3.394l1.992-.9a13.3,13.3,0,0,1,.445-1.633l-1.279-1.787.849-1.469.848-1.47,2.193.215a13.185,13.185,0,0,1,1.187-1.186l-.215-2.193,1.469-.849,1.47-.848,1.786,1.279a12.947,12.947,0,0,1,1.633-.445l.9-1.993H7355l.9,1.993a12.947,12.947,0,0,1,1.633.445l1.786-1.279,1.47.848,1.47.849-.215,2.193a13.3,13.3,0,0,1,1.186,1.186l2.193-.215.849,1.47.848,1.469-1.279,1.787a13.125,13.125,0,0,1,.445,1.633Zm-10.44,1.7a4.54,4.54,0,1,0-4.539,4.539A4.54,4.54,0,0,0,7357.838,601.528Zm35.338,7.859v2.765l-1.624.736a10.544,10.544,0,0,1-.363,1.331l1.043,1.455-.692,1.2-.691,1.2-1.787-.175a10.821,10.821,0,0,1-.967.967l.176,1.787-1.2.691-1.2.692-1.456-1.043a10.6,10.6,0,0,1-1.33.363l-.737,1.624h-2.765l-.736-1.624a10.569,10.569,0,0,1-1.331-.363l-1.456,1.043-1.2-.692-1.2-.691.175-1.787a10.762,10.762,0,0,1-.967-.967l-1.787.175-.691-1.2-.692-1.2,1.043-1.455a10.544,10.544,0,0,1-.363-1.331l-1.623-.736v-2.765l1.623-.737a10.575,10.575,0,0,1,.363-1.33l-1.043-1.456.692-1.2.691-1.2,1.787.176a10.762,10.762,0,0,1,.967-.967l-.175-1.787,1.2-.691,1.2-.692,1.456,1.042a10.745,10.745,0,0,1,1.331-.362l.736-1.624h2.765l.737,1.624a10.777,10.777,0,0,1,1.33.362l1.456-1.042,1.2.692,1.2.691-.176,1.787a10.821,10.821,0,0,1,.967.967l1.787-.176.691,1.2.692,1.2-1.043,1.456a10.575,10.575,0,0,1,.363,1.33Zm-8.507,1.382a3.7,3.7,0,1,0-3.7,3.7A3.7,3.7,0,0,0,7384.669,610.769Z" fill="url(#radial-gradient-22)"/>
          <path id="Trazado_42113" data-name="Trazado 42113" d="M7375.317,528.012a1.617,1.617,0,0,0-2.8,0l-37.736,65.359c-2.739-.875-5.4-1.818-7.926-2.818l41.3-71.538a6.65,6.65,0,0,1,11.519,0l41.3,71.54c-2.539,1-5.194,1.945-7.928,2.817Z" opacity="0.73" fill="url(#linear-gradient-2)" style="mix-blend-mode: screen;isolation: isolate"/>
          <path id="Trazado_42114" data-name="Trazado 42114" d="M7338.715,596.256a130.246,130.246,0,0,0,70.4,0l-35.2-60.969Z" opacity="0.73" fill="url(#linear-gradient-34)" style="mix-blend-mode: screen;isolation: isolate"/>
        </g>
      </g>
      <g id="Grupo_16505" data-name="Grupo 16505" transform="translate(-6148.334 7033.385)">
        <g id="Grupo_16504" data-name="Grupo 16504">
          <path id="Trazado_42115" data-name="Trazado 42115" d="M7130.466,641.269a8.268,8.268,0,0,1-7.161-12.4l63.838-110.57a8.268,8.268,0,0,1,14.321,0l63.838,110.57a8.268,8.268,0,0,1-7.161,12.4Z" fill="url(#radial-gradient-19)"/>
          <path id="Trazado_42116" data-name="Trazado 42116" d="M7136.076,629.762,7194.3,528.91l58.227,100.852Z" fill="url(#linear-gradient)"/>
          <path id="Trazado_42117" data-name="Trazado 42117" d="M7141.676,626.528l52.626-91.151,52.628,91.151Z" fill="url(#linear-gradient-3)"/>
          <path id="Trazado_42118" data-name="Trazado 42118" d="M7186.573,594.748c3.821-2.029,8.784-.16,11.085,4.175s1.07,9.493-2.751,11.521-8.785.16-11.086-4.174S7182.751,596.777,7186.573,594.748Zm24.56,30.055-3.613-9.124,12.711-7.324a3.708,3.708,0,0,0,1.78-4.992l-8.232-16.893a3.709,3.709,0,1,0-6.669,3.249l6.572,13.488-36.268,20.8a3.709,3.709,0,0,0-.792.795Zm-15.294-53.156-12.422,6.31,2.52,4.96,12.422-6.309Zm-20.011,10.82a3.664,3.664,0,1,0,3.664,3.663A3.664,3.664,0,0,0,7175.828,582.467Zm25.509-2.5a1.251,1.251,0,1,0,1.251,1.251A1.251,1.251,0,0,0,7201.337,579.965Zm3.455-2.232.617.453c.417.306,1.1.111,1.713-.419l3.4,2.491a.777.777,0,1,0,.919-1.253l-3.4-2.491c.323-.742.3-1.454-.114-1.76l-.616-.452c-.545-.4-1.55.044-2.246.992S7204.248,577.334,7204.792,577.733Zm4.232-4.086,1.865-1.04v-11.4l-1.865-3.621Zm-18.136-2.6,1.864-1.04.932-24.263-1.864,1.039ZM7172,575.729l1.865-1.04v-6.106l-1.865,1.04Zm8.143-.936.557-1.04V557.691l-.557,1.04Zm20.913-1.943.556-1.04V555.748l-.556,1.04Z" fill="url(#radial-gradient-24)"/>
          <path id="Trazado_42119" data-name="Trazado 42119" d="M7195.7,528.012a1.617,1.617,0,0,0-2.8,0l-37.736,65.359c-2.739-.875-5.4-1.818-7.927-2.818l41.3-71.538a6.65,6.65,0,0,1,11.519,0l41.3,71.54c-2.539,1-5.194,1.945-7.928,2.817Z" opacity="0.73" fill="url(#linear-gradient-2)" style="mix-blend-mode: screen;isolation: isolate"/>
          <path id="Trazado_42120" data-name="Trazado 42120" d="M7159.1,596.256a130.241,130.241,0,0,0,70.4,0l-35.2-60.969Z" opacity="0.73" fill="url(#linear-gradient-34)" style="mix-blend-mode: screen;isolation: isolate"/>
        </g>
      </g>
    </g>
  </g>
</svg>
