<svg xmlns="http://www.w3.org/2000/svg" width="637.97" height="487.535" viewBox="0 0 637.97 487.535">
  <g id="Grupo_16783" data-name="Grupo 16783" transform="translate(-639 -702)">
    <line id="Línea_230" data-name="Línea 230" x1="70.385" transform="translate(798.77 945.928)" fill="none" stroke="#0f3384" stroke-miterlimit="10" stroke-width="3"/>
    <path id="Unión_36" data-name="Unión 36" d="M2305.087,953.519v-20.7l-11.19-13.031,11.19-13.031V885.677h332.38v67.842Z" transform="translate(-1414.843 -175.98)" fill="rgba(68,99,170,0.6)" stroke="rgba(0,0,0,0)" stroke-miterlimit="10" stroke-width="1"/>
    <text id="Manuales_de_procedimiento_de_laboratorio" data-name="Manuales de procedimiento de 
laboratorio" transform="translate(908.367 740.493)" fill="#f3f7fa" font-size="21.459" font-family="MyriadPro-Regular, Myriad Pro"><tspan x="0" y="0">Manuales de procedimiento de </tspan><tspan x="0" y="25.751">laboratorio</tspan></text>
    <path id="Unión_37" data-name="Unión 37" d="M2305.087,953.519v-20.7l-11.19-13.031,11.19-13.031V885.677h332.38v67.842Z" transform="translate(-1414.843 -75.594)" fill="rgba(68,99,170,0.8)" stroke="rgba(0,0,0,0)" stroke-miterlimit="10" stroke-width="1"/>
    <text id="Formatos_y_registros_de_laboratorios" data-name="Formatos y registros de 
laboratorios" transform="translate(908.367 838.956)" fill="#f3f7fa" font-size="21.459" font-family="MyriadPro-Regular, Myriad Pro"><tspan x="0" y="0">Formatos y registros de </tspan><tspan x="0" y="25.751">laboratorios</tspan></text>
    <path id="Unión_38" data-name="Unión 38" d="M2305.087,953.519v-20.7l-11.19-13.031,11.19-13.031V885.677h332.38v67.842Z" transform="translate(-1414.843 25.945)" fill="rgba(68,99,170,0.6)" stroke="rgba(0,0,0,0)" stroke-miterlimit="10" stroke-width="1"/>
    <text id="Control_de_la_calidad_en_el_muestreo" data-name="Control de la calidad en el 
muestreo" transform="translate(908.367 941.051)" fill="#f3f7fa" font-size="21.459" font-family="MyriadPro-Regular, Myriad Pro"><tspan x="0" y="0">Control de la calidad en el </tspan><tspan x="0" y="25.751">muestreo</tspan></text>
    <path id="Unión_39" data-name="Unión 39" d="M2305.087,953.519v-20.7l-11.19-13.031,11.19-13.031V885.677h332.38v67.842Z" transform="translate(-1414.843 127.484)" fill="rgba(68,99,170,0.8)" stroke="rgba(0,0,0,0)" stroke-miterlimit="10" stroke-width="1"/>
    <text id="Riesgos_en_el_laboratorio_y_pictogramas" data-name="Riesgos en el laboratorio y 
pictogramas" transform="translate(908.367 1043.53)" fill="#f3f7fa" font-size="21.459" font-family="MyriadPro-Regular, Myriad Pro"><tspan x="0" y="0">Riesgos en el laboratorio y </tspan><tspan x="0" y="25.751">pictogramas</tspan></text>
    <path id="Unión_40" data-name="Unión 40" d="M2305.087,953.519v-20.7l-11.19-13.031,11.19-13.031V885.677h332.38v67.842Z" transform="translate(-1414.843 230.177)" fill="rgba(68,99,170,0.6)" stroke="rgba(0,0,0,0)" stroke-miterlimit="10" stroke-width="1"/>
    <text id="Métodos_estándar_para_análisis_de_aguas_en_laboratorio." data-name="Métodos estándar para análisis 
de aguas en laboratorio." transform="translate(908.367 1144.621)" fill="#f3f7fa" font-size="21.459" font-family="MyriadPro-Regular, Myriad Pro"><tspan x="0" y="0">Métodos estándar para análisis </tspan><tspan x="0" y="25.751">de aguas en laboratorio.</tspan></text>
    <circle id="Elipse_1190" data-name="Elipse 1190" cx="89.424" cy="89.424" r="89.424" transform="translate(643 857.658)" fill="#0f3384" stroke="#4463aa" stroke-miterlimit="10" stroke-width="8"/>
    <text id="Protocolos_de_laboratorio" data-name="Protocolos 
de
 laboratorio" transform="translate(729.539 936.12)" fill="#fff" font-size="24.174" font-family="CerebriSans-Bold, Cerebri Sans" font-weight="700"><tspan x="-66.071" y="0">Protocolos </tspan><tspan x="-14.76" y="24.174">de</tspan><tspan x="-67.133" y="48.348" xml:space="preserve"> laboratorio</tspan></text>
    <line id="Línea_231" data-name="Línea 231" y2="412.863" transform="translate(869.091 740.542)" fill="none" stroke="#0f3384" stroke-miterlimit="10" stroke-width="3"/>
    <g id="Grupo_16773" data-name="Grupo 16773">
      <g id="Grupo_15917" data-name="Grupo 15917" transform="translate(-3667.896 410.323)">
        <g id="Grupo_15916" data-name="Grupo 15916">
          <circle id="Elipse_1201" data-name="Elipse 1201" cx="38.836" cy="38.836" r="38.836" transform="translate(4865.758 293.113)" fill="#fff"/>
          <path id="Trazado_41430" data-name="Trazado 41430" d="M4904.594,372.221a40.272,40.272,0,1,1,40.272-40.272A40.317,40.317,0,0,1,4904.594,372.221Zm0-77.672a37.4,37.4,0,1,0,37.4,37.4A37.443,37.443,0,0,0,4904.594,294.549Z" fill="#0e2571"/>
          <circle id="Elipse_1202" data-name="Elipse 1202" cx="31.282" cy="31.282" r="31.282" transform="translate(4873.625 300.354)" fill="#0f3384"/>
        </g>
      </g>
      <g id="Grupo_15926" data-name="Grupo 15926" transform="translate(-3667.896 410.323)">
        <path id="Trazado_41435" data-name="Trazado 41435" d="M4887.836,352.026a.76.76,0,0,1-.76-.76V316.851a.759.759,0,0,1,.76-.759h30.88a.759.759,0,1,1,0,1.519H4888.6v33.655A.76.76,0,0,1,4887.836,352.026Z" fill="#fff"/>
        <path id="Trazado_41436" data-name="Trazado 41436" d="M4887.836,352.026a.811.811,0,0,1-.1-.006.761.761,0,0,1-.657-.851l3.907-30.508a.759.759,0,0,1,.753-.663h30.881a.76.76,0,0,1,0,1.519h-30.212l-3.822,29.846A.76.76,0,0,1,4887.836,352.026Z" fill="#fff"/>
        <path id="Trazado_41437" data-name="Trazado 41437" d="M4887.836,352.026a.746.746,0,0,1-.236-.038.76.76,0,0,1-.487-.958l8.464-25.95a.761.761,0,0,1,.723-.524h30.88a.76.76,0,1,1,0,1.519h-30.329l-8.293,25.427A.762.762,0,0,1,4887.836,352.026Z" fill="#fff"/>
        <path id="Trazado_41438" data-name="Trazado 41438" d="M4918.716,352.026h-30.88a.76.76,0,0,1-.635-1.178l13.673-20.742a.762.762,0,0,1,.635-.342h30.88a.76.76,0,0,1,.634,1.178l-13.673,20.742A.758.758,0,0,1,4918.716,352.026Zm-29.47-1.52h29.061l12.671-19.222h-29.06Z" fill="#fff"/>
        <path id="Trazado_41439" data-name="Trazado 41439" d="M4914.164,346.538h-14.541a.76.76,0,0,1-.634-1.177l6.438-9.767a.76.76,0,0,1,.634-.342h14.54a.76.76,0,0,1,.635,1.178L4914.8,346.2A.758.758,0,0,1,4914.164,346.538Zm-13.13-1.519h12.72l5.437-8.248h-12.72Z" fill="#fff"/>
      </g>
    </g>
    <g id="Grupo_16776" data-name="Grupo 16776">
      <g id="Grupo_15923" data-name="Grupo 15923" transform="translate(-3667.896 410.323)">
        <g id="Grupo_15922" data-name="Grupo 15922">
          <circle id="Elipse_1207" data-name="Elipse 1207" cx="38.836" cy="38.836" r="38.836" transform="translate(4865.758 598.565)" fill="#fff"/>
          <path id="Trazado_41433" data-name="Trazado 41433" d="M4904.594,677.673a40.272,40.272,0,1,1,40.272-40.272A40.318,40.318,0,0,1,4904.594,677.673Zm0-77.672a37.4,37.4,0,1,0,37.4,37.4A37.443,37.443,0,0,0,4904.594,600Z" fill="#0e2571"/>
          <circle id="Elipse_1208" data-name="Elipse 1208" cx="31.282" cy="31.282" r="31.282" transform="translate(4873.625 605.805)" fill="#0f3384"/>
        </g>
      </g>
      <g id="Grupo_15927" data-name="Grupo 15927" transform="translate(-3667.896 410.323)">
        <path id="Trazado_41440" data-name="Trazado 41440" d="M4905.236,656.519a.719.719,0,0,1-.72-.719V625.067a4.758,4.758,0,0,1,4.752-4.752h16.659a.719.719,0,0,1,.72.72v30.733a.72.72,0,0,1-.72.72h-16.659a3.315,3.315,0,0,0-3.312,3.312A.72.72,0,0,1,4905.236,656.519Zm4.032-34.765a3.316,3.316,0,0,0-3.312,3.313V652.4a4.733,4.733,0,0,1,3.312-1.348h15.94V621.754Z" fill="#fff"/>
        <path id="Trazado_41441" data-name="Trazado 41441" d="M4924.71,656.519h-19.474a.719.719,0,1,1,0-1.439h18.755v-3.312a.719.719,0,1,1,1.439,0V655.8A.72.72,0,0,1,4924.71,656.519Z" fill="#fff"/>
        <path id="Trazado_41442" data-name="Trazado 41442" d="M4905.236,656.519a.719.719,0,0,1-.72-.719,3.316,3.316,0,0,0-3.312-3.312h-16.66a.721.721,0,0,1-.72-.72V621.035a.72.72,0,0,1,.72-.72h16.66a4.758,4.758,0,0,1,4.752,4.752V655.8A.72.72,0,0,1,4905.236,656.519Zm-19.972-5.471h15.94a4.733,4.733,0,0,1,3.312,1.348V625.067a3.316,3.316,0,0,0-3.312-3.313h-15.94Z" fill="#fff"/>
        <path id="Trazado_41443" data-name="Trazado 41443" d="M4905.236,656.519h-19.475a.719.719,0,0,1-.719-.719v-4.032a.719.719,0,1,1,1.439,0v3.312h18.755a.719.719,0,1,1,0,1.439Z" fill="#fff"/>
        <path id="Trazado_41444" data-name="Trazado 41444" d="M4922.809,648.151h-12.933a.72.72,0,0,1-.72-.719V626.36a.72.72,0,0,1,1.44,0v20.352h12.213a.72.72,0,0,1,0,1.439Z" fill="#fff"/>
        <path id="Trazado_41445" data-name="Trazado 41445" d="M4913.6,648.151a.72.72,0,0,1-.72-.719v-4.26a.719.719,0,0,1,.341-.612l2.854-1.767v-3.175a.723.723,0,0,1,.2-.495l2.542-2.682v-4.354a.719.719,0,0,1,.719-.719h3.272a.72.72,0,0,1,0,1.439h-2.552v3.921a.723.723,0,0,1-.2.495l-2.542,2.682v3.289a.721.721,0,0,1-.34.612l-2.855,1.767v3.859A.719.719,0,0,1,4913.6,648.151Z" fill="#fff"/>
        <path id="Trazado_41446" data-name="Trazado 41446" d="M4898.286,626.935a1.973,1.973,0,0,1-1.4-.591c-.469-.442-.854-.323-1.755.1-.825.388-1.953.92-3.037-.1-.469-.442-.855-.323-1.756.1-.824.388-1.952.92-3.037-.1a.576.576,0,0,1,.79-.838c.469.442.855.324,1.756-.1.824-.388,1.952-.92,3.037.1.469.442.854.324,1.755-.1.825-.388,1.952-.92,3.037.1.47.442.855.324,1.756-.1.824-.388,1.952-.92,3.037.1a.576.576,0,0,1-.79.838c-.47-.442-.855-.323-1.756.1A3.962,3.962,0,0,1,4898.286,626.935Z" fill="#fff"/>
        <path id="Trazado_41447" data-name="Trazado 41447" d="M4898.286,632.032a1.973,1.973,0,0,1-1.4-.591c-.468-.441-.853-.323-1.755.1-.825.388-1.953.92-3.037-.1-.469-.441-.854-.323-1.756.1-.824.388-1.953.92-3.037-.1a.576.576,0,0,1,.79-.838c.469.442.855.323,1.756-.1.824-.388,1.952-.92,3.036.1.47.443.855.323,1.757-.1.824-.388,1.951-.92,3.036.1.47.443.855.323,1.756-.1.824-.388,1.952-.92,3.037.1a.576.576,0,0,1-.79.838c-.468-.442-.854-.323-1.756.1A3.963,3.963,0,0,1,4898.286,632.032Z" fill="#fff"/>
        <path id="Trazado_41448" data-name="Trazado 41448" d="M4898.286,637.129a1.974,1.974,0,0,1-1.4-.591c-.469-.443-.854-.323-1.755.1-.825.388-1.953.92-3.037-.1-.469-.443-.855-.323-1.756.1-.824.388-1.952.92-3.037-.1a.576.576,0,0,1,.79-.838c.469.442.855.323,1.756-.1.824-.388,1.952-.921,3.037.1.469.442.854.323,1.755-.1.825-.388,1.952-.921,3.037.1.47.442.855.323,1.756-.1.824-.388,1.952-.921,3.037.1a.576.576,0,0,1-.79.838c-.47-.443-.855-.323-1.756.1A3.962,3.962,0,0,1,4898.286,637.129Z" fill="#fff"/>
        <path id="Trazado_41449" data-name="Trazado 41449" d="M4898.286,642.226a1.971,1.971,0,0,1-1.4-.592c-.468-.441-.853-.323-1.755.1-.825.389-1.953.921-3.037-.1-.469-.441-.854-.323-1.756.1-.824.389-1.953.921-3.037-.1a.575.575,0,0,1,.79-.837c.469.442.855.322,1.756-.1.824-.389,1.952-.92,3.036.1.47.443.855.323,1.757-.1.824-.389,1.951-.92,3.036.1.47.443.855.323,1.756-.1.824-.389,1.952-.92,3.037.1a.576.576,0,0,1-.79.839c-.468-.443-.854-.324-1.756.1A3.949,3.949,0,0,1,4898.286,642.226Z" fill="#fff"/>
        <path id="Trazado_41450" data-name="Trazado 41450" d="M4898.286,647.323a1.971,1.971,0,0,1-1.4-.592c-.469-.442-.854-.323-1.755.1-.825.388-1.953.921-3.037-.1-.469-.442-.855-.323-1.756.1-.824.388-1.952.921-3.037-.1a.575.575,0,1,1,.79-.837c.469.442.855.323,1.756-.1.824-.388,1.952-.921,3.037.1.469.442.854.323,1.755-.1.825-.388,1.952-.921,3.037.1.47.442.855.323,1.756-.1.824-.388,1.952-.921,3.037.1a.575.575,0,0,1-.79.837c-.47-.442-.855-.323-1.756.1A3.949,3.949,0,0,1,4898.286,647.323Z" fill="#fff"/>
      </g>
    </g>
    <g id="Grupo_16777" data-name="Grupo 16777">
      <g id="Grupo_15925" data-name="Grupo 15925" transform="translate(-3667.896 410.323)">
        <g id="Grupo_15924" data-name="Grupo 15924">
          <circle id="Elipse_1209" data-name="Elipse 1209" cx="38.836" cy="38.836" r="38.836" transform="translate(4865.758 700.104)" fill="#fff"/>
          <path id="Trazado_41434" data-name="Trazado 41434" d="M4904.594,779.212a40.272,40.272,0,1,1,40.272-40.272A40.318,40.318,0,0,1,4904.594,779.212Zm0-77.672a37.4,37.4,0,1,0,37.4,37.4A37.443,37.443,0,0,0,4904.594,701.54Z" fill="#0e2571"/>
          <circle id="Elipse_1210" data-name="Elipse 1210" cx="31.282" cy="31.282" r="31.282" transform="translate(4873.625 707.345)" fill="#0f3384"/>
        </g>
      </g>
      <g id="Grupo_15928" data-name="Grupo 15928" transform="translate(-3667.896 410.323)">
        <path id="Trazado_41451" data-name="Trazado 41451" d="M4921.753,759.952h-31.291a4.682,4.682,0,0,1,0-9.363h31.291a.69.69,0,0,1,.69.69v7.983A.69.69,0,0,1,4921.753,759.952Zm-31.291-7.982a3.3,3.3,0,0,0,0,6.6h30.6v-6.6Z" fill="#fff"/>
        <path id="Trazado_41452" data-name="Trazado 41452" d="M4892.791,759.952c-1.532,0-2.686-2.012-2.686-4.681s1.154-4.682,2.686-4.682a.69.69,0,0,1,0,1.381c-.52,0-1.306,1.316-1.306,3.3s.786,3.3,1.306,3.3a.69.69,0,0,1,0,1.38Z" fill="#fff"/>
        <path id="Trazado_41453" data-name="Trazado 41453" d="M4886.471,755.961a.69.69,0,0,1-.69-.69v-32.09a4.687,4.687,0,0,1,4.681-4.681h31.291a.69.69,0,0,1,.69.69v32.089a.69.69,0,1,1-1.38,0v-31.4h-30.6a3.3,3.3,0,0,0-3.3,3.3v32.09A.69.69,0,0,1,4886.471,755.961Z" fill="#fff"/>
        <path id="Trazado_41454" data-name="Trazado 41454" d="M4890.462,751.97a.69.69,0,0,1-.69-.691V719.19a.69.69,0,1,1,1.38,0v32.089A.69.69,0,0,1,4890.462,751.97Z" fill="#fff"/>
        <path id="Trazado_41455" data-name="Trazado 41455" d="M4915.793,755.961h-18.626a.69.69,0,0,1,0-1.381h18.626a.69.69,0,0,1,0,1.381Z" fill="#fff"/>
        <path id="Trazado_41456" data-name="Trazado 41456" d="M4913.558,725.7H4899.4a.69.69,0,1,1,0-1.38h14.155a.69.69,0,0,1,0,1.38Z" fill="#fff"/>
        <path id="Trazado_41457" data-name="Trazado 41457" d="M4917.177,729.3h-21.393a.69.69,0,0,1,0-1.38h21.393a.69.69,0,1,1,0,1.38Z" fill="#fff"/>
        <path id="Trazado_41458" data-name="Trazado 41458" d="M4917.177,732.9h-21.393a.69.69,0,0,1,0-1.381h21.393a.69.69,0,0,1,0,1.381Z" fill="#fff"/>
        <path id="Trazado_41459" data-name="Trazado 41459" d="M4917.177,736.5h-21.393a.69.69,0,0,1,0-1.38h21.393a.69.69,0,1,1,0,1.38Z" fill="#fff"/>
      </g>
    </g>
    <g id="Grupo_16775" data-name="Grupo 16775">
      <g id="Grupo_15921" data-name="Grupo 15921" transform="translate(-3667.896 410.323)">
        <g id="Grupo_15920" data-name="Grupo 15920">
          <circle id="Elipse_1205" data-name="Elipse 1205" cx="38.836" cy="38.836" r="38.836" transform="translate(4865.758 495.758)" fill="#fff"/>
          <path id="Trazado_41432" data-name="Trazado 41432" d="M4904.594,574.867a40.272,40.272,0,1,1,40.272-40.273A40.318,40.318,0,0,1,4904.594,574.867Zm0-77.673a37.4,37.4,0,1,0,37.4,37.4A37.443,37.443,0,0,0,4904.594,497.194Z" fill="#0e2571"/>
          <circle id="Elipse_1206" data-name="Elipse 1206" cx="31.282" cy="31.282" r="31.282" transform="translate(4873.625 502.999)" fill="#0f3384"/>
        </g>
      </g>
      <g id="Grupo_15929" data-name="Grupo 15929" transform="translate(-3667.896 410.323)">
        <path id="Trazado_41460" data-name="Trazado 41460" d="M4887.836,515.135a3.04,3.04,0,0,1,3.037-3.036h25.436a3.04,3.04,0,0,1,3.037,3.036V550.9a3.041,3.041,0,0,1-3.037,3.037h-25.436a3.041,3.041,0,0,1-3.037-3.037m1.517,0a1.521,1.521,0,0,0,1.52,1.52h25.436a1.521,1.521,0,0,0,1.52-1.52V515.135a1.521,1.521,0,0,0-1.52-1.519h-25.436a1.521,1.521,0,0,0-1.52,1.519v2.374" fill="#fff"/>
        <path id="Trazado_41461" data-name="Trazado 41461" d="M4918.848,558.422c-.083,0-.167,0-.252-.01l-25.352-2.072a.759.759,0,0,1,.123-1.512l25.353,2.072a1.519,1.519,0,0,0,1.638-1.391l2.914-35.649a1.519,1.519,0,0,0-1.391-1.639l-3.355-.275a.759.759,0,0,1,.124-1.512l3.355.275a3.036,3.036,0,0,1,2.778,3.274l-2.913,35.649a3.037,3.037,0,0,1-3.022,2.79Z" fill="#fff"/>
        <path id="Trazado_41462" data-name="Trazado 41462" d="M4900.864,533.593h-8.1a.757.757,0,0,1-.758-.758v-5.907a.757.757,0,0,1,.758-.758h8.1a.758.758,0,0,1,.758.758v5.907A.758.758,0,0,1,4900.864,533.593Zm-7.346-1.516h6.588v-4.391h-6.588Z" fill="#fff"/>
        <path id="Trazado_41463" data-name="Trazado 41463" d="M4900.864,523.786h-8.1a.758.758,0,0,1-.758-.759V517.12a.757.757,0,0,1,.758-.758h8.1a.758.758,0,0,1,.758.758v5.907A.758.758,0,0,1,4900.864,523.786Zm-7.346-1.517h6.588v-4.391h-6.588Z" fill="#fff"/>
        <path id="Trazado_41464" data-name="Trazado 41464" d="M4910.9,539.239H4895.58a.759.759,0,0,1,0-1.517H4910.9a.759.759,0,0,1,0,1.517Z" fill="#fff"/>
        <path id="Trazado_41465" data-name="Trazado 41465" d="M4910.9,542.965H4895.58a.759.759,0,0,1,0-1.517H4910.9a.759.759,0,0,1,0,1.517Z" fill="#fff"/>
        <path id="Trazado_41466" data-name="Trazado 41466" d="M4910.9,546.69H4895.58a.758.758,0,1,1,0-1.516H4910.9a.758.758,0,1,1,0,1.516Z" fill="#fff"/>
      </g>
    </g>
    <g id="Grupo_16774" data-name="Grupo 16774">
      <g id="Grupo_15919" data-name="Grupo 15919" transform="translate(-3667.896 410.323)">
        <g id="Grupo_15918" data-name="Grupo 15918">
          <circle id="Elipse_1203" data-name="Elipse 1203" cx="38.836" cy="38.836" r="38.836" transform="translate(4865.758 393.499)" fill="#fff"/>
          <path id="Trazado_41431" data-name="Trazado 41431" d="M4904.594,472.607a40.272,40.272,0,1,1,40.272-40.272A40.318,40.318,0,0,1,4904.594,472.607Zm0-77.673a37.4,37.4,0,1,0,37.4,37.4A37.443,37.443,0,0,0,4904.594,394.934Z" fill="#0e2571"/>
          <circle id="Elipse_1204" data-name="Elipse 1204" cx="31.282" cy="31.282" r="31.282" transform="translate(4873.625 400.739)" fill="#0f3384"/>
        </g>
      </g>
      <g id="Grupo_15930" data-name="Grupo 15930" transform="translate(-3667.896 410.323)">
        <path id="Trazado_41467" data-name="Trazado 41467" d="M4920.915,453.3h-28.18a.751.751,0,1,1,0-1.5,3.872,3.872,0,0,0,0-7.745.751.751,0,1,1,0-1.5h28.18a5.374,5.374,0,1,1,0,10.749Zm-24.457-1.5h24.457a3.872,3.872,0,1,0,0-7.745h-24.457a5.367,5.367,0,0,1,0,7.745Z" fill="#fff"/>
        <path id="Trazado_41468" data-name="Trazado 41468" d="M4892.743,453.306a5.333,5.333,0,0,1-.534-.026,5.524,5.524,0,0,1-4.849-5.548V412.12a.751.751,0,0,1,.751-.751H4918.7a.751.751,0,0,1,.751.751v31.187a.751.751,0,0,1-.751.751h-22.238a5.373,5.373,0,0,1-3.715,9.248Zm-3.881-40.435v34.861a4.012,4.012,0,0,0,3.49,4.053,3.873,3.873,0,1,0,.383-7.727.751.751,0,1,1,0-1.5h25.21V412.871Z" fill="#fff"/>
        <path id="Trazado_41469" data-name="Trazado 41469" d="M4912.788,421.4h-18.77a.751.751,0,0,1-.75-.751v-4.59a.75.75,0,0,1,.75-.751h18.77a.751.751,0,0,1,.751.751v4.59A.751.751,0,0,1,4912.788,421.4Zm-18.018-1.5h17.267V416.81H4894.77Z" fill="#fff"/>
        <path id="Trazado_41470" data-name="Trazado 41470" d="M4912.788,425.236h-18.77a.751.751,0,0,1,0-1.5h18.77a.751.751,0,0,1,0,1.5Z" fill="#fff"/>
        <path id="Trazado_41471" data-name="Trazado 41471" d="M4912.788,429.072h-18.77a.751.751,0,0,1,0-1.5h18.77a.751.751,0,0,1,0,1.5Z" fill="#fff"/>
        <path id="Trazado_41472" data-name="Trazado 41472" d="M4912.788,432.908h-18.77a.751.751,0,0,1,0-1.5h18.77a.751.751,0,0,1,0,1.5Z" fill="#fff"/>
        <path id="Trazado_41473" data-name="Trazado 41473" d="M4912.788,436.744h-18.77a.751.751,0,0,1,0-1.5h18.77a.751.751,0,0,1,0,1.5Z" fill="#fff"/>
        <path id="Trazado_41474" data-name="Trazado 41474" d="M4912.788,440.58h-18.77a.751.751,0,0,1,0-1.5h18.77a.751.751,0,0,1,0,1.5Z" fill="#fff"/>
      </g>
    </g>
    <g id="Grupo_15933" data-name="Grupo 15933" transform="translate(856.964 734.207)">
      <circle id="Elipse_1060" data-name="Elipse 1060" cx="11.166" cy="11.166" r="11.166" fill="#0e2571"/>
      <circle id="Elipse_1061" data-name="Elipse 1061" cx="5.583" cy="5.583" r="5.583" transform="translate(5.583 5.583)" fill="#4463aa"/>
    </g>
    <g id="Grupo_15934" data-name="Grupo 15934" transform="translate(856.964 833.207)">
      <circle id="Elipse_1060-2" data-name="Elipse 1060" cx="11.166" cy="11.166" r="11.166" fill="#0e2571"/>
      <circle id="Elipse_1061-2" data-name="Elipse 1061" cx="5.583" cy="5.583" r="5.583" transform="translate(5.583 5.583)" fill="#4463aa"/>
    </g>
    <g id="Grupo_15935" data-name="Grupo 15935" transform="translate(856.964 934.207)">
      <circle id="Elipse_1060-3" data-name="Elipse 1060" cx="11.166" cy="11.166" r="11.166" fill="#0e2571"/>
      <circle id="Elipse_1061-3" data-name="Elipse 1061" cx="5.583" cy="5.583" r="5.583" transform="translate(5.583 5.583)" fill="#4463aa"/>
    </g>
    <g id="Grupo_15936" data-name="Grupo 15936" transform="translate(856.964 1036.207)">
      <circle id="Elipse_1060-4" data-name="Elipse 1060" cx="11.166" cy="11.166" r="11.166" fill="#0e2571"/>
      <circle id="Elipse_1061-4" data-name="Elipse 1061" cx="5.583" cy="5.583" r="5.583" transform="translate(5.583 5.583)" fill="#4463aa"/>
    </g>
    <g id="Grupo_15937" data-name="Grupo 15937" transform="translate(856.964 1138.207)">
      <circle id="Elipse_1060-5" data-name="Elipse 1060" cx="11.166" cy="11.166" r="11.166" fill="#0e2571"/>
      <circle id="Elipse_1061-5" data-name="Elipse 1061" cx="5.583" cy="5.583" r="5.583" transform="translate(5.583 5.583)" fill="#4463aa"/>
    </g>
  </g>
</svg>
