<svg xmlns="http://www.w3.org/2000/svg" width="152" height="152" viewBox="0 0 152 152">
  <g id="Grupo_16508" data-name="Grupo 16508" transform="translate(-494 -10477)">
    <ellipse id="Elipse_1062" data-name="Elipse 1062" cx="73.832" cy="73.832" rx="73.832" ry="73.832" transform="translate(496.168 10479.168)" fill="#fff"/>
    <path id="Trazado_40624" data-name="Trazado 40624" d="M2697.842,3761.734a76,76,0,1,1,76-76A76.087,76.087,0,0,1,2697.842,3761.734Zm0-146.581a70.58,70.58,0,1,0,70.581,70.58A70.66,70.66,0,0,0,2697.842,3615.153Z" transform="translate(-2127.841 6867.266)" fill="#0e2571"/>
    <ellipse id="Elipse_1063" data-name="Elipse 1063" cx="62.428" cy="62.428" rx="62.428" ry="62.428" transform="translate(508.045 10490.099)" fill="#0f3384"/>
    <g id="Grupo_16515" data-name="Grupo 16515" transform="translate(528 10510.21)">
      <path id="Trazado_42128" data-name="Trazado 42128" d="M7330.622,1096.558a8.164,8.164,0,1,0-8.164-8.165A8.18,8.18,0,0,0,7330.622,1096.558Z" transform="translate(-7308.076 -1080.23)" fill="#fff" fill-rule="evenodd"/>
      <path id="Trazado_42129" data-name="Trazado 42129" d="M7397.1,1147.7a3.768,3.768,0,1,1-7.086,2.568l-6.543-17.881-26.568-5.9a6.859,6.859,0,0,1-3.639-2.053l-16.127-16.878-9.57,5.615-4,14.841a3.774,3.774,0,0,1-7.291-1.95l4.4-16.328.006,0a3.776,3.776,0,0,1,1.732-2.276c2.682-1.572,12.566-8.9,14.857-9.279l24.24-2.821,7.336-11.764a3.772,3.772,0,1,1,6.406,3.984l-8.32,13.347,0,0a3.766,3.766,0,0,1-2.844,1.758l-9.6.915,9.559,9.52,12.855-7.542a3.752,3.752,0,0,1,2.215-.5v-.009l22.291,1.879a3.779,3.779,0,1,1-.617,7.533l-21.127-1.788-12.873,7.554,20.377,5.314a3.759,3.759,0,0,1,2.719,2.395Z" transform="translate(-7316.152 -1078.198)" fill="#fff" fill-rule="evenodd"/>
      <path id="Trazado_42130" data-name="Trazado 42130" d="M7325.831,1106.976a2.108,2.108,0,0,1,0-4.215,79.586,79.586,0,0,1,16.885,2.085,21.391,21.391,0,0,1,6.9,2.9c2.191,1.576,3.352,3.595,2.816,6.183a7.75,7.75,0,0,1-1.283,2.824c-1.395,2-1.158,3.264-.053,4.032,3.861,2.689,14.25,2.735,19.6,2.758,1.2,0,2.17.011,2.764.039a2.1,2.1,0,0,1-.2,4.2c-.611-.03-1.492-.034-2.582-.037-5.8-.027-17.066-.078-21.984-3.5-3.176-2.21-4.158-5.366-1-9.894a3.681,3.681,0,0,0,.617-1.279c.141-.677-.32-1.321-1.15-1.918a17.476,17.476,0,0,0-5.492-2.237A75.066,75.066,0,0,0,7325.831,1106.976Z" transform="translate(-7306.452 -1051.372)" fill="#fff" fill-rule="evenodd"/>
      <path id="Trazado_42131" data-name="Trazado 42131" d="M7318.692,1109.509a2.108,2.108,0,1,1,0-4.215c14.3,0,14.445,3.444,14.621,7.689a4.549,4.549,0,0,0,1.867,4.119c1.234.887,4.051.534,6.818.187,3.215-.4,6.381-.8,8.748.541a8.54,8.54,0,0,1,4.486,5.328c.879,2.418,1.641,4.525,25.682,6.081a2.1,2.1,0,0,1-.26,4.2c-26.8-1.736-27.994-5.047-29.373-8.85a4.98,4.98,0,0,0-2.611-3.1c-1.137-.643-3.631-.331-6.166-.011-3.561.447-7.187.9-9.777-.96-3.414-2.452-3.52-5.036-3.617-7.362C7329.03,1111.14,7328.962,1109.509,7318.692,1109.509Z" transform="translate(-7315.599 -1048.128)" fill="#fff" fill-rule="evenodd"/>
    </g>
  </g>
</svg>
