<svg xmlns="http://www.w3.org/2000/svg" width="401.2" height="337.392" viewBox="0 0 401.2 337.392">
  <g id="Grupo_16451" data-name="Grupo 16451" transform="translate(-4218.513 -3483.811)">
    <g id="Grupo_16322" data-name="Grupo 16322" transform="translate(4218.513 3483.811)">
      <g id="Grupo_16321" data-name="Grupo 16321">
        <g id="Grupo_16318" data-name="Grupo 16318" opacity="0.6">
          <g id="Grupo_16317" data-name="Grupo 16317">
            <path id="Trazado_41908" data-name="Trazado 41908" d="M4419.435,3812.96s-32.093,8.388-61.85-20.706-50.366-6.374-90.62-21.06c-25.188-9.189-48.092-33.948-48.449-83.064s38.477-61.6,44.174-81.72c10.331-36.487-6.279-55.943,11.4-79.437,22.8-30.3,60.215-4.938,84.453-9.864,34.679-7.047,37.312-24.681,60.893-23.942" transform="translate(-4218.513 -3484.905)" fill="#dceef7"/>
            <path id="Trazado_41909" data-name="Trazado 41909" d="M4361.058,3512.747a55.1,55.1,0,0,0,23.228-2.771c12.66-4.295,21.522-11.083,21.3-18.981s-13.167-9.282-25.73-4.157-23.294,2.079-31.556,5.4S4341.6,3512.608,4361.058,3512.747Z" transform="translate(-4233.162 -3483.811)" fill="#dceef7"/>
            <path id="Trazado_41910" data-name="Trazado 41910" d="M4334.773,3824.376a42.773,42.773,0,0,1,20.037,6.511,63.531,63.531,0,0,1,15.571,13.825c4.061,5.114.1,17.065-15.571,6.957s-21.027-15.466-28.094-16.027S4320.248,3823.572,4334.773,3824.376Z" transform="translate(-4230.672 -3523.699)" fill="#dceef7"/>
          </g>
        </g>
        <g id="Grupo_16320" data-name="Grupo 16320" transform="translate(200.278 5.487)" opacity="0.6">
          <g id="Grupo_16319" data-name="Grupo 16319">
            <path id="Trazado_41911" data-name="Trazado 41911" d="M4445.364,3494.237s32.094-8.388,61.85,20.707,50.365,6.373,90.621,21.06c25.188,9.19,48.092,33.948,48.449,83.063s-38.478,61.6-44.174,81.721c-10.331,36.487,6.28,55.943-11.4,79.437-22.8,30.3-60.215,4.938-84.453,9.863-34.679,7.048-37.312,24.682-60.893,23.943" transform="translate(-4445.364 -3490.387)" fill="#dceef7"/>
            <path id="Trazado_41912" data-name="Trazado 41912" d="M4522.171,3833.158a55.1,55.1,0,0,0-23.228,2.771c-12.661,4.295-21.522,11.084-21.3,18.981s13.167,9.283,25.731,4.156,23.294-2.078,31.556-5.4S4541.627,3833.3,4522.171,3833.158Z" transform="translate(-4449.145 -3530.189)" fill="#dceef7"/>
            <path id="Trazado_41913" data-name="Trazado 41913" d="M4550.109,3521.255a42.771,42.771,0,0,1-20.037-6.51,63.556,63.556,0,0,1-15.571-13.825c-4.061-5.114-.1-17.066,15.571-6.957s21.027,15.465,28.094,16.027S4564.635,3522.059,4550.109,3521.255Z" transform="translate(-4453.288 -3490.026)" fill="#dceef7"/>
          </g>
        </g>
      </g>
    </g>
    <g id="Grupo_16450" data-name="Grupo 16450" transform="translate(4225.323 3508.437)">
      <g id="Ñëîé_3" data-name="Ñëîé 3">
        <g id="Grupo_16323" data-name="Grupo 16323" transform="translate(190.553 151.236)">
          <path id="Trazado_41914" data-name="Trazado 41914" d="M4451.284,3688.453a.647.647,0,0,1-.285-.065l-8.565-4.131a.657.657,0,0,1,.571-1.184l8.564,4.131a.657.657,0,0,1-.286,1.25Z" transform="translate(-4442.063 -3683.006)" fill="#c2cdab"/>
        </g>
        <g id="Grupo_16324" data-name="Grupo 16324" transform="translate(199.107 154.695)">
          <path id="Trazado_41915" data-name="Trazado 41915" d="M4452.41,3688.762a.657.657,0,0,1,0-1.315l81.084-.523h0a.657.657,0,0,1,0,1.315l-81.084.523Z" transform="translate(-4451.752 -3686.924)" fill="#c2cdab"/>
        </g>
        <g id="Grupo_16325" data-name="Grupo 16325" transform="translate(310.375 154.421)">
          <path id="Trazado_41916" data-name="Trazado 41916" d="M4578.44,3688.007a.657.657,0,0,1,0-1.315l12.115-.078a.657.657,0,1,1,.008,1.314l-12.115.079Z" transform="translate(-4577.782 -3686.614)" fill="#c2cdab"/>
        </g>
        <g id="Grupo_16326" data-name="Grupo 16326" transform="translate(190.184 153.669)">
          <path id="Trazado_41917" data-name="Trazado 41917" d="M4451.092,3691.812a.642.642,0,0,1-.311-.079l-8.79-4.735a.657.657,0,1,1,.624-1.157l8.79,4.735a.657.657,0,0,1-.312,1.236Z" transform="translate(-4441.645 -3685.762)" fill="#c2cdab"/>
        </g>
        <g id="Grupo_16327" data-name="Grupo 16327" transform="translate(199.107 158.326)">
          <path id="Trazado_41918" data-name="Trazado 41918" d="M4452.41,3692.7a.657.657,0,0,1,0-1.315l80.455-.344.067.657v.657l-4.751.02-75.766.325Z" transform="translate(-4451.752 -3691.037)" fill="#c2cdab"/>
        </g>
        <g id="Grupo_16328" data-name="Grupo 16328" transform="translate(308.422 158.14)">
          <path id="Trazado_41919" data-name="Trazado 41919" d="M4576.229,3692.2a.657.657,0,0,1,0-1.314l14.79-.063h0a.657.657,0,0,1,0,1.314l-14.789.063Z" transform="translate(-4575.571 -3690.826)" fill="#c2cdab"/>
        </g>
        <g id="Grupo_16329" data-name="Grupo 16329" transform="translate(190.345 151.103)">
          <path id="Trazado_41920" data-name="Trazado 41920" d="M4532.176,3684.273h0l-8.549-.01-81.142-.094a.657.657,0,0,1,0-1.315h0l89.693.1a.657.657,0,0,1,0,1.315Z" transform="translate(-4441.827 -3682.855)" fill="#c2cdab"/>
        </g>
        <g id="Grupo_16330" data-name="Grupo 16330" transform="translate(308.159 151.219)">
          <path id="Trazado_41921" data-name="Trazado 41921" d="M4592,3684.317h0l-16.066-.016a.657.657,0,0,1,0-1.314h0L4592,3683a.657.657,0,1,1,0,1.315Z" transform="translate(-4575.272 -3682.987)" fill="#c2cdab"/>
        </g>
        <g id="Grupo_16331" data-name="Grupo 16331" transform="translate(209.596 159.334)">
          <path id="Trazado_41922" data-name="Trazado 41922" d="M4464.554,3743.68a.657.657,0,0,1-.656-.654l-.266-50.186a.658.658,0,0,1,.654-.66h0a.657.657,0,0,1,.657.653l.266,50.187a.658.658,0,0,1-.654.66Z" transform="translate(-4463.632 -3692.179)" fill="#c2cdab"/>
        </g>
        <g id="Grupo_16332" data-name="Grupo 16332" transform="translate(233.893 158.757)">
          <path id="Trazado_41923" data-name="Trazado 41923" d="M4491.941,3705.58a.658.658,0,0,1-.657-.651l-.131-12.74a.657.657,0,0,1,.65-.664h.007a.656.656,0,0,1,.657.65l.132,12.74a.658.658,0,0,1-.65.664Z" transform="translate(-4491.153 -3691.525)" fill="#c2cdab"/>
        </g>
        <g id="Grupo_16333" data-name="Grupo 16333" transform="translate(209.995 210.053)">
          <path id="Trazado_41924" data-name="Trazado 41924" d="M4481.37,3750.942h-16.628a.657.657,0,1,1,0-1.315h16.628a.657.657,0,0,1,0,1.315Z" transform="translate(-4464.084 -3749.627)" fill="#c2cdab"/>
        </g>
        <g id="Grupo_16334" data-name="Grupo 16334" transform="translate(197.647 198.103)">
          <path id="Trazado_41925" data-name="Trazado 41925" d="M4462.837,3748.957a.661.661,0,0,1-.455-.182l-12.081-11.552a.657.657,0,1,1,.908-.95l12.082,11.552a.657.657,0,0,1-.455,1.132Z" transform="translate(-4450.098 -3736.091)" fill="#c2cdab"/>
        </g>
        <g id="Grupo_16335" data-name="Grupo 16335" transform="translate(197.116 158.14)">
          <path id="Trazado_41926" data-name="Trazado 41926" d="M4450.552,3732.37a.656.656,0,0,1-.656-.651l-.4-40.229a.657.657,0,0,1,.651-.664h.006a.657.657,0,0,1,.657.65l.4,40.229a.657.657,0,0,1-.65.665Z" transform="translate(-4449.496 -3690.826)" fill="#c2cdab"/>
        </g>
        <g id="Grupo_16336" data-name="Grupo 16336" transform="translate(190.101 151.052)">
          <path id="Trazado_41927" data-name="Trazado 41927" d="M4442.333,3686.647a.656.656,0,0,1-.655-.625l-.125-2.534a.657.657,0,0,1,1.313-.066l.125,2.536a.658.658,0,0,1-.624.689Z" transform="translate(-4441.551 -3682.797)" fill="#c2cdab"/>
        </g>
        <g id="Grupo_16337" data-name="Grupo 16337" transform="translate(264.198 113.767)">
          <path id="Trazado_41928" data-name="Trazado 41928" d="M4527.213,3676.313a1.709,1.709,0,0,1-1.734-1.7l4.312-32.435a1.677,1.677,0,0,1,1.7-1.613l35.275.5a1.7,1.7,0,0,1,1.69,1.7.6.6,0,0,1-.008.1l-4.545,29.912a1.7,1.7,0,0,1-1.7,1.645l-2.092.114a.657.657,0,0,1-.071-1.313l2.127-.115a.4.4,0,0,0,.42-.387.6.6,0,0,1,.008-.1l4.542-29.894a.386.386,0,0,0-.384-.348l-35.276-.5a.384.384,0,0,0-.376.385l-4.312,32.435a.4.4,0,0,0,.392.3l20.3-1.1a.657.657,0,0,1,.07,1.313l-20.338,1.1Z" transform="translate(-4525.479 -3640.566)" fill="#c2cdab"/>
        </g>
        <g id="Grupo_16338" data-name="Grupo 16338" transform="translate(285.167 130.684)">
          <path id="Trazado_41929" data-name="Trazado 41929" d="M4551.8,3679.026a.657.657,0,0,1-.652-.583l-1.921-16.943a1.713,1.713,0,0,1,1.7-1.774l5.436.417h0a1.687,1.687,0,0,1,1.643,1.6l4.291,14.955a.657.657,0,0,1-1.263.363l-4.313-15.032a.655.655,0,0,1-.026-.182.386.386,0,0,0-.386-.386l-5.435-.418a.383.383,0,0,0-.336.387l1.917,16.868a.656.656,0,0,1-.578.728A.724.724,0,0,1,4551.8,3679.026Z" transform="translate(-4549.23 -3659.727)" fill="#c2cdab"/>
        </g>
        <g id="Grupo_16339" data-name="Grupo 16339" transform="translate(234.138 134.543)">
          <path id="Trazado_41930" data-name="Trazado 41930" d="M4512.4,3681.593a.656.656,0,0,1-.649-.558l-.358-2.349c-.588-3.865-1.1-7.2-1.3-8.2a17.094,17.094,0,0,1-.3-2.171c-.09-1.063-.111-1.315-1.24-2.291-1.575-1.363-11.176-.145-13.412.568-1.707.543-1.97.626-2.361,2.74-.076.413-.1,2.4.623,11.033a.657.657,0,0,1-1.309.109c-.842-10.1-.665-11.066-.605-11.382.481-2.605,1.084-3.063,3.254-3.754,1.66-.528,12.355-2.309,14.669-.31a3.744,3.744,0,0,1,1.692,3.175,15.65,15.65,0,0,0,.278,2.017c.214,1.038.7,4.231,1.315,8.272l.357,2.349a.657.657,0,0,1-.551.749A.617.617,0,0,1,4512.4,3681.593Z" transform="translate(-4491.431 -3664.099)" fill="#c2cdab"/>
        </g>
        <g id="Grupo_16340" data-name="Grupo 16340" transform="translate(255.695 158.661)">
          <path id="Trazado_41931" data-name="Trazado 41931" d="M4539.045,3705.664a.657.657,0,0,1-.53-.266,3.294,3.294,0,0,0-.439-.475c-1.576-1.433-10.425-1.81-14.2-1.971l-1.18-.053c-.592-.028-1.088-.042-1.508-.055-2.325-.068-2.735-.133-3.618-1.987-.215-.452-.605-1.848-1.711-8.679a.657.657,0,1,1,1.3-.211c1.006,6.217,1.426,7.959,1.6,8.324.563,1.183.563,1.183,2.469,1.238.426.013.931.028,1.531.056l1.174.052c6.34.27,13.253.695,15.033,2.312a4.66,4.66,0,0,1,.611.665.657.657,0,0,1-.527,1.048Z" transform="translate(-4515.847 -3691.417)" fill="#c2cdab"/>
        </g>
        <g id="Grupo_16341" data-name="Grupo 16341" transform="translate(235.64 159.656)">
          <path id="Trazado_41932" data-name="Trazado 41932" d="M4495.955,3705.647a.657.657,0,0,1-.478-.206,11.851,11.851,0,0,1-1.243-1.572.66.66,0,0,1-.1-.287s-.467-4.63-1-10.319a.658.658,0,0,1,1.31-.124c.473,5.061.895,9.281.982,10.147a10.6,10.6,0,0,0,1.005,1.249.658.658,0,0,1-.478,1.11Z" transform="translate(-4493.131 -3692.544)" fill="#c2cdab"/>
        </g>
        <g id="Grupo_16342" data-name="Grupo 16342" transform="translate(275.848 19.785)">
          <path id="Trazado_41933" data-name="Trazado 41933" d="M4539.332,3628.4h0a.657.657,0,0,1-.656-.659l.092-65.734a.655.655,0,0,1,.276-.534l38.192-27.241a.657.657,0,1,1,.763,1.07l-37.917,27.044-.091,65.4A.658.658,0,0,1,4539.332,3628.4Z" transform="translate(-4538.675 -3534.115)" fill="#c2cdab"/>
        </g>
        <g id="Grupo_16343" data-name="Grupo 16343" transform="translate(240.211 57.947)">
          <path id="Trazado_41934" data-name="Trazado 41934" d="M4498.967,3652.661h0a.657.657,0,0,1-.656-.659l.083-58.551a.655.655,0,0,1,.275-.534l21.67-15.456a.657.657,0,0,1,.763,1.071l-21.394,15.259-.083,58.216A.657.657,0,0,1,4498.967,3652.661Z" transform="translate(-4498.309 -3577.34)" fill="#c2cdab"/>
        </g>
        <g id="Grupo_16344" data-name="Grupo 16344" transform="translate(216.82 80.909)">
          <path id="Trazado_41935" data-name="Trazado 41935" d="M4472.782,3674.312a.658.658,0,0,1-.658-.654l-.309-69.65a.656.656,0,0,1,.654-.66h0a.657.657,0,0,1,.657.655l.31,69.65a.656.656,0,0,1-.654.66Z" transform="translate(-4471.815 -3603.348)" fill="#c2cdab"/>
        </g>
        <g id="Grupo_16345" data-name="Grupo 16345" transform="translate(35.053 43.384)">
          <path id="Trazado_41936" data-name="Trazado 41936" d="M4266.588,3748.369a.657.657,0,0,1-.657-.657V3561.5a.657.657,0,1,1,1.313,0v186.21A.657.657,0,0,1,4266.588,3748.369Z" transform="translate(-4265.931 -3560.844)" fill="#c2cdab"/>
        </g>
        <g id="Grupo_16346" data-name="Grupo 16346" transform="translate(0 57.712)">
          <path id="Trazado_41937" data-name="Trazado 41937" d="M4226.884,3745.011a.657.657,0,0,1-.657-.657V3577.731a.657.657,0,1,1,1.314,0v166.623A.658.658,0,0,1,4226.884,3745.011Z" transform="translate(-4226.227 -3577.073)" fill="#c2cdab"/>
        </g>
        <g id="Grupo_16347" data-name="Grupo 16347" transform="translate(35.432 203.305)">
          <path id="Trazado_41938" data-name="Trazado 41938" d="M4267.018,3756.77a.657.657,0,0,1-.406-1.174l17.147-13.472a.657.657,0,0,1,.812,1.034l-17.147,13.472A.66.66,0,0,1,4267.018,3756.77Z" transform="translate(-4266.36 -3741.984)" fill="#c2cdab"/>
        </g>
        <g id="Grupo_16348" data-name="Grupo 16348" transform="translate(31.359 212.068)">
          <path id="Trazado_41939" data-name="Trazado 41939" d="M4262.4,3780.48a.657.657,0,0,1-.441-1.143l29.983-27.257a.657.657,0,1,1,.884.972l-29.983,27.256A.653.653,0,0,1,4262.4,3780.48Z" transform="translate(-4261.747 -3751.91)" fill="#c2cdab"/>
        </g>
        <g id="Grupo_16349" data-name="Grupo 16349" transform="translate(87.535 42.511)">
          <path id="Trazado_41940" data-name="Trazado 41940" d="M4326.13,3664.875a.656.656,0,0,1-.657-.656l-.1-103.707a.656.656,0,0,1,.657-.657h0a.658.658,0,0,1,.658.656l.1,103.706a.657.657,0,0,1-.657.658Z" transform="translate(-4325.376 -3559.855)" fill="#c2cdab"/>
        </g>
        <g id="Grupo_16350" data-name="Grupo 16350" transform="translate(96.395 47.432)">
          <path id="Trazado_41941" data-name="Trazado 41941" d="M4336.069,3651.416a.657.657,0,0,1-.657-.658v-84.672a.657.657,0,1,1,1.314,0v84.672A.658.658,0,0,1,4336.069,3651.416Z" transform="translate(-4335.412 -3565.429)" fill="#c2cdab"/>
        </g>
        <g id="Grupo_16351" data-name="Grupo 16351" transform="translate(184.414 3.093)">
          <path id="Trazado_41942" data-name="Trazado 41942" d="M4435.766,3593.647a.645.645,0,0,1-.388-.127.656.656,0,0,1-.142-.918l56.5-77.125a.657.657,0,1,1,1.06.777l-56.5,77.124A.658.658,0,0,1,4435.766,3593.647Z" transform="translate(-4435.109 -3515.208)" fill="#c2cdab"/>
        </g>
        <g id="Grupo_16352" data-name="Grupo 16352" transform="translate(175.544 10.958)">
          <path id="Trazado_41943" data-name="Trazado 41943" d="M4425.719,3594.9a.65.65,0,0,1-.378-.121.656.656,0,0,1-.158-.916l48.97-69.472a.658.658,0,1,1,1.075.758l-48.971,69.472A.656.656,0,0,1,4425.719,3594.9Z" transform="translate(-4425.062 -3524.115)" fill="#c2cdab"/>
        </g>
        <g id="Grupo_16353" data-name="Grupo 16353" transform="translate(193.109)">
          <path id="Trazado_41944" data-name="Trazado 41944" d="M4445.615,3593.285a.656.656,0,0,1-.494-1.089l70.227-80.267a.658.658,0,0,1,.99.866l-5.272,6.025-64.956,74.241A.656.656,0,0,1,4445.615,3593.285Z" transform="translate(-4444.958 -3511.704)" fill="#c2cdab"/>
        </g>
        <g id="Grupo_16354" data-name="Grupo 16354" transform="translate(216.599 5.49)">
          <path id="Trazado_41945" data-name="Trazado 41945" d="M4472.222,3594.254a.658.658,0,0,1-.431-1.154l86.508-75.016a.657.657,0,0,1,.862.993l-86.509,75.016A.653.653,0,0,1,4472.222,3594.254Z" transform="translate(-4471.564 -3517.923)" fill="#c2cdab"/>
        </g>
        <g id="Grupo_16355" data-name="Grupo 16355" transform="translate(157.737 80.452)">
          <path id="Trazado_41946" data-name="Trazado 41946" d="M4405.55,3604.312a.657.657,0,0,1,0-1.314l58.809-.168h0a.657.657,0,0,1,0,1.314l-58.809.168Z" transform="translate(-4404.893 -3602.83)" fill="#c2cdab"/>
        </g>
        <g id="Grupo_16356" data-name="Grupo 16356" transform="translate(333.002 19.485)">
          <path id="Trazado_41947" data-name="Trazado 41947" d="M4604.067,3631.277h0a.657.657,0,0,1-.656-.659l.134-96.186a.657.657,0,0,1,1.314,0v.394l-.134,95.794A.658.658,0,0,1,4604.067,3631.277Z" transform="translate(-4603.411 -3533.775)" fill="#c2cdab"/>
        </g>
        <g id="Grupo_16357" data-name="Grupo 16357" transform="translate(315.475 10.514)">
          <path id="Trazado_41948" data-name="Trazado 41948" d="M4584.217,3662.625a.658.658,0,0,1-.658-.657v-137.7a.657.657,0,0,1,1.314,0v137.7A.657.657,0,0,1,4584.217,3662.625Z" transform="translate(-4583.559 -3523.613)" fill="#c2cdab"/>
        </g>
        <g id="Grupo_16358" data-name="Grupo 16358" transform="translate(341.765 27.411)">
          <path id="Trazado_41949" data-name="Trazado 41949" d="M4613.994,3632.328a.658.658,0,0,1-.657-.658v-88.219a.694.694,0,0,1,.657-.7.623.623,0,0,1,.658.615v88.3A.658.658,0,0,1,4613.994,3632.328Z" transform="translate(-4613.337 -3542.752)" fill="#c2cdab"/>
        </g>
        <g id="Grupo_16359" data-name="Grupo 16359" transform="translate(271.659 10.514)">
          <path id="Trazado_41950" data-name="Trazado 41950" d="M4534.587,3559.98a.657.657,0,0,1-.411-1.17l43.815-35.053a.657.657,0,0,1,.822,1.026L4535,3559.836A.658.658,0,0,1,4534.587,3559.98Z" transform="translate(-4533.93 -3523.613)" fill="#c2cdab"/>
        </g>
        <g id="Grupo_16360" data-name="Grupo 16360" transform="translate(271.659 45.566)">
          <path id="Trazado_41951" data-name="Trazado 41951" d="M4534.587,3631.8a.647.647,0,0,1-.657-.645v-67.18a.657.657,0,1,1,1.314,0v67.156A.668.668,0,0,1,4534.587,3631.8Z" transform="translate(-4533.93 -3563.316)" fill="#c2cdab"/>
        </g>
        <g id="Grupo_16361" data-name="Grupo 16361" transform="translate(262.893 52.173)">
          <path id="Trazado_41952" data-name="Trazado 41952" d="M4524.66,3666.552a.658.658,0,0,1-.657-.658l0-94.438a.657.657,0,0,1,1.314,0l0,94.438A.658.658,0,0,1,4524.66,3666.552Z" transform="translate(-4524 -3570.799)" fill="#c2cdab"/>
        </g>
        <g id="Grupo_16362" data-name="Grupo 16362" transform="translate(236.606 71.857)">
          <path id="Trazado_41953" data-name="Trazado 41953" d="M4494.884,3655.819a.657.657,0,0,1-.658-.657v-61.41a.657.657,0,0,1,1.314,0v61.41A.657.657,0,0,1,4494.884,3655.819Z" transform="translate(-4494.226 -3593.095)" fill="#c2cdab"/>
        </g>
        <g id="Grupo_16363" data-name="Grupo 16363" transform="translate(236.606 52.062)">
          <path id="Trazado_41954" data-name="Trazado 41954" d="M4494.885,3591.782a.657.657,0,0,1-.4-1.179l25.955-19.795a.657.657,0,0,1,.8,1.045l-25.956,19.795A.649.649,0,0,1,4494.885,3591.782Z" transform="translate(-4494.226 -3570.674)" fill="#c2cdab"/>
        </g>
        <g id="Grupo_16364" data-name="Grupo 16364" transform="translate(218.185 172.135)">
          <path id="Trazado_41955" data-name="Trazado 41955" d="M4486.306,3713.92a.664.664,0,0,1-.285-.064l-12.289-5.927a.658.658,0,0,1,.573-1.184l12.288,5.927a.657.657,0,0,1-.286,1.249Z" transform="translate(-4473.36 -3706.678)" fill="#c2cdab"/>
        </g>
        <g id="Grupo_16365" data-name="Grupo 16365" transform="translate(230.458 176.879)">
          <path id="Trazado_41956" data-name="Trazado 41956" d="M4487.919,3714.335a.657.657,0,0,1,0-1.315l137.216-.965a.625.625,0,0,1,.662.652.658.658,0,0,1-.653.662l-137.215.965Z" transform="translate(-4487.262 -3712.052)" fill="#c2cdab"/>
        </g>
        <g id="Grupo_16366" data-name="Grupo 16366" transform="translate(217.656 175.626)">
          <path id="Trazado_41957" data-name="Trazado 41957" d="M4486.029,3718.741a.652.652,0,0,1-.311-.078l-12.61-6.794a.657.657,0,0,1,.623-1.157l12.611,6.794a.657.657,0,0,1-.312,1.235Z" transform="translate(-4472.762 -3710.632)" fill="#c2cdab"/>
        </g>
        <g id="Grupo_16367" data-name="Grupo 16367" transform="translate(230.458 182.184)">
          <path id="Trazado_41958" data-name="Trazado 41958" d="M4487.919,3719.992a.657.657,0,0,1,0-1.314l132.354-.617h0a.657.657,0,0,1,0,1.315l-132.354.617Z" transform="translate(-4487.262 -3718.06)" fill="#c2cdab"/>
        </g>
        <g id="Grupo_16368" data-name="Grupo 16368" transform="translate(217.884 171.943)">
          <path id="Trazado_41959" data-name="Trazado 41959" d="M4611.642,3707.923h0l-137.964-.147a.657.657,0,0,1,0-1.315h0l137.964.148a.657.657,0,1,1,0,1.314Z" transform="translate(-4473.02 -3706.461)" fill="#c2cdab"/>
        </g>
        <g id="Grupo_16369" data-name="Grupo 16369" transform="translate(245.506 183.635)">
          <path id="Trazado_41960" data-name="Trazado 41960" d="M4505.346,3782.711a.657.657,0,0,1-.657-.653l-.382-61.694a.658.658,0,0,1,.653-.661h0a.657.657,0,0,1,.657.653l.382,61.693a.658.658,0,0,1-.653.661Z" transform="translate(-4504.307 -3719.704)" fill="#c2cdab"/>
        </g>
        <g id="Grupo_16370" data-name="Grupo 16370" transform="translate(280.368 182.924)">
          <path id="Trazado_41961" data-name="Trazado 41961" d="M4545.265,3783.1a.659.659,0,0,1-.658-.649l-.813-62.89a.658.658,0,0,1,1.315-.017l.813,62.89a.657.657,0,0,1-.648.666Z" transform="translate(-4543.794 -3718.899)" fill="#c2cdab"/>
        </g>
        <g id="Grupo_16371" data-name="Grupo 16371" transform="translate(228.296 239.889)">
          <path id="Trazado_41962" data-name="Trazado 41962" d="M4491.948,3790.831a.647.647,0,0,1-.449-.179l-6.479-6.094a.657.657,0,0,1,.9-.957l6.478,6.1a.657.657,0,0,1-.45,1.135Z" transform="translate(-4484.813 -3783.421)" fill="#c2cdab"/>
        </g>
        <g id="Grupo_16372" data-name="Grupo 16372" transform="translate(227.6 182.039)">
          <path id="Trazado_41963" data-name="Trazado 41963" d="M4485.254,3776.931a.657.657,0,0,1-.657-.65l-.572-57.721a.657.657,0,0,1,.651-.664h.007a.658.658,0,0,1,.657.651l.572,57.721a.658.658,0,0,1-.651.664Z" transform="translate(-4484.025 -3717.896)" fill="#c2cdab"/>
        </g>
        <g id="Grupo_16373" data-name="Grupo 16373" transform="translate(217.536 171.869)">
          <path id="Trazado_41964" data-name="Trazado 41964" d="M4473.461,3711.329a.657.657,0,0,1-.655-.624l-.179-3.638a.657.657,0,0,1,1.313-.065l.179,3.637a.656.656,0,0,1-.624.689Z" transform="translate(-4472.626 -3706.376)" fill="#c2cdab"/>
        </g>
        <g id="Grupo_16374" data-name="Grupo 16374" transform="translate(323.85 118.375)">
          <path id="Trazado_41965" data-name="Trazado 41965" d="M4595.233,3696.5a2.163,2.163,0,0,1-2.188-2.153l6.184-46.5a2.131,2.131,0,0,1,2.148-2.068l45.917.653a.657.657,0,0,1-.009,1.315h-.01l-45.907-.653a.838.838,0,0,0-.83.84l-6.185,46.5a.838.838,0,0,0,.846.753l29.146-1.573a.657.657,0,0,1,.071,1.313l-29.182,1.574Z" transform="translate(-4593.045 -3645.785)" fill="#c2cdab"/>
        </g>
        <g id="Grupo_16375" data-name="Grupo 16375" transform="translate(353.934 142.646)">
          <path id="Trazado_41966" data-name="Trazado 41966" d="M4632.726,3707.855a2.161,2.161,0,0,1-2.178-2.154l-3.426-30.2a2.167,2.167,0,0,1,2.149-2.227l7.775.6h0a2.142,2.142,0,0,1,2.1,2.052l5.554,19.354a.657.657,0,1,1-1.263.363l-5.577-19.436a.631.631,0,0,1-.026-.181.84.84,0,0,0-.839-.84l-7.776-.6a.834.834,0,0,0-.788.841l3.426,30.2a.866.866,0,0,0,.844.914l6.934-.261a.648.648,0,0,1,.681.631.656.656,0,0,1-.632.682l-6.958.262Z" transform="translate(-4627.121 -3673.276)" fill="#c2cdab"/>
        </g>
        <g id="Grupo_16376" data-name="Grupo 16376" transform="translate(280.717 148.194)">
          <path id="Trazado_41967" data-name="Trazado 41967" d="M4574,3704.079a.656.656,0,0,1-.649-.558l-.528-3.461c-.838-5.5-1.561-10.254-1.858-11.7a24.044,24.044,0,0,1-.427-3.082c-.133-1.579-.169-2-1.878-3.479-2.321-2-16.273-.272-19.515.758-2.563.816-3.006,1.04-3.582,4.152-.112.607-.146,3.48.891,15.907a.657.657,0,0,1-1.31.11c-1.207-14.458-.956-15.812-.874-16.257.668-3.608,1.445-4.2,4.476-5.165,2.687-.855,17.684-3.171,20.773-.5,2.033,1.755,2.175,2.558,2.329,4.362a22.76,22.76,0,0,0,.4,2.927c.3,1.475,1,6.017,1.871,11.764l.527,3.46a.657.657,0,0,1-.55.75A.719.719,0,0,1,4574,3704.079Z" transform="translate(-4544.189 -3679.561)" fill="#c2cdab"/>
        </g>
        <g id="Grupo_16377" data-name="Grupo 16377" transform="translate(282.875 182.788)">
          <path id="Trazado_41968" data-name="Trazado 41968" d="M4575.915,3746.033a16.087,16.087,0,0,1-5.278-1.317c-1-.365-2.028-.742-3.07-1.023-1.174-.317-3.272-.759-5.493-1.227-4.183-.881-8.509-1.794-9.865-2.471a12.822,12.822,0,0,1-4.039-4.013.667.667,0,0,1-.1-.286s-.671-6.641-1.435-14.8a.658.658,0,0,1,1.31-.123c.692,7.413,1.31,13.571,1.417,14.632a11.28,11.28,0,0,0,3.433,3.417c1.206.6,5.833,1.578,9.549,2.361,2.238.472,4.353.918,5.563,1.243,1.1.3,2.157.685,3.181,1.06,2,.73,3.879,1.421,5.5,1.191.98-.14,4.615-.5,9.218-.967,7.5-.752,17.768-1.782,19.567-2.173,1.584-.344,2.7-1.042,2.905-1.819.2-.743-.471-1.546-1.067-2.09-2.334-2.122-15.089-2.668-20.535-2.9l-1.719-.076c-.85-.04-1.563-.061-2.167-.079-3.346-.1-3.754-.191-4.941-2.687-.3-.631-.849-2.609-2.432-12.375a.658.658,0,0,1,1.3-.211c1.451,8.954,2.062,11.48,2.319,12.022.883,1.852.883,1.852,3.793,1.937.611.018,1.332.039,2.191.079l1.713.076c9.036.387,18.884.99,21.363,3.243,1.57,1.429,1.657,2.639,1.453,3.4-.347,1.292-1.767,2.3-3.9,2.762-1.873.408-11.766,1.4-19.715,2.2-4.4.441-8.208.823-9.163.959A6.02,6.02,0,0,1,4575.915,3746.033Z" transform="translate(-4546.634 -3718.745)" fill="#c2cdab"/>
        </g>
        <g id="Grupo_16378" data-name="Grupo 16378" transform="translate(288.869 209.117)">
          <path id="Trazado_41969" data-name="Trazado 41969" d="M4554.08,3766.9a.657.657,0,0,1-.624-.865c1.129-3.388,4.554-3.352,7.306-3.319,1.4.012,2.719.061,4,.146a19.544,19.544,0,0,0,6.872-.353l.221-.063c1.069-.3,2.278-.641,2.712-1.508a9.993,9.993,0,0,0,.575-4.409c0-.269-.007-.531-.007-.786v-.641a34.371,34.371,0,0,0-.312-5.774.657.657,0,1,1,1.3-.215,35.761,35.761,0,0,1,.328,5.992v.638c0,.248,0,.505.008.768a10.946,10.946,0,0,1-.714,5.015c-.692,1.386-2.333,1.849-3.531,2.185l-.217.062a20.861,20.861,0,0,1-7.318.4c-1.273-.084-2.571-.131-3.934-.143-3.133-.033-5.273.112-6.042,2.42A.659.659,0,0,1,4554.08,3766.9Z" transform="translate(-4553.423 -3748.566)" fill="#c2cdab"/>
        </g>
        <g id="Grupo_16379" data-name="Grupo 16379" transform="translate(313.397 209.435)">
          <path id="Trazado_41970" data-name="Trazado 41970" d="M4606.918,3769.432a.677.677,0,0,1-.162-.019q-.819-.207-1.639-.4c-1.406-.341-2.861-.693-4.308-1.139a39.116,39.116,0,0,0-5.549-1.052c-6.1-.878-13.686-1.972-14-9.331-.077-1.766-.051-3.555-.026-5.287.012-.873.025-1.745.025-2.617a.657.657,0,0,1,1.314,0c0,.879-.013,1.757-.025,2.635-.025,1.713-.049,3.484.024,5.212.273,6.269,6.682,7.193,12.879,8.086a40.012,40.012,0,0,1,5.749,1.1c1.409.434,2.843.781,4.23,1.118.553.134,1.1.267,1.651.405a.658.658,0,0,1-.16,1.3Z" transform="translate(-4581.205 -3748.927)" fill="#c2cdab"/>
        </g>
        <g id="Grupo_16380" data-name="Grupo 16380" transform="translate(314.733 225.579)">
          <path id="Trazado_41971" data-name="Trazado 41971" d="M4587.39,3781.858a.657.657,0,0,1-.655-.623,18.632,18.632,0,0,0-2.131-7.659,11.5,11.5,0,0,0-.608-1.012c-.792-1.227-1.778-2.756-.983-4.348.653-1.3,1.994-1.025,2.8-.858l.148.03a19.174,19.174,0,0,1,2.591.78,17.866,17.866,0,0,0,2.421.733c2.4.481,4.869,1.1,7.251,1.7,2,.5,4.079,1.026,6.108,1.463a.657.657,0,1,1-.277,1.284c-2.051-.441-4.136-.966-6.152-1.474-2.368-.595-4.816-1.21-7.19-1.685a19.039,19.039,0,0,1-2.6-.782,17.846,17.846,0,0,0-2.413-.73l-.155-.032c-.929-.192-1.2-.16-1.355.159-.46.921.238,2,.912,3.048a12.357,12.357,0,0,1,.68,1.137,19.894,19.894,0,0,1,2.268,8.178.657.657,0,0,1-.622.69Z" transform="translate(-4582.719 -3767.213)" fill="#c2cdab"/>
        </g>
        <g id="Grupo_16381" data-name="Grupo 16381" transform="translate(290.221 225.219)">
          <path id="Trazado_41972" data-name="Trazado 41972" d="M4582.018,3780.653a.658.658,0,0,1-.636-.5l-.029-.117a12.324,12.324,0,0,0-.752-2.322c-.207-.52-.5-1.263-.944-2.416a40.8,40.8,0,0,0-3.223-6.41c-1.218-.974-4.071-.789-5.773-.68l-.534.034c-1.936.111-3.685.117-5.229.123-3.919.015-6.753.026-8.874,1.723a.658.658,0,0,1-.821-1.028c2.479-1.983,5.5-1.994,9.69-2.01,1.528,0,3.258-.011,5.159-.121l.524-.033c2.018-.127,5.067-.324,6.686.971.836.67,3.17,5.785,3.623,6.959.44,1.148.734,1.886.938,2.4a13.31,13.31,0,0,1,.807,2.487l.029.118a.657.657,0,0,1-.478.8A.666.666,0,0,1,4582.018,3780.653Z" transform="translate(-4554.954 -3766.805)" fill="#c2cdab"/>
        </g>
        <g id="Grupo_16382" data-name="Grupo 16382" transform="translate(287.357 228.128)">
          <path id="Trazado_41973" data-name="Trazado 41973" d="M4555.152,3776.927a3.414,3.414,0,1,1,3.44-3.413A3.431,3.431,0,0,1,4555.152,3776.927Zm0-5.512a2.1,2.1,0,1,0,2.127,2.1A2.115,2.115,0,0,0,4555.152,3771.415Z" transform="translate(-4551.71 -3770.1)" fill="#c2cdab"/>
        </g>
      </g>
      <g id="Ñëîé_4" data-name="Ñëîé 4" transform="translate(29.255 13.128)">
        <path id="Trazado_41974" data-name="Trazado 41974" d="M4421.984,3664.008c-1.823.34-2.868-6.187-3.282-7.4-2.627-7.73-5.736-15.284-8.474-22.976a55.014,55.014,0,0,0-9.388-16.947c-3.429-4.252-6.773-8.4-9.161-13.358-1.4-2.917-5.9-18.081-6.258-20.075-2.226-12.34-2.818-25.8,12.213-31.067a17.2,17.2,0,0,1,6.564-.992c5.057.328,9.287,2.791,13.435,5.5,9.9,6.456,15.734,14.646,20.687,25.266a174.441,174.441,0,0,1,10,27.4c1.84,6.634,4.346,13.465,4.045,20.458-.249,5.8-3.1,10.736-6.334,15.419C4440.184,3653.7,4432.189,3662.1,4421.984,3664.008Z" transform="translate(-4273.991 -3529.454)" fill="#feede5" fill-rule="evenodd"/>
        <path id="Trazado_41975" data-name="Trazado 41975" d="M4347.289,3771.617c2.063-.789,5.51-2.725,6.512-4.731.886-1.771,9.779-16.68,10.658-12.2,3.668,18.725,1.231,55.563.485,65.429h110.645c-2.095-9.79-7.755-36.915-6.049-36.305,5.135,1.833,15.309.749,18.957-.744,7.977-3.263,12.055-8.4,12.489-16.5.384-7.171-1.055-18.777-2.081-25.871-1.121-7.734-2.1-13.961-1.7-21.861.2-3.94.071-10.012.306-13.943a109.671,109.671,0,0,0-.434-18.033,56.9,56.9,0,0,0-1.7-10.61,49.453,49.453,0,0,0-5.616-12.122c-1.347-2.1-4.963-5.094-9.133-7.918a64.845,64.845,0,0,0-15.063-7.287c-1.092-.382-5.1-2.747-6.225-2.425-2.834.81-18.6-1.547-21.036-.328-2.683,1.342-5.767,4.392-9.174,7.8s-5.582,5.975-8.52,9.109a62.694,62.694,0,0,0-4.092,5.837c-.165.234-1.745,3.949-2.391,3.58-1.539-.878-1.649-5.462-1.994-6.768-1.813-6.842-8-14.386-9.262-21.442-.379-2.124.4-5.621.4-7.768,0-1.018.542-2.853-.473-3.487-1.1-.689-3.461.506-4.274,1.069-3.123,2.161-2.494,3.206-10.187,5.912s-14.105,1.5-19.733,2.778c-12.018,2.739-15.335,10.48-21.014,20.375-2.062,3.592-6.823,14.466-8.549,18.166-.6,1.28-.651,16.117-.464,19.883a47.412,47.412,0,0,1-2.853,19.663,41.794,41.794,0,0,1-6.215,10.9c-2.187,2.662-6.016,3.343-6.738,6.957a7.063,7.063,0,0,0,1.094,4.164c.742,1.188,3.742,2.911,4.594,4.089,2.308,3.2,3.194,9.032,1.267,12.525-1.263,2.289-4.124,6.669-7.075,5.03-2.436-1.354-6.519-7.308-8.731-9.128-.884-.728-1.681-1.411-1.772.313-.12,2.266,1.24,7.139,4.291,9.65,3.668,3.02,8.743,3.443,10.97,4.247,6.473,2.333,4.344-.52,8.688,1.219S4344.1,3772.837,4347.289,3771.617Z" transform="translate(-4265.545 -3539.019)" fill="#fff" fill-rule="evenodd"/>
        <path id="Trazado_41976" data-name="Trazado 41976" d="M4441.757,3781.51c-2.215-1.068-4.315-2.532-6.6-3.579a17.128,17.128,0,0,1-2.51-.976,36.446,36.446,0,0,0-2.974-2.138c-1.546-.849-4.642-1.2-5.763-2.7-.15-.2,1.985-.56,3.021-.372,1.174.215,4.63-.87,3.811-2.509s-16.368-15.192-17.8-17.1c-1.867-2.491-2.6-6.615-2.975-9.62-.264-2.114.434-4.405-.743-6.367-1.519-2.531-5.851-.45-6.739-4.182-.333-1.4,2.639-1.63,3.485-1.72.152-.015,1.3-.015,1.3-.325,0-.493-1.294-1.874-1.58-2.091-2.438-1.85-1.068-3.486,4.415-3.207,4.546.231,6.367-.79,9.063.14,3.983,1.373,8.124,2.218,12.083,3.81,3.8,1.528,2.988,2.55,5.344,5.763,2.522,3.439,7.517,3.155,8.645,7.343.46,1.713,0,2.138-1.906,4.694s-6.166,7.043-6.32,9.991c-.169,3.2,5.843,2.777,6.041,5.949.253,4.032.665,8.635.093,12.64-.243,1.7.14,3.114-.6,4.741C4442.347,3780.133,4442.214,3781.729,4441.757,3781.51Z" transform="translate(-4276.126 -3549.743)" fill="#feede5" fill-rule="evenodd"/>
        <path id="Trazado_41977" data-name="Trazado 41977" d="M4400.323,3625.147c-7.2-2.57-13.645-5.778-15.61-13.641-1.625-6.5-1.44-15.516-2.392-22.176-1.369-9.586-2.993-19.121-1.594-28.915,1.389-9.728,4.285-17.785,11.74-24.5,5.867-5.281,16.813-9.046,24.593-9.324,2.431-.087,4.538-.04,10.86,2.091s9.091,4.558,13.675,8.6c10.435,9.208,14,18.527,15.806,32.348.62,4.756,1.057,11.546,1.707,15.855.88,5.838,1.966,9.146,2.7,15.61.208,1.814-.341,5.331-.124,7.87.342,3.991,1.341,4.422,2.035,7.2,1.35,5.4,3.887,15.626,4.505,22.3.557,6.02,0,6.308-.977,11.3-.729,3.719-.364,7.938-1.745,12.15-.324.988-1.871,3.985-2.146,5.38-.533,2.709.267,4.06-.151,5.729-1.464,5.856-5.251,8.566-7.314,12.692-1.569,3.139-.97,5.659.062,8.426,2.03,5.442,6.826,10.917,7.714,17.522.742,5.509.426,15.858-4.358,19.634a9.773,9.773,0,0,1-3.862,1.523c-1.051.2-3.715.776-4.8.234-1.205-.6-.424-1.417-.126-4.812s-1.917-6.987-2.978-9.411c-2.085-4.765-3.773-7.19-3.291-13.955.522-7.3,5.361-16.075,5.106-23.437-.087-2.515-3.283-3.537-3.721-9.476s3.674-9.276,2.563-12a32.12,32.12,0,0,1-1.765-12.575c.142-2.894,4.255-5.5,2.679-7.007-1.758-1.682-1.966-4.2-3.072-8.25-1.261-4.624-6.085-5.274-8.386-9.4a28.589,28.589,0,0,1-3.335-8.083c-1.231-5.256-.895-12.794-.962-20.524-.088-9.852-.516-19.449-2.271-18.883-3.133,1.011-9.344-.517-13.54-3.232-2.584-1.672-7.4-6.453-10.52-9.062-2.13-1.783-4.868-4.4-7.61-4.855a22.937,22.937,0,0,0-6.451-.145c-6.6,1.291-7.552,9.7-7.245,15.218.229,4.14,2,8.844,3.874,14.147,2.073,5.881,4.348,12.347,6.561,16.363,2.327,4.222,4.946,6.306,8.48,9.566,2.422,2.237,5.579,3.479,5.942,5.145s-3.77,3.406-7.453,5.82C4402.3,3624.757,4401.6,3625.6,4400.323,3625.147Z" transform="translate(-4273.517 -3526.574)" fill="#eac6b0" fill-rule="evenodd"/>
        <path id="Trazado_41978" data-name="Trazado 41978" d="M4260.052,3694.814l-.688-1.416,61.829-13.976,93.73,85.242-3.342,1.549Z" transform="translate(-4259.364 -3544.478)" fill="#fff" fill-rule="evenodd"/>
        <path id="Trazado_41979" data-name="Trazado 41979" d="M4261.876,3692.752l60-14.521s28.938,24.287,46.1,37.113,22.886,12.2,22.886,12.2l2.132,16.79Z" transform="translate(-4259.658 -3544.338)" fill="#fff" fill-rule="evenodd"/>
        <path id="Trazado_41980" data-name="Trazado 41980" d="M4260.052,3694.814l-.688-1.416,61.829-13.976,93.73,85.242-3.342,1.549Z" transform="translate(-4259.364 -3544.478)" fill="#fff" fill-rule="evenodd"/>
        <path id="Trazado_41981" data-name="Trazado 41981" d="M4259.533,3695.527l61.389-12.837,90.615,83.728-63.152,4.668Z" transform="translate(-4259.384 -3544.861)" fill="#fff" fill-rule="evenodd"/>
        <path id="Trazado_41982" data-name="Trazado 41982" d="M4259.533,3695.527l61.389-12.837,90.615,83.728-63.152,4.668Z" transform="translate(-4259.384 -3544.861)" fill="#fbbb7d" fill-rule="evenodd"/>
        <path id="Trazado_41983" data-name="Trazado 41983" d="M4319.923,3774.146c-.275-.881-1.667-1.917-2.348-2.543a43.84,43.84,0,0,1-3.812-4.115c-2.3-2.739-5.114-5.145-7.3-7.963-3.02-3.9-5.9-7.975-9.031-11.788-1.456-1.77-2.84-3.577-4.194-5.426-1.048-1.432-2.363-2.81-2.713-4.625a29.576,29.576,0,0,1,.376-12.183c1.089-3.59,2.409-6.392,3.751-9.923.528-1.389,1.505-3.506,3.21-3.87,1.913-.41,1.9,2.462,1.962,3.6.236,4.507-1.31,7.212-2.6,11.456a20.258,20.258,0,0,0-.127,4.71,5.641,5.641,0,0,0,.049,1c.364.138.487-.8.549-1a27.76,27.76,0,0,1,1.458-3.9,33.6,33.6,0,0,1,2.7-4.019c1.5-2.289,2.746-4.716,4.351-6.934.813-1.122,2.132-2.755,3.61-1.861,1.635.988.235,4.609-.022,5.749-1.018,4.516-3.424,8.635-4.478,13.144-.167.719-.859,3.566-.077,4.206.5.408,1.143-.879,1.2-.97.912-1.431,1.9-2.807,2.824-4.232a49.79,49.79,0,0,1,7.166-8.266c.977-.967,2.644-2.965,4.254-2.926a1.317,1.317,0,0,1,1.1.99,8.337,8.337,0,0,1-.36,2.884,33.864,33.864,0,0,1-3.99,7.548,28.824,28.824,0,0,0-3.056,4.406c-.458.974-1.471,3.133-.923,4.24.2.415.95-.247,1.064-.357.788-.755,1.532-1.564,2.26-2.375a61.544,61.544,0,0,1,9.1-8.411c.323-.231,2.289-1.268,2.91-.892,1.237.747-.513,4.411-.824,5.23-1.017,2.672-3.571,4.257-5.351,6.434-.89,1.088-2.493,3.2-2.68,4.667-.616,4.83,1.015,6.849,5.605,10.1,2.764,1.96,2.737,6.281,2.42,9.682-.342,3.688-2,7.076-5.509,7.93C4322.146,3773.618,4320.094,3774.695,4319.923,3774.146Z" transform="translate(-4262.961 -3548.255)" fill="#feede5" fill-rule="evenodd"/>
      </g>
      <g id="Ñëîé_2" data-name="Ñëîé 2" transform="translate(28.466 12.266)">
        <g id="Grupo_16383" data-name="Grupo 16383" transform="translate(118.874 67.416)">
          <path id="Trazado_41984" data-name="Trazado 41984" d="M4416.286,3627.481l-.157,0c-4.516-.062-20.862-10.641-23-24.613a.789.789,0,1,1,1.559-.239c2.027,13.232,17.716,23.224,21.465,23.276,5.41.066,12.288-4.273,15.135-8.22a.788.788,0,1,1,1.278.922C4429.453,3622.919,4422.2,3627.481,4416.286,3627.481Z" transform="translate(-4393.117 -3601.958)" fill="#6a3b35"/>
        </g>
        <g id="Grupo_16384" data-name="Grupo 16384" transform="translate(112.064 45.443)">
          <path id="Trazado_41985" data-name="Trazado 41985" d="M4388.5,3588.938a.789.789,0,0,1-.715-.456,27.264,27.264,0,0,1-2.36-10.194l-.024-.375a.788.788,0,1,1,1.573-.107l.024.381a25.831,25.831,0,0,0,2.216,9.629.789.789,0,0,1-.715,1.121Z" transform="translate(-4385.403 -3577.07)" fill="#6a3b35"/>
        </g>
        <g id="Grupo_16385" data-name="Grupo 16385" transform="translate(125.982 60.106)">
          <path id="Trazado_41986" data-name="Trazado 41986" d="M4406.643,3606.675a.787.787,0,0,1-.438-.133,9.48,9.48,0,0,0-.925-.511,4.879,4.879,0,0,1-2.518-2.124,3.275,3.275,0,0,1,.159-2.241,4.205,4.205,0,0,0,.214-.9,9.312,9.312,0,0,0-1.794-5.809.789.789,0,1,1,1.234-.983,10.719,10.719,0,0,1,2.138,6.8,4.918,4.918,0,0,1-.283,1.354,3.445,3.445,0,0,0-.229,1.134,3.742,3.742,0,0,0,1.792,1.365,10.647,10.647,0,0,1,1.091.607.789.789,0,0,1-.44,1.444Z" transform="translate(-4401.168 -3593.678)" fill="#6a3b35"/>
        </g>
        <g id="Grupo_16386" data-name="Grupo 16386" transform="translate(130.714 47.811)">
          <path id="Trazado_41987" data-name="Trazado 41987" d="M4407.315,3584.184a.788.788,0,0,1-.473-1.419,15.135,15.135,0,0,1,8.957-3,.789.789,0,0,1-.067,1.576,13.746,13.746,0,0,0-7.944,2.691A.783.783,0,0,1,4407.315,3584.184Z" transform="translate(-4406.527 -3579.752)" fill="#6a3b35"/>
        </g>
        <g id="Grupo_16387" data-name="Grupo 16387" transform="translate(115.512 53.999)">
          <path id="Trazado_41988" data-name="Trazado 41988" d="M4390.1,3588.959a.789.789,0,0,1-.325-1.508,11.974,11.974,0,0,1,5.768-.575.789.789,0,1,1-.226,1.561,10.507,10.507,0,0,0-4.894.452A.778.778,0,0,1,4390.1,3588.959Z" transform="translate(-4389.309 -3586.761)" fill="#6a3b35"/>
        </g>
        <g id="Grupo_16388" data-name="Grupo 16388" transform="translate(132.156 74.8)">
          <path id="Trazado_41989" data-name="Trazado 41989" d="M4409.669,3617.6a7.856,7.856,0,0,1-.8-.041.789.789,0,0,1,.165-1.569c3.49.359,7.756-2.425,9.852-5.339a.789.789,0,1,1,1.28.922C4417.984,3614.6,4413.676,3617.6,4409.669,3617.6Z" transform="translate(-4408.16 -3610.322)" fill="#6a3b35"/>
        </g>
        <g id="Grupo_16389" data-name="Grupo 16389" transform="translate(109.821 34.491)">
          <path id="Trazado_41990" data-name="Trazado 41990" d="M4383.907,3579.667a.789.789,0,0,1-.785-.715c-.493-5.285-.585-9.109,2.49-13.923a.788.788,0,1,1,1.329.849c-2.81,4.4-2.724,7.82-2.248,12.927a.789.789,0,0,1-.713.859A.668.668,0,0,1,4383.907,3579.667Z" transform="translate(-4382.862 -3564.665)" fill="#6a3b35"/>
        </g>
        <g id="Grupo_16390" data-name="Grupo 16390" transform="translate(114.463 11.821)">
          <path id="Trazado_41991" data-name="Trazado 41991" d="M4389.388,3557.738a.788.788,0,0,1-.738-.511c-2.514-6.7,4.56-14.323,7.959-17.988a.788.788,0,1,1,1.156,1.073c-3.184,3.433-9.81,10.574-7.638,16.36a.79.79,0,0,1-.462,1.016A.781.781,0,0,1,4389.388,3557.738Z" transform="translate(-4388.121 -3538.987)" fill="#6a3b35"/>
        </g>
        <g id="Grupo_16391" data-name="Grupo 16391" transform="translate(118.434 31.149)">
          <path id="Trazado_41992" data-name="Trazado 41992" d="M4430.424,3580.341c-7.39,0-13.062-4.187-18.1-8.748-.623-.565-1.242-1.143-1.86-1.72-5.007-4.673-9.736-9.088-16.814-6.775a.789.789,0,0,1-.489-1.5c7.963-2.6,13.259,2.343,18.379,7.123.613.572,1.226,1.144,1.843,1.7,5.005,4.533,10.655,8.687,17.939,8.317a.8.8,0,0,1,.827.749.788.788,0,0,1-.748.827C4431.072,3580.333,4430.747,3580.341,4430.424,3580.341Z" transform="translate(-4392.618 -3560.879)" fill="#6a3b35"/>
        </g>
        <path id="Trazado_41993" data-name="Trazado 41993" d="M4394.8,3597.5c-.394-1.176-.083-2.339.692-2.6s1.723.483,2.116,1.659.084,2.339-.692,2.6S4395.191,3598.677,4394.8,3597.5Z" transform="translate(-4274.419 -3533.709)" fill="#6a3b35" fill-rule="evenodd"/>
        <path id="Trazado_41994" data-name="Trazado 41994" d="M4413.263,3590.62c-.388-1.178-.071-2.34.706-2.594s1.72.493,2.107,1.671.07,2.34-.708,2.595S4413.65,3591.8,4413.263,3590.62Z" transform="translate(-4276.583 -3532.905)" fill="#6a3b35" fill-rule="evenodd"/>
        <g id="Grupo_16392" data-name="Grupo 16392" transform="translate(136.699 90.361)">
          <path id="Trazado_41995" data-name="Trazado 41995" d="M4414.4,3641.839a.787.787,0,0,1-.764-.985c.885-3.432,1.35-8.571-.247-11.764a.789.789,0,0,1,1.412-.706c1.79,3.583,1.313,9.169.362,12.863A.789.789,0,0,1,4414.4,3641.839Z" transform="translate(-4413.307 -3627.948)" fill="#6a3b35"/>
        </g>
        <g id="Grupo_16393" data-name="Grupo 16393" transform="translate(73.711 100.507)">
          <path id="Trazado_41996" data-name="Trazado 41996" d="M4342.75,3682.776a.791.791,0,0,1-.71-1.134c1.015-2.091,2.061-4.475,3.169-7,5.064-11.542,11.368-25.908,22.308-30.262,3.723-1.481,7.791-1.849,11.724-2.205,1.851-.167,3.765-.34,5.573-.629a60.338,60.338,0,0,0,8.773-2.069.789.789,0,0,1,.479,1.5,61.892,61.892,0,0,1-9,2.123c-1.861.3-3.8.473-5.678.643-3.821.346-7.773.7-11.284,2.1-10.339,4.114-16.5,18.151-21.447,29.428-1.114,2.539-2.167,4.937-3.193,7.056A.789.789,0,0,1,4342.75,3682.776Z" transform="translate(-4341.961 -3639.44)" fill="#6a3b35"/>
        </g>
        <g id="Grupo_16394" data-name="Grupo 16394" transform="translate(194.343 107.652)">
          <path id="Trazado_41997" data-name="Trazado 41997" d="M4518.239,3777.413a.79.79,0,0,1-.7-1.142c3.086-6.172,2.237-13.467,1.416-20.523-.156-1.341-.309-2.663-.432-3.952-.271-2.842-.575-5.694-.879-8.552-.833-7.82-1.695-15.9-1.856-23.848-.083-4.034.083-8.126.244-12.082a131.61,131.61,0,0,0-.089-17.924c-.707-7.318-2.727-17.452-8.324-24.169-5.2-6.24-14.229-10.053-22.2-13.417-2.237-.945-4.351-1.837-6.361-2.766a.789.789,0,1,1,.663-1.432c1.986.917,4.087,1.8,6.313,2.745,8.132,3.434,17.349,7.326,22.792,13.86,5.856,7.026,7.953,17.489,8.682,25.027a132.854,132.854,0,0,1,.1,18.139c-.16,3.934-.326,8-.244,11.986.161,7.877,1.019,15.928,1.848,23.713.305,2.864.61,5.724.881,8.572.122,1.278.274,2.588.429,3.917.808,6.947,1.724,14.819-1.572,21.411A.788.788,0,0,1,4518.239,3777.413Z" transform="translate(-4478.598 -3647.533)" fill="#6a3b35"/>
        </g>
        <g id="Grupo_16395" data-name="Grupo 16395" transform="translate(165.321 206.346)">
          <path id="Trazado_41998" data-name="Trazado 41998" d="M4505.734,3767.884a7.5,7.5,0,0,1-2.8-.745,7.845,7.845,0,0,0-1.991-.627,59.705,59.705,0,0,0-6.441-.45q-2.193,0-4.368.01c-11.728.042-22.793.079-34.22-2.459-.471-.1-.956-.207-1.448-.312a35.671,35.671,0,0,1-8.3-2.484.788.788,0,1,1,.7-1.411,34.506,34.506,0,0,0,7.923,2.352c.5.106.987.21,1.462.315,11.253,2.5,22.232,2.461,33.872,2.422q2.18-.008,4.374-.01a60.822,60.822,0,0,1,6.616.462,9.039,9.039,0,0,1,2.414.735,6.285,6.285,0,0,0,2.206.627.789.789,0,1,1,0,1.578Z" transform="translate(-4445.726 -3759.322)" fill="#6a3b35"/>
        </g>
        <g id="Grupo_16396" data-name="Grupo 16396" transform="translate(156.605 206.458)">
          <path id="Trazado_41999" data-name="Trazado 41999" d="M4441.969,3790.381c-2.32,0-4.312-2.826-6.082-8.623a.788.788,0,0,1,1.508-.46c2.125,6.964,3.98,7.561,4.7,7.5,1.907-.178,3.79-4.717,4-6.591.851-7.658.428-20.333-1.063-21.184a5.038,5.038,0,0,0-1.263,1.836.789.789,0,0,1-1.407-.716c.676-1.329,1.737-3.05,3.129-2.63,3.936,1.177,2.2,22.654,2.172,22.869-.2,1.822-2.217,7.688-5.419,7.987C4442.15,3790.376,4442.06,3790.381,4441.969,3790.381Z" transform="translate(-4435.853 -3759.448)" fill="#6a3b35"/>
        </g>
        <g id="Grupo_16397" data-name="Grupo 16397" transform="translate(180.809 210.929)">
          <path id="Trazado_42000" data-name="Trazado 42000" d="M4464.058,3795.569a.789.789,0,0,1-.595-1.307c3.314-3.8,4.413-23.049,1.633-28.608a.789.789,0,0,1,1.411-.705c3.1,6.2,1.889,26.058-1.855,30.35A.783.783,0,0,1,4464.058,3795.569Z" transform="translate(-4463.269 -3764.512)" fill="#6a3b35"/>
        </g>
        <g id="Grupo_16398" data-name="Grupo 16398" transform="translate(160.006 235.196)">
          <path id="Trazado_42001" data-name="Trazado 42001" d="M4493.983,3803.773c-2.432,0-4.868-.153-7.266-.3l-.414-.025c-10.035-.628-37.946-6.487-38.227-6.546l-.771-.16c-2.906-.6-5-1.032-7.368-3.394a.789.789,0,0,1,1.116-1.116c2.028,2.028,3.737,2.38,6.571,2.964l.778.163c7.777,1.637,29.767,6,38,6.514l.414.026c4.75.3,9.661.606,14.262-.315,4.547-.909,9.581-4.851,11.638-7.979a.788.788,0,1,1,1.317.865c-2.279,3.47-7.633,7.657-12.646,8.66A37.692,37.692,0,0,1,4493.983,3803.773Z" transform="translate(-4439.707 -3792)" fill="#6a3b35"/>
        </g>
        <g id="Grupo_16399" data-name="Grupo 16399" transform="translate(152.928 186.055)">
          <path id="Trazado_42002" data-name="Trazado 42002" d="M4439.67,3765.529a.715.715,0,0,1-.093-.006.788.788,0,0,1-.69-.876c.106-.887.127-1.775.148-2.715a23.221,23.221,0,0,1,.315-3.888c.451-2.339,1.941-4.505,3.257-6.417.282-.411.559-.812.817-1.205a18.174,18.174,0,0,1,1.38-1.671c1.194-1.352,3.416-3.866,3.126-4.95-1.174-4.388-7.163-5.558-10.166-5.564a9.531,9.531,0,0,1-1.046-.11c-2.039-.277-3.212-.286-3.485-.032.433,1.916,2.043,2.21,4.638,2.532,1.9.236,3.874.48,5.015,1.933a.789.789,0,1,1-1.24.976c-.74-.943-2.309-1.137-3.969-1.343-2.365-.293-5.308-.659-5.951-3.786a1.528,1.528,0,0,1,.355-1.39c.851-.908,2.781-.732,4.848-.454.348.048.708.1.837.1,4.764.01,10.452,2.121,11.687,6.735.508,1.9-1.7,4.4-3.468,6.4a18.323,18.323,0,0,0-1.245,1.5c-.266.4-.548.812-.837,1.231-1.287,1.872-2.619,3.808-3.007,5.822a21.663,21.663,0,0,0-.285,3.627c-.022.935-.044,1.9-.16,2.864A.789.789,0,0,1,4439.67,3765.529Z" transform="translate(-4431.688 -3736.339)" fill="#6a3b35"/>
        </g>
        <g id="Grupo_16400" data-name="Grupo 16400" transform="translate(133.148 179.994)">
          <path id="Trazado_42003" data-name="Trazado 42003" d="M4413.522,3739.252a4.709,4.709,0,0,1-3.665-1.626,1.9,1.9,0,0,1-.518-1.8,3.242,3.242,0,0,1,2.126-1.957c3.069-1.1,5.9-2.366,8.508-3.569,2.834-1.308,5.725-.794,8.521-.294.807.143,1.641.292,2.445.389.281.033.627.049,1,.066a7.119,7.119,0,0,1,3.688.819,8.771,8.771,0,0,1,2.026,2.569,14.61,14.61,0,0,0,.867,1.317.788.788,0,0,1-1.24.974,15.352,15.352,0,0,1-.973-1.471,7.79,7.79,0,0,0-1.619-2.123,6.492,6.492,0,0,0-2.823-.51c-.416-.02-.8-.039-1.113-.077-.85-.1-1.706-.254-2.535-.4-2.673-.479-5.2-.929-7.583.174-2.638,1.217-5.51,2.5-8.636,3.62a1.847,1.847,0,0,0-1.129.857c-.009.035-.036.14.161.359,1.794,1.994,4.325,1.023,7.7-.566.807-.38,1.57-.738,2.279-.992,2.107-.757,6.615.332,8.138.914a.789.789,0,0,1-.561,1.474c-1.592-.607-5.574-1.433-7.045-.9-.638.229-1.367.571-2.139.934C4417.662,3738.25,4415.534,3739.252,4413.522,3739.252Z" transform="translate(-4409.284 -3729.473)" fill="#6a3b35"/>
        </g>
        <g id="Grupo_16401" data-name="Grupo 16401" transform="translate(127.233 178.077)">
          <path id="Trazado_42004" data-name="Trazado 42004" d="M4403.373,3732.273a.789.789,0,0,1-.328-1.506,15.014,15.014,0,0,1,2.954-.813,11.779,11.779,0,0,0,1.191-.277c5.882-2.11,12.836-3.826,19.813-.531a.788.788,0,1,1-.673,1.426c-6.455-3.047-13.028-1.41-18.607.59a11.9,11.9,0,0,1-1.407.339,14.118,14.118,0,0,0-2.615.7A.789.789,0,0,1,4403.373,3732.273Z" transform="translate(-4402.584 -3727.301)" fill="#6a3b35"/>
        </g>
        <g id="Grupo_16402" data-name="Grupo 16402" transform="translate(128.323 174.763)">
          <path id="Trazado_42005" data-name="Trazado 42005" d="M4433.633,3731.134a.785.785,0,0,1-.621-.3c-1.427-1.813-2.577-2.1-4.48-2.567-.569-.141-1.189-.294-1.879-.5-.772-.233-1.6-.514-2.449-.8-2.5-.849-5.328-1.812-7.681-1.831a24.2,24.2,0,0,0-3.75.325c-.576.077-1.152.154-1.727.215a10.82,10.82,0,0,1-2.117-.118c-1.162-.138-2.752-.322-3.331.134-.235.184-.209.273-.19.345.252.9,2.794,2.24,3.49,2.324a.789.789,0,1,1-.188,1.566c-1.024-.124-4.312-1.652-4.82-3.464a1.822,1.822,0,0,1,.734-2.011c1.09-.856,2.9-.647,4.488-.46a9.685,9.685,0,0,0,1.769.116c.56-.058,1.122-.134,1.683-.209a31.89,31.89,0,0,1,3.972-.34c2.606.022,5.565,1.028,8.175,1.917.835.283,1.642.559,2.4.788.662.2,1.255.347,1.8.481,2,.494,3.581.884,5.34,3.124a.789.789,0,0,1-.618,1.277Z" transform="translate(-4403.819 -3723.548)" fill="#6a3b35"/>
        </g>
        <g id="Grupo_16403" data-name="Grupo 16403" transform="translate(133.808 188.598)">
          <path id="Trazado_42006" data-name="Trazado 42006" d="M4413.682,3754.252a.788.788,0,0,1-.691-.408,28.469,28.469,0,0,1-2.62-7.8,17.616,17.616,0,0,1-.108-2.756,12.548,12.548,0,0,0-.208-3.1.788.788,0,1,1,1.534-.365,13.9,13.9,0,0,1,.251,3.488,16.052,16.052,0,0,0,.094,2.512,26.97,26.97,0,0,0,2.44,7.258.789.789,0,0,1-.691,1.17Z" transform="translate(-4410.032 -3739.219)" fill="#6a3b35"/>
        </g>
        <g id="Grupo_16404" data-name="Grupo 16404" transform="translate(141.282 187.675)">
          <path id="Trazado_42007" data-name="Trazado 42007" d="M4428.735,3753.5a.771.771,0,0,1-.1-.007.789.789,0,0,1-.684-.881,9.569,9.569,0,0,0-3.307-8.291,8.467,8.467,0,0,0-2.132-1.162c-1.653-.719-3.71-1.614-4.009-4.105a.789.789,0,1,1,1.566-.189c.179,1.488,1.279,2.068,3.072,2.847a9.7,9.7,0,0,1,2.536,1.416,11.162,11.162,0,0,1,3.839,9.681A.789.789,0,0,1,4428.735,3753.5Z" transform="translate(-4418.498 -3738.173)" fill="#6a3b35"/>
        </g>
        <g id="Grupo_16405" data-name="Grupo 16405" transform="translate(56.715 182.268)">
          <path id="Trazado_42008" data-name="Trazado 42008" d="M4325.494,3761.619a.789.789,0,0,1-.764-.6,24.491,24.491,0,0,1-.514-3.289,24.187,24.187,0,0,0-.452-2.977c-.081-.343-.173-.7-.268-1.067-.582-2.249-1.305-5.047-.243-7.383a20.388,20.388,0,0,1,4.254-5.493c2.354-2.418,4.578-4.7,4.578-7.976a.789.789,0,1,1,1.577,0c0,3.915-2.554,6.538-5.025,9.077a18.947,18.947,0,0,0-3.948,5.046c-.831,1.827-.212,4.222.335,6.335.1.377.191.744.275,1.1a25.852,25.852,0,0,1,.483,3.17,23.309,23.309,0,0,0,.477,3.076.788.788,0,0,1-.573.957A.75.75,0,0,1,4325.494,3761.619Z" transform="translate(-4322.71 -3732.048)" fill="#6a3b35"/>
        </g>
        <g id="Grupo_16406" data-name="Grupo 16406" transform="translate(50.29 181.41)">
          <path id="Trazado_42009" data-name="Trazado 42009" d="M4316.222,3744.982a.789.789,0,0,1-.631-1.262,15.991,15.991,0,0,1,3.169-2.925c.566-.437,1.1-.848,1.589-1.282,1.1-.973,2.169-2.019,3.21-3.029.907-.881,1.844-1.792,2.8-2.66l.2-.188c1.3-1.247,2.979-2.673,4.457-2.552a1.988,1.988,0,0,1,1.46.8.789.789,0,0,1-1.25.962.414.414,0,0,0-.328-.19c-.643-.05-1.734.665-3.245,2.117-.1.093-.175.168-.23.218-.934.85-1.862,1.753-2.76,2.625-1.052,1.022-2.141,2.08-3.261,3.076-.53.47-1.112.919-1.676,1.354a14.886,14.886,0,0,0-2.869,2.621A.789.789,0,0,1,4316.222,3744.982Z" transform="translate(-4315.433 -3731.077)" fill="#6a3b35"/>
        </g>
        <g id="Grupo_16407" data-name="Grupo 16407" transform="translate(50.209 174.167)">
          <path id="Trazado_42010" data-name="Trazado 42010" d="M4316.131,3743.7a.845.845,0,0,1-.155-.015.789.789,0,0,1-.619-.929c.646-3.232,2.551-6.1,4.392-8.871,2.229-3.356,4.335-6.526,4.335-10.224a.788.788,0,1,1,1.576,0c0,4.174-2.337,7.694-4.6,11.1-1.838,2.766-3.574,5.379-4.159,8.308A.79.79,0,0,1,4316.131,3743.7Z" transform="translate(-4315.341 -3722.873)" fill="#6a3b35"/>
        </g>
        <g id="Grupo_16408" data-name="Grupo 16408" transform="translate(42.911 173.099)">
          <path id="Trazado_42011" data-name="Trazado 42011" d="M4307.862,3740.912a.79.79,0,0,1-.706-1.141,46.724,46.724,0,0,1,5.593-8.111c.862-1.078,1.752-2.191,2.579-3.314.054-.073,5.413-7.3,8.058-6.639a1.691,1.691,0,0,1,1.226,1.578.789.789,0,1,1-1.56.234.712.712,0,0,0-.092-.31c-.843-.123-4.311,3.292-6.36,6.074-.846,1.147-1.747,2.272-2.618,3.362a45.5,45.5,0,0,0-5.413,7.832A.79.79,0,0,1,4307.862,3740.912Z" transform="translate(-4307.074 -3721.663)" fill="#6a3b35"/>
        </g>
        <g id="Grupo_16409" data-name="Grupo 16409" transform="translate(42.096 167.269)">
          <path id="Trazado_42012" data-name="Trazado 42012" d="M4307.354,3739.5a.789.789,0,0,1-.707-.436c-1.087-2.176-.184-5.854.765-8.554.482-1.377,1.018-2.687,1.534-3.952,1.415-3.465,2.751-6.739,2.751-10.7a.789.789,0,1,1,1.578,0c0,4.276-1.393,7.688-2.868,11.3-.51,1.249-1.037,2.539-1.507,3.878-1.18,3.363-1.487,6.033-.841,7.327a.79.79,0,0,1-.7,1.141Z" transform="translate(-4306.152 -3715.06)" fill="#6a3b35"/>
        </g>
        <g id="Grupo_16410" data-name="Grupo 16410" transform="translate(33.767 166.235)">
          <path id="Trazado_42013" data-name="Trazado 42013" d="M4297.506,3736.152a.8.8,0,0,1-.27-.048.79.79,0,0,1-.479-.99l.16-.482a.88.88,0,0,1,.091-.187c.056-.157.108-.31.14-.419.175-.621.324-1.248.472-1.876l.081-.338c.076-.318.142-.658.21-1.008a10.837,10.837,0,0,1,.906-3.033,15.462,15.462,0,0,1,1.677-2.339c.4-.492.778-.957,1.091-1.419.957-1.412,1.834-2.9,2.683-4.34.56-.955,1.123-1.909,1.713-2.854s2.684-3.112,4.4-2.918a1.77,1.77,0,0,1,1.5,1.315.789.789,0,1,1-1.5.5c-.079-.237-.148-.245-.187-.25-.664-.06-2.3,1.258-2.88,2.188s-1.137,1.875-1.692,2.817c-.86,1.461-1.75,2.972-2.735,4.425-.352.52-.769,1.033-1.174,1.53a14.29,14.29,0,0,0-1.511,2.091,9.546,9.546,0,0,0-.747,2.586c-.072.373-.143.735-.224,1.073l-.08.336c-.154.65-.309,1.3-.489,1.942-.115.409-.4,1.119-.427,1.2A.789.789,0,0,1,4297.506,3736.152Z" transform="translate(-4296.717 -3713.888)" fill="#6a3b35"/>
        </g>
        <g id="Grupo_16411" data-name="Grupo 16411" transform="translate(33.441 162.842)">
          <path id="Trazado_42014" data-name="Trazado 42014" d="M4297.461,3735.962a.923.923,0,0,1-.493-.142c-.551-.347-.642-1.142-.617-2.489l0-.1a24.613,24.613,0,0,1,.746-6.127c.263-1.054.606-2.147.97-3.3,1.033-3.291,2.1-6.693,1.508-9.665l-.034-.166c-.166-.848-.417-2.129-1.244-2.379a.788.788,0,1,1,.456-1.51c1.736.524,2.126,2.515,2.337,3.584l.031.16c.674,3.369-.508,7.13-1.549,10.447-.356,1.134-.692,2.205-.945,3.213a23.1,23.1,0,0,0-.7,5.745l0,.132a8.3,8.3,0,0,0,.033,1.123.79.79,0,0,1-.064,1.374A.968.968,0,0,1,4297.461,3735.962Z" transform="translate(-4296.348 -3710.046)" fill="#6a3b35"/>
        </g>
        <g id="Grupo_16412" data-name="Grupo 16412" transform="translate(26.679 162.698)">
          <path id="Trazado_42015" data-name="Trazado 42015" d="M4293.593,3744.487a.789.789,0,0,1-.718-.463,16.255,16.255,0,0,0-1.334-1.96,15.742,15.742,0,0,1-2.637-4.413,12.7,12.7,0,0,1,.227-5.416c.125-.673.244-1.31.316-1.926a42.392,42.392,0,0,1,3.186-12.73c.228-.531.444-1.078.662-1.625a25.511,25.511,0,0,1,2.045-4.342c.056-.088.109-.18.164-.274a2.3,2.3,0,0,1,1.945-1.456.789.789,0,1,1,0,1.577c-.164,0-.312.208-.583.672-.064.112-.129.223-.2.327a24.278,24.278,0,0,0-1.909,4.076c-.223.562-.445,1.122-.678,1.666a40.952,40.952,0,0,0-3.069,12.294c-.078.668-.208,1.361-.333,2.031a11.58,11.58,0,0,0-.247,4.744,15.548,15.548,0,0,0,2.375,3.859,15.807,15.807,0,0,1,1.5,2.244.789.789,0,0,1-.717,1.115Z" transform="translate(-4288.689 -3709.882)" fill="#6a3b35"/>
        </g>
        <g id="Grupo_16413" data-name="Grupo 16413" transform="translate(30.826 195.83)">
          <path id="Trazado_42016" data-name="Trazado 42016" d="M4319.1,3777.779a.786.786,0,0,1-.579-.253l-.078-.083c-10.018-10.811-16.448-17.958-19.109-21.245-.476-.589-.964-1.171-1.452-1.756a46.931,46.931,0,0,1-4.385-5.838.788.788,0,1,1,1.352-.811,45.831,45.831,0,0,0,4.243,5.638c.494.591.987,1.18,1.468,1.775,2.639,3.26,9.044,10.381,19.039,21.165l.078.084a.788.788,0,0,1-.578,1.324Z" transform="translate(-4293.387 -3747.41)" fill="#6a3b35"/>
        </g>
        <g id="Grupo_16414" data-name="Grupo 16414" transform="translate(49.341 203.498)">
          <path id="Trazado_42017" data-name="Trazado 42017" d="M4322.464,3780.59a7.776,7.776,0,0,1-4.482-1.443,7.415,7.415,0,0,1-2.8-4.3,14.3,14.3,0,0,0-.743-1.916.788.788,0,1,1,1.41-.705,15.551,15.551,0,0,1,.831,2.123,5.972,5.972,0,0,0,2.2,3.5,6.163,6.163,0,0,0,5.265.924,7.79,7.79,0,0,0,4.9-4.38,15.925,15.925,0,0,0,.769-9.066c-.5-2.62-2.437-4.288-4.49-6.053-.684-.589-1.392-1.2-2.033-1.838a.789.789,0,0,1,1.115-1.116c.6.6,1.253,1.162,1.947,1.758,2.167,1.865,4.408,3.792,5.01,6.955a17.551,17.551,0,0,1-.876,10,9.379,9.379,0,0,1-5.922,5.259A7.875,7.875,0,0,1,4322.464,3780.59Z" transform="translate(-4314.358 -3756.095)" fill="#6a3b35"/>
        </g>
        <g id="Grupo_16415" data-name="Grupo 16415" transform="translate(46.053 216.155)">
          <path id="Trazado_42018" data-name="Trazado 42018" d="M4331.849,3787.817a8.223,8.223,0,0,1-2.978-.792l-.474-.191c-1.06-.413-2.172-.749-3.249-1.073-.687-.207-1.374-.413-2.057-.642-.633-.21-1.258-.388-1.872-.562a13.36,13.36,0,0,1-5.98-2.9c-1.854-1.738-2.558-4.141-3.238-6.467a21.845,21.845,0,0,0-1.285-3.618.789.789,0,0,1,1.411-.706,23.387,23.387,0,0,1,1.388,3.88c.649,2.219,1.263,4.316,2.8,5.76a11.786,11.786,0,0,0,5.333,2.532c.637.18,1.284.364,1.939.584s1.341.425,2.013.627c1.1.333,2.249.678,3.366,1.113.159.062.326.131.5.2a6.022,6.022,0,0,0,2.638.658c3.611-.516,6.145-7.481,6.145-11.056a.789.789,0,1,1,1.578,0c0,4.07-2.847,11.952-7.5,12.618A3.326,3.326,0,0,1,4331.849,3787.817Z" transform="translate(-4310.633 -3770.432)" fill="#6a3b35"/>
        </g>
        <g id="Grupo_16416" data-name="Grupo 16416" transform="translate(69.232 226.824)">
          <path id="Trazado_42019" data-name="Trazado 42019" d="M4346.025,3790.6a16.438,16.438,0,0,1-4.8-.693c-.249-.078-.518-.151-.8-.226a7.214,7.214,0,0,1-3.308-1.531.789.789,0,0,1,1.115-1.116,6.161,6.161,0,0,0,2.6,1.125c.3.08.588.159.855.242,4.228,1.322,11.942,1.021,14.655-5.407a.789.789,0,1,1,1.453.613C4355.571,3788.9,4350.482,3790.6,4346.025,3790.6Z" transform="translate(-4336.888 -3782.516)" fill="#6a3b35"/>
        </g>
        <g id="Grupo_16417" data-name="Grupo 16417" transform="translate(136.828 95.064)">
          <path id="Trazado_42020" data-name="Trazado 42020" d="M4425.2,3673.736a.789.789,0,0,1-.789-.789c0-5.683-2.883-11.241-5.672-16.617-1.063-2.053-2.069-3.991-2.918-5.932a29.127,29.127,0,0,1-2-16.446.789.789,0,0,1,1.563.223,27.6,27.6,0,0,0,1.879,15.591c.828,1.892,1.822,3.808,2.874,5.837,2.875,5.543,5.848,11.276,5.848,17.344A.789.789,0,0,1,4425.2,3673.736Z" transform="translate(-4413.453 -3633.275)" fill="#6a3b35"/>
        </g>
        <g id="Grupo_16418" data-name="Grupo 16418" transform="translate(148.824 107.848)">
          <path id="Trazado_42021" data-name="Trazado 42021" d="M4427.829,3675.69a.8.8,0,0,1-.217-.03.788.788,0,0,1-.542-.975c.9-3.17,2.691-5.541,4.582-8.05l.454-.6c4-5.327,8.975-9.976,13.791-14.473,1.278-1.192,2.552-2.383,3.809-3.584a.789.789,0,0,1,1.091,1.14c-1.261,1.206-2.542,2.4-3.823,3.6-4.766,4.449-9.693,9.05-13.6,14.265l-.457.607c-1.8,2.389-3.5,4.646-4.325,7.533A.789.789,0,0,1,4427.829,3675.69Z" transform="translate(-4427.04 -3647.755)" fill="#6a3b35"/>
        </g>
        <g id="Grupo_16419" data-name="Grupo 16419" transform="translate(124.797 93.514)">
          <path id="Trazado_42022" data-name="Trazado 42022" d="M4400.613,3639.426a.789.789,0,0,1,0-1.578c2.163,0,4-1.472,5.946-3.031,2.024-1.622,4.117-3.3,6.714-3.3a.788.788,0,1,1,0,1.577c-2.044,0-3.833,1.435-5.728,2.952C4405.473,3637.709,4403.33,3639.426,4400.613,3639.426Z" transform="translate(-4399.825 -3631.519)" fill="#6a3b35"/>
        </g>
        <g id="Grupo_16420" data-name="Grupo 16420" transform="translate(125.395 100.583)">
          <path id="Trazado_42023" data-name="Trazado 42023" d="M4406.8,3671.936a1.119,1.119,0,0,1-.674-.221c-.472-.354-.45-.765-.306-3.44a63.75,63.75,0,0,0,.111-6.73c-.13-2.279-1.474-6.837-2.774-11.244-1.03-3.494-2.1-7.107-2.642-9.832a.789.789,0,0,1,1.547-.309c.531,2.656,1.586,6.235,2.607,9.695,1.387,4.7,2.7,9.14,2.837,11.6a65.277,65.277,0,0,1-.111,6.9c-.027.515-.058,1.064-.074,1.517a38.868,38.868,0,0,0,2.854-3.837,10.063,10.063,0,0,1,1.545-2.04c2.727-2,5.471-2.012,8.636-.033a.788.788,0,1,1-.836,1.337c-2.615-1.634-4.668-1.643-6.867-.033-.136.133-.711.977-1.172,1.656-2.255,3.312-3.437,4.819-4.478,4.992A1.137,1.137,0,0,1,4406.8,3671.936Zm.523-1.121Z" transform="translate(-4400.502 -3639.526)" fill="#6a3b35"/>
        </g>
        <g id="Grupo_16421" data-name="Grupo 16421" transform="translate(157.479 124.127)">
          <path id="Trazado_42024" data-name="Trazado 42024" d="M4452.784,3677.392a.79.79,0,0,1-.63-.313c-3.321-4.394-10.322-10.2-14.331-9.2a.789.789,0,1,1-.381-1.53c4.919-1.226,12.44,5.108,15.97,9.779a.788.788,0,0,1-.627,1.265Z" transform="translate(-4436.844 -3666.194)" fill="#6a3b35"/>
        </g>
        <g id="Grupo_16422" data-name="Grupo 16422" transform="translate(143.657 137.047)">
          <path id="Trazado_42025" data-name="Trazado 42025" d="M4421.976,3715.993a.789.789,0,0,1-.789-.789,36.9,36.9,0,0,1,1.09-7.549c.342-1.59.664-3.093.854-4.565.322-2.491.435-5.1.545-7.616.2-4.682.417-9.524,1.943-14.1a.788.788,0,0,1,1.5.5c-1.458,4.372-1.664,9.1-1.864,13.677-.112,2.551-.227,5.191-.557,7.749-.2,1.538-.543,3.142-.876,4.694a35.753,35.753,0,0,0-1.055,7.218A.789.789,0,0,1,4421.976,3715.993Z" transform="translate(-4421.187 -3680.827)" fill="#6a3b35"/>
        </g>
        <g id="Grupo_16423" data-name="Grupo 16423" transform="translate(202.007 147.997)">
          <path id="Trazado_42026" data-name="Trazado 42026" d="M4490.594,3757.539a.776.776,0,0,1-.193-.024.787.787,0,0,1-.573-.956c.859-3.434.407-7.326-.03-11.09-.134-1.159-.268-2.3-.359-3.414-.242-2.9-.574-5.829-.895-8.664-1.046-9.25-2.128-18.816-.2-28.458.109-.547.213-1.095.317-1.64.613-3.243,1.248-6.595,3.1-9.68a.789.789,0,1,1,1.353.811c-1.708,2.845-2.289,5.914-2.9,9.162-.1.551-.209,1.1-.319,1.656-1.88,9.4-.86,18.42.221,27.97.322,2.847.655,5.791.9,8.71.092,1.095.222,2.221.356,3.364.453,3.9.921,7.94-.007,11.655A.789.789,0,0,1,4490.594,3757.539Z" transform="translate(-4487.28 -3693.23)" fill="#6a3b35"/>
        </g>
        <g id="Grupo_16424" data-name="Grupo 16424" transform="translate(101.715 138.253)">
          <path id="Trazado_42027" data-name="Trazado 42027" d="M4374.47,3710.882a.789.789,0,0,1-.789-.789,97.956,97.956,0,0,1,.944-11.426c.641-5.272,1.3-10.724.76-15.6a.789.789,0,0,1,1.568-.175c.561,5.054-.111,10.6-.763,15.961a95.264,95.264,0,0,0-.932,11.235A.79.79,0,0,1,4374.47,3710.882Z" transform="translate(-4373.681 -3682.194)" fill="#6a3b35"/>
        </g>
        <g id="Grupo_16425" data-name="Grupo 16425" transform="translate(0.15 137.903)">
          <path id="Trazado_42028" data-name="Trazado 42028" d="M4348.28,3771.77a.788.788,0,0,1-.511-.188l-30.98-26.346a.789.789,0,0,1,1.022-1.2l30.733,26.136,61.018-4.511-88.982-82.219-59.414,12.424,26.219,22.3a.789.789,0,0,1-1.022,1.2l-27.445-23.339a.789.789,0,0,1,.35-1.373l61.388-12.837a.789.789,0,0,1,.7.192l90.614,83.728a.789.789,0,0,1-.477,1.366l-63.151,4.668Z" transform="translate(-4258.641 -3681.797)" fill="#6a3b35"/>
        </g>
        <g id="Grupo_16426" data-name="Grupo 16426" transform="translate(11.199 144.31)">
          <path id="Trazado_42029" data-name="Trazado 42029" d="M4275.581,3698.228a.779.779,0,0,1-.35-.083c-2.1-1.044-4.711-4.149-3.936-7.038a2.521,2.521,0,0,1,1.781-1.965c1.676-.446,3.8.89,4.824,1.9a.789.789,0,0,1-1.111,1.119c-.9-.888-2.472-1.717-3.3-1.5-.13.035-.474.128-.667.852-.523,1.946,1.527,4.427,3.114,5.216a.789.789,0,0,1-.352,1.495Z" transform="translate(-4271.155 -3689.054)" fill="#6a3b35"/>
        </g>
        <g id="Grupo_16427" data-name="Grupo 16427" transform="translate(18.505 143.256)">
          <path id="Trazado_42030" data-name="Trazado 42030" d="M4284.187,3697.068a.78.78,0,0,1-.351-.083c-1.6-.795-4.533-3.285-4.4-5.708.09-1.66.576-2.7,1.488-3.169,1.478-.764,3.381.429,4.517,1.143.233.146.427.271.568.342a.788.788,0,1,1-.7,1.411c-.175-.086-.418-.237-.7-.417-.739-.464-2.276-1.427-2.952-1.078-.352.182-.584.857-.638,1.853-.079,1.438,2.072,3.486,3.528,4.21a.789.789,0,0,1-.351,1.5Z" transform="translate(-4279.43 -3687.861)" fill="#6a3b35"/>
        </g>
        <g id="Grupo_16428" data-name="Grupo 16428" transform="translate(25.382 141.067)">
          <path id="Trazado_42031" data-name="Trazado 42031" d="M4290.828,3694.3a.792.792,0,0,1-.557-.229c-1.745-1.734-4.222-5.316-2.427-7.739a2.252,2.252,0,0,1,2.044-.942c1.9.089,4.036,2,4.846,3.338a.788.788,0,1,1-1.35.815c-.679-1.123-2.423-2.524-3.57-2.578a.747.747,0,0,0-.7.305c-1.008,1.362.721,4.142,2.272,5.681a.789.789,0,0,1-.556,1.348Z" transform="translate(-4287.22 -3685.381)" fill="#6a3b35"/>
        </g>
        <g id="Grupo_16429" data-name="Grupo 16429" transform="translate(33.832 139.153)">
          <path id="Trazado_42032" data-name="Trazado 42032" d="M4300.761,3692.73c-.626,0-1.215-.488-1.909-1.583-.977-1.538-2.589-5.2-1.89-6.689a1.989,1.989,0,0,1,1.487-1.213c1.17-.21,2.669.623,4.566,2.532l.063.063a.789.789,0,0,1-1.114,1.117l-.068-.067c-2.135-2.146-3.021-2.121-3.178-2.091-.056.009-.189.032-.33.33-.359.865,1.537,5.459,2.478,6.031a.789.789,0,0,1-.106,1.57Zm.139-1.552Zm-.139-.027h0Z" transform="translate(-4296.791 -3683.213)" fill="#6a3b35"/>
        </g>
        <g id="Grupo_16430" data-name="Grupo 16430" transform="translate(43.74 137.581)">
          <path id="Trazado_42033" data-name="Trazado 42033" d="M4311.181,3689.313a.785.785,0,0,1-.555-.229c-1.92-1.9-2.811-3.8-2.575-5.482a2.335,2.335,0,0,1,1.258-2.025c1.324-.559,2.968.645,4.289,1.611a9.541,9.541,0,0,0,1.018.692.789.789,0,0,1-.7,1.413,9.871,9.871,0,0,1-1.247-.832c-.671-.491-2.243-1.635-2.744-1.432-.1.042-.238.274-.31.791-.207,1.479,1.041,3.071,2.124,4.145a.789.789,0,0,1-.556,1.349Z" transform="translate(-4308.013 -3681.433)" fill="#6a3b35"/>
        </g>
        <g id="Grupo_16431" data-name="Grupo 16431" transform="translate(0 135.017)">
          <path id="Trazado_42034" data-name="Trazado 42034" d="M4411.478,3766.9a.789.789,0,0,1-.334-1.5l2.265-1.049-92.547-84.167-60.458,13.667.253.52a.789.789,0,0,1-1.418.69l-.688-1.416a.789.789,0,0,1,.536-1.114l61.829-13.977a.791.791,0,0,1,.7.186l93.731,85.242a.789.789,0,0,1-.2,1.3l-3.342,1.549A.791.791,0,0,1,4411.478,3766.9Z" transform="translate(-4258.47 -3678.528)" fill="#6a3b35"/>
        </g>
        <g id="Grupo_16432" data-name="Grupo 16432" transform="translate(106.592 5.99)">
          <path id="Trazado_42035" data-name="Trazado 42035" d="M4400.082,3626.564a.8.8,0,0,1-.25-.041c-.558-.185-1.105-.356-1.646-.526a25.051,25.051,0,0,1-6.026-2.494c-8.483-5.221-9-13.6-9.509-21.7-.137-2.206-.279-4.485-.576-6.7-.281-2.1-.587-4.179-.888-6.231-1.93-13.155-3.753-25.579,1.227-38.761,1.724-4.566,4.114-9.767,8.766-13.72a28.06,28.06,0,0,1,6.809-3.945.789.789,0,1,1,.653,1.437,26.763,26.763,0,0,0-6.441,3.71c-4.378,3.72-6.658,8.7-8.312,13.075-4.835,12.8-3.042,25.029-1.142,37.975.3,2.06.607,4.141.891,6.251.3,2.266.448,4.575.587,6.808.5,8.053.974,15.659,8.761,20.452a23.782,23.782,0,0,0,5.67,2.332c.549.172,1.106.346,1.674.535a.789.789,0,0,1-.25,1.537Z" transform="translate(-4379.205 -3532.382)" fill="#6a3b35"/>
        </g>
        <g id="Grupo_16433" data-name="Grupo 16433" transform="translate(128.153)">
          <path id="Trazado_42036" data-name="Trazado 42036" d="M4464.043,3609.133a.815.815,0,0,1-.166-.018.789.789,0,0,1-.607-.937c1.159-5.4.12-10.278-.978-15.439-.388-1.818-.788-3.7-1.09-5.619-.551-3.483-.925-7.058-1.288-10.517-.867-8.276-1.765-16.833-5.135-24.628-2.067-4.778-5.424-9.232-10.562-14.016-10.532-9.805-28.552-14.946-39.3-6.15a.788.788,0,1,1-1-1.221c12.738-10.422,31.865-2.639,41.376,6.216,5.3,4.939,8.778,9.561,10.935,14.545,3.466,8.016,4.375,16.7,5.256,25.09.361,3.437.732,6.993,1.276,10.434.3,1.881.693,3.739,1.076,5.537,1.135,5.33,2.206,10.364.978,16.1A.789.789,0,0,1,4464.043,3609.133Z" transform="translate(-4403.626 -3525.597)" fill="#6a3b35"/>
        </g>
        <g id="Grupo_16434" data-name="Grupo 16434" transform="translate(156.426 41.321)">
          <path id="Trazado_42037" data-name="Trazado 42037" d="M4465.147,3650.536a.79.79,0,0,1-.789-.789l0-.431a6.14,6.14,0,0,0-.249-2.245c-.1-.286-.2-.575-.3-.863a16.207,16.207,0,0,0-1.115-2.7c-2.172-3.842-5.5-5.419-9.015-7.089a30.924,30.924,0,0,1-6.852-4.029A18.164,18.164,0,0,1,4441,3623.8c-2.16-6.1-2.035-12.655-1.913-19,.054-2.8.109-5.7-.043-8.46a121.7,121.7,0,0,0-3.365-22.966.789.789,0,0,1,1.53-.382,123.076,123.076,0,0,1,3.409,23.261c.157,2.818.1,5.747.046,8.578-.118,6.2-.241,12.61,1.824,18.439a16.487,16.487,0,0,0,5.355,7.9,29.668,29.668,0,0,0,6.518,3.817c3.585,1.7,7.294,3.46,9.711,7.736a17.663,17.663,0,0,1,1.232,2.961c.1.281.193.562.295.839a7.561,7.561,0,0,1,.344,2.8l0,.416A.789.789,0,0,1,4465.147,3650.536Z" transform="translate(-4435.65 -3572.4)" fill="#6a3b35"/>
        </g>
        <g id="Grupo_16435" data-name="Grupo 16435" transform="translate(186.458 82.838)">
          <path id="Trazado_42038" data-name="Trazado 42038" d="M4470.457,3656.634a.789.789,0,0,1-.558-1.347c8.2-8.2,5.145-22.927,1.57-34.844a.789.789,0,0,1,1.511-.454c3.7,12.337,6.823,27.625-1.965,36.414A.787.787,0,0,1,4470.457,3656.634Z" transform="translate(-4469.667 -3619.427)" fill="#6a3b35"/>
        </g>
        <g id="Grupo_16436" data-name="Grupo 16436" transform="translate(172.62 106.247)">
          <path id="Trazado_42039" data-name="Trazado 42039" d="M4464.2,3669.75a.789.789,0,0,1-.789-.789v-.288c0-2.891,0-5.176-1.248-7.76a20.488,20.488,0,0,0-3.566-4.779c-2.266-2.484-4.609-5.053-4.609-9.4a.789.789,0,0,1,1.577,0c0,3.739,2.039,5.974,4.2,8.341a21.73,21.73,0,0,1,3.821,5.155c1.405,2.911,1.4,5.477,1.4,8.448v.287A.79.79,0,0,1,4464.2,3669.75Z" transform="translate(-4453.993 -3645.941)" fill="#6a3b35"/>
        </g>
        <g id="Grupo_16437" data-name="Grupo 16437" transform="translate(182.336 105.658)">
          <path id="Trazado_42040" data-name="Trazado 42040" d="M4465.787,3678.211a.789.789,0,0,1-.558-1.347c.542-.541,1.1-1.092,1.678-1.655,4.251-4.167,9.071-8.891,10.332-14.451a20.58,20.58,0,0,0-.128-8.665,34.776,34.776,0,0,1-.627-6.03.789.789,0,0,1,1.577,0,33.583,33.583,0,0,0,.606,5.769,21.86,21.86,0,0,1,.11,9.276c-1.363,6.011-6.358,10.908-10.765,15.229-.57.559-1.129,1.106-1.667,1.644A.789.789,0,0,1,4465.787,3678.211Z" transform="translate(-4464.999 -3645.274)" fill="#6a3b35"/>
        </g>
        <g id="Grupo_16438" data-name="Grupo 16438" transform="translate(172.777 116.553)">
          <path id="Trazado_42041" data-name="Trazado 42041" d="M4461.428,3688.048a.791.791,0,0,1-.773-.634,48.359,48.359,0,0,0-2.981-8.672c-2.776-6.693-5.646-13.615-1.184-20.757a.789.789,0,0,1,1.339.836c-4.034,6.453-1.442,12.7,1.3,19.317a49.447,49.447,0,0,1,3.072,8.966.789.789,0,0,1-.619.928A.778.778,0,0,1,4461.428,3688.048Z" transform="translate(-4454.171 -3657.615)" fill="#6a3b35"/>
        </g>
        <g id="Grupo_16439" data-name="Grupo 16439" transform="translate(181.453 125.827)">
          <path id="Trazado_42042" data-name="Trazado 42042" d="M4464.788,3694.579a.775.775,0,0,1-.25-.042.789.789,0,0,1-.5-1c.988-2.964,3-4.991,4.948-6.952a23.859,23.859,0,0,0,3.809-4.537c2.241-3.791,2.736-8.291,3.216-12.642l.065-.589a.789.789,0,0,1,1.568.175l-.065.587c-.5,4.517-1.014,9.189-3.427,13.271a25.042,25.042,0,0,1-4.046,4.845c-1.9,1.917-3.7,3.727-4.571,6.339A.788.788,0,0,1,4464.788,3694.579Z" transform="translate(-4463.998 -3668.12)" fill="#6a3b35"/>
        </g>
        <g id="Grupo_16440" data-name="Grupo 16440" transform="translate(172.436 136.722)">
          <path id="Trazado_42043" data-name="Trazado 42043" d="M4458.733,3702.061a.789.789,0,0,1-.759-.573,21.335,21.335,0,0,0-1.774-4.018,22.262,22.262,0,0,1-1.908-4.381c-.956-3.455-.562-7.418,1.2-12.118a.789.789,0,1,1,1.477.555c-1.641,4.375-2.02,8.02-1.157,11.142a20.718,20.718,0,0,0,1.785,4.068,22.833,22.833,0,0,1,1.895,4.319.791.791,0,0,1-.758,1.005Z" transform="translate(-4453.785 -3680.46)" fill="#6a3b35"/>
        </g>
        <g id="Grupo_16441" data-name="Grupo 16441" transform="translate(181.158 143.053)">
          <path id="Trazado_42044" data-name="Trazado 42044" d="M4464.453,3706.875a.789.789,0,0,1-.668-1.207,53.353,53.353,0,0,1,3.361-4.64c2.922-3.735,5.446-6.96,4.916-12.536a.788.788,0,0,1,1.569-.149c.592,6.2-2.242,9.823-5.243,13.657a51.99,51.99,0,0,0-3.264,4.5A.786.786,0,0,1,4464.453,3706.875Z" transform="translate(-4463.665 -3687.631)" fill="#6a3b35"/>
        </g>
        <g id="Grupo_16442" data-name="Grupo 16442" transform="translate(170.673 160.038)">
          <path id="Trazado_42045" data-name="Trazado 42045" d="M4458.22,3752.644a.789.789,0,0,1-.559-1.346c.967-.968.616-3.815.167-5.382a26.577,26.577,0,0,0-2.628-5.674,22.63,22.63,0,0,1-3.183-7.939c-.86-6.024.862-11.664,2.528-17.121.766-2.511,1.56-5.107,2.073-7.677a.789.789,0,0,1,1.548.31c-.53,2.646-1.334,5.28-2.113,7.829-1.615,5.29-3.285,10.761-2.475,16.437a21.091,21.091,0,0,0,3,7.389,28.132,28.132,0,0,1,2.768,6.013c.145.506,1.361,5-.567,6.931A.787.787,0,0,1,4458.22,3752.644Z" transform="translate(-4451.789 -3706.87)" fill="#6a3b35"/>
        </g>
        <g id="Grupo_16443" data-name="Grupo 16443" transform="translate(182.179 164.175)">
          <path id="Trazado_42046" data-name="Trazado 42046" d="M4466.636,3754.019a.789.789,0,0,1-.11-1.57c3.125-.447,5.162-3.69,6.225-9.918,1.025-6.01.273-10.877-2.6-16.8-.45-.928-1.016-1.927-1.613-2.986-1.845-3.262-3.935-6.957-3.7-10.458a.8.8,0,0,1,.839-.734.79.79,0,0,1,.736.84c-.2,3.03,1.765,6.508,3.5,9.575.612,1.082,1.189,2.1,1.661,3.075,2.987,6.162,3.8,11.47,2.731,17.751-.438,2.569-1.773,10.389-7.557,11.213A.728.728,0,0,1,4466.636,3754.019Z" transform="translate(-4464.821 -3711.555)" fill="#6a3b35"/>
        </g>
        <g id="Grupo_16444" data-name="Grupo 16444" transform="translate(177.786 196.057)">
          <path id="Trazado_42047" data-name="Trazado 42047" d="M4460.633,3758.708a.789.789,0,0,1-.3-1.517c2.6-1.083,3.793-4.008,3.558-8.7a.789.789,0,0,1,1.575-.079c.272,5.424-1.251,8.866-4.527,10.231A.783.783,0,0,1,4460.633,3758.708Z" transform="translate(-4459.845 -3747.667)" fill="#6a3b35"/>
        </g>
        <g id="Grupo_16445" data-name="Grupo 16445" transform="translate(2.218 133.966)">
          <path id="Trazado_42048" data-name="Trazado 42048" d="M4392.9,3745.018a.789.789,0,0,1-.782-.69l-2.048-16.134c-2.11-.235-8.682-1.88-22.659-12.324-16.045-11.988-42.68-34.244-45.834-36.884l-59.617,14.428a.789.789,0,0,1-.372-1.534l60-14.521a.793.793,0,0,1,.693.162c.289.243,29.116,24.42,46.069,37.086,16.5,12.325,22.284,12.056,22.342,12.045a.812.812,0,0,1,.854.686l2.132,16.79a.789.789,0,0,1-.684.882A.725.725,0,0,1,4392.9,3745.018Z" transform="translate(-4260.983 -3677.338)" fill="#6a3b35"/>
        </g>
        <g id="Grupo_16446" data-name="Grupo 16446" transform="translate(99.25 226.487)">
          <path id="Trazado_42049" data-name="Trazado 42049" d="M4372.443,3837.61c1.413-12.226,1.6-54.212,1.6-54.685a.789.789,0,1,0-1.577,0c0,8.334-.42,44.716-1.574,54.685Z" transform="translate(-4370.888 -3782.135)" fill="#6a3b35"/>
        </g>
        <g id="Grupo_16447" data-name="Grupo 16447" transform="translate(203.348 245.171)">
          <path id="Trazado_42050" data-name="Trazado 42050" d="M4496.959,3840.089c-1.386-7.3-6.494-34.456-6.583-36.013a.789.789,0,0,0-1.578.011c0,1.218,5.052,28.083,6.557,36Z" transform="translate(-4488.799 -3803.298)" fill="#6a3b35"/>
          <path id="Trazado_42051" data-name="Trazado 42051" d="M4490.586,3804.192h0Z" transform="translate(-4489.008 -3803.403)" fill="#6a3b35"/>
        </g>
        <g id="Grupo_16448" data-name="Grupo 16448" transform="translate(161.404 207.73)">
          <path id="Trazado_42052" data-name="Trazado 42052" d="M4446.379,3765.871a.8.8,0,0,1-.25-.041,10.141,10.141,0,0,1-3.974-2.945c-.212-.218-.421-.436-.634-.649a.789.789,0,1,1,1.114-1.116c.22.219.438.444.654.669a8.844,8.844,0,0,0,3.339,2.545.789.789,0,0,1-.25,1.537Z" transform="translate(-4441.29 -3760.889)" fill="#6a3b35"/>
        </g>
        <g id="Grupo_16449" data-name="Grupo 16449" transform="translate(147.585 222.466)">
          <path id="Trazado_42053" data-name="Trazado 42053" d="M4444.286,3788.593a.785.785,0,0,1-.5-.182c-.9-.748-6.617-3.621-10.789-5.72-4.681-2.354-6.631-3.35-7.072-3.714a.789.789,0,0,1,1.006-1.215c.4.314,3.788,2.017,6.775,3.52,5.882,2.958,10.119,5.114,11.085,5.914a.789.789,0,0,1-.5,1.4Z" transform="translate(-4425.637 -3777.58)" fill="#6a3b35"/>
        </g>
      </g>
    </g>
  </g>
</svg>
