<svg xmlns="http://www.w3.org/2000/svg" width="401.2" height="357.499" viewBox="0 0 401.2 357.499">
  <g id="Grupo_16546" data-name="Grupo 16546" transform="translate(-422 -8916.001)">
    <g id="Grupo_16545" data-name="Grupo 16545" transform="translate(422 8925.766)">
      <g id="Grupo_16321" data-name="Grupo 16321">
        <g id="Grupo_16318" data-name="Grupo 16318" opacity="0.6">
          <g id="Grupo_16317" data-name="Grupo 16317">
            <path id="Trazado_41908" data-name="Trazado 41908" d="M4419.435,3812.96s-32.093,8.388-61.85-20.706-50.366-6.374-90.62-21.06c-25.188-9.189-48.092-33.948-48.449-83.064s38.477-61.6,44.174-81.72c10.331-36.487-6.279-55.943,11.4-79.437,22.8-30.3,60.215-4.938,84.453-9.864,34.679-7.047,37.312-24.681,60.893-23.942" transform="translate(-4218.513 -3484.905)" fill="#dceef7"/>
            <path id="Trazado_41909" data-name="Trazado 41909" d="M4361.058,3512.747a55.1,55.1,0,0,0,23.228-2.771c12.66-4.295,21.522-11.083,21.3-18.981s-13.167-9.282-25.73-4.157-23.294,2.079-31.556,5.4S4341.6,3512.608,4361.058,3512.747Z" transform="translate(-4233.162 -3483.811)" fill="#dceef7"/>
            <path id="Trazado_41910" data-name="Trazado 41910" d="M4334.773,3824.376a42.773,42.773,0,0,1,20.037,6.511,63.531,63.531,0,0,1,15.571,13.825c4.061,5.114.1,17.065-15.571,6.957s-21.027-15.466-28.094-16.027S4320.248,3823.572,4334.773,3824.376Z" transform="translate(-4230.672 -3523.699)" fill="#dceef7"/>
          </g>
        </g>
        <g id="Grupo_16320" data-name="Grupo 16320" transform="translate(200.278 5.487)" opacity="0.6">
          <g id="Grupo_16319" data-name="Grupo 16319">
            <path id="Trazado_41911" data-name="Trazado 41911" d="M4445.364,3494.237s32.094-8.388,61.85,20.707,50.365,6.373,90.621,21.06c25.188,9.19,48.092,33.948,48.449,83.063s-38.478,61.6-44.174,81.721c-10.331,36.487,6.28,55.943-11.4,79.437-22.8,30.3-60.215,4.938-84.453,9.863-34.679,7.048-37.312,24.682-60.893,23.943" transform="translate(-4445.364 -3490.387)" fill="#dceef7"/>
            <path id="Trazado_41912" data-name="Trazado 41912" d="M4522.171,3833.158a55.1,55.1,0,0,0-23.228,2.771c-12.661,4.295-21.522,11.084-21.3,18.981s13.167,9.283,25.731,4.156,23.294-2.078,31.556-5.4S4541.627,3833.3,4522.171,3833.158Z" transform="translate(-4449.145 -3530.189)" fill="#dceef7"/>
            <path id="Trazado_41913" data-name="Trazado 41913" d="M4550.109,3521.255a42.771,42.771,0,0,1-20.037-6.51,63.556,63.556,0,0,1-15.571-13.825c-4.061-5.114-.1-17.066,15.571-6.957s21.027,15.465,28.094,16.027S4564.635,3522.059,4550.109,3521.255Z" transform="translate(-4453.288 -3490.026)" fill="#dceef7"/>
          </g>
        </g>
      </g>
    </g>
    <g id="Grupo_16544" data-name="Grupo 16544" transform="translate(571 8916.001)">
      <path id="Trazado_42133" data-name="Trazado 42133" d="M375.286,568c0,.951,32.652,1.721,72.929,1.721s72.929-.77,72.929-1.721-32.65-1.721-72.929-1.721S375.286,567.048,375.286,568Z" transform="translate(-368.056 -212.22)" fill="#75757f"/>
      <path id="Trazado_42134" data-name="Trazado 42134" d="M398.469,563.325a41.224,41.224,0,0,0,6.766,4.168c4.2,2.023,12.167,3.553,12.008,4.168H394.712s-1.728-4.493.318-8.337Z" transform="translate(-306.714 -215.972)" fill="#6b625d"/>
      <path id="Trazado_42135" data-name="Trazado 42135" d="M436.78,571.662H426.462c-.42-1.955,1.108-2.2,2.659-3.637a8.315,8.315,0,0,0,2.443-4.7h2.72S436.213,570.458,436.78,571.662Z" transform="translate(-399.72 -215.972)" fill="#6b625d"/>
      <path id="Trazado_42136" data-name="Trazado 42136" d="M422.129,509.812c-7.472-3.026-2.227-24.057,4.89-43.575,6.634-22.315,4.918-28.037,19.641-27.07,4.5.3,30.539,8.092,26.377,21.237C451.208,469.476,434.582,514.736,422.129,509.812Z" transform="translate(-418.491 -373.827)" fill="#99dbdd"/>
      <rect id="Rectángulo_4560" data-name="Rectángulo 4560" width="5.606" height="15.013" transform="translate(61.962 23.076)" fill="#76c1c1"/>
      <path id="Trazado_42137" data-name="Trazado 42137" d="M465.4,481.973c2.933-7.508-24.529-24.8-43.6-33.034-20.776-10.505-23.755-15.684-33.163-4.321-2.881,3.476-15.1,27.753-2.686,33.756C407.538,468.744,460.426,494.408,465.4,481.973Z" transform="translate(-324.337 -374.92)" fill="#99dbdd"/>
      <path id="Trazado_42138" data-name="Trazado 42138" d="M465.609,486.713s-.624,34.473-28.266,34.473-29.935-34.473-29.935-34.473Z" transform="translate(-385.45 -313.297)" fill="#89cece"/>
      <path id="Trazado_42139" data-name="Trazado 42139" d="M430.086,486.792s-5,114.558,12.687,173.937h-8.748c-6.941-16.6-23.712-52.219-25.526-60.837s8.859-24.046,7.926-26.917-14.605-51.71-14.605-51.71S421.468,484.081,430.086,486.792Z" transform="translate(-349.928 -313.377)" fill="#89cece"/>
      <path id="Trazado_42140" data-name="Trazado 42140" d="M455.468,521.186S442.354,607.7,441.675,661.57H433.65c-3.628-18.933-14.015-58.056-13.788-65.993s9.07-20.867,9.865-25.29-7.37-63.918-4.193-83.574Z" transform="translate(-403.576 -313.297)" fill="#89cece"/>
      <path id="Trazado_42141" data-name="Trazado 42141" d="M468.372,548.735s0-82.453-6.548-110.242c0,0-34.031-2.686-54.378,3.292,0,0-.574,60.079,2.724,106.95A310.247,310.247,0,0,0,468.372,548.735Z" transform="translate(-388.213 -375.319)" fill="#afedf2"/>
      <path id="Trazado_42142" data-name="Trazado 42142" d="M422.629,476.769s-.275-21.489-40.065-38.9l-2.15,3s14.051,14.894,18.474,21.08C408.308,478.674,424.67,494.273,422.629,476.769Z" transform="translate(-281.36 -375.342)" fill="#f4aa67"/>
      <g id="Grupo_16524" data-name="Grupo 16524" transform="translate(29.372 1.719)">
        <path id="Trazado_42143" data-name="Trazado 42143" d="M444.454,416.809a42.236,42.236,0,0,1,2.318,19.214s2.47,8.434.79,14.66c0,0-2.407,7.263-4.357,8.82-1.991,1.591-7.127,2.136-9.592,1.653-3.989-.788-10.473-6.146-12.33-9.626-1.932-3.617-5.251-15.55-5.251-15.55S400.257,402.3,444.454,416.809Z" transform="translate(-410.728 -408.431)" fill="#f4aa67"/>
        <path id="Trazado_42144" data-name="Trazado 42144" d="M422.08,421.445c-.007.456-.475.368-2.92.338s-5.095.479-5.083-.465,2-1.682,4.448-1.655S422.087,420.986,422.08,421.445Z" transform="translate(-386.435 -400.196)" fill="#844421"/>
        <path id="Trazado_42145" data-name="Trazado 42145" d="M420.013,424.487c.186.475.64.2,3.181-.788s5.506-1.492,5.126-2.472-2.749-.976-5.29.009S419.829,424.013,420.013,424.487Z" transform="translate(-406.12 -399.138)" fill="#844421"/>
        <g id="Grupo_16520" data-name="Grupo 16520" transform="translate(27.902 30.21)">
          <path id="Trazado_42146" data-name="Trazado 42146" d="M419.626,428.451c-3.165-.009-5.835.182-6.178-2.486-.263-2.046,5.9-1.619,8.8-1.308.132.679.263,1.446.377,2.277A3.735,3.735,0,0,1,419.626,428.451Z" transform="translate(-413.44 -424.394)" fill="#ea9957"/>
        </g>
        <path id="Trazado_42147" data-name="Trazado 42147" d="M421.275,431.131s-1.748,2.279-5.231.608C416.044,431.739,419.826,437.919,421.275,431.131Z" transform="translate(-390.095 -385.626)" fill="#ea9957"/>
        <path id="Trazado_42148" data-name="Trazado 42148" d="M417.55,420.728a14.63,14.63,0,0,0,.386,7.227,14.457,14.457,0,0,0,3.356,5.145,1.23,1.23,0,0,1,.188,1.485c-1,1.5-5.449,2.039-5.487,1.782s2.1-.686,3.362-1.317c.717-.356,1-1.087.615-1.533C418.894,432.284,413.978,426.833,417.55,420.728Z" transform="translate(-390.368 -398.841)" fill="#db8849"/>
        <g id="Grupo_16521" data-name="Grupo 16521" transform="translate(8.385 35.663)">
          <path id="Trazado_42149" data-name="Trazado 42149" d="M416.134,426.8a47.117,47.117,0,0,0,2.416,6.225c1.857,3.478,8.341,8.839,12.33,9.624,2.309.456,6.927-.007,9.143-1.374a4.535,4.535,0,0,1-.817.933c-1.991,1.591-7.127,2.136-9.592,1.653-3.989-.788-10.473-6.146-12.33-9.626a42.173,42.173,0,0,1-2.171-5.5A3.109,3.109,0,0,0,416.134,426.8Z" transform="translate(-415.112 -426.796)" fill="#ed9f5f"/>
        </g>
        <path id="Trazado_42150" data-name="Trazado 42150" d="M420.628,429.613a3.23,3.23,0,0,0-.2,1.594,3.233,3.233,0,0,0,1-1.258c.329-.788.418-1.5.2-1.594S420.96,428.826,420.628,429.613Z" transform="translate(-400.476 -389.164)" fill="#ea9957"/>
        <path id="Trazado_42151" data-name="Trazado 42151" d="M415.178,429.093a3.2,3.2,0,0,0,1.206,1.06,3.239,3.239,0,0,0-.474-1.535c-.463-.715-1-1.19-1.206-1.06S414.713,428.375,415.178,429.093Z" transform="translate(-381.987 -390.192)" fill="#ea9957"/>
        <path id="Trazado_42152" data-name="Trazado 42152" d="M427.215,428.154s-2.915,3.072-12,1.891C415.218,430.045,424.465,441.274,427.215,428.154Z" transform="translate(-394.16 -389.407)" fill="#935e37"/>
        <g id="Grupo_16522" data-name="Grupo 16522" transform="translate(21.449 39.346)">
          <path id="Trazado_42153" data-name="Trazado 42153" d="M422.338,431.2c-2.924.322-6.757-1.442-6.757-1.442l.03,0c6.162.724,9.386-.527,10.75-1.335l0,0A5.172,5.172,0,0,1,422.338,431.2Z" transform="translate(-415.581 -428.418)" fill="#fff1e6"/>
        </g>
        <path id="Trazado_42154" data-name="Trazado 42154" d="M449.383,423.716a23.18,23.18,0,0,1-9.415,2.768c-3.975.411-9.862,1.887-14.215,0,0,0-4.854-.613-1.507,15.259l-4.927-.468s-5.533-11.951-4.929-18.388c.654-6.968,10.612-12.3,16.156-11.763C433.774,411.436,447.862,414.326,449.383,423.716Z" transform="translate(-414.344 -411.088)" fill="#723618"/>
        <g id="Grupo_16523" data-name="Grupo 16523" transform="translate(0.047 26.654)">
          <path id="Trazado_42155" data-name="Trazado 42155" d="M426.99,430.622c1.846,2.988,4.834,4.507,6.67,3.392s1.832-4.441-.016-7.429-4.831-4.507-6.67-3.392S425.145,427.634,426.99,430.622Z" transform="translate(-425.601 -422.828)" fill="#f4aa67"/>
          <path id="Trazado_42156" data-name="Trazado 42156" d="M427.285,428.379c1.058,1.712,2.768,2.581,3.821,1.943s1.049-2.545-.009-4.255-2.768-2.581-3.821-1.943S426.227,426.669,427.285,428.379Z" transform="translate(-424.475 -421.447)" fill="#ea9957"/>
        </g>
        <path id="Trazado_42157" data-name="Trazado 42157" d="M434.042,422.92s-.238,8.055-2.332,8.8-8.612,1.934-9.744.972-3.008-5.98-3.008-5.98l2.166-3.126s-.089,5.76,2.218,5.93,6.627.284,7.585-.792S434.042,422.92,434.042,422.92Z" transform="translate(-409.479 -396.056)" fill="#ea9957"/>
      </g>
      <path id="Trazado_42158" data-name="Trazado 42158" d="M413.447,437.014c0,5.651,6.966,9.07,12.158,9.07s10.1-6.23,10.1-11.881-4.9-8.58-10.1-8.58S413.447,431.366,413.447,437.014Z" transform="translate(-369.256 -390.903)" fill="#fff"/>
      <path id="Trazado_42159" data-name="Trazado 42159" d="M425.6,435.358c3.885,0,7.606-3.485,9.236-7.606a8.135,8.135,0,0,1,.863,3.748c0,5.651-4.9,11.881-10.1,11.881s-12.158-3.419-12.158-9.07a8.7,8.7,0,0,1,1.19-4.2C416.848,433.444,421.72,435.358,425.6,435.358Z" transform="translate(-369.256 -388.199)" fill="#d3ced8"/>
      <path id="Trazado_42160" data-name="Trazado 42160" d="M427.91,421.983V427.4l-3.262-.872,1.1-4.873Z" transform="translate(-386.892 -395.945)" fill="#fff"/>
      <path id="Trazado_42161" data-name="Trazado 42161" d="M424.164,467.849c1.36-3.226-7.179-6.906-7.633-33.44-.129-7.612,2.372-16.179,6.53-18.955,6.38-4.262,15.041-7.706,26.5-2.493,7.576,3.576,9.744,12.467,10.589,21.7,1.174,12.834-.994,26.62-1.732,30.284-1.269,6.3,5.528,8.471,5.528,8.471-9.765,7.233-53.088,3.38-53.088,3.38S422.8,471.073,424.164,467.849Zm7.281-21.419c.411,11.023,9.159,18.624,17.2,18.327s9.193-10.455,9.778-19.512c-.232-11.493-1.744-19.319-13.166-19.319C433.239,425.927,431.037,435.405,431.445,446.43Z" transform="translate(-391.627 -410.331)" fill="#afedf2"/>
      <g id="Grupo_16525" data-name="Grupo 16525" transform="translate(19.233 6.896)">
        <path id="Trazado_42162" data-name="Trazado 42162" d="M434.96,426.3c-3.067,3.8-3.755,9.753-3.515,16.267a20.117,20.117,0,0,0,3.381,10.523c6.777,10.065,19.834,9.667,24.191,4.52-.232,1.514-.445,2.718-.6,3.471-1.269,6.3,5.528,8.471,5.528,8.471-9.765,7.233-53.088,3.38-53.088,3.38s11.944-5.724,13.3-8.947-7.179-6.906-7.633-33.44c-.109-6.389,1.641-13.434,4.661-17.182C422.625,422.018,431.625,425.353,434.96,426.3Z" transform="translate(-410.86 -413.368)" fill="#99dbdd"/>
      </g>
      <path id="Trazado_42163" data-name="Trazado 42163" d="M440.264,420.34c.293-.034.529.241.529.615v5.065c0,2.575-1.628,4.852-3.635,5.086l-5.966.695a1.53,1.53,0,0,1-1.5-.795l-1.517-3.814a1.177,1.177,0,0,0-1.208-.829l-.947.111a1.579,1.579,0,0,0-1.208,1.11l-1.517,4.164a2.029,2.029,0,0,1-1.5,1.144l-5.966.695c-2.007.232-3.635-1.667-3.635-4.241v-4.99a.788.788,0,0,1,.588-.82ZM413.049,428c0,2.575,1.628,4.473,3.635,4.239,4.552-.529,5.512.241,7.656-5.828a1.594,1.594,0,0,1,1.215-1.131l1.878-.218a1.181,1.181,0,0,1,1.215.847c2.146,5.576,2.136,4.691,7.656,4.048,2.007-.234,3.635-2.509,3.635-5.086v-3.242l-26.888,3.129Z" transform="translate(-371.498 -397.619)" fill="#fff"/>
      <g id="Grupo_16526" data-name="Grupo 16526" transform="translate(44.19 42.341)">
        <path id="Trazado_42164" data-name="Trazado 42164" d="M415.452,436.572a17.764,17.764,0,0,0,7.524,4.13,13.18,13.18,0,0,0,3.469.363c5.844-.218,8.044-5.655,9.038-12.085-.3,4.236-2.061,16.342-12.5,15.4,0,0-9.508-1.755-9.365-9.76l.032-.011a18.835,18.835,0,0,0,1.771,1.932Z" transform="translate(-413.621 -428.98)" fill="#76c1c1"/>
      </g>
      <g id="Grupo_16527" data-name="Grupo 16527" transform="translate(19.233 58.165)">
        <path id="Trazado_42165" data-name="Trazado 42165" d="M420.014,442.938l3.58.377s9.876-6.2,10.784-5.821-3.367,5.973-3.367,5.973l3.215.379s5.14-6.275,6.425-6.125-1.072,6.125-1.072,6.125l7.9.075s-.1-7.106.656-7.106c.586,0,.883,4.775,1.855,6.577.286.527,2.379.075,2.379.075s-.152-4.157.631-4.157,2.8,3.56,2.8,3.56l2.089-.309s-2.191-5.671-1.317-5.746,6.645,4.75,6.7,4.8c-11.663,6.212-51.878,2.638-51.878,2.638s10.462-5.013,12.916-8.3C424.856,437.834,420.014,442.938,420.014,442.938Z" transform="translate(-411.393 -435.95)" fill="#8cd1d1"/>
      </g>
      <g id="Grupo_16528" data-name="Grupo 16528" transform="translate(29.118 48.863)">
        <path id="Trazado_42166" data-name="Trazado 42166" d="M436.222,437.6c.227,1.519-7.783,2.443-7.783,2.443h0c.225-1.58-1.6-3.508-3.54-8.194C429.929,436.739,436.016,436.214,436.222,437.6Z" transform="translate(-424.9 -431.853)" fill="#8cd1d1"/>
      </g>
      <path id="Trazado_42167" data-name="Trazado 42167" d="M416.7,474.466s-.234-18.283-31.495-34.78l-4.793,5.288c4.389,4.813,10.028,11.157,12.546,14.678C402.38,476.371,418.742,491.97,416.7,474.466Z" transform="translate(-275.432 -373.039)" fill="#afedf2"/>
      <path id="Trazado_42168" data-name="Trazado 42168" d="M427.481,423.042l.552,1.251s-1.535.52-8.207.524l-.138-.64A24.634,24.634,0,0,0,427.481,423.042Z" transform="translate(-375.752 -394.183)" fill="#724825"/>
      <path id="Trazado_42169" data-name="Trazado 42169" d="M421.413,422.311l.547,1.253s-1.537.513-8.21.486l-.136-.64A24.673,24.673,0,0,0,421.413,422.311Z" transform="translate(-355.891 -395.111)" fill="#724825"/>
      <path id="Trazado_42170" data-name="Trazado 42170" d="M423.641,423.462s-1.256,2.345-2.336,2.552-.729-1.966-.729-1.966A9.807,9.807,0,0,1,423.641,423.462Z" transform="translate(-373.254 -393.676)" fill="#724825"/>
      <path id="Trazado_42171" data-name="Trazado 42171" d="M417.862,422.764s-1.4,2.261-2.5,2.4-.6-2.009-.6-2.009A9.844,9.844,0,0,1,417.862,422.764Z" transform="translate(-354.154 -394.593)" fill="#724825"/>
      <path id="Trazado_42172" data-name="Trazado 42172" d="M442.482,486.5s18.578-49.022-6.6-46.856c0,0-13.293,43.219-4.382,50.8C433.56,492.2,437.755,489.107,442.482,486.5Z" transform="translate(-416.654 -373.179)" fill="#99dbdd"/>
      <g id="Grupo_16532" data-name="Grupo 16532" transform="translate(67.692 62.703)">
        <path id="Trazado_42173" data-name="Trazado 42173" d="M422.064,451.305s4.05.965,4.82-2.861-3.319-4.6-3.319-4.6L396.949,438.5l-1.5,7.458Z" transform="translate(-387.362 -437.251)" fill="#dbdbe4"/>
        <rect id="Rectángulo_4561" data-name="Rectángulo 4561" width="10.095" height="6.145" transform="matrix(-0.98, -0.197, 0.197, -0.98, 18.845, 10.122)" fill="#cad4ed" opacity="0.7"/>
        <path id="Trazado_42174" data-name="Trazado 42174" d="M421.315,449.036s3.53.831,4.15-2.257-2.94-3.767-2.94-3.767l-16.764-3.369-9.406,1.932L395.9,443.9Z" transform="translate(-386.947 -435.796)" fill="#ffbc66"/>
        <rect id="Rectángulo_4562" data-name="Rectángulo 4562" width="1.122" height="7.608" transform="translate(9.904 9.071) rotate(-168.633)" fill="#bec0d0" opacity="0.5"/>
        <g id="Grupo_16529" data-name="Grupo 16529" transform="translate(36.554 8.205)">
          <path id="Trazado_42175" data-name="Trazado 42175" d="M396.965,441.563a2.729,2.729,0,0,1,.9,2.779,2.671,2.671,0,0,1-1.934,2.2,8.693,8.693,0,0,1,.168-2.493A8.6,8.6,0,0,1,396.965,441.563Z" transform="translate(-395.901 -441.563)" fill="#b76317" opacity="0.4" style="mix-blend-mode: multiply;isolation: isolate"/>
        </g>
        <path id="Trazado_42176" data-name="Trazado 42176" d="M421.32,450.011,395.9,444.9l.041-.209,25.106,5.047s3.56.829,4.137-2.048-3.011-3.562-3.011-3.562l-25.1-5.045.041-.209,25.419,5.111s3.562.674,2.94,3.767S421.32,450.011,421.32,450.011Z" transform="translate(-386.952 -436.77)" fill="#b76317" opacity="0.4" style="mix-blend-mode: multiply;isolation: isolate"/>
        <path id="Trazado_42177" data-name="Trazado 42177" d="M404.7,441.86l9.489-2.051-.673-.135-8.881,1.894Z" transform="translate(-395.44 -435.758)" fill="#ffcb78"/>
        <g id="Grupo_16530" data-name="Grupo 16530" transform="translate(12.327 5.568)">
          <path id="Trazado_42178" data-name="Trazado 42178" d="M397.29,443.582a.145.145,0,1,0,.057-.284.146.146,0,0,0-.17.114A.148.148,0,0,0,397.29,443.582Z" transform="translate(-374.091 -436.724)" fill="#b76317" opacity="0.2" style="mix-blend-mode: multiply;isolation: isolate"/>
          <path id="Trazado_42179" data-name="Trazado 42179" d="M399.756,442.552a.145.145,0,0,0,.057-.284.145.145,0,0,0-.057.284Z" transform="translate(-382.156 -438.032)" fill="#b76317" opacity="0.2" style="mix-blend-mode: multiply;isolation: isolate"/>
          <path id="Trazado_42180" data-name="Trazado 42180" d="M403.392,440.725a.141.141,0,0,0,.168-.114.144.144,0,1,0-.168.114Z" transform="translate(-394.042 -440.353)" fill="#b76317" opacity="0.2" style="mix-blend-mode: multiply;isolation: isolate"/>
          <path id="Trazado_42181" data-name="Trazado 42181" d="M407.458,441.381a.145.145,0,1,0-.113-.17A.145.145,0,0,0,407.458,441.381Z" transform="translate(-407.342 -439.52)" fill="#b76317" opacity="0.2" style="mix-blend-mode: multiply;isolation: isolate"/>
          <path id="Trazado_42182" data-name="Trazado 42182" d="M399.866,441.694a.306.306,0,1,0-.241-.361A.3.3,0,0,0,399.866,441.694Z" transform="translate(-382.414 -439.529)" fill="#b76317" opacity="0.2" style="mix-blend-mode: multiply;isolation: isolate"/>
          <path id="Trazado_42183" data-name="Trazado 42183" d="M401.591,442.842a.307.307,0,1,0,.12-.6.307.307,0,0,0-.12.6Z" transform="translate(-388.052 -438.073)" fill="#b76317" opacity="0.2" style="mix-blend-mode: multiply;isolation: isolate"/>
          <path id="Trazado_42184" data-name="Trazado 42184" d="M402.534,441.3a.307.307,0,1,0,.123-.6.307.307,0,0,0-.123.6Z" transform="translate(-391.143 -440.035)" fill="#b76317" opacity="0.2" style="mix-blend-mode: multiply;isolation: isolate"/>
          <path id="Trazado_42185" data-name="Trazado 42185" d="M405.758,441.009a.307.307,0,0,0,.12-.6.307.307,0,0,0-.12.6Z" transform="translate(-401.68 -440.401)" fill="#b76317" opacity="0.2" style="mix-blend-mode: multiply;isolation: isolate"/>
          <path id="Trazado_42186" data-name="Trazado 42186" d="M404.015,441.819a.306.306,0,1,0-.241-.361A.3.3,0,0,0,404.015,441.819Z" transform="translate(-395.979 -439.37)" fill="#b76317" opacity="0.2" style="mix-blend-mode: multiply;isolation: isolate"/>
          <path id="Trazado_42187" data-name="Trazado 42187" d="M398.656,443.359a.308.308,0,0,0,.361-.241.307.307,0,0,0-.6-.123A.31.31,0,0,0,398.656,443.359Z" transform="translate(-378.457 -437.416)" fill="#b76317" opacity="0.2" style="mix-blend-mode: multiply;isolation: isolate"/>
          <path id="Trazado_42188" data-name="Trazado 42188" d="M397.594,442.36a.307.307,0,1,0-.241-.361A.309.309,0,0,0,397.594,442.36Z" transform="translate(-374.981 -438.685)" fill="#b76317" opacity="0.2" style="mix-blend-mode: multiply;isolation: isolate"/>
        </g>
        <path id="Trazado_42189" data-name="Trazado 42189" d="M422.065,449.219,395.45,443.87l.751-3.73,26.613,5.351s2.577.606,4.009-1.09a3.915,3.915,0,0,1,.061,1.957C426.116,450.184,422.065,449.219,422.065,449.219Z" transform="translate(-387.363 -435.165)" fill="#4f2b1c" opacity="0.2" style="mix-blend-mode: multiply;isolation: isolate"/>
        <path id="Trazado_42190" data-name="Trazado 42190" d="M412.174,448.251l2.045-10.174-4.2-.128-1.768,8.8Z" transform="translate(-403.662 -437.949)" fill="#dbdbe4"/>
        <path id="Trazado_42191" data-name="Trazado 42191" d="M411.621,447.5l1.875-9.326-3.418-.03-1.621,8.063Z" transform="translate(-403.41 -437.7)" fill="#cad4ed" opacity="0.7"/>
        <path id="Trazado_42192" data-name="Trazado 42192" d="M412.174,448.252l2.043-10.176-.74-.02-1.585,7.883s-1.878-.536-2.6-.679c1.015-5.81.72-7.311.72-7.311l-1.766,8.8Z" transform="translate(-403.661 -437.949)" fill="#3a3a6b" opacity="0.2" style="mix-blend-mode: multiply;isolation: isolate"/>
        <path id="Trazado_42193" data-name="Trazado 42193" d="M409.99,438.219a6.716,6.716,0,0,1,1.823,0h0c.161.034.091.279.055.456a23.946,23.946,0,0,1-2.634,6.316A46.405,46.405,0,0,0,409.99,438.219Z" transform="translate(-403.602 -437.683)" fill="#fdfdff"/>
        <path id="Trazado_42194" data-name="Trazado 42194" d="M419.293,444.575s1.564.3,1.673-.236-1.458-.826-1.458-.826l-21.357-4.293-.213,1.063Z" transform="translate(-387.004 -436.335)" fill="#fdfdff" opacity="0.7"/>
        <path id="Trazado_42195" data-name="Trazado 42195" d="M418.188,446.067a3.11,3.11,0,0,0,.763.084c.316-.025-.708-.363-.708-.363l-19.716-3.962s-1.008-.17-1.008.077c.359.073.951.2.951.2Z" transform="translate(-384.092 -433.096)" fill="#fdfdff" opacity="0.3"/>
        <g id="Grupo_16531" data-name="Grupo 16531" transform="translate(0 6.335)">
          <path id="Trazado_42196" data-name="Trazado 42196" d="M415.743,440.739l-.363,1.807s-3.094,2.808-3.746,23.369l-.765.084S409.122,443,415.743,440.739Z" transform="translate(-410.66 -440.739)" fill="#ffbc66"/>
          <path id="Trazado_42197" data-name="Trazado 42197" d="M415.03,441.053l-.218,1.094s-3.094,2.867-3.746,23.369l-.334.036S410.333,443.864,415.03,441.053Z" transform="translate(-410.093 -440.34)" fill="#b76317" opacity="0.2" style="mix-blend-mode: multiply;isolation: isolate"/>
        </g>
      </g>
      <path id="Trazado_42198" data-name="Trazado 42198" d="M467.729,535.213c-15.679,7.113-36.657,11.447-58.2,0-1.056-15-1.714-31.345-2.121-46.645l57.1-40.033C467.729,483.846,467.729,535.213,467.729,535.213Z" transform="translate(-387.571 -361.797)" fill="#89cece"/>
      <path id="Trazado_42199" data-name="Trazado 42199" d="M448.9,469.428c.645,21.659.645,39.243.645,39.243s0,.216-.023.574c-.347,8.664-4.261,116.4,12.71,173.363h-8.748c-6.941-16.6-23.712-52.219-25.526-60.837s8.859-24.046,7.926-26.917-14.605-51.71-14.605-51.71-13.114,86.515-13.792,140.384H401.82C403.477,536.51,412.625,482.453,448.9,469.428Z" transform="translate(-369.389 -335.255)" fill="#afedf2" opacity="0.6"/>
      <g id="Grupo_16533" data-name="Grupo 16533" transform="translate(16.282 123.427)">
        <path id="Trazado_42200" data-name="Trazado 42200" d="M437.274,598.258c.795-4.423-7.37-63.918-4.193-83.574-1.056-15-1.714-31.345-2.121-46.645l4.77-3.344c.413,15.159,1.049,36.019,2.032,49.989-3.174,19.657,4.988,79.152,4.2,83.574s-9.64,17.35-9.867,25.29,10.16,47.06,13.788,65.993H441.2c-3.628-18.933-14.015-58.056-13.788-65.993S436.48,602.681,437.274,598.258Z" transform="translate(-427.406 -464.695)" fill="#77b7b6"/>
      </g>
      <g id="Grupo_16535" data-name="Grupo 16535" transform="translate(80.239 60.005)">
        <path id="Trazado_42201" data-name="Trazado 42201" d="M396.728,438.185a21.393,21.393,0,0,1,20.39,2.749s-.836,2.407-2.94,2.513c0,0-1.131,2.373-3.008,3S396.728,438.185,396.728,438.185Z" transform="translate(-392.952 -436.76)" fill="#2e80a0"/>
        <g id="Grupo_16534" data-name="Grupo 16534" transform="translate(0 0.867)">
          <path id="Trazado_42202" data-name="Trazado 42202" d="M410.622,439.551s5.183,4.491,3.912,6.518c-.534.851-4.291-.1-8.144-1.762C392.33,438.572,402.149,434.234,410.622,439.551Z" transform="translate(-396.434 -437.142)" fill="#3d95c1"/>
          <path id="Trazado_42203" data-name="Trazado 42203" d="M407.5,437.822s-4.019,10.21-2.613,10.846,6.021-8.711,6.021-8.711Z" transform="translate(-404.589 -436.278)" fill="#3d95c1"/>
          <path id="Trazado_42204" data-name="Trazado 42204" d="M407.05,439.395s-5.558,9.806-3.95,10.637,7.547-9.352,7.547-9.352Z" transform="translate(-400.284 -434.28)" fill="#3d95c1"/>
          <path id="Trazado_42205" data-name="Trazado 42205" d="M403.794,440.113s-3.894,9.013-2.286,9.842,5.678-8.909,5.678-8.909Z" transform="translate(-392.989 -433.368)" fill="#3d95c1"/>
          <path id="Trazado_42206" data-name="Trazado 42206" d="M402.022,440.731s-3.891,7.245-2.286,8.076,4.745-7.4,4.745-7.4Z" transform="translate(-386.263 -432.583)" fill="#3d95c1"/>
        </g>
      </g>
      <g id="Grupo_16540" data-name="Grupo 16540" transform="translate(51.895 83.423)">
        <path id="Trazado_42207" data-name="Trazado 42207" d="M408.542,472.234a74.61,74.61,0,0,1,9.1-8.466l1.585-14.274h.679l-1.335,14.987a59.578,59.578,0,0,0-9.154,8.178c-4.425,4.9,7.563,20.485,7.563,20.485h9.038s11.987-15.582,7.563-20.485a95.807,95.807,0,0,0-8.9-8.609l-1.526-14.505h.7l1.505,13.577s4.352,3.921,9.1,9.113-8.11,21.689-8.11,21.689h-9.692S403.794,477.426,408.542,472.234Z" transform="translate(-407.428 -444.002)" fill="#fff"/>
        <path id="Trazado_42208" data-name="Trazado 42208" d="M408.887,475.391a59.578,59.578,0,0,1,9.154-8.178l1.335-15.25-2.893-.1-.688-4.516h10.346l-1.128,4.829-2.457-.091,1.591,14.7a95.811,95.811,0,0,1,8.9,8.609c4.425,4.9-7.563,20.485-7.563,20.485h-9.038S404.462,480.3,408.887,475.391Z" transform="translate(-406.899 -446.735)" fill="#cad4ed" opacity="0.7"/>
        <g id="Grupo_16536" data-name="Grupo 16536" transform="translate(7.591)">
          <path id="Trazado_42209" data-name="Trazado 42209" d="M423.763,447.075l-1.414,6.046-10.678-.393-.865-5.653ZM412.8,452.2l8.53.313,1.128-4.829H412.111Z" transform="translate(-410.806 -447.075)" fill="#fff"/>
        </g>
        <g id="Grupo_16537" data-name="Grupo 16537" transform="translate(1.007 26.888)">
          <path id="Trazado_42210" data-name="Trazado 42210" d="M433.05,460.687c4.425,4.9-7.563,20.485-7.563,20.485h-9.038s-11.988-15.582-7.563-20.485c.556-.618,1.117-1.208,1.671-1.769h20.849Q432.22,459.769,433.05,460.687Z" transform="translate(-407.906 -458.918)" fill="#ed7d28"/>
        </g>
        <path id="Trazado_42211" data-name="Trazado 42211" d="M420.707,469.2h-9.038a23.792,23.792,0,0,1,4.518-.856A23.787,23.787,0,0,1,420.707,469.2Z" transform="translate(-402.119 -420.057)" fill="#ff0f00" opacity="0.4" style="mix-blend-mode: multiply;isolation: isolate"/>
        <g id="Grupo_16538" data-name="Grupo 16538" transform="translate(2.869 26.888)">
          <path id="Trazado_42212" data-name="Trazado 42212" d="M409.512,458.918h20.849q.385.4.772.82H408.722C408.985,459.458,409.251,459.184,409.512,458.918Z" transform="translate(-408.722 -458.918)" fill="#ff774f"/>
        </g>
        <path id="Trazado_42213" data-name="Trazado 42213" d="M412.16,475.645a74.759,74.759,0,0,1,9.363-8.8l1.553-13.992-3.31-.12-.865-5.653h4l.661,4.513,7.154.372-.27,1.16-2.668-.1-2.62,1.308.222,13.343a52.441,52.441,0,0,0-5.14,8c-3.274,5.892,5.537,21.321,5.537,21.321h-5.242a77.552,77.552,0,0,1-6.475-10.1C411.738,482.416,410.3,477.761,412.16,475.645Z" transform="translate(-411.31 -447.075)" fill="#5b2816" opacity="0.2" style="mix-blend-mode: multiply;isolation: isolate"/>
        <path id="Trazado_42214" data-name="Trazado 42214" d="M417.19,447.768c.6.4-.057,2.724-.969,2.724a.633.633,0,0,1-.089-.007c-.917-.109-4.965-2.656-4.432-2.772C412.507,447.539,416.587,447.368,417.19,447.768Z" transform="translate(-398.797 -446.506)" fill="#fdfdff"/>
        <path id="Trazado_42215" data-name="Trazado 42215" d="M424.148,455.905a95.811,95.811,0,0,1,8.9,8.609c4.425,4.9-7.563,20.485-7.563,20.485h-9.038s-11.988-15.582-7.563-20.485a59.578,59.578,0,0,1,9.154-8.178,66.828,66.828,0,0,0-8.882,8.144c-4.325,4.8,7.44,20.286,7.44,20.286h8.693s11.81-15.491,7.485-20.286Z" transform="translate(-406.899 -435.858)" fill="#d37a4c" opacity="0.4" style="mix-blend-mode: multiply;isolation: isolate"/>
        <g id="Grupo_16539" data-name="Grupo 16539" transform="translate(5.005 30.355)">
          <path id="Trazado_42216" data-name="Trazado 42216" d="M414.194,461.078a.633.633,0,1,0,.633-.633A.634.634,0,0,0,414.194,461.078Z" transform="translate(-407.61 -460.445)" fill="#ff0f00" opacity="0.2" style="mix-blend-mode: multiply;isolation: isolate"/>
          <path id="Trazado_42217" data-name="Trazado 42217" d="M410.632,462.467a.633.633,0,1,0,.633-.633A.634.634,0,0,0,410.632,462.467Z" transform="translate(-395.961 -458.68)" fill="#ff0f00" opacity="0.2" style="mix-blend-mode: multiply;isolation: isolate"/>
          <path id="Trazado_42218" data-name="Trazado 42218" d="M414.194,463.894a.633.633,0,1,0,.633-.633A.634.634,0,0,0,414.194,463.894Z" transform="translate(-407.61 -456.868)" fill="#ff0f00" opacity="0.2" style="mix-blend-mode: multiply;isolation: isolate"/>
          <path id="Trazado_42219" data-name="Trazado 42219" d="M411.374,465.4a.633.633,0,1,0,.633-.633A.634.634,0,0,0,411.374,465.4Z" transform="translate(-398.388 -454.949)" fill="#ff0f00" opacity="0.2" style="mix-blend-mode: multiply;isolation: isolate"/>
          <path id="Trazado_42220" data-name="Trazado 42220" d="M413.381,467a.633.633,0,1,0,.633-.633A.634.634,0,0,0,413.381,467Z" transform="translate(-404.951 -452.921)" fill="#ff0f00" opacity="0.2" style="mix-blend-mode: multiply;isolation: isolate"/>
          <path id="Trazado_42221" data-name="Trazado 42221" d="M417.39,462.279a.3.3,0,1,0,.3-.3A.3.3,0,0,0,417.39,462.279Z" transform="translate(-417.39 -458.492)" fill="#ff0f00" opacity="0.2" style="mix-blend-mode: multiply;isolation: isolate"/>
          <path id="Trazado_42222" data-name="Trazado 42222" d="M408.935,462.279a.3.3,0,1,0,.3-.3A.3.3,0,0,0,408.935,462.279Z" transform="translate(-389.741 -458.492)" fill="#ff0f00" opacity="0.2" style="mix-blend-mode: multiply;isolation: isolate"/>
          <path id="Trazado_42223" data-name="Trazado 42223" d="M412.625,462.821a.3.3,0,1,0,.3-.3A.3.3,0,0,0,412.625,462.821Z" transform="translate(-401.807 -457.804)" fill="#ff0f00" opacity="0.2" style="mix-blend-mode: multiply;isolation: isolate"/>
          <path id="Trazado_42224" data-name="Trazado 42224" d="M416.381,465.216a.3.3,0,1,0,.3-.3A.3.3,0,0,0,416.381,465.216Z" transform="translate(-414.093 -454.761)" fill="#ff0f00" opacity="0.2" style="mix-blend-mode: multiply;isolation: isolate"/>
          <path id="Trazado_42225" data-name="Trazado 42225" d="M411.747,466.815a.3.3,0,1,0,.3-.3A.3.3,0,0,0,411.747,466.815Z" transform="translate(-398.935 -452.734)" fill="#ff0f00" opacity="0.2" style="mix-blend-mode: multiply;isolation: isolate"/>
        </g>
        <path id="Trazado_42226" data-name="Trazado 42226" d="M408.651,456.374s8.3,6.968,8.861,9.243-.066,7.038-6.868,17.007h-1.993S414.668,467.683,408.651,456.374Z" transform="translate(-392.233 -435.262)" fill="#fdfdff" opacity="0.5"/>
      </g>
      <path id="Trazado_42227" data-name="Trazado 42227" d="M425.112,488.438s21.2,3.546,45.391-32.523l-2.572-2.647s-17.153,11.184-24.025,14.437C425.779,474.008,407.525,487.339,425.112,488.438Z" transform="translate(-414.338 -355.785)" fill="#f4aa67"/>
      <path id="Trazado_42228" data-name="Trazado 42228" d="M428,491.839s19.482,3.174,42.529-32.652l-4.386-4.361c-5.631,3.569-15.068,8.58-19.432,10.646C428.579,471.773,407.587,488.833,428,491.839Z" transform="translate(-418.061 -353.807)" fill="#afedf2"/>
      <g id="Grupo_16541" data-name="Grupo 16541" transform="translate(53.593 89.312)">
        <path id="Trazado_42229" data-name="Trazado 42229" d="M409.687,449.738s6.906,3.2,6.949,5.167-6.949-1.739-6.949-1.739Z" transform="translate(-395.245 -449.581)" fill="#2e80a0"/>
        <path id="Trazado_42230" data-name="Trazado 42230" d="M409.518,451.548s7.583,2.5,7.326,4.309-7.326-1.058-7.326-1.058Z" transform="translate(-395.076 -447.281)" fill="#2e80a0"/>
        <path id="Trazado_42231" data-name="Trazado 42231" d="M410.867,453.268s6.209,1.753,6.035,3.535-6.813-1.09-6.813-1.09Z" transform="translate(-396.425 -445.096)" fill="#2e80a0"/>
        <path id="Trazado_42232" data-name="Trazado 42232" d="M411.962,454.945s3.953,1.117,3.308,2.18-4.441.3-4.441.3Z" transform="translate(-396.541 -442.966)" fill="#2e80a0"/>
        <path id="Trazado_42233" data-name="Trazado 42233" d="M411.771,457.84s12.117-10.548,14.81-7.676,2.388,13.359-.522,13.963-12.392-2.643-12.392-2.643Z" transform="translate(-411.771 -449.669)" fill="#3d95c1"/>
      </g>
      <g id="Grupo_16542" data-name="Grupo 16542" transform="translate(51.906 206.847)">
        <path id="Trazado_42234" data-name="Trazado 42234" d="M417.674,554.19c-.922-2.84-14.292-50.588-14.592-51.66l.1,0a18.616,18.616,0,0,0,6.868-1.1c4.007,15.852,12.791,50.541,13.509,52.752.931,2.872-9.742,18.3-7.928,26.917s18.587,44.24,25.528,60.837h-5.883c-6.941-16.6-23.712-52.219-25.526-60.837S418.607,557.062,417.674,554.19Z" transform="translate(-403.082 -501.438)" fill="#77b7b6"/>
      </g>
      <g id="Grupo_16543" data-name="Grupo 16543" transform="translate(40.786 23.358)" opacity="0.3">
        <path id="Trazado_42235" data-name="Trazado 42235" d="M417.646,420.619l5.633,7.106a4.29,4.29,0,0,1-3.26,3.022l-.111.014-7.549-9.529Z" transform="translate(-395.144 -420.619)" fill="#fff"/>
        <path id="Trazado_42236" data-name="Trazado 42236" d="M418.281,421.039l7.549,9.526-2.94.343a1.763,1.763,0,0,1-.241-.011l-1.9-2.4-.874-2.2a1.177,1.177,0,0,0-1.208-.829l-.288.034-3.249-4.1Z" transform="translate(-403.982 -420.085)" fill="#fff"/>
        <path id="Trazado_42237" data-name="Trazado 42237" d="M420.141,422.1l5.36-.624,5.735,7.238-.581,1.6a2.029,2.029,0,0,1-1.5,1.144l-2.236.261-7.274-9.181A.666.666,0,0,1,420.141,422.1Z" transform="translate(-419.644 -419.537)" fill="#fff"/>
      </g>
      <path id="Trazado_42238" data-name="Trazado 42238" d="M426.258,503.934c-7.54,0-13.207-3.98-9.184-3.512,4.877.565,12.305.9,16.726,0C437.392,499.686,435.446,503.934,426.258,503.934Z" transform="translate(-374.255 -295.991)" fill="#77b7b6"/>
    </g>
  </g>
</svg>
