<svg xmlns="http://www.w3.org/2000/svg" width="209.669" height="209.669" viewBox="0 0 209.669 209.669">
  <g id="Grupo_16607" data-name="Grupo 16607" transform="translate(-7456.133 -3073.797)">
    <rect id="Rectángulo_4652" data-name="Rectángulo 4652" width="148.258" height="148.258" rx="12.774" transform="translate(7560.967 3073.798) rotate(45)" fill="#d82c2a"/>
    <rect id="Rectángulo_4653" data-name="Rectángulo 4653" width="130.838" height="130.838" rx="12.774" transform="translate(7560.693 3085.842) rotate(45)" fill="#fff"/>
    <g id="Grupo_16606" data-name="Grupo 16606">
      <rect id="Rectángulo_4654" data-name="Rectángulo 4654" width="50.689" height="3.815" transform="translate(7534.389 3224.946)"/>
      <path id="Trazado_42337" data-name="Trazado 42337" d="M7572,3221.811c20.2-13.791,25.4-22.148,26.436-47.961.275-6.819-2.429,5.745-7.9,9.808,3.451-12.583,4.1-16.693-4.224-27.8.616,6.972-.125,9.418-4.77,14.99-1.422-14.243-.834-20.511-10.219-31.884.25,6.384,1.138,8.512-1.839,14.579-2.052-9.9-7.04-16.277-9.977-25.311-2.407-7.4-1.805-11.577.916-18.7a101.906,101.906,0,0,0-5.342,8.841,27.105,27.105,0,0,0-2.453,7.654c-1.33,7.951,1.87,14.286-1.333,22.613-6.075-5.36-8.992-6.546-16.9-6.951,6.88,11.978,7.984,13.005,6.542,25.753-5.461-4.276-7.994-6.4-15.261-6.4,5.039,8.087,8.358,11.5,7.357,21.665-6.884-2.967-13.972-5.579-20.985-8.243,8.425,7.126,10.859,9.623,14.4,20.687,1.75,5.465,3.23,10.577,9.194,17.811a45.422,45.422,0,0,0,9.518,8.579Q7558.58,3221.678,7572,3221.811Z" fill-rule="evenodd"/>
      <path id="Trazado_42338" data-name="Trazado 42338" d="M7561.369,3221.7c3.347-4.056,8.307-7.555,10.117-12.257,1.842-4.785,1.16-10.183.373-16.128q-1.426,2.86-2.859,5.726c-.2-7.268.222-8.853-4.632-13.9q-.138,2.387-.275,4.77c-1.917-6.581-4.719-9.405-4.836-16.967-2.522,5.5-3.191,11.9-3.34,18.057-2.736-3.569-3.373-5.691-8.174-5.451,3.314,5.446,3.57,7.051,2.18,13.492-1.546-1.936-3.879-5.459-6.676-5.111,1.883,12.7,5.009,18.011,12.536,27.712Z" fill="#fff" fill-rule="evenodd"/>
    </g>
  </g>
</svg>
