<svg xmlns="http://www.w3.org/2000/svg" width="90.581" height="397.758" viewBox="0 0 90.581 397.758">
  <g id="Grupo_16600" data-name="Grupo 16600" transform="translate(-7177.161 -2548.333)">
    <rect id="Rectángulo_4642" data-name="Rectángulo 4642" width="90.581" height="397.758" transform="translate(7177.161 2548.333)" fill="#e4edf4"/>
    <g id="Grupo_16599" data-name="Grupo 16599">
      <rect id="Rectángulo_4643" data-name="Rectángulo 4643" width="58.645" height="75.484" transform="translate(7192.161 2581.599)" fill="none" stroke="#cce0ed" stroke-miterlimit="10" stroke-width="3"/>
      <rect id="Rectángulo_4644" data-name="Rectángulo 4644" width="58.645" height="75.484" transform="translate(7192.161 2666.374)" fill="none" stroke="#cce0ed" stroke-miterlimit="10" stroke-width="3"/>
      <rect id="Rectángulo_4645" data-name="Rectángulo 4645" width="58.645" height="75.484" transform="translate(7192.161 2751.148)" fill="none" stroke="#cce0ed" stroke-miterlimit="10" stroke-width="3"/>
      <rect id="Rectángulo_4646" data-name="Rectángulo 4646" width="58.645" height="75.484" transform="translate(7192.161 2835.922)" fill="none" stroke="#cce0ed" stroke-miterlimit="10" stroke-width="3"/>
      <path id="Trazado_42319" data-name="Trazado 42319" d="M7218.419,2612.237,7210.3,2596.7a26.211,26.211,0,0,1,22.846,0l-8.122,15.532a8.627,8.627,0,0,0-6.6,0Zm-5.289,9.17-17.507.732a26.148,26.148,0,0,0,11.413,19.783l9.394-14.805A8.666,8.666,0,0,1,7213.13,2621.407Zm13.88,5.71,9.394,14.805a26.148,26.148,0,0,0,11.413-19.783l-17.507-.732A8.666,8.666,0,0,1,7227.01,2627.117Zm-5.29-13.007a6.146,6.146,0,1,0,6.146,6.146A6.146,6.146,0,0,0,7221.72,2614.11Z"/>
      <path id="Trazado_42320" data-name="Trazado 42320" d="M7223.063,2708.5c-.137-.446-1.258-6.732-.541-8.693.592-1.618,4.094-8.025,6.178-9.953a69.894,69.894,0,0,1,8.936-5.5l4.023-5.751,4.986,7.046-2.667,3.831a12.04,12.04,0,0,1-1.218,4.845c-1.237,2.147-2.919,3.98-4.161,6.19a48.222,48.222,0,0,0-2.229,4.491,1.133,1.133,0,0,1-1.679.645c-.811-.511-1.35-2.6-.785-4.7s1.966-4.216,1.575-4.77c-.531-.75-2.809-.167-3.947.261-1.463.55-4.152,3.473-5.325,5.038-.737.983-.88,6.3-.88,6.3C7225.441,2709.722,7223.545,2710.076,7223.063,2708.5Zm-1.2-.479v2.931l-1.722.781a11.213,11.213,0,0,1-.384,1.41l1.1,1.544-.733,1.269-.733,1.27-1.894-.186a11.538,11.538,0,0,1-1.025,1.025l.186,1.894-1.27.733-1.269.733-1.544-1.1a11.216,11.216,0,0,1-1.41.384l-.781,1.722h-2.931l-.781-1.722a11.254,11.254,0,0,1-1.41-.384l-1.544,1.1-1.269-.733-1.269-.733.185-1.894a11.334,11.334,0,0,1-1.024-1.025l-1.9.186-.733-1.27-.733-1.269,1.1-1.544a11.211,11.211,0,0,1-.384-1.41l-1.722-.781v-2.931l1.722-.781a11.257,11.257,0,0,1,.384-1.41l-1.1-1.543.733-1.27.733-1.269,1.9.185a11.289,11.289,0,0,1,1.024-1.024l-.185-1.9,1.269-.733,1.269-.733,1.544,1.1a11.254,11.254,0,0,1,1.41-.384l.781-1.721h2.931l.781,1.721a11.216,11.216,0,0,1,1.41.384l1.544-1.1,1.269.733,1.27.733-.186,1.9a11.492,11.492,0,0,1,1.025,1.024l1.894-.185.733,1.269.733,1.27-1.1,1.543a11.258,11.258,0,0,1,.384,1.41Zm-9.018,1.466a3.921,3.921,0,1,0-3.921,3.921A3.921,3.921,0,0,0,7212.845,2709.491Zm30.525,6.788v2.389l-1.4.636a8.987,8.987,0,0,1-.313,1.149l.9,1.257-.6,1.035-.6,1.034-1.543-.151a9.489,9.489,0,0,1-.835.835l.151,1.543-1.034.6-1.035.6-1.257-.9a9.443,9.443,0,0,1-1.149.313l-.636,1.4h-2.389l-.636-1.4a9.371,9.371,0,0,1-1.149-.313l-1.258.9-1.034-.6-1.035-.6.152-1.543a9.293,9.293,0,0,1-.835-.835l-1.544.151-.6-1.034-.6-1.035.9-1.257a9.234,9.234,0,0,1-.313-1.149l-1.4-.636v-2.389l1.4-.636a9.218,9.218,0,0,1,.313-1.15l-.9-1.257.6-1.034.6-1.035,1.544.152a9.17,9.17,0,0,1,.835-.835l-.152-1.544,1.035-.6,1.034-.6,1.258.9a9.158,9.158,0,0,1,1.149-.313l.636-1.4h2.389l.636,1.4a9.227,9.227,0,0,1,1.149.313l1.257-.9,1.035.6,1.034.6-.151,1.544a9.36,9.36,0,0,1,.835.835l1.543-.152.6,1.035.6,1.034-.9,1.257a8.972,8.972,0,0,1,.313,1.15Zm-7.348,1.194a3.2,3.2,0,1,0-3.195,3.2A3.2,3.2,0,0,0,7236.022,2717.473Z"/>
      <g id="Grupo_16597" data-name="Grupo 16597">
        <rect id="Rectángulo_4647" data-name="Rectángulo 4647" width="23.378" height="1.759" transform="translate(7211.605 2813.667)"/>
        <path id="Trazado_42321" data-name="Trazado 42321" d="M7237.5,2794.625c1.591-5.8,1.892-7.7-1.948-12.82.284,3.215-.058,4.344-2.2,6.913-.657-6.569-.385-9.459-4.714-14.705.115,2.944.525,3.926-.848,6.724-.946-4.564-3.247-7.507-4.6-11.674-1.111-3.411-.833-5.339.422-8.625a46.922,46.922,0,0,0-2.464,4.078,12.5,12.5,0,0,0-1.131,3.53c-.613,3.667.862,6.588-.615,10.429-2.8-2.472-4.147-3.019-7.794-3.206,3.174,5.525,3.683,6,3.018,11.878-2.519-1.972-3.687-2.954-7.039-2.954,2.324,3.73,3.855,5.3,3.393,9.993-3.175-1.369-6.444-2.574-9.678-3.8,3.886,3.286,5.008,4.438,6.641,9.541a21.137,21.137,0,0,0,8.629,12.171l6.884.07-1.98-.021c-3.472-4.474-4.913-6.923-5.782-12.781,1.29-.161,2.366,1.464,3.079,2.357.641-2.97.523-3.711-1-6.223,2.214-.11,2.508.869,3.77,2.514a21.329,21.329,0,0,1,1.54-8.327c.054,3.487,1.347,4.79,2.23,7.825q.064-1.1.127-2.2c2.239,2.328,2.043,3.059,2.137,6.411q.657-1.321,1.318-2.641c.363,2.742.678,5.232-.172,7.439-.834,2.168-3.122,3.782-4.666,5.653l4.9.049c9.316-6.36,11.713-10.215,12.193-22.12C7241.269,2786.956,7240.022,2792.751,7237.5,2794.625Z" fill-rule="evenodd"/>
      </g>
      <g id="Grupo_16598" data-name="Grupo 16598">
        <path id="Trazado_42322" data-name="Trazado 42322" d="M7222.606,2868.456a3.53,3.53,0,1,0-3.53-3.528A3.536,3.536,0,0,0,7222.606,2868.456Z" fill-rule="evenodd"/>
        <path id="Trazado_42323" data-name="Trazado 42323" d="M7219.761,2871.751h5.687l4.694,27h-15.073Z" fill-rule="evenodd"/>
        <path id="Trazado_42324" data-name="Trazado 42324" d="M7202.124,2864.928a20.4,20.4,0,0,1,4.648-13l-2.749-2.256a24.039,24.039,0,0,0,0,30.5l2.749-2.258A20.4,20.4,0,0,1,7202.124,2864.928Z" fill-rule="evenodd"/>
        <path id="Trazado_42325" data-name="Trazado 42325" d="M7208.862,2853.646a17.782,17.782,0,0,0,0,22.562l2.749-2.257a14.226,14.226,0,0,1,0-18.047Z" fill-rule="evenodd"/>
        <path id="Trazado_42326" data-name="Trazado 42326" d="M7213.883,2857.768a11.284,11.284,0,0,0,0,14.319l2.749-2.258a7.731,7.731,0,0,1,0-9.805Z" fill-rule="evenodd"/>
        <path id="Trazado_42327" data-name="Trazado 42327" d="M7228.579,2860.024a7.729,7.729,0,0,1,0,9.805l2.749,2.258a11.281,11.281,0,0,0,0-14.319Z" fill-rule="evenodd"/>
        <path id="Trazado_42328" data-name="Trazado 42328" d="M7233.6,2855.9a14.222,14.222,0,0,1,0,18.047l2.75,2.257a17.782,17.782,0,0,0,0-22.562Z" fill-rule="evenodd"/>
        <path id="Trazado_42329" data-name="Trazado 42329" d="M7238.438,2851.932a20.487,20.487,0,0,1,0,25.99l2.75,2.258a24.042,24.042,0,0,0,0-30.5Z" fill-rule="evenodd"/>
      </g>
    </g>
  </g>
</svg>
