<svg xmlns="http://www.w3.org/2000/svg" width="449.032" height="398.316" viewBox="0 0 449.032 398.316">
  <g id="Grupo_31354" data-name="Grupo 31354" transform="translate(-956.419 -10256)">
    <g id="Grupo_16596" data-name="Grupo 16596" transform="translate(-6325.258 7708.529)">
      <rect id="Rectángulo_4637" data-name="Rectángulo 4637" width="449.032" height="398.317" transform="translate(7281.677 2547.47)" fill="#e4edf4"/>
      <g id="Grupo_16594" data-name="Grupo 16594">
        <path id="Trazado_42304" data-name="Trazado 42304" d="M7380.115,2603.6l-2.3,5.112h4.6l-2.3-5.112Zm8.2,5.376h0l-1.667,5.387h-13.064l-1.667-5.387a14.956,14.956,0,0,1-5.782-11.881,14,14,0,1,1,27.962,0,14.956,14.956,0,0,1-5.782,11.881Zm-1.695-12.505h0a4.2,4.2,0,1,1-4.2,4.2,4.2,4.2,0,0,1,4.2-4.2Zm-13.007,0h0a4.2,4.2,0,1,1-4.2,4.2A4.2,4.2,0,0,1,7373.612,2596.47Z" fill-rule="evenodd"/>
        <path id="Trazado_42305" data-name="Trazado 42305" d="M7373.245,2615.755h13.74l1.821-3.381h1.248l-.676,6.015-4.954,6.361h-8.618l-4.955-6.361-.675-6.015h1.248Z" fill-rule="evenodd"/>
        <g id="Grupo_16592" data-name="Grupo 16592">
          <path id="Trazado_42306" data-name="Trazado 42306" d="M7369,2613.608l.036-4.072-5.244-3.458c-.348-.231-1.071-1.1-.859-1.462a5.779,5.779,0,1,0-2.7,4.087c.249-.331,1.328,0,1.674.226Z" fill-rule="evenodd"/>
          <path id="Trazado_42307" data-name="Trazado 42307" d="M7391.235,2613.608l-.037-4.072,5.243-3.458c.35-.231,1.073-1.1.859-1.462a5.782,5.782,0,1,1,2.7,4.087c-.251-.331-1.33,0-1.675.226Z" fill-rule="evenodd"/>
        </g>
        <g id="Grupo_16593" data-name="Grupo 16593">
          <path id="Trazado_42308" data-name="Trazado 42308" d="M7369,2615.807l.036,4.073-5.244,3.458c-.348.231-1.071,1.1-.859,1.462a5.775,5.775,0,1,1-2.7-4.089c.249.332,1.328,0,1.674-.224Z" fill-rule="evenodd"/>
          <path id="Trazado_42309" data-name="Trazado 42309" d="M7391.235,2615.807l-.037,4.073,5.243,3.458c.35.231,1.073,1.1.859,1.462a5.778,5.778,0,1,0,2.7-4.089c-.251.332-1.33,0-1.675-.224Z" fill-rule="evenodd"/>
        </g>
      </g>
      <g id="Grupo_16595" data-name="Grupo 16595">
        <rect id="Rectángulo_4638" data-name="Rectángulo 4638" width="22.329" height="1.68" transform="translate(7441.25 2630.506)"/>
        <path id="Trazado_42310" data-name="Trazado 42310" d="M7457.817,2629.125c8.9-6.075,11.187-9.757,11.645-21.128.121-3-1.07,2.531-3.481,4.321,1.52-5.543,1.807-7.353-1.861-12.244.271,3.071-.056,4.149-2.1,6.6-.627-6.274-.368-9.035-4.5-14.045.11,2.812.5,3.749-.81,6.422-.9-4.359-3.1-7.17-4.4-11.15-1.061-3.258-.795-5.1.4-8.238a45.245,45.245,0,0,0-2.353,3.9,11.932,11.932,0,0,0-1.08,3.372c-.586,3.5.823,6.292-.588,9.961-2.675-2.362-3.961-2.884-7.444-3.062,3.031,5.276,3.518,5.729,2.882,11.344-2.4-1.884-3.521-2.821-6.722-2.821,2.22,3.562,3.682,5.064,3.241,9.544-3.033-1.307-6.155-2.458-9.244-3.631,3.711,3.139,4.783,4.239,6.342,9.113a20.183,20.183,0,0,0,8.243,11.624Z" fill-rule="evenodd"/>
        <path id="Trazado_42311" data-name="Trazado 42311" d="M7453.135,2629.078c1.475-1.787,3.66-3.328,4.457-5.4.811-2.107.511-4.485.165-7.1q-.63,1.26-1.26,2.522c-.089-3.2.1-3.9-2.04-6.123q-.062,1.05-.122,2.1c-.844-2.9-2.078-4.143-2.13-7.474a20.394,20.394,0,0,0-1.471,7.954c-1.205-1.572-1.486-2.507-3.6-2.4,1.46,2.4,1.573,3.106.96,5.943-.68-.853-1.708-2.405-2.94-2.251.829,5.595,2.206,7.934,5.522,12.207Z" fill="#fff" fill-rule="evenodd"/>
      </g>
      <rect id="Rectángulo_4639" data-name="Rectángulo 4639" width="343.137" height="219.578" transform="translate(7330.303 2558.551)" fill="none" stroke="#cce0ed" stroke-miterlimit="10" stroke-width="3"/>
      <rect id="Rectángulo_4640" data-name="Rectángulo 4640" width="58.693" height="58.123" transform="translate(7350.058 2577.102)" fill="none" stroke="#cce0ed" stroke-miterlimit="10" stroke-width="3"/>
      <rect id="Rectángulo_4641" data-name="Rectángulo 4641" width="58.693" height="58.123" transform="translate(7420.717 2577.102)" fill="none" stroke="#cce0ed" stroke-miterlimit="10" stroke-width="3"/>
      <text id="T" transform="translate(7374.751 2573.854)" font-size="14.752" font-family="CerebriSans-Bold, Cerebri Sans" font-weight="700"><tspan x="0" y="0">T</tspan></text>
      <text id="Tóxico" transform="translate(7365.507 2646.311)" font-size="10.093" font-family="SegoeUI, Segoe UI"><tspan x="0" y="0">Tóxico</tspan></text>
      <text id="R_11-23_25:" data-name="R  11-23/25:" transform="translate(7351.578 2666.106)" font-size="11.042" font-family="CerebriSans-Bold, Cerebri Sans" font-weight="700"><tspan x="0" y="0" xml:space="preserve">R  11-23/25:</tspan></text>
      <text id="ABCDE-33" transform="translate(7572.675 2582.149)" font-size="11.042" font-family="CerebriSans-Bold, Cerebri Sans" font-weight="700"><tspan x="0" y="0">ABCDE-33</tspan></text>
      <text id="XXX._S.A." data-name="XXX. S.A." transform="translate(7572.675 2628.117)" font-size="11.042" font-family="CerebriSans-Bold, Cerebri Sans" font-weight="700"><tspan x="0" y="0">XXX. S.A.</tspan></text>
      <text id="S_7-16-24-45:" data-name="S 7-16-24-45:" transform="translate(7351.578 2699.536)" font-size="11.042" font-family="CerebriSans-Bold, Cerebri Sans" font-weight="700"><tspan x="0" y="0">S 7-16-24-45:</tspan></text>
      <text id="Identificación_de_peligros" data-name="Identificación de peligros" transform="translate(7339.421 2793.75)" font-size="11.042" font-family="CerebriSans-Bold, Cerebri Sans" font-weight="700"><tspan x="0" y="0">Identificación de peligros</tspan></text>
      <text id="Descripción_del_riesgo_Frases_R_" data-name="Descripción del riesgo (Frases R)" transform="translate(7339.421 2812.744)" font-size="11.042" font-family="CerebriSans-Bold, Cerebri Sans" font-weight="700"><tspan x="0" y="0">Descripción del riesgo (Frases R)</tspan></text>
      <text id="Medidas_preventivas_Frases_S_" data-name="Medidas preventivas (Frases S)" transform="translate(7339.421 2828.003)" font-size="11.042" font-family="CerebriSans-Bold, Cerebri Sans" font-weight="700"><tspan x="0" y="0">Medidas preventivas (Frases S)</tspan></text>
      <text id="Identificación_del_producto" data-name="Identificación del producto" transform="translate(7529.868 2835.221)" font-size="11.042" font-family="CerebriSans-Bold, Cerebri Sans" font-weight="700"><tspan x="0" y="0">Identificación del producto</tspan></text>
      <text id="_nombre_quimico_de_la_sustancia_o_nombre_comercial_del_preparado_" data-name="(nombre quimico de la sustancia o nombre comercial del preparado)" transform="translate(7336.626 2847.377)" font-size="11.042" font-family="SegoeUI, Segoe UI"><tspan x="0" y="0">(nombre quimico de la sustancia o nombre comercial del preparado)</tspan></text>
      <text id="_nombre_dirección_y_teléfono_" data-name="(nombre, dirección y teléfono)" transform="translate(7525.188 2914.618)" font-size="11.042" font-family="SegoeUI, Segoe UI"><tspan x="0" y="0">(nombre, dirección y teléfono)</tspan></text>
      <text id="Composición" transform="translate(7605 2861.813)" font-size="11.042" font-family="CerebriSans-Bold, Cerebri Sans" font-weight="700"><tspan x="0" y="0">Composición</tspan></text>
      <text id="Responsable_de_la_comercialización" data-name="Responsable de la comercialización" transform="translate(7486.789 2900.942)" font-size="11.042" font-family="CerebriSans-Bold, Cerebri Sans" font-weight="700"><tspan x="0" y="0">Responsable de la comercialización</tspan></text>
      <text id="Sustancia_autorizada" data-name="Sustancia autorizada" transform="translate(7565.345 2929.434)" font-size="11.042" font-family="CerebriSans-Bold, Cerebri Sans" font-weight="700"><tspan x="0" y="0">Sustancia autorizada</tspan></text>
      <text id="_para_los_preparados_relación_de_sustancias_peligrosas_presentes_según_la_concentración_y_toxicidad_" data-name="(para los preparados relación de sustancias peligrosas
presentes según la concentración y toxicidad)" transform="translate(7675.778 2873.97)" font-size="11.042" font-family="SegoeUI, Segoe UI"><tspan x="-261.604" y="0">(para los preparados relación de sustancias peligrosas</tspan><tspan x="-221.554" y="11.042">presentes según la concentración y toxicidad)</tspan></text>
      <text id="Tóxico_por_inhalación_y_por_ingestión" data-name="Tóxico por inhalación y por ingestión" transform="translate(7351.578 2681.681)" font-size="11.042" font-family="SegoeUI, Segoe UI"><tspan x="0" y="0">Tóxico por inhalación y por ingestión</tspan></text>
      <text id="Contiene..." transform="translate(7573.814 2595.826)" font-size="11.042" font-family="SegoeUI, Segoe UI"><tspan x="0" y="0">Contiene...</tspan></text>
      <text id="Av._Aby..._Tel..." data-name="Av. Aby...
Tel..." transform="translate(7573.814 2641.413)" font-size="11.042" font-family="SegoeUI, Segoe UI"><tspan x="0" y="0">Av. Aby...</tspan><tspan x="0" y="11.042">Tel...</tspan></text>
      <text id="No._Autorización" data-name="No. Autorización" transform="translate(7573.814 2679.782)" font-size="11.042" font-family="SegoeUI, Segoe UI"><tspan x="0" y="0">No. Autorización</tspan></text>
      <text id="Facilmente_inflamable" data-name="Facilmente
inflamable" transform="translate(7450.94 2646.311)" font-size="10.093" font-family="SegoeUI, Segoe UI"><tspan x="-23.826" y="0">Facilmente</tspan><tspan x="-23.19" y="10.093">inflamable</tspan></text>
      <text id="F" transform="translate(7447.69 2573.854)" font-size="14.752" font-family="CerebriSans-Bold, Cerebri Sans" font-weight="700"><tspan x="0" y="0">F</tspan></text>
      <text id="Manténgase_el_recipiente_bien_cerrado_Conservar_alejado_de_toda_llama_o_fuente_de_chispas._No_fumar_Evitese_el_contacto_con_la_piel_En_caso_de_accidente_o_malestar_acúdase_inmediatamente_al_médico_si_es_posible_muéstrele_la_etiqueta_" data-name="Manténgase el recipiente bien cerrado
Conservar alejado de toda llama o fuente de chispas. No fumar
Evitese el contacto con la piel
En caso de accidente o malestar, acúdase inmediatamente al
médico (si es posible, muéstrele la etiqueta)" transform="translate(7350.438 2701.078)" font-size="11.042" font-family="SegoeUI, Segoe UI"><tspan x="0" y="12">Manténgase el recipiente bien cerrado</tspan><tspan x="0" y="23.042">Conservar alejado de toda llama o fuente de chispas. No fumar</tspan><tspan x="0" y="34.084">Evitese el contacto con la piel</tspan><tspan x="0" y="45.126">En caso de accidente o malestar, acúdase inmediatamente al</tspan><tspan x="0" y="56.169">médico (si es posible, muéstrele la etiqueta)</tspan></text>
      <circle id="Elipse_1222" data-name="Elipse 1222" cx="4.369" cy="4.369" r="4.369" transform="translate(7335.622 2595.685)" fill="#d82c2a"/>
      <circle id="Elipse_1223" data-name="Elipse 1223" cx="4.369" cy="4.369" r="4.369" transform="translate(7335.622 2657.797)" fill="#d82c2a"/>
      <circle id="Elipse_1224" data-name="Elipse 1224" cx="4.369" cy="4.369" r="4.369" transform="translate(7335.622 2690.848)" fill="#d82c2a"/>
      <circle id="Elipse_1225" data-name="Elipse 1225" cx="4.369" cy="4.369" r="4.369" transform="translate(7635.451 2573.461)" fill="#d82c2a"/>
      <circle id="Elipse_1226" data-name="Elipse 1226" cx="4.369" cy="4.369" r="4.369" transform="translate(7635.451 2589.702)" fill="#d82c2a"/>
      <circle id="Elipse_1227" data-name="Elipse 1227" cx="4.369" cy="4.369" r="4.369" transform="translate(7635.451 2620.188)" fill="#d82c2a"/>
      <circle id="Elipse_1228" data-name="Elipse 1228" cx="4.369" cy="4.369" r="4.369" transform="translate(7661.664 2672.043)" fill="#d82c2a"/>
      <path id="Trazado_42312" data-name="Trazado 42312" d="M7338.376,2599.9h-20.514v191.18H7336.1" fill="none" stroke="#d82c2a" stroke-miterlimit="10" stroke-width="3"/>
      <path id="Trazado_42313" data-name="Trazado 42313" d="M7338.376,2662.578h-32.2v147.588h29.062" fill="none" stroke="#d82c2a" stroke-miterlimit="10" stroke-width="3"/>
      <path id="Trazado_42314" data-name="Trazado 42314" d="M7338.091,2695.343h-45.3v130.208H7334.1" fill="none" stroke="#d82c2a" stroke-miterlimit="10" stroke-width="3"/>
      <path id="Trazado_42315" data-name="Trazado 42315" d="M7640.675,2577.957h40.744v254.718" fill="none" stroke="#d82c2a" stroke-miterlimit="10" stroke-width="3"/>
      <path id="Trazado_42316" data-name="Trazado 42316" d="M7641.814,2594.482h50.431v264.975" fill="none" stroke="#d82c2a" stroke-miterlimit="10" stroke-width="3"/>
      <path id="Trazado_42317" data-name="Trazado 42317" d="M7640.96,2625.538h63.252v274.377h-21.654" fill="none" stroke="#d82c2a" stroke-miterlimit="10" stroke-width="3"/>
      <path id="Trazado_42318" data-name="Trazado 42318" d="M7667.457,2676.539h51.57v251.014h-38.749" fill="none" stroke="#d82c2a" stroke-miterlimit="10" stroke-width="3"/>
    </g>
  </g>
</svg>
