<svg xmlns="http://www.w3.org/2000/svg" width="393.97" height="427.469" viewBox="0 0 393.97 427.469">
  <g id="Grupo_15513" data-name="Grupo 15513" transform="translate(-2205.591 -326.932)">
    <g id="Grupo_15434" data-name="Grupo 15434" transform="translate(2205.591 395.317)">
      <g id="Grupo_15433" data-name="Grupo 15433">
        <g id="Grupo_15430" data-name="Grupo 15430" opacity="0.6">
          <g id="Grupo_15429" data-name="Grupo 15429">
            <path id="Trazado_40170" data-name="Trazado 40170" d="M2402.892,729.2s-31.514,8.237-60.734-20.333-49.459-6.259-88.989-20.68c-24.734-9.024-47.226-33.337-47.575-81.568s37.784-60.491,43.377-80.248c10.146-35.83-6.167-54.935,11.194-78.005,22.389-29.751,59.13-4.849,82.932-9.686,34.054-6.92,36.639-24.237,59.795-23.511" transform="translate(-2205.591 -407.053)" fill="#dceef7"/>
            <path id="Trazado_40171" data-name="Trazado 40171" d="M2347.82,434.225a54.112,54.112,0,0,0,22.81-2.721c12.432-4.218,21.134-10.884,20.915-18.64s-12.93-9.115-25.268-4.082-22.874,2.041-30.987,5.307S2328.714,434.089,2347.82,434.225Z" transform="translate(-2222.229 -405.811)" fill="#dceef7"/>
            <path id="Trazado_40172" data-name="Trazado 40172" d="M2321.626,746.375a42,42,0,0,1,19.676,6.394,62.409,62.409,0,0,1,15.292,13.576c3.988,5.021.1,16.757-15.292,6.832s-20.648-15.187-27.586-15.739S2307.363,745.585,2321.626,746.375Z" transform="translate(-2219.402 -451.116)" fill="#dceef7"/>
          </g>
        </g>
        <g id="Grupo_15432" data-name="Grupo 15432" transform="translate(196.669 5.388)" opacity="0.6">
          <g id="Grupo_15431" data-name="Grupo 15431">
            <path id="Trazado_40173" data-name="Trazado 40173" d="M2432.442,416.217s31.515-8.237,60.735,20.334,49.459,6.259,88.989,20.68c24.734,9.024,47.226,33.336,47.575,81.567s-37.784,60.492-43.377,80.249c-10.145,35.83,6.166,54.936-11.195,78.005-22.388,29.75-59.129,4.849-82.931,9.686-34.054,6.921-36.639,24.238-59.795,23.512" transform="translate(-2432.442 -412.437)" fill="#dceef7"/>
            <path id="Trazado_40174" data-name="Trazado 40174" d="M2508.446,755.153a54.113,54.113,0,0,0-22.81,2.721c-12.432,4.218-21.134,10.885-20.915,18.64s12.931,9.116,25.268,4.082,22.874-2.041,30.987-5.306S2527.552,755.289,2508.446,755.153Z" transform="translate(-2436.736 -457.642)" fill="#dceef7"/>
            <path id="Trazado_40175" data-name="Trazado 40175" d="M2536.518,442.692a42,42,0,0,1-19.675-6.393,62.426,62.426,0,0,1-15.292-13.576c-3.988-5.021-.1-16.758,15.292-6.832s20.647,15.186,27.586,15.739S2550.782,443.482,2536.518,442.692Z" transform="translate(-2441.442 -412.026)" fill="#dceef7"/>
          </g>
        </g>
      </g>
    </g>
    <g id="Grupo_15435" data-name="Grupo 15435" transform="translate(2258.093 328.02)">
      <path id="Trazado_40176" data-name="Trazado 40176" d="M2385.634,422.482a96.947,96.947,0,0,1,15.889,1.428c13.493,2.251,27.952,10.521,38.144,19.579,2.7,2.4,1.977,4.119,4.522,6.665,3.38,3.38,5.44,5.039,7.915,9.159a108.608,108.608,0,0,1,7.2,16.131c1.559,4.157,2.708,7.958,4.008,10.708,1.482,3.138,3.161,5.236,5.871,10.656,1.862,3.727,6,8.19,9.68,13.431s10.245,12.105,15.651,14.729c6.057,2.941,11.825,6.444,11.825,6.444a14.834,14.834,0,0,1,5.926,1.039c7.193,3.083,15.012,8.107,19.28,14.937,3.6,5.764,6.883,11.153,9.283,17.555,4.081,10.885,2.965,28.815,2.965,28.815s-7.626,17.509-9.33,22.123c-4.018,10.878-9.272,26.2-13.463,39.346-3.718,11.655-7.471,23.509-8.341,28.146-.718,3.835-6.878,17.493-7.041,21.409-.062,1.469.355,8.962.355,8.962s-6.333-1.564-6.9-1.564a62,62,0,0,0-18.706,2.559,70.352,70.352,0,0,1-13.243,2.043c-1.92.135-7.383-.335-7.383-.335a36.066,36.066,0,0,1,.5-6.545,109.184,109.184,0,0,1,4.837-15.647,105.8,105.8,0,0,0,5.477-17.355c2.731-11.01,4.616-33.179,6.96-41.382,2.264-7.929,5.713-17.972,5.713-17.972s-14.522,10.065-20.639,14.4-27.563,19.041-27.563,19.041,7.647,6.173,9.569,8.415c5.338,6.227,7.6,18.9,5.25,29.568a29.129,29.129,0,0,1-5,11.05c-3.523,4.656-6.41,6.221-11.192,7.907a66.973,66.973,0,0,1-14.38,3.608c-9.135,1.015-23.816,2.973-34.234,3.184s-31.3,1.725-41.3.476c-3.26-.407-13.257-3.541-16.958-3.274a32.776,32.776,0,0,0-9.209,1.908,13.281,13.281,0,0,1-7.515-.122c-3.593-1.541-10.412-7.853-12.844-12.378s-3.7-11.722-3.7-11.722-4.953-3.772-7.472-7.972c-3.559-5.933-5.085-8.69-5.085-8.69s-4.151-1.872-8.03-3.848c-3.169-1.612-6.153-3.024-6.549-5.793-1.136-7.96,2.244-13.04,2.946-20.767.888-9.765.519-18.6,1.2-27.354.577-7.394,2.133-16.6,3.232-24.833,1.847-13.853,4.3-36.192,6.723-49.927,3.129-17.728,5.84-40.1,14.937-55.7,4.881-8.37,6.733-11.582,12.675-19.221,5.64-7.251,13.752-13.213,21.244-18.209,5.9-3.936,19.108-10.155,25.032-14.1,2.664-1.776,13.511-7.689,13.511-7.689s.008-1.741,2.588-3.288c1.312-.787,2.06-1.892,3.723-1.278A32.477,32.477,0,0,0,2385.634,422.482Zm67.315,120.654s-11.782-12.989-11.89-12.772c-.234.47,2.723,35.325,3.194,35.562.173.086,22.126-5.949,22.129-5.946s-.884-3.155-.55-2.864c.4.347,3.918-2.845,3.522-3.191C2469.208,553.8,2452.948,543.136,2452.948,543.136Z" transform="translate(-2266.15 -340.503)" fill="#fff" fill-rule="evenodd"/>
      <path id="Trazado_40177" data-name="Trazado 40177" d="M2420.528,493.766c-2.73-.03-3.2-6.29-3.739-8.7-1.769-7.96-1.133-16.366-3.479-24.18-3.009-10.028-7.522-19.229-11.83-28.7-1.5-3.294-4.716-15.944-4.716-15.944l5.776-6.552s5.348-6.486,7.466-11.424c3.29-7.679,8.978-18.647,18.438-19.83a43.576,43.576,0,0,1,11.654.521c1.75.292,3.906.888,5.742.522,9.131-1.826,19.414-4.681,28.7-3.132,2.42.4,6.479,1.262,8.35,3.132,9.621,9.621,2.605,22.274-3.132,31.833-1.583,2.64-3.456,6.2-2.676,9.322.442,1.767,2.234,3.683,1.752,5.606-.554,2.217-4.136,2.236-5.7,3.8-1.964,1.964-3.425,2.76-6.4,7s-5.007,9.605-8.6,13.194c-1.2,1.2-5.006,1.456-8.62.345-4.6-1.415-9.076-4.441-9.474-4.043-2.846,2.847-4.1,8.394-6.152,11.816-.722,1.2-4.15,7.485-3.886,9.847a32.135,32.135,0,0,1-4,19.831C2424.594,490.384,2423.421,493.8,2420.528,493.766Z" transform="translate(-2283.527 -334.535)" fill="#deb490" fill-rule="evenodd"/>
      <path id="Trazado_40178" data-name="Trazado 40178" d="M2598.852,597.33c-5.68,2.919-10.843,6.682-16.361,9.85-4.975,2.855-9.546,5.349-13.854,9.135-1.445,1.27-6.884,3.73-6.467,6.272a2.571,2.571,0,0,0,1.693,1.579c1.051.209,2.871-.629,4.323-.589,1.307.036,3.126.686,4.025.274a21.48,21.48,0,0,0,3.388-2.968s3,.048,4.45-.8c2.62-1.534,3.024-2.538,3.024-2.538l4.183-3.275,4.574-4.376s3.606-1.014,5.045-2.445c1.74-1.731,4.271-6.008,4.356-8.493A1.611,1.611,0,0,0,2598.852,597.33Z" transform="translate(-2305.531 -363.965)" fill="#deb490" fill-rule="evenodd"/>
      <path id="Trazado_40179" data-name="Trazado 40179" d="M2581.616,516.73l30.954,52.094.245,3.158-87.031,54.9-2.074-1.6-27.359-55.724Z" transform="translate(-2296.777 -353.271)" fill="#c6ccd3" fill-rule="evenodd"/>
      <path id="Trazado_40180" data-name="Trazado 40180" d="M2390.113,421.652s1.573,6.048,2.3,8.594c1.959,6.863,6.037,20.386,7.307,27.5a197.159,197.159,0,0,1,2.993,25.437,267.826,267.826,0,0,1-.874,41.841c-.453,5-3.146,29.312-3.146,29.312s1.375,4.062,2.76,7.661c2.466,6.405,5.137,13.984,5.282,14.7.6,3,3.066,10.415,3.066,10.415l5.524-.727s.153-3.325.276-4.06a91.226,91.226,0,0,1,4.178-13.977c1.324-3.334,4.507-10.1,5.273-11.633,2.348-4.7,3.533-5.653,6.518-11.561,1.934-3.826,8.112-14.8,8.112-14.8s-1.038-9.15-1.493-13.5-.926-13.2-1.1-18.3c-.194-5.579.08-25.208.08-25.208l2.3-1.236s4.138,5.067,4.534,4.77c.979-.735.238-2.628.589-3.681a18.2,18.2,0,0,0,.767-9.791,64.767,64.767,0,0,0-3.239-10.377l-3.005-1.59s-3.946,4.924-5.435,6.415c-1.411,1.411-5.968,7.16-5.968,7.16s-5.087,4.956-4.859,6.549c-1.677,2.014-4.974,2.283-5.956,6.209-.66,2.639,2.305,3.611.838,5.957-.3.485,5.42,10.4,5.42,10.4s-3.186-5.631-3.627-6.954c-1.27-3.809-2.744-7.254-3.41-11.252-.409-2.46.172-5.236.172-7.673,0-5.821-3.742-9.193-6.821-13.811-4.786-7.178-7.752-14.439-10.911-22.335-1.118-2.8-2.677-7.538-1.9-10.646.246-.982,2.3-3.239,2.3-3.239s-1.75-2.066-3.664-1.3C2394.089,417.423,2390.113,421.652,2390.113,421.652Z" transform="translate(-2282.642 -339.972)" fill="#fff" fill-rule="evenodd"/>
      <path id="Trazado_40181" data-name="Trazado 40181" d="M2401.864,402.562c-.394-.5-.968-2.091-1.562-2.371-1.053-.5-2.117-.269-2.921-1.173-.84-.947.989-1.838-.4-3.193s-.732-3.07-1.036-4.289c-.354-1.423-2.127-1.963-2.322-3.713-.188-1.708,1.145-2.486,1.51-3.945.207-.836-.615-2-.348-2.669.183-.458.493-.638.581-1.16.115-.687-1.789-1.181-1.626-2.322a35.9,35.9,0,0,1,1.51-4.874c.293-1.026-1.112-1.061-.929-1.973.278-1.388,1.221-1.163,1.221-2.658,0-1.558-1.337-3.014-1.055-4.7.167-1.015,1.84-2.9,2.04-3.9.242-1.211-.221-2.695.348-3.829.836-1.672,2.569-2.468,3.365-4.062.514-1.028.468-3.369,1.391-4.062.642-.482,1.541.264,2.206,0,1.28-.512,1.047-3,2.088-3.829.4-.32,2.069-.145,2.206-.349.662-1,.634-2.142,1.624-3.135.6-.6,1.429-.171,2.005-.556s.267-2.354,1.556-3,1.944,1.186,2.728.6c.907-.68.619-1.528,1.6-2.265.832-.625,2.211-.469,3.132-.929.546-.272.733-1.025,1.276-1.16.517-.129,1.287.388,1.74.116,1.386-.832,1.964-3.387,3.6-3.713,1.573-.316,2.723,1.579,3.907,1.281,1.356-.339.924-.384,2.042-1.111s1.9-1.711,3.292-1.362c.889.221,1.654.942,3.118,1.308.581.145,3.269-1.512,3.847-1.367.886.221.2,2.165,1.149,2.356.731.147,1.23-.842,2.087-1.184.8-.32,2.241,2.109,3.283,2.456.584.2,2.5-1.986,3.189-1.47.474.359.223,1.579.576,1.579.937,0,.983-1.45,2.274-.805.773.387.807,1.628,1.814,1.88.866.218,1.547-1.463,2.609-1.007,1.039.446.238,3.209,2.744,1.339.547-.407,1.62,1.6,2.55,2.154.77.462,2.586-.861,3.411-.242a4.467,4.467,0,0,1,1.392,2.669c.1.537-.366,1.84,0,2.2,1.162,1.162,3.666-1.333,4.673-.577.8.6.366,2.3,1.3,3,.729.546,1.8-.887,2.677-.006.541.541.5,1.887,1.16,2.219,1.215.608,2.3-.826,3.379.614.706.942-.192,2.926.043,3.281.619.928,3.068-1.118,3.885.516.465.929-.29,1.962-.089,2.763.234.937,2.5,1.743,2.875,2.5.694,1.388-.146,1.894.288,3.193.533,1.6,4.305,1.7,4.644,3.395.318,1.594-2.077,2.472-1.741,3.482.332.994,1.86.857,2.438,1.626.621.827-.3,1.362-.116,2.089.213.855,1.624.8,1.624,1.972,0,.848-.879,1.838-.464,2.668.559,1.117,2.4,1.441,2.9,2.437.609,1.221-2.091,2.323-2.322,3.365-.116.52,1.26,1.784,1.255,2.357-.008.922-1.381,1.166-1.708,1.984-.194.487.371,2.055-.006,2.629-.594.91-1.257.469-1.474,1.339a2.676,2.676,0,0,1,.425,1.9c-.343,1.541-2.852,1.251-3.483,2.089-.564.753.078,1.768-.927,2.438-.646.43-1.346-.595-2.1-.215-.379.188-.159.961-.974,1.293s-.775-.864-1.42-.748a8.808,8.808,0,0,0-2.04,1.032s1.733-4.783,1.9-5.19c.511-1.278.839-7.9.839-7.9a4.451,4.451,0,0,1-2.348-.344c-.457-.343.206-1.372-.348-1.741-1.235-.824-2.231,1.312-3.481.813-.584-.234-.811-2.236-1.624-1.626-.272.2-.844,1.48-1.278,1.394-.592-.12-1.186-1.561-1.857-1.394-1.305.328-.659,2.112-2.437,1.857-1-.143-2.355-2.344-3.365-1.741-1.09.654-.981,2.16-1.625,3.018-.548.732-3.565-.755-4.294-.464-1.019.407-.807,2.315-1.508,3.018-1.2,1.2-3.1-.558-4.41.231-1.059.635-1.891,3.107-3.019,3.483-1.049.348-1.359-.853-2.209-.681-.9.179-1.2,1.051-1.853,1.377-.792.4-2.405-1.16-3.365-1.16-.684,0-.594,1.044-1.392,1.044-1.032,0-1.971-1.044-3.136-1.391-1.042-.31-2.317.092-3.13-.234-.95-.379-1.3.145-2.222-.518-2.083-1.488-1.524-4.262-4.523-4.763-6.8-1.132-9.447,3.99-9.841,8.645a21.708,21.708,0,0,0,.872,8.236,4.583,4.583,0,0,0-2.586,1.493c-.74,1.127-2.7-.264-3.171.438a13.124,13.124,0,0,1-2.435,2.832c-1.27.635-.789-.914-1.857-.914-.649,0-1.423,1.548-2.362,1.548-.737,0-1.831-1.76-2.559-1.432s-1.441,1.509-2.159,1.611c-1.853.264-1.651-1.428-3.235-1.78C2404.093,402.242,2402.607,403.5,2401.864,402.562Z" transform="translate(-2283.107 -328.187)" fill="#a98773" fill-rule="evenodd"/>
      <path id="Trazado_40182" data-name="Trazado 40182" d="M2500.566,564.549s4.407-.153,13.565-3.643a160.233,160.233,0,0,0,17.821-8.4c19.826-10.716,47.3-30.252,47.3-30.252l27.684,44.269s-27.391,19.361-48.124,31.77-34.807,17.871-34.807,17.871l-15.74-30.838s-3.574-6.984-5.5-12.179A35.934,35.934,0,0,1,2500.566,564.549Z" transform="translate(-2297.338 -354.006)" fill="#fff" fill-rule="evenodd"/>
      <path id="Trazado_40183" data-name="Trazado 40183" d="M2504.1,598.157s2.259-.52,3.887-.915c3.886-.948,8.281-2.179,11.591-4.437,7.277-4.969,9.571-12.635,16.8-17.571,2.19-1.5,4.894-1.792,7.361-2.519a60.023,60.023,0,0,1,12.027-1.88c2.767-.015,2.323.511,5.016,1.106.5.113,11.762,5.848,12.47,10.179.407,2.483-3.384,3-3.384,3a9.45,9.45,0,0,1-.379,3,8.647,8.647,0,0,1-2.637,3.113,26.256,26.256,0,0,1-.775,3.533c-.476,1.049-2.539,1.965-2.539,1.965s-.5,3.348-1.24,4.372c-.68.948-4.132,2.557-5.114,2.927a17.592,17.592,0,0,0-5.743,3.38c-3.307,2.683-5.749,5.947-9.769,7.558a72.453,72.453,0,0,1-11.692,3.228c-2.788.626-5.233,1.867-8.1,2.336-2.64.432-4.782,1.883-7.218,2.8-.35.131-2.639,1.424-2.74,1.156a8.278,8.278,0,0,1,.415-1.786,24.17,24.17,0,0,0,.621-5.454c-.491-5.722-.874-11.426-4.949-15.693C2506.823,600.305,2504.1,598.157,2504.1,598.157Z" transform="translate(-2297.807 -360.469)" fill="#deb490" fill-rule="evenodd"/>
      <path id="Trazado_40184" data-name="Trazado 40184" d="M2580.289,587.062c-1.918,1.3,5.64,3.907,6.874,1.991.453-.7-3.7-3.469-3.7-3.469A8.377,8.377,0,0,0,2580.289,587.062Z" transform="translate(-2307.903 -362.432)" fill="#647393" fill-rule="evenodd"/>
      <path id="Trazado_40185" data-name="Trazado 40185" d="M2538.309,572.414a98.486,98.486,0,0,0-11.047-4.738,104.026,104.026,0,0,1-11.279-4.493c-1.687-.744-5.362-1.119-5.289-3.435.03-.907,1.294-1.939,1.792-1.835,2.811.584,21.714,8.157,27.617,10.637,1.145.48,2.325.8,3.47,1.31.148.067,1.443.425,1.447.622C2545.027,571.046,2538.309,572.414,2538.309,572.414Z" transform="translate(-2298.685 -358.749)" fill="#647393" fill-rule="evenodd"/>
      <path id="Trazado_40186" data-name="Trazado 40186" d="M2488.672,761.609s-1.453,6.579-1.75,8.595c-.248,1.685-1.3,6.358-1.716,9.923a56.184,56.184,0,0,0-.388,7.848s-1.71,5.183,1.06,6.088c2.936.958,5.663.285,8.695.571a66.066,66.066,0,0,0,13.648-.124c2.982-.35,5.321-2.6,8.036-2.424,7.359.465,11.366,3.914,18.7,4.932,13.427,1.868,33.117.271,46.094-3.167,2.544-.674,6.429-1.835,7-4.656.245-1.2-1.068-3.344-1.068-3.344a7.881,7.881,0,0,0-3.348-5.22c-3.075-2.209-12.941-4.528-18.445-5.671-6.833-1.418-14.881-5.583-20.933-9.1a83.669,83.669,0,0,1-9.95-7.154s-4.1-1.819-7.038-1.788c-8.222.086-21.227,3.78-28.99,4.692A67.874,67.874,0,0,1,2488.672,761.609Z" transform="translate(-2295.173 -385.226)" fill="#91caff" fill-rule="evenodd"/>
      <path id="Trazado_40187" data-name="Trazado 40187" d="M2317.675,755.564a23.829,23.829,0,0,1-10.3-4.244,40.435,40.435,0,0,1-9.386-10.5c-1.895-3.46-2.729-10.136-2.729-10.136l-5.41-4.825a25.112,25.112,0,0,0-6-1.084c-3.1.153-7.283,1.222-8.674,3.614-1.714,2.948-1.447,4.918-1.455,7.662a43.3,43.3,0,0,0,1.961,12.936c1.824,5.141,6.088,8.658,7.6,13.929,1.859,6.489,1.436,14.7,1.978,22.355.517,7.251,1.884,14,7.406,18.3,2.548,1.984,6.8,1.933,12.65,2.438s14.962.434,18.431.506,8.348-.08,10.345-.594c2.069-.531,6.056-.522,7.127-2.672,1.314-2.637-1.94-7.51-3.332-8.957-4.668-4.852-13.339-6.168-17.066-11.846C2317.536,777.438,2317.675,755.564,2317.675,755.564Z" transform="translate(-2267.156 -380.949)" fill="#91caff" fill-rule="evenodd"/>
    </g>
    <g id="Grupo_15512" data-name="Grupo 15512" transform="translate(2257.085 326.932)">
      <g id="Grupo_15436" data-name="Grupo 15436" transform="translate(132.83 189.946)">
        <path id="Trazado_40188" data-name="Trazado 40188" d="M2419.153,604.2a.953.953,0,0,0,.953-.943c.1-11.332,6.685-23.365,13.656-36.105,3.5-6.405,7.128-13.027,10.044-19.8a.952.952,0,1,0-1.748-.754c-2.883,6.689-6.482,13.271-9.966,19.635-7.091,12.958-13.787,25.194-13.891,37a.954.954,0,0,0,.943.961Z" transform="translate(-2418.201 -546.028)" fill="#384154"/>
      </g>
      <g id="Grupo_15437" data-name="Grupo 15437" transform="translate(174.721 188.872)">
        <path id="Trazado_40189" data-name="Trazado 40189" d="M2495.419,570.17a.952.952,0,0,0,.355-1.835,46.629,46.629,0,0,1-12.722-7.093c-.545-.419-1.054-.809-1.566-1.17-3.437-2.427-6.878-6.841-9.915-10.736-1.183-1.517-2.313-2.966-3.373-4.213a.952.952,0,1,0-1.45,1.235c1.045,1.229,2.157,2.655,3.321,4.149,3.118,4,6.651,8.532,10.32,11.12.491.348.979.723,1.5,1.124a48.88,48.88,0,0,0,13.171,7.349A.947.947,0,0,0,2495.419,570.17Z" transform="translate(-2466.521 -544.788)" fill="#384154"/>
      </g>
      <g id="Grupo_15438" data-name="Grupo 15438" transform="translate(206.303 210.406)">
        <path id="Trazado_40190" data-name="Trazado 40190" d="M2503.9,598.774a.989.989,0,0,0,.206-.023c1.944-.433,3.53-.809,4.625-1.1,10.645-2.814,14.559-5.98,19.814-12.471.968-1.2,1.808-2.253,2.553-3.192,3.109-3.917,4.528-5.705,6.9-7a15.756,15.756,0,0,1,5.482-1.442c.785-.111,1.567-.223,2.332-.374.716-.14,1.5-.314,2.311-.5,3.08-.692,6.565-1.476,9.141-1,1.742.32,3.825,1.348,7.047,3,2.326,1.2,6.541,3.883,7.562,6.329a1.887,1.887,0,0,1,.078,1.764,3.472,3.472,0,0,1-2.806.942.952.952,0,1,0,0,1.9c2.032,0,3.631-.653,4.39-1.789a3.613,3.613,0,0,0,.1-3.554c-1.486-3.56-7.3-6.695-8.446-7.288-3.381-1.737-5.578-2.818-7.579-3.186-2.951-.539-6.64.29-9.9,1.017-.8.179-1.56.35-2.263.49-.731.143-1.48.249-2.232.355a17.427,17.427,0,0,0-6.129,1.657c-2.709,1.484-4.3,3.491-7.476,7.489-.741.935-1.576,1.988-2.542,3.18-4.8,5.927-8.219,9.025-18.819,11.827-1.079.284-2.639.653-4.552,1.079a.952.952,0,0,0,.206,1.882Z" transform="translate(-2502.949 -569.627)" fill="#384154"/>
      </g>
      <g id="Grupo_15439" data-name="Grupo 15439" transform="translate(120.384 237.151)">
        <path id="Trazado_40191" data-name="Trazado 40191" d="M2404.8,615.23a.94.94,0,0,0,.378-.078c5.618-2.42,7.667-2.639,11.062-3l1.392-.153c3.429-.394,7.83-.584,12.93-.8,4.974-.213,10.613-.455,16.83-.944,6.407-.506,19.538-3.3,26.795-4.913,1.714-.383,3.423-.794,5.05-1.187,3.956-.952,8.878-2.133,9.764-1.694a.947.947,0,0,0,1.313-.281.959.959,0,0,0-.283-1.32c-1.356-.881-4.6-.154-11.239,1.445-1.618.388-3.318.8-5.02,1.177-12.266,2.735-21.936,4.513-26.531,4.876-6.183.485-11.8.727-16.763.939-5.134.219-9.57.409-13.063.811l-1.378.153c-3.574.383-5.731.614-11.615,3.149a.952.952,0,0,0,.377,1.826Z" transform="translate(-2403.845 -600.476)" fill="#384154"/>
      </g>
      <g id="Grupo_15440" data-name="Grupo 15440" transform="translate(105.91 174.286)">
        <path id="Trazado_40192" data-name="Trazado 40192" d="M2408.5,599.627a.943.943,0,0,0,.277-.042.953.953,0,0,0,.634-1.188c-2.652-8.735-7.234-21.683-10.9-30.788l-.183-.453c-3.359-8.348-6.835-16.982-8.422-22.9a37.1,37.1,0,0,1-.747-11.353,33.2,33.2,0,0,0,.031-4.07,1,1,0,0,0-1.033-.863A.953.953,0,0,0,2387.3,529a32.053,32.053,0,0,1-.037,3.816,38.643,38.643,0,0,0,.812,11.931c1.616,6.032,5.112,14.721,8.494,23.123l.182.452c3.645,9.058,8.2,21.941,10.84,30.631A.952.952,0,0,0,2408.5,599.627Z" transform="translate(-2387.15 -527.964)" fill="#384154"/>
      </g>
      <g id="Grupo_15441" data-name="Grupo 15441" transform="translate(113.775 75.294)">
        <path id="Trazado_40193" data-name="Trazado 40193" d="M2397.174,421.923a.948.948,0,0,0,.57-.191,22.248,22.248,0,0,0,5.8-6.549.952.952,0,0,0-1.678-.9,20.669,20.669,0,0,1-5.265,5.928.952.952,0,0,0,.572,1.713Z" transform="translate(-2396.222 -413.781)" fill="#384154"/>
      </g>
      <g id="Grupo_15442" data-name="Grupo 15442" transform="translate(7.434 85.163)">
        <path id="Trazado_40194" data-name="Trazado 40194" d="M2274.516,590.974a.95.95,0,0,0,.942-.838c.815-6.833,1.791-14.561,2.873-20.093,1.172-6.016,2.092-13.541,2.983-20.818.952-7.8,1.938-15.864,3.245-22.218,4.97-24.128,9.037-40.109,23.568-58.531,10.308-13.067,23.842-20.583,38.17-28.542,4.2-2.334,8.548-4.747,12.783-7.3.494-.3,1.119-.725,1.839-1.217,2.212-1.514,5.244-3.587,8.1-4.382a.952.952,0,0,0-.509-1.835c-3.162.88-6.344,3.057-8.667,4.645-.684.468-1.278.876-1.748,1.158-4.2,2.536-8.536,4.942-12.724,7.268-14.5,8.053-28.2,15.661-38.741,29.027-14.791,18.752-18.911,34.924-23.937,59.327-1.325,6.429-2.316,14.533-3.274,22.372-.885,7.243-1.8,14.733-2.962,20.684-1.092,5.594-2.075,13.367-2.891,20.23a.951.951,0,0,0,.832,1.059A.859.859,0,0,0,2274.516,590.974Z" transform="translate(-2273.562 -425.164)" fill="#384154"/>
      </g>
      <g id="Grupo_15443" data-name="Grupo 15443" transform="translate(253.026 217.568)">
        <path id="Trazado_40195" data-name="Trazado 40195" d="M2574.222,592.579a.948.948,0,0,0,.4-.087,4.865,4.865,0,0,0,2.975-3.426,5.975,5.975,0,0,0-1.061-4.6,22.822,22.822,0,0,0-9.555-6.274,13.359,13.359,0,0,0-5.088-.12,13.98,13.98,0,0,1-3.895.054.966.966,0,0,0-1.13.733.954.954,0,0,0,.733,1.13,15.273,15.273,0,0,0,4.478-.023,12.342,12.342,0,0,1,4.325.039,21.116,21.116,0,0,1,8.7,5.712,4.207,4.207,0,0,1,.634,2.949,3.019,3.019,0,0,1-1.906,2.1.951.951,0,0,0,.4,1.816Z" transform="translate(-2556.843 -577.888)" fill="#384154"/>
      </g>
      <g id="Grupo_15444" data-name="Grupo 15444" transform="translate(253.696 226.606)">
        <path id="Trazado_40196" data-name="Trazado 40196" d="M2559.99,600.586a1.1,1.1,0,0,0,.151-.01,47.634,47.634,0,0,1,5.127-.378c2.889-.115,5.62-.225,7.064-.976a4.773,4.773,0,0,0,2.408-4.067,4.306,4.306,0,0,0-2.053-3.937c-2.935-1.8-9.982-3.695-14.359-2.563a.953.953,0,1,0,.479,1.845c3.831-.993,10.294.75,12.881,2.34a2.44,2.44,0,0,1,1.15,2.245,2.933,2.933,0,0,1-1.384,2.448c-1.067.555-3.708.661-6.261.763a49.03,49.03,0,0,0-5.35.4.952.952,0,0,0,.146,1.893Z" transform="translate(-2557.615 -588.313)" fill="#384154"/>
      </g>
      <g id="Grupo_15445" data-name="Grupo 15445" transform="translate(36.258 189.21)">
        <path id="Trazado_40197" data-name="Trazado 40197" d="M2391.807,654.8c16.3,0,35.052-7.143,42.286-9.9,1.119-.426,1.984-.754,2.544-.948,16.725-5.726,33-11.632,48.255-20.886,2.047-1.246,3.261-6.447,2.825-12.1-.315-4.063-2-13.912-10.886-17.575a.951.951,0,0,0-.725,1.759c7.9,3.261,9.424,12.251,9.713,15.962.42,5.421-.833,9.668-1.915,10.325-15.089,9.155-31.26,15.022-47.883,20.714-.573.2-1.458.532-2.6.969-9.121,3.474-36.889,14.054-53.919,7.9-15.564-5.616-31.67-30.873-42.442-51.072-4.375-8.2-8.3-16.128-12.087-23.792-6.04-12.208-11.256-22.752-16.412-30.549a.952.952,0,1,0-1.588,1.049c5.092,7.7,10.284,18.194,16.293,30.344,3.8,7.677,7.725,15.613,12.113,23.844,10.929,20.493,27.342,46.144,43.476,51.968A38.373,38.373,0,0,0,2391.807,654.8Z" transform="translate(-2306.809 -545.179)" fill="#384154"/>
      </g>
      <g id="Grupo_15446" data-name="Grupo 15446" transform="translate(214.059 237.391)">
        <path id="Trazado_40198" data-name="Trazado 40198" d="M2512.848,629.128a.941.941,0,0,0,.387-.082c1.281-.569,3.138-1.244,4.934-1.9,1.45-.526,2.873-1.043,3.961-1.493a42.4,42.4,0,0,1,9.078-2.369,57.329,57.329,0,0,0,7.563-1.744c4.242-1.359,7.791-4.364,11.226-7.271a49.4,49.4,0,0,1,6.751-5.1,11.194,11.194,0,0,1,2.011-.768c2.475-.787,6.215-1.975,6.576-6.62a.95.95,0,0,0-.874-1.023.931.931,0,0,0-1.023.874c-.263,3.368-2.8,4.175-5.255,4.954a12.423,12.423,0,0,0-2.395.937,51.605,51.605,0,0,0-7.022,5.295c-3.291,2.786-6.7,5.665-10.575,6.909a55.7,55.7,0,0,1-7.323,1.684,44.56,44.56,0,0,0-9.464,2.485c-1.067.439-2.462.947-3.887,1.464-1.826.664-3.713,1.35-5.056,1.945a.952.952,0,0,0,.386,1.823Z" transform="translate(-2511.895 -600.753)" fill="#384154"/>
      </g>
      <g id="Grupo_15447" data-name="Grupo 15447" transform="translate(199.569 213.883)">
        <path id="Trazado_40199" data-name="Trazado 40199" d="M2505.882,598.169a.95.95,0,0,0,.857-1.368l-9.374-19.318,3.346-2.087a.952.952,0,0,0-1-1.618l-4.076,2.542a.952.952,0,0,0-.353,1.223l9.748,20.09A.953.953,0,0,0,2505.882,598.169Z" transform="translate(-2495.182 -573.638)" fill="#384154"/>
      </g>
      <g id="Grupo_15448" data-name="Grupo 15448" transform="translate(221.605 163.304)">
        <path id="Trazado_40200" data-name="Trazado 40200" d="M2526.609,626.156a.957.957,0,0,0,.507-.147l89.674-56.429a.953.953,0,0,0,.309-1.3l-31.587-52.525a.958.958,0,0,0-.594-.435.946.946,0,0,0-.727.119l-62.534,39,.972,1.639,4.755-2.964,56.993-35.543,30.609,50.9L2527,623.832l-4.591-9.467a.953.953,0,1,0-1.714.833l5.056,10.421a.953.953,0,0,0,.595.5A.971.971,0,0,0,2526.609,626.156Z" transform="translate(-2520.6 -515.297)" fill="#384154"/>
      </g>
      <g id="Grupo_15449" data-name="Grupo 15449" transform="translate(211.038 205.246)">
        <path id="Trazado_40201" data-name="Trazado 40201" d="M2509.363,569.6a.94.94,0,0,0,.5-.146l6.454-4.026a.951.951,0,1,0-1.008-1.613l-6.454,4.026a.952.952,0,0,0,.5,1.759Z" transform="translate(-2508.41 -563.675)" fill="#384154"/>
      </g>
      <g id="Grupo_15450" data-name="Grupo 15450" transform="translate(226.73 215.962)">
        <path id="Trazado_40202" data-name="Trazado 40202" d="M2529.707,635.709a.963.963,0,0,0,.509-.147l87.3-55.211a.959.959,0,0,0,.443-.781l.065-2.557a.952.952,0,0,0-.928-.976.968.968,0,0,0-.976.928l-.052,2.048-86.4,54.648-1.757-.915a.951.951,0,1,0-.877,1.688l2.243,1.169A.944.944,0,0,0,2529.707,635.709Z" transform="translate(-2526.511 -576.036)" fill="#384154"/>
      </g>
      <g id="Grupo_15451" data-name="Grupo 15451" transform="translate(225.801 201.904)">
        <path id="Trazado_40203" data-name="Trazado 40203" d="M2527.126,621.533a.976.976,0,0,0,.271-.039c.481-.143,12.056-3.654,32.772-15.764,20.651-12.069,50.62-32.923,50.922-33.133a.953.953,0,0,0,.267-1.278l-6.75-11.042a.952.952,0,0,0-1.625.994l6.281,10.276c-4.74,3.282-31.278,21.564-50.054,32.539-17.616,10.3-28.746,14.372-31.617,15.342l-.359-.681a.952.952,0,0,0-1.685.889l.735,1.389A.955.955,0,0,0,2527.126,621.533Z" transform="translate(-2525.439 -559.82)" fill="#384154"/>
      </g>
      <g id="Grupo_15452" data-name="Grupo 15452" transform="translate(225.349 167.935)">
        <path id="Trazado_40204" data-name="Trazado 40204" d="M2525.87,558.26a.949.949,0,0,0,.415-.1c1.964-.948,4-2,6.039-3.128,20.357-11.237,45.5-28.678,50.356-32.08l6.831,11.177a1.036,1.036,0,0,0,1.352.39.883.883,0,0,0,.365-1.235l-7.452-12.192a.95.95,0,0,0-.622-.434.913.913,0,0,0-.742.154c-.283.2-28.576,20.169-51.006,32.553-2.014,1.111-4.015,2.147-5.949,3.08a.952.952,0,0,0,.413,1.809Z" transform="translate(-2524.918 -520.638)" fill="#384154"/>
      </g>
      <g id="Grupo_15453" data-name="Grupo 15453" transform="translate(203.131 205.978)">
        <path id="Trazado_40205" data-name="Trazado 40205" d="M2510.211,595.978a.951.951,0,0,0,.856-1.371c-8.616-17.58-9.823-22.332-9.87-23.607,2.344.145,8.644-1.332,16.505-4.653a.952.952,0,1,0-.74-1.756c-8.787,3.714-14.641,4.744-15.807,4.489a1.41,1.41,0,0,0-1.478.476c-.649.82-1.856,2.347,9.679,25.887A.949.949,0,0,0,2510.211,595.978Z" transform="translate(-2499.291 -564.519)" fill="#384154"/>
      </g>
      <g id="Grupo_15454" data-name="Grupo 15454" transform="translate(289.159 177.949)">
        <path id="Trazado_40206" data-name="Trazado 40206" d="M2612.066,558.237a.951.951,0,0,1-.591-.433L2598.656,536.5a.951.951,0,0,1,.363-1.327l5.285-2.866a.952.952,0,0,1,1.268.344l12.7,21a.951.951,0,0,1-.315,1.3l-5.163,3.176a.952.952,0,0,1-.5.141A.9.9,0,0,1,2612.066,558.237Zm-7.653-23.826-3.612,1.958L2612.611,556l3.539-2.177Z" transform="translate(-2598.52 -532.189)" fill="#384154"/>
      </g>
      <g id="Grupo_15455" data-name="Grupo 15455" transform="translate(272.505 223.078)">
        <path id="Trazado_40207" data-name="Trazado 40207" d="M2586.976,590.439c1.374,0,1.491-.328,1.646-.753.23-.636.385-1.059-4.764-5.229a.952.952,0,1,0-1.2,1.481c1.008.816,2.114,1.755,2.944,2.5-1-.1-2.271-.255-3.416-.427l-1.583-.609a.953.953,0,0,0-.684,1.778l1.681.647a.942.942,0,0,0,.2.052A39.279,39.279,0,0,0,2586.976,590.439Z" transform="translate(-2579.31 -584.243)" fill="#384154"/>
      </g>
      <g id="Grupo_15456" data-name="Grupo 15456" transform="translate(212.078 199.209)">
        <path id="Trazado_40208" data-name="Trazado 40208" d="M2538.613,573.091a.952.952,0,0,0,.344-1.84l-27.188-10.494c-.019-.024-.424-.342-.175-1.216.2-.691.429-.864.5-.9l33.233,12.808a1,1,0,0,0,1.281-.523.907.907,0,0,0-.491-1.213l-33.2-12.865a2.054,2.054,0,0,0-1.618.062,3.09,3.09,0,0,0-1.535,2.113A2.871,2.871,0,0,0,2511,562.5l27.274,10.529A.941.941,0,0,0,2538.613,573.091Z" transform="translate(-2509.611 -556.711)" fill="#384154"/>
      </g>
      <g id="Grupo_15457" data-name="Grupo 15457" transform="translate(256.653 253.731)">
        <path id="Trazado_40209" data-name="Trazado 40209" d="M2571,627.671c1.358,0,2.833-.437,4.679-2.592a.952.952,0,1,0-1.447-1.238c-1.826,2.131-2.847,2.014-4.389,1.835a10.463,10.463,0,0,0-2.254-.088c-2.319.2-3.841.331-4.327-.171a.914.914,0,0,1-.328-.747,2.425,2.425,0,0,1,1.084-1.473,9.021,9.021,0,0,1,4.15-1.553l.78-.164a.953.953,0,0,0-.4-1.863l-.766.161a10.745,10.745,0,0,0-4.915,1.9,4.028,4.028,0,0,0-1.832,2.846,2.835,2.835,0,0,0,.859,2.213c1.117,1.155,2.891,1,5.845.746a9.037,9.037,0,0,1,1.887.08A11.9,11.9,0,0,0,2571,627.671Z" transform="translate(-2561.026 -619.6)" fill="#384154"/>
      </g>
      <g id="Grupo_15458" data-name="Grupo 15458" transform="translate(266.763 247.529)">
        <path id="Trazado_40210" data-name="Trazado 40210" d="M2578.685,623.948c.076,0,.154,0,.231-.005a6.755,6.755,0,0,0,4.48-2.168,3.406,3.406,0,0,0,1.012-2.449,4.807,4.807,0,0,0-1.531-3.031,4.293,4.293,0,0,1-.426-.5l-.115-.193c-.674-1.129-1.8-3.017-4.231-3.149a.9.9,0,0,0-1,.9.951.951,0,0,0,.9,1c1.418.078,2.1,1.218,2.7,2.223l.122.2a5.275,5.275,0,0,0,.658.815,3.015,3.015,0,0,1,1.028,1.852,1.7,1.7,0,0,1-.526,1.062,4.912,4.912,0,0,1-3.15,1.54,4.322,4.322,0,0,1-3.742-2.444,3.393,3.393,0,0,1,.042-3.6.953.953,0,0,0-1.495-1.183,5.214,5.214,0,0,0-.242,5.653A6.1,6.1,0,0,0,2578.685,623.948Z" transform="translate(-2572.687 -612.447)" fill="#384154"/>
      </g>
      <g id="Grupo_15459" data-name="Grupo 15459" transform="translate(277.908 239.305)">
        <path id="Trazado_40211" data-name="Trazado 40211" d="M2585.593,618.567l-.031-.952.031-.952h.032a4.357,4.357,0,0,0,3.653-1.538,16.522,16.522,0,0,1,1.866-1.527c1.478-1.092,2.317-1.772,2.332-3.072a19.242,19.242,0,0,1,.218-2.368c.214-1.587.3-2.509-.33-3.031s-1.194-.238-2.635.967l-.523.427c-1.1.876-2.518,4.213-2.765,6.49a.981.981,0,0,1-1.049.844.952.952,0,0,1-.844-1.049c.281-2.586,1.826-6.46,3.47-7.773l.49-.4c1.236-1.032,3.111-2.587,5.068-.973,1.48,1.223,1.238,3.018,1,4.755a17.747,17.747,0,0,0-.2,2.136c-.026,2.308-1.662,3.515-3.107,4.58a15.208,15.208,0,0,0-1.657,1.349,6.213,6.213,0,0,1-4.99,2.088Zm-.031-.952v0Z" transform="translate(-2585.543 -602.961)" fill="#384154"/>
      </g>
      <g id="Grupo_15460" data-name="Grupo 15460" transform="translate(286.55 233.23)">
        <path id="Trazado_40212" data-name="Trazado 40212" d="M2596.461,610.56a1.055,1.055,0,0,0,.147-.011c.347-.054,3.44-.578,4.9-2.453.565-.727.98-1.343,1.458-2.056.439-.652.933-1.391,1.668-2.386,2.222-2.873,2.668-5.067,1.436-6.67a2.553,2.553,0,0,0-2.059-1.028l-.039,0c-2.74,0-6.029,3.7-7.32,5.293a.952.952,0,1,0,1.481,1.2c2.222-2.747,4.565-4.585,5.837-4.585a.621.621,0,0,1,.59.286c.638.83.193,2.243-1.32,4.2l-.138.179c-.755,1.025-1.264,1.783-1.717,2.455s-.844,1.257-1.379,1.945a6.569,6.569,0,0,1-3.69,1.743.952.952,0,0,0,.143,1.893Z" transform="translate(-2595.511 -595.954)" fill="#384154"/>
      </g>
      <g id="Grupo_15461" data-name="Grupo 15461" transform="translate(239.398 253.697)">
        <path id="Trazado_40213" data-name="Trazado 40213" d="M2542.52,740.965a1.1,1.1,0,0,0,.175-.015.954.954,0,0,0,.764-1.11c-1.431-7.764.947-13.639,3.045-18.82.715-1.77,1.391-3.442,1.874-5.082,1.618-5.5,3.366-11.725,5.5-19.578.6-2.22,3.033-9.99,11.183-34.39l.466-1.393c5.464-16.474,10.338-28.7,15.808-39.639a.952.952,0,1,0-1.7-.851c-5.511,11.025-10.419,23.328-15.912,39.892l-.463,1.387c-6.555,19.624-10.328,31.229-11.216,34.5-2.129,7.838-3.874,14.047-5.488,19.539-.457,1.551-1.115,3.18-1.815,4.9-2.084,5.157-4.683,11.57-3.152,19.88A.954.954,0,0,0,2542.52,740.965Z" transform="translate(-2541.124 -619.562)" fill="#384154"/>
      </g>
      <g id="Grupo_15462" data-name="Grupo 15462" transform="translate(193.413 265.647)">
        <path id="Trazado_40214" data-name="Trazado 40214" d="M2489.048,746.046h.033a.952.952,0,0,0,.919-.985c-.25-7.039,3.156-16.058,6.16-24.016,2.055-5.439,4-10.577,4.686-14.722.75-4.5,1.5-9.077,2.238-13.54,1.785-10.849,3.469-21.1,4.7-27.736a97.481,97.481,0,0,1,11.427-30.25.952.952,0,1,0-1.621-1,99.485,99.485,0,0,0-11.677,30.9c-1.233,6.657-2.921,16.914-4.708,27.773-.732,4.461-1.485,9.038-2.235,13.536-.66,3.959-2.568,9.014-4.59,14.362-3.068,8.126-6.545,17.335-6.284,24.755A.953.953,0,0,0,2489.048,746.046Z" transform="translate(-2488.081 -633.345)" fill="#384154"/>
      </g>
      <g id="Grupo_15463" data-name="Grupo 15463" transform="translate(169.585 277.487)">
        <path id="Trazado_40215" data-name="Trazado 40215" d="M2461.549,681.524a.941.941,0,0,0,.513-.151c11.452-7.333,22.923-15.6,32.142-22.249,6.662-4.8,11.925-8.6,14.854-10.354a.952.952,0,1,0-.979-1.633c-3,1.8-8.292,5.614-14.99,10.443-9.2,6.631-20.647,14.884-32.054,22.189a.952.952,0,0,0,.513,1.754Z" transform="translate(-2460.596 -647.002)" fill="#384154"/>
      </g>
      <g id="Grupo_15464" data-name="Grupo 15464" transform="translate(133.605 219.534)">
        <path id="Trazado_40216" data-name="Trazado 40216" d="M2420.048,605.837a.94.94,0,0,0,.458-.117c23.3-12.738,65.047-23.247,66.811-23.687a.953.953,0,0,0-.461-1.849c-1.775.445-43.749,11.011-67.266,23.866a.952.952,0,0,0,.458,1.787Z" transform="translate(-2419.095 -580.156)" fill="#384154"/>
      </g>
      <g id="Grupo_15465" data-name="Grupo 15465" transform="translate(27.938 296.227)">
        <path id="Trazado_40217" data-name="Trazado 40217" d="M2356.124,749.86c17.562,0,34.882-1.475,45.43-2.373,2.853-.242,5.261-.446,7.113-.577,19.011-1.332,32.234-4.755,38.242-9.9,9.254-7.935,13.05-27.946,4.277-42.853-6.97-11.849-33.5-21.748-49.636-25.512a.953.953,0,0,0-.432,1.856c19.071,4.447,42.526,14.588,48.428,24.623,8.175,13.893,4.629,33.147-3.875,40.438-5.615,4.811-18.8,8.166-37.139,9.449-1.86.13-4.277.336-7.141.58-11.029.939-29.5,2.518-47.827,2.354a37.066,37.066,0,0,1-12.764-2.291,28.2,28.2,0,0,0-7.822-1.75c-3.892-.215-4.554-.016-9.667,1.52l-2.505.749c-2.657.789-6.76-.561-10.711-3.515-5.066-3.78-10.979-11.25-10.979-19.852a.952.952,0,1,0-1.9,0c0,9.3,6.066,17.14,11.743,21.379,4.495,3.357,9.129,4.78,12.393,3.815l2.511-.752c5.038-1.515,5.455-1.634,9.015-1.443a26.327,26.327,0,0,1,7.325,1.657,38.805,38.805,0,0,0,13.35,2.388C2354.406,749.855,2355.267,749.86,2356.124,749.86Z" transform="translate(-2297.212 -668.618)" fill="#384154"/>
      </g>
      <g id="Grupo_15466" data-name="Grupo 15466" transform="translate(15.054 333.065)">
        <path id="Trazado_40218" data-name="Trazado 40218" d="M2411.469,738.81a.952.952,0,0,0,.345-1.84c-8.831-3.445-27.57-3-47.414-2.525-25.5.61-54.414,1.3-66.616-6.289-5.535-3.44-10.117-8.991-13.618-16.5a.952.952,0,1,0-1.726.8c3.662,7.847,8.486,13.672,14.339,17.31,12.683,7.887,41.893,7.19,67.666,6.576,19.644-.469,38.2-.908,46.678,2.4A.946.946,0,0,0,2411.469,738.81Z" transform="translate(-2282.35 -711.109)" fill="#384154"/>
      </g>
      <g id="Grupo_15467" data-name="Grupo 15467" transform="translate(195.584 243.165)">
        <path id="Trazado_40219" data-name="Trazado 40219" d="M2497.931,636.839a.952.952,0,0,0,.937-.8c.882-5.28.224-20.93-6.633-28.326a.952.952,0,0,0-1.4,1.294c6.316,6.813,6.959,21.874,6.15,26.719a.952.952,0,0,0,.783,1.1A.976.976,0,0,0,2497.931,636.839Z" transform="translate(-2490.585 -607.413)" fill="#384154"/>
      </g>
      <g id="Grupo_15468" data-name="Grupo 15468" transform="translate(113.689 78.941)">
        <path id="Trazado_40220" data-name="Trazado 40220" d="M2407.2,576.392a.949.949,0,0,0,.866-.558c4.019-8.839,6.139-19.243,8.189-29.3.912-4.465,1.773-8.684,2.782-12.723,2.995-11.978,6.888-28.686,6.153-35.467a18.3,18.3,0,0,0-2.444-8.1,65.366,65.366,0,0,1-3.888-8.866,13.978,13.978,0,0,1-.773-8.568c.619-3.508,1.205-6.823-5.155-16.594-9.4-14.439-16.632-32.216-14.6-35.889a.768.768,0,0,1,.8-.43.952.952,0,1,0,.03-1.9h-.055a2.673,2.673,0,0,0-2.443,1.412c-2.946,5.332,6.807,25.764,14.674,37.85,5.951,9.14,5.428,12.1,4.876,15.223a15.918,15.918,0,0,0,.859,9.552,67.036,67.036,0,0,0,3.989,9.094,16.422,16.422,0,0,1,2.24,7.426c.783,7.229-4.4,27.981-6.11,34.8-1.019,4.08-1.884,8.318-2.8,12.8-2.03,9.957-4.13,20.251-8.058,28.895a.953.953,0,0,0,.867,1.346Z" transform="translate(-2396.122 -417.987)" fill="#384154"/>
      </g>
      <g id="Grupo_15469" data-name="Grupo 15469" transform="translate(133.675 112.327)">
        <path id="Trazado_40221" data-name="Trazado 40221" d="M2420.129,484.148a.948.948,0,0,0,.716-.326c1.686-1.928,9.569-10.351,11.881-13.234,3.61-4.5,7.7-9.608,10.557-12.466a.952.952,0,0,0-1.345-1.346c-2.931,2.931-7.058,8.079-10.7,12.621-2.3,2.867-10.169,11.275-11.828,13.173a.951.951,0,0,0,.716,1.579Z" transform="translate(-2419.176 -456.496)" fill="#384154"/>
      </g>
      <g id="Grupo_15470" data-name="Grupo 15470" transform="translate(119.459 126.439)">
        <path id="Trazado_40222" data-name="Trazado 40222" d="M2403.731,479.19a.951.951,0,0,0,.828-.482c1.673-2.943,3.874-5.593,10.585-2.936a.952.952,0,0,0,.7-1.77c-7.771-3.079-10.9.176-12.943,3.765a.952.952,0,0,0,.827,1.423Z" transform="translate(-2402.779 -472.774)" fill="#384154"/>
      </g>
      <g id="Grupo_15471" data-name="Grupo 15471" transform="translate(107.578 76.794)">
        <path id="Trazado_40223" data-name="Trazado 40223" d="M2390.027,422.34a.952.952,0,0,0,.485-.134,6.115,6.115,0,0,0,1.554-1.3c2.916-3.4,3.835-4.284,6.047-2.735a.953.953,0,0,0,1.094-1.561c-3.725-2.608-5.839-.148-8.513,2.972a4.482,4.482,0,0,1-1.153.988.952.952,0,0,0,.485,1.771Z" transform="translate(-2389.074 -415.51)" fill="#384154"/>
      </g>
      <g id="Grupo_15472" data-name="Grupo 15472" transform="translate(147.218 113.699)">
        <path id="Trazado_40224" data-name="Trazado 40224" d="M2435.749,494.219a.946.946,0,0,0,.636-.244c2.964-2.659,3.061-5.677,3.139-8.1.064-1.971.115-3.528,1.457-4.688,3.945-3.4,6.185-3.812,7.82-4.11a4.773,4.773,0,0,0,2.659-1.084c2.072-1.936,1.218-7.438-2.687-17.313a.952.952,0,0,0-1.77.7c4.736,11.975,3.786,14.633,3.157,15.219a3.076,3.076,0,0,1-1.7.6c-1.746.318-4.387.8-8.723,4.543-1.975,1.705-2.048,3.922-2.116,6.068-.078,2.38-.151,4.627-2.508,6.744a.952.952,0,0,0,.635,1.661Z" transform="translate(-2434.797 -458.079)" fill="#384154"/>
      </g>
      <g id="Grupo_15473" data-name="Grupo 15473" transform="translate(157.073 129.286)">
        <path id="Trazado_40225" data-name="Trazado 40225" d="M2451.305,485.5a1.639,1.639,0,0,0,.713-.163c.74-.353,1.015-.817,1.878-8.219A.953.953,0,0,0,2452,476.9c-.163,1.4-.627,5.383-.967,6.639a15.555,15.555,0,0,1-3.087-4.159.953.953,0,0,0-1.662.931C2448.222,483.763,2449.907,485.5,2451.305,485.5Z" transform="translate(-2446.165 -476.058)" fill="#384154"/>
      </g>
      <g id="Grupo_15474" data-name="Grupo 15474" transform="translate(189.872 372.293)">
        <path id="Trazado_40226" data-name="Trazado 40226" d="M2552.5,794.609a106.491,106.491,0,0,0,11.639-.53c10.084-1.166,19.8-2.774,22.564-6.628a4.113,4.113,0,0,0,.718-3.382c-1.3-6.046-11.517-8.112-22.332-10.3l-.361-.073c-10.06-2.036-23.916-10.222-30.058-16.3a.952.952,0,1,0-1.339,1.353c6.468,6.4,20.477,14.674,31.021,16.809l.361.072c9.739,1.97,19.81,4.006,20.846,8.832a2.221,2.221,0,0,1-.4,1.873c-2.656,3.7-15.677,5.2-21.237,5.845-11.257,1.3-34.542-.1-43.057-2.046-7.118-1.634-12.948-.922-18.59-.234-1.311.16-2.613.32-3.913.445-4.66.453-11.548-.014-12.285-2.473-.327-1.091-.24-6.057.643-11.354.37-2.217.823-4.484,1.26-6.678.994-4.993,1.936-9.711,1.653-12.629a.994.994,0,0,0-1.041-.857.954.954,0,0,0-.856,1.04c.257,2.638-.657,7.223-1.624,12.074-.441,2.212-.9,4.5-1.27,6.737-.823,4.941-1.093,10.534-.588,12.214,1.475,4.924,12.984,3.952,14.291,3.823s2.632-.288,3.959-.45c5.478-.669,11.137-1.359,17.936.2C2526.852,793.467,2540.854,794.609,2552.5,794.609Z" transform="translate(-2483.997 -756.357)" fill="#384154"/>
      </g>
      <g id="Grupo_15475" data-name="Grupo 15475" transform="translate(193.85 371.533)">
        <path id="Trazado_40227" data-name="Trazado 40227" d="M2494.863,762.573c5.342,0,11.121-1.361,16.755-2.691,8.592-2.021,16.7-3.935,22.337-.944a.952.952,0,1,0,.893-1.682c-6.259-3.327-14.713-1.337-23.667.774-7.437,1.751-15.127,3.561-21.426,2.1a.952.952,0,1,0-.432,1.855A24.525,24.525,0,0,0,2494.863,762.573Z" transform="translate(-2488.585 -755.481)" fill="#384154"/>
      </g>
      <g id="Grupo_15476" data-name="Grupo 15476" transform="translate(189.355 400.381)">
        <path id="Trazado_40228" data-name="Trazado 40228" d="M2549.215,802.651a159.429,159.429,0,0,0,16.255-.733c10.084-1.166,19.8-2.774,22.564-6.63a4.114,4.114,0,0,0,.716-3.382,6.28,6.28,0,0,0-1.458-2.827.953.953,0,0,0-1.436,1.254,4.3,4.3,0,0,1,1.031,1.97,2.226,2.226,0,0,1-.4,1.876c-2.656,3.7-15.677,5.205-21.237,5.847a170.782,170.782,0,0,1-26.376.387,45.206,45.206,0,0,1-16.6-4.015c-5.46-2.4-7.342-1.452-9.523-.355a12.585,12.585,0,0,1-4.963,1.53c-11.431,1.1-21.892.6-22.4-1.076a16.442,16.442,0,0,1,.361-4.943.952.952,0,1,0-1.87-.361c-.134.7-.787,4.27-.315,5.85,1.291,4.3,19.006,2.944,24.4,2.427a14.415,14.415,0,0,0,5.637-1.725c1.967-.991,3.263-1.646,7.9.4a46.982,46.982,0,0,0,17.224,4.171C2541.875,802.549,2545.538,802.651,2549.215,802.651Z" transform="translate(-2483.4 -788.755)" fill="#384154"/>
      </g>
      <g id="Grupo_15477" data-name="Grupo 15477" transform="translate(9.778 345.05)">
        <path id="Trazado_40229" data-name="Trazado 40229" d="M2327.254,804.188c7.853,0,13.287-.816,13.743-4.18.284-2.076-.14-5.127-3.768-7.864a80.363,80.363,0,0,0-7.781-4.9c-2.983-1.729-5.8-3.364-7.061-4.623-2.4-2.4-2.535-6.747-2.7-12.247a82.368,82.368,0,0,0-.9-11.283.952.952,0,1,0-1.878.312,80.831,80.831,0,0,1,.875,11.031c.182,5.923.325,10.6,3.26,13.534,1.436,1.436,4.359,3.13,7.453,4.924a79.126,79.126,0,0,1,7.589,4.77c2.321,1.751,3.34,3.8,3.028,6.086-.421,3.081-13.147,2.6-19.982,2.34-2.235-.084-4.3-.162-5.966-.162h-1.124c-7.719,0-14.434.011-18.145-2.239-3.854-2.333-6.206-9.915-6.424-14.489l-.01-.2c-.785-16.682-2.758-27.991-5.86-33.608-4.483-8.121-4.111-20.843-1.359-23.066,2.694-2.174,6.63-1.486,9.795-.924l.7.122a.953.953,0,1,0,.324-1.878l-.692-.12c-3.357-.592-7.953-1.4-11.323,1.32-3.761,3.041-3.937,16.724.891,25.468,2.961,5.36,4.852,16.389,5.626,32.777l.01.2c.226,4.811,2.716,13.231,7.338,16.029,4.167,2.527,11.127,2.525,19.133,2.514h1.122c1.647,0,3.684.079,5.893.162C2321.98,804.1,2324.741,804.188,2327.254,804.188Z" transform="translate(-2276.265 -724.934)" fill="#384154"/>
      </g>
      <g id="Grupo_15478" data-name="Grupo 15478" transform="translate(6.532 343.904)">
        <path id="Trazado_40230" data-name="Trazado 40230" d="M2327.71,807.177c8.145,0,13.78-.817,14.254-4.177a7.258,7.258,0,0,0-1.527-5.612.951.951,0,1,0-1.51,1.156,5.427,5.427,0,0,1,1.151,4.187c-.437,3.089-13.68,2.611-20.787,2.347-2.318-.083-4.457-.161-6.187-.161h-1.151c-8.022-.008-15.014.011-18.886-2.246-3.743-2.187-6.815-9.393-7.062-14.375-.042-.876-.05-2.131-.061-3.649-.054-7.239-.153-20.718-4.244-27.851a29.82,29.82,0,0,0-1.92-2.818,21.207,21.207,0,0,1-4.3-8.657c-1.572-7.342-1.374-13.443.543-16.74,2-3.448,7.594-3.366,11.937-2.684a.963.963,0,0,0,1.088-.794.953.953,0,0,0-.794-1.087c-7.175-1.122-11.838.094-13.878,3.609-2.946,5.067-1.739,13.511-.759,18.094a22.778,22.778,0,0,0,4.632,9.387,28.491,28.491,0,0,1,1.8,2.639c3.842,6.7,3.938,19.852,3.991,26.918.011,1.548.021,2.831.065,3.726.238,4.858,3.152,13.094,8,15.926,4.317,2.516,11.548,2.5,19.847,2.506h1.15c1.71,0,3.825.078,6.118.16C2322.25,807.093,2325.109,807.177,2327.71,807.177Z" transform="translate(-2272.521 -723.612)" fill="#384154"/>
      </g>
      <g id="Grupo_15479" data-name="Grupo 15479" transform="translate(189.879 79.235)">
        <path id="Trazado_40231" data-name="Trazado 40231" d="M2484.955,435.5a1.051,1.051,0,0,0,.136-.01c3.71-.525,6.166-2.144,6.411-4.226a5.5,5.5,0,0,0-.909-3.12,8.384,8.384,0,0,1-1.008-2.671,9.463,9.463,0,0,1,1.3-5.665.952.952,0,1,0-1.576-1.067,11.315,11.315,0,0,0-1.615,6.984,10,10,0,0,0,1.2,3.289,4.311,4.311,0,0,1,.713,2.027c-.112.952-1.793,2.139-4.788,2.563a.952.952,0,0,0,.132,1.9Z" transform="translate(-2484.005 -418.326)" fill="#384154"/>
      </g>
      <g id="Grupo_15480" data-name="Grupo 15480" transform="translate(186.154 69.545)">
        <path id="Trazado_40232" data-name="Trazado 40232" d="M2489.557,412.218a.951.951,0,0,0,.682-1.614,11.922,11.922,0,0,0-9.667-3.4.953.953,0,0,0-.859,1.038.964.964,0,0,0,1.038.857,10.028,10.028,0,0,1,8.124,2.828A.945.945,0,0,0,2489.557,412.218Z" transform="translate(-2479.708 -407.149)" fill="#384154"/>
      </g>
      <g id="Grupo_15481" data-name="Grupo 15481" transform="translate(153.733 109.089)">
        <path id="Trazado_40233" data-name="Trazado 40233" d="M2460.26,462.343a9.953,9.953,0,0,0,2.7-.346c2.842-.8,4.432-3.541,5.59-5.542.184-.316.355-.613.519-.878a.952.952,0,1,0-1.619-1c-.172.279-.354.592-.548.924-1,1.719-2.36,4.074-4.46,4.664-4.37,1.235-11.492-1.522-18.582-7.194a.952.952,0,0,0-1.19,1.488C2448.97,459.5,2455.417,462.343,2460.26,462.343Z" transform="translate(-2442.311 -452.762)" fill="#384154"/>
      </g>
      <g id="Grupo_15482" data-name="Grupo 15482" transform="translate(141.49 53.034)">
        <path id="Trazado_40234" data-name="Trazado 40234" d="M2433.8,411a.952.952,0,0,0,.323-1.848c-4.79-1.726-4.479-10.576-3.293-13.972.973-2.78,3.515-4.948,6.046-5.153,2.029-.175,3.762.948,5,3.223a.953.953,0,0,0,1.674-.911c-1.6-2.945-4.054-4.428-6.828-4.211a9.467,9.467,0,0,0-7.688,6.423c-1.307,3.739-1.9,14.1,4.443,16.391A.94.94,0,0,0,2433.8,411Z" transform="translate(-2428.19 -388.105)" fill="#384154"/>
      </g>
      <g id="Grupo_15483" data-name="Grupo 15483" transform="translate(147.982 60.963)">
        <path id="Trazado_40235" data-name="Trazado 40235" d="M2437.832,405.3a.953.953,0,0,0,.953-.944,12.309,12.309,0,0,0-1.306-6.591.953.953,0,0,0-1.7.869c.885,1.724,1.119,2.95,1.1,5.706a.954.954,0,0,0,.945.961Z" transform="translate(-2435.678 -397.25)" fill="#384154"/>
      </g>
      <path id="Trazado_40236" data-name="Trazado 40236" d="M2483.684,419.949a2.422,2.422,0,0,0,.021-3.428,2.552,2.552,0,0,0-3.408.8c-.947,1.17-.958,2.7-.021,3.43A2.551,2.551,0,0,0,2483.684,419.949Z" transform="translate(-2293.537 -338.801)" fill="#384154" fill-rule="evenodd"/>
      <g id="Grupo_15484" data-name="Grupo 15484" transform="translate(200.671 53.415)">
        <path id="Trazado_40237" data-name="Trazado 40237" d="M2497.4,406.033a.954.954,0,0,0,.817-.461c3.455-5.744,4.2-9.908,4.408-16.04a.953.953,0,0,0-1.9-.065c-.2,5.929-.876,9.7-4.135,15.124a.952.952,0,0,0,.816,1.443Z" transform="translate(-2496.453 -388.544)" fill="#384154"/>
      </g>
      <g id="Grupo_15485" data-name="Grupo 15485" transform="translate(177.336 100.181)">
        <path id="Trazado_40238" data-name="Trazado 40238" d="M2475.912,447.1a.951.951,0,0,0,.363-1.831c-2.167-.9-5.288-2.645-5.318-2.662a.953.953,0,0,0-.934,1.661c.132.073,3.254,1.823,5.527,2.76A.934.934,0,0,0,2475.912,447.1Z" transform="translate(-2469.537 -442.487)" fill="#384154"/>
      </g>
      <g id="Grupo_15486" data-name="Grupo 15486" transform="translate(78.058 116.285)">
        <path id="Trazado_40239" data-name="Trazado 40239" d="M2385.186,516.408c.022,0,.046,0,.068,0a.955.955,0,0,0,.884-1.018c-1.437-20.58-16.165-47.44-29.737-54.227a.952.952,0,0,0-.853,1.7c13.081,6.542,27.29,32.624,28.689,52.658A.952.952,0,0,0,2385.186,516.408Z" transform="translate(-2355.023 -461.062)" fill="#384154"/>
      </g>
      <g id="Grupo_15487" data-name="Grupo 15487" transform="translate(182.293 114.049)">
        <path id="Trazado_40240" data-name="Trazado 40240" d="M2533.891,536.984a.952.952,0,0,0,.479-1.775c-2.962-1.73-5.691-3.105-8.095-4.317-6.864-3.463-11.822-5.966-16.71-13.371-.759-1.15-1.86-2.536-3.254-4.29a105.283,105.283,0,0,1-14.659-23.024c-1.484-3.287-2.771-7.064-4.015-10.716-2.725-8.006-5.544-16.284-10.81-20.784a.953.953,0,0,0-1.239,1.449c4.871,4.159,7.6,12.186,10.247,19.948,1.259,3.695,2.559,7.516,4.08,10.885a107.126,107.126,0,0,0,14.9,23.425c1.365,1.718,2.444,3.074,3.157,4.154,5.166,7.829,10.583,10.56,17.44,14.021,2.5,1.261,5.081,2.563,7.994,4.263A.946.946,0,0,0,2533.891,536.984Z" transform="translate(-2475.255 -458.482)" fill="#384154"/>
      </g>
      <g id="Grupo_15488" data-name="Grupo 15488" transform="translate(158.885 50.063)">
        <path id="Trazado_40241" data-name="Trazado 40241" d="M2454.558,397.221a2.961,2.961,0,0,0,.484-.041,2.315,2.315,0,0,0,1.615-1.3,2,2,0,0,1,.224-.338,1.6,1.6,0,0,1,.593.472,3.006,3.006,0,0,0,1.642,1.054,2.41,2.41,0,0,0,2.394-1.052c.039-.045.088-.1.132-.153.151.047.3.107.443.163a2.861,2.861,0,0,0,2.752-.02,5.218,5.218,0,0,0,1.572-1.634,3.094,3.094,0,0,1,.994-1.064c.282-.141.476-.1,1,.049a3.116,3.116,0,0,0,2.884-.319,3.406,3.406,0,0,0,1.282-2.325c.066-.3.174-.79.278-.824a2.676,2.676,0,0,1,1.33.107,4.328,4.328,0,0,0,2.719-.019,2.864,2.864,0,0,0,1.59-1.87c.245-.642.3-.666.578-.7.342-.041.336-.036.562.349a2.505,2.505,0,0,0,1.48,1.3c1.919.57,2.662-1.021,3.016-1.789.029-.064.065-.141.1-.219a1.493,1.493,0,0,0,.658,1.071,1.944,1.944,0,0,0,2.675-.863,1.3,1.3,0,0,0,1.151,1.306,3.333,3.333,0,0,0,2.551-.9c.448-.336.657-.482.787-.428a1.273,1.273,0,0,1,.184.1.254.254,0,0,0-.05.117,1.6,1.6,0,0,0,.305,1.69,1.824,1.824,0,0,0,1.856.38,1.173,1.173,0,0,0,.351.778,1.938,1.938,0,0,0,1.746.339c0,.016,0,.033,0,.048a1.876,1.876,0,0,0,.4,1.528,2.237,2.237,0,0,0,1.686.571.952.952,0,0,0,0-1.9c-.074,0-.138,0-.188-.006,0-.019,0-.037,0-.053a2.086,2.086,0,0,0-.51-1.764,1.74,1.74,0,0,0-1.571-.316,1.447,1.447,0,0,0-1.187-1.2,1.861,1.861,0,0,0-.98.071,1.831,1.831,0,0,0-1.293-2.125,2.589,2.589,0,0,0-2.675.652,4.626,4.626,0,0,1-.677.448,1.67,1.67,0,0,0-.7-1.438c-1.343-.9-2.292.4-2.646.888l-.081.111a1.711,1.711,0,0,0-.764-1.274,1.643,1.643,0,0,0-1.49-.026,2.825,2.825,0,0,0-1.367,1.627c-.4.869-.453.849-.74.764-.13-.04-.187-.106-.385-.44a2.246,2.246,0,0,0-2.414-1.278,2.5,2.5,0,0,0-2.146,1.911c-.192.5-.281.686-.519.781a2.562,2.562,0,0,1-1.583-.068,4.18,4.18,0,0,0-2.36-.058,2.567,2.567,0,0,0-1.535,2.225c-.133.6-.231.98-.482,1.149-.469.312-.747.231-1.3.072a2.993,2.993,0,0,0-2.383.08,4.644,4.644,0,0,0-1.7,1.675,3.593,3.593,0,0,1-.989,1.091c-.273.165-.461.121-1.082-.12a5.735,5.735,0,0,0-.974-.31,1.822,1.822,0,0,0-1.742.842c-.369.434-.428.447-.572.419-.2-.04-.357-.2-.621-.485a2.894,2.894,0,0,0-1.436-.977,2.018,2.018,0,0,0-2.415,1.174c-.1.168-.224.379-.287.389-.53.085-.894-.24-1.558-.949l-.346-.363c-.469-.462-1.122-.367-1.871-.263-.21.029-.562.08-.781.086a3.54,3.54,0,0,1-.015-.389l-.952-.021-.952.02a2.227,2.227,0,0,0,.874,2.049,3.184,3.184,0,0,0,2.094.14c.138-.02.32-.046.461-.06l.095.1A3.884,3.884,0,0,0,2454.558,397.221Z" transform="translate(-2448.255 -384.678)" fill="#384154"/>
      </g>
      <g id="Grupo_15489" data-name="Grupo 15489" transform="translate(117.247 70.348)">
        <path id="Trazado_40242" data-name="Trazado 40242" d="M2409.542,415.737a2.246,2.246,0,0,0,2.034-1.35,1.839,1.839,0,0,1,.224-.337c.33-.062.33-.058.582.246a2.594,2.594,0,0,0,1.523,1.022,2.062,2.062,0,0,0,2.5-1.207c.026-.048.059-.11.089-.16.163,0,.293.081.583.29a2.028,2.028,0,0,0,2.141.393,3.256,3.256,0,0,0,1.638-2.033,2.587,2.587,0,0,1,.346-.7c.1-.041.124-.049.5.208a2.091,2.091,0,0,0,1.64.476,1.816,1.816,0,0,0,1.473-1.583,1.57,1.57,0,0,1,.082-.283,2.5,2.5,0,0,1,.456-.159,2.334,2.334,0,0,0,1.6-1.11.953.953,0,0,0-1.7-.853c-.037.018-.275.089-.433.135a3.243,3.243,0,0,0-1.077.477,2.18,2.18,0,0,0-.781,1.367c-.005.023-.011.048-.017.072-.054-.035-.114-.075-.162-.108a2.3,2.3,0,0,0-2.291-.4,2.733,2.733,0,0,0-1.4,1.759c-.214.539-.363.875-.618.985a2.348,2.348,0,0,1-.275-.186,2.716,2.716,0,0,0-2.134-.616,1.862,1.862,0,0,0-1.33,1.124,1.652,1.652,0,0,1-.175.286,1.618,1.618,0,0,1-.236-.033c-.184-.042-.259-.122-.465-.373a2.272,2.272,0,0,0-3.926.349c-.266.459-.261.466-.737.345-.216-.055-.367-.225-.642-.55a3.3,3.3,0,0,0-2.188-1.361,2.251,2.251,0,0,0-1.869.642c-.3.251-.414.352-.778.3-.265-.033-.344-.079-.546-.961a2.561,2.561,0,0,0-1.757-2.277.952.952,0,1,0-.461,1.847c.139.035.213.212.362.858.19.828.508,2.214,2.167,2.423a2.7,2.7,0,0,0,2.235-.731c.282-.238.3-.231.377-.217.446.063.64.272,1,.7a3.053,3.053,0,0,0,1.634,1.17A3.362,3.362,0,0,0,2409.542,415.737Z" transform="translate(-2400.226 -408.075)" fill="#384154"/>
      </g>
      <g id="Grupo_15490" data-name="Grupo 15490" transform="translate(110.41 11.36)">
        <path id="Trazado_40243" data-name="Trazado 40243" d="M2397.007,398.556a.952.952,0,0,0,.854-1.376,4.673,4.673,0,0,0-.7-1,1.3,1.3,0,0,1-.433-.8,3.575,3.575,0,0,1,.132-.784,3.089,3.089,0,0,0,0-2.111,7.225,7.225,0,0,0-1.272-1.68c-.864-.929-1.268-1.422-1-2.473a2.791,2.791,0,0,1,.552-.918,4.223,4.223,0,0,0,.905-1.683,4.406,4.406,0,0,0-.061-1.453c-.029-.2-.07-.49-.083-.679a2.152,2.152,0,0,0,.8-1.582,1.4,1.4,0,0,0-.459-.835,3.224,3.224,0,0,0-.879-.446,1.081,1.081,0,0,1-.538-.311c-.986-1.125-.6-2.052.231-3.728a10.815,10.815,0,0,0,.869-2.129,2.3,2.3,0,0,0-.459-1.909c-.177-.27-.233-.373-.214-.443a1.624,1.624,0,0,1,.336-.4,2.974,2.974,0,0,0,.9-1.388,2.754,2.754,0,0,0-.647-2.056,4.032,4.032,0,0,1-.362-.644,6.2,6.2,0,0,1,.092-3.048,3.364,3.364,0,0,1,.989-1.3,5.051,5.051,0,0,0,1.473-2.06,4.275,4.275,0,0,0-.054-2.47,3.005,3.005,0,0,1-.14-1.225c.164-.822.714-1.255,1.6-1.893a7.438,7.438,0,0,0,1.7-1.528,4.964,4.964,0,0,0,.794-2.428,3.865,3.865,0,0,1,.549-1.824l.471.049a2.307,2.307,0,0,0,2.016-.505,3.743,3.743,0,0,0,.948-2.419,2.043,2.043,0,0,1,.394-1.274,3.289,3.289,0,0,1,.779-.042,2.877,2.877,0,0,0,2.241-.631,2.229,2.229,0,0,0,.539-1.99,1.961,1.961,0,0,1-.019-.395c.12-.236.728-.512,1.131-.694.159-.073.314-.142.452-.211a.952.952,0,1,0-.856-1.7l-.382.178a3.928,3.928,0,0,0-2.055,1.591,2.449,2.449,0,0,0-.163,1.441,1.729,1.729,0,0,1,.017.425,2.322,2.322,0,0,1-.876.084,2.77,2.77,0,0,0-2.158.6,3.71,3.71,0,0,0-.937,2.4,2.067,2.067,0,0,1-.4,1.29h0c-.047,0-.307-.025-.478-.042a2.2,2.2,0,0,0-2.184.7,5.428,5.428,0,0,0-.911,2.709,3.426,3.426,0,0,1-.433,1.544,5.745,5.745,0,0,1-1.287,1.124,4.952,4.952,0,0,0-2.35,3.064,4.56,4.56,0,0,0,.154,2.046,2.525,2.525,0,0,1,.1,1.419,3.379,3.379,0,0,1-.986,1.292,5.032,5.032,0,0,0-1.477,2.066,8.013,8.013,0,0,0-.133,4.112,4.355,4.355,0,0,0,.6,1.2,3.949,3.949,0,0,1,.4.722,2.979,2.979,0,0,0-.385.36,2.747,2.747,0,0,0-.835,1.281,2.33,2.33,0,0,0,.463,1.944c.132.2.224.351.208.409a9.156,9.156,0,0,1-.729,1.749c-.769,1.557-1.824,3.691.043,5.824a2.692,2.692,0,0,0,1.02.733c-.046.049-.167.185-.195.226a2.728,2.728,0,0,0-.122,1.908,6.119,6.119,0,0,1,.082.8,2.739,2.739,0,0,1-.549.905,4.338,4.338,0,0,0-.892,1.617c-.526,2.1.574,3.283,1.459,4.233a5.662,5.662,0,0,1,.962,1.235,4.352,4.352,0,0,1-.148.827,4.332,4.332,0,0,0-.169,1.426,3.1,3.1,0,0,0,.885,1.837,2.9,2.9,0,0,1,.437.607A.953.953,0,0,0,2397.007,398.556Z" transform="translate(-2392.341 -340.035)" fill="#384154"/>
      </g>
      <g id="Grupo_15491" data-name="Grupo 15491" transform="translate(133.149)">
        <path id="Trazado_40244" data-name="Trazado 40244" d="M2419.1,338.418a.953.953,0,0,1-.427-1.277c.078-.16.166-.356.258-.57a5.556,5.556,0,0,1,1.8-2.629,2.654,2.654,0,0,1,1.525-.231,2.237,2.237,0,0,0,.648-.018,1.424,1.424,0,0,0,.405-.538,2.838,2.838,0,0,1,1.159-1.251,1.9,1.9,0,0,1,1.5.088c.182.06.52.17.567.181.577-.165.822-.6,1.2-1.364a3.558,3.558,0,0,1,2.3-2.224l.4-.111a4.38,4.38,0,0,1,2.3-.225,2.928,2.928,0,0,1,1.376.895c.352.352.389.336.445.326a5.431,5.431,0,0,0,2.032-1.14,6.239,6.239,0,0,1,2.444-1.322,3.5,3.5,0,0,1,3.065.91,3.771,3.771,0,0,0,.82.543,5.626,5.626,0,0,0,1.108-.548c1.036-.593,2.209-1.267,3.288-.853a2.046,2.046,0,0,1,1.2,1.361,1.312,1.312,0,0,1,.052.581c.011-.01.023-.017.034-.025a2.019,2.019,0,0,1,2.127-.544,5.752,5.752,0,0,1,1.522,1.313c.407.442.966,1.049,1.295,1.049.149,0,.206-.022.5-.5a2.21,2.21,0,0,1,1.4-1.18,2.869,2.869,0,0,1,2.23.738,1.985,1.985,0,0,1,.731,1.78l-1.9-.036c0-.095.008-.233.05-.206-.434-.308-.651-.382-.673-.419a3.167,3.167,0,0,0-.22.325,2.433,2.433,0,0,1-2.119,1.4,3.891,3.891,0,0,1-2.695-1.663,7.516,7.516,0,0,0-.781-.773c-.1.068-.229.164-.323.235-.556.42-1.86,1.41-3.033.241a1.483,1.483,0,0,1-.136-1.593c.026-.088.058-.176.078-.256a.209.209,0,0,1-.022-.05,4.662,4.662,0,0,0-1.658.727,3.525,3.525,0,0,1-2.4.755,4.379,4.379,0,0,1-1.631-.891c-.6-.462-.932-.679-1.533-.554a4.852,4.852,0,0,0-1.672.976,7.04,7.04,0,0,1-2.8,1.486,2.3,2.3,0,0,1-2.17-.851,1.468,1.468,0,0,0-.489-.389,2.975,2.975,0,0,0-1.3.205l-.47.13c-.456.114-.66.446-1.057,1.231a3.885,3.885,0,0,1-2.38,2.341,2.882,2.882,0,0,1-1.683-.2l-.191-.063a3.615,3.615,0,0,0-.226.363,2.923,2.923,0,0,1-1.207,1.294,3.1,3.1,0,0,1-1.6.217c-.173-.01-.424-.021-.479-.016a5.781,5.781,0,0,0-1,1.743c-.107.244-.208.469-.3.652a.952.952,0,0,1-1.276.428Zm6.219-4.812h0Z" transform="translate(-2418.569 -326.932)" fill="#384154"/>
      </g>
      <g id="Grupo_15492" data-name="Grupo 15492" transform="translate(179.022 5.276)">
        <path id="Trazado_40245" data-name="Trazado 40245" d="M2504.213,391.8a.952.952,0,0,0,.852-.527.6.6,0,0,1,.113-.175,1.665,1.665,0,0,1,.214-.042,2.469,2.469,0,0,0,1.691-.955,1.777,1.777,0,0,0,.03-2.078l0-.008c.039-.013.082-.03.117-.042a2.188,2.188,0,0,0,1.613-1.639,3.377,3.377,0,0,0-.2-1.68,3.18,3.18,0,0,1-.162-.7,2.071,2.071,0,0,0,1.577-1.463,3.075,3.075,0,0,0-.452-2.656,1.5,1.5,0,0,1-.314-1.222c.018.057.377-.062.6-.138.672-.232,2.453-.849,1.836-2.7a4.712,4.712,0,0,0-2.3-2.232,4.725,4.725,0,0,1-1.046-.741c.028-.106.284-.86.437-1.311.486-1.429.945-2.777-.143-3.317a1.53,1.53,0,0,0-.645-.165,1.674,1.674,0,0,0-.11-2.341,2.635,2.635,0,0,0-2.04-.577,2.853,2.853,0,0,1-.708-.046,3.884,3.884,0,0,1,.791-1.329c.582-.784,1.378-1.857.811-3.134-.78-1.754-2.36-1.932-3.513-2.062-.791-.089-1.289-.166-1.517-.472-.082-.11-.1-.14.156-.665a2.326,2.326,0,0,0,.122-2.386,2.715,2.715,0,0,0-1.415-1.121c-.112-.049-.2-.088-.281-.129a1.5,1.5,0,0,0-.258-1.178,1.45,1.45,0,0,0-1.15-.536c.016-.036.028-.073.042-.106a2.265,2.265,0,0,0-.542-2.909,3.289,3.289,0,0,0-2.549-.389,3.977,3.977,0,0,1-.953.052c.048-.135.125-.305.183-.434a2.54,2.54,0,0,0,.024-2.755c-1.153-1.441-2.02-1.326-2.87-1.07a1.463,1.463,0,0,1-.889.069.836.836,0,0,1-.344-.137,1.661,1.661,0,0,1-.094-.333,3.4,3.4,0,0,0-.6-1.416c-.6-.795-1.551-.449-2.009-.284a1.8,1.8,0,0,1-.592.16,2.752,2.752,0,0,1-.263-.919,3.554,3.554,0,0,0-1.246-2.392c-.982-.738-2.061-.178-2.847.234-.958.5-1.343.621-1.739.326-.316-.238-.341-.928-.364-1.6a3.289,3.289,0,0,0-.884-2.633,2.873,2.873,0,0,0-2.39-.423,3.382,3.382,0,0,0-.929.314,2.05,2.05,0,0,1-.375.149c-.2.069-.607-.544-.862-.9a3.176,3.176,0,0,0-2.131-1.626,2.45,2.45,0,0,0-1.926.873.952.952,0,0,0,1.346,1.346c.294-.295.439-.321.441-.321a3.757,3.757,0,0,1,.728.847c.575.791,1.438,1.976,2.866,1.627a3.956,3.956,0,0,0,.718-.271,1.667,1.667,0,0,1,.437-.16,1.423,1.423,0,0,1,.872.019c.145.119.171.812.185,1.227a3.627,3.627,0,0,0,1.125,3.051c1.422,1.065,2.832.328,3.763-.162a3.422,3.422,0,0,1,.877-.375h.007c.25.212.339.6.456,1.208a3.481,3.481,0,0,0,.836,1.927,2.252,2.252,0,0,0,2.539.261l.014-.006c.031.1.056.207.083.329a2.2,2.2,0,0,0,1.835,1.9,3.275,3.275,0,0,0,1.9-.093,2.8,2.8,0,0,0,.305-.075s.162.052.53.512a2.729,2.729,0,0,1-.275.786c-.268.6-.9,2,.415,2.792a3.524,3.524,0,0,0,2.338.257,2.066,2.066,0,0,1,1.164.024c.107.177-.026.522-.1.707a2.176,2.176,0,0,0-.011,2.081,1.44,1.44,0,0,0,1.207.6,1.247,1.247,0,0,0,.366,1,3.269,3.269,0,0,0,1.113.7c.348.15.445.2.534.351.035.06-.005.18-.194.559a2.341,2.341,0,0,0,.023,2.655,3.736,3.736,0,0,0,2.828,1.222c1.171.132,1.679.254,1.986.944.107.243-.167.642-.6,1.224a3.689,3.689,0,0,0-1.03,2.939c.3,1.487,1.774,1.471,2.486,1.476.148,0,.353,0,.515.011-.055.066-.115.134-.164.186-.334.374-1.121,1.254-.429,2.18a1.6,1.6,0,0,0,1.475.68c-.086.284-.192.592-.27.824a5.092,5.092,0,0,0-.48,2.364c.177.888,1.018,1.395,1.906,1.932.569.345,1.352.816,1.48,1.205-.022.08-.415.217-.65.3-.695.24-1.642.568-1.842,1.564a3.326,3.326,0,0,0,.537,2.557c.278.472.4.687.266,1.17a.444.444,0,0,1-.261.15,1.736,1.736,0,0,0-1.1.742,2.761,2.761,0,0,0-.048,2.347,2.3,2.3,0,0,1,.154.753c-.055.094-.275.175-.406.224a2.133,2.133,0,0,0-1.3.992,1.8,1.8,0,0,0,.167,1.737c.016.034.039.074.058.113a.678.678,0,0,1-.414.149,2.074,2.074,0,0,0-1.714,1.246.952.952,0,0,0,.426,1.277A.963.963,0,0,0,2504.213,391.8Z" transform="translate(-2471.482 -333.018)" fill="#384154"/>
      </g>
      <g id="Grupo_15493" data-name="Grupo 15493" transform="translate(106.934 81.061)">
        <path id="Trazado_40246" data-name="Trazado 40246" d="M2398.4,555.657a.953.953,0,0,0,.945-.843l.188-1.631c3.5-25.353,5.648-44.2,3.725-73.828-1.065-16.4-5.218-34.916-13.069-58.276a.952.952,0,1,0-1.8.607c7.8,23.2,11.918,41.563,12.973,57.791,1.911,29.448-.229,48.207-3.714,73.467l-.192,1.651a.957.957,0,0,0,.837,1.057C2398.322,555.655,2398.359,555.657,2398.4,555.657Z" transform="translate(-2388.33 -420.432)" fill="#384154"/>
      </g>
      <g id="Grupo_15494" data-name="Grupo 15494" transform="translate(0 247.818)">
        <path id="Trazado_40247" data-name="Trazado 40247" d="M2322.031,710.487c14.044,0,24.247-10.951,28.33-22.483,1.054-2.981,1.83-5.774,2.579-8.476,2.467-8.885,4.417-15.9,14.267-20.867a.951.951,0,0,0-.856-1.7c-10.6,5.34-12.754,13.088-15.245,22.056-.742,2.67-1.51,5.432-2.543,8.35-4.121,11.647-14.828,22.691-29.392,21.055-14.28-1.586-19.8-3.88-27.451-7.054-1.585-.659-3.414-1.352-5.354-2.089-7.177-2.724-16.11-6.115-18.643-10.071-1.512-2.364-.69-5.819.448-10.6a71.143,71.143,0,0,0,2.47-19.552c-.346-13.446,1.823-29.793,3.117-39.557.3-2.254.554-4.174.725-5.657a.952.952,0,1,0-1.892-.219c-.17,1.475-.422,3.385-.721,5.626-1.3,9.82-3.481,26.259-3.133,39.857a69.453,69.453,0,0,1-2.417,19.061c-1.248,5.24-2.148,9.024-.2,12.069,2.871,4.487,11.744,7.855,19.571,10.825,1.92.728,3.73,1.417,5.3,2.068,7.5,3.113,13.421,5.571,27.969,7.187A27.954,27.954,0,0,0,2322.031,710.487Z" transform="translate(-2264.987 -612.781)" fill="#384154"/>
      </g>
      <g id="Grupo_15495" data-name="Grupo 15495" transform="translate(94.537 79.619)">
        <path id="Trazado_40248" data-name="Trazado 40248" d="M2393.571,470.2a.953.953,0,0,0,.807-1.459c-1.718-2.733-3.855-6.135-9.37-7.513a24.539,24.539,0,0,0-2.834-.487c-2.507-.329-4.488-.587-5.966-2.955-1.14-1.822,1.6-5.345,3.6-7.919a21.127,21.127,0,0,0,2.527-3.691c1.851-4.161,1.533-8.533,1.224-12.761a32.66,32.66,0,0,1,.126-8.765c.288-1.44,4.47-3.978,6.12-3.978a.952.952,0,0,0,0-1.9c-2.334,0-7.481,2.973-7.988,5.508a34.6,34.6,0,0,0-.158,9.276c.3,4.178.591,8.123-1.065,11.85a20.9,20.9,0,0,1-2.292,3.3c-2.475,3.184-5.556,7.147-3.711,10.1,1.954,3.129,4.688,3.487,7.332,3.833a23.365,23.365,0,0,1,2.621.446c4.772,1.194,6.6,4.109,8.217,6.68A.955.955,0,0,0,2393.571,470.2Z" transform="translate(-2374.032 -418.769)" fill="#384154"/>
      </g>
      <g id="Grupo_15496" data-name="Grupo 15496" transform="translate(97.129 120.777)">
        <path id="Trazado_40249" data-name="Trazado 40249" d="M2380.663,490.394a.952.952,0,0,0,.85-1.382c-3.208-6.347-2.856-9-2-10.1,1.117-1.434,3.976-1.619,8.722-.565,6.291,1.391,8.134-3.944,9.48-7.837a25.516,25.516,0,0,1,1.123-2.887.952.952,0,1,0-1.7-.852,26.859,26.859,0,0,0-1.218,3.116c-1.595,4.605-2.964,7.554-7.27,6.6-3.541-.782-8.494-1.506-10.636,1.257-1.764,2.271-1.175,6.238,1.8,12.129A.95.95,0,0,0,2380.663,490.394Z" transform="translate(-2377.021 -466.243)" fill="#384154"/>
      </g>
      <g id="Grupo_15497" data-name="Grupo 15497" transform="translate(154.411 133.944)">
        <path id="Trazado_40250" data-name="Trazado 40250" d="M2445.389,582.43a.952.952,0,0,0,.859-.544c1.6-3.349,6.479-15.9,2.4-36.8-2.753-14.1-3.805-32.262-3.632-62.694a.951.951,0,0,0-.947-.957.9.9,0,0,0-.958.947c-.173,30.567.888,48.839,3.666,63.068,3.154,16.157.905,29-2.248,35.622a.954.954,0,0,0,.859,1.362Z" transform="translate(-2443.094 -481.431)" fill="#384154"/>
      </g>
      <g id="Grupo_15498" data-name="Grupo 15498" transform="translate(174.383 133.67)">
        <path id="Trazado_40251" data-name="Trazado 40251" d="M2470.545,575.078a.953.953,0,0,0,.948-.891,53.66,53.66,0,0,0-1.273-16.105,97.931,97.931,0,0,1-2.148-19.3c-.437-19.788,3.1-43.929,5.246-56.556a.953.953,0,0,0-.779-1.1.965.965,0,0,0-1.1.779c-2.158,12.7-5.711,36.972-5.272,56.917a99.558,99.558,0,0,0,2.185,19.63,51.514,51.514,0,0,1,1.241,15.614.952.952,0,0,0,.888,1.012C2470.5,575.078,2470.523,575.078,2470.545,575.078Z" transform="translate(-2466.131 -481.115)" fill="#384154"/>
      </g>
      <g id="Grupo_15499" data-name="Grupo 15499" transform="translate(154.565 138.022)">
        <path id="Trazado_40252" data-name="Trazado 40252" d="M2455.045,579.4a.951.951,0,0,0,.894-.627c4.584-12.634,4.268-28.942,4.011-42.044-.091-4.729-.178-9.2-.034-12.995a164.06,164.06,0,0,1,2.558-21.39c.929-5.442,1.173-7.047.63-7.863-1.423-2.137-4.98-1-8.418.107a14.083,14.083,0,0,1-3.959.942c-2.043-.34-3.766-4.461-4.794-6.923-.32-.764-.6-1.442-.857-1.946a.952.952,0,1,0-1.7.851c.236.474.5,1.111.8,1.83,1.332,3.187,3.158,7.554,6.239,8.067,1.125.193,2.854-.367,4.854-1.007,2.1-.675,5.623-1.8,6.251-.863a51.789,51.789,0,0,1-.922,6.487,165.676,165.676,0,0,0-2.584,21.636c-.146,3.857-.06,8.35.034,13.107.252,12.945.567,29.056-3.9,41.356a.954.954,0,0,0,.9,1.278Z" transform="translate(-2443.272 -486.134)" fill="#384154"/>
      </g>
      <g id="Grupo_15500" data-name="Grupo 15500" transform="translate(160.085 116.49)">
        <path id="Trazado_40253" data-name="Trazado 40253" d="M2450.592,492.737a.95.95,0,0,0,.947-.876c.409-5.066,4.362-6.487,7.537-7.628,1.886-.678,3.375-1.214,3.856-2.452.542-1.394-.271-3.3-1.5-6.2-1.469-3.457-3.481-8.193-3.4-13.318a.952.952,0,0,0-.937-.967.937.937,0,0,0-.967.937c-.084,5.529,2.019,10.478,3.555,14.092.856,2.011,1.738,4.091,1.478,4.761-.167.431-1.587.941-2.726,1.35-3.3,1.187-8.284,2.978-8.791,9.269a.952.952,0,0,0,.872,1.026Z" transform="translate(-2449.638 -461.298)" fill="#384154"/>
      </g>
      <g id="Grupo_15501" data-name="Grupo 15501" transform="translate(282.292 182.901)">
        <path id="Trazado_40254" data-name="Trazado 40254" d="M2605.171,561.707a.952.952,0,0,0,.809-1.454l-13.619-21.9a.953.953,0,1,0-1.619,1l13.62,21.9A.949.949,0,0,0,2605.171,561.707Z" transform="translate(-2590.599 -537.901)" fill="#384154"/>
      </g>
      <g id="Grupo_15502" data-name="Grupo 15502" transform="translate(264.238 180.671)">
        <path id="Trazado_40255" data-name="Trazado 40255" d="M2592,578.091l-22.081-35.608a.95.95,0,0,1,.305-1.309l9.123-5.7a.965.965,0,0,1,.723-.12.954.954,0,0,1,.594.43L2602.5,571.6a.951.951,0,0,1-.312,1.306l-8.878,5.495a.936.936,0,0,1-.5.143A.952.952,0,0,1,2592,578.091ZM2579.539,537.6l-7.5,4.69,21.081,33.992,7.263-4.5Z" transform="translate(-2569.775 -535.328)" fill="#384154"/>
      </g>
      <g id="Grupo_15503" data-name="Grupo 15503" transform="translate(269.049 184.09)">
        <path id="Trazado_40256" data-name="Trazado 40256" d="M2597.8,575.859a.952.952,0,0,0,.809-1.454l-21.523-34.683a.952.952,0,0,0-1.618,1l21.523,34.683A.951.951,0,0,0,2597.8,575.859Z" transform="translate(-2575.325 -539.273)" fill="#384154"/>
      </g>
      <g id="Grupo_15504" data-name="Grupo 15504" transform="translate(281.224 207.627)">
        <path id="Trazado_40257" data-name="Trazado 40257" d="M2590.32,573.126a.939.939,0,0,0,.5-.146l7.679-4.8a.952.952,0,0,0-1.008-1.614l-7.678,4.8a.952.952,0,0,0,.5,1.759Z" transform="translate(-2589.368 -566.421)" fill="#384154"/>
      </g>
      <g id="Grupo_15505" data-name="Grupo 15505" transform="translate(267.227 184.887)">
        <path id="Trazado_40258" data-name="Trazado 40258" d="M2574.175,547.04a.955.955,0,0,0,.51-.148l7.788-4.945a.951.951,0,0,0-1.02-1.607l-7.788,4.944a.952.952,0,0,0,.51,1.756Z" transform="translate(-2573.223 -540.192)" fill="#384154"/>
      </g>
      <g id="Grupo_15506" data-name="Grupo 15506" transform="translate(258.076 189.875)">
        <path id="Trazado_40259" data-name="Trazado 40259" d="M2570.381,557.487a1.724,1.724,0,0,1-1.065-2.048,2.484,2.484,0,0,1-.227-.117,1.545,1.545,0,0,1-.74-1.335,3.313,3.313,0,0,1-1.548-.848,2.118,2.118,0,0,1-.451-1,2.219,2.219,0,0,1-2-.95,1.227,1.227,0,0,1-.045-1.009,1.9,1.9,0,0,1,1.08-.964c-.072.021-.146.042-.225.062a2.451,2.451,0,0,1-.627.133c-.406.005-1.634.026-1.843-.977-.163-.78.491-1.485,1.938-2.092a5.887,5.887,0,0,1,.977-.284l.358-.083a.957.957,0,0,1,1.195,1.032,2.024,2.024,0,0,1,1.43.505,1.613,1.613,0,0,1,.367,1.648,1.554,1.554,0,0,1-.716.908,1,1,0,0,1,.653.4.957.957,0,0,1,.046,1,1.186,1.186,0,0,1-.593.48,4.88,4.88,0,0,0,.817.284,1.048,1.048,0,0,1,1.108.231,1.019,1.019,0,0,1,.221,1.015,2.24,2.24,0,0,1-.15.325,1.4,1.4,0,0,1,.953,1.4c-.026.2-.061.365-.093.513a.151.151,0,0,0-.008.03c.035.024.082.054.14.087a.952.952,0,0,1-.476,1.776A.936.936,0,0,1,2570.381,557.487Zm.694-1.824Zm-1.67-.7,0-.005Zm-.1-2.694h0Zm-4.89-3.627h0Z" transform="translate(-2562.667 -545.946)" fill="#384154"/>
      </g>
      <g id="Grupo_15507" data-name="Grupo 15507" transform="translate(267.036 202.183)">
        <path id="Trazado_40260" data-name="Trazado 40260" d="M2581.768,573.6a1.825,1.825,0,0,0-.336-.621,5.554,5.554,0,0,1-.4-.648,1.917,1.917,0,0,1-1.114-.439,2.078,2.078,0,0,1-.546-1.332,2.913,2.913,0,0,1-1.551-.712,1.569,1.569,0,0,1-.565-1.248,1.339,1.339,0,0,1,.359-.822,2.366,2.366,0,0,1-1.164-.528,1.691,1.691,0,0,1-.59-1.792,1.837,1.837,0,0,1-.909-.458c-.694-.742-.653-1.3-.415-1.72a2.535,2.535,0,0,0-.366-.242,2.03,2.03,0,0,1-1.144-1.281,1.526,1.526,0,0,1,.336-1.249.941.941,0,0,1,1.327-.175.952.952,0,0,1,.342,1l.106.063a2.131,2.131,0,0,1,1.188,1.32,1.885,1.885,0,0,1-.015.89c.082.024.175.047.268.071.59.158,1.259.336,1.363,1.058a1.818,1.818,0,0,1-.227,1.091,2.34,2.34,0,0,0,.479.125c.564.115,1.735.355,1.83,1.56a1.373,1.373,0,0,1-.485,1.134l.228.049a3.719,3.719,0,0,1,.9.266,1.136,1.136,0,0,1,.591,1.143c0,.078,0,.227,0,.333.169.033.362.062.481.08a1.159,1.159,0,0,1,.917.765,2.168,2.168,0,0,0,.343.617,3.329,3.329,0,0,1,.65,1.434.951.951,0,0,1-.811,1.074.99.99,0,0,1-.134.01A.953.953,0,0,1,2581.768,573.6Zm-6.917-11.922h0Z" transform="translate(-2573.002 -560.142)" fill="#384154"/>
      </g>
      <g id="Grupo_15508" data-name="Grupo 15508" transform="translate(252.808 193.766)">
        <path id="Trazado_40261" data-name="Trazado 40261" d="M2566.246,564.384a.936.936,0,0,0,.422-.1.953.953,0,0,0,.531-.827,1.1,1.1,0,0,0-.294-1.365,1.413,1.413,0,0,0-.6-.251,1.572,1.572,0,0,0,.115-.169,1.09,1.09,0,0,0,.013-1.015,1.239,1.239,0,0,0-1.173-.547,5.229,5.229,0,0,1-.577-.121c.569-.643.645-1.223.225-1.724a1.673,1.673,0,0,0-1.352-.476,1.35,1.35,0,0,0,.734-1.025,1,1,0,0,0-.7-1.064,2.042,2.042,0,0,0-1.48.424,7.444,7.444,0,0,1-1.251-.206c.132-.172.31-.368.418-.485.415-.453.932-1.017.586-1.717a.986.986,0,0,0-.936-.543.976.976,0,0,0,.136-.327,1.061,1.061,0,0,0-.7-1.153,1.715,1.715,0,0,0-1.352.091l-.387-1.352.271.914-.3-.9c-.751.221-1.651.575-1.931,1.332a1.3,1.3,0,0,0,.145,1.184,1.656,1.656,0,0,0,1.218.714,1.907,1.907,0,0,0,.185.66,1.332,1.332,0,0,0,.944.7,1.948,1.948,0,0,0-.351,1.267,1.538,1.538,0,0,0,.7,1.113,3.932,3.932,0,0,0,1.148.415,1.435,1.435,0,0,0,.646,1.541,2.464,2.464,0,0,0,1.33.331,1.378,1.378,0,0,0,.385,1.463,2.506,2.506,0,0,0,.686.487h0a1.389,1.389,0,0,0,.12,1.218,1.954,1.954,0,0,0,1.487.766,1.143,1.143,0,0,0,.082.222A.951.951,0,0,0,2566.246,564.384Z" transform="translate(-2556.591 -550.433)" fill="#384154"/>
      </g>
      <g id="Grupo_15509" data-name="Grupo 15509" transform="translate(247.976 196.448)">
        <path id="Trazado_40262" data-name="Trazado 40262" d="M2558.423,566.077a.953.953,0,0,1-.636-.682,1.982,1.982,0,0,1-1.579-1.683,1.192,1.192,0,0,1,.048-.562,1.478,1.478,0,0,1-1.056-1.129,1.324,1.324,0,0,1,.292-1.01,10.839,10.839,0,0,1-1.5-.619,1.465,1.465,0,0,1-.836-1.255,2.228,2.228,0,0,1-1.625-.765,1.827,1.827,0,0,1-.471-1.4,1.488,1.488,0,0,1,.175-.537,1.6,1.6,0,0,1-.178-1.168,2.425,2.425,0,0,1,1.926-1.714.944.944,0,0,1,1.146.707,1.2,1.2,0,0,0,.273,1.731,1.028,1.028,0,0,1-.567.883,3.334,3.334,0,0,1-.615.234l-.023.015c-.031.024-.069.052-.107.08a3.952,3.952,0,0,0,.694.06,6.783,6.783,0,0,1,.7.042,1.412,1.412,0,0,1,.95-.018,1.015,1.015,0,0,1,.666,1.156.924.924,0,0,1-.443.6,7.129,7.129,0,0,0,.963.305c.688.132,1.551.42,1.752,1.032a.982.982,0,0,1-.213.958,1.887,1.887,0,0,1-.4.32,1.424,1.424,0,0,1,1,1.1,1.01,1.01,0,0,1-.26.854,1.564,1.564,0,0,1,1.038.734,1.439,1.439,0,0,1,.05,1.163.9.9,0,0,1-.867.609A1.039,1.039,0,0,1,2558.423,566.077Zm-1.417-3.909Z" transform="translate(-2551.017 -553.527)" fill="#384154"/>
      </g>
      <g id="Grupo_15510" data-name="Grupo 15510" transform="translate(277.38 218.077)">
        <path id="Trazado_40263" data-name="Trazado 40263" d="M2588.016,584.734a1.28,1.28,0,0,1-.458-.966.683.683,0,0,1,.017-.115.388.388,0,0,1-.035-.023,3.069,3.069,0,0,1-.844-.733,1.292,1.292,0,0,1-.191-.85,1.989,1.989,0,0,1-.923-1.03,1.145,1.145,0,0,1-.069-.329,1.193,1.193,0,0,1-.4-.411,1.367,1.367,0,0,1-.08-1.181.923.923,0,0,1,1.17-.575.943.943,0,0,1,.6.577,1.333,1.333,0,0,1,.939.7,1.062,1.062,0,0,1,.041.747,1.579,1.579,0,0,1,.867.718,1.075,1.075,0,0,1,.046.848c.607.43,1.04.755.992,1.376a1.542,1.542,0,0,1-.067.341.952.952,0,0,1-1.6.908Zm-.054-1.739,0,0Zm-1.15-3.282h0Z" transform="translate(-2584.934 -578.476)" fill="#384154"/>
      </g>
      <g id="Grupo_15511" data-name="Grupo 15511" transform="translate(263.515 209.807)">
        <path id="Trazado_40264" data-name="Trazado 40264" d="M2571.7,573.735a1.511,1.511,0,0,1-.69-.9,2.065,2.065,0,0,1-1.069-.609,1.405,1.405,0,0,1-.394-.868,1.308,1.308,0,0,1-.331-.3,1.437,1.437,0,0,1-.223-1.277c.1-.42.463-1.085,1.938-.757a.952.952,0,0,1,.929.958,1,1,0,0,1-.013.153.957.957,0,0,1,.192.584.876.876,0,0,1-.076.331,3.063,3.063,0,0,1,.307.19,1.392,1.392,0,0,1,.543.963.952.952,0,0,1-.635,1.66A.936.936,0,0,1,2571.7,573.735Zm.954-1.647h0Z" transform="translate(-2568.941 -568.936)" fill="#384154"/>
      </g>
    </g>
  </g>
</svg>
