<svg xmlns="http://www.w3.org/2000/svg" width="1076" height="321" viewBox="0 0 1076 321">
  <g id="Grupo_16772" data-name="Grupo 16772" transform="translate(-422 -8940)">
    <g id="Grupo_15570" data-name="Grupo 15570" transform="translate(0 2230)">
      <rect id="Rectángulo_4246" data-name="Rectángulo 4246" width="1076" height="6" transform="translate(422 7025)" fill="#0f3384"/>
    </g>
    <g id="Grupo_15571" data-name="Grupo 15571" transform="translate(-1989.905 5881.647)">
      <g id="Grupo_15577" data-name="Grupo 15577">
        <g id="Grupo_15576" data-name="Grupo 15576">
          <g id="Grupo_15575" data-name="Grupo 15575">
            <g id="Grupo_15574" data-name="Grupo 15574">
              <g id="Grupo_15573" data-name="Grupo 15573" opacity="0.6">
                <g id="Grupo_15572" data-name="Grupo 15572">
                  <path id="Trazado_40550" data-name="Trazado 40550" d="M2671.9,3371.074s-13.055-49.951,32.229-96.265,9.919-78.391,32.778-141.046c14.3-39.2,52.838-74.852,129.284-75.407s95.879,59.887,127.193,68.754c56.79,16.079,87.073-9.774,123.638,17.743,47.155,35.485,7.686,93.72,15.353,131.446,10.969,53.975,38.416,58.073,37.266,94.775" fill="#dceef7"/>
                  <path id="Trazado_40551" data-name="Trazado 40551" d="M3137.459,3257.414a85.759,85.759,0,0,0,4.313,36.152c6.685,19.705,17.252,33.5,29.544,33.151s14.449-20.494,6.47-40.049-3.235-36.256-8.411-49.114S3137.675,3227.131,3137.459,3257.414Z" fill="#dceef7"/>
                  <path id="Trazado_40552" data-name="Trazado 40552" d="M2714.511,3220.379a66.568,66.568,0,0,1-10.134,31.185,98.911,98.911,0,0,1-21.517,24.236c-7.959,6.321-26.561.156-10.828-24.236s24.071-32.727,24.946-43.725S2715.763,3197.771,2714.511,3220.379Z" fill="#dceef7"/>
                </g>
              </g>
            </g>
          </g>
        </g>
      </g>
      <g id="Grupo_15587" data-name="Grupo 15587">
        <g id="Grupo_15580" data-name="Grupo 15580">
          <g id="Grupo_15578" data-name="Grupo 15578">
            <path id="Trazado_40553" data-name="Trazado 40553" d="M2843.214,3349.419a1.435,1.435,0,0,1-.334-.039c-26.074-.495-52.361-6.224-52.361-16.267-.049-1.833-.073-3.706-.1-5.582-.041-3.095-.082-6.2-.23-9.289l-.414-8.157c-1.706-33.04-3.273-68.8-.257-74.846,2.637-5.29,7.326-8.752,11.859-12.1,3.933-2.9,7.646-5.645,9.982-9.429,1.318-2.284,6.815-21.2,5.423-24.061a1.4,1.4,0,0,1,.258-2.782h55.652a1.4,1.4,0,0,1,.257,2.782c-1.388,2.856,4.109,21.777,5.426,24.068,2.333,3.777,6.047,6.518,9.98,9.422,4.533,3.346,9.222,6.808,11.859,12.1,3.013,6.043,1.452,41.765-.252,74.773-.161,3.144-.3,5.934-.416,8.23-.148,3.077-.189,6.164-.23,9.244-.028,1.891-.052,3.781-.1,5.664,0,10.009-26.3,15.738-52.376,16.23a1.308,1.308,0,0,1-.318.039l-1.969-.011Z" fill="#8cd4ec"/>
            <path id="Trazado_40554" data-name="Trazado 40554" d="M2846.212,3313.91a192.826,192.826,0,0,1-53.977-7.509c-.743-.216-1.231-.7-1.255-1.246l-2.773-63.57a1.3,1.3,0,0,1,.812-1.151,2.756,2.756,0,0,1,1.267-.292,3.006,3.006,0,0,1,.588.057c.3.061,30.284,5.968,61.619,5.968,18.27,0,33.394-1.977,44.957-5.877a2.921,2.921,0,0,1,.929-.148,2.833,2.833,0,0,1,1.092.21,1.393,1.393,0,0,1,.987,1.192v64.037c0,.54-.459,1.031-1.181,1.266C2898.383,3307.134,2877.052,3313.91,2846.212,3313.91Z" fill="#fff"/>
            <path id="Trazado_40555" data-name="Trazado 40555" d="M2901.471,3234.613c-2.788-5.592-7.614-9.155-12.282-12.6-3.82-2.82-7.429-5.484-9.623-9.037-1.327-2.6-5.834-18.24-5.384-22.323a2.8,2.8,0,0,0-1.472-5.185h-55.669a2.8,2.8,0,0,0-1.486,5.183c.45,4.081-4.059,19.729-5.429,22.4-2.15,3.475-5.758,6.139-9.579,8.959-4.667,3.446-9.493,7.009-12.282,12.6-2.857,5.729-2.077,33.133.107,75.492.162,3.135.306,5.915.416,8.205.147,3.054.189,6.19.23,9.223.026,1.888.051,3.773.1,5.653,0,11.363,27.713,17.087,53.624,17.593a2.641,2.641,0,0,0,.47.042h0l1.239-.009.439,0,.387,0,1.239.009h0a2.8,2.8,0,0,0,.483-.042c25.907-.508,53.612-6.232,53.612-17.667.049-1.805.074-3.691.1-5.578.041-3.033.084-6.17.231-9.224.11-2.29.253-5.07.415-8.205C2903.549,3267.746,2904.329,3240.342,2901.471,3234.613Zm-3.324,83.563c-.239,4.975-.2,9.977-.332,14.936,0,7.908-22.66,14.373-51.291,14.871v.034c-.556,0-1.1-.009-1.656-.014s-1.1.013-1.655.014v-.034c-28.632-.5-51.291-6.963-51.291-14.871-.13-4.959-.093-9.961-.333-14.936-.946-19.651-4.326-75.269-.814-82.312,4.688-9.4,16.5-12.865,21.782-21.415,1.058-1.713,8.818-26.177,4.484-26.177H2872.7c-4.333,0,3.427,24.464,4.485,26.177,5.28,8.55,17.093,12.014,21.782,21.415C2902.474,3242.907,2899.093,3298.525,2898.147,3318.176Z" fill="#3e022f"/>
            <path id="Trazado_40556" data-name="Trazado 40556" d="M2900.565,3239.159a5.741,5.741,0,0,0-2.186-.419,5.853,5.853,0,0,0-1.859.3c-11.27,3.8-26.082,5.729-44.026,5.729-31.065,0-60.732-5.851-61.028-5.91a6.085,6.085,0,0,0-1.18-.115,5.561,5.561,0,0,0-2.537.583,2.6,2.6,0,0,0-1.619,2.3l2.772,63.569c.047,1.089,1.025,2.06,2.506,2.492a195.777,195.777,0,0,0,54.806,7.625c31.3,0,53.05-6.908,53.961-7.2,1.443-.467,2.361-1.45,2.361-2.53v-64.036A2.787,2.787,0,0,0,2900.565,3239.159Zm-2.186,66.422s-21.445,6.927-52.165,6.927a190.179,190.179,0,0,1-53.156-7.394l-2.772-63.569s30.182,6.024,62.207,6.024c16.016,0,32.489-1.505,45.886-6.024Z" fill="#3e022f"/>
            <path id="Trazado_40557" data-name="Trazado 40557" d="M2844.868,3191.924c-24.882,0-50.618-6.627-50.618-17.715s25.736-17.714,50.618-17.714,50.621,6.626,50.621,17.714S2869.75,3191.924,2844.868,3191.924Z" fill="#8cd4ec"/>
            <path id="Trazado_40558" data-name="Trazado 40558" d="M2844.868,3155.093c-25.219,0-52.022,6.7-52.022,19.117s26.8,19.116,52.022,19.116,52.023-6.7,52.023-19.116S2870.087,3155.093,2844.868,3155.093Zm0,35.429c-27.182,0-49.217-7.3-49.217-16.312s22.035-16.313,49.217-16.313,49.218,7.3,49.218,16.313S2872.05,3190.522,2844.868,3190.522Z" fill="#3e022f"/>
            <path id="Trazado_40559" data-name="Trazado 40559" d="M2844.868,3185.174c-24.54,0-50.618-5.124-50.618-14.621s26.078-14.62,50.618-14.62,50.621,5.125,50.621,14.62S2869.407,3185.174,2844.868,3185.174Z" fill="#00bede"/>
            <path id="Trazado_40560" data-name="Trazado 40560" d="M2854.216,3180.5c-24.539,0-50.618-5.124-50.618-14.621a6.348,6.348,0,0,1,2.232-4.509c-6.494,2.344-10.646,5.413-10.646,9.183,0,9.5,26.079,14.621,50.619,14.621,20.307,0,41.624-3.519,48.389-10.111C2884.33,3178.624,2869.013,3180.5,2854.216,3180.5Z" opacity="0.2"/>
            <path id="Trazado_40561" data-name="Trazado 40561" d="M2844.868,3154.53c-25.055,0-52.022,5.014-52.022,16.023s26.967,16.023,52.022,16.023,52.023-5.014,52.023-16.023S2869.924,3154.53,2844.868,3154.53Zm0,29.242c-27.182,0-49.217-5.918-49.217-13.219s22.035-13.218,49.217-13.218,49.218,5.918,49.218,13.218S2872.05,3183.772,2844.868,3183.772Z" fill="#3e022f"/>
            <path id="Trazado_40562" data-name="Trazado 40562" d="M2843.742,3175.205c-16.126,0-32.446-3.037-32.893-8.843l-11.188-33.982a1.352,1.352,0,0,1,.2-1.23,1.413,1.413,0,0,1,1.134-.565h87.748a1.409,1.409,0,0,1,1.156.6,1.347,1.347,0,0,1,.151,1.273l-13.418,33.952C2876.107,3172.184,2859.827,3175.205,2843.742,3175.205Z" fill="#ffac51"/>
            <path id="Trazado_40563" data-name="Trazado 40563" d="M2853.558,3168.661c-16.126,0-32.446-3.037-32.893-8.843l-9.778-29.7H2802.4a1.411,1.411,0,0,0-1.134.564,1.349,1.349,0,0,0-.2,1.231l11.188,33.981c.446,5.807,16.767,8.843,32.893,8.843,16.085,0,32.364-3.02,32.89-8.8l.043-.109C2871.744,3167.7,2862.621,3168.661,2853.558,3168.661Z" opacity="0.2"/>
            <path id="Trazado_40564" data-name="Trazado 40564" d="M2889.1,3128.883h-.014l-87.739-1.264a2.8,2.8,0,0,0-2.722,3.627l10.643,34.694c.876,9.88,30.676,10.6,34.127,10.648s33.061.188,34.408-9.564l13.775-34.119a2.8,2.8,0,0,0-2.478-4.022Zm-14.055,37.48c-.062,4.349-14.215,7.671-31.609,7.42s-31.445-3.978-31.383-8.327l-10.746-35.032,87.738,1.263Z" fill="#3e022f"/>
            <path id="Trazado_40565" data-name="Trazado 40565" d="M2844.868,3140.33c-15.66,0-45.275-1.939-45.275-9.277s29.615-9.276,45.275-9.276,45.278,1.939,45.278,9.276S2860.528,3140.33,2844.868,3140.33Z" fill="#9b3335"/>
            <path id="Trazado_40566" data-name="Trazado 40566" d="M2851.746,3137.348c-15.648-.64-45.158-3.787-44.859-11.119a2.756,2.756,0,0,1,.332-1.167c-4.475,1.16-7.416,2.8-7.509,5.084-.3,7.332,29.211,10.479,44.858,11.119,14.772.6,42.027-.014,45.287-6.253C2879.951,3137.58,2862.523,3137.788,2851.746,3137.348Z" opacity="0.2"/>
            <path id="Trazado_40567" data-name="Trazado 40567" d="M2876.387,3122.724a212.537,212.537,0,0,0-63.038,0c-10.484,1.882-15.159,4.451-15.159,8.329s4.675,6.447,15.159,8.329a212.559,212.559,0,0,0,63.038,0c10.484-1.882,15.16-4.451,15.16-8.329S2886.871,3124.606,2876.387,3122.724Zm-31.519,16.2c-24.231,0-43.874-3.526-43.874-7.875s19.643-7.875,43.874-7.875,43.874,3.526,43.874,7.875S2869.1,3138.928,2844.868,3138.928Z" fill="#3e022f"/>
            <path id="Trazado_40568" data-name="Trazado 40568" d="M2852.288,3125.911s23.371-.935,33.654,5.141Z" fill="#fff"/>
            <path id="Trazado_40569" data-name="Trazado 40569" d="M2852.756,3144.607s24.773-.467,29.447-3.739l-7.946,21.5,4.207-17.763S2863.506,3146.945,2852.756,3144.607Z" fill="#fff"/>
          </g>
          <g id="Grupo_15579" data-name="Grupo 15579">
            <path id="Trazado_40570" data-name="Trazado 40570" d="M2808.644,3273.564h3.2v15.4h-3.2v-6.328h-6.509v6.328h-3.2v-15.4h3.2v6.286h6.509Z"/>
            <path id="Trazado_40571" data-name="Trazado 40571" d="M2816.957,3294.628h3.826v1.6h-6.329v-1.348l3.572-3.646a2.251,2.251,0,0,0,.776-1.547,1.1,1.1,0,0,0-.32-.832,1.259,1.259,0,0,0-.9-.3q-1.273,0-1.273,1.447v.665l-1.783-.181v-.447a2.8,2.8,0,0,1,.82-2.158,3.142,3.142,0,0,1,2.224-.761,3.291,3.291,0,0,1,2.164.689,2.326,2.326,0,0,1,.836,1.9,2.675,2.675,0,0,1-.283,1.229,5.109,5.109,0,0,1-.9,1.2Z"/>
            <path id="Trazado_40572" data-name="Trazado 40572" d="M2828.535,3289.172a7.438,7.438,0,0,1-4.272-1.177,4.724,4.724,0,0,1-2.078-3.3l3.3-.756a2.807,2.807,0,0,0,1.017,1.944,3.378,3.378,0,0,0,2.158.677,2.784,2.784,0,0,0,1.683-.474,1.6,1.6,0,0,0,.639-1.4,1.5,1.5,0,0,0-.543-1.14,3.553,3.553,0,0,0-1.081-.7q-.539-.209-1.731-.57c-.107-.035-.185-.06-.235-.074q-.608-.192-.98-.32t-.921-.357a6.181,6.181,0,0,1-.895-.447,6.579,6.579,0,0,1-.741-.555,2.873,2.873,0,0,1-.618-.708,3.809,3.809,0,0,1-.373-.884,3.927,3.927,0,0,1-.149-1.1,4.121,4.121,0,0,1,.719-2.423,4.409,4.409,0,0,1,1.939-1.545,7.053,7.053,0,0,1,2.775-.517,8.783,8.783,0,0,1,2.009.224,7.039,7.039,0,0,1,1.8.687,4.4,4.4,0,0,1,1.433,1.268,4.76,4.76,0,0,1,.815,1.87l-3.09.766a2.5,2.5,0,0,0-2.77-2.205,3.029,3.029,0,0,0-1.715.448,1.516,1.516,0,0,0-.671,1.353q0,.842,1.119,1.363a16.538,16.538,0,0,0,2.141.736q.628.19,1.023.319t.991.373a6.979,6.979,0,0,1,.969.474,7.176,7.176,0,0,1,.81.592,3.182,3.182,0,0,1,.687.767,4.175,4.175,0,0,1,.421.953,4.007,4.007,0,0,1,.17,1.188,4.669,4.669,0,0,1-.309,1.737,3.778,3.778,0,0,1-.847,1.31,4.912,4.912,0,0,1-1.273.9,6.182,6.182,0,0,1-1.566.533A9.025,9.025,0,0,1,2828.535,3289.172Z"/>
            <path id="Trazado_40573" data-name="Trazado 40573" d="M2844.057,3289.172a8.362,8.362,0,0,1-4.042-.964,6.994,6.994,0,0,1-2.808-2.775,9.048,9.048,0,0,1,0-8.358,6.962,6.962,0,0,1,2.808-2.765,8.989,8.989,0,0,1,8.08,0,6.972,6.972,0,0,1,2.8,2.765,9.048,9.048,0,0,1,0,8.358,6.992,6.992,0,0,1-2.807,2.775A8.346,8.346,0,0,1,2844.057,3289.172Zm-3.366-4.277a4.881,4.881,0,0,0,6.733,0,5.649,5.649,0,0,0,0-7.261,4.891,4.891,0,0,0-6.733,0,5.65,5.65,0,0,0,0,7.261Z"/>
            <path id="Trazado_40574" data-name="Trazado 40574" d="M2860.141,3292.926v1.6h-1.08v1.7h-1.789v-1.7h-4.131v-1.6l3.181-5.671h2.739v5.677Zm-5.341,0h2.472v-4.6Z"/>
            <path id="Trazado_40575" data-name="Trazado 40575" d="M2865.823,3286.221h6.563v2.738H2861.53v-2.312l6.126-6.253a3.855,3.855,0,0,0,1.331-2.653,1.876,1.876,0,0,0-.548-1.428,2.162,2.162,0,0,0-1.55-.522q-2.184,0-2.184,2.482v1.14l-3.058-.309v-.767a4.8,4.8,0,0,1,1.406-3.7,5.387,5.387,0,0,1,3.814-1.3,5.64,5.64,0,0,1,3.713,1.183,3.986,3.986,0,0,1,1.433,3.249,4.609,4.609,0,0,1-.485,2.109,8.813,8.813,0,0,1-1.539,2.057Z"/>
            <path id="Trazado_40576" data-name="Trazado 40576" d="M2886,3273.564h3.185v15.4h-3.7l-6.818-11v11h-3.186v-15.4h3.655l6.861,10.942Z"/>
          </g>
        </g>
        <g id="Grupo_15583" data-name="Grupo 15583">
          <g id="Grupo_15581" data-name="Grupo 15581">
            <path id="Trazado_40577" data-name="Trazado 40577" d="M2892.771,3372.133a1.387,1.387,0,0,1-.334-.04c-26.074-.494-52.361-6.224-52.361-16.267-.049-1.832-.073-3.7-.1-5.581-.041-3.1-.082-6.2-.23-9.289l-.414-8.157c-1.706-33.04-3.273-68.8-.257-74.846,2.637-5.29,7.326-8.752,11.859-12.1,3.933-2.9,7.647-5.644,9.983-9.428,1.317-2.284,6.814-21.2,5.423-24.062a1.4,1.4,0,0,1,.257-2.781h55.652a1.4,1.4,0,0,1,.258,2.781c-1.389,2.857,4.108,21.778,5.425,24.069,2.334,3.777,6.048,6.518,9.98,9.421,4.533,3.347,9.222,6.809,11.859,12.1,3.013,6.043,1.452,41.765-.251,74.773-.162,3.144-.3,5.934-.417,8.23-.148,3.077-.189,6.164-.23,9.243-.027,1.892-.052,3.781-.1,5.664,0,10.009-26.3,15.739-52.377,16.23a1.261,1.261,0,0,1-.318.04l-1.969-.011Z" fill="#8cd4ec"/>
            <path id="Trazado_40578" data-name="Trazado 40578" d="M2895.77,3336.624a192.845,192.845,0,0,1-53.978-7.509c-.743-.216-1.23-.7-1.255-1.246l-2.773-63.57a1.3,1.3,0,0,1,.812-1.152,2.759,2.759,0,0,1,1.267-.291,3.023,3.023,0,0,1,.589.057c.3.06,30.283,5.968,61.618,5.968,18.27,0,33.394-1.977,44.957-5.877a2.927,2.927,0,0,1,.929-.148,2.856,2.856,0,0,1,1.092.209,1.4,1.4,0,0,1,.987,1.193v64.037c0,.54-.458,1.031-1.181,1.265C2947.941,3329.848,2926.609,3336.624,2895.77,3336.624Z" fill="#fff"/>
            <path id="Trazado_40579" data-name="Trazado 40579" d="M2951.029,3257.326c-2.789-5.591-7.615-9.154-12.283-12.6-3.82-2.82-7.428-5.484-9.623-9.037-1.327-2.6-5.833-18.24-5.384-22.324a2.8,2.8,0,0,0-1.472-5.184H2866.6a2.8,2.8,0,0,0-1.486,5.183c.45,4.081-4.059,19.728-5.429,22.4-2.15,3.476-5.758,6.14-9.578,8.96-4.668,3.446-9.494,7.009-12.283,12.6-2.857,5.729-2.077,33.133.108,75.492.161,3.135.305,5.915.415,8.2.147,3.053.19,6.19.23,9.222.026,1.888.051,3.774.1,5.654,0,11.363,27.713,17.087,53.624,17.593a2.626,2.626,0,0,0,.47.042h0l1.238-.009.439,0,.388,0,1.238.009h0a2.772,2.772,0,0,0,.483-.042c25.907-.508,53.612-6.233,53.612-17.667.049-1.806.074-3.691.1-5.578.041-3.034.083-6.17.23-9.224.11-2.29.254-5.071.415-8.206C2953.106,3290.46,2953.886,3263.056,2951.029,3257.326Zm-3.324,83.563c-.24,4.976-.2,9.978-.333,14.937,0,7.908-22.66,14.373-51.291,14.871v.033c-.555,0-1.1-.008-1.655-.013s-1.1.013-1.656.013v-.033c-28.631-.5-51.291-6.963-51.291-14.871-.13-4.959-.093-9.961-.333-14.937-.945-19.651-4.326-75.268-.814-82.311,4.688-9.4,16.5-12.865,21.782-21.416,1.058-1.713,8.818-26.177,4.484-26.177h55.655c-4.334,0,3.426,24.464,4.484,26.177,5.281,8.551,17.094,12.014,21.782,21.416C2952.031,3265.621,2948.651,3321.238,2947.705,3340.889Z" fill="#3e022f"/>
            <path id="Trazado_40580" data-name="Trazado 40580" d="M2950.122,3261.873a5.718,5.718,0,0,0-2.186-.419,5.855,5.855,0,0,0-1.859.3c-11.269,3.8-26.082,5.728-44.026,5.728-31.064,0-60.732-5.85-61.028-5.909a6.062,6.062,0,0,0-1.18-.115,5.573,5.573,0,0,0-2.536.582,2.6,2.6,0,0,0-1.619,2.305l2.771,63.569c.048,1.089,1.025,2.06,2.506,2.492a195.784,195.784,0,0,0,54.806,7.624c31.3,0,53.051-6.908,53.961-7.2,1.443-.466,2.362-1.449,2.362-2.529v-64.037A2.787,2.787,0,0,0,2950.122,3261.873Zm-2.186,66.422s-21.445,6.927-52.165,6.927a190.184,190.184,0,0,1-53.156-7.4l-2.772-63.569s30.183,6.025,62.207,6.025c16.016,0,32.489-1.506,45.886-6.025Z" fill="#3e022f"/>
            <path id="Trazado_40581" data-name="Trazado 40581" d="M2894.425,3214.637c-24.882,0-50.618-6.626-50.618-17.714s25.736-17.714,50.618-17.714,50.621,6.626,50.621,17.714S2919.307,3214.637,2894.425,3214.637Z" fill="#8cd4ec"/>
            <path id="Trazado_40582" data-name="Trazado 40582" d="M2894.426,3177.807c-25.22,0-52.023,6.7-52.023,19.116s26.8,19.117,52.023,19.117,52.022-6.7,52.022-19.117S2919.645,3177.807,2894.426,3177.807Zm0,35.429c-27.183,0-49.218-7.3-49.218-16.313s22.035-16.312,49.218-16.312,49.217,7.3,49.217,16.312S2921.608,3213.236,2894.426,3213.236Z" fill="#3e022f"/>
            <path id="Trazado_40583" data-name="Trazado 40583" d="M2894.425,3207.888c-24.539,0-50.618-5.125-50.618-14.621s26.079-14.62,50.618-14.62,50.621,5.124,50.621,14.62S2918.965,3207.888,2894.425,3207.888Z" fill="#00bede"/>
            <path id="Trazado_40584" data-name="Trazado 40584" d="M2903.774,3203.213c-24.54,0-50.619-5.124-50.619-14.62a6.353,6.353,0,0,1,2.232-4.51c-6.494,2.345-10.645,5.414-10.645,9.184,0,9.5,26.078,14.621,50.618,14.621,20.307,0,41.624-3.519,48.389-10.111C2933.887,3201.338,2918.57,3203.213,2903.774,3203.213Z" opacity="0.2"/>
            <path id="Trazado_40585" data-name="Trazado 40585" d="M2894.426,3177.244c-25.056,0-52.023,5.014-52.023,16.023s26.967,16.023,52.023,16.023,52.022-5.014,52.022-16.023S2919.481,3177.244,2894.426,3177.244Zm0,29.242c-27.183,0-49.218-5.919-49.218-13.219s22.035-13.218,49.218-13.218,49.217,5.918,49.217,13.218S2921.608,3206.486,2894.426,3206.486Z" fill="#3e022f"/>
            <path id="Trazado_40586" data-name="Trazado 40586" d="M2893.3,3197.918c-16.125,0-32.446-3.036-32.892-8.843l-11.188-33.981a1.348,1.348,0,0,1,.2-1.23,1.413,1.413,0,0,1,1.134-.565H2938.3a1.407,1.407,0,0,1,1.155.6,1.347,1.347,0,0,1,.151,1.273l-13.417,33.952C2925.664,3194.9,2909.384,3197.918,2893.3,3197.918Z" fill="#ffac51"/>
            <path id="Trazado_40587" data-name="Trazado 40587" d="M2903.115,3191.374c-16.126,0-32.446-3.036-32.892-8.843l-9.779-29.7h-8.489a1.413,1.413,0,0,0-1.134.565,1.346,1.346,0,0,0-.2,1.23l11.188,33.982c.446,5.806,16.767,8.843,32.893,8.843,16.085,0,32.364-3.02,32.89-8.8l.043-.11C2921.3,3190.415,2912.178,3191.374,2903.115,3191.374Z" opacity="0.2"/>
            <path id="Trazado_40588" data-name="Trazado 40588" d="M2938.657,3151.6h-.014l-87.739-1.263a2.806,2.806,0,0,0-2.722,3.627l10.643,34.694c.876,9.88,30.677,10.6,34.127,10.647s33.061.188,34.408-9.563l13.775-34.119a2.8,2.8,0,0,0-2.478-4.022Zm-14.055,37.48c-.062,4.349-14.214,7.671-31.609,7.42s-31.445-3.978-31.383-8.327l-10.746-35.033,87.739,1.264Z" fill="#3e022f"/>
            <path id="Trazado_40589" data-name="Trazado 40589" d="M2894.425,3163.044c-15.66,0-45.275-1.939-45.275-9.277s29.615-9.277,45.275-9.277,45.278,1.939,45.278,9.277S2910.086,3163.044,2894.425,3163.044Z" fill="#9b3335"/>
            <path id="Trazado_40590" data-name="Trazado 40590" d="M2901.3,3160.062c-15.647-.64-45.158-3.787-44.858-11.119a2.722,2.722,0,0,1,.332-1.167c-4.476,1.16-7.416,2.8-7.51,5.084-.3,7.332,29.211,10.479,44.859,11.119,14.771.6,42.027-.015,45.287-6.253C2929.508,3160.293,2912.08,3160.5,2901.3,3160.062Z" opacity="0.2"/>
            <path id="Trazado_40591" data-name="Trazado 40591" d="M2925.945,3145.438a212.458,212.458,0,0,0-63.039,0c-10.484,1.882-15.159,4.45-15.159,8.329s4.675,6.447,15.159,8.328a212.458,212.458,0,0,0,63.039,0c10.484-1.881,15.159-4.45,15.159-8.328S2936.429,3147.32,2925.945,3145.438Zm-31.519,16.2c-24.231,0-43.875-3.526-43.875-7.875s19.644-7.875,43.875-7.875,43.874,3.526,43.874,7.875S2918.657,3161.642,2894.426,3161.642Z" fill="#3e022f"/>
            <path id="Trazado_40592" data-name="Trazado 40592" d="M2901.845,3148.624s23.372-.934,33.655,5.142Z" fill="#fff"/>
            <path id="Trazado_40593" data-name="Trazado 40593" d="M2902.313,3167.321s24.773-.467,29.447-3.739l-7.946,21.5,4.207-17.762S2913.064,3169.658,2902.313,3167.321Z" fill="#fff"/>
          </g>
          <g id="Grupo_15582" data-name="Grupo 15582">
            <path id="Trazado_40594" data-name="Trazado 40594" d="M2858.587,3295.213h3.224v15.532h-3.224v-6.385h-6.568v6.385h-3.224v-15.532h3.224v6.342h6.568Z"/>
            <path id="Trazado_40595" data-name="Trazado 40595" d="M2876.44,3295.213h3.214v15.532h-3.73l-6.879-11.1v11.1h-3.214v-15.532h3.687l6.922,11.038Z"/>
            <path id="Trazado_40596" data-name="Trazado 40596" d="M2890.553,3310.959a8.447,8.447,0,0,1-4.079-.972,7.057,7.057,0,0,1-2.832-2.8,9.13,9.13,0,0,1,0-8.433,7.029,7.029,0,0,1,2.832-2.789,9.075,9.075,0,0,1,8.153,0,7.037,7.037,0,0,1,2.827,2.789,9.13,9.13,0,0,1,0,8.433,7.059,7.059,0,0,1-2.832,2.8A8.428,8.428,0,0,1,2890.553,3310.959Zm-3.4-4.315a4.922,4.922,0,0,0,6.793,0,5.7,5.7,0,0,0,0-7.325,4.934,4.934,0,0,0-6.793,0,5.7,5.7,0,0,0,0,7.325Z"/>
            <path id="Trazado_40597" data-name="Trazado 40597" d="M2903.259,3318.2a3.251,3.251,0,0,1-2.469-.827,3.59,3.59,0,0,1-.777-2.532l1.848-.082a6.515,6.515,0,0,0,.029.664,2.281,2.281,0,0,0,.112.514.929.929,0,0,0,.239.386,1.088,1.088,0,0,0,.407.222,1.987,1.987,0,0,0,.611.081,1.466,1.466,0,0,0,1.068-.363,1.266,1.266,0,0,0,.373-.952,1.281,1.281,0,0,0-.357-.981,1.342,1.342,0,0,0-.959-.335h-.351v-1.4h.326a.979.979,0,0,0,.749-.32,1.139,1.139,0,0,0,.3-.808.912.912,0,0,0-.326-.752,1.332,1.332,0,0,0-.859-.263,1.279,1.279,0,0,0-.489.085.93.93,0,0,0-.329.215.965.965,0,0,0-.194.333,1.743,1.743,0,0,0-.094.4,3.855,3.855,0,0,0-.022.438l-1.823-.087a2.9,2.9,0,0,1,.777-2.178,2.959,2.959,0,0,1,2.156-.755,3.078,3.078,0,0,1,2.067.692,2.171,2.171,0,0,1,.815,1.721,1.956,1.956,0,0,1-.348,1.165,1.985,1.985,0,0,1-.793.689,2.24,2.24,0,0,1,.577.257,2.361,2.361,0,0,1,.5.433,1.94,1.94,0,0,1,.372.658,2.639,2.639,0,0,1,.138.877,2.561,2.561,0,0,1-.9,2.046A3.532,3.532,0,0,1,2903.259,3318.2Z"/>
            <path id="Trazado_40598" data-name="Trazado 40598" d="M2918.231,3307.982h6.622v2.763H2913.9v-2.333l6.18-6.309a3.889,3.889,0,0,0,1.344-2.677,1.893,1.893,0,0,0-.554-1.44,2.18,2.18,0,0,0-1.564-.527q-2.2,0-2.2,2.505v1.15l-3.085-.312v-.774a4.844,4.844,0,0,1,1.419-3.735,5.433,5.433,0,0,1,3.848-1.317,5.7,5.7,0,0,1,3.746,1.193,4.023,4.023,0,0,1,1.445,3.279,4.649,4.649,0,0,1-.489,2.128,8.853,8.853,0,0,1-1.553,2.074Z"/>
            <path id="Trazado_40599" data-name="Trazado 40599" d="M2938.589,3295.213h3.214v15.532h-3.73l-6.879-11.1v11.1h-3.214v-15.532h3.687l6.922,11.038Z"/>
          </g>
        </g>
        <g id="Grupo_15586" data-name="Grupo 15586">
          <g id="Grupo_15584" data-name="Grupo 15584">
            <path id="Trazado_40600" data-name="Trazado 40600" d="M3002.21,3369.036a1.453,1.453,0,0,1-.334-.04c-26.074-.494-52.361-6.224-52.361-16.267-.049-1.832-.073-3.706-.1-5.582-.041-3.094-.082-6.2-.23-9.288l-.414-8.158c-1.706-33.039-3.273-68.8-.257-74.845,2.637-5.29,7.326-8.752,11.859-12.1,3.933-2.9,7.647-5.645,9.983-9.428,1.317-2.285,6.814-21.2,5.423-24.062a1.4,1.4,0,0,1,.257-2.781h55.652a1.4,1.4,0,0,1,.258,2.781c-1.389,2.857,4.108,21.777,5.425,24.068,2.334,3.777,6.048,6.519,9.98,9.422,4.533,3.347,9.222,6.809,11.859,12.1,3.013,6.043,1.452,41.765-.252,74.773-.161,3.144-.3,5.933-.416,8.23-.148,3.077-.189,6.163-.23,9.243-.028,1.891-.052,3.781-.1,5.664,0,10.009-26.3,15.738-52.377,16.23a1.318,1.318,0,0,1-.318.04l-1.969-.011Z" fill="#8cd4ec"/>
            <path id="Trazado_40601" data-name="Trazado 40601" d="M3005.209,3333.526a192.84,192.84,0,0,1-53.978-7.508c-.743-.216-1.23-.7-1.255-1.246l-2.773-63.57a1.3,1.3,0,0,1,.812-1.152,2.757,2.757,0,0,1,1.267-.292,2.972,2.972,0,0,1,.589.058c.3.06,30.283,5.968,61.618,5.968,18.27,0,33.394-1.978,44.957-5.878a2.955,2.955,0,0,1,.929-.148,2.833,2.833,0,0,1,1.092.21,1.4,1.4,0,0,1,.987,1.192V3325.2c0,.539-.459,1.031-1.181,1.265C3057.379,3326.75,3036.048,3333.526,3005.209,3333.526Z" fill="#fff"/>
            <path id="Trazado_40602" data-name="Trazado 40602" d="M3060.468,3254.229c-2.789-5.591-7.615-9.154-12.283-12.6-3.82-2.82-7.428-5.484-9.623-9.038-1.327-2.6-5.833-18.24-5.384-22.323a2.8,2.8,0,0,0-1.472-5.184h-55.669a2.8,2.8,0,0,0-1.486,5.183c.45,4.081-4.059,19.728-5.429,22.4-2.15,3.476-5.758,6.14-9.578,8.96-4.668,3.445-9.494,7.009-12.283,12.6-2.857,5.73-2.077,33.134.108,75.492.161,3.135.305,5.915.415,8.206.147,3.053.19,6.189.23,9.222.026,1.888.051,3.774.1,5.653,0,11.363,27.713,17.087,53.624,17.594a2.72,2.72,0,0,0,.47.042h0l1.238-.009.439,0,.388,0,1.238.009h0a2.868,2.868,0,0,0,.483-.042c25.907-.509,53.612-6.233,53.612-17.667.049-1.806.074-3.691.1-5.579.042-3.033.084-6.169.231-9.223.11-2.291.253-5.071.415-8.206C3062.545,3287.363,3063.325,3259.959,3060.468,3254.229Zm-3.324,83.563c-.24,4.976-.2,9.978-.333,14.937,0,7.907-22.66,14.373-51.291,14.871v.033c-.555,0-1.1-.008-1.655-.013s-1.1.012-1.656.013v-.033c-28.631-.5-51.291-6.964-51.291-14.871-.13-4.959-.093-9.961-.333-14.937-.945-19.651-4.326-75.268-.814-82.311,4.688-9.4,16.5-12.866,21.782-21.416,1.058-1.713,8.818-26.177,4.484-26.177h55.655c-4.334,0,3.426,24.464,4.484,26.177,5.281,8.55,17.093,12.014,21.782,21.416C3061.47,3262.524,3058.09,3318.141,3057.144,3337.792Z" fill="#3e022f"/>
            <path id="Trazado_40603" data-name="Trazado 40603" d="M3059.561,3258.775a5.74,5.74,0,0,0-2.186-.418,5.88,5.88,0,0,0-1.859.3c-11.269,3.8-26.082,5.729-44.026,5.729-31.064,0-60.732-5.85-61.028-5.909a6.006,6.006,0,0,0-1.18-.115,5.566,5.566,0,0,0-2.536.582,2.6,2.6,0,0,0-1.619,2.3l2.771,63.569c.048,1.088,1.025,2.06,2.506,2.492a195.775,195.775,0,0,0,54.806,7.624c31.3,0,53.051-6.908,53.961-7.2,1.443-.466,2.362-1.45,2.362-2.529v-64.037A2.788,2.788,0,0,0,3059.561,3258.775Zm-2.186,66.423s-21.445,6.926-52.165,6.926a190.18,190.18,0,0,1-53.156-7.394l-2.772-63.569s30.182,6.024,62.207,6.024c16.016,0,32.489-1.505,45.886-6.024Z" fill="#3e022f"/>
            <path id="Trazado_40604" data-name="Trazado 40604" d="M3003.864,3211.54c-24.882,0-50.618-6.626-50.618-17.714s25.736-17.715,50.618-17.715,50.621,6.627,50.621,17.715S3028.746,3211.54,3003.864,3211.54Z" fill="#8cd4ec"/>
            <path id="Trazado_40605" data-name="Trazado 40605" d="M3003.865,3174.709c-25.22,0-52.023,6.7-52.023,19.117s26.8,19.116,52.023,19.116,52.022-6.7,52.022-19.116S3029.083,3174.709,3003.865,3174.709Zm0,35.429c-27.183,0-49.218-7.3-49.218-16.312s22.035-16.312,49.218-16.312,49.217,7.3,49.217,16.312S3031.046,3210.138,3003.865,3210.138Z" fill="#3e022f"/>
            <path id="Trazado_40606" data-name="Trazado 40606" d="M3003.864,3204.79c-24.539,0-50.618-5.124-50.618-14.621s26.079-14.619,50.618-14.619,50.621,5.124,50.621,14.619S3028.4,3204.79,3003.864,3204.79Z" fill="#00bede"/>
            <path id="Trazado_40607" data-name="Trazado 40607" d="M3013.212,3200.116c-24.539,0-50.618-5.124-50.618-14.621a6.351,6.351,0,0,1,2.232-4.509c-6.494,2.345-10.645,5.413-10.645,9.183,0,9.5,26.078,14.621,50.618,14.621,20.307,0,41.624-3.518,48.389-10.11C3043.326,3198.241,3028.009,3200.116,3013.212,3200.116Z" opacity="0.2"/>
            <path id="Trazado_40608" data-name="Trazado 40608" d="M3003.865,3174.147c-25.056,0-52.023,5.014-52.023,16.023s26.967,16.023,52.023,16.023,52.022-5.014,52.022-16.023S3028.92,3174.147,3003.865,3174.147Zm0,29.241c-27.183,0-49.218-5.918-49.218-13.218s22.035-13.219,49.218-13.219,49.217,5.918,49.217,13.219S3031.046,3203.388,3003.865,3203.388Z" fill="#3e022f"/>
            <path id="Trazado_40609" data-name="Trazado 40609" d="M3002.738,3194.821c-16.125,0-32.446-3.036-32.893-8.843L2958.658,3152a1.351,1.351,0,0,1,.2-1.231,1.413,1.413,0,0,1,1.134-.564h87.749a1.408,1.408,0,0,1,1.155.6,1.345,1.345,0,0,1,.151,1.272l-13.417,33.953C3035.1,3191.8,3018.823,3194.821,3002.738,3194.821Z" fill="#ffac51"/>
            <path id="Trazado_40610" data-name="Trazado 40610" d="M3012.554,3188.277c-16.126,0-32.446-3.036-32.892-8.843l-9.779-29.7h-8.489a1.413,1.413,0,0,0-1.134.565,1.346,1.346,0,0,0-.2,1.23l11.188,33.981c.446,5.807,16.767,8.844,32.893,8.844,16.085,0,32.364-3.021,32.89-8.8l.043-.109C3030.74,3187.318,3021.617,3188.277,3012.554,3188.277Z" opacity="0.2"/>
            <path id="Trazado_40611" data-name="Trazado 40611" d="M3048.1,3148.5h-.014l-87.739-1.263a2.805,2.805,0,0,0-2.722,3.626l10.643,34.695c.876,9.88,30.677,10.6,34.127,10.647s33.061.188,34.408-9.563l13.775-34.119a2.8,2.8,0,0,0-2.478-4.023Zm-14.055,37.481c-.062,4.348-14.214,7.671-31.609,7.42s-31.445-3.979-31.383-8.327L2960.3,3150.04l87.739,1.263Z" fill="#3e022f"/>
            <path id="Trazado_40612" data-name="Trazado 40612" d="M3003.864,3159.947c-15.66,0-45.275-1.939-45.275-9.278s29.615-9.276,45.275-9.276,45.278,1.939,45.278,9.276S3019.524,3159.947,3003.864,3159.947Z" fill="#9b3335"/>
            <path id="Trazado_40613" data-name="Trazado 40613" d="M3010.742,3156.964c-15.647-.639-45.158-3.786-44.858-11.119a2.718,2.718,0,0,1,.332-1.166c-4.476,1.16-7.416,2.8-7.51,5.083-.3,7.333,29.211,10.48,44.859,11.119,14.771.6,42.027-.014,45.286-6.253C3038.947,3157.2,3021.519,3157.405,3010.742,3156.964Z" opacity="0.2"/>
            <path id="Trazado_40614" data-name="Trazado 40614" d="M3035.383,3142.341a212.451,212.451,0,0,0-63.038,0c-10.484,1.881-15.159,4.45-15.159,8.328s4.675,6.447,15.159,8.329a212.451,212.451,0,0,0,63.038,0c10.485-1.882,15.16-4.45,15.16-8.329S3045.868,3144.222,3035.383,3142.341Zm-31.518,16.2c-24.231,0-43.875-3.525-43.875-7.875s19.644-7.874,43.875-7.874,43.873,3.525,43.873,7.874S3028.095,3158.544,3003.865,3158.544Z" fill="#3e022f"/>
            <path id="Trazado_40615" data-name="Trazado 40615" d="M3011.284,3145.527s23.372-.935,33.655,5.142Z" fill="#fff"/>
            <path id="Trazado_40616" data-name="Trazado 40616" d="M3011.752,3164.224s24.773-.467,29.447-3.74l-7.946,21.5,4.207-17.762S3022.5,3166.561,3011.752,3164.224Z" fill="#fff"/>
          </g>
          <g id="Grupo_15585" data-name="Grupo 15585">
            <path id="Trazado_40617" data-name="Trazado 40617" d="M2967.641,3293.181h3.2v15.394h-3.2v-6.328h-6.51v6.328h-3.2v-15.394h3.2v6.285h6.51Z"/>
            <path id="Trazado_40618" data-name="Trazado 40618" d="M2975.953,3314.245h3.826v1.6h-6.329v-1.348l3.572-3.646a2.249,2.249,0,0,0,.776-1.547,1.1,1.1,0,0,0-.32-.832,1.257,1.257,0,0,0-.9-.3q-1.273,0-1.273,1.447v.665l-1.783-.18v-.448a2.8,2.8,0,0,1,.82-2.158,3.143,3.143,0,0,1,2.224-.761,3.29,3.29,0,0,1,2.164.689,2.326,2.326,0,0,1,.836,1.9,2.675,2.675,0,0,1-.283,1.229,5.112,5.112,0,0,1-.9,1.2Z"/>
            <path id="Trazado_40619" data-name="Trazado 40619" d="M2987.531,3308.788a7.438,7.438,0,0,1-4.272-1.177,4.72,4.72,0,0,1-2.077-3.3l3.3-.756a2.8,2.8,0,0,0,1.018,1.944,3.368,3.368,0,0,0,2.157.677,2.787,2.787,0,0,0,1.683-.474,1.6,1.6,0,0,0,.64-1.4,1.5,1.5,0,0,0-.544-1.14,3.554,3.554,0,0,0-1.081-.7q-.538-.207-1.731-.57c-.107-.035-.185-.06-.235-.074q-.608-.192-.98-.32t-.921-.357a6.086,6.086,0,0,1-.9-.447,6.586,6.586,0,0,1-.741-.554,2.9,2.9,0,0,1-.618-.709,3.766,3.766,0,0,1-.373-.884,3.916,3.916,0,0,1-.149-1.1,4.122,4.122,0,0,1,.719-2.424,4.417,4.417,0,0,1,1.939-1.545,7.072,7.072,0,0,1,2.776-.517,8.78,8.78,0,0,1,2.008.224,7.046,7.046,0,0,1,1.795.687,4.4,4.4,0,0,1,1.433,1.268,4.773,4.773,0,0,1,.815,1.87l-3.089.767a2.5,2.5,0,0,0-2.771-2.205,3.037,3.037,0,0,0-1.715.447,1.516,1.516,0,0,0-.671,1.353q0,.842,1.119,1.364a16.752,16.752,0,0,0,2.141.735q.629.19,1.023.319t.991.373a5.973,5.973,0,0,1,1.779,1.066,3.182,3.182,0,0,1,.687.767,4.164,4.164,0,0,1,.421.954,4,4,0,0,1,.17,1.187,4.674,4.674,0,0,1-.309,1.737,3.775,3.775,0,0,1-.847,1.31,4.911,4.911,0,0,1-1.273.9,6.182,6.182,0,0,1-1.566.533A9.026,9.026,0,0,1,2987.531,3308.788Z"/>
            <path id="Trazado_40620" data-name="Trazado 40620" d="M3003.054,3308.788a8.362,8.362,0,0,1-4.043-.964,7,7,0,0,1-2.808-2.775,9.056,9.056,0,0,1,0-8.358,6.964,6.964,0,0,1,2.808-2.765,8.989,8.989,0,0,1,8.08,0,6.967,6.967,0,0,1,2.8,2.765,9.048,9.048,0,0,1,0,8.358,6.986,6.986,0,0,1-2.807,2.775A8.343,8.343,0,0,1,3003.054,3308.788Zm-3.367-4.277a4.88,4.88,0,0,0,6.733,0,5.649,5.649,0,0,0,0-7.261,4.893,4.893,0,0,0-6.733,0,5.649,5.649,0,0,0,0,7.261Z"/>
            <path id="Trazado_40621" data-name="Trazado 40621" d="M3019.138,3312.542v1.6h-1.081v1.7h-1.789v-1.7h-4.13v-1.6l3.18-5.671h2.739v5.676Zm-5.342,0h2.472v-4.6Z"/>
            <path id="Trazado_40622" data-name="Trazado 40622" d="M3024.819,3305.837h6.563v2.738h-10.856v-2.312l6.126-6.253a3.857,3.857,0,0,0,1.332-2.653,1.877,1.877,0,0,0-.549-1.428,2.162,2.162,0,0,0-1.55-.522q-2.184,0-2.184,2.483v1.139l-3.058-.308v-.767a4.8,4.8,0,0,1,1.406-3.7,5.388,5.388,0,0,1,3.814-1.3,5.639,5.639,0,0,1,3.713,1.183,3.985,3.985,0,0,1,1.433,3.249,4.608,4.608,0,0,1-.484,2.109,8.846,8.846,0,0,1-1.54,2.057Z"/>
            <path id="Trazado_40623" data-name="Trazado 40623" d="M3045,3293.181h3.185v15.394h-3.7l-6.818-11v11h-3.186v-15.394h3.655l6.861,10.941Z"/>
          </g>
        </g>
      </g>
    </g>
  </g>
</svg>
