<svg xmlns="http://www.w3.org/2000/svg" width="78.596" height="78.595" viewBox="0 0 78.596 78.595">
  <g id="Grupo_15903" data-name="Grupo 15903" transform="translate(-3087.952 -8210.533)">
    <g id="Grupo_15901" data-name="Grupo 15901" transform="translate(3087.952 8210.533)">
      <g id="Grupo_15894" data-name="Grupo 15894">
        <circle id="Elipse_1187" data-name="Elipse 1187" cx="37.896" cy="37.896" r="37.896" transform="translate(0.604 2.138)" fill="#fff"/>
        <path id="Trazado_41393" data-name="Trazado 41393" d="M3127.25,8289.128a39.3,39.3,0,1,1,39.3-39.3A39.343,39.343,0,0,1,3127.25,8289.128Zm0-75.793a36.5,36.5,0,1,0,36.5,36.5A36.537,36.537,0,0,0,3127.25,8213.335Z" transform="translate(-3087.952 -8210.533)" fill="#0e2571"/>
        <circle id="Elipse_1188" data-name="Elipse 1188" cx="30.973" cy="30.973" r="30.973" transform="translate(8.325 8.324)" fill="#0f3384"/>
      </g>
    </g>
    <g id="Grupo_16745" data-name="Grupo 16745" transform="translate(3111.119 8228.212)">
      <path id="Trazado_42481" data-name="Trazado 42481" d="M7604.671,3148.134l-3.6-3.6a.87.87,0,0,0-1.23,0l-1.414,1.414v-10.534a.964.964,0,0,0-.255-.615l-10.02-10.02a.966.966,0,0,0-.615-.255h-17.048a4.441,4.441,0,0,0-4.437,4.437v34.686a4.441,4.441,0,0,0,4.437,4.437h23.5a4.442,4.442,0,0,0,4.436-4.437V3155.6l6.241-6.24A.87.87,0,0,0,7604.671,3148.134Zm-9.212-13.588h-4.353a2.7,2.7,0,0,1-2.7-2.7V3127.5l3.524,3.524Zm1.231,29.1a2.7,2.7,0,0,1-2.7,2.7h-23.5a2.7,2.7,0,0,1-2.7-2.7v-34.686a2.7,2.7,0,0,1,2.7-2.7h16.177v5.583a4.441,4.441,0,0,0,4.436,4.437h5.583v11.405l-6.083,6.082-3.6-3.6a.87.87,0,0,0-1.231,0l-3.6,3.6a.87.87,0,0,0,0,1.231l7.813,7.813a.87.87,0,0,0,1.23,0l5.468-5.468Zm-6.083-2.681-6.583-6.583,2.367-2.366,3.6,3.6a.87.87,0,0,0,1.23,0l9.237-9.236,2.366,2.367Z" transform="translate(-7566.057 -3124.526)" fill="#fffef8"/>
      <path id="Trazado_42482" data-name="Trazado 42482" d="M7587,3157.577h11.647a.87.87,0,1,0,0-1.74H7587a.87.87,0,1,0,0,1.74Z" transform="translate(-7581.137 -3148.051)" fill="#fffef8"/>
      <path id="Trazado_42483" data-name="Trazado 42483" d="M7587,3183.219h13.69a.87.87,0,1,0,0-1.74H7587a.87.87,0,1,0,0,1.74Z" transform="translate(-7581.137 -3167.317)" fill="#fffef8"/>
      <path id="Trazado_42484" data-name="Trazado 42484" d="M7601.559,3207.987a.87.87,0,0,0-.871-.87H7587a.87.87,0,1,0,0,1.74h13.69A.87.87,0,0,0,7601.559,3207.987Z" transform="translate(-7581.137 -3186.581)" fill="#fffef8"/>
      <path id="Trazado_42485" data-name="Trazado 42485" d="M7661.039,3183.219h2.241a.87.87,0,1,0,0-1.74h-2.241a.87.87,0,0,0,0,1.74Z" transform="translate(-7636.768 -3167.317)" fill="#fffef8"/>
      <path id="Trazado_42486" data-name="Trazado 42486" d="M7661.039,3208.857h2.241a.87.87,0,1,0,0-1.74h-2.241a.87.87,0,0,0,0,1.74Z" transform="translate(-7636.768 -3186.581)" fill="#fffef8"/>
    </g>
  </g>
</svg>
