<svg xmlns="http://www.w3.org/2000/svg" xmlns:xlink="http://www.w3.org/1999/xlink" width="624.233" height="364.613" viewBox="0 0 624.233 364.613">
  <defs>
    <clipPath id="clip-path">
      <rect id="Rectángulo_3940" data-name="Rectángulo 3940" width="624.233" height="364.613" fill="none"/>
    </clipPath>
  </defs>
  <g id="Grupo_16759" data-name="Grupo 16759" transform="translate(-1020.251 0)">
    <g id="Grupo_16779" data-name="Grupo 16779" transform="translate(-56)">
      <path id="Trazado_38710" data-name="Trazado 38710" d="M-232.27-3342.933q.672-2.4,1.454-4.787C-207.807-3418-116.5-3427.651-81.091-3489.313c40.347-70.255,138.593-99.614,213.851-57.607a145.744,145.744,0,0,1,65.222,76.5c11.448,31.219-4.951,77.377,21.911,101.167,19.35,17.136,42.054,27.024,56.655,49.171,10.574,16.038,15.925,35.569,11.767,53.913-10.075,44.458-55.171,42.473-93.9,37.54a1037.751,1037.751,0,0,0-189.634-6.607c-59.69,3.384-122.026,23.354-180.386,3.875C-226.8-3248.451-245.366-3296.213-232.27-3342.933Z" transform="translate(1362.032 3580.221)" fill="#fff" opacity="0.16"/>
      <g id="Grupo_12157" data-name="Grupo 12157" transform="translate(177.197 0.014)">
        <g id="Grupo_12156" data-name="Grupo 12156" transform="translate(899.054 -0.014)" clip-path="url(#clip-path)">
          <g id="Grupo_12151" data-name="Grupo 12151" transform="translate(187.945 41.144)">
            <path id="Trazado_39502" data-name="Trazado 39502" d="M1464.673,147.841c0,49.733,10.793,87.658-56.028,90.05-30.916,1.106-81.648-28.253-56.029-90.05,19.456-46.93,25.085-90.05,56.029-90.05S1464.673,98.108,1464.673,147.841Z" transform="translate(-1166.525 -51.424)" fill="#0e2571"/>
            <path id="Trazado_39503" data-name="Trazado 39503" d="M1327.683,245.048l-48.034,65.678s2.126,7.225,14.811,7.949c0,0,5.2-.391,22.073-17.5l25.193-28.615s19.922-33.159-2.758-34.84C1336.662,237.546,1329,243.149,1327.683,245.048Z" transform="translate(-1154.777 -83.466)" fill="#fff"/>
            <g id="Grupo_12142" data-name="Grupo 12142" transform="translate(21.619 195.801)">
              <path id="Trazado_39504" data-name="Trazado 39504" d="M1154.271,298.864c17.037,8.862,71.808,21.123,81.078,23.628,6.55,1.77,15.519,3.365,22.54,1.316,21.548-6.288,2.576-18.264-4.254-19.742-11.882-2.571-98.743-16.83-98.933-15.737C1154.7,288.329,1153.528,298.478,1154.271,298.864Z" transform="translate(-1154.025 -288.269)" fill="#ffbe87"/>
              <path id="Trazado_39505" data-name="Trazado 39505" d="M1274.9,303.76c-20.785-4.837-33.613-5.056-56.037-8.031q3.065,11.3,5.951,22.64c10.454,2.6,18.921,4.6,22.085,5.452,6.55,1.77,22.39,4.747,31.332,5.042C1302.842,329.676,1281.7,305.344,1274.9,303.76Z" transform="translate(-1165.57 -289.598)" fill="#fff"/>
            </g>
            <g id="Grupo_12143" data-name="Grupo 12143" transform="translate(0 177.984)">
              <path id="Trazado_39506" data-name="Trazado 39506" d="M1157.395,294.548a7.3,7.3,0,0,0-1.223-8.766c-5.606-5.554-15.576-15.468-19.1-19.19-2.284,1.348-2.333,5.286.557,8.639a20.388,20.388,0,0,0-8.435-3.053l-1.476,5.125,1.944,2.1s.635,2.063,1.854,5.3c1.614,1.267,1.617,3.548,2.437,5.924,1.862,1.3,2.532,5.1,3.478,6.03,3.911.466,9,1.1,12.685,1.561a7.3,7.3,0,0,0,7.276-3.667Z" transform="translate(-1127.721 -266.592)" fill="#007985"/>
            </g>
            <path id="Trazado_39507" data-name="Trazado 39507" d="M1340.892,242.841h0s-1.616,4.375-6.778,12.068c0,0-17.346,10.99,1.16,38.742,0,0-2.1,44.958-11.52,74.76,0,0,83.671,16.036,84.969-11.137,0,0-11.421-41.181-10.337-54.362,0,0,25.122-40.112,26.362-45.686s6.785-27.008-6.793-29.679l-8.278-1.239c-23.09-3.455-42.354-2.151-63.236,8.116C1344.162,235.543,1339.26,240.9,1340.892,242.841Z" transform="translate(-1162.631 -81.129)" fill="#ffbe87"/>
            <path id="Trazado_39508" data-name="Trazado 39508" d="M1424.737,231.751a10.006,10.006,0,0,0-6.744-4.427l-8.279-1.239c-24.045-3.6-44,.488-65.342,11.657a5.024,5.024,0,0,0-2.49,3.132,54.431,54.431,0,0,1-5.958,14.016,4.834,4.834,0,0,1-1.072,1.191,18.763,18.763,0,0,0-6.4,10.713c-1.606,7.568-.715,15.565,5.622,25.548a5.068,5.068,0,0,1,.8,3.047c-.561,8.554-2.858,46.9-11.125,73.062h0c.528.091,39.764,8.559,65.63,3.641,6.133-1.166,11.33-3.016,14.811-5.806a11.906,11.906,0,0,0,4.792-8.96l0-.043-.01-.042c-.11-.4-10.608-38.419-10.4-52.774a4.921,4.921,0,0,1,.758-2.542c4.216-6.764,24.534-39.517,25.667-44.6l.187-.831C1426.3,251.624,1429.25,238.7,1424.737,231.751Z" transform="translate(-1162.631 -81.169)" fill="#b6deff"/>
            <path id="Trazado_39509" data-name="Trazado 39509" d="M1412.434,293.534c-11.6,15.983-14.574,31.092-10.755,50.511,2.159,10.977,5.579,21.629,8.937,32.3a24.813,24.813,0,0,0,7.175-3.78,11.906,11.906,0,0,0,4.792-8.96l0-.043-.01-.042c-.114-.41-11.362-41.151-10.334-54.2,1.434-2.293,25.135-40.211,26.361-45.716l.187-.831c.167-.733.376-1.664.6-2.715C1430.229,270.983,1420.913,281.857,1412.434,293.534Z" transform="translate(-1176.228 -87.444)" fill="#007985" opacity="0.26" style="mix-blend-mode: multiply;isolation: isolate"/>
            <path id="Trazado_39510" data-name="Trazado 39510" d="M1401.043,367.482c-24.06-.727-48.113-1.575-72.133-3.164-3.515,9.854-9.555,25.554-12.7,36.56.5.188,37.992,7.635,64.322,7.635,6.242,0,11.693-.847,15.634-2.937a11.9,11.9,0,0,0,6.381-7.908l.011-.041,0-.044C1402.533,397.331,1401.3,382.28,1401.043,367.482Z" transform="translate(-1161.287 -106.012)" fill="#00336b"/>
            <path id="Trazado_39511" data-name="Trazado 39511" d="M1428.762,227.026s19.359-3.215,21.482,20.433c0,0,7.082,62.324,9.307,76.972,0,0-2.345,13.346-12.32,12.189,0,0-9.016,3.168-13.154-16.449l-14.8-77.813S1419.22,225.834,1428.762,227.026Z" transform="translate(-1179.643 -81.536)" fill="#fff"/>
            <path id="Trazado_39512" data-name="Trazado 39512" d="M1456.374,361.013l95.564-3.742-4.926-10.844s-73.769-12.919-93.165-6.778C1453.847,339.648,1436.372,353.572,1456.374,361.013Z" transform="translate(-1184.54 -101.324)" fill="#ffbe87"/>
            <path id="Trazado_39513" data-name="Trazado 39513" d="M1501.094,339.318c-19.475-2.586-40-4.285-49.021-1.65,0,0-21.132,15.216-1.3,23.106l52.194-1.355C1502.147,352.741,1501.543,346.038,1501.094,339.318Z" transform="translate(-1183.739 -101.03)" fill="#fff"/>
            <path id="Trazado_39514" data-name="Trazado 39514" d="M1329.212,366.2s-41.9,72.89,18.707,75.5c0,0,72.972,14.439,53.41-59.979Z" transform="translate(-1161.091 -106.347)" fill="#00336b"/>
            <path id="Trazado_39515" data-name="Trazado 39515" d="M1340.672,382.08h51.861" transform="translate(-1165.644 -109.175)" fill="none" stroke="#007985" stroke-miterlimit="10" stroke-width="1.725" style="mix-blend-mode: multiply;isolation: isolate"/>
            <path id="Trazado_39516" data-name="Trazado 39516" d="M1398.2,382c-.235,11.278-.45,22.728,2.4,33.642s9.221,21.418,19.2,26.688" transform="translate(-1175.867 -109.16)" fill="none" stroke="#007985" stroke-miterlimit="10" stroke-width="1.725" style="mix-blend-mode: multiply;isolation: isolate"/>
            <path id="Trazado_39517" data-name="Trazado 39517" d="M1359.6,370.225c-1.842,1.827,1.025,5.545,3.261,4.229" transform="translate(-1168.909 -107.064)" fill="none" stroke="#007985" stroke-miterlimit="10" stroke-width="1.725" style="mix-blend-mode: multiply;isolation: isolate"/>
            <path id="Trazado_39518" data-name="Trazado 39518" d="M1313.961,417.228a39.647,39.647,0,0,0,15.568-30" transform="translate(-1160.887 -110.092)" fill="none" stroke="#007985" stroke-miterlimit="10" stroke-width="1.725" style="mix-blend-mode: multiply;isolation: isolate"/>
            <path id="Trazado_39519" data-name="Trazado 39519" d="M1393.468,366.627v5.292" transform="translate(-1175.046 -106.423)" fill="none" stroke="#007985" stroke-miterlimit="10" stroke-width="1.725" style="mix-blend-mode: multiply;isolation: isolate"/>
            <path id="Trazado_39520" data-name="Trazado 39520" d="M1400.048,366.5a4.278,4.278,0,0,1,.853,4.308" transform="translate(-1176.218 -106.4)" fill="none" stroke="#007985" stroke-miterlimit="10" stroke-width="1.725" style="mix-blend-mode: multiply;isolation: isolate"/>
            <path id="Trazado_39521" data-name="Trazado 39521" d="M1347.111,366.627v7.409" transform="translate(-1166.791 -106.423)" fill="none" stroke="#007985" stroke-miterlimit="10" stroke-width="1.725" style="mix-blend-mode: multiply;isolation: isolate"/>
            <path id="Trazado_39522" data-name="Trazado 39522" d="M1341.96,365.34v6.35" transform="translate(-1165.873 -106.194)" fill="none" stroke="#007985" stroke-miterlimit="10" stroke-width="1.725" style="mix-blend-mode: multiply;isolation: isolate"/>
            <path id="Trazado_39523" data-name="Trazado 39523" d="M1233.259,300.663a141.571,141.571,0,0,0,4.136,17.534" transform="translate(-1146.516 -94.676)" fill="none" stroke="#b1d9ff" stroke-miterlimit="10" stroke-width="1.1"/>
            <path id="Trazado_39524" data-name="Trazado 39524" d="M1505.445,353.737q-.885-4.273-1.769-8.546" transform="translate(-1194.672 -102.606)" fill="none" stroke="#b1d9ff" stroke-miterlimit="10" stroke-width="1.1"/>
            <path id="Trazado_39525" data-name="Trazado 39525" d="M1425.673,290.281a48.64,48.64,0,0,1-4.2-20.73" transform="translate(-1180.032 -89.135)" fill="none" stroke="#007985" stroke-miterlimit="10" stroke-width="1.725" style="mix-blend-mode: multiply;isolation: isolate"/>
            <path id="Trazado_39526" data-name="Trazado 39526" d="M1329.685,285.287a27.226,27.226,0,0,1,8.242-26.081" transform="translate(-1163.566 -87.293)" fill="none" stroke="#007985" stroke-miterlimit="10" stroke-width="1.725" style="mix-blend-mode: multiply;isolation: isolate"/>
            <g id="Grupo_12144" data-name="Grupo 12144" transform="translate(216.454 79.93)">
              <path id="Trazado_39527" data-name="Trazado 39527" d="M1414.313,147.294c-.166.732,1.362,66.076,1.362,66.076s-10.875,10.252-17.978,10-6.312-10.223-6.312-10.223l.053-40.517Z" transform="translate(-1391.125 -147.293)" fill="#ffbe87"/>
              <path id="Trazado_39528" data-name="Trazado 39528" d="M1391.274,167.889l22.988-20.6c-.093.325.231,16.211.544,30.579-8.07,5.435-15.962,11.2-23.732,17.139Z" transform="translate(-1391.074 -147.293)" fill="#ffbe87" opacity="0.42" style="mix-blend-mode: multiply;isolation: isolate"/>
            </g>
            <path id="Trazado_39529" data-name="Trazado 39529" d="M1384.189,59.928c-14.515,1.985-24.936,10.376-31.954,22.927-3.673,6.571-6.021,12.6-6.273,19.954-.2,5.976.427,9.858-.716,15.565-1.492,7.456-4.921,15.782-2.75,23.342,2.27,7.911,9.281,15.36,14.432,22.523,3.624,5.039,9.482,8.21,15.636,7.368,5.642-.772,14.224-4.04,19.24-6.6a107.9,107.9,0,0,0,15.969-10.241c10.4-7.862,16.7-17.862,22.432-29.666,3.994-8.225,6.074-17.433,4.825-26.567A45.141,45.141,0,0,0,1384.189,59.928Z" transform="translate(-1165.844 -51.73)" fill="#ffbe87"/>
            <g id="Grupo_12145" data-name="Grupo 12145" transform="translate(212.86 68.445)" style="mix-blend-mode: multiply;isolation: isolate">
              <path id="Trazado_39530" data-name="Trazado 39530" d="M1386.718,137.935a4.016,4.016,0,1,0,3.638-4.6A4.155,4.155,0,0,0,1386.718,137.935Z" transform="translate(-1386.702 -133.32)" style="mix-blend-mode: multiply;isolation: isolate"/>
            </g>
            <g id="Grupo_12146" data-name="Grupo 12146" transform="translate(182.569 63.835)" style="mix-blend-mode: multiply;isolation: isolate">
              <path id="Trazado_39531" data-name="Trazado 39531" d="M1349.862,131.964a3.7,3.7,0,1,0,3.353-4.24A3.829,3.829,0,0,0,1349.862,131.964Z" transform="translate(-1349.847 -127.711)" style="mix-blend-mode: multiply;isolation: isolate"/>
            </g>
            <path id="Trazado_39532" data-name="Trazado 39532" d="M1401.627,151.738c-.16,4.182-5.55,7.371-12.039,7.122s-11.618-3.841-11.458-8.023,5.55-7.37,12.038-7.121S1401.788,147.557,1401.627,151.738Z" transform="translate(-1172.314 -66.724)" fill="#ffbe87" opacity="0.35" style="mix-blend-mode: multiply;isolation: isolate"/>
            <path id="Trazado_39533" data-name="Trazado 39533" d="M1359.7,146.713c-.153,3.98-4.029,7.063-8.656,6.885s-8.258-3.547-8.1-7.527,4.028-7.062,8.657-6.885S1359.849,142.733,1359.7,146.713Z" transform="translate(-1166.046 -65.918)" fill="#ffbe87" opacity="0.35" style="mix-blend-mode: multiply;isolation: isolate"/>
            <path id="Trazado_39534" data-name="Trazado 39534" d="M1370.752,161.116a3.369,3.369,0,0,0-1.943,1.146c-.865-.8-1.067-1.363-2.062-.951-2.153.89-2.578,3.74-2.578,3.74.21.844,1.3,1.735,2.64,2.364,2.568,1.208,5.249.588,7.539-1.378,1.244-1.068,1.133-1.167,1.017-2.4C1375.282,162.771,1372.2,160.872,1370.752,161.116Z" transform="translate(-1169.828 -69.821)" fill="#ffbe87" style="mix-blend-mode: multiply;isolation: isolate"/>
            <path id="Trazado_39535" data-name="Trazado 39535" d="M1368.3,131.16q-4.415,10.271-8.829,20.541a5.461,5.461,0,0,0,3.643-.112" transform="translate(-1168.991 -64.49)" fill="none" stroke="#0e2571" stroke-miterlimit="10" stroke-width="2"/>
            <path id="Trazado_39536" data-name="Trazado 39536" d="M1347.549,115.3a34.32,34.32,0,0,1,10.973-.105,20.042,20.042,0,0,1,6.292,2.772S1358.055,105.561,1347.549,115.3Z" transform="translate(-1166.869 -61.002)" fill="#0e2571"/>
            <path id="Trazado_39537" data-name="Trazado 39537" d="M1406.866,118.308a41.708,41.708,0,0,0-11.842-6.127c-3.464-1.051-8.342-.441-8.342-.441S1400.811,101.987,1406.866,118.308Z" transform="translate(-1173.838 -60.517)" fill="#0e2571"/>
            <path id="Trazado_39538" data-name="Trazado 39538" d="M1374.7,162.848c-2.115,3.03-6.912,3.219-12.357,1.913" transform="translate(-1169.503 -70.133)" fill="none" stroke="#0e2571" stroke-miterlimit="10" stroke-width="2"/>
            <path id="Trazado_39539" data-name="Trazado 39539" d="M1363.155,150.6l7.7-17.295L1368.5,150.38Z" transform="translate(-1169.648 -64.872)" fill="#ffbe87" opacity="0.3" style="mix-blend-mode: multiply;isolation: isolate"/>
            <path id="Trazado_39540" data-name="Trazado 39540" d="M1445.933,76.641c6.327,4.356,10.095,9.152,12.364,14.269,5.615,12.66,8.087,24.231,11.437,39.007,2.218,9.784,5.17,14.019,7.5,23.77,1.76,7.349-5.3,18.4-16.727,20.349-15.313,2.614-16.544,6.88-23.449-3.537-6.967-10.511-8.88-31.147-6.313-41.9,2.766-11.585-13.524-30.33-12.773-42.5C1419.179,66.622,1430.46,65.987,1445.933,76.641Z" transform="translate(-1179.406 -53.554)" fill="#0e2571"/>
            <path id="Trazado_39541" data-name="Trazado 39541" d="M1441.122,139.8a5.385,5.385,0,0,0-1.59-2.092,4.542,4.542,0,0,0-5.008.253,13.32,13.32,0,0,0-3.485,3.989l.018,17.439a13.762,13.762,0,0,0,10.065-19.589Z" transform="translate(-1181.737 -65.543)" fill="#ffbe87" stroke="#ffbe87" stroke-miterlimit="10" stroke-width="1.622"/>
            <path id="Trazado_39542" data-name="Trazado 39542" d="M1436.493,143.523c1.041,1.969,2.11,4.036,2.127,6.262s-1.386,4.637-3.591,4.955" transform="translate(-1182.447 -66.692)" fill="none" stroke="#0e2571" stroke-miterlimit="10" stroke-width="2"/>
            <path id="Trazado_39543" data-name="Trazado 39543" d="M1129.2,273.389l9.542,4.35-.088,4.687s-7.41-.14-10.93-3.912C1128.141,274.7,1129.2,273.389,1129.2,273.389Z" transform="translate(-1127.721 -89.819)" fill="#007985"/>
            <path id="Trazado_39544" data-name="Trazado 39544" d="M1129.944,281.415l1.971,5.927s10.119,3.867,10.608,2.6a27.486,27.486,0,0,0-1.507-6.051Z" transform="translate(-1128.117 -91.248)" fill="#007985"/>
            <path id="Trazado_39545" data-name="Trazado 39545" d="M1133.176,289.369l1.971,5.924s9.334,1.659,11.629,2.036a11.548,11.548,0,0,0-2.527-5.485Z" transform="translate(-1128.692 -92.665)" fill="#007985"/>
            <path id="Trazado_39546" data-name="Trazado 39546" d="M1138.968,302.046l11.906,1.324-1.079-4.3-13.459-2.2S1137.946,301.042,1138.968,302.046Z" transform="translate(-1129.255 -93.999)" fill="#007985"/>
            <g id="Grupo_12147" data-name="Grupo 12147" transform="translate(23.123 196.902)">
              <path id="Trazado_39547" data-name="Trazado 39547" d="M1181.426,293c-14.179-2.2-24.866-3.707-24.931-3.335,0,0-1.11,9.6-.409,9.967,5.556,2.889,15.353,6.161,26.167,9.306C1182.08,303.62,1181.818,298.306,1181.426,293Z" transform="translate(-1155.854 -289.609)" fill="#00336b"/>
            </g>
            <g id="Grupo_12148" data-name="Grupo 12148" transform="translate(0 177.984)">
              <path id="Trazado_39548" data-name="Trazado 39548" d="M1157.395,294.548a7.3,7.3,0,0,0-1.223-8.766c-5.606-5.554-15.576-15.468-19.1-19.19-2.284,1.348-2.333,5.286.557,8.639a20.388,20.388,0,0,0-8.435-3.053l-1.476,5.125,1.944,2.1s.635,2.063,1.854,5.3c1.614,1.267,1.617,3.548,2.437,5.924,1.862,1.3,2.532,5.1,3.478,6.03,3.911.466,9,1.1,12.685,1.561a7.3,7.3,0,0,0,7.276-3.667Z" transform="translate(-1127.721 -266.592)" fill="#00336b"/>
            </g>
            <path id="Trazado_39549" data-name="Trazado 39549" d="M1129.2,273.389l9.542,4.35-.088,4.687s-7.41-.14-10.93-3.912C1128.141,274.7,1129.2,273.389,1129.2,273.389Z" transform="translate(-1127.721 -89.819)" fill="#00336b"/>
            <path id="Trazado_39550" data-name="Trazado 39550" d="M1129.944,281.415l1.971,5.927s10.119,3.867,10.608,2.6a27.486,27.486,0,0,0-1.507-6.051Z" transform="translate(-1128.117 -91.248)" fill="#00336b"/>
            <path id="Trazado_39551" data-name="Trazado 39551" d="M1136.129,290.649l1.864,5.605s8.832,1.57,11,1.927a10.924,10.924,0,0,0-2.391-5.19Z" transform="translate(-1129.218 -92.893)" fill="#00336b"/>
            <path id="Trazado_39552" data-name="Trazado 39552" d="M1141.609,302.643l11.263,1.253-1.021-4.073-12.734-2.084S1140.642,301.692,1141.609,302.643Z" transform="translate(-1129.751 -94.155)" fill="#00336b"/>
            <path id="Trazado_39553" data-name="Trazado 39553" d="M1379.2,562.838l85.968-1.068S1437.6,391.925,1421.93,354.388l-.733-12.642a226.535,226.535,0,0,1,9.313-78.667l8.255-27.3s-.574-12.2-25.253-12.2l-9.183,1.483S1378.237,535.886,1379.2,562.838Z" transform="translate(-1172.5 -80.948)" fill="#fff"/>
            <path id="Trazado_39554" data-name="Trazado 39554" d="M1304.1,566.3c-1.369-36.51,33.989-229.767,53.846-305.6,2.822-10.773,9.908-37.476,9.908-37.476s-6.089,1.32-8.781,2.011c-7.317,1.878-22.256,3.071-30.239,14.462-17.027,24.3-19.094,40.845-10.608,60.473,8.077,18.685-7.49,51.72-12.318,71.494L1258.948,564Z" transform="translate(-1151.09 -80.886)" fill="#fff"/>
            <path id="Trazado_39555" data-name="Trazado 39555" d="M1339.972,91.951c.47,1.738,2.823,2.328,7.791,2.411,4.673.077,28.3-11.629,24.315-18.629,0,0,1.722,24.68,43.229,25.774,0,0,4.209-37.881,4.216-37.952.939-8.513-20.1-11.965-25.864-12.913a39.06,39.06,0,0,0-32.654,8.9c-7.746,6.584-13.23,15.22-18.04,24.066C1340.726,87.725,1339.534,90.335,1339.972,91.951Z" transform="translate(-1165.503 -50.045)" fill="#0e2571"/>
            <path id="Trazado_39556" data-name="Trazado 39556" d="M1377.257,226.243a121.476,121.476,0,0,0-12.657,23.55,34.517,34.517,0,0,0,11.169-3.186c-.19,4.388-4.264,31.167-4.454,35.555" transform="translate(-1169.905 -81.423)" fill="none" stroke="#b1d9ff" stroke-miterlimit="10" stroke-width="1.1"/>
            <path id="Trazado_39557" data-name="Trazado 39557" d="M1416.926,225.159a142.878,142.878,0,0,1,9.242,22.652,45.434,45.434,0,0,0-12.318-.846,4.046,4.046,0,0,0-2.148.579,4.251,4.251,0,0,0-1.309,2.46c-2.16,7.992-3.408,23.956-5.5,31.966" transform="translate(-1177.08 -81.23)" fill="none" stroke="#b1d9ff" stroke-miterlimit="10" stroke-width="1.1"/>
            <path id="Trazado_39558" data-name="Trazado 39558" d="M1409.081,318.021" transform="translate(-1177.826 -97.767)" fill="none" stroke="#b1d9ff" stroke-miterlimit="10" stroke-width="1.1"/>
            <path id="Trazado_39559" data-name="Trazado 39559" d="M1407.684,352.114v-.575" transform="translate(-1177.578 -103.736)" fill="none" stroke="#b1d9ff" stroke-miterlimit="10" stroke-width="1.1"/>
            <path id="Trazado_39560" data-name="Trazado 39560" d="M1402.8,383.661" transform="translate(-1176.707 -109.456)" fill="none" stroke="#b1d9ff" stroke-miterlimit="10" stroke-width="1.1"/>
            <path id="Trazado_39561" data-name="Trazado 39561" d="M1401.4,424.162" transform="translate(-1176.459 -116.669)" fill="none" stroke="#b1d9ff" stroke-miterlimit="10" stroke-width="1.1"/>
            <path id="Trazado_39562" data-name="Trazado 39562" d="M1419.861,377.231l8.853,12.578L1421.5,392l-7.852-11.42Z" transform="translate(-1178.64 -108.311)" fill="none" stroke="#b1d9ff" stroke-miterlimit="10" stroke-width="1.1"/>
            <path id="Trazado_39563" data-name="Trazado 39563" d="M1327.943,384.706l8.1-13.074,4.84,5.777-7.43,11.7Z" transform="translate(-1163.377 -107.314)" fill="none" stroke="#b1d9ff" stroke-miterlimit="10" stroke-width="1.1"/>
            <path id="Trazado_39564" data-name="Trazado 39564" d="M1388.419,242.111a7.927,7.927,0,0,0,12.15,2.261" transform="translate(-1174.147 -84.249)" fill="none" stroke="#007985" stroke-miterlimit="10" stroke-width="0.936" style="mix-blend-mode: multiply;isolation: isolate"/>
            <g id="Grupo_12149" data-name="Grupo 12149" transform="translate(170.225 56.846)">
              <path id="Trazado_39565" data-name="Trazado 39565" d="M1374.078,134.421c.359-6.517-.122-12.654,12.451-11.149,6.481.776,11.509,5.934,11.149,12.452a11.818,11.818,0,1,1-23.6-1.3Z" transform="translate(-1341.815 -119.89)" fill="#fff" opacity="0.49"/>
              <path id="Trazado_39566" data-name="Trazado 39566" d="M1391.065,146.81a11.807,11.807,0,0,1-14.81-17.458Q1383.807,137.957,1391.065,146.81Z" transform="translate(-1341.815 -121.014)" fill="#fff" opacity="0.49"/>
              <path id="Trazado_39567" data-name="Trazado 39567" d="M1373.726,133.768c.359-6.518-1.746-11.6,12.741-10.48a11.819,11.819,0,0,1-1.3,23.6C1378.647,146.529,1373.366,140.284,1373.726,133.768Z" transform="translate(-1341.753 -119.906)" fill="none" stroke="#fff" stroke-miterlimit="10" stroke-width="0.565"/>
              <path id="Trazado_39568" data-name="Trazado 39568" d="M1334.983,130.374a11.828,11.828,0,0,1,12.451-11.15c13.438.712,11.907,6.068,11.15,12.452-.769,6.482-5.935,11.509-12.452,11.149A11.818,11.818,0,0,1,1334.983,130.374Z" transform="translate(-1334.853 -119.208)" fill="#fff" opacity="0.49"/>
              <path id="Trazado_39569" data-name="Trazado 39569" d="M1352.312,142.444a11.807,11.807,0,0,1-14.846-17.693Q1344.823,133.652,1352.312,142.444Z" transform="translate(-1334.853 -120.195)" fill="#fff" opacity="0.49"/>
              <path id="Trazado_39570" data-name="Trazado 39570" d="M1334.847,130.407a11.96,11.96,0,0,1,12.452-11.149c13.548.3,11.253,6.044,11.149,12.451-.1,6.527-5.934,11.509-12.451,11.15A11.82,11.82,0,0,1,1334.847,130.407Z" transform="translate(-1334.829 -119.216)" fill="none" stroke="#fff" stroke-miterlimit="10" stroke-width="0.565"/>
            </g>
            <path id="Trazado_39571" data-name="Trazado 39571" d="M1363.3,133.334a11.579,11.579,0,0,1,8.031.436" transform="translate(-1169.674 -64.785)" fill="none" stroke="#fff" stroke-linecap="round" stroke-linejoin="round" stroke-width="0.936"/>
            <line id="Línea_218" data-name="Línea 218" x2="24.228" y2="4.321" transform="translate(225.201 67.475)" fill="none" stroke="#fff" stroke-linecap="round" stroke-linejoin="round" stroke-width="0.566"/>
            <path id="Trazado_39572" data-name="Trazado 39572" d="M1383.61,76.38c.859,5.942,5.448,10.864,10.862,13.459s11.569,3.178,17.573,3.183" transform="translate(-1173.291 -54.735)" fill="none" stroke="#d65b00" stroke-miterlimit="10" stroke-width="0.936" style="mix-blend-mode: multiply;isolation: isolate"/>
            <path id="Trazado_39573" data-name="Trazado 39573" d="M1387.348,73.672a19.408,19.408,0,0,0,20,8.544" transform="translate(-1173.956 -54.253)" fill="none" stroke="#d65b00" stroke-miterlimit="10" stroke-width="0.936" style="mix-blend-mode: multiply;isolation: isolate"/>
            <path id="Trazado_39574" data-name="Trazado 39574" d="M1447.36,72.264c15.353,15.455,23.625,36.842,26.8,58.394s1.647,43.494-.21,65.2" transform="translate(-1184.643 -54.002)" fill="none" stroke="#d65b00" stroke-miterlimit="10" stroke-width="0.936" opacity="0.55" style="mix-blend-mode: multiply;isolation: isolate"/>
            <path id="Trazado_39575" data-name="Trazado 39575" d="M1448.734,76.515c10.271,15.114,12.635,34.128,13.709,52.37a501.3,501.3,0,0,1,.188,55.491" transform="translate(-1184.888 -54.759)" fill="none" stroke="#d65b00" stroke-miterlimit="10" stroke-width="0.936" opacity="0.55" style="mix-blend-mode: multiply;isolation: isolate"/>
            <path id="Trazado_39576" data-name="Trazado 39576" d="M1436.094,163.648" transform="translate(-1182.637 -70.276)" fill="none" stroke="#b6deff" stroke-miterlimit="10" stroke-width="2"/>
            <g id="Grupo_12150" data-name="Grupo 12150" transform="translate(350.046 226.624)">
              <path id="Trazado_39577" data-name="Trazado 39577" d="M1571.149,347.173c1.194.02,18.052-12.065,18.052-12.065l16.928-9.337,1.318,2.664-12.806,11.475,10.837,2.242,12,.873-.076,4.213-11.852,1.17,12.358,1.567-.266,3.4-11.336,1.041,11.706,0-.4,3.251-10.993.811,9.069,1.431-.032,4.288-20.9-1.891-23.955-7Z" transform="translate(-1556.672 -325.771)" fill="#00336b"/>
              <path id="Trazado_39578" data-name="Trazado 39578" d="M1575.7,347.779q-9.365-.629-17.652-1.2-2.3,8.54-4.433,17.125c12.288-.49,23.328-1.078,29.685-1.885C1584.649,357.549,1577.606,352.929,1575.7,347.779Z" transform="translate(-1553.611 -329.476)" fill="#00336b"/>
            </g>
            <path id="Trazado_39579" data-name="Trazado 39579" d="M1617.3,339.673l6.6,5.337s3.694,14.352-1.709,19.191-8.329-7.409-8.329-7.409-.733-9.389-.612-15.222A2.486,2.486,0,0,1,1617.3,339.673Z" transform="translate(-1214.183 -101.524)" fill="#00336b"/>
            <path id="Trazado_39580" data-name="Trazado 39580" d="M1340.435,272.567c-11.449,4.5-15.823,25.992-7.71,36.863" transform="translate(-1163.487 -89.672)" fill="none" stroke="#b1d9ff" stroke-miterlimit="10" stroke-width="1.1"/>
          </g>
          <g id="Grupo_12155" data-name="Grupo 12155" transform="translate(24.817 150.011)">
            <path id="Trazado_39581" data-name="Trazado 39581" d="M941.627,404.858h238.648a12.379,12.379,0,0,0,12.379-12.379V298.12H929.248v94.359A12.379,12.379,0,0,0,941.627,404.858Z" transform="translate(-929.248 -203.09)" fill="#fff"/>
            <path id="Trazado_39582" data-name="Trazado 39582" d="M936.486,392.3V298.12h251.506V392.3a6.649,6.649,0,0,1-6.649,6.649H943.135A6.649,6.649,0,0,1,936.486,392.3Z" transform="translate(-930.537 -203.09)" fill="#0e2571"/>
            <path id="Trazado_39583" data-name="Trazado 39583" d="M966.31,360.457V291.834h202.482v68.623a13.514,13.514,0,0,1-13.514,13.514H979.824A13.513,13.513,0,0,1,966.31,360.457Z" transform="translate(-935.848 -201.971)" fill="#fff"/>
            <g id="Grupo_12152" data-name="Grupo 12152" transform="translate(13.106 185.383)">
              <path id="Trazado_39584" data-name="Trazado 39584" d="M1175.206,410.739a65.582,65.582,0,0,1-12.328,1.1c-9,.141-17.973.63-26.974.624-17.746-.015-35.489-.24-53.234-.334-17.671-.093-35.31.455-52.975.762-17.388.3-34.787.106-52.147-.869-6.444-.362-12.781.2-19.218-.58-4.193-.51-9.357-1.018-13.137-3.39a13.439,13.439,0,0,0,2.6,3.527c4.659,4.388,11.417,3.264,18.2,3.264h195.56c4.461,0,7.7-.877,11.96-2.181a20.656,20.656,0,0,0,4.247-1.652,10.7,10.7,0,0,0,2.266-1.769A26.17,26.17,0,0,1,1175.206,410.739Z" transform="translate(-945.193 -408.05)" fill="#fff"/>
            </g>
            <path id="Trazado_39585" data-name="Trazado 39585" d="M980.972,369.923h175.414a8.328,8.328,0,0,0,8.328-8.328V298.12H972.644V361.6A8.327,8.327,0,0,0,980.972,369.923Z" transform="translate(-936.976 -203.09)" fill="#0e2571"/>
            <path id="Trazado_39586" data-name="Trazado 39586" d="M950.473,441.773h226.38a6,6,0,0,0,6-6v-7.793H944.478v7.793A6,6,0,0,0,950.473,441.773Z" transform="translate(-931.96 -226.217)" fill="#0e2571"/>
            <rect id="Rectángulo_3935" data-name="Rectángulo 3935" width="238.37" height="3.43" transform="translate(12.518 201.769)" fill="#dedcdc" style="mix-blend-mode: multiply;isolation: isolate"/>
            <path id="Trazado_39587" data-name="Trazado 39587" d="M1154.641,231.074H967.261a37.458,37.458,0,0,0-15.75,3.47l-14.741,6.832a12.932,12.932,0,0,0-7.521,11.724v5.55h263.405V253.1a12.932,12.932,0,0,0-7.521-11.724l-14.741-6.832A37.459,37.459,0,0,0,1154.641,231.074Z" transform="translate(-929.248 -191.15)" fill="#0e2571"/>
            <path id="Trazado_39588" data-name="Trazado 39588" d="M933.823,257.444a4.244,4.244,0,0,0,.355,2.128,3.74,3.74,0,0,0,.729,1.057c1.438,1.442,3.774,1.155,5.783,1.155h239.543c2.715,0,8.107-.058,9.222-3.271a3.763,3.763,0,0,0,.188-1.068Z" transform="translate(-930.06 -195.846)" fill="#fff"/>
            <g id="Grupo_12153" data-name="Grupo 12153" transform="translate(69.976 39.924)" style="mix-blend-mode: multiply;isolation: isolate">
              <path id="Trazado_39589" data-name="Trazado 39589" d="M1042.7,231.074H1015.65a19.726,19.726,0,0,0-1.167,4.013c-.009.037-.088.075-.1.154,0,.031.038.079.06.1a3.553,3.553,0,0,0,1.058.762,4.715,4.715,0,0,0,.7.216c.334.084.671.161,1,.252a3.9,3.9,0,0,0,1.014.053h17.989A6.542,6.542,0,0,0,1042.7,231.074Z" transform="translate(-1014.386 -231.074)" fill="#dedcdc"/>
              <path id="Trazado_39590" data-name="Trazado 39590" d="M1136.627,236.624h9.592c3.671,0,7.521.325,11.117-.537.35-.085,1.134-.6,1.117-.847-.029-.413-.106-.309-.18-.731-.069-.39-.145-.775-.247-1.157a13.066,13.066,0,0,0-.838-2.278h-27.046A6.544,6.544,0,0,0,1136.627,236.624Z" transform="translate(-1035 -231.074)" fill="#dedcdc"/>
            </g>
            <path id="Trazado_39591" data-name="Trazado 39591" d="M1122.576,213.564V201.49a19.063,19.063,0,0,0-19.136-18.99h-54.655a19.064,19.064,0,0,0-19.137,18.99v12.073h-2.136a13.077,13.077,0,0,0-13.126,13.027h21.826a6.538,6.538,0,0,0,6.563-6.513V201.49a5.986,5.986,0,0,1,6.009-5.963h54.656a5.987,5.987,0,0,1,6.01,5.964v18.587a6.538,6.538,0,0,0,6.563,6.513h21.826a13.077,13.077,0,0,0-13.127-13.027Z" transform="translate(-944.409 -182.5)" fill="#d4d5cf"/>
            <path id="Trazado_39592" data-name="Trazado 39592" d="M1048.4,190.138c4.879-2.576,10.253-3.03,15.682-3.118,6.239-.1,12.479-.016,18.719-.015,10.494,0,22.823-2.282,32.474,2.834a25.856,25.856,0,0,1,7.416,5.922,16.918,16.918,0,0,0-15.463-10.567h-54.655c-9.322,0-16.905,7.945-16.905,17.712v11.2C1036.4,204.66,1039.379,194.9,1048.4,190.138Z" transform="translate(-948.2 -182.98)" fill="#ecede7"/>
            <rect id="Rectángulo_3936" data-name="Rectángulo 3936" width="263.406" height="13.773" transform="translate(0 67.484)" fill="#d4d5cf"/>
            <rect id="Rectángulo_3937" data-name="Rectángulo 3937" width="263.406" height="13.773" transform="translate(0 81.257)" fill="#d4d5cf"/>
            <path id="Trazado_39593" data-name="Trazado 39593" d="M1029.545,275.179c1.146,2.232,3.563,2.1,5.953,2.1h86.079c2.122,0,5.409.509,6.576-1.737a2.9,2.9,0,0,0,.148-.359Z" transform="translate(-947.109 -199.005)" fill="#ecede7"/>
            <path id="Trazado_39594" data-name="Trazado 39594" d="M932.287,275.179a3.4,3.4,0,0,0,.728,1.109,3.863,3.863,0,0,0,2.786.987c1.331.014,2.661,0,3.992,0h21.942c3.28,0,8.386,1.04,10.517-2.1Z" transform="translate(-929.789 -199.005)" fill="#ecede7"/>
            <path id="Trazado_39595" data-name="Trazado 39595" d="M1198.145,275.179a4.534,4.534,0,0,0,.395.681c1.318,1.83,3.152,1.415,5.16,1.415h25.023c2.839,0,5.568.412,8.055-1.162a3.286,3.286,0,0,0,.939-.934Z" transform="translate(-977.134 -199.005)" fill="#ecede7"/>
            <path id="Trazado_39596" data-name="Trazado 39596" d="M932.234,293.139a4.265,4.265,0,0,0,.917,1.622,3.324,3.324,0,0,0,2.214,1.037c1.241.1,2.536,0,3.782,0h27.28c2.168,0,5.786-.062,6.293-2.66Z" transform="translate(-929.78 -202.203)" fill="#ecede7"/>
            <path id="Trazado_39597" data-name="Trazado 39597" d="M1029.242,294.037c.049.169.1.337.149.5.541,1.8,2.053,1.42,3.543,1.42H1115.3c3.942,0,8.643.808,12.232-1.078a5.156,5.156,0,0,0,1.241-.814c.009-.009.015-.021.024-.03Z" transform="translate(-947.055 -202.363)" fill="#ecede7"/>
            <path id="Trazado_39598" data-name="Trazado 39598" d="M1198.58,294.037a4.021,4.021,0,0,0,2.132,1.76c1.947.66,4.8.162,6.841.162h18.089c3.069,0,6.387.659,9.341-.459a5.592,5.592,0,0,0,2.17-1.462Z" transform="translate(-977.211 -202.363)" fill="#ecede7"/>
            <rect id="Rectángulo_3938" data-name="Rectángulo 3938" width="263.406" height="3.12" transform="translate(0 79.697)" fill="#dedcdc" style="mix-blend-mode: multiply;isolation: isolate"/>
            <rect id="Rectángulo_3939" data-name="Rectángulo 3939" width="263.406" height="0.939" transform="translate(0 80.788)" fill="#dedcdc" style="mix-blend-mode: multiply;isolation: isolate"/>
            <g id="Grupo_12154" data-name="Grupo 12154" transform="translate(0 70.982)" style="mix-blend-mode: multiply;isolation: isolate">
              <path id="Trazado_39599" data-name="Trazado 39599" d="M1192.653,292.909h-44.762V273.483c0-2.553-2.406-4.622-5.374-4.622h-24.235c-2.968,0-5.374,2.07-5.374,4.622v19.426H1008.992V273.483c0-2.553-2.406-4.622-5.374-4.622H979.383c-2.968,0-5.374,2.07-5.374,4.622v19.426H929.248v1.719H974.01V300.1c0,8.31,7.831,15.046,17.491,15.046s17.491-6.736,17.491-15.046v-5.468h103.917V300.1c0,8.31,7.831,15.046,17.491,15.046s17.491-6.736,17.491-15.046v-5.468h44.762Z" transform="translate(-929.248 -268.861)" fill="#cbccc6"/>
            </g>
            <path id="Trazado_39600" data-name="Trazado 39600" d="M1012.682,268.6H990.293a4.728,4.728,0,0,0-4.964,4.448v25.608c0,8,7.234,14.478,16.159,14.478s16.159-6.482,16.159-14.478V273.049A4.728,4.728,0,0,0,1012.682,268.6Z" transform="translate(-939.235 -197.833)" fill="#cbccc6"/>
            <path id="Trazado_39601" data-name="Trazado 39601" d="M1002.312,311.4a12.325,12.325,0,0,1-12.358-12.264V273.529a2.245,2.245,0,0,1,2.251-2.234h20.213a2.246,2.246,0,0,1,2.252,2.234v25.608A12.326,12.326,0,0,1,1002.312,311.4Z" transform="translate(-940.059 -198.313)" fill="#e2e3dd"/>
            <path id="Trazado_39602" data-name="Trazado 39602" d="M992.175,276.781c2.461-2.661,6.123-3.811,9.654-3.968a13.928,13.928,0,0,1,9.654,3.968,13.024,13.024,0,0,1,3.187,5.231v-8.484a2.246,2.246,0,0,0-2.252-2.234H992.205a2.245,2.245,0,0,0-2.251,2.234v6.227A17.354,17.354,0,0,1,992.175,276.781Z" transform="translate(-940.059 -198.313)" fill="#ecede7"/>
            <path id="Trazado_39603" data-name="Trazado 39603" d="M1011.762,307.276c-2.461,2.661-6.122,3.811-9.654,3.968a13.931,13.931,0,0,1-9.654-3.968,13.781,13.781,0,0,1-2.5-3.476v.951a12.358,12.358,0,0,0,24.716,0v-1.936A15.124,15.124,0,0,1,1011.762,307.276Z" transform="translate(-940.059 -203.926)" fill="#ecede7"/>
            <path id="Trazado_39604" data-name="Trazado 39604" d="M1181.677,268.6h-22.388a4.727,4.727,0,0,0-4.964,4.448v25.608c0,8,7.234,14.478,16.159,14.478s16.159-6.482,16.159-14.478V273.049A4.728,4.728,0,0,0,1181.677,268.6Z" transform="translate(-969.33 -197.833)" fill="#cbccc6"/>
            <path id="Trazado_39605" data-name="Trazado 39605" d="M1171.307,311.4a12.325,12.325,0,0,1-12.358-12.264V273.529a2.244,2.244,0,0,1,2.25-2.234h20.213a2.245,2.245,0,0,1,2.251,2.234v25.608A12.325,12.325,0,0,1,1171.307,311.4Z" transform="translate(-970.154 -198.313)" fill="#e2e3dd"/>
            <path id="Trazado_39606" data-name="Trazado 39606" d="M1161.17,276.781c2.461-2.661,6.123-3.811,9.654-3.968a13.928,13.928,0,0,1,9.654,3.968,13.021,13.021,0,0,1,3.186,5.231v-8.484a2.245,2.245,0,0,0-2.251-2.234H1161.2a2.244,2.244,0,0,0-2.25,2.234v6.227A17.351,17.351,0,0,1,1161.17,276.781Z" transform="translate(-970.154 -198.313)" fill="#ecede7"/>
            <path id="Trazado_39607" data-name="Trazado 39607" d="M1180.757,307.276c-2.461,2.661-6.123,3.811-9.654,3.968a13.928,13.928,0,0,1-9.654-3.968,13.784,13.784,0,0,1-2.5-3.476v.951a12.358,12.358,0,0,0,24.715,0v-1.936A15.124,15.124,0,0,1,1180.757,307.276Z" transform="translate(-970.154 -203.926)" fill="#ecede7"/>
          </g>
        </g>
      </g>
    </g>
  </g>
</svg>
