<svg xmlns="http://www.w3.org/2000/svg" width="555.871" height="312.774" viewBox="0 0 555.871 312.774">
  <g id="Grupo_15751" data-name="Grupo 15751" transform="translate(-2388.774 -6374.309)">
    <g id="Grupo_15749" data-name="Grupo 15749">
      <rect id="Rectángulo_4347" data-name="Rectángulo 4347" width="555.871" height="312.774" rx="14.71" transform="translate(2388.774 6374.309)" fill="#cee9f4"/>
      <rect id="Rectángulo_4348" data-name="Rectángulo 4348" width="267.097" height="196.258" rx="19.161" transform="translate(2396.516 6385.922)" fill="#4463aa"/>
      <text id="Se_debe_inspeccionar_el_etiquetado_y_rotulado_y_compararlo_con_el_registro_de_campo_si_es_conforme_concuerdan_y_es_acorde_a_los_procedimientos_técnicos_el_que_recibe_firmará_la_recepción_incluyendo_fecha_y_hora." data-name="Se debe inspeccionar el etiquetado y rotulado y compararlo con el registro de campo, si es conforme (concuerdan y es acorde a los procedimientos técnicos), el que recibe firmará la recepción incluyendo fecha y hora." transform="translate(2412.645 6395.67)" fill="#fff" font-size="18" font-family="MyriadPro-Regular, Myriad Pro"><tspan x="0" y="17">Se debe inspeccionar el </tspan><tspan x="0" y="38.6">etiquetado y rotulado y </tspan><tspan x="0" y="60.2">compararlo con el registro de </tspan><tspan x="0" y="81.8">campo, si es conforme </tspan><tspan x="0" y="103.4">(concuerdan y es acorde a los </tspan><tspan x="0" y="125">procedimientos técnicos), el </tspan><tspan x="0" y="146.6">que recibe firmará la recepción </tspan><tspan x="0" y="168.2">incluyendo fecha y hora.</tspan></text>
      <path id="Trazado_40834" data-name="Trazado 40834" d="M2654.322,6455.6s45.678,24.387,137.032-13.935c0,0-125.069,19.742-132.682-19.742Z" fill="#4463aa"/>
      <g id="Grupo_15748" data-name="Grupo 15748">
        <path id="Trazado_40835" data-name="Trazado 40835" d="M2828.257,6444.578s-5.84,17.153-9.256,24.686c-19.13,42.186,16.26,36.795,29.719,34.812s28.786-7.069,27.946-17.949c-.572-7.416-5.058-8.23-6.889-10.7s1.739-6.523.183-12.6-11.719-7.316-13.733-8.991-6.066-6.323-4.074-15.127,2.837-13.516-2.86-19.249c-5.724-5.762-14.65-3.24-14.65-3.24Z" fill="#110239"/>
        <path id="Trazado_40836" data-name="Trazado 40836" d="M2775.424,6492.864c-.186.172-5.4-2.146-6.159-3.3a17.155,17.155,0,0,1,2.162-4.65c.424-.606.852-1.165,1.245-1.715.367,1.078.739,2.153,1.136,3.07.291.672,2.72.883,3.341,1.768C2777.678,6489.654,2776.244,6492.1,2775.424,6492.864Z" fill="#ff9d8a"/>
        <g id="Grupo_15724" data-name="Grupo 15724">
          <path id="Trazado_40837" data-name="Trazado 40837" d="M2775.315,6486.29l-4.689,5.7s21.1,28.761,29.316,29.2,25.439-31.079,25.439-31.079l-8.312-19.635s-3.025,1.6-5.126,6.865c-3.73,9.339-7.926,24.916-11.2,25.827C2795.624,6504.586,2775.315,6486.29,2775.315,6486.29Z" fill="#fff"/>
          <path id="Trazado_40838" data-name="Trazado 40838" d="M2785.451,6507.137c4.064,3.045,13.089,8.942,13.332,8.986,4.676.84,13.966-16.57,19.069-31.363,2.808-8.141,9.094-6.082,10.849-8.3l-3.32,13.65s-17.228,31.516-25.439,31.079c-4.715-.251-14.192-10.221-20.991-18.6C2779.754,6503.261,2784.6,6506.5,2785.451,6507.137Z" fill="#d0d1de"/>
        </g>
        <g id="Grupo_15726" data-name="Grupo 15726">
          <g id="Grupo_15725" data-name="Grupo 15725">
            <rect id="Rectángulo_4349" data-name="Rectángulo 4349" width="4.211" height="110.93" transform="translate(2859.083 6563.923)" fill="#a9c9f6"/>
            <rect id="Rectángulo_4350" data-name="Rectángulo 4350" width="4.211" height="110.93" transform="translate(2781.122 6563.923)" fill="#a9c9f6"/>
          </g>
          <rect id="Rectángulo_4351" data-name="Rectángulo 4351" width="104.768" height="10.847" transform="translate(2769.824 6557.375)" fill="#110239"/>
        </g>
        <path id="Trazado_40839" data-name="Trazado 40839" d="M2817.723,6625.211s10.685,9.311,10.629,10.661-18.291,32.344-21.467,32.44-3.917-5.277-3.4-7.316,6.368-31.6,6.368-31.6Z" fill="#110239"/>
        <path id="Trazado_40840" data-name="Trazado 40840" d="M2833.243,6630.971s10.4,9.629,10.3,10.977-19.259,31.778-22.437,31.778-3.755-5.393-3.177-7.415,7.318-31.392,7.318-31.392Z" fill="#110239"/>
        <path id="Trazado_40841" data-name="Trazado 40841" d="M2826.517,6524.593s-13.514,6.436-29.055,12.5c-9.864,3.846-23.645,8.886-23.195,19.47.328,7.718,31.392,82.089,31.392,82.089l14.123-7.062s-25.847-62.6-25.4-66.851,3.453-.49,29.009-2.807,33.307-7.178,33.132-19.311-6.856-29.078-17.2-33.389S2826.517,6524.593,2826.517,6524.593Z" fill="#56b2e5"/>
        <path id="Trazado_40842" data-name="Trazado 40842" d="M2826.517,6524.593s-5.154,6.563-20.7,12.622c-9.864,3.846-22.113,10.888-22.1,17.661.011,7.724,28.931,80.275,28.931,80.275l7.132-3.566s-25.847-62.6-25.4-66.851,3.453-.49,29.009-2.807,33.307-7.178,33.132-19.311-6.856-29.078-17.2-33.389S2826.517,6524.593,2826.517,6524.593Z" fill="#4556ba"/>
        <path id="Trazado_40843" data-name="Trazado 40843" d="M2833.52,6515.335s-4.109,17.132-13.867,21.241-32.173,8.7-32.162,19.515c.008,7.725,33.446,84.225,33.446,84.225l17.14-8.024s-22.642-61.9-22.064-66.138-1.675-2.155,23.94-3.7,29.067-6.431,29.259-18.564-15.535-28.559-15.535-28.559C2843.47,6510.713,2833.52,6515.335,2833.52,6515.335Z" fill="#56b2e5"/>
        <path id="Trazado_40844" data-name="Trazado 40844" d="M2825.863,6455.385s4.045,16.563-3.467,25.036c0,0-10.014,13.482,5.778,15.793s13.738-18.424,13.738-18.424-2.7-22.854,1.412-32.74C2843.324,6445.05,2833.053,6450.7,2825.863,6455.385Z" fill="#e17c5e"/>
        <path id="Trazado_40845" data-name="Trazado 40845" d="M2836.478,6417.845s-21.652,1.1-21.79,6.455,1.823,8.868,1.1,13.549c-1.557,10.071,4.3,21.15,6.866,21.607,3.967.709,17.4-5.218,19.5-13.366S2844.809,6414.6,2836.478,6417.845Z" fill="#ff9d8a"/>
        <path id="Trazado_40846" data-name="Trazado 40846" d="M2812.838,6434.476s15.081,3.434,20.008-8.136c3.893-9.139,2.558-10.248,2.558-10.248s-8.321-6.478-18.117,2.314C2810.725,6424.3,2812.838,6434.476,2812.838,6434.476Z" fill="#110239"/>
        <path id="Trazado_40847" data-name="Trazado 40847" d="M2834.143,6415.854s-8.018,7.042-3.574,13.732c4.007,6.032,1.358,9.269,2.2,13.316a4.476,4.476,0,0,0,2.338-2.764c.412-1.876,1.037-6.642,3.555-5.955s4.868,3.8.015,7.786c0,0-2.638,5.424.775,9.7,0,0,12.925-11.1,9.182-23.6S2834.143,6415.854,2834.143,6415.854Z" fill="#110239"/>
        <path id="Trazado_40848" data-name="Trazado 40848" d="M2773.069,6555.039c3.221-13.2,14.528-14.1,24.393-17.951,9.123-3.557,17.521-7.233,22.924-9.671-.822-5.915-4.017-28.543-5.355-32.332-1.54-4.365-3.541-6.967-1.54-13.332,2.824-8.988,3.578-11.283,3.578-11.283s4.941-4.67,7.938-6.062c0,0,.034,5.019,2.858,6.431s11.818-10.528,11.818-10.528,13.629,5.728,16.713,8.235-1.4,26.539-1.4,26.539,7.838,23.828,8.35,32.759c3.2,5.084,5.948,10.943,5.866,16.05-.192,12.133-3.637,17.174-29.259,18.564-10.075.546-12.837.618-15.229,3.394-1.253,1.456-1.679,4.948-2.516,6.6,0,0-27.942,2.041-48.638-2.776C2772.6,6565.454,2772.017,6559.348,2773.069,6555.039Z" fill="#fff"/>
        <path id="Trazado_40849" data-name="Trazado 40849" d="M2814.261,6570.51c3.775-12.025,14.306-11.306,24.118-14.009,5.816-1.6,16.586-4.242,17.755-11.793,1.73-11.176-1.027-24.985-4.816-35.512-2.7-7.508-6.526-15.67-6.538-23.8-.016-10.582,3.889-14.419,11.562-16.887.015.013.039.028.054.04,3.085,2.507-1.4,26.539-1.4,26.539s7.838,23.828,8.35,32.759c3.2,5.084,5.948,10.942,5.866,16.05-.192,12.133-3.637,17.174-29.259,18.564-10.075.546-12.837.618-15.229,3.393-1.253,1.457-1.679,4.949-2.516,6.6,0,0-3.4.247-8.691.367C2813.757,6572.1,2814,6571.348,2814.261,6570.51Z" fill="#d0d1de"/>
        <path id="Trazado_40850" data-name="Trazado 40850" d="M2840.254,6466.68c-1.661,2.907-3.281,5.841-4.958,8.739a30.43,30.43,0,0,1-1.732,2.957,20.586,20.586,0,0,1-3.529-2.609c-.86-.739-1.475-1.615-2.282-2.433-.343.19-.509.547-.775.819a13.981,13.981,0,0,1-1.2.957,10.365,10.365,0,0,1-2.4,1.686c-.287-1.808-.792-9.156-.406-10.891.243-1.092,2.163.224,2.075-.791.123,1.422.637,4.636,2.816,5.725,2.825,1.413,11.818-10.528,11.818-10.528s1.122.473,2.772,1.194A33.229,33.229,0,0,1,2840.254,6466.68Z" fill="#8397a9" opacity="0.32" style="mix-blend-mode: multiply;isolation: isolate"/>
        <path id="Trazado_40851" data-name="Trazado 40851" d="M2792.421,6572.334c-.837-4.8-1.675-16.221,1.3-19.245,5.689-5.778,19.519-13.454,29.757-18.717,7.14-3.67,9.682-6.4,9.472-7.846-3.349-23.066-4.7-52.633-4.7-54.958l.488,1.627s.885,9.661,1.729,21.182c1.085,14.8,3.4,28.481,3.4,32.723,0,2.6-1.177,3.381-4.928,5.42-4.055,2.2-11.022,5.759-20.045,11.277a112.8,112.8,0,0,0-14.3,9.9c-2.478,2.051-2.367,11.345-1.218,18.706C2793.053,6572.385,2792.736,6572.357,2792.421,6572.334Z" fill="#d0d1de"/>
        <path id="Trazado_40852" data-name="Trazado 40852" d="M2841.48,6437.177s.249,3.2-2.474,3.939c-1.12.3-1.009,3.808-1.912,7.336-1.717,6.713-.624,11.28,4.371,13.226,3.585,1.4,8.657,2.507,14.424,6.55s2.061-12.823-5.218-17.1S2841.48,6437.177,2841.48,6437.177Z" fill="#110239"/>
        <g id="Grupo_15731" data-name="Grupo 15731">
          <g id="Grupo_15730" data-name="Grupo 15730">
            <g id="Grupo_15729" data-name="Grupo 15729">
              <g id="Grupo_15727" data-name="Grupo 15727">
                <rect id="Rectángulo_4352" data-name="Rectángulo 4352" width="3.082" height="146.403" transform="translate(2923.88 6528.45)" fill="#a9c9f6"/>
              </g>
              <g id="Grupo_15728" data-name="Grupo 15728">
                <rect id="Rectángulo_4353" data-name="Rectángulo 4353" width="3.081" height="146.403" transform="translate(2678.15 6528.45)" fill="#a9c9f6"/>
              </g>
            </g>
            <rect id="Rectángulo_4354" data-name="Rectángulo 4354" width="268.456" height="7.114" transform="translate(2668.328 6525.406)" fill="#110239"/>
          </g>
        </g>
        <g id="Grupo_15743" data-name="Grupo 15743">
          <g id="Grupo_15733" data-name="Grupo 15733">
            <g id="Grupo_15732" data-name="Grupo 15732">
              <path id="Trazado_40853" data-name="Trazado 40853" d="M2739.417,6485.607v27.109c0,1.664,1.127,2.26,2.516,2.26h.051c1.39,0,2.516-.6,2.516-2.26v-27.109h1.224v28.653a3.728,3.728,0,0,1-3.728,3.728h-.075a3.728,3.728,0,0,1-3.728-3.728v-28.653Z" fill="#fff"/>
              <rect id="Rectángulo_4355" data-name="Rectángulo 4355" width="1.224" height="2.541" transform="translate(2738.193 6485.607)" fill="#dfeaeb"/>
              <rect id="Rectángulo_4356" data-name="Rectángulo 4356" width="1.223" height="2.541" transform="translate(2744.5 6485.607)" fill="#dfeaeb"/>
              <path id="Trazado_40854" data-name="Trazado 40854" d="M2741.933,6514.976h.051c1.39,0,2.516-.6,2.516-2.26v-27.109h-5.083v27.109C2739.417,6514.38,2740.544,6514.976,2741.933,6514.976Z" fill="#fff" opacity="0.32" style="mix-blend-mode: screen;isolation: isolate"/>
              <path id="Trazado_40855" data-name="Trazado 40855" d="M2744.5,6498.329v14.387c0,1.664-1.126,2.26-2.516,2.26h-.051c-1.389,0-2.516-.6-2.516-2.26v-14.387Z" fill="#56b2e5"/>
            </g>
            <rect id="Rectángulo_4357" data-name="Rectángulo 4357" width="9.319" height="1.93" rx="0.955" transform="translate(2737.299 6484.76)" fill="#fff"/>
            <path id="Trazado_40856" data-name="Trazado 40856" d="M2741.629,6501.138a.659.659,0,1,0,.659-.658A.659.659,0,0,0,2741.629,6501.138Z" fill="#6fc6ec"/>
            <circle id="Elipse_1088" data-name="Elipse 1088" cx="1.059" cy="1.059" r="1.059" transform="translate(2741.841 6504.856)" fill="#6fc6ec"/>
            <path id="Trazado_40857" data-name="Trazado 40857" d="M2740.97,6508.8a.553.553,0,1,0,.553-.553A.553.553,0,0,0,2740.97,6508.8Z" fill="#6fc6ec"/>
            <circle id="Elipse_1089" data-name="Elipse 1089" cx="1.012" cy="1.012" r="1.012" transform="translate(2740.264 6511.022)" fill="#6fc6ec"/>
            <path id="Trazado_40858" data-name="Trazado 40858" d="M2739.935,6503.845a.682.682,0,1,0,.682-.683A.681.681,0,0,0,2739.935,6503.845Z" fill="#6fc6ec"/>
            <path id="Trazado_40859" data-name="Trazado 40859" d="M2742.947,6510.465a.557.557,0,1,0,.557-.557A.557.557,0,0,0,2742.947,6510.465Z" fill="#6fc6ec"/>
          </g>
          <g id="Grupo_15735" data-name="Grupo 15735">
            <g id="Grupo_15734" data-name="Grupo 15734">
              <path id="Trazado_40860" data-name="Trazado 40860" d="M2726.54,6485.607v27.109c0,1.664,1.126,2.26,2.516,2.26h.051c1.389,0,2.516-.6,2.516-2.26v-27.109h1.224v28.653a3.728,3.728,0,0,1-3.728,3.728h-.075a3.728,3.728,0,0,1-3.728-3.728v-28.653Z" fill="#fff"/>
              <rect id="Rectángulo_4358" data-name="Rectángulo 4358" width="1.223" height="2.541" transform="translate(2725.316 6485.607)" fill="#dfeaeb"/>
              <rect id="Rectángulo_4359" data-name="Rectángulo 4359" width="1.224" height="2.541" transform="translate(2731.623 6485.607)" fill="#dfeaeb"/>
              <path id="Trazado_40861" data-name="Trazado 40861" d="M2729.056,6514.976h.051c1.389,0,2.516-.6,2.516-2.26v-27.109h-5.083v27.109C2726.54,6514.38,2727.666,6514.976,2729.056,6514.976Z" fill="#fff" opacity="0.32" style="mix-blend-mode: screen;isolation: isolate"/>
              <path id="Trazado_40862" data-name="Trazado 40862" d="M2731.623,6501.577v11.139c0,1.664-1.127,2.26-2.516,2.26h-.051c-1.39,0-2.516-.6-2.516-2.26v-11.139Z" fill="#56b2e5"/>
            </g>
            <rect id="Rectángulo_4360" data-name="Rectángulo 4360" width="9.319" height="1.93" rx="0.955" transform="translate(2724.422 6484.76)" fill="#fff"/>
            <circle id="Elipse_1090" data-name="Elipse 1090" cx="1.059" cy="1.059" r="1.059" transform="translate(2727.034 6502.586)" fill="#6fc6ec"/>
            <path id="Trazado_40863" data-name="Trazado 40863" d="M2727.54,6507.333a.553.553,0,1,0,.553-.553A.554.554,0,0,0,2727.54,6507.333Z" fill="#6fc6ec"/>
            <path id="Trazado_40864" data-name="Trazado 40864" d="M2728.971,6511.781a.891.891,0,1,0,.891-.89A.891.891,0,0,0,2728.971,6511.781Z" fill="#6fc6ec"/>
            <circle id="Elipse_1091" data-name="Elipse 1091" cx="0.766" cy="0.766" r="0.766" transform="translate(2728.093 6508.585)" fill="#6fc6ec"/>
            <path id="Trazado_40865" data-name="Trazado 40865" d="M2729.387,6505.539a.682.682,0,1,0,.683-.682A.684.684,0,0,0,2729.387,6505.539Z" fill="#6fc6ec"/>
            <path id="Trazado_40866" data-name="Trazado 40866" d="M2727.536,6513.046a.557.557,0,1,0,.557-.557A.557.557,0,0,0,2727.536,6513.046Z" fill="#6fc6ec"/>
          </g>
          <g id="Grupo_15737" data-name="Grupo 15737">
            <g id="Grupo_15736" data-name="Grupo 15736">
              <path id="Trazado_40867" data-name="Trazado 40867" d="M2713.663,6485.607v27.109c0,1.664,1.126,2.26,2.516,2.26h.051c1.389,0,2.516-.6,2.516-2.26v-27.109h1.223v28.653a3.727,3.727,0,0,1-3.727,3.728h-.075a3.728,3.728,0,0,1-3.728-3.728v-28.653Z" fill="#fff"/>
              <rect id="Rectángulo_4361" data-name="Rectángulo 4361" width="1.224" height="2.541" transform="translate(2712.439 6485.607)" fill="#dfeaeb"/>
              <rect id="Rectángulo_4362" data-name="Rectángulo 4362" width="1.224" height="2.541" transform="translate(2718.746 6485.607)" fill="#dfeaeb"/>
              <path id="Trazado_40868" data-name="Trazado 40868" d="M2716.179,6514.976h.051c1.389,0,2.516-.6,2.516-2.26v-27.109h-5.083v27.109C2713.663,6514.38,2714.789,6514.976,2716.179,6514.976Z" fill="#fff" opacity="0.32" style="mix-blend-mode: screen;isolation: isolate"/>
              <path id="Trazado_40869" data-name="Trazado 40869" d="M2718.746,6499.766v12.95c0,1.664-1.127,2.26-2.516,2.26h-.051c-1.39,0-2.516-.6-2.516-2.26v-12.95Z" fill="#56b2e5"/>
            </g>
            <rect id="Rectángulo_4363" data-name="Rectángulo 4363" width="9.319" height="1.93" rx="0.955" transform="translate(2711.545 6484.76)" fill="#fff"/>
            <path id="Trazado_40870" data-name="Trazado 40870" d="M2716.852,6503.515a.659.659,0,1,0,.659-.659A.659.659,0,0,0,2716.852,6503.515Z" fill="#6fc6ec"/>
            <circle id="Elipse_1092" data-name="Elipse 1092" cx="1.059" cy="1.059" r="1.059" transform="translate(2714.204 6500.738)" fill="#6fc6ec"/>
            <path id="Trazado_40871" data-name="Trazado 40871" d="M2715.522,6506.78a.942.942,0,1,0,.941-.942A.942.942,0,0,0,2715.522,6506.78Z" fill="#6fc6ec"/>
            <path id="Trazado_40872" data-name="Trazado 40872" d="M2715.31,6512.954a1.012,1.012,0,1,0,1.012-1.012A1.012,1.012,0,0,0,2715.31,6512.954Z" fill="#6fc6ec"/>
            <path id="Trazado_40873" data-name="Trazado 40873" d="M2714.065,6504.937a.682.682,0,1,0,.683-.683A.683.683,0,0,0,2714.065,6504.937Z" fill="#6fc6ec"/>
            <path id="Trazado_40874" data-name="Trazado 40874" d="M2716.954,6510.256a.557.557,0,1,0,.557-.557A.556.556,0,0,0,2716.954,6510.256Z" fill="#6fc6ec"/>
            <path id="Trazado_40875" data-name="Trazado 40875" d="M2714.408,6509.7a.557.557,0,1,0,.557-.556A.556.556,0,0,0,2714.408,6509.7Z" fill="#6fc6ec"/>
          </g>
          <g id="Grupo_15739" data-name="Grupo 15739">
            <g id="Grupo_15738" data-name="Grupo 15738">
              <path id="Trazado_40876" data-name="Trazado 40876" d="M2700.786,6485.607v27.109c0,1.664,1.126,2.26,2.516,2.26h.05c1.39,0,2.516-.6,2.516-2.26v-27.109h1.224v28.653a3.728,3.728,0,0,1-3.727,3.728h-.076a3.728,3.728,0,0,1-3.727-3.728v-28.653Z" fill="#fff"/>
              <rect id="Rectángulo_4364" data-name="Rectángulo 4364" width="1.224" height="2.541" transform="translate(2699.562 6485.607)" fill="#dfeaeb"/>
              <rect id="Rectángulo_4365" data-name="Rectángulo 4365" width="1.224" height="2.541" transform="translate(2705.868 6485.607)" fill="#dfeaeb"/>
              <path id="Trazado_40877" data-name="Trazado 40877" d="M2703.3,6514.976h.05c1.39,0,2.516-.6,2.516-2.26v-27.109h-5.082v27.109C2700.786,6514.38,2701.912,6514.976,2703.3,6514.976Z" fill="#fff" opacity="0.32" style="mix-blend-mode: screen;isolation: isolate"/>
              <path id="Trazado_40878" data-name="Trazado 40878" d="M2705.868,6496.969v15.747c0,1.664-1.126,2.26-2.516,2.26h-.05c-1.39,0-2.516-.6-2.516-2.26v-15.747Z" fill="#56b2e5"/>
            </g>
            <rect id="Rectángulo_4366" data-name="Rectángulo 4366" width="9.319" height="1.93" rx="0.955" transform="translate(2698.668 6484.76)" fill="#fff"/>
            <path id="Trazado_40879" data-name="Trazado 40879" d="M2702.009,6500.95a.659.659,0,1,0,.659-.659A.659.659,0,0,0,2702.009,6500.95Z" fill="#6fc6ec"/>
            <path id="Trazado_40880" data-name="Trazado 40880" d="M2701.28,6510.722a1.059,1.059,0,1,0,1.059-1.059A1.058,1.058,0,0,0,2701.28,6510.722Z" fill="#6fc6ec"/>
            <path id="Trazado_40881" data-name="Trazado 40881" d="M2703.4,6513.046a.553.553,0,1,0,.553-.553A.553.553,0,0,0,2703.4,6513.046Z" fill="#6fc6ec"/>
            <path id="Trazado_40882" data-name="Trazado 40882" d="M2702.939,6502.961a1.012,1.012,0,1,0,1.012-1.012A1.012,1.012,0,0,0,2702.939,6502.961Z" fill="#6fc6ec"/>
            <path id="Trazado_40883" data-name="Trazado 40883" d="M2701.265,6505.387a.835.835,0,1,0,.834-.835A.835.835,0,0,0,2701.265,6505.387Z" fill="#6fc6ec"/>
            <path id="Trazado_40884" data-name="Trazado 40884" d="M2703.821,6498.871a.682.682,0,1,0,.683-.683A.683.683,0,0,0,2703.821,6498.871Z" fill="#6fc6ec"/>
            <circle id="Elipse_1093" data-name="Elipse 1093" cx="0.941" cy="0.941" r="0.941" transform="translate(2703.116 6506.716)" fill="#6fc6ec"/>
            <path id="Trazado_40885" data-name="Trazado 40885" d="M2704.315,6510.465a.557.557,0,1,0,.557-.557A.557.557,0,0,0,2704.315,6510.465Z" fill="#6fc6ec"/>
          </g>
          <g id="Grupo_15742" data-name="Grupo 15742">
            <g id="Grupo_15740" data-name="Grupo 15740">
              <rect id="Rectángulo_4367" data-name="Rectángulo 4367" width="3.526" height="31.426" transform="translate(2748.934 6491.066)" fill="#8397ca"/>
              <rect id="Rectángulo_4368" data-name="Rectángulo 4368" width="3.526" height="31.426" transform="translate(2692.826 6491.066)" fill="#8397ca"/>
            </g>
            <g id="Grupo_15741" data-name="Grupo 15741" style="mix-blend-mode: multiply;isolation: isolate">
              <rect id="Rectángulo_4369" data-name="Rectángulo 4369" width="3.526" height="6.745" transform="translate(2748.934 6491.066)" fill="#8397a9"/>
              <rect id="Rectángulo_4370" data-name="Rectángulo 4370" width="3.526" height="6.745" transform="translate(2692.826 6491.066)" fill="#8397a9"/>
            </g>
            <rect id="Rectángulo_4371" data-name="Rectángulo 4371" width="67.605" height="4.139" transform="translate(2688.84 6521.267)" fill="#fff"/>
            <rect id="Rectángulo_4372" data-name="Rectángulo 4372" width="67.605" height="4.139" transform="translate(2688.84 6489.917)" fill="#fff"/>
          </g>
        </g>
        <path id="Trazado_40886" data-name="Trazado 40886" d="M2836.729,6456.733l5.716,5.3-10.48,13.909-4.1-5.1Z" fill="#fff"/>
        <path id="Trazado_40887" data-name="Trazado 40887" d="M2826.669,6460.311l1.2,10.528-4,3.572-1.089-8.66Z" fill="#fff"/>
        <g id="Grupo_15744" data-name="Grupo 15744">
          <path id="Trazado_40888" data-name="Trazado 40888" d="M2787.082,6502.721v-6.928h1.217v7.055s-8.819,12.624-8.819,16.506c0,1.884.606,3.081,2.237,3.676a5.342,5.342,0,0,0,1.84.3h14.337a5.342,5.342,0,0,0,1.84-.3c1.631-.595,2.237-1.792,2.237-3.676,0-3.882-8.819-16.506-8.819-16.506v-7.055h1.217v6.928s9.425,13.542,9.425,18.053c0,2.19-.7,3.58-2.6,4.272a6.216,6.216,0,0,1-2.138.354h-16.663a6.214,6.214,0,0,1-2.138-.354c-1.9-.692-2.6-2.082-2.6-4.272C2777.657,6516.263,2787.082,6502.721,2787.082,6502.721Z" fill="#fff"/>
          <rect id="Rectángulo_4373" data-name="Rectángulo 4373" width="1.217" height="2.106" transform="translate(2787.082 6495.792)" fill="#dfeaeb"/>
          <rect id="Rectángulo_4374" data-name="Rectángulo 4374" width="1.217" height="2.106" transform="translate(2793.152 6495.792)" fill="#dfeaeb"/>
          <path id="Trazado_40889" data-name="Trazado 40889" d="M2788.3,6502.848v-7.055h4.853v7.055s8.819,12.624,8.819,16.506c0,1.884-.606,3.081-2.237,3.676a5.342,5.342,0,0,1-1.84.3h-14.337a5.342,5.342,0,0,1-1.84-.3c-1.631-.595-2.237-1.792-2.237-3.676C2779.48,6515.472,2788.3,6502.848,2788.3,6502.848Z" fill="#fff" opacity="0.32" style="mix-blend-mode: screen;isolation: isolate"/>
          <path id="Trazado_40890" data-name="Trazado 40890" d="M2783.284,6511.274a17.1,17.1,0,0,0,3.054,1.508c2.63.99,4.774.312,7.19-.892a8.726,8.726,0,0,1,4.855-.862c1.9,3.256,3.588,6.627,3.588,8.326,0,1.884-.606,3.081-2.237,3.676a5.342,5.342,0,0,1-1.84.3h-14.337a5.342,5.342,0,0,1-1.84-.3c-1.631-.595-2.237-1.792-2.237-3.676,0-1.686,1.663-5.019,3.545-8.252C2783.11,6511.16,2783.2,6511.219,2783.284,6511.274Z" fill="#f34f95"/>
          <rect id="Rectángulo_4375" data-name="Rectángulo 4375" width="9.475" height="2.692" rx="1.332" transform="translate(2785.988 6494.056)" fill="#fff"/>
          <path id="Trazado_40891" data-name="Trazado 40891" d="M2796.627,6517.491a1.368,1.368,0,1,0,1.368-1.368A1.368,1.368,0,0,0,2796.627,6517.491Z" fill="#fc889f"/>
          <path id="Trazado_40892" data-name="Trazado 40892" d="M2794.674,6513.909a.716.716,0,1,0,.716-.717A.716.716,0,0,0,2794.674,6513.909Z" fill="#fc889f"/>
          <path id="Trazado_40893" data-name="Trazado 40893" d="M2793.176,6520.665a.993.993,0,1,0,.993-.993A.993.993,0,0,0,2793.176,6520.665Z" fill="#fc889f"/>
          <path id="Trazado_40894" data-name="Trazado 40894" d="M2790.726,6516.631a1.225,1.225,0,1,0,1.225-1.224A1.225,1.225,0,0,0,2790.726,6516.631Z" fill="#fc889f"/>
          <path id="Trazado_40895" data-name="Trazado 40895" d="M2784.481,6516.384a1.759,1.759,0,1,0,1.759-1.759A1.759,1.759,0,0,0,2784.481,6516.384Z" fill="#fc889f"/>
          <path id="Trazado_40896" data-name="Trazado 40896" d="M2787.868,6521.61a.8.8,0,1,0,.8-.8A.8.8,0,0,0,2787.868,6521.61Z" fill="#fc889f"/>
          <path id="Trazado_40897" data-name="Trazado 40897" d="M2782.544,6519.762a.9.9,0,1,0,.9-.9A.9.9,0,0,0,2782.544,6519.762Z" fill="#fc889f"/>
          <path id="Trazado_40898" data-name="Trazado 40898" d="M2781.388,6515.683a.7.7,0,1,0,.7-.7A.7.7,0,0,0,2781.388,6515.683Z" fill="#fc889f"/>
          <path id="Trazado_40899" data-name="Trazado 40899" d="M2797.507,6520.731a.732.732,0,1,0,.732-.733A.732.732,0,0,0,2797.507,6520.731Z" fill="#fc889f"/>
        </g>
        <path id="Trazado_40900" data-name="Trazado 40900" d="M2809.358,6505.177s-3.574-.461-4.31-.653-8.9-8.062-10.123-7.595-12.7,4.7-12.756,6.1,2.875,1.313,9.168-1.7c0,0-8.137,3.065-7.119,4.588s8.423-2.356,8.423-2.356-7.384,2.994-6.182,4.409,8.084-2.66,8.084-2.66-5.344,3.008-4.935,3.848,3.415.367,7.076-1.612c0,0,.617-.153,1.969,1.09s10.292,3.389,10.292,3.389Z" fill="#ff9d8a"/>
        <path id="Trazado_40901" data-name="Trazado 40901" d="M2808.415,6501.949l-2.44,11.654s56.056,12.8,64.017,11.772,11.555-11.555,6.42-20.8-15.5-36.481-22.173-36.994-10.961,8.521-5.441,18.407,11.051,22.7,8.868,24.364S2808.415,6501.949,2808.415,6501.949Z" fill="#fff"/>
        <g id="Grupo_15746" data-name="Grupo 15746">
          <g id="Grupo_15745" data-name="Grupo 15745">
            <path id="Trazado_40902" data-name="Trazado 40902" d="M2775.424,6464.049l-13.835,23.313c-.849,1.431-.184,2.518,1.011,3.227l.044.026c1.2.709,2.467.772,3.316-.659l13.835-23.314,1.052.625-14.622,24.641a3.728,3.728,0,0,1-5.108,1.3l-.065-.038a3.728,3.728,0,0,1-1.3-5.108l14.622-24.641Z" fill="#fff"/>
            <rect id="Rectángulo_4376" data-name="Rectángulo 4376" width="2.541" height="1.224" transform="matrix(0.51, -0.86, 0.86, 0.51, 2773.074, 6465.61)" fill="#dfeaeb"/>
            <rect id="Rectángulo_4377" data-name="Rectángulo 4377" width="2.541" height="1.224" transform="matrix(0.51, -0.86, 0.86, 0.51, 2778.498, 6468.828)" fill="#dfeaeb"/>
            <path id="Trazado_40903" data-name="Trazado 40903" d="M2762.6,6490.589l.044.026c1.2.709,2.467.772,3.316-.659l13.835-23.314-4.371-2.593-13.835,23.313C2760.74,6488.793,2761.405,6489.88,2762.6,6490.589Z" fill="#fff" opacity="0.32" style="mix-blend-mode: screen;isolation: isolate"/>
            <path id="Trazado_40904" data-name="Trazado 40904" d="M2761.879,6486.873l.056-.1.038-.063,5.053-8.516c.107-.165.2-.341.314-.5a.606.606,0,0,0,.039-.1l1.858-3.13a1.051,1.051,0,0,1,1.1-.062c.394.237.606.7,1.06.929a5.044,5.044,0,0,0,1.218.323c.311.076,1.177.28,1.354.58a.353.353,0,0,1,.024.179l-8.031,13.533c-.849,1.431-2.121,1.368-3.36.633a2.309,2.309,0,0,1-1.379-2.219,2.6,2.6,0,0,1,.368-1.008Z" fill="#56b2e5"/>
          </g>
          <path id="Trazado_40905" data-name="Trazado 40905" d="M2773.871,6464.386l6.371,3.781a.955.955,0,0,0,1.309-.334l.01-.017a.955.955,0,0,0-.334-1.309l-6.371-3.781a.956.956,0,0,0-1.309.334l-.01.017A.956.956,0,0,0,2773.871,6464.386Z" fill="#fff"/>
          <path id="Trazado_40906" data-name="Trazado 40906" d="M2769.4,6478.534a.659.659,0,1,0,.9-.23A.659.659,0,0,0,2769.4,6478.534Z" fill="#6fc6ec"/>
          <path id="Trazado_40907" data-name="Trazado 40907" d="M2767.144,6482.75a1.059,1.059,0,1,0,1.451-.37A1.059,1.059,0,0,0,2767.144,6482.75Z" fill="#6fc6ec"/>
          <path id="Trazado_40908" data-name="Trazado 40908" d="M2764.924,6484.785a.553.553,0,1,0,.758-.193A.553.553,0,0,0,2764.924,6484.785Z" fill="#6fc6ec"/>
          <path id="Trazado_40909" data-name="Trazado 40909" d="M2762.666,6487.207a1.012,1.012,0,1,0,1.386-.353A1.013,1.013,0,0,0,2762.666,6487.207Z" fill="#6fc6ec"/>
          <path id="Trazado_40910" data-name="Trazado 40910" d="M2766.562,6480a.682.682,0,1,0,.935-.239A.683.683,0,0,0,2766.562,6480Z" fill="#6fc6ec"/>
          <path id="Trazado_40911" data-name="Trazado 40911" d="M2765.774,6487.227a.557.557,0,1,0,.763-.194A.557.557,0,0,0,2765.774,6487.227Z" fill="#6fc6ec"/>
          <path id="Trazado_40912" data-name="Trazado 40912" d="M2771.059,6476.906a.842.842,0,1,0,1.154-.295A.843.843,0,0,0,2771.059,6476.906Z" fill="#6fc6ec"/>
          <path id="Trazado_40913" data-name="Trazado 40913" d="M2769.554,6475.468a.557.557,0,1,0,.764-.195A.558.558,0,0,0,2769.554,6475.468Z" fill="#6fc6ec"/>
        </g>
        <path id="Trazado_40914" data-name="Trazado 40914" d="M2766.926,6474.7c1.05.54,4.1,2.31,3.62,4.014-.4,1.417-4.345-.965-4.345-.965,1.456.905,3.989,1.416,3.559,2.616-.479,1.339-3.8.056-4.542-.331.712.069,4.435,1.6,3.241,2.894-.819.883-3.56-.276-4.392-.686,1.052.149,2.557.826,2.508,2.258-.317.83-1.913.561-2.811.35-1.356-.319-2.551-.731-2.9-2.3-.066-.293.808-4.593,2.488-6.619C2764.372,6474.7,2765.608,6473.986,2766.926,6474.7Z" fill="#ff9d8a"/>
        <path id="Trazado_40915" data-name="Trazado 40915" d="M2774.022,6477.922a3.81,3.81,0,0,1,.418,2.626c-.159,1.179-1.033,3.968-1.02,4.3.011.295.156.627.017.9-.222.44-1.068.893-1.435,1.238-.228.213-2.737,2.723-2.487,2.955l-1.419-1.312,2.779-5.12a6.741,6.741,0,0,0,1.1-2.8,7.979,7.979,0,0,0-.651-2.6c-.326-.867-1.128-1.939-.64-2.893C2771.546,6473.524,2773.729,6477.361,2774.022,6477.922Z" fill="#ff9d8a"/>
        <g id="Grupo_15747" data-name="Grupo 15747">
          <path id="Trazado_40916" data-name="Trazado 40916" d="M2894.281,6494.941v-9.315h1.637v9.486s-11.857,16.974-11.857,22.192c0,2.535.814,4.143,3.007,4.944a7.214,7.214,0,0,0,2.474.409h19.277a7.224,7.224,0,0,0,2.474-.409c2.192-.8,3.007-2.409,3.007-4.944,0-5.218-11.857-22.192-11.857-22.192v-9.486h1.636v9.315s12.673,18.209,12.673,24.273c0,2.945-.947,4.815-3.495,5.745a8.387,8.387,0,0,1-2.875.475h-22.4a8.38,8.38,0,0,1-2.874-.475c-2.549-.93-3.5-2.8-3.5-5.745C2881.609,6513.15,2894.281,6494.941,2894.281,6494.941Z" fill="#fff"/>
          <rect id="Rectángulo_4378" data-name="Rectángulo 4378" width="1.637" height="2.831" transform="translate(2894.281 6485.626)" fill="#dfeaeb"/>
          <rect id="Rectángulo_4379" data-name="Rectángulo 4379" width="1.637" height="2.831" transform="translate(2902.443 6485.626)" fill="#dfeaeb"/>
          <path id="Trazado_40917" data-name="Trazado 40917" d="M2895.918,6495.112v-9.486h6.525v9.486s11.857,16.974,11.857,22.192c0,2.535-.814,4.143-3.007,4.944a7.224,7.224,0,0,1-2.474.409h-19.277a7.214,7.214,0,0,1-2.474-.409c-2.193-.8-3.007-2.409-3.007-4.944C2884.061,6512.086,2895.918,6495.112,2895.918,6495.112Z" fill="#fff" opacity="0.32" style="mix-blend-mode: screen;isolation: isolate"/>
          <path id="Trazado_40918" data-name="Trazado 40918" d="M2889.175,6506.442a22.922,22.922,0,0,0,4.1,2.026c3.537,1.332,6.42.42,9.668-1.2a11.744,11.744,0,0,1,6.529-1.158c2.553,4.377,4.823,8.911,4.823,11.193,0,2.535-.815,4.143-3.007,4.944a7.224,7.224,0,0,1-2.474.409h-19.277a7.214,7.214,0,0,1-2.474-.409c-2.193-.8-3.007-2.409-3.007-4.944,0-2.265,2.235-6.748,4.765-11.094C2888.941,6506.288,2889.056,6506.367,2889.175,6506.442Z" fill="#fc3"/>
          <path id="Rectángulo_4380" data-name="Rectángulo 4380" d="M1.792,0h9.156A1.791,1.791,0,0,1,12.74,1.791v.036a1.791,1.791,0,0,1-1.791,1.791H1.791A1.791,1.791,0,0,1,0,1.828V1.792A1.792,1.792,0,0,1,1.792,0Z" transform="translate(2892.81 6483.291)" fill="#fff"/>
          <path id="Trazado_40919" data-name="Trazado 40919" d="M2907.116,6514.8a1.839,1.839,0,1,0,1.839-1.839A1.839,1.839,0,0,0,2907.116,6514.8Z" fill="#ffe081"/>
          <circle id="Elipse_1094" data-name="Elipse 1094" cx="0.963" cy="0.963" r="0.963" transform="translate(2904.489 6509.021)" fill="#ffe081"/>
          <path id="Trazado_40920" data-name="Trazado 40920" d="M2902.475,6519.069a1.335,1.335,0,1,0,1.335-1.336A1.335,1.335,0,0,0,2902.475,6519.069Z" fill="#ffe081"/>
          <path id="Trazado_40921" data-name="Trazado 40921" d="M2899.18,6513.645a1.648,1.648,0,1,0,1.647-1.647A1.647,1.647,0,0,0,2899.18,6513.645Z" fill="#ffe081"/>
          <path id="Trazado_40922" data-name="Trazado 40922" d="M2890.785,6513.311a2.364,2.364,0,1,0,2.364-2.364A2.364,2.364,0,0,0,2890.785,6513.311Z" fill="#ffe081"/>
          <path id="Trazado_40923" data-name="Trazado 40923" d="M2895.338,6520.338a1.073,1.073,0,1,0,1.073-1.072A1.073,1.073,0,0,0,2895.338,6520.338Z" fill="#ffe081"/>
          <circle id="Elipse_1095" data-name="Elipse 1095" cx="1.215" cy="1.215" r="1.215" transform="translate(2888.18 6516.639)" fill="#ffe081"/>
          <path id="Trazado_40924" data-name="Trazado 40924" d="M2886.625,6512.37a.942.942,0,1,0,.942-.942A.941.941,0,0,0,2886.625,6512.37Z" fill="#ffe081"/>
          <circle id="Elipse_1096" data-name="Elipse 1096" cx="0.985" cy="0.985" r="0.985" transform="translate(2908.298 6518.171)" fill="#ffe081"/>
        </g>
      </g>
    </g>
    <g id="Grupo_15750" data-name="Grupo 15750">
      <path id="Trazado_40925" data-name="Trazado 40925" d="M2647.354,6377.212v34.065h38.71S2648.129,6376.438,2647.354,6377.212Z" fill="#0e2571"/>
      <text id="_2." data-name="2." transform="translate(2651.225 6406.245)" fill="#fff" font-size="18" font-family="MyriadPro-Bold, Myriad Pro" font-weight="700"><tspan x="0" y="0">2.</tspan></text>
    </g>
  </g>
</svg>
