<svg xmlns="http://www.w3.org/2000/svg" xmlns:xlink="http://www.w3.org/1999/xlink" width="432.174" height="313.372" viewBox="0 0 432.174 313.372">
  <defs>
    <clipPath id="clip-path">
      <path id="Intersección_1" data-name="Intersección 1" d="M2987.047,6686.132c-5.983,0-10.834-8.731-10.834-19.5v-274c0-10.771,4.851-19.5,10.834-19.5h410.5c5.984,0,10.834,8.729,10.834,19.5v274c0,10.769-4.85,19.5-10.834,19.5Z" fill="none"/>
    </clipPath>
  </defs>
  <g id="Grupo_15874" data-name="Grupo 15874" transform="translate(-2976.213 -6372.76)">
    <g id="Grupo_15872" data-name="Grupo 15872">
      <rect id="Rectángulo_4535" data-name="Rectángulo 4535" width="432" height="312.774" rx="14.71" transform="translate(2976.387 6372.761)" fill="#cee9f4"/>
      <rect id="Rectángulo_4536" data-name="Rectángulo 4536" width="267.097" height="168.387" rx="19.161" transform="translate(3126.967 6384.793)" fill="#4463aa"/>
      <path id="Trazado_41321" data-name="Trazado 41321" d="M3150.58,6511.341s-25.032,24.387-75.1-13.935c0,0,68.541,19.742,72.713-19.742Z" fill="#4463aa"/>
      <g id="Grupo_15871" data-name="Grupo 15871">
        <g id="Grupo_15870" data-name="Grupo 15870" clip-path="url(#clip-path)">
          <g id="Grupo_15869" data-name="Grupo 15869">
            <path id="Trazado_41322" data-name="Trazado 41322" d="M3045.121,6994.876s-3.731,22.286-1.42,28.447c1.773,4.726,68.869,5.413,72.64,1.3s-2.515-11.252-5.814-12.9-37.565-16.672-37.565-16.672Z" fill="#110239"/>
            <path id="Trazado_41323" data-name="Trazado 41323" d="M3002.512,6999.121h-28.651s-15.114,20.529-14.889,25.718,23.236,14.889,28.425,14.889,23.688-12.408,23.461-14.664S3002.512,6999.121,3002.512,6999.121Z" fill="#110239"/>
            <path id="Trazado_41324" data-name="Trazado 41324" d="M3087.289,6662.371l-81.332-1.534s-12.37,20.277-15.138,78.8c-1.9,40.067-3.534,51.161-7.519,104.124-2.7,35.956-15.459,156.976-15.459,156.976h43.225s18.3-140.468,19.233-149.033c.331-3.03,11.033-106.753,11.033-106.753s-1.75,95.891-1.75,104.65-1.891,146.693-1.891,146.693h45.53s5.116-114.769,5.549-144.878C3089.469,6802.671,3093.636,6678.112,3087.289,6662.371Z" fill="#110239"/>
            <path id="Trazado_41325" data-name="Trazado 41325" d="M3150.248,6604.057c3.686-3.331,6.78-6.444,7.674-8.113,1.395-2.608,1.9-5.5,2.83-8.26a35.239,35.239,0,0,1,1.383-3.709c.642-1.356,1.678-2.485,2.162-3.926.386-1.149.679-6.933,2.478-7.584,1.422-.516,1.89.463,2.27,1.569.488,1.426-.541,3.754-.842,5.2-.172.826-.738,3.206.023,3.848,1.03.87,2.348-2.7,2.7-3.417a12.129,12.129,0,0,0,1.125-3.477,38.343,38.343,0,0,0,.43-4.143c.051-.841.061-1.707.1-2.536.067-1.4.122-2.655.071-4.048-.038-1.046.117-2.369,1.434-2.5,1.477-.151,1.5,2.357,1.549,3.417a31.607,31.607,0,0,0,.3,3.292c.11.729-.265,2.328.491,2.779a16.673,16.673,0,0,0,.864-4.88c.1-.994.13-6.812,1.82-6.789,2.682.035,2.106,4.214,1.939,5.917a14.976,14.976,0,0,1-.64,3.364c-.162.466-.654,2.825-.42,2.639,1.684-1.34,1.346-4.8,1.689-6.751.211-1.207,1.006-4.847,2.689-2.839a4.039,4.039,0,0,1,.528,2.937,15.16,15.16,0,0,1-.977,4.759,12.11,12.11,0,0,0-.586,3.174c1.316-.906,1.9-5.907,3.663-5.825,1.143.056,1.258,2.187,1.116,2.943-1.006,5.34-4.306,10.638-7.007,15.358a155.409,155.409,0,0,1-9.731,14.877c-1.959,2.662-8.987,7.283-15.515,15.845C3153.408,6611.866,3152.41,6609.484,3150.248,6604.057Z" fill="#f88667"/>
            <path id="Trazado_41326" data-name="Trazado 41326" d="M3104.377,6516.744c10.072,14,24.154,99.115,26.767,97.712,2.89-1.553,16.623-12.6,23.943-19.956a118.006,118.006,0,0,0,7.94,17.941c-12.75,16.825-30.726,40.114-35.591,44.538-16.379,14.891-26.375-56.414-42.292-77.658C3091.744,6557.247,3099.437,6521.656,3104.377,6516.744Z" fill="#fff"/>
            <path id="Trazado_41327" data-name="Trazado 41327" d="M3059.078,6474.893c-10.577-1.285-18.239-5.95-25.8-13.26,2.154,20.291-4.254,41.256-4.254,41.256s1.015,66.518,28.055,58.522,9.647-51.287,9.647-51.287C3060.466,6500.159,3059.153,6485.143,3059.078,6474.893Z" fill="#e45940"/>
            <path id="Trazado_41328" data-name="Trazado 41328" d="M3029.3,6501.178s-37.762,5.138-46.9,10.089c0,0,25.681,41.137,17.684,67.6,0,0-4.2,53.4-5.888,87.245-.514,10.3-11.8,113.657-11.8,113.657s57.954,22.3,120.758,2.885c0,0-8.331-104.588-8.465-121.084-.249-30.848-.6-76.868-.579-86.959,0,0,4.635-37.5,10.268-57.867,0,0-19.981-8.374-40.455-12.164,0,0,1.667,2.107-7,13.16C3051.715,6524.374,3030.842,6514.69,3029.3,6501.178Z" fill="#fff"/>
            <path id="Trazado_41329" data-name="Trazado 41329" d="M3040.35,6533.462c-1.432-2.824-11.934-18.175-17.159-31.392,3.687-.56,6.1-.892,6.1-.892,1.546,13.512,22.419,23.195,27.622,16.563,8.671-11.053,7-13.16,7-13.16,1.893.35,3.764.773,5.632,1.191-.131.79-.287,1.574-.4,2.365-1.126,7.94-2.51,17.4-3.626,25.325l-12.157-9.311Z" fill="#dee8f3"/>
            <path id="Trazado_41330" data-name="Trazado 41330" d="M3057.158,6790.406c-1.851.077-3.64.076-5.451.1l-.93-270.672a10.037,10.037,0,0,0,1.909-.189Z" fill="#d0d1de"/>
            <path id="Trazado_41331" data-name="Trazado 41331" d="M3000.079,6578.868c5.446-18.021-4.718-42.82-11.763-56.826a150.156,150.156,0,0,1,13.738,22.851c12.017,25.951,3.223,44.614,1.207,70.69-2.784,36-3.265,72.477-4.721,108.584-.634,15.715-2.192,39.6.93,60.591a149.013,149.013,0,0,1-17.075-4.988s11.282-103.357,11.8-113.657C2995.882,6632.268,3000.079,6578.868,3000.079,6578.868Z" fill="#d0d1de"/>
            <path id="Trazado_41332" data-name="Trazado 41332" d="M3091.387,6651.6c-1.063-26.915-4.837-51.6,2.722-75.274.01,12.709.342,55.833.579,85.242.134,16.5,8.464,121.085,8.464,121.085-2.212.684-4.4,1.22-6.6,1.793C3088.345,6741.426,3093.1,6694.912,3091.387,6651.6Z" fill="#d0d1de"/>
            <path id="Trazado_41333" data-name="Trazado 41333" d="M3129.65,6560.195l39.2,10.475c3.5.936,4.788,4.805,2.893,8.632l-40.86,82.456c-1.731,3.5-5.876,5.711-9.272,4.96l-38-8.389c-3.521-.777-5.031-4.309-3.359-7.9l39.478-84.845C3121.57,6561.642,3126.016,6559.224,3129.65,6560.195Z" fill="#56b2e5"/>
            <path id="Trazado_41334" data-name="Trazado 41334" d="M3098.549,6654.654c-2.193.839-5.556,3.326-7.87,2.372-.322-.133,2.374-1.065,2.944-1.18a17.536,17.536,0,0,0,3.807-1.394c1.841-.873,6.452-2.839,4.991-5.693-.922-1.8-6.909,1.748-7.984,2.257-1.592.754-3.729,1.91-5.489,2.092.041-1.078,1.89-1.666,2.578-2.23a37.7,37.7,0,0,1,3.209-2.346c1.06-.705,3.622-2.273,2.641-3.741-.873-1.309-2.317-.658-3.37.028-1.4.911-2.719,1.624-4.193,2.416-.874.47-1.767.993-2.658,1.456a45.3,45.3,0,0,1-4.491,2.1,13.794,13.794,0,0,1-4.2.951c-.937.072-5.331.876-5.013-.749.234-1.2,2.992-2.066,3.935-2.394,1.651-.571,4.615-.917,5.8-2.309.924-1.084,1.665-2.181.343-3.367-1.672-1.5-7.771,1.752-9.166,2.052-1.749.376-3.487-.025-5.235.133a39.918,39.918,0,0,0-4.581.822c-3.351.711-6.6,1.964-10.055,2.1a14.146,14.146,0,0,1-3.188-.688c.431,5.822-5.927,6.264-7.925,11.673,3.468.584,15.349,6.762,16.655,6.91a118.24,118.24,0,0,0,17.143.757c6.351-.052,13.63.175,19.672-2.052.856-.314,2.979-1.747,2.4-2.99-.9-1.913-6.359.548-8.021-.285a14.118,14.118,0,0,1,3.584-1.335,17.636,17.636,0,0,0,5.427-1.9c1.085-.588,2.258-1.128,2.72-2.367C3104.086,6652.733,3099.906,6654.135,3098.549,6654.654Z" fill="#f88667"/>
            <path id="Trazado_41335" data-name="Trazado 41335" d="M3052.068,6666.68l4.02-21.772c-.057-2.066-62.15-25.62-63.474-30.255-2.962-10.368,7.464-35.786,7.464-35.786s6.2-19.262,5.46-34.468c-1.313-26.829-23.143-33.132-23.143-33.132-17.137,10.282-27.813,83.392-30.227,104.355-1.138,9.878-1,17.98,3.358,21.612C2972.038,6650.992,3046.937,6666.68,3052.068,6666.68Z" fill="#fff"/>
            <path id="Trazado_41336" data-name="Trazado 41336" d="M3044.81,6422.341s37.825,2.07,41.2,7.012,1.006,19.852-1.764,32.292-2.48,37.415-17.966,38.8-40.44-18-45.143-44.768C3015.148,6421.6,3042.224,6422.18,3044.81,6422.341Z" fill="#f88667"/>
            <path id="Trazado_41337" data-name="Trazado 41337" d="M3039.209,6418.121s17.218,4.191,14.833,30.95c-1.076,12.062,0,21.756-3.755,21.587s-6.991-3.409-6.285-6.807,1.958-14.706-5.6-13.059-7.987,15.491,0,21.184a11.258,11.258,0,0,1-7.65,10.631s-15.886-15.3-14.255-36.37S3028.259,6415.234,3039.209,6418.121Z" fill="#110239"/>
            <path id="Trazado_41338" data-name="Trazado 41338" d="M3031.784,6418.985s7.511-15.549,27.111-12.819,32.651,17.544,38.692,34.933c0,0-7.2,8.159-27.357,5.19-8.377-1.234-22.622-6.6-29.174-11.932C3031.839,6426.855,3031.784,6418.985,3031.784,6418.985Z" fill="#110239"/>
            <path id="Trazado_41339" data-name="Trazado 41339" d="M3052.708,6520.995l10.46,8.4,6.448-23.645-6.934-4.574Z" fill="#fff"/>
            <path id="Trazado_41340" data-name="Trazado 41340" d="M3040.875,6531.233l12.5-11.557-22.931-22.264-6.713,4.574Z" fill="#fff"/>
          </g>
          <text id="no_conformidad" data-name="no 
conformidad" transform="matrix(0.961, 0.276, -0.276, 0.961, 3143.716, 6576.546)" fill="#00223d" font-size="7.935" font-family="MyriadPro-BoldIt, Myriad Pro" font-weight="700" font-style="italic"><tspan x="-5.181" y="0">no </tspan><tspan x="-22.118" y="9.522">conformidad</tspan></text>
        </g>
      </g>
      <text id="Cuando_exista_no_conformidad_el_que_recolectó_la_muestra_deberá_anotar_en_la_parte_de_atrás_del_registro_las_observaciones_las_inconformidades_encontradas_con_fecha_y_hora_p.56_." data-name="Cuando exista no conformidad, el que recolectó la muestra deberá anotar en la parte de atrás del registro las observaciones las inconformidades encontradas con fecha y hora (p.56)." transform="translate(3143.096 6394.54)" fill="#fff" font-size="18" font-family="MyriadPro-Regular, Myriad Pro"><tspan x="0" y="18">Cuando exista </tspan><tspan y="18" font-family="MyriadPro-BoldIt, Myriad Pro" font-weight="700" font-style="italic">no </tspan><tspan x="0" y="39.6" font-family="MyriadPro-BoldIt, Myriad Pro" font-weight="700" font-style="italic">conformidad</tspan><tspan y="39.6">, el que recolectó </tspan><tspan x="0" y="61.2">la muestra deberá anotar en la </tspan><tspan x="0" y="82.8">parte de atrás del registro las </tspan><tspan x="0" y="104.4">observaciones las </tspan><tspan x="0" y="126">inconformidades encontradas </tspan><tspan x="0" y="147.6">con fecha y hora (p.56).</tspan></text>
    </g>
    <g id="Grupo_15873" data-name="Grupo 15873">
      <path id="Trazado_41343" data-name="Trazado 41343" d="M3136.806,6377.212v34.065H3098.1S3136.032,6376.438,3136.806,6377.212Z" fill="#0e2571"/>
      <text id="_3." data-name="3." transform="translate(3118.935 6406.245)" fill="#fff" font-size="18" font-family="MyriadPro-Bold, Myriad Pro" font-weight="700"><tspan x="0" y="0">3.</tspan></text>
    </g>
  </g>
</svg>
