<svg xmlns="http://www.w3.org/2000/svg" width="1018" height="315.143" viewBox="0 0 1018 315.143">
  <g id="Grupo_15723" data-name="Grupo 15723" transform="translate(-2389.483 -6032.374)">
    <g id="Grupo_15721" data-name="Grupo 15721">
      <g id="Rectángulo_4253" data-name="Rectángulo 4253">
        <rect id="Rectángulo_4253-2" data-name="Rectángulo 4253" width="1018" height="314" rx="20" transform="translate(2389.483 6032.374)" fill="#cee9f4"/>
        <rect id="Rectángulo_4254" data-name="Rectángulo 4254" width="1017" height="313" rx="19.5" transform="translate(2389.983 6032.874)" fill="#cee9f4"/>
      </g>
      <rect id="Rectángulo_4255" data-name="Rectángulo 4255" width="384.387" height="259.419" rx="19.161" transform="translate(2396.516 6045.664)" fill="#4463aa"/>
      <g id="Grupo_15720" data-name="Grupo 15720">
        <g id="Grupo_15618" data-name="Grupo 15618">
          <g id="Grupo_15608" data-name="Grupo 15608">
            <g id="Grupo_15607" data-name="Grupo 15607">
              <path id="Trazado_40639" data-name="Trazado 40639" d="M2899.832,6133.039v34.095c0,2.093-1.417,2.842-3.165,2.842h-.064c-1.748,0-3.164-.749-3.164-2.842v-34.095H2891.9v36.037a4.688,4.688,0,0,0,4.688,4.688h.1a4.688,4.688,0,0,0,4.688-4.688v-36.037Z" fill="#fff"/>
              <rect id="Rectángulo_4256" data-name="Rectángulo 4256" width="1.539" height="3.196" transform="translate(2899.832 6133.039)" fill="#dfeaeb"/>
              <rect id="Rectángulo_4257" data-name="Rectángulo 4257" width="1.539" height="3.196" transform="translate(2891.9 6133.039)" fill="#dfeaeb"/>
              <path id="Trazado_40640" data-name="Trazado 40640" d="M2896.667,6169.976h-.064c-1.748,0-3.164-.749-3.164-2.842v-34.095h6.393v34.095C2899.832,6169.227,2898.415,6169.976,2896.667,6169.976Z" fill="#fff" opacity="0.32" style="mix-blend-mode: screen;isolation: isolate"/>
              <path id="Trazado_40641" data-name="Trazado 40641" d="M2893.439,6149.04v18.094c0,2.093,1.416,2.842,3.164,2.842h.064c1.748,0,3.165-.749,3.165-2.842V6149.04Z" fill="#56b2e5"/>
            </g>
            <path id="Rectángulo_4258" data-name="Rectángulo 4258" d="M1.2,0h9.318a1.2,1.2,0,0,1,1.2,1.2v.024a1.2,1.2,0,0,1-1.2,1.2H1.2A1.2,1.2,0,0,1,0,1.225V1.2A1.2,1.2,0,0,1,1.2,0Z" transform="translate(2890.775 6131.974)" fill="#fff"/>
            <path id="Trazado_40642" data-name="Trazado 40642" d="M2897.049,6152.573a.828.828,0,1,1-.828-.829A.828.828,0,0,1,2897.049,6152.573Z" fill="#6fc6ec"/>
            <path id="Trazado_40643" data-name="Trazado 40643" d="M2896.783,6158.581a1.332,1.332,0,1,1-1.332-1.332A1.332,1.332,0,0,1,2896.783,6158.581Z" fill="#6fc6ec"/>
            <path id="Trazado_40644" data-name="Trazado 40644" d="M2897.878,6162.206a.7.7,0,1,1-.695-.695A.695.695,0,0,1,2897.878,6162.206Z" fill="#6fc6ec"/>
            <path id="Trazado_40645" data-name="Trazado 40645" d="M2898.766,6166.276a1.273,1.273,0,1,1-1.273-1.273A1.273,1.273,0,0,1,2898.766,6166.276Z" fill="#6fc6ec"/>
            <circle id="Elipse_1066" data-name="Elipse 1066" cx="0.858" cy="0.858" r="0.858" transform="translate(2897.464 6155.118)" fill="#6fc6ec"/>
            <path id="Trazado_40646" data-name="Trazado 40646" d="M2895.392,6164.3a.7.7,0,1,1-.7-.7A.7.7,0,0,1,2895.392,6164.3Z" fill="#6fc6ec"/>
          </g>
          <g id="Grupo_15610" data-name="Grupo 15610">
            <g id="Grupo_15609" data-name="Grupo 15609">
              <path id="Trazado_40647" data-name="Trazado 40647" d="M2916.027,6133.039v34.095c0,2.093-1.416,2.842-3.164,2.842h-.064c-1.748,0-3.165-.749-3.165-2.842v-34.095h-1.539v36.037a4.688,4.688,0,0,0,4.688,4.688h.095a4.688,4.688,0,0,0,4.688-4.688v-36.037Z" fill="#fff"/>
              <rect id="Rectángulo_4259" data-name="Rectángulo 4259" width="1.539" height="3.196" transform="translate(2916.027 6133.039)" fill="#dfeaeb"/>
              <rect id="Rectángulo_4260" data-name="Rectángulo 4260" width="1.539" height="3.196" transform="translate(2908.095 6133.039)" fill="#dfeaeb"/>
              <path id="Trazado_40648" data-name="Trazado 40648" d="M2912.863,6169.976h-.064c-1.748,0-3.165-.749-3.165-2.842v-34.095h6.393v34.095C2916.027,6169.227,2914.611,6169.976,2912.863,6169.976Z" fill="#fff" opacity="0.32" style="mix-blend-mode: screen;isolation: isolate"/>
              <path id="Trazado_40649" data-name="Trazado 40649" d="M2909.634,6153.125v14.009c0,2.093,1.417,2.842,3.165,2.842h.064c1.748,0,3.164-.749,3.164-2.842v-14.009Z" fill="#56b2e5"/>
            </g>
            <path id="Rectángulo_4261" data-name="Rectángulo 4261" d="M1.2,0h9.318a1.2,1.2,0,0,1,1.2,1.2v.024a1.2,1.2,0,0,1-1.2,1.2H1.2A1.2,1.2,0,0,1,0,1.225V1.2A1.2,1.2,0,0,1,1.2,0Z" transform="translate(2906.971 6131.974)" fill="#fff"/>
            <path id="Trazado_40650" data-name="Trazado 40650" d="M2915.406,6155.725a1.332,1.332,0,1,1-1.332-1.332A1.332,1.332,0,0,1,2915.406,6155.725Z" fill="#6fc6ec"/>
            <path id="Trazado_40651" data-name="Trazado 40651" d="M2914.769,6160.363a.7.7,0,1,1-.7-.695A.7.7,0,0,1,2914.769,6160.363Z" fill="#6fc6ec"/>
            <path id="Trazado_40652" data-name="Trazado 40652" d="M2912.969,6165.958a1.12,1.12,0,1,1-1.119-1.12A1.119,1.119,0,0,1,2912.969,6165.958Z" fill="#6fc6ec"/>
            <path id="Trazado_40653" data-name="Trazado 40653" d="M2914.074,6162.9a.963.963,0,1,1-.963-.963A.963.963,0,0,1,2914.074,6162.9Z" fill="#6fc6ec"/>
            <path id="Trazado_40654" data-name="Trazado 40654" d="M2912.446,6158.107a.859.859,0,1,1-.858-.858A.858.858,0,0,1,2912.446,6158.107Z" fill="#6fc6ec"/>
            <path id="Trazado_40655" data-name="Trazado 40655" d="M2914.774,6167.549a.7.7,0,1,1-.7-.7A.7.7,0,0,1,2914.774,6167.549Z" fill="#6fc6ec"/>
          </g>
          <g id="Grupo_15612" data-name="Grupo 15612">
            <g id="Grupo_15611" data-name="Grupo 15611">
              <path id="Trazado_40656" data-name="Trazado 40656" d="M2932.223,6133.039v34.095c0,2.093-1.417,2.842-3.164,2.842h-.065c-1.747,0-3.164-.749-3.164-2.842v-34.095h-1.539v36.037a4.688,4.688,0,0,0,4.688,4.688h.095a4.688,4.688,0,0,0,4.688-4.688v-36.037Z" fill="#fff"/>
              <rect id="Rectángulo_4262" data-name="Rectángulo 4262" width="1.539" height="3.196" transform="translate(2932.223 6133.039)" fill="#dfeaeb"/>
              <rect id="Rectángulo_4263" data-name="Rectángulo 4263" width="1.539" height="3.196" transform="translate(2924.291 6133.039)" fill="#dfeaeb"/>
              <path id="Trazado_40657" data-name="Trazado 40657" d="M2929.059,6169.976h-.065c-1.747,0-3.164-.749-3.164-2.842v-34.095h6.393v34.095C2932.223,6169.227,2930.806,6169.976,2929.059,6169.976Z" fill="#fff" opacity="0.32" style="mix-blend-mode: screen;isolation: isolate"/>
              <path id="Trazado_40658" data-name="Trazado 40658" d="M2925.83,6150.847v16.287c0,2.093,1.417,2.842,3.164,2.842h.065c1.747,0,3.164-.749,3.164-2.842v-16.287Z" fill="#56b2e5"/>
            </g>
            <rect id="Rectángulo_4264" data-name="Rectángulo 4264" width="11.72" height="2.427" rx="1.201" transform="translate(2923.166 6131.974)" fill="#fff"/>
            <path id="Trazado_40659" data-name="Trazado 40659" d="M2928.212,6155.562a.829.829,0,1,1-.829-.828A.829.829,0,0,1,2928.212,6155.562Z" fill="#6fc6ec"/>
            <path id="Trazado_40660" data-name="Trazado 40660" d="M2931.542,6153.4a1.332,1.332,0,1,1-1.332-1.332A1.332,1.332,0,0,1,2931.542,6153.4Z" fill="#6fc6ec"/>
            <path id="Trazado_40661" data-name="Trazado 40661" d="M2929.885,6159.668a1.184,1.184,0,1,1-1.184-1.184A1.184,1.184,0,0,1,2929.885,6159.668Z" fill="#6fc6ec"/>
            <path id="Trazado_40662" data-name="Trazado 40662" d="M2930.151,6167.433a1.272,1.272,0,1,1-1.273-1.273A1.273,1.273,0,0,1,2930.151,6167.433Z" fill="#6fc6ec"/>
            <circle id="Elipse_1067" data-name="Elipse 1067" cx="0.858" cy="0.858" r="0.858" transform="translate(2930 6156.492)" fill="#6fc6ec"/>
            <path id="Trazado_40663" data-name="Trazado 40663" d="M2928.084,6164.04a.7.7,0,1,1-.7-.7A.7.7,0,0,1,2928.084,6164.04Z" fill="#6fc6ec"/>
            <circle id="Elipse_1068" data-name="Elipse 1068" cx="0.701" cy="0.701" r="0.701" transform="translate(2929.885 6162.639)" fill="#6fc6ec"/>
          </g>
          <g id="Grupo_15614" data-name="Grupo 15614">
            <g id="Grupo_15613" data-name="Grupo 15613">
              <path id="Trazado_40664" data-name="Trazado 40664" d="M2948.419,6133.039v34.095c0,2.093-1.417,2.842-3.165,2.842h-.064c-1.748,0-3.164-.749-3.164-2.842v-34.095h-1.539v36.037a4.688,4.688,0,0,0,4.688,4.688h.095a4.688,4.688,0,0,0,4.688-4.688v-36.037Z" fill="#fff"/>
              <rect id="Rectángulo_4265" data-name="Rectángulo 4265" width="1.539" height="3.196" transform="translate(2948.419 6133.039)" fill="#dfeaeb"/>
              <rect id="Rectángulo_4266" data-name="Rectángulo 4266" width="1.539" height="3.196" transform="translate(2940.487 6133.039)" fill="#dfeaeb"/>
              <path id="Trazado_40665" data-name="Trazado 40665" d="M2945.254,6169.976h-.064c-1.748,0-3.164-.749-3.164-2.842v-34.095h6.393v34.095C2948.419,6169.227,2947,6169.976,2945.254,6169.976Z" fill="#fff" opacity="0.32" style="mix-blend-mode: screen;isolation: isolate"/>
              <path id="Trazado_40666" data-name="Trazado 40666" d="M2942.026,6147.328v19.806c0,2.093,1.416,2.842,3.164,2.842h.064c1.748,0,3.165-.749,3.165-2.842v-19.806Z" fill="#56b2e5"/>
            </g>
            <path id="Rectángulo_4267" data-name="Rectángulo 4267" d="M1.2,0h9.318a1.2,1.2,0,0,1,1.2,1.2v.024a1.2,1.2,0,0,1-1.2,1.2H1.2A1.2,1.2,0,0,1,0,1.225V1.2A1.2,1.2,0,0,1,1.2,0Z" transform="translate(2939.362 6131.974)" fill="#fff"/>
            <path id="Trazado_40667" data-name="Trazado 40667" d="M2946.88,6152.336a.829.829,0,1,1-.829-.829A.829.829,0,0,1,2946.88,6152.336Z" fill="#6fc6ec"/>
            <path id="Trazado_40668" data-name="Trazado 40668" d="M2947.8,6164.626a1.332,1.332,0,1,1-1.332-1.332A1.332,1.332,0,0,1,2947.8,6164.626Z" fill="#6fc6ec"/>
            <path id="Trazado_40669" data-name="Trazado 40669" d="M2945.133,6167.549a.7.7,0,1,1-.7-.7A.695.695,0,0,1,2945.133,6167.549Z" fill="#6fc6ec"/>
            <path id="Trazado_40670" data-name="Trazado 40670" d="M2945.71,6154.865a1.272,1.272,0,1,1-1.272-1.273A1.272,1.272,0,0,1,2945.71,6154.865Z" fill="#6fc6ec"/>
            <path id="Trazado_40671" data-name="Trazado 40671" d="M2947.816,6157.916a1.05,1.05,0,1,1-1.05-1.05A1.05,1.05,0,0,1,2947.816,6157.916Z" fill="#6fc6ec"/>
            <circle id="Elipse_1069" data-name="Elipse 1069" cx="0.858" cy="0.858" r="0.858" transform="translate(2942.884 6148.862)" fill="#6fc6ec"/>
            <path id="Trazado_40672" data-name="Trazado 40672" d="M2945.487,6160.771a1.183,1.183,0,1,1-1.183-1.183A1.183,1.183,0,0,1,2945.487,6160.771Z" fill="#6fc6ec"/>
            <path id="Trazado_40673" data-name="Trazado 40673" d="M2943.979,6164.3a.7.7,0,1,1-.7-.7A.7.7,0,0,1,2943.979,6164.3Z" fill="#6fc6ec"/>
          </g>
          <g id="Grupo_15617" data-name="Grupo 15617">
            <g id="Grupo_15615" data-name="Grupo 15615">
              <rect id="Rectángulo_4268" data-name="Rectángulo 4268" width="4.435" height="39.525" transform="translate(2883.428 6139.905)" fill="#8397ca"/>
              <rect id="Rectángulo_4269" data-name="Rectángulo 4269" width="4.435" height="39.525" transform="translate(2953.995 6139.905)" fill="#8397ca"/>
            </g>
            <g id="Grupo_15616" data-name="Grupo 15616" style="mix-blend-mode: multiply;isolation: isolate">
              <rect id="Rectángulo_4270" data-name="Rectángulo 4270" width="4.435" height="8.483" transform="translate(2883.428 6139.905)" fill="#8397a9"/>
              <rect id="Rectángulo_4271" data-name="Rectángulo 4271" width="4.435" height="8.483" transform="translate(2953.995 6139.905)" fill="#8397a9"/>
            </g>
            <rect id="Rectángulo_4272" data-name="Rectángulo 4272" width="85.027" height="5.206" transform="translate(2878.415 6177.888)" fill="#fff"/>
            <rect id="Rectángulo_4273" data-name="Rectángulo 4273" width="85.027" height="5.206" transform="translate(2878.415 6138.459)" fill="#fff"/>
          </g>
        </g>
        <g id="Grupo_15667" data-name="Grupo 15667">
          <path id="Trazado_40674" data-name="Trazado 40674" d="M3028.889,6179.553H3002.5l2.169-31.816h22.054Z" fill="#dee8f3"/>
          <path id="Trazado_40675" data-name="Trazado 40675" d="M3032.348,6174.459a1.725,1.725,0,0,0-1.433-.764H3000.47a1.723,1.723,0,0,0-1.433.764l-3.988,5.95a1.725,1.725,0,0,0,1.433,2.685H3034.9a1.724,1.724,0,0,0,1.432-2.685Z" fill="#fff"/>
          <rect id="Rectángulo_4274" data-name="Rectángulo 4274" width="144.1" height="96.596" rx="7.428" transform="translate(2943.642 6059.6)" fill="#fff"/>
          <path id="Trazado_40676" data-name="Trazado 40676" d="M3087.742,6145.306v-78.279a7.428,7.428,0,0,0-7.428-7.428H2951.07a7.428,7.428,0,0,0-7.428,7.428v78.279Z" fill="#110239"/>
          <rect id="Rectángulo_4275" data-name="Rectángulo 4275" width="130.831" height="72.203" transform="translate(2950.277 6065.999)" fill="#56b2e5"/>
          <g id="Grupo_15666" data-name="Grupo 15666">
            <g id="Grupo_15619" data-name="Grupo 15619">
              <rect id="Rectángulo_4276" data-name="Rectángulo 4276" width="0.319" height="6.181" transform="matrix(0.949, -0.316, 0.316, 0.949, 2998.786, 6092.563)" fill="#c5c5c4"/>
            </g>
            <g id="Grupo_15620" data-name="Grupo 15620">
              <rect id="Rectángulo_4277" data-name="Rectángulo 4277" width="0.319" height="20.623" transform="translate(2972.256 6102.764) rotate(-72.223)" fill="#c5c5c4"/>
            </g>
            <g id="Grupo_15621" data-name="Grupo 15621">
              <rect id="Rectángulo_4278" data-name="Rectángulo 4278" width="0.319" height="7.199" transform="matrix(0.99, -0.14, 0.14, 0.99, 2994.019, 6112.164)" fill="#c5c5c4"/>
            </g>
            <g id="Grupo_15622" data-name="Grupo 15622">
              <rect id="Rectángulo_4279" data-name="Rectángulo 4279" width="7.106" height="0.319" transform="matrix(0.659, -0.752, 0.752, 0.659, 2989.109, 6128.819)" fill="#c5c5c4"/>
            </g>
            <g id="Grupo_15623" data-name="Grupo 15623">
              <rect id="Rectángulo_4280" data-name="Rectángulo 4280" width="0.319" height="6.021" transform="translate(2998.359 6122.148) rotate(-71.545)" fill="#c5c5c4"/>
            </g>
            <g id="Grupo_15624" data-name="Grupo 15624">
              <rect id="Rectángulo_4281" data-name="Rectángulo 4281" width="0.319" height="6.449" transform="translate(2997.789 6123.099) rotate(-69.827)" fill="#c5c5c4"/>
            </g>
            <g id="Grupo_15625" data-name="Grupo 15625">
              <rect id="Rectángulo_4282" data-name="Rectángulo 4282" width="5.617" height="0.319" transform="matrix(0.655, -0.756, 0.756, 0.655, 2995.329, 6106.755)" fill="#c5c5c4"/>
            </g>
            <g id="Grupo_15626" data-name="Grupo 15626">
              <rect id="Rectángulo_4283" data-name="Rectángulo 4283" width="5.67" height="0.319" transform="translate(2995.966 6108.182) rotate(-51.409)" fill="#c5c5c4"/>
            </g>
            <g id="Grupo_15627" data-name="Grupo 15627">
              <rect id="Rectángulo_4284" data-name="Rectángulo 4284" width="0.319" height="6.711" transform="translate(3004.543 6101.486) rotate(-68.035)" fill="#c5c5c4"/>
            </g>
            <g id="Grupo_15628" data-name="Grupo 15628">
              <rect id="Rectángulo_4285" data-name="Rectángulo 4285" width="0.319" height="6.52" transform="translate(3014.124 6107.401) rotate(-17.153)" fill="#c5c5c4"/>
            </g>
            <g id="Grupo_15629" data-name="Grupo 15629">
              <rect id="Rectángulo_4286" data-name="Rectángulo 4286" width="6.902" height="0.319" transform="matrix(0.654, -0.756, 0.756, 0.654, 3010.179, 6123.475)" fill="#c5c5c4"/>
            </g>
            <g id="Grupo_15630" data-name="Grupo 15630">
              <rect id="Rectángulo_4287" data-name="Rectángulo 4287" width="0.319" height="8.752" transform="translate(3019.34 6116.875) rotate(-88.034)" fill="#c5c5c4"/>
            </g>
            <g id="Grupo_15631" data-name="Grupo 15631">
              <rect id="Rectángulo_4288" data-name="Rectángulo 4288" width="8.953" height="0.319" transform="translate(3032.209 6114.364) rotate(-68.986)" fill="#c5c5c4"/>
            </g>
            <g id="Grupo_15632" data-name="Grupo 15632">
              <rect id="Rectángulo_4289" data-name="Rectángulo 4289" width="0.319" height="4.057" transform="translate(3032.639 6119.012) rotate(-45.975)" fill="#c5c5c4"/>
            </g>
            <g id="Grupo_15633" data-name="Grupo 15633">
              <rect id="Rectángulo_4290" data-name="Rectángulo 4290" width="6.956" height="0.319" transform="translate(3037.013 6104.972) rotate(-13.809)" fill="#c5c5c4"/>
            </g>
            <g id="Grupo_15634" data-name="Grupo 15634">
              <rect id="Rectángulo_4291" data-name="Rectángulo 4291" width="8.059" height="0.319" transform="matrix(0.135, -0.991, 0.991, 0.135, 3025.472, 6095.423)" fill="#c5c5c4"/>
            </g>
            <g id="Grupo_15635" data-name="Grupo 15635">
              <path id="Trazado_40677" data-name="Trazado 40677" d="M3033.856,6105.6l-6.552-6,.278-1.514,7.271,6.1-.205.244-6.85-5.744-.147.8,6.422,5.883Z" fill="#c5c5c4"/>
            </g>
            <g id="Grupo_15636" data-name="Grupo 15636">
              <rect id="Rectángulo_4292" data-name="Rectángulo 4292" width="7.438" height="0.319" transform="matrix(0.82, -0.573, 0.573, 0.82, 3016.11, 6102.968)" fill="#c5c5c4"/>
            </g>
            <g id="Grupo_15637" data-name="Grupo 15637">
              <rect id="Rectángulo_4293" data-name="Rectángulo 4293" width="7.136" height="0.32" transform="matrix(0.962, -0.273, 0.273, 0.962, 3029.651, 6083.249)" fill="#c5c5c4"/>
            </g>
            <g id="Grupo_15638" data-name="Grupo 15638">
              <rect id="Rectángulo_4294" data-name="Rectángulo 4294" width="0.319" height="4.778" transform="translate(3021.987 6077.24) rotate(-42.576)" fill="#c5c5c4"/>
            </g>
            <g id="Grupo_15639" data-name="Grupo 15639">
              <rect id="Rectángulo_4295" data-name="Rectángulo 4295" width="0.319" height="5.373" transform="matrix(0.736, -0.677, 0.677, 0.736, 3020.901, 6078.583)" fill="#c5c5c4"/>
            </g>
            <g id="Grupo_15640" data-name="Grupo 15640">
              <rect id="Rectángulo_4296" data-name="Rectángulo 4296" width="0.32" height="7.035" transform="translate(3022.163 6074.675) rotate(-30.592)" fill="#c5c5c4"/>
            </g>
            <g id="Grupo_15641" data-name="Grupo 15641">
              <rect id="Rectángulo_4297" data-name="Rectángulo 4297" width="0.319" height="6.739" transform="translate(3036.155 6071.931) rotate(-21.323)" fill="#c5c5c4"/>
            </g>
            <g id="Grupo_15642" data-name="Grupo 15642">
              <rect id="Rectángulo_4298" data-name="Rectángulo 4298" width="0.319" height="5.079" transform="translate(3034.896 6075.3) rotate(-32.878)" fill="#c5c5c4"/>
            </g>
            <g id="Grupo_15643" data-name="Grupo 15643">
              <rect id="Rectángulo_4299" data-name="Rectángulo 4299" width="6.282" height="0.319" transform="translate(3042.47 6080.296) rotate(-14.37)" fill="#c5c5c4"/>
            </g>
            <g id="Grupo_15644" data-name="Grupo 15644">
              <path id="Trazado_40678" data-name="Trazado 40678" d="M2990.787,6129.894a2.861,2.861,0,1,1-2.86-2.861A2.861,2.861,0,0,1,2990.787,6129.894Z" fill="#fc3"/>
              <path id="Trazado_40679" data-name="Trazado 40679" d="M2989.981,6128.924a.958.958,0,1,1-.957-.957A.958.958,0,0,1,2989.981,6128.924Z" fill="#ffe390"/>
            </g>
            <g id="Grupo_15645" data-name="Grupo 15645">
              <path id="Trazado_40680" data-name="Trazado 40680" d="M2985.094,6105.477a4.243,4.243,0,1,1-4.243-4.243A4.244,4.244,0,0,1,2985.094,6105.477Z" fill="#fc3"/>
              <path id="Trazado_40681" data-name="Trazado 40681" d="M2983.9,6104.04a1.42,1.42,0,1,1-1.42-1.421A1.419,1.419,0,0,1,2983.9,6104.04Z" fill="#ffe390"/>
            </g>
            <g id="Grupo_15646" data-name="Grupo 15646">
              <path id="Trazado_40682" data-name="Trazado 40682" d="M2997.063,6109.72a4.244,4.244,0,1,1-4.243-4.243A4.243,4.243,0,0,1,2997.063,6109.72Z" fill="#fc3"/>
              <circle id="Elipse_1070" data-name="Elipse 1070" cx="1.42" cy="1.42" r="1.42" transform="translate(2993.027 6106.862)" fill="#ffe390"/>
            </g>
            <g id="Grupo_15647" data-name="Grupo 15647">
              <path id="Trazado_40683" data-name="Trazado 40683" d="M3006.33,6101.234a4.243,4.243,0,1,1-4.243-4.243A4.242,4.242,0,0,1,3006.33,6101.234Z" fill="#fc3"/>
              <circle id="Elipse_1071" data-name="Elipse 1071" cx="1.42" cy="1.42" r="1.42" transform="translate(3002.294 6098.376)" fill="#ffe390"/>
            </g>
            <g id="Grupo_15648" data-name="Grupo 15648">
              <path id="Trazado_40684" data-name="Trazado 40684" d="M3018.313,6104.665a4.243,4.243,0,1,1-4.243-4.243A4.243,4.243,0,0,1,3018.313,6104.665Z" fill="#fc3"/>
              <path id="Trazado_40685" data-name="Trazado 40685" d="M3017.117,6103.228a1.42,1.42,0,1,1-1.42-1.421A1.42,1.42,0,0,1,3017.117,6103.228Z" fill="#ffe390"/>
            </g>
            <g id="Grupo_15649" data-name="Grupo 15649">
              <circle id="Elipse_1072" data-name="Elipse 1072" cx="2.055" cy="2.055" r="2.055" transform="translate(2996.783 6090.209)" fill="#fc3"/>
              <path id="Trazado_40686" data-name="Trazado 40686" d="M3000.313,6091.568a.688.688,0,1,1-.687-.688A.687.687,0,0,1,3000.313,6091.568Z" fill="#ffe390"/>
            </g>
            <g id="Grupo_15650" data-name="Grupo 15650">
              <circle id="Elipse_1073" data-name="Elipse 1073" cx="2.58" cy="2.58" r="2.58" transform="translate(3033.354 6068.188)" fill="#fc3"/>
              <path id="Trazado_40687" data-name="Trazado 40687" d="M3037.788,6069.894a.864.864,0,1,1-.864-.863A.864.864,0,0,1,3037.788,6069.894Z" fill="#ffe390"/>
            </g>
            <g id="Grupo_15651" data-name="Grupo 15651">
              <circle id="Elipse_1074" data-name="Elipse 1074" cx="1.902" cy="1.902" r="1.902" transform="translate(3019.669 6072.7)" fill="#e4e4e4"/>
              <circle id="Elipse_1075" data-name="Elipse 1075" cx="0.637" cy="0.637" r="0.637" transform="translate(3021.664 6073.321)" fill="#fff"/>
            </g>
            <g id="Grupo_15652" data-name="Grupo 15652">
              <circle id="Elipse_1076" data-name="Elipse 1076" cx="1.902" cy="1.902" r="1.902" transform="translate(3033.672 6103.228)" fill="#e4e4e4"/>
              <circle id="Elipse_1077" data-name="Elipse 1077" cx="0.637" cy="0.637" r="0.637" transform="translate(3035.667 6103.848)" fill="#fff"/>
            </g>
            <g id="Grupo_15653" data-name="Grupo 15653">
              <path id="Trazado_40688" data-name="Trazado 40688" d="M3047.292,6102.217a.88.88,0,1,1-.88-.879A.88.88,0,0,1,3047.292,6102.217Z" fill="#c5c5c4"/>
              <path id="Trazado_40689" data-name="Trazado 40689" d="M3048.032,6103.108a2.628,2.628,0,1,1-2.628-2.628A2.628,2.628,0,0,1,3048.032,6103.108Z" fill="#1f1f1f"/>
            </g>
            <g id="Grupo_15654" data-name="Grupo 15654">
              <path id="Trazado_40690" data-name="Trazado 40690" d="M3032.75,6116.111a1.255,1.255,0,1,1-1.255-1.256A1.255,1.255,0,0,1,3032.75,6116.111Z" fill="#c5c5c4"/>
              <circle id="Elipse_1078" data-name="Elipse 1078" cx="3.751" cy="3.751" r="3.751" transform="translate(3026.305 6113.631)" fill="#1f1f1f"/>
            </g>
            <g id="Grupo_15655" data-name="Grupo 15655">
              <path id="Trazado_40691" data-name="Trazado 40691" d="M3019.345,6114.84a1.255,1.255,0,1,1-1.255-1.256A1.255,1.255,0,0,1,3019.345,6114.84Z" fill="#c5c5c4"/>
              <path id="Trazado_40692" data-name="Trazado 40692" d="M3020.4,6116.111a3.751,3.751,0,1,1-3.751-3.751A3.75,3.75,0,0,1,3020.4,6116.111Z" fill="#1f1f1f"/>
            </g>
            <g id="Grupo_15656" data-name="Grupo 15656">
              <path id="Trazado_40693" data-name="Trazado 40693" d="M3010.343,6123.9a1.255,1.255,0,1,1-1.256-1.255A1.256,1.256,0,0,1,3010.343,6123.9Z" fill="#c5c5c4"/>
              <path id="Trazado_40694" data-name="Trazado 40694" d="M3011.4,6125.174a3.751,3.751,0,1,1-3.751-3.752A3.751,3.751,0,0,1,3011.4,6125.174Z" fill="#1f1f1f"/>
            </g>
            <g id="Grupo_15657" data-name="Grupo 15657">
              <circle id="Elipse_1079" data-name="Elipse 1079" cx="1.902" cy="1.902" r="1.902" transform="translate(3032.755 6072.7)" fill="#e4e4e4"/>
              <path id="Trazado_40695" data-name="Trazado 40695" d="M3036.023,6073.957a.636.636,0,1,1-.636-.636A.637.637,0,0,1,3036.023,6073.957Z" fill="#fff"/>
            </g>
            <g id="Grupo_15658" data-name="Grupo 15658">
              <circle id="Elipse_1080" data-name="Elipse 1080" cx="4.117" cy="4.117" r="4.117" transform="translate(3035.574 6077.132)" fill="#e4e4e4"/>
              <path id="Trazado_40696" data-name="Trazado 40696" d="M3042.648,6079.853a1.378,1.378,0,1,1-1.378-1.378A1.378,1.378,0,0,1,3042.648,6079.853Z" fill="#fff"/>
            </g>
            <g id="Grupo_15659" data-name="Grupo 15659">
              <path id="Trazado_40697" data-name="Trazado 40697" d="M3030.98,6084.227a4.117,4.117,0,1,1-4.117-4.116A4.118,4.118,0,0,1,3030.98,6084.227Z" fill="#e4e4e4"/>
              <path id="Trazado_40698" data-name="Trazado 40698" d="M3029.82,6082.832a1.378,1.378,0,1,1-1.378-1.378A1.378,1.378,0,0,1,3029.82,6082.832Z" fill="#fff"/>
            </g>
            <g id="Grupo_15660" data-name="Grupo 15660">
              <circle id="Elipse_1081" data-name="Elipse 1081" cx="4.117" cy="4.117" r="4.117" transform="translate(3021.019 6093.574)" fill="#e4e4e4"/>
              <path id="Trazado_40699" data-name="Trazado 40699" d="M3028.092,6096.3a1.378,1.378,0,1,1-1.377-1.378A1.377,1.377,0,0,1,3028.092,6096.3Z" fill="#fff"/>
            </g>
            <g id="Grupo_15661" data-name="Grupo 15661">
              <path id="Trazado_40700" data-name="Trazado 40700" d="M2999.569,6121.133a4.117,4.117,0,1,1-4.116-4.117A4.117,4.117,0,0,1,2999.569,6121.133Z" fill="#e4e4e4"/>
              <path id="Trazado_40701" data-name="Trazado 40701" d="M2998.41,6119.738a1.378,1.378,0,1,1-1.378-1.378A1.378,1.378,0,0,1,2998.41,6119.738Z" fill="#fff"/>
            </g>
            <g id="Grupo_15662" data-name="Grupo 15662">
              <circle id="Elipse_1082" data-name="Elipse 1082" cx="1.902" cy="1.902" r="1.902" transform="translate(2969.673 6100.717)" fill="#e4e4e4"/>
              <circle id="Elipse_1083" data-name="Elipse 1083" cx="0.637" cy="0.637" r="0.637" transform="translate(2971.668 6101.338)" fill="#fff"/>
            </g>
            <g id="Grupo_15663" data-name="Grupo 15663">
              <path id="Trazado_40702" data-name="Trazado 40702" d="M3023.473,6077.794a2.58,2.58,0,1,1-2.58-2.581A2.58,2.58,0,0,1,3023.473,6077.794Z" fill="#fc3"/>
              <path id="Trazado_40703" data-name="Trazado 40703" d="M3022.746,6076.919a.864.864,0,1,1-.863-.863A.864.864,0,0,1,3022.746,6076.919Z" fill="#ffe390"/>
            </g>
            <g id="Grupo_15664" data-name="Grupo 15664">
              <path id="Trazado_40704" data-name="Trazado 40704" d="M3052.479,6078.668a2.58,2.58,0,1,1-2.581-2.58A2.581,2.581,0,0,1,3052.479,6078.668Z" fill="#fc3"/>
              <path id="Trazado_40705" data-name="Trazado 40705" d="M3051.751,6077.794a.864.864,0,1,1-.863-.864A.863.863,0,0,1,3051.751,6077.794Z" fill="#ffe390"/>
            </g>
            <g id="Grupo_15665" data-name="Grupo 15665">
              <path id="Trazado_40706" data-name="Trazado 40706" d="M3039.5,6122.871a2.58,2.58,0,1,1-2.581-2.58A2.581,2.581,0,0,1,3039.5,6122.871Z" fill="#fc3"/>
              <path id="Trazado_40707" data-name="Trazado 40707" d="M3038.778,6122a.864.864,0,1,1-.864-.863A.863.863,0,0,1,3038.778,6122Z" fill="#ffe390"/>
            </g>
          </g>
        </g>
        <g id="Grupo_15679" data-name="Grupo 15679">
          <g id="Grupo_15669" data-name="Grupo 15669">
            <g id="Grupo_15668" data-name="Grupo 15668">
              <path id="Trazado_40708" data-name="Trazado 40708" d="M3167.129,6133.039v34.095c0,2.093-1.417,2.842-3.164,2.842h-.064c-1.748,0-3.165-.749-3.165-2.842v-34.095H3159.2v36.037a4.688,4.688,0,0,0,4.688,4.688h.095a4.688,4.688,0,0,0,4.688-4.688v-36.037Z" fill="#fff"/>
              <rect id="Rectángulo_4300" data-name="Rectángulo 4300" width="1.539" height="3.196" transform="translate(3167.129 6133.039)" fill="#dfeaeb"/>
              <rect id="Rectángulo_4301" data-name="Rectángulo 4301" width="1.539" height="3.196" transform="translate(3159.197 6133.039)" fill="#dfeaeb"/>
              <path id="Trazado_40709" data-name="Trazado 40709" d="M3163.965,6169.976h-.064c-1.748,0-3.165-.749-3.165-2.842v-34.095h6.393v34.095C3167.129,6169.227,3165.712,6169.976,3163.965,6169.976Z" fill="#fff" opacity="0.32" style="mix-blend-mode: screen;isolation: isolate"/>
              <path id="Trazado_40710" data-name="Trazado 40710" d="M3160.736,6149.04v18.094c0,2.093,1.417,2.842,3.165,2.842h.064c1.747,0,3.164-.749,3.164-2.842V6149.04Z" fill="#fc3"/>
            </g>
            <rect id="Rectángulo_4302" data-name="Rectángulo 4302" width="11.72" height="2.427" rx="1.201" transform="translate(3158.073 6131.974)" fill="#fff"/>
            <path id="Trazado_40711" data-name="Trazado 40711" d="M3164.347,6152.573a.828.828,0,1,1-.829-.829A.829.829,0,0,1,3164.347,6152.573Z" fill="#ffe081"/>
            <path id="Trazado_40712" data-name="Trazado 40712" d="M3164.081,6158.581a1.332,1.332,0,1,1-1.332-1.332A1.332,1.332,0,0,1,3164.081,6158.581Z" fill="#ffe081"/>
            <path id="Trazado_40713" data-name="Trazado 40713" d="M3165.176,6162.206a.7.7,0,1,1-.7-.695A.7.7,0,0,1,3165.176,6162.206Z" fill="#ffe081"/>
            <circle id="Elipse_1084" data-name="Elipse 1084" cx="1.273" cy="1.273" r="1.273" transform="translate(3163.518 6165.003)" fill="#ffe081"/>
            <path id="Trazado_40714" data-name="Trazado 40714" d="M3166.478,6155.977a.859.859,0,1,1-.858-.859A.858.858,0,0,1,3166.478,6155.977Z" fill="#ffe081"/>
            <path id="Trazado_40715" data-name="Trazado 40715" d="M3162.69,6164.3a.7.7,0,1,1-.7-.7A.7.7,0,0,1,3162.69,6164.3Z" fill="#ffe081"/>
          </g>
          <g id="Grupo_15671" data-name="Grupo 15671">
            <g id="Grupo_15670" data-name="Grupo 15670">
              <path id="Trazado_40716" data-name="Trazado 40716" d="M3183.325,6133.039v34.095c0,2.093-1.417,2.842-3.165,2.842h-.064c-1.747,0-3.164-.749-3.164-2.842v-34.095h-1.539v36.037a4.688,4.688,0,0,0,4.688,4.688h.095a4.688,4.688,0,0,0,4.688-4.688v-36.037Z" fill="#fff"/>
              <rect id="Rectángulo_4303" data-name="Rectángulo 4303" width="1.539" height="3.196" transform="translate(3183.325 6133.039)" fill="#dfeaeb"/>
              <rect id="Rectángulo_4304" data-name="Rectángulo 4304" width="1.539" height="3.196" transform="translate(3175.393 6133.039)" fill="#dfeaeb"/>
              <path id="Trazado_40717" data-name="Trazado 40717" d="M3180.16,6169.976h-.064c-1.747,0-3.164-.749-3.164-2.842v-34.095h6.393v34.095C3183.325,6169.227,3181.908,6169.976,3180.16,6169.976Z" fill="#fff" opacity="0.32" style="mix-blend-mode: screen;isolation: isolate"/>
              <path id="Trazado_40718" data-name="Trazado 40718" d="M3176.932,6153.125v14.009c0,2.093,1.417,2.842,3.164,2.842h.064c1.748,0,3.165-.749,3.165-2.842v-14.009Z" fill="#56b2e5"/>
            </g>
            <rect id="Rectángulo_4305" data-name="Rectángulo 4305" width="11.72" height="2.427" rx="1.201" transform="translate(3174.268 6131.974)" fill="#fff"/>
            <path id="Trazado_40719" data-name="Trazado 40719" d="M3182.7,6155.725a1.331,1.331,0,1,1-1.332-1.332A1.332,1.332,0,0,1,3182.7,6155.725Z" fill="#6fc6ec"/>
            <path id="Trazado_40720" data-name="Trazado 40720" d="M3182.067,6160.363a.7.7,0,1,1-.7-.695A.7.7,0,0,1,3182.067,6160.363Z" fill="#6fc6ec"/>
            <path id="Trazado_40721" data-name="Trazado 40721" d="M3180.267,6165.958a1.12,1.12,0,1,1-1.12-1.12A1.12,1.12,0,0,1,3180.267,6165.958Z" fill="#6fc6ec"/>
            <path id="Trazado_40722" data-name="Trazado 40722" d="M3181.371,6162.9a.963.963,0,1,1-.963-.963A.963.963,0,0,1,3181.371,6162.9Z" fill="#6fc6ec"/>
            <path id="Trazado_40723" data-name="Trazado 40723" d="M3179.744,6158.107a.858.858,0,1,1-.859-.858A.859.859,0,0,1,3179.744,6158.107Z" fill="#6fc6ec"/>
            <path id="Trazado_40724" data-name="Trazado 40724" d="M3182.072,6167.549a.7.7,0,1,1-.7-.7A.7.7,0,0,1,3182.072,6167.549Z" fill="#6fc6ec"/>
          </g>
          <g id="Grupo_15673" data-name="Grupo 15673">
            <g id="Grupo_15672" data-name="Grupo 15672">
              <path id="Trazado_40725" data-name="Trazado 40725" d="M3199.52,6133.039v34.095c0,2.093-1.416,2.842-3.164,2.842h-.064c-1.748,0-3.164-.749-3.164-2.842v-34.095h-1.54v36.037a4.689,4.689,0,0,0,4.689,4.688h.094a4.689,4.689,0,0,0,4.689-4.688v-36.037Z" fill="#fff"/>
              <rect id="Rectángulo_4306" data-name="Rectángulo 4306" width="1.539" height="3.196" transform="translate(3199.52 6133.039)" fill="#dfeaeb"/>
              <rect id="Rectángulo_4307" data-name="Rectángulo 4307" width="1.539" height="3.196" transform="translate(3191.588 6133.039)" fill="#dfeaeb"/>
              <path id="Trazado_40726" data-name="Trazado 40726" d="M3196.356,6169.976h-.064c-1.748,0-3.164-.749-3.164-2.842v-34.095h6.392v34.095C3199.52,6169.227,3198.1,6169.976,3196.356,6169.976Z" fill="#fff" opacity="0.32" style="mix-blend-mode: screen;isolation: isolate"/>
              <path id="Trazado_40727" data-name="Trazado 40727" d="M3193.128,6150.847v16.287c0,2.093,1.416,2.842,3.164,2.842h.064c1.748,0,3.164-.749,3.164-2.842v-16.287Z" fill="#fc3"/>
            </g>
            <rect id="Rectángulo_4308" data-name="Rectángulo 4308" width="11.72" height="2.427" rx="1.201" transform="translate(3190.464 6131.974)" fill="#fff"/>
            <path id="Trazado_40728" data-name="Trazado 40728" d="M3195.509,6155.562a.828.828,0,1,1-.829-.828A.829.829,0,0,1,3195.509,6155.562Z" fill="#ffe081"/>
            <path id="Trazado_40729" data-name="Trazado 40729" d="M3198.84,6153.4a1.332,1.332,0,1,1-1.332-1.332A1.332,1.332,0,0,1,3198.84,6153.4Z" fill="#ffe081"/>
            <circle id="Elipse_1085" data-name="Elipse 1085" cx="1.184" cy="1.184" r="1.184" transform="translate(3194.813 6158.484)" fill="#ffe081"/>
            <path id="Trazado_40730" data-name="Trazado 40730" d="M3197.449,6167.433a1.273,1.273,0,1,1-1.273-1.273A1.273,1.273,0,0,1,3197.449,6167.433Z" fill="#ffe081"/>
            <path id="Trazado_40731" data-name="Trazado 40731" d="M3199.014,6157.35a.858.858,0,1,1-.858-.858A.859.859,0,0,1,3199.014,6157.35Z" fill="#ffe081"/>
            <path id="Trazado_40732" data-name="Trazado 40732" d="M3195.381,6164.04a.7.7,0,1,1-.7-.7A.7.7,0,0,1,3195.381,6164.04Z" fill="#ffe081"/>
            <path id="Trazado_40733" data-name="Trazado 40733" d="M3198.583,6163.34a.7.7,0,1,1-.7-.7A.7.7,0,0,1,3198.583,6163.34Z" fill="#ffe081"/>
          </g>
          <g id="Grupo_15675" data-name="Grupo 15675">
            <g id="Grupo_15674" data-name="Grupo 15674">
              <path id="Trazado_40734" data-name="Trazado 40734" d="M3215.716,6133.039v34.095c0,2.093-1.417,2.842-3.164,2.842h-.064c-1.748,0-3.165-.749-3.165-2.842v-34.095h-1.539v36.037a4.688,4.688,0,0,0,4.688,4.688h.095a4.688,4.688,0,0,0,4.688-4.688v-36.037Z" fill="#fff"/>
              <rect id="Rectángulo_4309" data-name="Rectángulo 4309" width="1.539" height="3.196" transform="translate(3215.716 6133.039)" fill="#dfeaeb"/>
              <rect id="Rectángulo_4310" data-name="Rectángulo 4310" width="1.539" height="3.196" transform="translate(3207.784 6133.039)" fill="#dfeaeb"/>
              <path id="Trazado_40735" data-name="Trazado 40735" d="M3212.552,6169.976h-.064c-1.748,0-3.165-.749-3.165-2.842v-34.095h6.393v34.095C3215.716,6169.227,3214.3,6169.976,3212.552,6169.976Z" fill="#fff" opacity="0.32" style="mix-blend-mode: screen;isolation: isolate"/>
              <path id="Trazado_40736" data-name="Trazado 40736" d="M3209.323,6147.328v19.806c0,2.093,1.417,2.842,3.165,2.842h.064c1.747,0,3.164-.749,3.164-2.842v-19.806Z" fill="#56b2e5"/>
            </g>
            <rect id="Rectángulo_4311" data-name="Rectángulo 4311" width="11.72" height="2.427" rx="1.201" transform="translate(3206.66 6131.974)" fill="#fff"/>
            <path id="Trazado_40737" data-name="Trazado 40737" d="M3214.177,6152.336a.828.828,0,1,1-.828-.829A.829.829,0,0,1,3214.177,6152.336Z" fill="#6fc6ec"/>
            <path id="Trazado_40738" data-name="Trazado 40738" d="M3215.095,6164.626a1.332,1.332,0,1,1-1.332-1.332A1.332,1.332,0,0,1,3215.095,6164.626Z" fill="#6fc6ec"/>
            <path id="Trazado_40739" data-name="Trazado 40739" d="M3212.431,6167.549a.7.7,0,1,1-.7-.7A.695.695,0,0,1,3212.431,6167.549Z" fill="#6fc6ec"/>
            <path id="Trazado_40740" data-name="Trazado 40740" d="M3213.008,6154.865a1.273,1.273,0,1,1-1.273-1.273A1.273,1.273,0,0,1,3213.008,6154.865Z" fill="#6fc6ec"/>
            <path id="Trazado_40741" data-name="Trazado 40741" d="M3215.113,6157.916a1.05,1.05,0,1,1-1.05-1.05A1.05,1.05,0,0,1,3215.113,6157.916Z" fill="#6fc6ec"/>
            <path id="Trazado_40742" data-name="Trazado 40742" d="M3211.9,6149.72a.858.858,0,1,1-.858-.858A.859.859,0,0,1,3211.9,6149.72Z" fill="#6fc6ec"/>
            <path id="Trazado_40743" data-name="Trazado 40743" d="M3212.785,6160.771a1.183,1.183,0,1,1-1.184-1.183A1.183,1.183,0,0,1,3212.785,6160.771Z" fill="#6fc6ec"/>
            <path id="Trazado_40744" data-name="Trazado 40744" d="M3211.277,6164.3a.7.7,0,1,1-.7-.7A.7.7,0,0,1,3211.277,6164.3Z" fill="#6fc6ec"/>
          </g>
          <g id="Grupo_15678" data-name="Grupo 15678">
            <g id="Grupo_15676" data-name="Grupo 15676">
              <rect id="Rectángulo_4312" data-name="Rectángulo 4312" width="4.434" height="39.525" transform="translate(3150.725 6139.905)" fill="#8397ca"/>
              <rect id="Rectángulo_4313" data-name="Rectángulo 4313" width="4.434" height="39.525" transform="translate(3221.292 6139.905)" fill="#8397ca"/>
            </g>
            <g id="Grupo_15677" data-name="Grupo 15677" style="mix-blend-mode: multiply;isolation: isolate">
              <rect id="Rectángulo_4314" data-name="Rectángulo 4314" width="4.434" height="8.483" transform="translate(3150.725 6139.905)" fill="#8397a9"/>
              <rect id="Rectángulo_4315" data-name="Rectángulo 4315" width="4.434" height="8.483" transform="translate(3221.292 6139.905)" fill="#8397a9"/>
            </g>
            <rect id="Rectángulo_4316" data-name="Rectángulo 4316" width="85.028" height="5.206" transform="translate(3145.712 6177.888)" fill="#fff"/>
            <rect id="Rectángulo_4317" data-name="Rectángulo 4317" width="85.028" height="5.206" transform="translate(3145.712 6138.459)" fill="#fff"/>
          </g>
        </g>
        <g id="Grupo_15690" data-name="Grupo 15690">
          <g id="Grupo_15688" data-name="Grupo 15688">
            <rect id="Rectángulo_4318" data-name="Rectángulo 4318" width="157.069" height="131.525" transform="translate(2801.395 6189.787)" fill="#fff"/>
            <rect id="Rectángulo_4319" data-name="Rectángulo 4319" width="13.108" height="131.525" transform="translate(3066.813 6189.787)" fill="#fff"/>
            <rect id="Rectángulo_4320" data-name="Rectángulo 4320" width="305.334" height="15.883" transform="translate(2922.853 6189.787)" fill="#fff"/>
            <g id="Grupo_15681" data-name="Grupo 15681">
              <g id="Grupo_15680" data-name="Grupo 15680">
                <path id="Trazado_40745" data-name="Trazado 40745" d="M2877.114,6233.809h-62.469v-29.673h62.469Zm-59.4-3.07h56.329v-23.534h-56.329Z" fill="#d0d1de"/>
              </g>
              <rect id="Rectángulo_4321" data-name="Rectángulo 4321" width="11.624" height="3.765" transform="translate(2840.067 6209.393)" fill="#d0d1de"/>
            </g>
            <g id="Grupo_15683" data-name="Grupo 15683">
              <g id="Grupo_15682" data-name="Grupo 15682">
                <path id="Trazado_40746" data-name="Trazado 40746" d="M2947.294,6313.4h-62.469V6204.136h62.469Zm-59.4-3.07h56.33V6207.205h-56.33Z" fill="#d0d1de"/>
              </g>
              <rect id="Rectángulo_4322" data-name="Rectángulo 4322" width="11.624" height="3.765" transform="translate(2910.247 6209.393)" fill="#d0d1de"/>
            </g>
            <g id="Grupo_15685" data-name="Grupo 15685">
              <g id="Grupo_15684" data-name="Grupo 15684">
                <path id="Trazado_40747" data-name="Trazado 40747" d="M2877.114,6273.6h-62.469V6243.93h62.469Zm-59.4-3.07h56.329V6247h-56.329Z" fill="#d0d1de"/>
              </g>
              <rect id="Rectángulo_4323" data-name="Rectángulo 4323" width="11.624" height="3.764" transform="translate(2840.067 6249.189)" fill="#d0d1de"/>
            </g>
            <g id="Grupo_15687" data-name="Grupo 15687">
              <g id="Grupo_15686" data-name="Grupo 15686">
                <path id="Trazado_40748" data-name="Trazado 40748" d="M2877.114,6313.4h-62.469v-29.674h62.469Zm-59.4-3.07h56.329V6286.8h-56.329Z" fill="#d0d1de"/>
              </g>
              <rect id="Rectángulo_4324" data-name="Rectángulo 4324" width="11.624" height="3.765" transform="translate(2840.067 6288.984)" fill="#d0d1de"/>
            </g>
          </g>
          <rect id="Rectángulo_4325" data-name="Rectángulo 4325" width="443.127" height="8.69" transform="translate(2801.395 6189.786)" fill="#8397a9" opacity="0.32" style="mix-blend-mode: multiply;isolation: isolate"/>
          <rect id="Rectángulo_4326" data-name="Rectángulo 4326" width="451.898" height="6.693" transform="translate(2797.326 6183.094)" fill="#8397ca"/>
          <rect id="Rectángulo_4327" data-name="Rectángulo 4327" width="26.101" height="6.693" transform="translate(3060.317 6321.024)" fill="#8397ca"/>
          <rect id="Rectángulo_4328" data-name="Rectángulo 4328" width="165.206" height="6.693" transform="translate(2797.326 6321.024)" fill="#8397ca"/>
          <g id="Grupo_15689" data-name="Grupo 15689">
            <path id="Trazado_40749" data-name="Trazado 40749" d="M2821.427,6333.372h13.348l2.989-5.655h-19.325Z" fill="#110239"/>
            <path id="Trazado_40750" data-name="Trazado 40750" d="M2914.125,6327.716l2.989,5.655h13.348l2.988-5.655Z" fill="#110239"/>
            <path id="Trazado_40751" data-name="Trazado 40751" d="M3063.705,6327.716l2.988,5.655h13.348l2.988-5.655Z" fill="#110239"/>
          </g>
        </g>
        <g id="Grupo_15701" data-name="Grupo 15701">
          <g id="Grupo_15699" data-name="Grupo 15699">
            <rect id="Rectángulo_4329" data-name="Rectángulo 4329" width="157.069" height="131.525" transform="translate(3220.769 6189.787)" fill="#fff"/>
            <g id="Grupo_15692" data-name="Grupo 15692">
              <g id="Grupo_15691" data-name="Grupo 15691">
                <path id="Trazado_40752" data-name="Trazado 40752" d="M3296.488,6233.809H3234.02v-29.673h62.468Zm-59.4-3.07h56.328v-23.534H3237.09Z" fill="#d0d1de"/>
              </g>
              <rect id="Rectángulo_4330" data-name="Rectángulo 4330" width="11.624" height="3.765" transform="translate(3259.442 6209.393)" fill="#d0d1de"/>
            </g>
            <g id="Grupo_15694" data-name="Grupo 15694">
              <g id="Grupo_15693" data-name="Grupo 15693">
                <path id="Trazado_40753" data-name="Trazado 40753" d="M3366.669,6313.4H3304.2V6204.136h62.471Zm-59.4-3.07H3363.6V6207.205h-56.331Z" fill="#d0d1de"/>
              </g>
              <rect id="Rectángulo_4331" data-name="Rectángulo 4331" width="11.624" height="3.765" transform="translate(3329.622 6209.393)" fill="#d0d1de"/>
            </g>
            <g id="Grupo_15696" data-name="Grupo 15696">
              <g id="Grupo_15695" data-name="Grupo 15695">
                <path id="Trazado_40754" data-name="Trazado 40754" d="M3296.488,6273.6H3234.02V6243.93h62.468Zm-59.4-3.07h56.328V6247H3237.09Z" fill="#d0d1de"/>
              </g>
              <rect id="Rectángulo_4332" data-name="Rectángulo 4332" width="11.624" height="3.764" transform="translate(3259.442 6249.189)" fill="#d0d1de"/>
            </g>
            <g id="Grupo_15698" data-name="Grupo 15698">
              <g id="Grupo_15697" data-name="Grupo 15697">
                <path id="Trazado_40755" data-name="Trazado 40755" d="M3296.488,6313.4H3234.02v-29.674h62.468Zm-59.4-3.07h56.328V6286.8H3237.09Z" fill="#d0d1de"/>
              </g>
              <rect id="Rectángulo_4333" data-name="Rectángulo 4333" width="11.624" height="3.765" transform="translate(3259.442 6288.984)" fill="#d0d1de"/>
            </g>
          </g>
          <rect id="Rectángulo_4334" data-name="Rectángulo 4334" width="157.069" height="8.69" transform="translate(3220.769 6189.786)" fill="#8397a9" opacity="0.32" style="mix-blend-mode: multiply;isolation: isolate"/>
          <rect id="Rectángulo_4335" data-name="Rectángulo 4335" width="165.206" height="6.693" transform="translate(3216.7 6183.094)" fill="#8397ca"/>
          <rect id="Rectángulo_4336" data-name="Rectángulo 4336" width="165.206" height="6.693" transform="translate(3216.7 6321.024)" fill="#8397ca"/>
          <g id="Grupo_15700" data-name="Grupo 15700">
            <path id="Trazado_40756" data-name="Trazado 40756" d="M3240.8,6333.372h13.348l2.988-5.655h-19.325Z" fill="#110239"/>
            <path id="Trazado_40757" data-name="Trazado 40757" d="M3333.5,6327.716l2.989,5.655h13.348l2.988-5.655Z" fill="#110239"/>
          </g>
        </g>
        <g id="Grupo_15703" data-name="Grupo 15703">
          <path id="Trazado_40758" data-name="Trazado 40758" d="M3247.808,6118.321l4.943,5.3c-3.244,1.758-10.709,3.823-10.709,18.115,0,7.085,8.029,16.457,20.152,16.36a26.914,26.914,0,0,0,10.316-2.646h4.269c1.118.218,3.185-.992,4.144.524-4.1,5.3-13.611,9.179-20.49,9.179-13.466,0-23.816-9.954-24.383-22.2C3235.444,6129.817,3239.9,6123.659,3247.808,6118.321Z" fill="#110239"/>
          <g id="Grupo_15702" data-name="Grupo 15702">
            <rect id="Rectángulo_4337" data-name="Rectángulo 4337" width="10.888" height="17.256" transform="translate(3230.911 6102.818) rotate(-46.337)" fill="#fff"/>
            <rect id="Rectángulo_4338" data-name="Rectángulo 4338" width="6.368" height="17.256" transform="matrix(0.69, -0.723, 0.723, 0.69, 3260.707, 6128.131)" fill="#fff"/>
            <rect id="Rectángulo_4339" data-name="Rectángulo 4339" width="16.64" height="34.923" transform="translate(3237.248 6112.841) rotate(-46.336)" fill="#56b2e5"/>
            <path id="Trazado_40759" data-name="Trazado 40759" d="M3242.661,6107.157l3.282-3.454,25.245,24.157-3.29,3.446Z" fill="#6fc6ec"/>
            <path id="Trazado_40760" data-name="Trazado 40760" d="M3266.261,6133.022l-1.61,1.688-25.232-24.145,1.61-1.687Z" fill="#1d81bd"/>
            <rect id="Rectángulo_4340" data-name="Rectángulo 4340" width="9.45" height="2.26" transform="matrix(0.69, -0.723, 0.723, 0.69, 3266.925, 6136.196)" fill="#110239"/>
            <rect id="Rectángulo_4341" data-name="Rectángulo 4341" width="14.929" height="4.144" transform="matrix(0.69, -0.723, 0.723, 0.69, 3226.62, 6101.446)" fill="#110239"/>
            <rect id="Rectángulo_4342" data-name="Rectángulo 4342" width="8.371" height="3.236" transform="matrix(0.69, -0.723, 0.723, 0.69, 3271.133, 6139.467)" fill="#110239"/>
          </g>
          <rect id="Rectángulo_4343" data-name="Rectángulo 4343" width="21.733" height="4.794" transform="translate(3265.344 6151.183)" fill="#9597b4"/>
          <path id="Trazado_40761" data-name="Trazado 40761" d="M3243.754,6120.715a6.272,6.272,0,1,0,6.272-6.273A6.272,6.272,0,0,0,3243.754,6120.715Z" fill="#110239"/>
          <circle id="Elipse_1086" data-name="Elipse 1086" cx="3.202" cy="3.202" r="3.202" transform="translate(3246.824 6117.513)" fill="#fff"/>
          <path id="Trazado_40762" data-name="Trazado 40762" d="M3257.017,6158.835c8.191,0,9.68,17.4,9.68,17.4h-19.36S3248.827,6158.835,3257.017,6158.835Z" fill="#56b2e5"/>
          <path id="Trazado_40763" data-name="Trazado 40763" d="M3275.384,6183.094a3.867,3.867,0,0,0-3.779-3.049H3242.43a3.867,3.867,0,0,0-3.779,3.049h-2.643v-3.167a4.4,4.4,0,0,1,4.4-4.4h33.213a4.4,4.4,0,0,1,4.4,4.4v3.167Z" fill="#110239"/>
          <path id="Trazado_40764" data-name="Trazado 40764" d="M3253.228,6165.155a3.789,3.789,0,1,0,3.789-3.79A3.789,3.789,0,0,0,3253.228,6165.155Z" fill="#110239"/>
          <path id="Trazado_40765" data-name="Trazado 40765" d="M3255.083,6165.155a1.934,1.934,0,1,0,1.934-1.935A1.934,1.934,0,0,0,3255.083,6165.155Z" fill="#fff"/>
        </g>
        <g id="Grupo_15704" data-name="Grupo 15704">
          <path id="Trazado_40766" data-name="Trazado 40766" d="M2929.574,6125.425c-.874-.041-1.163,2.439-1.816,2.888a6.007,6.007,0,0,1,.291-1.574,7.5,7.5,0,0,0,.484-2.359,2,2,0,0,0-.262-1.457c-.835-1-1.229.809-1.334,1.408-.169.967,0,2.683-.837,3.347-.116.092.128-1.078.209-1.309a7.409,7.409,0,0,0,.317-1.667c.083-.845.368-2.917-.961-2.934-.838-.012-.854,2.873-.9,3.366a8.277,8.277,0,0,1-.428,2.42c-.375-.224-.189-1.017-.243-1.379a15.412,15.412,0,0,1-.15-1.632c-.025-.525-.036-1.769-.768-1.694-.653.067-.73.723-.711,1.242.025.69,0,1.312-.035,2.007-.02.412-.025.841-.05,1.257a19.135,19.135,0,0,1-.213,2.055,5.988,5.988,0,0,1-.558,1.723c-.175.358-.827,2.126-1.339,1.7-.377-.318-.1-1.5-.011-1.908.149-.716.659-1.871.418-2.577-.189-.549-.421-1.034-1.126-.778-.892.322-1.037,3.19-1.229,3.76a18.526,18.526,0,0,1-1.072,1.947,17.638,17.638,0,0,0-.686,1.839,25.963,25.963,0,0,1-1.4,4.1c-1.189,2.222-10.217,9.585-11.758,10.413-.545.293-2.165-3.32-4.167-7.714-4.088,3.012-8.687,5.156-13.242,7.413,5.313,9.645,10.389,22.95,15.869,17.969,2.947-2.681,17.481-22.031,19.968-25.411a77.1,77.1,0,0,0,4.825-7.377c1.339-2.34,2.976-4.967,3.475-7.615C2930.2,6126.509,2930.141,6125.453,2929.574,6125.425Z" fill="#e45940"/>
          <path id="Trazado_40767" data-name="Trazado 40767" d="M2902.132,6145.068c-1.576-3.678-12.579-21.306-19.507-27.6l-5.447,5.913c-3.841,4.786,1.063,16.134,2.648,17.417,1.34,1.084,6.457,11.8,7.8,13.183C2894,6150.113,2902.132,6145.068,2902.132,6145.068Z" fill="#fff"/>
          <path id="Trazado_40768" data-name="Trazado 40768" d="M2888.795,6138.8c-2.466-6.606-4.636-13.124-8.186-19.146l-3.431,3.723c-3.841,4.786,1.063,16.134,2.648,17.417,1.341,1.084,6.458,11.8,7.8,13.183,2.478-1.5,5.218-3.182,7.646-4.675C2892.273,6146.572,2890.324,6142.9,2888.795,6138.8Z" fill="#d0d1de"/>
          <path id="Trazado_40769" data-name="Trazado 40769" d="M2918.091,6156.182l-15.428-1.674a2.039,2.039,0,0,1-2.023-2.439l6.514-35.666a3.555,3.555,0,0,1,3.644-3.126l17.421,2.3c1.52.2,2.3,1.853,1.763,3.663l-8.949,34.81A3.1,3.1,0,0,1,2918.091,6156.182Z" fill="#110239"/>
          <path id="Trazado_40770" data-name="Trazado 40770" d="M2870.214,6093.393l-12.485,1.945s3.51,11.1-1.872,20.568c0,0,8.975,9.722,15.234,7.151,6.69-2.747,4.2-9.5,4.2-9.5S2868.473,6108.156,2870.214,6093.393Z" fill="#e45940"/>
          <path id="Trazado_40771" data-name="Trazado 40771" d="M2845.208,6326.671s-3.367,13.36-1.446,15.535,29.919,6.956,32.62,4.736,1.861-6.657-3.842-9.069c-6.115-2.585-9.448-1.264-13.208-3.435s-1.893-8.3-1.893-8.3Z" fill="#110239"/>
          <path id="Trazado_40772" data-name="Trazado 40772" d="M2880.019,6324.376s-.674,16.758,1.558,18.613,30.632,2.287,32.96-.321.977-6.325-4.78-7.6c-5.174-1.146-9.031-.132-13.023-1.838-3.5-1.5-5.253-9.352-5.253-9.352Z" fill="#110239"/>
          <path id="Trazado_40773" data-name="Trazado 40773" d="M2892,6184.667l-36.5-6.489s13.818,75.155,15.654,83.821,7.282,65.8,7.282,65.8l15.913-1.87s-.185-62.437-.985-67.993S2892,6184.667,2892,6184.667Z" fill="#56b2e5"/>
          <path id="Trazado_40774" data-name="Trazado 40774" d="M2878.52,6214.584c1.807-11.785.588-20.942,3.193-26.69,1.034-2.28,4.4-1.689,5.164-4.017a7.092,7.092,0,0,1-1.133-1.794l-30.316-4.541s13.747,64.786,17.317,80.681C2872.745,6258.223,2877.078,6223.989,2878.52,6214.584Z" fill="#4556ba"/>
          <path id="Trazado_40775" data-name="Trazado 40775" d="M2876.86,6181.023l-29.315,7.462a55.982,55.982,0,0,0-1.772,24.313c2.413,16.307,2.65,41.886,2.946,45.356s-5.481,58.578-5.927,71.768l15.8.67s12.112-69.036,12.818-70.55S2876.86,6181.023,2876.86,6181.023Z" fill="#56b2e5"/>
          <path id="Trazado_40776" data-name="Trazado 40776" d="M2880,6154.221c-.02-13.1-1.368-25.839-.57-38.786a21.957,21.957,0,0,0-4.643-2.109s-1.817,4.422-6.143,5-11.2-5.933-11.2-5.933-1.735.982-4.267,2.351c-.291,2.329-.654,4.622-1.032,6.9,2.9,9.563,7.13,18.654,9.4,28.439,2.658,11.456-.578,23.172,1.094,34.684a111.059,111.059,0,0,0,16.177.068c1.476-.108,2.924-.288,4.356-.5C2879.932,6174.673,2880.017,6164.952,2880,6154.221Z" fill="#56b2e5"/>
          <path id="Trazado_40777" data-name="Trazado 40777" d="M2868,6173.695c-.275-19.9-1-37.685-1.61-47.587-3.886-3.48-7.718-8.431-8.9-13.666l-.049-.045s-9.622,5.448-16.752,8.634c1.727,5.723-.127,10.072-.1,15.777a34.56,34.56,0,0,1-1.24,9.3c2.9,6.2,5.705,12.274,6.318,16.639a49.522,49.522,0,0,1-.2,12.38c-1.037,8.464-5.4,69.533-5.4,69.533s7.983,1.432,23.611,2.747c1.38.116,2.992.187,4.685.237C2867.885,6246.151,2868.468,6207.326,2868,6173.695Z" fill="#fff"/>
          <path id="Trazado_40778" data-name="Trazado 40778" d="M2893.2,6176.689a203.3,203.3,0,0,1-2.782-21.342c-.616-12.351-6.775-37.166-7.79-37.881a30.161,30.161,0,0,0-7.387-3.995c.9,3.232,1.342,8.425-.331,11.187,1.588,7.613,3.42,21.036,5.686,47.352,2.6,30.25,3.791,73.456,2.739,75.274a80.672,80.672,0,0,0,12.784-1.819S2894.65,6185.147,2893.2,6176.689Z" fill="#fff"/>
          <path id="Trazado_40779" data-name="Trazado 40779" d="M2839.361,6146.082v.009c2.892,6.207,5.7,12.283,6.313,16.655.141,1,.221,2.059.265,3.141.014.37.005.754.01,1.131.009.727.015,1.453-.01,2.2,0,.116,0,.226,0,.343-.014.337-.051.679-.071,1.019-.04.687-.081,1.369-.143,2.058-.043.48-.093.952-.145,1.431-.039.353-.065.709-.108,1.059-1.037,8.464-5.4,69.533-5.4,69.533s4.1.732,12.125,1.629c-.352-20.309,7.1-68.213,5.608-76.556-.923-5.167,6.316-23.433.953-29.711-3.1-3.626-9.564-10.349-14.568-11.751-1.124-.315-2.011-.506-2.811-.652-.176,2.963-.795,5.844-.779,9.19,0,.837-.022,1.654-.077,2.455A35.265,35.265,0,0,1,2839.361,6146.082Z" fill="#d0d1de"/>
          <path id="Trazado_40780" data-name="Trazado 40780" d="M2857.181,6145.068s12.092,16.056,13.652,15.621,25.137-11.9,26.594-13.71a23.077,23.077,0,0,0,1.954-3.51,15.735,15.735,0,0,1,.93-1.564,16.3,16.3,0,0,0,1.3-1.579c.268-.49.861-3.131,1.738-3.236.7-.084.833.419.919.971.112.711-.546,1.676-.8,2.31-.145.363-.593,1.4-.294,1.781.4.513,1.291-.991,1.511-1.287a5.333,5.333,0,0,0,.792-1.484,17.473,17.473,0,0,0,.526-1.868c.089-.383.163-.781.246-1.161.142-.64.267-1.213.353-1.862.066-.488.242-1.082.858-1,.69.09.5,1.252.44,1.747a15.1,15.1,0,0,0-.122,1.553c-.008.349-.306,1.047.006,1.337a7.533,7.533,0,0,0,.783-2.161c.124-.448.6-3.132,1.374-2.939,1.229.307.633,2.175.422,2.944a6.769,6.769,0,0,1-.561,1.485c-.111.2-.524,1.234-.4,1.174.879-.437,1-2.072,1.31-2.937.194-.535.847-2.131,1.461-1.02a1.946,1.946,0,0,1,.01,1.415,6.819,6.819,0,0,1-.826,2.092,5.492,5.492,0,0,0-.52,1.4c.676-.275,1.341-2.523,2.144-2.294.521.15.4,1.147.279,1.481-.885,2.358-2.821,4.448-4.435,6.336a66.658,66.658,0,0,1-5.649,5.82c-2.844,2.6-27.88,22.371-31.463,23.26s-19.467-13.158-24.058-17.25S2857.181,6145.068,2857.181,6145.068Z" fill="#f88667"/>
          <path id="Trazado_40781" data-name="Trazado 40781" d="M2841.577,6120.754c3.677-.782,8.763,10.952,15.9,21.971a61.473,61.473,0,0,0,8.156,10.04c-.231.192-.477.367-.7.565a114.321,114.321,0,0,0-10.87,10.983c-6.872-6.436-15.8-16.285-19.652-27.088C2832.218,6131.088,2833.7,6122.429,2841.577,6120.754Z" fill="#fff"/>
          <path id="Trazado_40782" data-name="Trazado 40782" d="M2857.966,6072.8s17.877-2.707,19.933-.725,2.4,9.178,2.313,15.26,2.475,17.725-4.626,19.876-20.647-4.484-25.444-16.534C2844.033,6075.329,2856.743,6072.972,2857.966,6072.8Z" fill="#f88667"/>
          <path id="Trazado_40783" data-name="Trazado 40783" d="M2854.939,6071.368s8.453.286,9.938,13.022c.669,5.741,2.113,10.166.343,10.451s-3.6-.913-3.6-2.57-.514-7.062-3.884-5.558-2.227,8.015,2.056,9.9a5.375,5.375,0,0,1-2.541,5.711s-8.91-5.606-10.195-15.61S2849.542,6071.083,2854.939,6071.368Z" fill="#110239"/>
          <path id="Trazado_40784" data-name="Trazado 40784" d="M2851.554,6072.493a12.265,12.265,0,0,1,11.423-8.624c9.423-.628,16.962,5.026,21.474,12.565,0,0-2.57,4.512-12.279,5.083-4.035.238-11.213-.886-14.793-2.741C2852.344,6076.166,2851.554,6072.493,2851.554,6072.493Z" fill="#110239"/>
        </g>
        <g id="Grupo_15716" data-name="Grupo 15716">
          <path id="Trazado_40785" data-name="Trazado 40785" d="M3118.984,6141.81c-3.284-1.389-5.658-2.546-5.1-7.784a7.962,7.962,0,0,1,2.934-5.716c1.447-1.216,2.179-1.669,2.627-3.69.678-3.066-.179-5.579,1.291-8.38,1.57-2.993,4.956-2.692,6.526-5.483,1.359-2.416,1.986-5.089,5.061-6.032,2.724-.834,4.378,1.5,3.453,3.875-.537,1.38-1.688,2.57-2.029,4.037-.335,1.442.365,2.432,1.053,3.615,1.634,2.811,2.475,6.194-.7,9.055-1.9,1.708-3.343,3.183-2.39,5.992,1.088,3.208,1.647,5.172-1.253,7.99-2.173,2.113-4.193,1.946-6.628,2.108-2.194.145-5.044,1.075-6.832-.382Z" fill="#56b2e5"/>
          <path id="Trazado_40786" data-name="Trazado 40786" d="M3111.984,6141.746c-2.347,2.514-4.355,4.486-7.821,1.5a7.057,7.057,0,0,1-2.486-5.971c.036-2.061.18-2.991-1.1-4.569-2.011-2.477-4.888-3.368-6.19-6.564-1.4-3.44,1.732-5.647.6-8.744-.985-2.687-2.838-5.208-1.073-7.531,1.437-1.892,4.413-.758,5.538,1.415.646,1.246.765,2.647,1.593,3.846a5.321,5.321,0,0,0,3.035,1.87c2.56.92,4.86,2.476,5.071,5.759.13,2.028.328,3.7,2.261,4.565,2.042.912,3.178,1.5,3.558,4.578.293,2.376-.475,3.729-1.274,5.628-.767,1.823-1.409,4.679-3.061,5.722Z" fill="#56b2e5"/>
          <g id="Grupo_15705" data-name="Grupo 15705">
            <path id="Trazado_40787" data-name="Trazado 40787" d="M3121.39,6138.43a3.01,3.01,0,0,1-.31-.016.249.249,0,0,1-.222-.272.235.235,0,0,1,.272-.221c1.627.172,3.307-1.312,4.239-2.629a4.353,4.353,0,0,0,.594-3.2l-.063-.99c-.159-2.589-.295-4.825,1.715-6.854,2.225-2.248,2.77-3.638,2.656-6.761-.008-.255-.024-.523-.039-.8a12.98,12.98,0,0,1,.072-3.1,6.648,6.648,0,0,1,.6-1.541,4.6,4.6,0,0,0,.61-1.874.248.248,0,0,1,.248-.245h0a.248.248,0,0,1,.245.251,4.994,4.994,0,0,1-.66,2.084,6.232,6.232,0,0,0-.555,1.424,12.558,12.558,0,0,0-.063,2.976c.015.279.03.551.04.808.119,3.255-.483,4.787-2.8,7.127-1.854,1.872-1.73,3.9-1.572,6.476l.061.985a4.8,4.8,0,0,1-.683,3.522C3124.776,6136.988,3123.126,6138.43,3121.39,6138.43Z" fill="#fff"/>
          </g>
          <g id="Grupo_15706" data-name="Grupo 15706">
            <path id="Trazado_40788" data-name="Trazado 40788" d="M3127.028,6131.556a1.329,1.329,0,0,1-1.029-.535.247.247,0,1,1,.377-.321.8.8,0,0,0,.833.338c1.036-.26,2.173-2.487,2.356-3.321.54-2.459,1.187-3.714,3.593-4.644a.248.248,0,0,1,.179.463c-2.312.892-2.8,2.046-3.289,4.288-.162.742-1.328,3.346-2.718,3.695A1.283,1.283,0,0,1,3127.028,6131.556Z" fill="#fff"/>
          </g>
          <g id="Grupo_15707" data-name="Grupo 15707">
            <path id="Trazado_40789" data-name="Trazado 40789" d="M3112.125,6140.449a2.764,2.764,0,0,1-1.307-.318c-1.724-.912-2.522-3.586-3.227-5.947a16.846,16.846,0,0,0-1.071-2.984,13.462,13.462,0,0,0-4.292-4.724c-2.421-1.775-3.008-3.119-3.443-6.016-.358-2.367-.838-4.755-1.907-6.173a.248.248,0,0,1,.4-.3c1.137,1.506,1.634,3.966,2,6.4.42,2.791.948,4,3.246,5.69a14.17,14.17,0,0,1,4.432,4.884,17.192,17.192,0,0,1,1.113,3.081c.677,2.267,1.443,4.837,2.984,5.65a2.546,2.546,0,0,0,2.052.1.252.252,0,0,1,.312.161.249.249,0,0,1-.161.312A3.718,3.718,0,0,1,3112.125,6140.449Z" fill="#fff"/>
          </g>
          <g id="Grupo_15708" data-name="Grupo 15708">
            <path id="Trazado_40790" data-name="Trazado 40790" d="M3104.507,6128.258a.247.247,0,0,1-.152-.051.25.25,0,0,1-.044-.349c.726-.939.282-2.432-.188-4.013a7.289,7.289,0,0,1-.471-3.959.247.247,0,1,1,.472.147,6.992,6.992,0,0,0,.474,3.67c.485,1.632.987,3.318.106,4.459A.251.251,0,0,1,3104.507,6128.258Z" fill="#fff"/>
          </g>
          <g id="Grupo_15709" data-name="Grupo 15709">
            <path id="Trazado_40791" data-name="Trazado 40791" d="M3106.984,6131.6a.232.232,0,0,1-.09-.017,5.567,5.567,0,0,1-.886-.461,2.833,2.833,0,0,0-1.393-.52,6.34,6.34,0,0,0-.911.024,3.484,3.484,0,0,1-2-.285,10.989,10.989,0,0,1-3.366-2.95c-.16-.2-.363-.506-.578-.834-.308-.47-.881-1.346-1.1-1.4a.254.254,0,0,1-.19-.294.24.24,0,0,1,.274-.194c.386.065.8.655,1.427,1.618.208.316.4.615.547.792a11.028,11.028,0,0,0,3.205,2.82,2.952,2.952,0,0,0,1.743.233,6.962,6.962,0,0,1,.98-.023,3.321,3.321,0,0,1,1.618.59,5.091,5.091,0,0,0,.81.424.247.247,0,0,1-.091.478Z" fill="#fff"/>
          </g>
          <path id="Trazado_40792" data-name="Trazado 40792" d="M3110.986,6142.277c-3.516-2.965-7.694-4.959-6.747-10.607.784-4.677,6.177-5.878,4.485-10.912-1.08-3.216-3.871-6.926-2.92-10.515,1.015-3.835,6.019-2.3,7.094-5.878.909-3.02-2.278-6.518.557-8.99,2.5-2.18,6.925-.111,8.269,2.392,1.715,3.2-1.121,5.572-.653,8.689.3,2.017,2.235,2.31,3.651,3.473a11.549,11.549,0,0,1,3.435,4.565c1.824,5.179-3.385,7.059-4.965,11.051-1.49,3.763,3.591,4.929,3.974,8.723.423,4.188-4.06,7.494-7.665,8.177C3117.011,6142.917,3113.207,6144.15,3110.986,6142.277Z" fill="#56b2e5"/>
          <g id="Grupo_15710" data-name="Grupo 15710">
            <path id="Trazado_40793" data-name="Trazado 40793" d="M3115.029,6143.5a.212.212,0,0,1-.071-.011.246.246,0,0,1-.166-.308,43.683,43.683,0,0,0,.449-19.934c-1.51-6.473-.144-11,.953-14.642.653-2.165,1.216-4.035.91-5.69a.248.248,0,0,1,.2-.289.245.245,0,0,1,.289.2c.328,1.774-.251,3.7-.923,5.925-1.08,3.582-2.425,8.041-.945,14.386a44.192,44.192,0,0,1-.457,20.188A.249.249,0,0,1,3115.029,6143.5Z" fill="#fff"/>
          </g>
          <g id="Grupo_15711" data-name="Grupo 15711">
            <path id="Trazado_40794" data-name="Trazado 40794" d="M3115.655,6123.18a.248.248,0,0,1-.037-.493c2.055-.313,4.4-2.19,4.621-4.485.026-.274.044-.575.064-.89.091-1.506.205-3.378,1.3-4.285a2.712,2.712,0,0,1,2.134-.5.248.248,0,0,1,.215.277.252.252,0,0,1-.277.215,2.2,2.2,0,0,0-1.756.387c-.929.77-1.035,2.524-1.122,3.934-.019.321-.038.627-.064.906-.249,2.609-2.811,4.59-5.041,4.929A.2.2,0,0,1,3115.655,6123.18Z" fill="#fff"/>
          </g>
          <g id="Grupo_15712" data-name="Grupo 15712">
            <path id="Trazado_40795" data-name="Trazado 40795" d="M3114.159,6123.246a3.732,3.732,0,0,1-2.449-.872c-1-.875-1.5-2.4-1.455-4.42.005-.2.016-.429.03-.682.071-1.429.179-3.588-.711-4.56a1.571,1.571,0,0,0-1.162-.5.248.248,0,0,1,.015-.5h0a2.073,2.073,0,0,1,1.51.663c1.029,1.125.915,3.409.839,4.92-.012.248-.024.474-.029.669-.046,1.864.4,3.26,1.286,4.036a3.852,3.852,0,0,0,3.26.666.245.245,0,0,1,.285.205.25.25,0,0,1-.206.285A6.716,6.716,0,0,1,3114.159,6123.246Z" fill="#fff"/>
          </g>
          <g id="Grupo_15713" data-name="Grupo 15713">
            <path id="Trazado_40796" data-name="Trazado 40796" d="M3117.08,6139.434a2.354,2.354,0,0,1-.9-.17.248.248,0,0,1-.136-.323.245.245,0,0,1,.323-.136c1.491.611,3.773-1.068,4.634-2.179a6.834,6.834,0,0,0,.847-1.945c.448-1.357.911-2.76,2.169-3.071a.241.241,0,0,1,.3.18.246.246,0,0,1-.18.3c-.993.246-1.412,1.518-1.817,2.746a7.217,7.217,0,0,1-.927,2.094C3120.621,6137.928,3118.745,6139.434,3117.08,6139.434Z" fill="#fff"/>
          </g>
          <g id="Grupo_15714" data-name="Grupo 15714">
            <path id="Trazado_40797" data-name="Trazado 40797" d="M3114.876,6139.338a2.928,2.928,0,0,1-.96-.171c-1.817-.634-3.335-2.887-3.912-4.247a8.756,8.756,0,0,1-.383-2.849c-.062-1.73-.126-3.518-1.262-4.087a.248.248,0,1,1,.223-.443c1.4.7,1.47,2.725,1.534,4.512a8.465,8.465,0,0,0,.344,2.673c.522,1.23,1.966,3.4,3.62,3.973a2.178,2.178,0,0,0,1.828-.13.25.25,0,0,1,.336.1.247.247,0,0,1-.1.336A2.627,2.627,0,0,1,3114.876,6139.338Z" fill="#fff"/>
          </g>
          <g id="Grupo_15715" data-name="Grupo 15715">
            <path id="Trazado_40798" data-name="Trazado 40798" d="M3108.667,6183.094H3122.3a7.717,7.717,0,0,0,6.528-3.647c3.564-5.669,5.778-13.588,5.778-22.355a46.752,46.752,0,0,0-2.8-16.275h-32.641a46.73,46.73,0,0,0-2.8,16.275c0,8.767,2.214,16.686,5.778,22.355A7.717,7.717,0,0,0,3108.667,6183.094Z" fill="#f34f95"/>
            <path id="Trazado_40799" data-name="Trazado 40799" d="M3133.813,6148.221a43.05,43.05,0,0,0-2.011-7.4h-32.64a42.94,42.94,0,0,0-2.012,7.4Z" fill="#110239"/>
          </g>
        </g>
        <g id="Grupo_15719" data-name="Grupo 15719">
          <path id="Trazado_40800" data-name="Trazado 40800" d="M3361.748,6095.361c2.281.058,5.316,1.777,6.957,3.218,2.364,2.074,3.3,5.334,3.32,8.411.02,3.632-2.086,6.561-2.577,10.027a7.606,7.606,0,0,0,.561,4.55c.968,1.734,2.173.59,3.378,1.513.063.049.364,0,.444-.009a8.923,8.923,0,0,1-2.428,2.638,9.714,9.714,0,0,1-4.924,1.455c-2.047.007-3.629-1.139-5.343-2.11-1.77-1-2.835-1.476-3.317-3.577-.966-4.214-1.347-8.532-2.382-12.724-.5-2.036-1.88-4.859-1.46-6.957.434-2.16,2.474-2.968,4.276-3.705a15.476,15.476,0,0,0,2.505-1.148C3361.343,6096.563,3361.084,6095.568,3361.748,6095.361Z" fill="#110239"/>
          <path id="Trazado_40801" data-name="Trazado 40801" d="M3296.34,6135.749a11.76,11.76,0,0,1-.9-5.715c.076-.872,1.721-4.355,1.719-5.738a4.642,4.642,0,0,0-.642-2.8c-.722-.965-1.333.446-1.6,1.445-.3,1.087-1.216,4.709-2.193,5.4s-2.228-3.427-2.464-4.248a9.023,9.023,0,0,1-.386-4.934c.218-1.046.068-1.568-1.059-1.068a2.672,2.672,0,0,0-1.356,2.654,22.024,22.024,0,0,0,.869,4.973,12.979,12.979,0,0,1-.869-4.973c.183-1.25,1.457-5.1-.046-5.2-3.013-.212-2.4,8.6-1.671,10.136a14.96,14.96,0,0,1-.547-5.008c-.005-1,.084-3.355-1.418-2.383-2.217,1.434-.21,6.476.283,8.889a17.593,17.593,0,0,1-1.5-4.549c-.564-2.051-1.874-.922-1.66,1.277a23.973,23.973,0,0,0,.691,3.125c1.213,4.127,2.79,5.92,5.877,8.676,1.108.991,2.1,3.969,3.382,3.98C3293.332,6139.7,3294.82,6137.211,3296.34,6135.749Z" fill="#ff9d8a"/>
          <path id="Trazado_40802" data-name="Trazado 40802" d="M3297.587,6133.908l-8.693,4.486s12.771,28.045,21.81,29.453,30.4-28.623,30.4-28.623,6.768-16.433,1.71-16.217c-3.9.166-30.212,30.008-31.786,30.851S3297.587,6133.908,3297.587,6133.908Z" fill="#fff"/>
          <path id="Trazado_40803" data-name="Trazado 40803" d="M3366.518,6326.566s.268,7.106-.934,10.444-9.78,8.444-9.78,8.444,7.761,1.5,10.74-.8,10.049-14.352,9.587-15.921-2.6-6.408-2.6-6.408Z" fill="#ff9d8a"/>
          <path id="Trazado_40804" data-name="Trazado 40804" d="M3320.29,6322.212s.268,7.106-.934,10.443-9.779,8.445-9.779,8.445,7.76,1.5,10.739-.8,10.049-14.351,9.587-15.921-2.6-6.409-2.6-6.409Z" fill="#ff9d8a"/>
          <path id="Trazado_40805" data-name="Trazado 40805" d="M3374.36,6326.566s6.51,2.17,4.882,7.867a49.541,49.541,0,0,0-1.356,13.02h-1.9s-.407-8.137-1.627-7.866-3.934,7.866-6.646,7.866h-15.326s-1.628-1.628,0-2.577,12.015-.542,13.2-2.848S3374.36,6326.566,3374.36,6326.566Z" fill="#110239"/>
          <path id="Trazado_40806" data-name="Trazado 40806" d="M3327.765,6322.03s6.51,2.17,4.882,7.866a49.6,49.6,0,0,0-1.356,13.021h-1.9s-.407-8.138-1.627-7.867-3.934,7.867-6.646,7.867h-15.326s-1.628-1.628,0-2.577,12.015-.543,13.2-2.849S3327.765,6322.03,3327.765,6322.03Z" fill="#110239"/>
          <path id="Trazado_40807" data-name="Trazado 40807" d="M3332.074,6180.454s18.237,6.409,31.454,0c0,0,8.007,6.718,9.274,20.437a74.62,74.62,0,0,1-.54,15.418c-.916,7.632-3.138,27.638-1.75,39.978,2.033,18.069,7.645,70.489,7.645,70.489l-12.573,1.956s-11.549-63.28-12.916-71.089-5.762-39.539-5.762-39.539-7.825,24.535-9.843,36.414c-.31,1.822-5.89,69.01-5.89,69.01l-12.184-.074s.681-74.631.681-70.7C3319.67,6254.352,3322.967,6202.418,3332.074,6180.454Z" fill="#110239"/>
          <path id="Trazado_40808" data-name="Trazado 40808" d="M3338.409,6227.951c2.734-8.3,4.411-12.463,10.035-19.907-.573,3.4-1.1,6.8-1.492,10.237l-.046-.177s-6.7,21-9.3,33.548C3337.9,6238.116,3336.4,6234.062,3338.409,6227.951Z" fill="#00a7cc"/>
          <path id="Trazado_40809" data-name="Trazado 40809" d="M3344.983,6105.921c1.261-.262,7.306-13.012,9.893-15.494,1.239,8.709,3.655,28.57,3.655,28.57-6.387,6.852-16.278,3.445-16.278,3.445C3344.343,6117.912,3345.346,6108.881,3344.983,6105.921Z" fill="#e17c5e"/>
          <path id="Trazado_40810" data-name="Trazado 40810" d="M3347.516,6075.565s-12.4,2.79-14.772,6.405-2.367,13.024-3.679,15.507c-.8,1.507-1.507,2.72-1.9,3.6-.349.774.53,1.228,1.609,1.609a1.878,1.878,0,0,1,1.158,1.2c.734,2.276,2.782,8.082,4.831,8.889,2.556,1.007,15.184.62,18.981-10.381S3355.458,6073.207,3347.516,6075.565Z" fill="#ff9d8a"/>
          <path id="Trazado_40811" data-name="Trazado 40811" d="M3358.262,6116.795a73.42,73.42,0,0,0-14.748,2.865s-1.8,3.745-2.89,5.987c-2.923,6-8.359,17.555-8.851,21.568-.495,4.039-3.393,25.291-4.908,36.37-.553,4.045-7.876,59.218-7.876,59.218s26.088,9.985,54.812,0c0,0,2.8-39.722-1.05-57.991-2.026-9.621-4.638-25.4-3.588-33.186C3370.74,6139.937,3368.161,6125.459,3358.262,6116.795Z" fill="#fff"/>
          <path id="Trazado_40812" data-name="Trazado 40812" d="M3344.985,6125.972c5.1-1.81,11.6-3.527,15.36-6.912-.3-.289-1.766-1.988-2.083-2.265a52.251,52.251,0,0,0-14.831,2.265,65.011,65.011,0,0,1-3.837,5.917,17.657,17.657,0,0,0,3.767-2.114Z" fill="#dee8f3"/>
          <path id="Trazado_40813" data-name="Trazado 40813" d="M3333.37,6246.224c.436.065.872.129,1.323.189l9.2-127.031c-.217.067-.437.132-.655.2Z" fill="#d0d1de"/>
          <path id="Trazado_40814" data-name="Trazado 40814" d="M3374.637,6224.31c.205-7.879.245-17.143-.241-25.462l-.021-.331c-.1-1.584-.212-3.129-.349-4.624-.013-.15-.028-.3-.042-.448-.14-1.474-.3-2.894-.49-4.246-.015-.112-.03-.228-.046-.34-.2-1.434-.433-2.795-.7-4.047l-.013-.063c-.177-.839-.358-1.734-.54-2.656-.033-.168-.066-.336-.1-.506q-.29-1.482-.579-3.064v0c-.411-2.263-.812-4.654-1.172-7.067-.171-1.146-.332-2.295-.48-3.44-.051-.388-.1-.774-.145-1.159l0-.042c-.127-1.054-.252-2.107-.35-3.163l0-.024c-.187-1.9-.32-3.732-.388-5.45-.006-.152-.01-.3-.015-.452q-.033-1.017-.03-1.969c0-.16,0-.325,0-.482.01-.754.033-1.479.082-2.153.037-.524.086-1.025.149-1.494a48.538,48.538,0,0,0,.333-9.5,43.349,43.349,0,0,0-.246-5.063c-.106.129-.207.263-.312.393a39.782,39.782,0,0,0-3.5-11.2c-6.066,1.574-16,2.231-12.722,10.8.773,2.019,1.6,4.01,2.429,6a69.928,69.928,0,0,1,5.253,21.556c.065.846.138,1.69.214,2.531.711,7.836,1.951,15.446,1.793,23.313-.372,18.547-1.088,37.09-1.731,55.628h0c.51-.084,1.012-.217,1.52-.311l-.009.063c1.371-.252,2.768-.586,4.162-.915.2-.046.394-.073.589-.12.177-.044.351-.078.528-.123l.027-.008c2.081-.524,4.182-1.128,6.3-1.866,0,0,.562-8,.835-18.463v-.029Z" fill="#d0d1de"/>
          <path id="Trazado_40815" data-name="Trazado 40815" d="M3347.649,6095.419c-.081.735-.965,2.012-.815,2.674.534,2.361,2.623-1.836,3.037-2.334,1.585-1.906,3.421-1.309,4.564.719a3.7,3.7,0,0,1-.556,4.571c.027.039.059.067.084.107.851,1.353,1.969,3.786,3.686,4.244,2,.533,4.046.177,6.079-.015a4.154,4.154,0,0,1,2.021.278,7.408,7.408,0,0,0,.825-.647c.849-.81,1.493-1.974,2.834-1.884-.8-1.475-1.046-2.99-2.18-4.337-4.161-4.941,2.595-4.545-2.417-17.572-3.71-9.642-9.78-10.522-15.989-10.648-5.943-.12-12.214,2.378-17.04,5.743-2.744,1.912-4.54,8.124-.534,9.694.38.149,2.738-1.432,3.286-1.584a6.047,6.047,0,0,1,3.731.158c2.335.921,2.544,3.126,4.158,4.8,1.29,1.336,3.134,2.045,4.384,3.369A2.932,2.932,0,0,1,3347.649,6095.419Z" fill="#110239"/>
          <path id="Trazado_40816" data-name="Trazado 40816" d="M3385.244,6212.876a10.424,10.424,0,0,1-1.338,5.27,6.243,6.243,0,0,0-1.162,2.26,13.367,13.367,0,0,1-1.087,2.715,5.225,5.225,0,0,0-.8,2.775c.166,1.2,1.39.256,2.115-.49.788-.812,1.306-4.314,2.5-4.443s.293,4.1.1,4.935c-.452,1.978-1.9,2.443-3.1,3.836-.7.813-.773,1.4.462,1.506.922.081,1.66-.711,2.265-1.3a11,11,0,0,0,2.861-4.53,12.844,12.844,0,0,1-2.229,4.5c-.578.764-3.611,3.584-2.49,4.6,2.25,2.036,6.867-6.1,6.974-7.8a15.059,15.059,0,0,1-1.955,4.669c-.48.88-1.705,2.91.089,2.786,2.646-.184,3.333-5.593,4.072-7.956a17.656,17.656,0,0,1-.894,4.73c-.5,2.077,1.2,1.722,2.082-.316a24.253,24.253,0,0,0,.911-3.085c.939-4.219.424-6.563-.951-10.487-.494-1.41.084-4.511-1.04-5.145C3390.456,6210.669,3387.291,6212.328,3385.244,6212.876Z" fill="#ff9d8a"/>
          <path id="Trazado_40817" data-name="Trazado 40817" d="M3383.756,6213.006l11.434.608s.138-33.793-2.9-45.272-24.691-42.389-29.628-44.737c-5.935-2.822-16.877,7.613-9.039,16.071,11.112,11.994,23.558,32.6,24.061,33.571S3383.756,6213.006,3383.756,6213.006Z" fill="#fff"/>
          <g id="Grupo_15718" data-name="Grupo 15718">
            <g id="Grupo_15717" data-name="Grupo 15717">
              <path id="Trazado_40818" data-name="Trazado 40818" d="M3294.347,6114.6v28.682c0,1.439-.974,1.954-2.176,1.954h-.044c-1.2,0-2.177-.515-2.177-1.954V6114.6h-1.059v30.017a3.225,3.225,0,0,0,3.225,3.225h.065a3.225,3.225,0,0,0,3.225-3.225V6114.6Z" fill="#fff"/>
              <rect id="Rectángulo_4344" data-name="Rectángulo 4344" width="1.058" height="2.199" transform="translate(3294.347 6114.597)" fill="#dfeaeb"/>
              <rect id="Rectángulo_4345" data-name="Rectángulo 4345" width="1.059" height="2.199" transform="translate(3288.891 6114.597)" fill="#dfeaeb"/>
              <path id="Trazado_40819" data-name="Trazado 40819" d="M3292.171,6145.233h-.044c-1.2,0-2.177-.515-2.177-1.954V6114.6h4.4v28.682C3294.347,6144.718,3293.373,6145.233,3292.171,6145.233Z" fill="#fff" opacity="0.32" style="mix-blend-mode: screen;isolation: isolate"/>
              <path id="Trazado_40820" data-name="Trazado 40820" d="M3289.95,6126.846v16.433c0,1.439.975,1.954,2.177,1.954h.044c1.2,0,2.176-.515,2.176-1.954v-16.433Z" fill="#f34f95"/>
            </g>
            <rect id="Rectángulo_4346" data-name="Rectángulo 4346" width="8.062" height="1.669" rx="0.826" transform="translate(3288.118 6113.863)" fill="#fff"/>
            <path id="Trazado_40821" data-name="Trazado 40821" d="M3291.588,6130.089a.57.57,0,1,1-.57-.57A.57.57,0,0,1,3291.588,6130.089Z" fill="#fc889f"/>
            <circle id="Elipse_1087" data-name="Elipse 1087" cx="0.916" cy="0.916" r="0.916" transform="translate(3292.047 6127.687)" fill="#fc889f"/>
            <path id="Trazado_40822" data-name="Trazado 40822" d="M3292.739,6132.913a.814.814,0,1,1-.815-.815A.814.814,0,0,1,3292.739,6132.913Z" fill="#fc889f"/>
            <path id="Trazado_40823" data-name="Trazado 40823" d="M3293.554,6137.6a.815.815,0,1,1-.815-.815A.814.814,0,0,1,3293.554,6137.6Z" fill="#fc889f"/>
            <path id="Trazado_40824" data-name="Trazado 40824" d="M3292.4,6139.676a.815.815,0,1,1-.815-.814A.815.815,0,0,1,3292.4,6139.676Z" fill="#fc889f"/>
            <path id="Trazado_40825" data-name="Trazado 40825" d="M3292.922,6143.484a.876.876,0,1,1-.875-.875A.876.876,0,0,1,3292.922,6143.484Z" fill="#fc889f"/>
            <path id="Trazado_40826" data-name="Trazado 40826" d="M3294,6131.319a.59.59,0,1,1-.59-.591A.59.59,0,0,1,3294,6131.319Z" fill="#fc889f"/>
            <path id="Trazado_40827" data-name="Trazado 40827" d="M3291.5,6135.92a.481.481,0,1,1-.482-.481A.482.482,0,0,1,3291.5,6135.92Z" fill="#fc889f"/>
            <path id="Trazado_40828" data-name="Trazado 40828" d="M3293.7,6135.439a.482.482,0,1,1-.482-.482A.481.481,0,0,1,3293.7,6135.439Z" fill="#fc889f"/>
            <path id="Trazado_40829" data-name="Trazado 40829" d="M3293.7,6140.946a.482.482,0,1,1-.482-.482A.482.482,0,0,1,3293.7,6140.946Z" fill="#fc889f"/>
          </g>
        </g>
        <path id="Trazado_40830" data-name="Trazado 40830" d="M3343.054,6118.321l14.683-5.177,2.839,6.006-15.6,5.827Z" fill="#fff"/>
        <path id="Trazado_40831" data-name="Trazado 40831" d="M3341.042,6124.641l-1.448.335,3.46-6.656.44,1.526Z" fill="#fff"/>
      </g>
      <text id="Las_muestras_deben_registrarse_en_cuanto_lleguen_al_laboratorio._El_procedimiento_de_entrada_y_registro_de_la_muestra_es_importante_para_los_propósitos_de_la_cadena_de_custodia._La_siguiente_información_debe_requerirse:_número_de_código_de_la_muestra_nomb" data-name="Las muestras deben registrarse en cuanto lleguen al laboratorio. El procedimiento de entrada y registro de la muestra es importante para los propósitos de la cadena de custodia. La siguiente información debe requerirse: número de código de la muestra, nomb" transform="translate(2407.645 6053.132)" fill="#fff" font-size="18" font-family="SegoeUI, Segoe UI"><tspan x="0" y="19">Las muestras deben registrarse en cuanto </tspan><tspan x="0" y="40.6">lleguen al laboratorio. El procedimiento de </tspan><tspan x="0" y="62.2">entrada y registro de la muestra es </tspan><tspan x="0" y="83.8">importante para los propósitos de la cadena </tspan><tspan x="0" y="105.4">de custodia. La siguiente información debe </tspan><tspan x="0" y="127">requerirse: número de código de la muestra, </tspan><tspan x="0" y="148.6">nombre de la persona que recibe, nombre </tspan><tspan x="0" y="170.2">de los tomadores de la muestra, número del </tspan><tspan x="0" y="191.8">método de muestreo, y localización de </tspan><tspan x="0" y="213.4">almacenamiento (p.55)..</tspan></text>
      <path id="Trazado_40832" data-name="Trazado 40832" d="M2771.612,6118.825s34.839,17.42,76.646-6.968c0,0-63.871,12.775-72-26.709Z" fill="#4463aa"/>
    </g>
    <g id="Grupo_15722" data-name="Grupo 15722">
      <path id="Trazado_40833" data-name="Trazado 40833" d="M2766.967,6035.212v34.065h38.71S2767.741,6034.438,2766.967,6035.212Z" fill="#0e2571"/>
      <text id="_1." data-name="1." transform="translate(2770.838 6064.245)" fill="#fff" font-size="18" font-family="MyriadPro-Bold, Myriad Pro" font-weight="700"><tspan x="0" y="0">1.</tspan></text>
    </g>
  </g>
</svg>
