<svg xmlns="http://www.w3.org/2000/svg" width="121.595" height="121.595" viewBox="0 0 121.595 121.595">
  <g id="Grupo_15893" data-name="Grupo 15893" transform="translate(-2550.43 -8210.533)">
    <g id="Grupo_15884" data-name="Grupo 15884">
      <circle id="Elipse_1184" data-name="Elipse 1184" cx="58.63" cy="58.63" r="58.63" transform="translate(2551.364 8213.841)" fill="#fff"/>
      <path id="Trazado_41365" data-name="Trazado 41365" d="M2611.228,8332.128a60.8,60.8,0,1,1,60.8-60.8A60.867,60.867,0,0,1,2611.228,8332.128Zm0-117.26a56.462,56.462,0,1,0,56.462,56.462A56.527,56.527,0,0,0,2611.228,8214.868Z" fill="#0e2571"/>
      <circle id="Elipse_1185" data-name="Elipse 1185" cx="47.919" cy="47.919" r="47.919" transform="translate(2563.308 8223.411)" fill="#0f3384"/>
    </g>
    <g id="Grupo_15892" data-name="Grupo 15892">
      <g id="Grupo_15885" data-name="Grupo 15885">
        <path id="Trazado_41366" data-name="Trazado 41366" d="M2611.117,8250.09a1.5,1.5,0,0,1-1.5-1.5v-20.528a1.5,1.5,0,1,1,2.993,0v20.528A1.5,1.5,0,0,1,2611.117,8250.09Z" fill="#fff"/>
        <path id="Trazado_41367" data-name="Trazado 41367" d="M2611.117,8250.09a1.493,1.493,0,0,1-1.059-.437l-4.861-4.857a1.5,1.5,0,0,1,2.117-2.118l3.8,3.8,3.8-3.8a1.5,1.5,0,0,1,2.117,2.118l-4.861,4.857A1.5,1.5,0,0,1,2611.117,8250.09Z" fill="#fff"/>
        <path id="Trazado_41368" data-name="Trazado 41368" d="M2656.575,8267.687h-20.53a1.5,1.5,0,1,1,0-2.992h20.53a1.5,1.5,0,1,1,0,2.992Z" fill="#fff"/>
        <path id="Trazado_41369" data-name="Trazado 41369" d="M2640.9,8272.549a1.494,1.494,0,0,1-1.059-.438l-4.858-4.861a1.5,1.5,0,0,1,0-2.116l4.858-4.861a1.5,1.5,0,1,1,2.118,2.115l-3.8,3.8,3.8,3.8a1.5,1.5,0,0,1-1.059,2.556Z" fill="#fff"/>
        <path id="Trazado_41370" data-name="Trazado 41370" d="M2586.187,8267.687h-20.529a1.5,1.5,0,1,1,0-2.992h20.529a1.5,1.5,0,1,1,0,2.992Z" fill="#fff"/>
        <path id="Trazado_41371" data-name="Trazado 41371" d="M2581.33,8272.549a1.5,1.5,0,0,1-1.059-2.556l3.8-3.8-3.8-3.8a1.5,1.5,0,1,1,2.117-2.115l4.858,4.861a1.5,1.5,0,0,1,0,2.116l-4.858,4.861A1.494,1.494,0,0,1,2581.33,8272.549Z" fill="#fff"/>
        <path id="Trazado_41372" data-name="Trazado 41372" d="M2611.117,8317.2a1.5,1.5,0,0,1-1.5-1.5v-20.53a1.5,1.5,0,1,1,2.993,0v20.53A1.5,1.5,0,0,1,2611.117,8317.2Z" fill="#fff"/>
        <path id="Trazado_41373" data-name="Trazado 41373" d="M2615.978,8301.522a1.491,1.491,0,0,1-1.058-.438l-3.8-3.8-3.8,3.8a1.5,1.5,0,0,1-2.115-2.118l4.861-4.856a1.5,1.5,0,0,1,2.115,0l4.861,4.856a1.5,1.5,0,0,1-1.057,2.557Z" fill="#fff"/>
      </g>
      <g id="Grupo_15891" data-name="Grupo 15891">
        <g id="Grupo_15887" data-name="Grupo 15887">
          <g id="Grupo_15886" data-name="Grupo 15886">
            <path id="Trazado_41374" data-name="Trazado 41374" d="M2611.251,8289.86a4.343,4.343,0,0,1-4.34-4.335v-24.895a.576.576,0,0,1,1.151,0v24.895a3.189,3.189,0,0,0,6.378,0v-24.895a.576.576,0,0,1,1.151,0v24.895A4.343,4.343,0,0,1,2611.251,8289.86Z" fill="#fff"/>
            <path id="Trazado_41375" data-name="Trazado 41375" d="M2615.566,8261.206h-1.686a.575.575,0,1,1,0-1.15h1.686a1.509,1.509,0,0,0,0-3.018h-8.152a1.509,1.509,0,0,0,0,3.018h1.686a.575.575,0,1,1,0,1.15h-1.686a2.659,2.659,0,0,1,0-5.318h8.152a2.659,2.659,0,0,1,0,5.318Z" fill="#fff"/>
            <path id="Trazado_41376" data-name="Trazado 41376" d="M2615.016,8266.109h-5.239a.575.575,0,1,1,0-1.15h5.239a.575.575,0,0,1,0,1.15Z" fill="#fff"/>
            <path id="Trazado_41377" data-name="Trazado 41377" d="M2612.578,8283.862a.575.575,0,0,1-.576-.575V8272.7a.576.576,0,0,1,1.151,0v10.583A.574.574,0,0,1,2612.578,8283.862Z" fill="#fff"/>
            <path id="Trazado_41378" data-name="Trazado 41378" d="M2612.578,8270.8a.576.576,0,0,1-.576-.575v-.4a.576.576,0,0,1,1.151,0v.4A.575.575,0,0,1,2612.578,8270.8Z" fill="#fff"/>
          </g>
          <path id="Trazado_41379" data-name="Trazado 41379" d="M2614.7,8257.038a.574.574,0,0,1-.575-.575v-2.441h-5.277v2.441a.576.576,0,0,1-1.152,0v-3.017a.576.576,0,0,1,.576-.575h6.428a.576.576,0,0,1,.576.575v3.017A.575.575,0,0,1,2614.7,8257.038Z" fill="#fff"/>
        </g>
        <circle id="Elipse_1186" data-name="Elipse 1186" cx="0.646" cy="0.646" r="0.646" transform="translate(2601.575 8256.725) rotate(-89.92)" fill="#fff"/>
        <path id="Trazado_41380" data-name="Trazado 41380" d="M2619.478,8277.2a.647.647,0,1,1-.636-.657A.646.646,0,0,1,2619.478,8277.2Z" fill="#fff"/>
        <g id="Grupo_15888" data-name="Grupo 15888">
          <path id="Trazado_41381" data-name="Trazado 41381" d="M2598.873,8262.251h-.009a.574.574,0,0,1-.566-.584l.006-.381a.575.575,0,0,1,.575-.566h.009a.576.576,0,0,1,.567.584l-.006.382A.576.576,0,0,1,2598.873,8262.251Z" fill="#fff"/>
          <path id="Trazado_41382" data-name="Trazado 41382" d="M2598.819,8265.62h-.009a.575.575,0,0,1-.566-.584l.006-.382a.575.575,0,0,1,.575-.565h.009a.575.575,0,0,1,.567.584l-.006.381A.575.575,0,0,1,2598.819,8265.62Z" fill="#fff"/>
          <path id="Trazado_41383" data-name="Trazado 41383" d="M2597.354,8263.721h-.01l-.382-.007a.574.574,0,0,1,.009-1.148h.01l.382.006a.575.575,0,0,1-.009,1.149Z" fill="#fff"/>
          <path id="Trazado_41384" data-name="Trazado 41384" d="M2600.727,8263.774h-.009l-.382-.007a.575.575,0,0,1,.009-1.149h.009l.382.006a.575.575,0,0,1-.009,1.149Z" fill="#fff"/>
        </g>
        <g id="Grupo_15889" data-name="Grupo 15889">
          <path id="Trazado_41385" data-name="Trazado 41385" d="M2621.918,8283.216h-.01a.574.574,0,0,1-.566-.584l.006-.382a.575.575,0,0,1,.575-.565h.01a.576.576,0,0,1,.566.584l-.006.383A.575.575,0,0,1,2621.918,8283.216Z" fill="#fff"/>
          <path id="Trazado_41386" data-name="Trazado 41386" d="M2621.864,8286.586h-.01a.575.575,0,0,1-.566-.584l.006-.382a.576.576,0,0,1,.576-.566h.009a.576.576,0,0,1,.566.584l-.006.382A.576.576,0,0,1,2621.864,8286.586Z" fill="#fff"/>
          <path id="Trazado_41387" data-name="Trazado 41387" d="M2620.4,8284.686h-.009l-.382-.006a.575.575,0,0,1,.009-1.149h.009l.382.007a.574.574,0,0,1-.009,1.148Z" fill="#fff"/>
          <path id="Trazado_41388" data-name="Trazado 41388" d="M2623.771,8284.74h-.009l-.382-.006a.575.575,0,0,1,.009-1.15h.01l.382.006a.575.575,0,0,1-.01,1.15Z" fill="#fff"/>
        </g>
        <g id="Grupo_15890" data-name="Grupo 15890">
          <path id="Trazado_41389" data-name="Trazado 41389" d="M2625.344,8266.513h-.009a.575.575,0,0,1-.566-.584l.006-.382a.575.575,0,0,1,.575-.565h.009a.576.576,0,0,1,.567.584l-.006.382A.576.576,0,0,1,2625.344,8266.513Z" fill="#fff"/>
          <path id="Trazado_41390" data-name="Trazado 41390" d="M2625.291,8269.883h-.01a.574.574,0,0,1-.566-.584l.006-.381a.575.575,0,0,1,.575-.566h.01a.576.576,0,0,1,.566.584l-.006.383A.576.576,0,0,1,2625.291,8269.883Z" fill="#fff"/>
          <path id="Trazado_41391" data-name="Trazado 41391" d="M2623.825,8267.983h-.01l-.382-.007a.575.575,0,1,1,.019-1.149l.382.006a.575.575,0,0,1-.009,1.15Z" fill="#fff"/>
          <path id="Trazado_41392" data-name="Trazado 41392" d="M2627.2,8268.037h-.009l-.382-.006a.575.575,0,0,1,.009-1.15h.009l.382.006a.575.575,0,0,1-.009,1.15Z" fill="#fff"/>
        </g>
      </g>
    </g>
  </g>
</svg>
