<svg xmlns="http://www.w3.org/2000/svg" width="152" height="152" viewBox="0 0 152 152">
  <g id="Grupo_15597" data-name="Grupo 15597" transform="translate(-494 -10477)">
    <ellipse id="Elipse_1062" data-name="Elipse 1062" cx="73.832" cy="73.832" rx="73.832" ry="73.832" transform="translate(496.168 10479.168)" fill="#fff"/>
    <path id="Trazado_40624" data-name="Trazado 40624" d="M2697.842,3761.734a76,76,0,1,1,76-76A76.087,76.087,0,0,1,2697.842,3761.734Zm0-146.581a70.58,70.58,0,1,0,70.581,70.58A70.66,70.66,0,0,0,2697.842,3615.153Z" transform="translate(-2127.841 6867.266)" fill="#0e2571"/>
    <ellipse id="Elipse_1063" data-name="Elipse 1063" cx="62.428" cy="62.428" rx="62.428" ry="62.428" transform="translate(508.045 10490.099)" fill="#0f3384"/>
    <g id="Grupo_15591" data-name="Grupo 15591" transform="translate(525.52 10512.207)">
      <path id="Trazado_40625" data-name="Trazado 40625" d="M2677.072,3713.172a9.221,9.221,0,0,1-5.158-1.574,9.16,9.16,0,0,1-2.47-12.767,9.278,9.278,0,0,1,12.816-2.456h0a9.16,9.16,0,0,1,2.472,12.767A9.249,9.249,0,0,1,2677.072,3713.172Zm.023-14.935a5.807,5.807,0,0,0-4.812,2.531,5.722,5.722,0,0,0,1.55,7.979,5.831,5.831,0,0,0,8.059-1.54,5.724,5.724,0,0,0-1.549-7.98h0A5.8,5.8,0,0,0,2677.095,3698.238Z" transform="translate(-2640.288 -3625.08)" fill="#fefefe"/>
      <path id="Trazado_40626" data-name="Trazado 40626" d="M2691.641,3655.257a9.214,9.214,0,0,1-5.158-1.574,9.159,9.159,0,0,1-2.471-12.765,9.278,9.278,0,0,1,12.817-2.456h0a9.16,9.16,0,0,1,2.47,12.767A9.25,9.25,0,0,1,2691.641,3655.257Zm.022-14.935a5.806,5.806,0,0,0-4.812,2.531,5.722,5.722,0,0,0,1.549,7.979,5.831,5.831,0,0,0,8.059-1.538,5.724,5.724,0,0,0-1.55-7.981h0A5.789,5.789,0,0,0,2691.664,3640.322Z" transform="translate(-2637.317 -3636.89)" fill="#fefefe"/>
      <path id="Trazado_40627" data-name="Trazado 40627" d="M2687.49,3690.458a15.461,15.461,0,0,1-8.66-2.642,15.363,15.363,0,0,1-4.146-21.411,15.572,15.572,0,0,1,21.515-4.121h0a15.361,15.361,0,0,1,4.146,21.412A15.524,15.524,0,0,1,2687.49,3690.458Zm.042-27.381a12.081,12.081,0,0,0-10.008,5.263,11.924,11.924,0,0,0,3.224,16.625,12.127,12.127,0,0,0,16.757-3.205,11.924,11.924,0,0,0-3.224-16.625h0A12.064,12.064,0,0,0,2687.532,3663.077Z" transform="translate(-2639.439 -3632.25)" fill="#fefefe"/>
      <path id="Trazado_40628" data-name="Trazado 40628" d="M2718.289,3685.479a12.974,12.974,0,0,1-7.26-2.214,12.878,12.878,0,0,1-3.476-17.952,13.051,13.051,0,0,1,18.035-3.455h0a12.879,12.879,0,0,1,3.476,17.952A13.011,13.011,0,0,1,2718.289,3685.479Zm.033-22.4a9.573,9.573,0,0,0-7.93,4.169,9.444,9.444,0,0,0,2.555,13.167,9.608,9.608,0,0,0,13.278-2.54,9.439,9.439,0,0,0-2.555-13.166A9.546,9.546,0,0,0,2718.323,3663.077Z" transform="translate(-2632.648 -3632.25)" fill="#fefefe"/>
      <path id="Trazado_40629" data-name="Trazado 40629" d="M2664.175,3666.863a12.969,12.969,0,0,1-12.74-10.488,12.789,12.789,0,0,1,2-9.679,13.056,13.056,0,0,1,18.036-3.456,12.883,12.883,0,0,1,3.477,17.953A13.016,13.016,0,0,1,2664.175,3666.863Zm.034-22.4a9.575,9.575,0,0,0-7.929,4.17,9.444,9.444,0,0,0,2.555,13.167,9.61,9.61,0,0,0,13.278-2.539,9.444,9.444,0,0,0-2.555-13.167A9.559,9.559,0,0,0,2664.208,3644.46Z" transform="translate(-2643.683 -3636.046)" fill="#fefefe"/>
      <path id="Trazado_40630" data-name="Trazado 40630" d="M2657.931,3697.888a12.966,12.966,0,0,1-12.739-10.486,12.784,12.784,0,0,1,2-9.679,13.055,13.055,0,0,1,18.036-3.455h0a12.879,12.879,0,0,1,3.477,17.953A13.015,13.015,0,0,1,2657.931,3697.888Zm.035-22.4a9.571,9.571,0,0,0-7.93,4.17,9.443,9.443,0,0,0,2.555,13.166,9.609,9.609,0,0,0,13.278-2.538,9.445,9.445,0,0,0-2.554-13.167h0A9.555,9.555,0,0,0,2657.966,3675.487Z" transform="translate(-2644.956 -3629.719)" fill="#fefefe"/>
      <path id="Trazado_40631" data-name="Trazado 40631" d="M2677.5,3669.04a1.718,1.718,0,0,1-1.158-.449l-8.856-8.087a1.718,1.718,0,0,1,2.318-2.537l8.856,8.085a1.718,1.718,0,0,1-1.159,2.987Z" transform="translate(-2640.475 -3632.683)" fill="#fefefe"/>
      <path id="Trazado_40632" data-name="Trazado 40632" d="M2676.788,3700.439a1.718,1.718,0,0,1-1.642-2.224l4.692-15.249a1.718,1.718,0,1,1,3.283,1.01l-4.692,15.249A1.717,1.717,0,0,1,2676.788,3700.439Z" transform="translate(-2638.815 -3627.741)" fill="#fefefe"/>
      <path id="Trazado_40633" data-name="Trazado 40633" d="M2696.608,3673.881a1.718,1.718,0,0,1-.184-3.427l12.223-1.336a1.718,1.718,0,0,1,.373,3.416l-12.223,1.336A1.659,1.659,0,0,1,2696.608,3673.881Z" transform="translate(-2634.773 -3630.32)" fill="#fefefe"/>
    </g>
  </g>
</svg>
