<svg xmlns="http://www.w3.org/2000/svg" width="568.887" height="536.809" viewBox="0 0 568.887 536.809">
  <g id="Grupo_15426" data-name="Grupo 15426" transform="translate(-584 -711.5)">
    <path id="Unión_27" data-name="Unión 27" d="M627.451,1365.422v-21.178L616,1330.911l11.452-13.334V1296H943.559v69.422Z" transform="translate(208.828 -584)" fill="rgba(68,99,170,0.6)" stroke="rgba(0,0,0,0)" stroke-miterlimit="10" stroke-width="1"/>
    <text id="Fase_de_toma_de_muestras" data-name="Fase de toma de muestras" transform="translate(865.669 752.959)" fill="#f3f7fa" font-size="21.959" font-family="MyriadPro-Regular, Myriad Pro"><tspan x="0" y="0">Fase de toma de muestras</tspan></text>
    <path id="Unión_28" data-name="Unión 28" d="M627.451,1365.422v-21.178L616,1330.911l11.452-13.334V1296H943.559v69.422Z" transform="translate(208.828 -468.289)" fill="rgba(68,99,170,0.8)" stroke="rgba(0,0,0,0)" stroke-miterlimit="10" stroke-width="1"/>
    <text id="Fase_de_almacenamiento_y_transporte" data-name="Fase de almacenamiento y
transporte" transform="translate(865.669 856.863)" fill="#f3f7fa" font-size="21.959" font-family="MyriadPro-Regular, Myriad Pro"><tspan x="0" y="0">Fase de almacenamiento y</tspan><tspan x="0" y="26.351">transporte</tspan></text>
    <path id="Unión_29" data-name="Unión 29" d="M627.451,1365.422v-21.178L616,1330.911l11.452-13.334V1296H943.559v69.422Z" transform="translate(208.828 -350.216)" fill="rgba(68,99,170,0.6)" stroke="rgba(0,0,0,0)" stroke-miterlimit="10" stroke-width="1"/>
    <text id="Fase_de_entrega_de_muestras" data-name="Fase de entrega de muestras" transform="translate(865.669 986.743)" fill="#f3f7fa" font-size="21.959" font-family="MyriadPro-Regular, Myriad Pro"><tspan x="0" y="0">Fase de entrega de muestras</tspan></text>
    <path id="Unión_30" data-name="Unión 30" d="M627.451,1365.422v-21.178L616,1330.911l11.452-13.334V1296H943.559v69.422Z" transform="translate(208.828 -234.505)" fill="rgba(68,99,170,0.8)" stroke="rgba(0,0,0,0)" stroke-miterlimit="10" stroke-width="1"/>
    <text id="Guías_técnicas_para_control_de_calidad" data-name="Guías técnicas para control
de calidad" transform="translate(865.669 1090.931)" fill="#f3f7fa" font-size="21.959" font-family="MyriadPro-Regular, Myriad Pro"><tspan x="0" y="0">Guías técnicas para control</tspan><tspan x="0" y="26.351">de calidad</tspan></text>
    <path id="Unión_31" data-name="Unión 31" d="M627.451,1365.422v-21.178L616,1330.911l11.452-13.334V1296H943.559v69.422Z" transform="translate(208.828 -117.613)" fill="rgba(68,99,170,0.6)" stroke="rgba(0,0,0,0)" stroke-miterlimit="10" stroke-width="1"/>
    <text id="Diagramas_de_resumen" data-name="Diagramas de resumen" transform="translate(865.669 1219.346)" fill="#f3f7fa" font-size="21.959" font-family="MyriadPro-Regular, Myriad Pro"><tspan x="0" y="0">Diagramas de resumen</tspan></text>
    <line id="Línea_219" data-name="Línea 219" x1="50.588" transform="translate(758.025 982.069)" fill="none" stroke="#18505e" stroke-miterlimit="10" stroke-width="3"/>
    <circle id="Elipse_496" data-name="Elipse 496" cx="91.506" cy="91.506" r="91.506" transform="translate(588 889.557)" fill="#0f3384" stroke="#4463aa" stroke-miterlimit="10" stroke-width="8"/>
    <text id="Cadena_de_custodia" data-name="Cadena de
custodia" transform="translate(676.554 979.292)" fill="#fff" font-size="24.737" font-family="CerebriSans-Bold, Cerebri Sans" font-weight="700"><tspan x="-63.986" y="0">Cadena de</tspan><tspan x="-51.388" y="24.737">custodia</tspan></text>
    <line id="Línea_220" data-name="Línea 220" y2="472.29" transform="translate(814.634 743.563)" fill="none" stroke="#18505e" stroke-miterlimit="10" stroke-width="3"/>
    <g id="Grupo_15411" data-name="Grupo 15411" transform="translate(803.964 734.528)">
      <circle id="Elipse_1058" data-name="Elipse 1058" cx="11.166" cy="11.166" r="11.166" fill="#0e2571"/>
      <circle id="Elipse_1059" data-name="Elipse 1059" cx="5.583" cy="5.583" r="5.583" transform="translate(5.583 5.583)" fill="#4463aa"/>
    </g>
    <g id="Grupo_15412" data-name="Grupo 15412" transform="translate(803.964 851.528)">
      <circle id="Elipse_1058-2" data-name="Elipse 1058" cx="11.166" cy="11.166" r="11.166" fill="#0e2571"/>
      <circle id="Elipse_1059-2" data-name="Elipse 1059" cx="5.583" cy="5.583" r="5.583" transform="translate(5.583 5.583)" fill="#4463aa"/>
    </g>
    <g id="Grupo_15413" data-name="Grupo 15413" transform="translate(803.964 969.528)">
      <circle id="Elipse_1058-3" data-name="Elipse 1058" cx="11.166" cy="11.166" r="11.166" fill="#0e2571"/>
      <circle id="Elipse_1059-3" data-name="Elipse 1059" cx="5.583" cy="5.583" r="5.583" transform="translate(5.583 5.583)" fill="#4463aa"/>
    </g>
    <g id="Grupo_15414" data-name="Grupo 15414" transform="translate(803.964 1087.528)">
      <circle id="Elipse_1058-4" data-name="Elipse 1058" cx="11.166" cy="11.166" r="11.166" fill="#0e2571"/>
      <circle id="Elipse_1059-4" data-name="Elipse 1059" cx="5.583" cy="5.583" r="5.583" transform="translate(5.583 5.583)" fill="#4463aa"/>
    </g>
    <g id="Grupo_15415" data-name="Grupo 15415" transform="translate(803.964 1201.528)">
      <circle id="Elipse_1058-5" data-name="Elipse 1058" cx="11.166" cy="11.166" r="11.166" fill="#0e2571"/>
      <circle id="Elipse_1059-5" data-name="Elipse 1059" cx="5.583" cy="5.583" r="5.583" transform="translate(5.583 5.583)" fill="#4463aa"/>
    </g>
  </g>
</svg>
