<svg xmlns="http://www.w3.org/2000/svg" width="401.2" height="336.4" viewBox="0 0 401.2 336.4">
  <g id="Grupo_16303" data-name="Grupo 16303" transform="translate(-4217.173 -2345.747)">
    <g id="Grupo_16187" data-name="Grupo 16187" transform="translate(4218.353 2345.747)">
      <g id="Grupo_16186" data-name="Grupo 16186">
        <g id="Grupo_16183" data-name="Grupo 16183" opacity="0.6">
          <g id="Grupo_16182" data-name="Grupo 16182">
            <path id="Trazado_41756" data-name="Trazado 41756" d="M4418.844,2673.956s-32,8.364-61.668-20.646-50.218-6.355-90.354-21c-25.114-9.163-47.951-33.848-48.306-82.819s38.364-61.421,44.043-81.481c10.3-36.38-6.261-55.779,11.366-79.2,22.732-30.207,60.038-4.923,84.2-9.834,34.577-7.027,37.2-24.61,60.714-23.873" transform="translate(-4218.514 -2346.864)" fill="#dceef7"/>
            <path id="Trazado_41757" data-name="Trazado 41757" d="M4361.006,2374.6a54.937,54.937,0,0,0,23.159-2.763c12.623-4.282,21.459-11.052,21.236-18.926s-13.128-9.256-25.655-4.144-23.226,2.072-31.462,5.387S4341.607,2374.459,4361.006,2374.6Z" transform="translate(-4233.487 -2345.747)" fill="#dceef7"/>
            <path id="Trazado_41758" data-name="Trazado 41758" d="M4334.736,2686.312a42.651,42.651,0,0,1,19.978,6.491,63.351,63.351,0,0,1,15.525,13.784c4.049,5.1.1,17.015-15.525,6.937s-20.965-15.42-28.011-15.98S4320.254,2685.51,4334.736,2686.312Z" transform="translate(-4230.942 -2386.519)" fill="#dceef7"/>
          </g>
        </g>
        <g id="Grupo_16185" data-name="Grupo 16185" transform="translate(199.689 5.47)" opacity="0.6">
          <g id="Grupo_16184" data-name="Grupo 16184">
            <path id="Trazado_41759" data-name="Trazado 41759" d="M4445.364,2356.169s32-8.364,61.668,20.646,50.217,6.355,90.354,21c25.114,9.163,47.951,33.848,48.306,82.82s-38.365,61.419-44.044,81.48c-10.3,36.38,6.261,55.779-11.366,79.2-22.732,30.208-60.038,4.923-84.205,9.835-34.577,7.026-37.2,24.609-60.714,23.872" transform="translate(-4445.364 -2352.331)" fill="#dceef7"/>
            <path id="Trazado_41760" data-name="Trazado 41760" d="M4522.04,2695.094a54.933,54.933,0,0,0-23.159,2.762c-12.624,4.282-21.459,11.052-21.236,18.926s13.128,9.256,25.655,4.145,23.226-2.072,31.463-5.388S4541.439,2695.232,4522.04,2695.094Z" transform="translate(-4449.229 -2393.014)" fill="#dceef7"/>
            <path id="Trazado_41761" data-name="Trazado 41761" d="M4550,2383.1a42.644,42.644,0,0,1-19.977-6.492,63.349,63.349,0,0,1-15.525-13.784c-4.049-5.1-.1-17.015,15.525-6.937s20.965,15.421,28.011,15.98S4564.483,2383.9,4550,2383.1Z" transform="translate(-4453.464 -2351.961)" fill="#dceef7"/>
          </g>
        </g>
      </g>
    </g>
    <g id="Grupo_16302" data-name="Grupo 16302" transform="translate(4217.173 2363.506)">
      <g id="Ñëîé_5" data-name="Ñëîé 5" transform="translate(1.026 1.002)">
        <path id="Trazado_41762" data-name="Trazado 41762" d="M4222.508,2367.06h198.315a4.315,4.315,0,0,1,4.168,4.447V2499.26a4.315,4.315,0,0,1-4.168,4.447H4222.508a4.315,4.315,0,0,1-4.169-4.447V2371.507A4.315,4.315,0,0,1,4222.508,2367.06Z" transform="translate(-4218.339 -2367.06)" fill="#f7f7f7" fill-rule="evenodd"/>
        <path id="Trazado_41763" data-name="Trazado 41763" d="M4224.847,2376.7h194.219a4.075,4.075,0,0,1,4.082,4.067v116.861a4.074,4.074,0,0,1-4.082,4.068H4224.847a4.075,4.075,0,0,1-4.083-4.068V2380.765A4.075,4.075,0,0,1,4224.847,2376.7Z" transform="translate(-4218.629 -2368.214)" fill="#d8ebd7" fill-rule="evenodd"/>
        <path id="Trazado_41764" data-name="Trazado 41764" d="M4415.336,2530.919h198.315a4.313,4.313,0,0,1,4.169,4.444v127.665a4.313,4.313,0,0,1-4.169,4.444H4415.336a4.313,4.313,0,0,1-4.168-4.444V2535.363A4.313,4.313,0,0,1,4415.336,2530.919Z" transform="translate(-4241.427 -2386.679)" fill="#f7f7f7" fill-rule="evenodd"/>
        <path id="Trazado_41765" data-name="Trazado 41765" d="M4417.675,2540.558h194.219a4.075,4.075,0,0,1,4.083,4.067v116.862a4.076,4.076,0,0,1-4.083,4.068H4417.675a4.075,4.075,0,0,1-4.082-4.068V2544.625A4.075,4.075,0,0,1,4417.675,2540.558Z" transform="translate(-4241.717 -2387.834)" fill="#fee3c6" fill-rule="evenodd"/>
      </g>
      <g id="Ñëîé_4" data-name="Ñëîé 4" transform="translate(49.532 1.995)">
        <path id="Trazado_41766" data-name="Trazado 41766" d="M4314.752,2418.288c-.7-1.254-.458-1.3-.894-1.938a27.186,27.186,0,0,1-4.067-8.211c-1.5-5.557.175-12.03,3.421-16.613,1.208-1.705,2.937-2.245,4.752-3.041,4.275-1.875,10.507-2.278,14.75.3,4.733,2.881,6.16,8.329,6.652,13.494a21.374,21.374,0,0,1,.3,3.194c-.121,2.28-.959,4.523-1.179,6.8-.338,3.51-.357,7.026-.761,10.53-.547,4.75-.767,12.52-6.842,13.533-2.984.5-5.064-1.771-6.767-3.878a119.363,119.363,0,0,1-7.185-9.656C4316.188,2421.665,4315.455,2419.542,4314.752,2418.288Z" transform="translate(-4277.729 -2370.437)" fill="#feede5" fill-rule="evenodd"/>
        <path id="Trazado_41767" data-name="Trazado 41767" d="M4320.658,2547.254c-.222-.925,1.244-1.671,1.768-2.5.87-1.38,2.351-2.2,2.953-3.722.292-.734.658-2.156,1.425-2.6,1.109-.646,3.839,1.157,4.924,1.469,2.537.727,5.244,1.117,7.615,2.34,1.694.875,3.018,2.313,4.681,3.171,1.062.548,3.127.607,3.272,2.206.067.749-1.415.854-1.78.831a22.8,22.8,0,0,1-5.9-1.576c-.311-.1-1.811-.5-1.864.07-.072.746,1.872,2.465,2.314,2.982,1.045,1.223,1.719,2.7,3.016,3.7,1.94,1.5,4.239,1.962,6.276,3.238.662.415,2.837,2.85,1.847,3.814-1.268,1.235-3.93-.051-5.522.766a22.729,22.729,0,0,1-4.958,1.216c-3.106.675-5.855.872-8.063-.625-3.735-2.533-6.3-6.547-8.682-10.124C4322.858,2550.226,4321.118,2549.18,4320.658,2547.254Z" transform="translate(-4279.092 -2388.555)" fill="#feede5" fill-rule="evenodd"/>
        <path id="Trazado_41768" data-name="Trazado 41768" d="M4307.962,2514.623a3.281,3.281,0,0,1-2.313-3.842c.5-1.312,2.081-2.347,3.012-3.349.543-.586,1.55-2.16,2.03-2.8,2.958-3.938,6.822-2.914,11.257-3.125,1.506-.072,3.025-.191,4.529-.307.4-.031.925-.209,1.2.179a11.674,11.674,0,0,1,1.164,3.782c.32,1.332,1.131,2.833.865,4.242-.481,2.543-3.93,1.8-5.714,1.854-1.194.034-1.917.192-3.216.33a13.039,13.039,0,0,0-3.035.573c-2.741.964-4.737,2.693-7.742,2.734-.333,0-2.647-.173-2.8-.51Z" transform="translate(-4277.284 -2384.106)" fill="#feede5" fill-rule="evenodd"/>
        <path id="Trazado_41769" data-name="Trazado 41769" d="M4506.126,2544.844c1.424-4.081,5.413-8.374,9.926-8.205a12.3,12.3,0,0,1,8.874,4.383c1.317,1.549,1.859,3.694,2.432,5.591,1.077,3.564,1.783,7.232,2.974,10.765a76.985,76.985,0,0,0,4.572,11.093c.952,1.8,2.633,3.558,2.97,5.641.471,2.909-.86,5.734-2.041,8.308-2.564,5.6-5.514,11.74-11.723,13.916-3.431,1.2-10.319,2.074-12.73-1.79-1.43-2.291-.5-6.347-.377-8.9a17.972,17.972,0,0,1,.182-3.238c.385-1.7,1.665-2.561,1.433-4.386-.283-2.246-1.6-1.508-3.1-2.278a13.15,13.15,0,0,1-2.949-3.289c-4.01-6.424-4.244-14.516-2.618-21.7A61.75,61.75,0,0,1,4506.126,2544.844Z" transform="translate(-4300.928 -2388.357)" fill="#feede5" fill-rule="evenodd"/>
        <path id="Trazado_41770" data-name="Trazado 41770" d="M4309.388,2407.5c-.072.235-.105.059-.451-.355a23.833,23.833,0,0,1-1.9-2.749c-2.386-3.855-4.9-7.8-5.641-12.373a19.877,19.877,0,0,1,.237-8.058c1.707-6.26,9.12-12.421,14.979-14.932,3.3-1.414,3.676-.692,7.111-.379.5.046,2.239.58,2.749.616a10.619,10.619,0,0,1,4.171,1.564,15.8,15.8,0,0,1,4.361,4.171c2.117,2.6,2.7,5.167,4.17,7.869a8.727,8.727,0,0,1,1.376,4.788c.08,1.729.094,2.625.094,4.36a37.261,37.261,0,0,1-.474,6.684,4.883,4.883,0,0,1-.9,2.085c-.117.149-.239.411-.426.379-1.285-.214-.616-2.754-.948-3.649-.85-2.295-4.408-4.24-6.588-5.452a8.137,8.137,0,0,0-3.887-1.043c-1.036-.086-2.042-.391-3.081-.426a28.409,28.409,0,0,0-5.214.521,13.854,13.854,0,0,0-4.835,1.185,7.5,7.5,0,0,0-2.323,1.327c-1.353,1.466-.366,3.613-.665,5.4-.228,1.372-1.394,2.583-1.943,3.839-.482,1.1-.02,2.511.1,3.65A2,2,0,0,1,4309.388,2407.5Z" transform="translate(-4276.754 -2368.188)" fill="#fee3c6" fill-rule="evenodd"/>
        <path id="Trazado_41771" data-name="Trazado 41771" d="M4514.886,2622.73c-.6.257-.369-.04-.444-1.035-.105-1.4-.1-2.8-.2-4.193-.274-3.83-.542-7.648-.542-11.49,0-.764-.38-2.857.049-3.5.364-.546,2.336,1.107,2.712,1.233a18.061,18.061,0,0,0,4.833.74,9.843,9.843,0,0,0,4.488-1.232c.137-.063,1.629-.936,1.775-.691.564.942-1.376,3.414-1.725,3.945-1.808,2.742-3.556,5.51-5.228,8.334C4519.042,2617.482,4517.684,2621.541,4514.886,2622.73Z" transform="translate(-4302.191 -2396.231)" fill="#fff" fill-rule="evenodd"/>
        <path id="Trazado_41772" data-name="Trazado 41772" d="M4335.761,2414.361a2.212,2.212,0,0,0-1.6.431c-1.121.817-1.469,5.9-1.672,6.866-.567,2.694-.059,3.85-.988,6.436-.768,2.135-2.683,9.193-5.675,9.323-1.775.078-2.651-2.551-3.978-3.547-3.428-2.572-6.485-3.934-8.918-7.474a51.936,51.936,0,0,1-3.116-5.472c-.225-.478-.934-3.22-1.6-3.294-1.373-.152-3.785,2.577-4.94,3.116a70.131,70.131,0,0,0-8.032,4.713c-3.192,1.984-6.4,2.761-9.146,5.422-5.53,5.367-6.929,14.873-9.273,23.664-1.826,6.847-3.7,19.9-3.344,27.058.368,7.362-.007,9.341,3.825,15.506,5.52,8.879,15.18,19.949,23.867,25.893,3.36,2.3,6.794,5.062,10.21,7.271.854.553,2.636,2.6,3.32,1.9.839-.86,2.635-2.28,3.167-3.319,1.716-3.354,3.5-3.055,2.407-5.777-.462-1.154-3.109-2.707-3.979-3.5-1.86-1.692-4.681-4.862-6.383-6.714-3.86-4.2-4.837-6.566-8.513-10.92-5.1-6.043-9.592-11.694-8.665-20.04.28-2.514.131-6.785,1.95-8.97,1.416-1.7,1.726,3.16,1.8,3.75.45,3.6.99,7.16,1.318,10.768.131,1.445.139,3.174,1.342,4.206,1.433,1.229,4.084.292,5.776.152,3.484-.291,6.219-.064,8.792-.532s8.505-.148,9.754-.3,1.656,5.28,2.026,7.4c.125.707.223,2.274,1.14,2.66,1.042.438,3.574-.587,4.587-.684,4.4-.419,7.016-1.525,12.187-2.053a224.373,224.373,0,0,0,27.894-5.421c5.952-1.653,10.242-3.639,12.667-8.386,1.538-3.007.748-5.414.33-9.1a144.766,144.766,0,0,0-3.015-17.507c-1.289-4.977-3-10.057-4.384-15.024-1.921-6.915-3.964-13.472-10.007-18.065-5.655-4.3-13.636-6.171-20.447-7.575-1.03-.213-6.477-.577-8.386-1.875A5.2,5.2,0,0,0,4335.761,2414.361Zm24.551,44.49c.362-.021.912,1.857,1.469,3.623.744,2.355,3.224,13.179,3.472,14.542s-.132,1.664-1.495,1.85-5.726,1.393-5.726,1.393,1.7-18.691,1.976-20.674C4360.078,2459.09,4360.191,2458.859,4360.312,2458.852Z" transform="translate(-4273.442 -2373.715)" fill="#fff" fill-rule="evenodd"/>
        <path id="Trazado_41773" data-name="Trazado 41773" d="M4403.894,2571.061c1.656,11.11,2.551,22.218,2.551,22.218a50.024,50.024,0,0,1-17.261,6.938c-10.432,2.13-27.25,1.721-27.25,1.721s-.888-12.267-2.581-25.084c-.253-1.913-1.445-2.086-1.855-4.1-2.347-11.488-12.193-34.787-12.193-34.787l5.73-.656.616-1.613a83.7,83.7,0,0,0,15.159-1.254c2.611-.551,19.134-9.148,19.134-9.148l1.558,4.093,5.878-2.213a187.634,187.634,0,0,1,7.668,27.413Z" transform="translate(-4282.046 -2387)" fill="#fff" fill-rule="evenodd"/>
        <path id="Trazado_41774" data-name="Trazado 41774" d="M4415.121,2596.432c.295.1-.32-.128-.548-.336a3.036,3.036,0,0,1-.714-1.64,38.155,38.155,0,0,1-.673-5.3,113.723,113.723,0,0,0-1.556-12.281c-.255-1.364-.127-2.822-.462-4.163-.5-1.981-2.766-2.887-3.322-5a14.794,14.794,0,0,1-.674-5.131,6.834,6.834,0,0,1,.758-2.1c.321-.452,1.109,1.142,1.22,1.3.853,1.253,1.542,2.61,2.4,3.869a17.845,17.845,0,0,0,3.995,4,11.278,11.278,0,0,1,3.155,2.733c1.565,2.544,2.049,5.989,2.187,8.873.065,1.373-.408,2.854-.168,4.205.113.64.458,1.5.168,2.146-.617,1.355-2.047,2.341-2.775,3.7-.665,1.24-1.64,2.1-2.271,3.49S4414.647,2596.272,4415.121,2596.432Z" transform="translate(-4289.451 -2391.202)" fill="#feede5" fill-rule="evenodd"/>
        <path id="Trazado_41775" data-name="Trazado 41775" d="M4452.81,2614.374c1.955-1.439,12.331-7.526,14.646-9.378s5.753-3.805,7.143-5.555a22.127,22.127,0,0,1,7.142-5.772,57.323,57.323,0,0,1,9.091-3.463c2.829-.771,2.273.973,4.184-.36a32.053,32.053,0,0,1,4.905-3.174c1.711-.781,1.654-.142,1.683,1.7s.542,9.5.481,12.992.394,13.223.47,16.521.013,4.274.922,2.39a120.131,120.131,0,0,1,6.151-10.434c1.581-2.219,3.375-5.582,5.217-8.02s3.5-4.532,5.216-7.164,2.758-3.123,3.455-5.228,7.031-1.894,8.926-1.158a43.155,43.155,0,0,1,8.956,4.517c3.61,2.446,4.883,1.341,7.4,4.282s3.493,3.009,5.062,6.93a69.934,69.934,0,0,1,3.322,12.515,107.888,107.888,0,0,1,2.213,15.759c.421,6.545.63,9.575.922,14.547s.722,6.216,1.57,11.5a79.389,79.389,0,0,0,2.078,10.322c.555,1.621,1.165,3.3,1.165,3.3l-18.794-.321s-.345-3.777-.85-6.535-1.939-10.886-2.018-13.6-1.168-8.373-1.393-11.66-.608-8.1-1.187-5.939a32.167,32.167,0,0,1-1.9,4.919c-.886,2.159-3.493,10.311-4.611,13.856s-3.933,12.761-4.357,14.92-.887,4.28-.887,4.28l-52.2-.136s1.771-8.4,2.421-11.988,1.978-9.186,1.806-11.68-1.328-7.1-1.747-9.673a56.078,56.078,0,0,1-.867-10.456c.194-3.1.821-7.473-.758-6.1s-4.581,2.161-6.618,3.5a54.545,54.545,0,0,1-9.656,4.206,77.681,77.681,0,0,1-10.667,2.8c-3.271.467-4.82.288-6.151-.389a38.983,38.983,0,0,1-5.411-3.347c-4.673-3.721-10.3-10.693-14.716-16.039-4.791-5.8-8.2-9.883-8.53-10.981-.415-1.385,1.037-5.029,2.86-7.374,1.391-1.79,2.669-2.749,3.137-3.684.595-1.19,3.53,5.011,9.325,10.041C4439.823,2607.926,4451.649,2615.23,4452.81,2614.374Z" transform="translate(-4290.506 -2394.309)" fill="#bfc9e4" fill-rule="evenodd"/>
        <path id="Trazado_41776" data-name="Trazado 41776" d="M4504.091,2566.2c.087.6-1.189-.8-1.516-1.31a15.656,15.656,0,0,1-2-6.3c-.185-4.754,1.818-10,3.265-14.484,2.246-6.96,7.78-13.963,15.549-15.994,3.225-.843,5.268-.628,8.563-.416a16.423,16.423,0,0,1,5.865,1.571c.886.4,6.3,4.984,7.409,6.679,2.955,4.518,3.42,8.427,4.108,13.769.441,3.429.264,8.882.993,12.278,1,4.659,3.838,9.047,3.016,13.847-.491,2.863-3.1,4.081-5.046,5.758-1.805,1.561-2.484,2.7-2.5,4.958-.043,6.483,2.924,14.477,4.315,20.737.871,3.919,1.341,10.135-.28,14.138-1,2.471-13.153,12.449-13.645,17.442-.122,1.23-3.539-2.17-4.974-6.373-1.427-4.178,3.762-8.776,3.989-9.945.493-2.532-1.5-7.865-2.28-9.292-1.7-3.09-3.308-6.218-3.558-9.7-.411-5.732,3.474-12.272,6.4-17.059.85-1.389,2.641-2.781,2.92-4.462.329-1.965-2.3-3.058-3.556-4.223a9.163,9.163,0,0,1-2.855-4.238c-1.3-4.5.4-13.585.144-15.428s-2.725-2.306-4.286-4.732c-.865-1.343-2-4.159-2.741-5.57-1.38-2.622-2.118-5.772-4.416-7.835-3.055-2.745-7.375-.7-8.878,2.617-.955,2.112-1.115,4.586-1.7,6.817C4505.014,2554.706,4503.282,2560.623,4504.091,2566.2Z" transform="translate(-4300.637 -2387.264)" fill="#f3877d" fill-rule="evenodd"/>
      </g>
      <g id="Ñëîé_2" data-name="Ñëîé 2" transform="translate(8.655 1.445)">
        <g id="Grupo_16188" data-name="Grupo 16188" transform="translate(72.76 33.077)">
          <path id="Trazado_41777" data-name="Trazado 41777" d="M4327.214,2427.625c-5.3,0-12.255-4.468-17.479-15.2a.73.73,0,0,1,1.313-.638c5.568,11.442,12.977,15.369,17.855,14.189,5.515-1.336,8.984-8.126,10.312-20.18a.73.73,0,0,1,1.451.16c-1.422,12.908-5.157,19.92-11.418,21.438A8.618,8.618,0,0,1,4327.214,2427.625Z" transform="translate(-4309.662 -2405.14)" fill="#463b39"/>
        </g>
        <g id="Grupo_16189" data-name="Grupo 16189" transform="translate(89.318 38.083)">
          <path id="Trazado_41778" data-name="Trazado 41778" d="M4330.2,2419.219a.729.729,0,0,1-.458-1.3,1.511,1.511,0,0,0,.551-.862,3.462,3.462,0,0,0-.444-.415,2.936,2.936,0,0,1-.754-.827,5.186,5.186,0,0,1-.18-4.55.73.73,0,0,1,1.34.578,3.706,3.706,0,0,0,.13,3.292,2.483,2.483,0,0,0,.409.4,2.178,2.178,0,0,1,.954,1.418,2.808,2.808,0,0,1-1.091,2.107A.721.721,0,0,1,4330.2,2419.219Z" transform="translate(-4328.473 -2410.827)" fill="#463b39"/>
        </g>
        <g id="Grupo_16190" data-name="Grupo 16190" transform="translate(78.936 15.929)">
          <path id="Trazado_41779" data-name="Trazado 41779" d="M4317.409,2395.045a.711.711,0,0,1-.122-.01.729.729,0,0,1-.6-.841c.524-3.105,3.69-4.211,6-5.019l.168-.059a13.594,13.594,0,0,0,5.223-3.231.73.73,0,1,1,1.056,1.007,15.1,15.1,0,0,1-5.8,3.6l-.169.059c-2.079.726-4.666,1.629-5.045,3.885A.73.73,0,0,1,4317.409,2395.045Z" transform="translate(-4316.678 -2385.659)" fill="#463b39"/>
        </g>
        <g id="Grupo_16191" data-name="Grupo 16191" transform="translate(83.515 20.795)">
          <path id="Trazado_41780" data-name="Trazado 41780" d="M4322.61,2395a.722.722,0,0,1-.226-.035.736.736,0,0,1-.471-.923c.451-1.408,2.57-1.256,3.838-1.166.189.013.35.026.463.026.675.007,1.409.068,2.187.133,2.738.226,5.839.483,7.325-1.549a.729.729,0,1,1,1.178.86c-1.967,2.695-5.657,2.39-8.623,2.144-.751-.062-1.459-.121-2.083-.128-.134,0-.325-.014-.551-.031-1.729-.125-2.232.023-2.349.167A.719.719,0,0,1,4322.61,2395Z" transform="translate(-4321.879 -2391.188)" fill="#463b39"/>
        </g>
        <g id="Grupo_16192" data-name="Grupo 16192" transform="translate(94.316 23.462)">
          <path id="Trazado_41781" data-name="Trazado 41781" d="M4342.281,2403.049a.729.729,0,0,1-.72-.617,6.549,6.549,0,0,0-1.651-3.85,11.237,11.237,0,0,0-2.928-1.7,17.233,17.233,0,0,1-2.514-1.331.729.729,0,1,1,.824-1.2,16.059,16.059,0,0,0,2.3,1.21,12.472,12.472,0,0,1,3.312,1.958,7.812,7.812,0,0,1,2.1,4.694.729.729,0,0,1-.609.833A.711.711,0,0,1,4342.281,2403.049Z" transform="translate(-4334.15 -2394.218)" fill="#463b39"/>
        </g>
        <g id="Grupo_16193" data-name="Grupo 16193" transform="translate(74.857 11.874)">
          <path id="Trazado_41782" data-name="Trazado 41782" d="M4314.012,2392.246a.73.73,0,0,1-.628-.357c-1.766-2.981-1.786-6.678-.057-10.412a.729.729,0,1,1,1.324.613c-1.52,3.285-1.524,6.5-.01,9.055a.731.731,0,0,1-.628,1.1Z" transform="translate(-4312.045 -2381.053)" fill="#463b39"/>
        </g>
        <g id="Grupo_16194" data-name="Grupo 16194" transform="translate(64.348 5.579)">
          <path id="Trazado_41783" data-name="Trazado 41783" d="M4304.624,2401.8a.733.733,0,0,1-.623-.349c-6.526-10.631-4.794-20.622,4.754-27.411a.729.729,0,0,1,.846,1.188c-8.971,6.379-10.518,15.42-4.355,25.459a.728.728,0,0,1-.241,1A.718.718,0,0,1,4304.624,2401.8Z" transform="translate(-4300.105 -2373.902)" fill="#463b39"/>
        </g>
        <g id="Grupo_16195" data-name="Grupo 16195" transform="translate(75.969)">
          <path id="Trazado_41784" data-name="Trazado 41784" d="M4314.037,2372.386a.729.729,0,0,1-.523-1.239c2.665-2.731,5.981-3.852,10.437-3.53a13.539,13.539,0,0,1,2.542.519c1.438.393,2.8.763,4.053.232a.73.73,0,0,1,.568,1.345c-1.719.725-3.465.25-5-.169a12.222,12.222,0,0,0-2.263-.473c-4.052-.3-6.914.66-9.285,3.093A.728.728,0,0,1,4314.037,2372.386Z" transform="translate(-4313.307 -2367.564)" fill="#463b39"/>
        </g>
        <g id="Grupo_16196" data-name="Grupo 16196" transform="translate(93.656 2.029)">
          <path id="Trazado_41785" data-name="Trazado 41785" d="M4334.13,2372.609a.73.73,0,0,1-.171-1.439,2.7,2.7,0,0,0,1.871-1,.729.729,0,0,1,1.178.861,4.1,4.1,0,0,1-2.706,1.559A.7.7,0,0,1,4334.13,2372.609Z" transform="translate(-4333.4 -2369.869)" fill="#463b39"/>
        </g>
        <g id="Grupo_16197" data-name="Grupo 16197" transform="translate(98.066 6.272)">
          <path id="Trazado_41786" data-name="Trazado 41786" d="M4339.367,2376.852c-.1,0-.192,0-.294-.013a.73.73,0,0,1,.133-1.453,2.354,2.354,0,0,0,1.437-.441l.328-.173a.73.73,0,1,1,.669,1.3l-.306.162A3.959,3.959,0,0,1,4339.367,2376.852Z" transform="translate(-4338.41 -2374.69)" fill="#463b39"/>
        </g>
        <g id="Grupo_16198" data-name="Grupo 16198" transform="translate(100.04 9.145)">
          <path id="Trazado_41787" data-name="Trazado 41787" d="M4345.831,2398.405a.729.729,0,0,1-.72-.617,45.962,45.962,0,0,1-.408-4.937,26.633,26.633,0,0,0-1.141-7.834,15.8,15.8,0,0,0-1.242-2.44,11.885,11.885,0,0,1-1.659-3.782.729.729,0,1,1,1.441-.225,11,11,0,0,0,1.481,3.276,17.141,17.141,0,0,1,1.354,2.685,28.169,28.169,0,0,1,1.222,8.253,44.842,44.842,0,0,0,.392,4.779.73.73,0,0,1-.609.833A.679.679,0,0,1,4345.831,2398.405Z" transform="translate(-4340.652 -2377.952)" fill="#463b39"/>
        </g>
        <g id="Grupo_16199" data-name="Grupo 16199" transform="translate(72.527 24.845)">
          <path id="Trazado_41788" data-name="Trazado 41788" d="M4310.127,2407.976a.719.719,0,0,1-.225-.036.731.731,0,0,1-.47-.919,11.486,11.486,0,0,1,.977-2.066,7.356,7.356,0,0,0,1-2.387,13.321,13.321,0,0,0,.076-2.58,11.834,11.834,0,0,1,.268-3.665.729.729,0,1,1,1.406.389,10.573,10.573,0,0,0-.215,3.226,14.727,14.727,0,0,1-.093,2.859,8.574,8.574,0,0,1-1.166,2.87,10.249,10.249,0,0,0-.861,1.8A.732.732,0,0,1,4310.127,2407.976Z" transform="translate(-4309.397 -2395.788)" fill="#463b39"/>
        </g>
        <g id="Grupo_16200" data-name="Grupo 16200" transform="translate(93.305 34.775)">
          <path id="Trazado_41789" data-name="Trazado 41789" d="M4333.73,2410.085a.73.73,0,0,1-.111-1.451l.157-.024c1.028-.159,2.308-.355,2.732-1.154a.73.73,0,0,1,1.289.686c-.769,1.444-2.521,1.714-3.8,1.911l-.154.024A.714.714,0,0,1,4333.73,2410.085Z" transform="translate(-4333.001 -2407.069)" fill="#463b39"/>
        </g>
        <g id="Grupo_16201" data-name="Grupo 16201" transform="translate(79.619 37.804)">
          <path id="Trazado_41790" data-name="Trazado 41790" d="M4319.707,2412.54a2.446,2.446,0,0,1-2.118-.877.73.73,0,1,1,1.189-.846c.326.459,1.732.209,2.408.089.145-.026.279-.049.4-.068a.73.73,0,0,1,.225,1.442l-.369.063A10,10,0,0,1,4319.707,2412.54Z" transform="translate(-4317.454 -2410.51)" fill="#463b39"/>
        </g>
        <g id="Grupo_16202" data-name="Grupo 16202" transform="translate(80.457 38.323)">
          <path id="Trazado_41791" data-name="Trazado 41791" d="M4320.091,2413.354h-.007a2.062,2.062,0,0,1-1.542-1.1.73.73,0,0,1,1.188-.847,3.272,3.272,0,0,0,.335.415l.007-.009a.73.73,0,0,1,1.178.861A1.435,1.435,0,0,1,4320.091,2413.354Z" transform="translate(-4318.406 -2411.1)" fill="#463b39"/>
        </g>
        <g id="Grupo_16203" data-name="Grupo 16203" transform="translate(94.554 35.866)">
          <path id="Trazado_41792" data-name="Trazado 41792" d="M4335.759,2410.437a1.5,1.5,0,0,1-1.17-.6.73.73,0,1,1,1.121-.935c.019.022.035.038.047.051a.771.771,0,0,0,.142-.218.73.73,0,1,1,1.324.615,1.734,1.734,0,0,1-1.294,1.079A1.291,1.291,0,0,1,4335.759,2410.437Z" transform="translate(-4334.42 -2408.309)" fill="#463b39"/>
        </g>
        <g id="Grupo_16204" data-name="Grupo 16204" transform="translate(91.157 31.283)">
          <path id="Trazado_41793" data-name="Trazado 41793" d="M4331.291,2407.282a.729.729,0,0,1-.554-1.2,9.356,9.356,0,0,1,5.872-2.976.73.73,0,1,1,0,1.459,7.906,7.906,0,0,0-4.764,2.467A.729.729,0,0,1,4331.291,2407.282Z" transform="translate(-4330.562 -2403.102)" fill="#463b39"/>
        </g>
        <g id="Grupo_16205" data-name="Grupo 16205" transform="translate(78.047 35.001)">
          <path id="Trazado_41794" data-name="Trazado 41794" d="M4316.4,2409.521a.73.73,0,0,1-.327-1.382c1.212-.606,5.623-1.453,7.026-.05a.73.73,0,1,1-1.031,1.032c-.657-.657-4.188-.256-5.341.322A.726.726,0,0,1,4316.4,2409.521Z" transform="translate(-4315.667 -2407.326)" fill="#463b39"/>
        </g>
        <g id="Grupo_16206" data-name="Grupo 16206" transform="translate(86.233 47.334)">
          <path id="Trazado_41795" data-name="Trazado 41795" d="M4328.4,2424a14.493,14.493,0,0,1-2.842-.337.729.729,0,1,1,.287-1.43,8.255,8.255,0,0,0,6.5-.817.73.73,0,1,1,.652,1.305A9.712,9.712,0,0,1,4328.4,2424Z" transform="translate(-4324.968 -2421.337)" fill="#463b39"/>
        </g>
        <g id="Grupo_16207" data-name="Grupo 16207" transform="translate(101.579 40.37)">
          <path id="Trazado_41796" data-name="Trazado 41796" d="M4385.674,2445.523a.728.728,0,0,1-.7-.535l-.355-1.3c-.939-3.465-2.227-8.208-4.156-11.577-4.647-8.114-11.674-11.135-21.506-13.38-1.7-.388-3.452-.656-5.147-.915-3.7-.564-7.522-1.148-11.021-3.017a.73.73,0,0,1,.688-1.287c3.277,1.751,6.811,2.291,10.552,2.861,1.721.263,3.5.534,5.253.934,10.217,2.333,17.536,5.5,22.448,14.078,2.023,3.53,3.337,8.379,4.3,11.92l.353,1.294a.731.731,0,0,1-.7.925Z" transform="translate(-4342.4 -2413.425)" fill="#463b39"/>
        </g>
        <g id="Grupo_16208" data-name="Grupo 16208" transform="translate(51.732 43.511)">
          <path id="Trazado_41797" data-name="Trazado 41797" d="M4286.5,2433.025a.729.729,0,0,1-.531-1.23c3.306-3.509,7.6-5.582,11.744-7.587,3.916-1.892,7.964-3.847,11.119-7a.729.729,0,0,1,1.03,1.031c-3.329,3.329-7.49,5.341-11.515,7.286-4.215,2.036-8.2,3.96-11.317,7.273A.727.727,0,0,1,4286.5,2433.025Z" transform="translate(-4285.774 -2416.993)" fill="#463b39"/>
        </g>
        <g id="Grupo_16209" data-name="Grupo 16209" transform="translate(124.892 77.834)">
          <path id="Trazado_41798" data-name="Trazado 41798" d="M4369.615,2486.118a.656.656,0,0,1-.092-.005.73.73,0,0,1-.633-.815c.67-5.362,2.136-23.645,2.136-28.583a.73.73,0,0,1,1.459,0c0,5.278-1.541,23.914-2.147,28.764A.73.73,0,0,1,4369.615,2486.118Z" transform="translate(-4368.884 -2455.985)" fill="#463b39"/>
        </g>
        <g id="Grupo_16210" data-name="Grupo 16210" transform="translate(58.848 80.881)">
          <path id="Trazado_41799" data-name="Trazado 41799" d="M4300.806,2497.253a.73.73,0,0,1-.727-.663c-1.209-13.117-4.611-32.091-6.173-36.153a.729.729,0,1,1,1.361-.524c1.628,4.231,5.023,23.072,6.265,36.542a.729.729,0,0,1-.659.793A.59.59,0,0,1,4300.806,2497.253Z" transform="translate(-4293.857 -2459.447)" fill="#463b39"/>
        </g>
        <g id="Grupo_16211" data-name="Grupo 16211" transform="translate(251.511 188.251)">
          <path id="Trazado_41800" data-name="Trazado 41800" d="M4513.456,2586.357a.728.728,0,0,1-.7-.945,12.224,12.224,0,0,0,.6-3.291.752.752,0,0,1,.76-.7.73.73,0,0,1,.7.76,13.579,13.579,0,0,1-.665,3.662A.731.731,0,0,1,4513.456,2586.357Z" transform="translate(-4512.726 -2581.421)" fill="#463b39"/>
        </g>
        <g id="Grupo_16212" data-name="Grupo 16212" transform="translate(247.632 195.096)">
          <path id="Trazado_41801" data-name="Trazado 41801" d="M4509.05,2637.172a.6.6,0,0,1-.082-.005.729.729,0,0,1-.645-.805c1.132-10.132,11.962-27.481,17.53-35.239.631-.88,1.283-1.754,1.937-2.631a55.272,55.272,0,0,0,5.777-8.878.73.73,0,0,1,1.316.63,56.328,56.328,0,0,1-5.923,9.121c-.647.869-1.295,1.737-1.921,2.61-4.416,6.152-16.127,24.353-17.265,34.549A.732.732,0,0,1,4509.05,2637.172Z" transform="translate(-4508.319 -2589.197)" fill="#463b39"/>
        </g>
        <g id="Grupo_16213" data-name="Grupo 16213" transform="translate(251.364 191.727)">
          <path id="Trazado_41802" data-name="Trazado 41802" d="M4514.317,2621.51a.731.731,0,0,1-.729-.731c0-5.765-.261-11.629-.513-17.3-.254-5.691-.515-11.576-.515-17.38a.73.73,0,0,1,1.459,0c0,5.773.261,11.641.513,17.315s.516,11.569.516,17.365A.731.731,0,0,1,4514.317,2621.51Z" transform="translate(-4512.559 -2585.37)" fill="#463b39"/>
        </g>
        <g id="Grupo_16214" data-name="Grupo 16214" transform="translate(235.909 191.875)">
          <path id="Trazado_41803" data-name="Trazado 41803" d="M4507.711,2633.027a.731.731,0,0,1-.715-.586c-.894-4.474-3.331-10.4-5.481-15.622-1.1-2.672-2.137-5.2-2.918-7.382-.243-.68-.482-1.366-.722-2.052-.475-1.356-.964-2.759-1.478-4.106a3.526,3.526,0,0,0-.279-.518,2.357,2.357,0,0,1-.48-1.829c.226-.906,1.064-1.45,1.874-1.974.518-.335,1.1-.717,1.241-1.058-.011-.235-.582-.649-1.693-1.238-.277-.147-.519-.277-.679-.383-.026-.017-.078-.044-.14-.076-.591-.321-1.09-.624-1.212-1.118a.87.87,0,0,1,.12-.7,4.822,4.822,0,0,1,2.186-1.259,9.542,9.542,0,0,0,.99-.435c1.513-.889,3.016-1.878,4.469-2.834a69.856,69.856,0,0,1,7.039-4.242.729.729,0,0,1,.652,1.305,68.725,68.725,0,0,0-6.889,4.157c-1.468.966-2.987,1.965-4.531,2.872a9.675,9.675,0,0,1-1.184.531c-.265.108-.658.266-.985.417.015.008.028.014.039.021.113.061.2.112.254.145.131.087.329.19.554.31,1.109.586,2.962,1.569,2.365,3.068a4.208,4.208,0,0,1-1.8,1.741c-.547.354-1.165.755-1.252,1.1-.035.145.158.463.313.719a4.542,4.542,0,0,1,.4.755c.521,1.365,1.014,2.777,1.492,4.143.238.683.477,1.365.718,2.042.771,2.154,1.8,4.662,2.895,7.319,2.175,5.286,4.641,11.278,5.562,15.889a.73.73,0,0,1-.716.874Z" transform="translate(-4495.003 -2585.538)" fill="#463b39"/>
        </g>
        <g id="Grupo_16215" data-name="Grupo 16215" transform="translate(248.248 222.828)">
          <path id="Trazado_41804" data-name="Trazado 41804" d="M4509.748,2639.612a.731.731,0,0,1-.583-1.168,93.6,93.6,0,0,1,17.431-17.584.729.729,0,1,1,.9,1.144,92.161,92.161,0,0,0-17.168,17.316A.73.73,0,0,1,4509.748,2639.612Z" transform="translate(-4509.019 -2620.701)" fill="#463b39"/>
        </g>
        <g id="Grupo_16216" data-name="Grupo 16216" transform="translate(241.959 241.983)">
          <path id="Trazado_41805" data-name="Trazado 41805" d="M4502.605,2676.838a.75.75,0,0,1-.158-.018.732.732,0,0,1-.555-.872c1.3-5.854,2.209-11.958,3.089-17.86.738-4.956,1.5-10.079,2.492-15.041a.73.73,0,1,1,1.431.287c-.985,4.925-1.745,10.031-2.48,14.969-.882,5.928-1.795,12.057-3.106,17.962A.732.732,0,0,1,4502.605,2676.838Z" transform="translate(-4501.875 -2642.462)" fill="#463b39"/>
        </g>
        <g id="Grupo_16217" data-name="Grupo 16217" transform="translate(283.747 194.875)">
          <path id="Trazado_41806" data-name="Trazado 41806" d="M4580.639,2672.544a.73.73,0,0,1-.7-.52c-1.38-4.6-3.839-19.174-4.217-24.193-.2-2.626-.358-5.3-.511-7.887-.45-7.56-.914-15.379-2.419-22.9l-.108-.544c-1.164-5.83-2.48-12.438-6.574-16.872-3.065-3.32-7.3-5.185-11.4-6.987-1.649-.726-3.354-1.475-4.971-2.314a.729.729,0,1,1,.671-1.295c1.577.816,3.259,1.557,4.888,2.273,4.234,1.863,8.612,3.79,11.883,7.333,4.372,4.737,5.732,11.558,6.933,17.577l.108.542c1.524,7.624,1.992,15.493,2.444,23.1.153,2.581.312,5.249.509,7.865.365,4.841,2.83,19.448,4.16,23.882a.731.731,0,0,1-.489.909A.758.758,0,0,1,4580.639,2672.544Z" transform="translate(-4549.347 -2588.946)" fill="#463b39"/>
        </g>
        <g id="Grupo_16218" data-name="Grupo 16218" transform="translate(291.372 236.433)">
          <path id="Trazado_41807" data-name="Trazado 41807" d="M4563.378,2676.947a.73.73,0,0,1-.721-.627c-.3-2.068-.652-4.418-1.036-6.942-1.609-10.589-3.612-23.768-3.612-32.492a.73.73,0,0,1,1.46,0c0,8.614,1.993,21.733,3.594,32.274.384,2.527.742,4.882,1.037,6.955a.729.729,0,0,1-.619.825A.751.751,0,0,1,4563.378,2676.947Z" transform="translate(-4558.009 -2636.156)" fill="#463b39"/>
        </g>
        <g id="Grupo_16219" data-name="Grupo 16219" transform="translate(278.765 236.707)">
          <path id="Trazado_41808" data-name="Trazado 41808" d="M4544.419,2677.3a.781.781,0,0,1-.128-.011.73.73,0,0,1-.592-.845c1.535-8.7,11.44-37.434,12.51-39.573a.729.729,0,1,1,1.3.652c-1.039,2.079-10.915,30.884-12.378,39.173A.73.73,0,0,1,4544.419,2677.3Z" transform="translate(-4543.688 -2636.468)" fill="#463b39"/>
        </g>
        <g id="Grupo_16220" data-name="Grupo 16220" transform="translate(226.866 222.953)">
          <path id="Trazado_41809" data-name="Trazado 41809" d="M4485.46,2675.429a.7.7,0,0,1-.121-.01.729.729,0,0,1-.6-.84c.221-1.323.585-3.176,1.01-5.32,1.271-6.445,3.013-15.272,2.71-19.2a56.919,56.919,0,0,0-1.074-6.783c-.321-1.606-.653-3.267-.881-4.937a74.159,74.159,0,0,1,.12-16.845.73.73,0,1,1,1.45.162,72.738,72.738,0,0,0-.125,16.486c.222,1.625.549,3.263.866,4.848a58.457,58.457,0,0,1,1.1,6.958c.316,4.128-1.447,13.068-2.735,19.6-.421,2.134-.784,3.976-1,5.278A.731.731,0,0,1,4485.46,2675.429Z" transform="translate(-4484.729 -2620.843)" fill="#463b39"/>
        </g>
        <g id="Grupo_16221" data-name="Grupo 16221" transform="translate(252.52 206.368)">
          <path id="Trazado_41810" data-name="Trazado 41810" d="M4520.755,2605.137a11.944,11.944,0,0,1-6.557-1.8.729.729,0,1,1,.809-1.214c2.94,1.958,7.647,2.095,11.193.322a.729.729,0,1,1,.652,1.3A13.781,13.781,0,0,1,4520.755,2605.137Z" transform="translate(-4513.872 -2602.002)" fill="#463b39"/>
        </g>
        <g id="Grupo_16222" data-name="Grupo 16222" transform="translate(243.439 169.664)">
          <path id="Trazado_41811" data-name="Trazado 41811" d="M4514.841,2580.084a17.611,17.611,0,0,1-5.73-.889c-2.691-1-7.467-11.05-4.741-18.413a.729.729,0,1,1,1.368.506c-2.475,6.689,1.967,15.83,3.879,16.538,2.479.919,7.091,1.174,9.323.126a.729.729,0,1,1,.62,1.32A11.714,11.714,0,0,1,4514.841,2580.084Z" transform="translate(-4503.557 -2560.306)" fill="#463b39"/>
        </g>
        <g id="Grupo_16223" data-name="Grupo 16223" transform="translate(245.163 157.26)">
          <path id="Trazado_41812" data-name="Trazado 41812" d="M4506.246,2553.249l-.054,0a.729.729,0,0,1-.676-.78,15.282,15.282,0,0,1,1.619-5.652l.084-.18a.73.73,0,0,1,1.321.621l-.088.184a13.971,13.971,0,0,0-1.481,5.132A.729.729,0,0,1,4506.246,2553.249Z" transform="translate(-4505.515 -2546.215)" fill="#463b39"/>
        </g>
        <g id="Grupo_16224" data-name="Grupo 16224" transform="translate(247.878 168.042)">
          <path id="Trazado_41813" data-name="Trazado 41813" d="M4510.242,2566.676a.73.73,0,0,1-.65-.4,4.869,4.869,0,0,0-.292-.464,2.95,2.95,0,0,1-.693-1.884,2.045,2.045,0,0,1,.763-1.225,2.653,2.653,0,0,0,.292-.308,4.837,4.837,0,0,0,.654-3.083.73.73,0,0,1,1.439-.24,6.2,6.2,0,0,1-.82,4.036,2.927,2.927,0,0,1-.549.644.662.662,0,0,0,.124,1.243,5.943,5.943,0,0,1,.381.617.731.731,0,0,1-.648,1.063Z" transform="translate(-4508.6 -2558.463)" fill="#463b39"/>
        </g>
        <g id="Grupo_16225" data-name="Grupo 16225" transform="translate(254.386 164.695)">
          <path id="Trazado_41814" data-name="Trazado 41814" d="M4521.553,2557.072a.737.737,0,0,1-.381-.107,7.207,7.207,0,0,0-4.35-.786.73.73,0,1,1-.2-1.446,8.691,8.691,0,0,1,5.312.987.73.73,0,0,1-.382,1.352Z" transform="translate(-4515.992 -2554.661)" fill="#463b39"/>
        </g>
        <g id="Grupo_16226" data-name="Grupo 16226" transform="translate(246.007 162.6)">
          <path id="Trazado_41815" data-name="Trazado 41815" d="M4509.908,2554.919a.733.733,0,0,1-.441-.149,5.462,5.462,0,0,0-2.324-1.031.729.729,0,0,1-.667-.787.716.716,0,0,1,.787-.667,6.8,6.8,0,0,1,3.087,1.323.73.73,0,0,1-.442,1.311Z" transform="translate(-4506.474 -2552.281)" fill="#463b39"/>
        </g>
        <g id="Grupo_16227" data-name="Grupo 16227" transform="translate(247.117 179.498)">
          <path id="Trazado_41816" data-name="Trazado 41816" d="M4511.6,2573.776a6.217,6.217,0,0,1-3.555-.972.73.73,0,0,1,.837-1.2c1.5,1.051,4.167.842,5.877.036a.73.73,0,0,1,.623,1.321A9.182,9.182,0,0,1,4511.6,2573.776Z" transform="translate(-4507.734 -2571.477)" fill="#463b39"/>
        </g>
        <g id="Grupo_16228" data-name="Grupo 16228" transform="translate(245.609 150.65)">
          <path id="Trazado_41817" data-name="Trazado 41817" d="M4506.752,2546a.723.723,0,0,1-.294-.062.73.73,0,0,1-.375-.962c1.2-2.731,2.2-4.639,5.049-6.181a.729.729,0,1,1,.7,1.282c-2.365,1.28-3.195,2.723-4.409,5.487A.731.731,0,0,1,4506.752,2546Z" transform="translate(-4506.022 -2538.706)" fill="#463b39"/>
        </g>
        <g id="Grupo_16229" data-name="Grupo 16229" transform="translate(253.01 142.484)">
          <path id="Trazado_41818" data-name="Trazado 41818" d="M4515.16,2537.076a.875.875,0,0,1-.107-.008.73.73,0,0,1-.616-.829c.606-4.08,6.168-5.9,8.841-6.774a.729.729,0,1,1,.454,1.386c-2.4.784-7.379,2.415-7.852,5.6A.73.73,0,0,1,4515.16,2537.076Z" transform="translate(-4514.429 -2529.428)" fill="#463b39"/>
        </g>
        <g id="Grupo_16230" data-name="Grupo 16230" transform="translate(240.437 140.408)">
          <path id="Trazado_41819" data-name="Trazado 41819" d="M4503.429,2566.522a.747.747,0,0,1-.179-.022c-3.485-.872-3.279-9.75-2.91-12.184,1.588-10.5,8.353-28.056,23.57-27.217a.729.729,0,0,1,.689.768.74.74,0,0,1-.769.689c-14.2-.769-20.534,15.967-22.048,25.979-.491,3.243-.048,10.08,1.822,10.549a.73.73,0,0,1-.176,1.438Z" transform="translate(-4500.146 -2527.07)" fill="#463b39"/>
        </g>
        <g id="Grupo_16231" data-name="Grupo 16231" transform="translate(253.934 150.97)">
          <path id="Trazado_41820" data-name="Trazado 41820" d="M4529.9,2558.949a.732.732,0,0,1-.321-.075c-3.994-1.965-5.729-5.713-7.006-9.471-.149-.44-.294-.885-.438-1.33-1.134-3.5-2.208-6.813-6.063-7.559a.73.73,0,0,1,.277-1.433c4.7.909,5.958,4.79,7.176,8.542.141.437.283.876.43,1.31,1.361,4,2.948,7,6.269,8.631a.73.73,0,0,1-.323,1.385Z" transform="translate(-4515.479 -2539.068)" fill="#463b39"/>
        </g>
        <g id="Grupo_16232" data-name="Grupo 16232" transform="translate(265.728 140.17)">
          <path id="Trazado_41821" data-name="Trazado 41821" d="M4547.178,2582.3a.73.73,0,0,1-.328-1.382c2.185-1.093,5.78-3.62,5.314-8.274a24.7,24.7,0,0,0-1.537-5.729,31.98,31.98,0,0,1-1.454-4.925,77.958,77.958,0,0,1-.911-8.441c-.393-5.554-.766-10.8-3.44-15.77a23.22,23.22,0,0,0-5.4-5.934c-2.034-1.743-5.979-4.49-9.58-3.29a.73.73,0,0,1-.46-1.385c4.275-1.426,8.723,1.622,10.991,3.566a24.434,24.434,0,0,1,5.738,6.351c2.825,5.247,3.225,10.9,3.612,16.359a76.675,76.675,0,0,0,.892,8.282,31,31,0,0,0,1.393,4.7,26.044,26.044,0,0,1,1.614,6.071c.411,4.1-1.761,7.549-6.113,9.724A.732.732,0,0,1,4547.178,2582.3Z" transform="translate(-4528.877 -2526.8)" fill="#463b39"/>
        </g>
        <g id="Grupo_16233" data-name="Grupo 16233" transform="translate(267.39 165.641)">
          <path id="Trazado_41822" data-name="Trazado 41822" d="M4539.117,2584.478a.73.73,0,0,1-.361-.1c-.482-.276-.958-.523-1.421-.764a11.578,11.578,0,0,1-4.519-3.439c-2.692-3.7-2.131-8.354-1.636-12.458.151-1.251.293-2.433.355-3.579a27.8,27.8,0,0,0-.2-4.162c-.113-1.145-.229-2.329-.229-3.513a.73.73,0,0,1,1.46,0c0,1.113.113,2.26.221,3.372a29.159,29.159,0,0,1,.207,4.38c-.063,1.2-.216,2.458-.363,3.678-.486,4.025-.988,8.188,1.367,11.425a10.29,10.29,0,0,0,4.013,3c.48.25.973.506,1.472.792a.73.73,0,0,1-.363,1.364Z" transform="translate(-4530.766 -2555.735)" fill="#463b39"/>
        </g>
        <g id="Grupo_16234" data-name="Grupo 16234" transform="translate(274.434 193.483)">
          <path id="Trazado_41823" data-name="Trazado 41823" d="M4543.8,2591.317a5.385,5.385,0,0,1-3.551-1.29,6.191,6.191,0,0,0-.863-.623,1.1,1.1,0,0,1-.619-1.183v-.126a.729.729,0,1,1,1.459,0v.113a7.74,7.74,0,0,1,.958.7c2.146,1.788,4.67.76,7.287-.549a.729.729,0,1,1,.651,1.3A12.379,12.379,0,0,1,4543.8,2591.317Zm-3.572-2.911h0Z" transform="translate(-4538.768 -2587.365)" fill="#463b39"/>
        </g>
        <g id="Grupo_16235" data-name="Grupo 16235" transform="translate(276.873 192.264)">
          <path id="Trazado_41824" data-name="Trazado 41824" d="M4545.831,2588.55a8.519,8.519,0,0,1-3.89-1.189.729.729,0,1,1,.653-1.3c2.281,1.142,3.226,1.342,5.542.57a.73.73,0,0,1,.46,1.385A8.724,8.724,0,0,1,4545.831,2588.55Z" transform="translate(-4541.538 -2585.98)" fill="#463b39"/>
        </g>
        <g id="Grupo_16236" data-name="Grupo 16236" transform="translate(264.789 194.246)">
          <path id="Trazado_41825" data-name="Trazado 41825" d="M4531.476,2634.973a.73.73,0,0,1-.48-1.279c4.8-4.2,2.556-8.591-.042-13.675-1.692-3.312-3.441-6.736-3.1-10.242a25.782,25.782,0,0,1,4.379-12.211c.5-.792,1.035-1.542,1.553-2.266,1.439-2.015,2.8-3.917,3.222-6.459a.73.73,0,0,1,1.44.24c-.479,2.875-2,5.006-3.476,7.068-.5.707-1.028,1.439-1.507,2.2a24.469,24.469,0,0,0-4.159,11.574c-.3,3.081,1.351,6.312,2.946,9.436,2.636,5.157,5.361,10.49-.3,15.438A.724.724,0,0,1,4531.476,2634.973Z" transform="translate(-4527.81 -2588.231)" fill="#463b39"/>
        </g>
        <g id="Grupo_16237" data-name="Grupo 16237" transform="translate(271.842 195.617)">
          <path id="Trazado_41826" data-name="Trazado 41826" d="M4536.553,2647.052a.628.628,0,0,1-.082-.005.729.729,0,0,1-.644-.805c.529-4.76,4.07-7.953,7.5-11.042,3.555-3.205,6.912-6.232,7.292-10.892.417-5.1-1.083-10.245-2.533-15.223-1.774-6.091-3.609-12.391-2.02-18.743a.73.73,0,1,1,1.416.355c-1.493,5.968.206,11.8,2,17.979,1.488,5.105,3.025,10.386,2.587,15.75-.427,5.237-4.159,8.6-7.769,11.857-3.371,3.04-6.554,5.911-7.022,10.12A.731.731,0,0,1,4536.553,2647.052Z" transform="translate(-4535.822 -2589.789)" fill="#463b39"/>
        </g>
        <g id="Grupo_16238" data-name="Grupo 16238" transform="translate(267.267 239.528)">
          <path id="Trazado_41827" data-name="Trazado 41827" d="M4531.356,2651.5a.73.73,0,0,1-.73-.73,13.2,13.2,0,0,1,5.152-10.938.73.73,0,1,1,.912,1.14,11.82,11.82,0,0,0-4.6,9.8A.73.73,0,0,1,4531.356,2651.5Z" transform="translate(-4530.626 -2639.672)" fill="#463b39"/>
        </g>
        <g id="Grupo_16239" data-name="Grupo 16239" transform="translate(157.995 169.3)">
          <path id="Trazado_41828" data-name="Trazado 41828" d="M4420.84,2587.848a.73.73,0,0,1-.73-.73l0-1.1c.02-4.776.041-10.188-2.868-13.825a14.907,14.907,0,0,0-2.9-2.528,16.058,16.058,0,0,1-3.15-2.768,25.981,25.981,0,0,1-2.856-4.667c-.029-.058-.067-.148-.111-.256-.027-.068-.08-.2-.14-.328a8.816,8.816,0,0,0-.134,2.027l0,.248a10,10,0,0,0,1.367,5.36,8.994,8.994,0,0,0,.854.949,4.173,4.173,0,0,1,1.562,3.271.73.73,0,1,1-1.459,0,2.8,2.8,0,0,0-1.137-2.243,10.121,10.121,0,0,1-.986-1.1,11.228,11.228,0,0,1-1.659-6.236l0-.231c-.016-1.236-.042-3.306,1.258-3.74,1.082-.363,1.623.97,1.827,1.472.026.065.047.119.065.155a24.675,24.675,0,0,0,2.69,4.407,14.741,14.741,0,0,0,2.875,2.5,16.118,16.118,0,0,1,3.176,2.792c3.231,4.039,3.208,9.973,3.188,14.742l0,1.092A.73.73,0,0,1,4420.84,2587.848Z" transform="translate(-4406.49 -2559.892)" fill="#463b39"/>
        </g>
        <g id="Grupo_16240" data-name="Grupo 16240" transform="translate(109.754 139.998)">
          <path id="Trazado_41829" data-name="Trazado 41829" d="M4365.583,2601.055a.731.731,0,0,1-.726-.65c-.021-.2-2.19-19.721-5.437-35.62a248.389,248.389,0,0,0-7.692-28.688.727.727,0,0,1,.109-.684.71.71,0,0,1,.632-.284,84.765,84.765,0,0,0,20.213-1.4,115.512,115.512,0,0,0,21.16-7.062.73.73,0,0,1,.984.4,190.436,190.436,0,0,1,7.7,27.531.729.729,0,1,1-1.429.292,194.739,194.739,0,0,0-7.366-26.577,115.385,115.385,0,0,1-20.759,6.847,86.652,86.652,0,0,1-19.522,1.477,255.6,255.6,0,0,1,7.4,27.854c2.922,14.307,4.973,31.526,5.383,35.089,2.935-.067,15.047-.447,24.032-2.282a56.5,56.5,0,0,0,16.271-5.886c-.222-2.036-1.171-10.5-2.6-20.088a.73.73,0,1,1,1.444-.216c1.639,11,2.648,20.522,2.659,20.616a.73.73,0,0,1-.337.694,55.26,55.26,0,0,1-17.145,6.31c-10.379,2.12-24.82,2.323-24.964,2.326Z" transform="translate(-4351.687 -2526.605)" fill="#463b39"/>
        </g>
        <g id="Grupo_16241" data-name="Grupo 16241" transform="translate(201.626 195.19)">
          <path id="Trazado_41830" data-name="Trazado 41830" d="M4456.785,2615.449a.73.73,0,0,1-.084-1.454c1.488-.176,3.221-1.411,4.749-2.5.649-.462,1.261-.9,1.834-1.243a104.806,104.806,0,0,0,14.7-10.432l.565-.489c4.5-3.878,8.747-7.542,14.818-8.778.607-.123,1.217-.311,1.863-.51a13.067,13.067,0,0,1,3.742-.739.73.73,0,0,1-.005,1.46h-.04a11.326,11.326,0,0,0-3.268.674c-.651.2-1.324.407-2,.546-5.7,1.159-9.808,4.7-14.157,8.453l-.566.488a105.988,105.988,0,0,1-14.9,10.578c-.526.315-1.115.735-1.74,1.18-1.67,1.191-3.565,2.542-5.425,2.761A.727.727,0,0,1,4456.785,2615.449Z" transform="translate(-4456.056 -2589.304)" fill="#463b39"/>
        </g>
        <g id="Grupo_16242" data-name="Grupo 16242" transform="translate(195.264 227.342)">
          <path id="Trazado_41831" data-name="Trazado 41831" d="M4452.011,2638.142a12.2,12.2,0,0,1-2.609-.255.73.73,0,0,1,.313-1.425c7.983,1.753,24.889-6.791,31.793-10.545a.73.73,0,0,1,.7,1.283C4475.822,2630.67,4461.024,2638.142,4452.011,2638.142Z" transform="translate(-4448.829 -2625.829)" fill="#463b39"/>
        </g>
        <g id="Grupo_16243" data-name="Grupo 16243" transform="translate(171.884 195.961)">
          <path id="Trazado_41832" data-name="Trazado 41832" d="M4453.174,2615.834a.728.728,0,0,1-.276-.055,47.042,47.042,0,0,1-8.147-4.715l-1.221-.816c-.888-.59-1.782-1.168-2.677-1.746a67.136,67.136,0,0,1-9.97-7.358,62.688,62.688,0,0,1-5.583-6.313c-.921-1.141-1.873-2.321-2.851-3.441a.73.73,0,1,1,1.1-.961c1,1.143,1.959,2.334,2.888,3.487a61.862,61.862,0,0,0,5.451,6.17,66.1,66.1,0,0,0,9.759,7.191c.9.582,1.8,1.163,2.693,1.756l1.227.82a45.911,45.911,0,0,0,7.886,4.576.73.73,0,0,1-.276,1.406Z" transform="translate(-4422.268 -2590.18)" fill="#463b39"/>
        </g>
        <g id="Grupo_16244" data-name="Grupo 16244" transform="translate(165.578 196.608)">
          <path id="Trazado_41833" data-name="Trazado 41833" d="M4445.291,2633.605a.721.721,0,0,1-.276-.055c-7.739-3.169-13.057-9.915-18.2-16.439-1.624-2.059-3.158-4-4.765-5.842-2.12-2.426-3.878-4.6-5.373-6.651-.1-.133-.234-.281-.38-.443a3.232,3.232,0,0,1-1.174-2.44,13.131,13.131,0,0,1,2.268-6.176c.371-.489.817-.976,1.249-1.447a10.287,10.287,0,0,0,2.03-2.745.73.73,0,0,1,1.352.553,11.34,11.34,0,0,1-2.307,3.177c-.428.468-.832.908-1.163,1.344a11.76,11.76,0,0,0-1.985,5.5c-.045.307.49.9.81,1.25.186.205.356.4.479.563,1.47,2.015,3.2,4.157,5.292,6.549,1.632,1.867,3.249,3.917,4.812,5.9,5.025,6.376,10.222,12.968,17.605,15.991a.73.73,0,0,1-.275,1.406Z" transform="translate(-4415.105 -2590.915)" fill="#463b39"/>
        </g>
        <g id="Grupo_16245" data-name="Grupo 16245" transform="translate(40.333 58.286)">
          <path id="Trazado_41834" data-name="Trazado 41834" d="M4312.825,2534.01a.73.73,0,0,1-.366-.1,109.635,109.635,0,0,1-31-27.416l-.922-1.192c-3.109-4-6.325-8.144-7.118-13.338-1.513-9.9.13-20.152,1.719-30.068l.239-1.5a101.309,101.309,0,0,1,4.239-16.967c.418-1.226,2.61-7.446,4.635-9.442a.73.73,0,1,1,1.025,1.04c-1.389,1.37-3.173,5.636-4.279,8.875a99.75,99.75,0,0,0-4.179,16.725l-.239,1.5c-1.571,9.8-3.2,19.94-1.718,29.616.736,4.818,3.834,8.807,6.828,12.664l.927,1.2a108.119,108.119,0,0,0,30.572,27.043.731.731,0,0,1-.368,1.361Z" transform="translate(-4272.825 -2433.778)" fill="#463b39"/>
        </g>
        <g id="Grupo_16246" data-name="Grupo 16246" transform="translate(59.05 95.258)">
          <path id="Trazado_41835" data-name="Trazado 41835" d="M4323.546,2531.479a.729.729,0,0,1-.5-.2,29.25,29.25,0,0,0-2.859-2.281,26.215,26.215,0,0,1-3.542-2.934,154.79,154.79,0,0,1-16.11-20.3c-.438-.639-.935-1.314-1.454-2.019-1.979-2.687-4.223-5.733-4.752-8.833-.707-4.135.282-8.206,1.239-12.143a53.339,53.339,0,0,0,1.272-6.342.73.73,0,0,1,1.45.167,54.407,54.407,0,0,1-1.3,6.52c-.922,3.793-1.874,7.715-1.219,11.553.471,2.759,2.606,5.656,4.487,8.214.53.718,1.037,1.408,1.483,2.06a153.4,153.4,0,0,0,15.961,20.116,25.329,25.329,0,0,0,3.352,2.767,30.536,30.536,0,0,1,3,2.4.73.73,0,0,1-.5,1.26Z" transform="translate(-4294.087 -2475.779)" fill="#463b39"/>
        </g>
        <g id="Grupo_16247" data-name="Grupo 16247" transform="translate(87.927 149.66)">
          <path id="Trazado_41836" data-name="Trazado 41836" d="M4344.921,2546.473a7.225,7.225,0,0,1-1.042-.44,12.518,12.518,0,0,1-1.631-1.289,10.793,10.793,0,0,0-1.456-1.153,27.229,27.229,0,0,0-6.424-2.187,29.172,29.172,0,0,1-7.125-2.469.73.73,0,0,1,.759-1.247,28.4,28.4,0,0,0,6.734,2.3,27.47,27.47,0,0,1,6.819,2.355,11.966,11.966,0,0,1,1.66,1.306,11.235,11.235,0,0,0,1.438,1.145c.078.041.448.183.745.3l-.218.7Z" transform="translate(-4326.892 -2537.581)" fill="#463b39"/>
        </g>
        <g id="Grupo_16248" data-name="Grupo 16248" transform="translate(98.67 157.729)">
          <path id="Trazado_41837" data-name="Trazado 41837" d="M4352.918,2559.841a.728.728,0,0,1-.636-.372c-.6-1.066-2.756-1.857-4.489-2.493a21.744,21.744,0,0,1-2.213-.9c-1.841-.937-3.026-2.825-4.073-4.491-.25-.4-.493-.785-.737-1.144-.14-.207-.308-.417-.479-.63a5.616,5.616,0,0,1-1.159-1.943.856.856,0,0,1,.25-.888c.486-.427,1.224-.3,3.433.61.1.043.182.075.218.088.136.037.338.1.564.167a17.146,17.146,0,0,0,3.559.786.729.729,0,0,1,.681.776.742.742,0,0,1-.775.68,18.3,18.3,0,0,1-3.885-.846c-.217-.065-.409-.123-.57-.169-.035-.009-.161-.057-.346-.133-.477-.2-.853-.341-1.15-.448.1.137.212.273.321.407.2.246.387.488.548.724.253.372.505.775.764,1.188.992,1.579,2.018,3.212,3.5,3.967a21.139,21.139,0,0,0,2.055.827c2.06.755,4.4,1.611,5.259,3.147a.729.729,0,0,1-.278.994A.721.721,0,0,1,4352.918,2559.841Z" transform="translate(-4339.096 -2546.747)" fill="#463b39"/>
        </g>
        <g id="Grupo_16249" data-name="Grupo 16249" transform="translate(97.622 164.643)">
          <path id="Trazado_41838" data-name="Trazado 41838" d="M4352.229,2562.483a.7.7,0,0,1-.2-.028c-.673-.188-1.355-.367-2.037-.547-4.37-1.15-8.888-2.338-11.928-6.119a.73.73,0,1,1,1.137-.916c2.739,3.407,7.021,4.533,11.162,5.623.689.181,1.377.363,2.059.553a.73.73,0,0,1-.2,1.432Z" transform="translate(-4337.906 -2554.602)" fill="#463b39"/>
        </g>
        <g id="Grupo_16250" data-name="Grupo 16250" transform="translate(94.299 166.942)">
          <path id="Trazado_41839" data-name="Trazado 41839" d="M4351.8,2564.177a.686.686,0,0,1-.119-.01,39.615,39.615,0,0,0-4.2-.374,24.642,24.642,0,0,1-7.412-1.16,12.947,12.947,0,0,1-3.752-2.575,19.916,19.916,0,0,0-1.87-1.511.73.73,0,1,1,.817-1.209,21.422,21.422,0,0,1,2.013,1.622,11.925,11.925,0,0,0,3.311,2.31,23.556,23.556,0,0,0,6.972,1.066,41.38,41.38,0,0,1,4.355.392.73.73,0,0,1-.117,1.45Z" transform="translate(-4334.13 -2557.213)" fill="#463b39"/>
        </g>
        <g id="Grupo_16251" data-name="Grupo 16251" transform="translate(92.34 169.76)">
          <path id="Trazado_41840" data-name="Trazado 41840" d="M4340.227,2565.983a5.922,5.922,0,0,1-1.605-.2,11.707,11.707,0,0,1-3.929-2.331,15.118,15.118,0,0,0-2.388-1.652.73.73,0,1,1,.661-1.3,16.592,16.592,0,0,1,2.63,1.805,10.465,10.465,0,0,0,3.418,2.074,10.139,10.139,0,0,0,4.532-.359,18.639,18.639,0,0,1,3.03-.506.747.747,0,0,1,.765.694.731.731,0,0,1-.694.765,17.42,17.42,0,0,0-2.785.472A17.166,17.166,0,0,1,4340.227,2565.983Z" transform="translate(-4331.905 -2560.415)" fill="#463b39"/>
        </g>
        <g id="Grupo_16252" data-name="Grupo 16252" transform="translate(79.802 157.219)">
          <path id="Trazado_41841" data-name="Trazado 41841" d="M4334.813,2564.78c-2.9,0-5.04-2.816-6.666-4.952-.36-.473-.7-.923-1.029-1.312a14.084,14.084,0,0,0-1.029-1.17c-.152-.11-.152-.11-.657-.815l-1.232-1.724c-1.264-1.776-3.9-5.472-6.259-7.336a.729.729,0,1,1,.9-1.146c2.529,1.995,5.142,5.665,6.546,7.635l1.231,1.722c.218.306.318.447.37.518a10.673,10.673,0,0,1,1.246,1.378c.341.407.7.874,1.072,1.365,1.812,2.381,3.868,5.079,6.553,4.2a.73.73,0,0,1,.452,1.387A4.791,4.791,0,0,1,4334.813,2564.78Z" transform="translate(-4317.662 -2546.168)" fill="#463b39"/>
        </g>
        <g id="Grupo_16253" data-name="Grupo 16253" transform="translate(81.522 150.403)">
          <path id="Trazado_41842" data-name="Trazado 41842" d="M4320.345,2547.835a.73.73,0,0,1-.516-1.246,26.408,26.408,0,0,0,5.511-7.761.729.729,0,0,1,1.3.652,27.675,27.675,0,0,1-5.785,8.142A.726.726,0,0,1,4320.345,2547.835Z" transform="translate(-4319.615 -2538.424)" fill="#463b39"/>
        </g>
        <g id="Grupo_16254" data-name="Grupo 16254" transform="translate(72.551 142.87)">
          <path id="Trazado_41843" data-name="Trazado 41843" d="M4310.155,2540.224a.73.73,0,0,1-.406-1.337c1.763-1.175,5.174-6.106,6.156-8.562a.73.73,0,0,1,1.355.542c-.979,2.448-4.517,7.776-6.7,9.233A.716.716,0,0,1,4310.155,2540.224Z" transform="translate(-4309.424 -2529.867)" fill="#463b39"/>
        </g>
        <g id="Grupo_16255" data-name="Grupo 16255" transform="translate(92.711 71.095)">
          <path id="Trazado_41844" data-name="Trazado 41844" d="M4333.055,2505.879a.73.73,0,0,1-.111-1.451c1.618-.25,3.316-.508,5.077-.776,13.542-2.059,30.4-4.62,42.312-8.279,5.1-1.566,10.938-4.178,10.831-10.533-.134-7.931-1.827-15.645-3.464-22.146-.465-1.848-1.575-5.549-2.465-8.524-.742-2.471-1.327-4.423-1.442-4.958a.73.73,0,1,1,1.427-.308c.1.48.739,2.6,1.413,4.848.9,2.988,2.008,6.706,2.482,8.586,1.659,6.58,3.372,14.4,3.509,22.477.125,7.411-6.71,10.37-11.862,11.953-12.02,3.689-28.932,6.26-42.521,8.326-1.76.268-3.457.526-5.072.776A.818.818,0,0,1,4333.055,2505.879Z" transform="translate(-4332.326 -2448.329)" fill="#463b39"/>
        </g>
        <g id="Grupo_16256" data-name="Grupo 16256" transform="translate(90.981 83.024)">
          <path id="Trazado_41845" data-name="Trazado 41845" d="M4332.724,2507.506a.635.635,0,0,1-.091-.006.729.729,0,0,1-.633-.814,35.906,35.906,0,0,0-.926-6.5c-.825-4.288-.875-4.886-.447-5.328.314-.325,1.051-.541,10.463-2.79,8.255-1.973,19.563-4.673,23.209-6.139a49.335,49.335,0,0,1,5.226-1.841,5.471,5.471,0,0,1,.705-.121c.279-.034.934-.115,1.04-.259.422-.762-.159-2.943-.438-3.99-.067-.251-.125-.474-.169-.657l-.134-.566a158.974,158.974,0,0,0-4.293-15.642.73.73,0,1,1,1.378-.481,160.182,160.182,0,0,1,4.334,15.785l.134.566c.042.173.1.382.161.619.511,1.921.956,3.9.3,5.074a2.6,2.6,0,0,1-2.135,1,3.982,3.982,0,0,0-.5.078,48.315,48.315,0,0,0-5.071,1.789c-3.748,1.506-15.115,4.222-23.415,6.2-4.136.988-8.4,2.006-9.606,2.388.05.741.4,2.546.684,4.035.54,2.808,1.1,5.712.941,6.959A.731.731,0,0,1,4332.724,2507.506Z" transform="translate(-4330.361 -2461.881)" fill="#463b39"/>
        </g>
        <g id="Grupo_16257" data-name="Grupo 16257" transform="translate(70.757 126.26)">
          <path id="Trazado_41846" data-name="Trazado 41846" d="M4310.218,2516.55a8.115,8.115,0,0,1-2.308-.329.729.729,0,1,1,.411-1.4c2.558.752,5-.208,7.6-1.224a23.449,23.449,0,0,1,4.3-1.377c1.089-.2,2.345-.317,3.675-.445a34.472,34.472,0,0,0,5.21-.754.73.73,0,1,1,.379,1.409,35.34,35.34,0,0,1-5.449.8c-1.3.125-2.527.243-3.556.428a22.043,22.043,0,0,0-4.031,1.3A17.359,17.359,0,0,1,4310.218,2516.55Z" transform="translate(-4307.386 -2510.998)" fill="#463b39"/>
        </g>
        <g id="Grupo_16258" data-name="Grupo 16258" transform="translate(70.054 125.116)">
          <path id="Trazado_41847" data-name="Trazado 41847" d="M4307.317,2515.323a.73.73,0,0,1-.255-1.414,95.588,95.588,0,0,0,9.007-4.129.73.73,0,0,1,.672,1.3,97.62,97.62,0,0,1-9.168,4.2A.734.734,0,0,1,4307.317,2515.323Z" transform="translate(-4306.588 -2509.699)" fill="#463b39"/>
        </g>
        <g id="Grupo_16259" data-name="Grupo 16259" transform="translate(69.249 121.868)">
          <path id="Trazado_41848" data-name="Trazado 41848" d="M4306.4,2512.946a.729.729,0,0,1-.255-1.413,26.735,26.735,0,0,0,4.574-2.44,22.247,22.247,0,0,1,6.42-3.066.73.73,0,0,1,.337,1.42,20.846,20.846,0,0,0-5.991,2.888,28.228,28.228,0,0,1-4.83,2.565A.743.743,0,0,1,4306.4,2512.946Z" transform="translate(-4305.674 -2506.008)" fill="#463b39"/>
        </g>
        <g id="Grupo_16260" data-name="Grupo 16260" transform="translate(69.247 118.994)">
          <path id="Trazado_41849" data-name="Trazado 41849" d="M4306.4,2510.776a.729.729,0,0,1-.445-1.307c.767-.591,1.525-1.249,2.258-1.886.924-.8,1.88-1.635,2.886-2.358a15.093,15.093,0,0,1,3.938-1.8c.6-.21,1.175-.407,1.706-.628a.729.729,0,1,1,.56,1.347c-.571.239-1.19.453-1.789.659a14.04,14.04,0,0,0-3.563,1.6c-.951.684-1.882,1.493-2.782,2.274-.749.651-1.522,1.325-2.325,1.942A.727.727,0,0,1,4306.4,2510.776Z" transform="translate(-4305.671 -2502.743)" fill="#463b39"/>
        </g>
        <g id="Grupo_16261" data-name="Grupo 16261" transform="translate(73.066 116.898)">
          <path id="Trazado_41850" data-name="Trazado 41850" d="M4310.738,2505.756a.73.73,0,0,1-.59-1.157c2.807-3.886,6.317-3.864,10.373-3.846.659,0,1.339.007,2.04-.006.972-.019,1.963-.108,2.921-.194.857-.077,1.745-.157,2.634-.188a.715.715,0,0,1,.755.7.729.729,0,0,1-.7.755c-.85.031-1.717.108-2.556.184-.983.088-2,.18-3.025.2-.712.013-1.4.01-2.075.006-3.946-.02-6.814-.037-9.182,3.24A.727.727,0,0,1,4310.738,2505.756Z" transform="translate(-4310.009 -2500.363)" fill="#463b39"/>
        </g>
        <g id="Grupo_16262" data-name="Grupo 16262" transform="translate(103.125 112.822)">
          <path id="Trazado_41851" data-name="Trazado 41851" d="M4347.037,2509.62a.73.73,0,0,1-.729-.73v-.54c0-3.753.01-8.425-2.028-11.484a.73.73,0,1,1,1.214-.81c2.285,3.428,2.279,8.345,2.274,12.3v.537A.729.729,0,0,1,4347.037,2509.62Z" transform="translate(-4344.157 -2495.732)" fill="#463b39"/>
        </g>
        <g id="Grupo_16263" data-name="Grupo 16263" transform="translate(76.451 46.769)">
          <path id="Trazado_41852" data-name="Trazado 41852" d="M4330.783,2439.635a.936.936,0,0,1-.218-.026c-.495-.119-.787-.595-1.03-1.092a13.74,13.74,0,0,0-2.385-2.562,35.072,35.072,0,0,0-3.44-2.423,25.415,25.415,0,0,1-5.066-3.923,25.854,25.854,0,0,1-3.762-6.02c-.315-.621-.624-1.234-.939-1.818a.73.73,0,1,1,1.285-.692c.32.6.636,1.219.956,1.852a24.854,24.854,0,0,0,3.529,5.686,23.92,23.92,0,0,0,4.788,3.69,35.99,35.99,0,0,1,3.583,2.528,15.4,15.4,0,0,1,2.663,2.861,1.258,1.258,0,0,1,.084.15,10.8,10.8,0,0,0,.561-1c.137-.264.265-.51.384-.706l.49-.8c1.749-2.836,3.556-5.769,3.908-8.937.046-.411.062-.845.077-1.285a8.6,8.6,0,0,1,.652-3.554.73.73,0,1,1,1.305.652,7.431,7.431,0,0,0-.5,2.957c-.018.477-.036.947-.085,1.392-.388,3.494-2.369,6.707-4.116,9.54l-.487.792c-.1.17-.214.385-.333.615a5.647,5.647,0,0,1-1.353,1.931A.914.914,0,0,1,4330.783,2439.635Z" transform="translate(-4313.855 -2420.694)" fill="#463b39"/>
        </g>
        <g id="Grupo_16264" data-name="Grupo 16264" transform="translate(73.262 45.438)">
          <path id="Trazado_41853" data-name="Trazado 41853" d="M4319.964,2442.13c-.812,0-1.047-.931-1.188-1.488-.02-.075-.034-.14-.048-.182-.3-.587-.734-1.265-1.158-1.921l-.379-.593c-.546-.865-1.156-1.726-1.8-2.637a37.756,37.756,0,0,1-3.017-4.739c-1.271-2.542-1.718-6.7-2.045-9.73l-.091-.848a.729.729,0,1,1,1.45-.162l.094.855c.315,2.923.745,6.926,1.9,9.233a36.9,36.9,0,0,0,2.9,4.55c.628.886,1.277,1.8,1.844,2.7l.371.58a23.066,23.066,0,0,1,1.258,2.107,1.977,1.977,0,0,1,.127.393q.206-.288.489-.744c.088-.141.158-.251.2-.311.2-.272.4-.6.63-.959.913-1.446,2.049-3.246,3.714-3.6a3.044,3.044,0,0,1,2.373.536.73.73,0,1,1-.81,1.214,1.625,1.625,0,0,0-1.259-.323c-1.063.227-2.058,1.8-2.784,2.953-.243.385-.469.743-.68,1.035-.031.043-.082.125-.146.229C4321.254,2441.327,4320.7,2442.13,4319.964,2442.13Z" transform="translate(-4310.232 -2419.182)" fill="#463b39"/>
        </g>
        <g id="Grupo_16265" data-name="Grupo 16265" transform="translate(96.514 41.707)">
          <path id="Trazado_41854" data-name="Trazado 41854" d="M4342.91,2438.884c-.61,0-1.032-.629-1.938-2.2-.114-.2-.2-.356-.25-.423a7.585,7.585,0,0,0-1.782-1.96,5.472,5.472,0,0,0-1.094-.046.311.311,0,0,0,.123-.07l-.59.056-.731-.065a1.32,1.32,0,0,1,.354-1.084c.408-.369.966-.354,2.139-.232.252.026,1.013.106,2.769,2.551.054.076.175.28.327.545.07.121.175.3.294.5.008-.549-.04-1.141-.087-1.722a14.376,14.376,0,0,1-.073-2.043,37.142,37.142,0,0,1,.719-4.755,37.049,37.049,0,0,0,.686-4.437,35.41,35.41,0,0,0-.067-4.629c-.06-1.04-.122-2.115-.122-3.195a.73.73,0,0,1,1.46,0c0,1.037.061,2.092.119,3.11a37.323,37.323,0,0,1,.067,4.818,38.37,38.37,0,0,1-.71,4.614,36,36,0,0,0-.7,4.568,13.378,13.378,0,0,0,.071,1.831,8.782,8.782,0,0,1-.21,3.724.819.819,0,0,1-.7.542C4342.961,2438.883,4342.936,2438.884,4342.91,2438.884Z" transform="translate(-4336.647 -2414.944)" fill="#463b39"/>
        </g>
        <g id="Grupo_16266" data-name="Grupo 16266" transform="translate(93.139 66.178)">
          <path id="Trazado_41855" data-name="Trazado 41855" d="M4335.419,2488.456a.73.73,0,0,1-.73-.73l0-1.877c.009-2.957.02-6.014-.189-8.948a37.236,37.236,0,0,0-.581-3.986,33.061,33.061,0,0,1-.64-4.855,64.438,64.438,0,0,1,.323-7.455c.182-2.2.369-4.475.333-6.715a48.253,48.253,0,0,0-.606-6.12c-.194-1.373-.4-2.792-.517-4.238a.73.73,0,0,1,1.454-.122c.118,1.4.316,2.8.508,4.154a50.214,50.214,0,0,1,.621,6.3c.037,2.311-.154,4.622-.338,6.858a63.7,63.7,0,0,0-.32,7.287,31.985,31.985,0,0,0,.617,4.64,38.556,38.556,0,0,1,.6,4.146c.213,2.988.2,6.073.192,9.056l0,1.871A.729.729,0,0,1,4335.419,2488.456Z" transform="translate(-4332.813 -2442.743)" fill="#463b39"/>
        </g>
        <g id="Grupo_16267" data-name="Grupo 16267" transform="translate(140.791 118.306)">
          <path id="Trazado_41856" data-name="Trazado 41856" d="M4437.589,2503.521h0l-49.913-.1a.73.73,0,0,1,0-1.46h0l49.912.1a.73.73,0,0,1,0,1.459Z" transform="translate(-4386.947 -2501.962)" fill="#463b39"/>
        </g>
        <g id="Grupo_16268" data-name="Grupo 16268" transform="translate(62.417 118.15)">
          <path id="Trazado_41857" data-name="Trazado 41857" d="M4310.443,2503.268h0l-11.8-.024a.73.73,0,0,1,0-1.46h0l11.8.024a.73.73,0,0,1,0,1.459Z" transform="translate(-4297.912 -2501.785)" fill="#463b39"/>
        </g>
        <g id="Grupo_16269" data-name="Grupo 16269" transform="translate(3.81 118.035)">
          <path id="Trazado_41858" data-name="Trazado 41858" d="M4269.3,2503.187h0l-37.238-.074a.729.729,0,0,1,0-1.459h0l37.238.073a.73.73,0,0,1,0,1.459Z" transform="translate(-4231.333 -2501.654)" fill="#463b39"/>
        </g>
        <g id="Grupo_16270" data-name="Grupo 16270" transform="translate(108.817 150.11)">
          <path id="Trazado_41859" data-name="Trazado 41859" d="M4364.01,2604.358c-.773,0-1.216-.005-1.242-.005a.732.732,0,0,1-.717-.67c-.016-.2-1.658-19.773-4.476-35.754a248.142,248.142,0,0,0-6.917-28.884.73.73,0,1,1,1.39-.445,250.1,250.1,0,0,1,6.963,29.076c2.537,14.383,4.124,31.65,4.437,35.223,2.938.016,15.053-.043,24.084-1.635a54.915,54.915,0,0,0,16.817-5.663.729.729,0,0,1,.744,1.254,55.243,55.243,0,0,1-17.308,5.847C4379.141,2604.224,4367.745,2604.358,4364.01,2604.358Z" transform="translate(-4350.623 -2538.092)" fill="#463b39"/>
        </g>
        <g id="Grupo_16271" data-name="Grupo 16271" transform="translate(103.276 150.255)">
          <path id="Trazado_41860" data-name="Trazado 41860" d="M4357.449,2575.5a.732.732,0,0,1-.705-.541c-.71-2.637-1.421-5.143-2.111-7.445a248.211,248.211,0,0,0-10.24-27.882.73.73,0,0,1,.652-1.031c.02,0,2-.039,5.041-.343a.729.729,0,1,1,.146,1.451c-1.774.179-3.179.267-4.072.31a255.713,255.713,0,0,1,9.87,27.074c.695,2.317,1.41,4.835,2.125,7.486a.731.731,0,0,1-.515.895A.76.76,0,0,1,4357.449,2575.5Z" transform="translate(-4344.328 -2538.256)" fill="#463b39"/>
        </g>
        <g id="Grupo_16272" data-name="Grupo 16272" transform="translate(120.224 138.365)">
          <path id="Trazado_41861" data-name="Trazado 41861" d="M4364.312,2536.095a.73.73,0,0,1-.175-1.438c1.1-.271,2.18-.565,3.221-.876a115.563,115.563,0,0,0,20.438-8.934.728.728,0,0,1,1.016.31c.021.04.487.988,1.273,2.735a.73.73,0,1,1-1.331.6c-.389-.866-.7-1.54-.918-2a115.376,115.376,0,0,1-20.058,8.686c-1.063.317-2.17.618-3.29.9A.747.747,0,0,1,4364.312,2536.095Z" transform="translate(-4363.582 -2524.749)" fill="#463b39"/>
        </g>
        <g id="Grupo_16276" data-name="Grupo 16276" transform="translate(0 110.061)">
          <g id="Grupo_16273" data-name="Grupo 16273">
            <path id="Trazado_41862" data-name="Trazado 41862" d="M4227.834,2500.763a7.433,7.433,0,1,1,7.432,7.339A7.386,7.386,0,0,1,4227.834,2500.763Z" transform="translate(-4227.104 -2492.694)" fill="#d8d6d7" fill-rule="evenodd"/>
            <path id="Trazado_41863" data-name="Trazado 41863" d="M4235.167,2508.732a8.069,8.069,0,1,1,8.162-8.068A8.125,8.125,0,0,1,4235.167,2508.732Zm0-14.678a6.61,6.61,0,1,0,6.7,6.61A6.664,6.664,0,0,0,4235.167,2494.054Z" transform="translate(-4227.005 -2492.595)" fill="#463b39"/>
          </g>
          <g id="Grupo_16274" data-name="Grupo 16274" transform="translate(3.871 4.554)">
            <path id="Trazado_41864" data-name="Trazado 41864" d="M4233.069,2498.6h4.539a.838.838,0,0,1,.838.838v3.79a.838.838,0,0,1-.838.838h-4.539a.838.838,0,0,1-.838-.838v-3.79A.838.838,0,0,1,4233.069,2498.6Z" transform="translate(-4231.501 -2497.867)" fill="#fff" fill-rule="evenodd"/>
            <path id="Trazado_41865" data-name="Trazado 41865" d="M4237.508,2504.694h-4.538a1.57,1.57,0,0,1-1.568-1.568v-3.79a1.57,1.57,0,0,1,1.568-1.568h4.538a1.569,1.569,0,0,1,1.568,1.568v3.79A1.569,1.569,0,0,1,4237.508,2504.694Zm-4.538-5.466a.108.108,0,0,0-.108.108v3.79a.108.108,0,0,0,.108.108h4.538a.109.109,0,0,0,.109-.108v-3.79a.109.109,0,0,0-.109-.108Z" transform="translate(-4231.402 -2497.768)" fill="#463b39"/>
          </g>
          <g id="Grupo_16275" data-name="Grupo 16275" transform="translate(10.538 5.077)">
            <path id="Trazado_41866" data-name="Trazado 41866" d="M4240.761,2499.191a.838.838,0,0,1,.838.838v2.483a.838.838,0,0,1-.838.837s-.956-.375-.956-.837v-2.483C4239.805,2499.566,4240.761,2499.191,4240.761,2499.191Z" transform="translate(-4239.075 -2498.461)" fill="#fff" fill-rule="evenodd"/>
            <path id="Trazado_41867" data-name="Trazado 41867" d="M4240.662,2503.981a.725.725,0,0,1-.267-.051c-.427-.167-1.419-.65-1.419-1.517v-2.483c0-.866.993-1.35,1.42-1.518a.728.728,0,0,1,.266-.05,1.569,1.569,0,0,1,1.568,1.567v2.483A1.57,1.57,0,0,1,4240.662,2503.981Zm-.227-1.692a1.8,1.8,0,0,0,.308.2.11.11,0,0,0,.027-.072v-2.483a.107.107,0,0,0-.028-.073,1.776,1.776,0,0,0-.307.2Z" transform="translate(-4238.976 -2498.362)" fill="#463b39"/>
          </g>
        </g>
        <path id="Trazado_41868" data-name="Trazado 41868" d="M4506.986,2558.79c.124-.672.584-1.149,1.027-1.067s.7.693.575,1.365-.584,1.149-1.026,1.067S4506.861,2559.461,4506.986,2558.79Z" transform="translate(-4260.524 -2390.332)" fill="#463b39" fill-rule="evenodd"/>
        <path id="Trazado_41869" data-name="Trazado 41869" d="M4517.75,2560.416c.128-.67.591-1.145,1.034-1.06s.7.7.568,1.367-.593,1.147-1.034,1.062S4517.62,2561.087,4517.75,2560.416Z" transform="translate(-4261.813 -2390.527)" fill="#463b39" fill-rule="evenodd"/>
        <g id="Grupo_16279" data-name="Grupo 16279" transform="translate(19.481 109.882)">
          <g id="Grupo_16277" data-name="Grupo 16277">
            <path id="Trazado_41870" data-name="Trazado 41870" d="M4249.965,2500.662a7.536,7.536,0,1,1,7.536,7.44A7.489,7.489,0,0,1,4249.965,2500.662Z" transform="translate(-4249.235 -2492.491)" fill="#f3877d" fill-rule="evenodd"/>
            <path id="Trazado_41871" data-name="Trazado 41871" d="M4257.4,2508.733a8.171,8.171,0,1,1,8.264-8.17A8.228,8.228,0,0,1,4257.4,2508.733Zm0-14.882a6.712,6.712,0,1,0,6.805,6.712A6.767,6.767,0,0,0,4257.4,2493.851Z" transform="translate(-4249.136 -2492.392)" fill="#463b39"/>
          </g>
          <g id="Grupo_16278" data-name="Grupo 16278" transform="translate(2.093 4.241)">
            <path id="Trazado_41872" data-name="Trazado 41872" d="M4253.437,2502.881c-1.916.02-.907-1.544-.054-2.642a5.8,5.8,0,0,1,4.411-2.2c3.3.092,6.839,4.281,4.329,4.526s-.82-2.984-4.544-2.793C4254,2499.958,4256.319,2502.852,4253.437,2502.881Z" transform="translate(-4251.613 -2497.309)" fill="#fff" fill-rule="evenodd"/>
            <path id="Trazado_41873" data-name="Trazado 41873" d="M4253.3,2503.512a1.67,1.67,0,0,1-1.655-.792c-.444-.9.286-2.032,1.058-3.027a6.457,6.457,0,0,1,5.008-2.48c2.769.077,5.824,2.688,5.887,4.468a1.461,1.461,0,0,1-1.507,1.514,2.2,2.2,0,0,1-2.455-1.59c-.339-.743-.589-1.283-2.123-1.2-1.367.07-1.495.5-1.706,1.206a2.249,2.249,0,0,1-2.465,1.9h-.042Zm.034-.73h0Zm-.353-.757a1.764,1.764,0,0,0,.346.027h0c.828-.009.883-.189,1.082-.859.252-.846.632-2.124,3.029-2.247,2.527-.134,3.13,1.184,3.525,2.053.3.649.365.8.985.742a.538.538,0,0,0,.229-.055h0a3.825,3.825,0,0,0-.548-.891,5.992,5.992,0,0,0-3.96-2.124,5.137,5.137,0,0,0-3.814,1.915A4.49,4.49,0,0,0,4252.985,2502.025Z" transform="translate(-4251.514 -2497.21)" fill="#463b39"/>
          </g>
        </g>
        <g id="Grupo_16283" data-name="Grupo 16283" transform="translate(170.211 255.234)">
          <g id="Grupo_16280" data-name="Grupo 16280">
            <path id="Trazado_41874" data-name="Trazado 41874" d="M4421.2,2665.683a7.433,7.433,0,1,1,7.432,7.339A7.386,7.386,0,0,1,4421.2,2665.683Z" transform="translate(-4420.467 -2657.614)" fill="#d8d6d7" fill-rule="evenodd"/>
            <path id="Trazado_41875" data-name="Trazado 41875" d="M4428.53,2673.652a8.069,8.069,0,1,1,8.163-8.068A8.124,8.124,0,0,1,4428.53,2673.652Zm0-14.677a6.61,6.61,0,1,0,6.7,6.609A6.663,6.663,0,0,0,4428.53,2658.975Z" transform="translate(-4420.368 -2657.515)" fill="#463b39"/>
          </g>
          <g id="Grupo_16281" data-name="Grupo 16281" transform="translate(3.871 4.553)">
            <path id="Trazado_41876" data-name="Trazado 41876" d="M4426.432,2663.517h4.539a.839.839,0,0,1,.839.838v3.79a.838.838,0,0,1-.839.837h-4.539a.837.837,0,0,1-.838-.837v-3.79A.838.838,0,0,1,4426.432,2663.517Z" transform="translate(-4424.864 -2662.786)" fill="#fff" fill-rule="evenodd"/>
            <path id="Trazado_41877" data-name="Trazado 41877" d="M4430.872,2669.614h-4.539a1.57,1.57,0,0,1-1.568-1.568v-3.79a1.571,1.571,0,0,1,1.568-1.569h4.539a1.571,1.571,0,0,1,1.568,1.569v3.79A1.57,1.57,0,0,1,4430.872,2669.614Zm-4.539-5.466a.108.108,0,0,0-.108.108v3.79a.108.108,0,0,0,.108.108h4.539a.108.108,0,0,0,.108-.108v-3.79a.108.108,0,0,0-.108-.108Z" transform="translate(-4424.765 -2662.687)" fill="#463b39"/>
          </g>
          <g id="Grupo_16282" data-name="Grupo 16282" transform="translate(10.537 5.076)">
            <path id="Trazado_41878" data-name="Trazado 41878" d="M4434.123,2664.11a.839.839,0,0,1,.839.839v2.482a.839.839,0,0,1-.839.838s-.955-.375-.955-.838v-2.482C4433.168,2664.486,4434.123,2664.11,4434.123,2664.11Z" transform="translate(-4432.438 -2663.38)" fill="#fff" fill-rule="evenodd"/>
            <path id="Trazado_41879" data-name="Trazado 41879" d="M4434.025,2668.9a.725.725,0,0,1-.268-.05c-.426-.168-1.418-.651-1.418-1.517v-2.483c0-.867.992-1.35,1.418-1.518a.731.731,0,0,1,.268-.051,1.57,1.57,0,0,1,1.568,1.569v2.483A1.569,1.569,0,0,1,4434.025,2668.9Zm-.226-1.691a1.708,1.708,0,0,0,.306.2.1.1,0,0,0,.028-.072v-2.483a.108.108,0,0,0-.028-.073,1.685,1.685,0,0,0-.306.2Z" transform="translate(-4432.339 -2663.281)" fill="#463b39"/>
          </g>
        </g>
        <g id="Grupo_16286" data-name="Grupo 16286" transform="translate(189.692 255.055)">
          <g id="Grupo_16284" data-name="Grupo 16284">
            <path id="Trazado_41880" data-name="Trazado 41880" d="M4443.328,2665.581a7.536,7.536,0,1,1,7.535,7.441A7.489,7.489,0,0,1,4443.328,2665.581Z" transform="translate(-4442.598 -2657.41)" fill="#f3877d" fill-rule="evenodd"/>
            <path id="Trazado_41881" data-name="Trazado 41881" d="M4450.764,2673.652a8.171,8.171,0,1,1,8.265-8.17A8.227,8.227,0,0,1,4450.764,2673.652Zm0-14.881a6.711,6.711,0,1,0,6.805,6.71A6.766,6.766,0,0,0,4450.764,2658.771Z" transform="translate(-4442.499 -2657.311)" fill="#463b39"/>
          </g>
          <g id="Grupo_16285" data-name="Grupo 16285" transform="translate(2.093 4.24)">
            <path id="Trazado_41882" data-name="Trazado 41882" d="M4446.8,2667.8c-1.917.019-.908-1.544-.056-2.643a5.805,5.805,0,0,1,4.412-2.2c3.3.092,6.838,4.281,4.329,4.526s-.82-2.984-4.544-2.794C4447.361,2664.877,4449.682,2667.772,4446.8,2667.8Z" transform="translate(-4444.976 -2662.228)" fill="#fff" fill-rule="evenodd"/>
            <path id="Trazado_41883" data-name="Trazado 41883" d="M4446.668,2668.432a1.671,1.671,0,0,1-1.656-.792c-.444-.894.285-2.032,1.057-3.027a6.423,6.423,0,0,1,5.008-2.48c2.77.077,5.826,2.688,5.887,4.468a1.46,1.46,0,0,1-1.506,1.514,2.2,2.2,0,0,1-2.455-1.59c-.337-.744-.582-1.275-2.124-1.2-1.367.07-1.494.5-1.705,1.207a2.248,2.248,0,0,1-2.466,1.9h-.04Zm.033-.73h0Zm-.354-.757a1.063,1.063,0,0,0,.346.027h0c.829-.008.882-.188,1.083-.859.252-.847.632-2.124,3.029-2.247,2.534-.13,3.13,1.184,3.526,2.054.295.649.368.805.983.742a.572.572,0,0,0,.231-.056,2.817,2.817,0,0,0-.548-.891,5.985,5.985,0,0,0-3.961-2.125,5.1,5.1,0,0,0-3.814,1.916A4.488,4.488,0,0,0,4446.348,2666.945Z" transform="translate(-4444.877 -2662.128)" fill="#463b39"/>
          </g>
        </g>
        <g id="Grupo_16290" data-name="Grupo 16290" transform="translate(0.272 0.646)">
          <g id="Grupo_16287" data-name="Grupo 16287" transform="translate(0 0.057)">
            <path id="Trazado_41884" data-name="Trazado 41884" d="M4228,2371.6a2.472,2.472,0,1,1,2.472,2.542A2.507,2.507,0,0,1,4228,2371.6Z" transform="translate(-4227.396 -2368.446)" fill="#f3877d" fill-rule="evenodd"/>
            <path id="Trazado_41885" data-name="Trazado 41885" d="M4230.393,2374.663a3.151,3.151,0,1,1,3.08-3.151A3.119,3.119,0,0,1,4230.393,2374.663Zm0-5.084a1.935,1.935,0,1,0,1.863,1.934A1.9,1.9,0,0,0,4230.393,2369.579Z" transform="translate(-4227.314 -2368.363)" fill="#463b39"/>
          </g>
          <g id="Grupo_16288" data-name="Grupo 16288" transform="translate(8.79 0.078)">
            <path id="Trazado_41886" data-name="Trazado 41886" d="M4237.991,2371.619a2.472,2.472,0,1,1,2.471,2.542A2.508,2.508,0,0,1,4237.991,2371.619Z" transform="translate(-4237.383 -2368.469)" fill="#fff6c0" fill-rule="evenodd"/>
            <path id="Trazado_41887" data-name="Trazado 41887" d="M4240.38,2374.687a3.151,3.151,0,1,1,3.079-3.15A3.119,3.119,0,0,1,4240.38,2374.687Zm0-5.084a1.935,1.935,0,1,0,1.863,1.934A1.9,1.9,0,0,0,4240.38,2369.6Z" transform="translate(-4237.3 -2368.387)" fill="#463b39"/>
          </g>
          <g id="Grupo_16289" data-name="Grupo 16289" transform="translate(17.39)">
            <path id="Trazado_41888" data-name="Trazado 41888" d="M4247.761,2371.53a2.472,2.472,0,1,1,2.471,2.542A2.507,2.507,0,0,1,4247.761,2371.53Z" transform="translate(-4247.153 -2368.381)" fill="#d8d6d7" fill-rule="evenodd"/>
            <path id="Trazado_41889" data-name="Trazado 41889" d="M4250.149,2374.6a3.151,3.151,0,1,1,3.08-3.151A3.119,3.119,0,0,1,4250.149,2374.6Zm0-5.084a1.935,1.935,0,1,0,1.863,1.934A1.9,1.9,0,0,0,4250.149,2369.514Z" transform="translate(-4247.07 -2368.298)" fill="#463b39"/>
          </g>
        </g>
        <g id="Grupo_16294" data-name="Grupo 16294" transform="translate(170.525 145.076)">
          <g id="Grupo_16291" data-name="Grupo 16291" transform="translate(0 0.058)">
            <path id="Trazado_41890" data-name="Trazado 41890" d="M4421.414,2535.672a2.473,2.473,0,1,1,2.472,2.542A2.508,2.508,0,0,1,4421.414,2535.672Z" transform="translate(-4420.807 -2532.522)" fill="#f3877d" fill-rule="evenodd"/>
            <path id="Trazado_41891" data-name="Trazado 41891" d="M4423.8,2538.739a3.151,3.151,0,1,1,3.079-3.15A3.119,3.119,0,0,1,4423.8,2538.739Zm0-5.084a1.936,1.936,0,1,0,1.863,1.934A1.9,1.9,0,0,0,4423.8,2533.655Z" transform="translate(-4420.724 -2532.439)" fill="#463b39"/>
          </g>
          <g id="Grupo_16292" data-name="Grupo 16292" transform="translate(8.79 0.079)">
            <path id="Trazado_41892" data-name="Trazado 41892" d="M4431.4,2535.7a2.472,2.472,0,1,1,2.471,2.542A2.508,2.508,0,0,1,4431.4,2535.7Z" transform="translate(-4430.792 -2532.546)" fill="#fff6c0" fill-rule="evenodd"/>
            <path id="Trazado_41893" data-name="Trazado 41893" d="M4433.79,2538.763a3.151,3.151,0,1,1,3.079-3.15A3.12,3.12,0,0,1,4433.79,2538.763Zm0-5.084a1.935,1.935,0,1,0,1.863,1.934A1.9,1.9,0,0,0,4433.79,2533.679Z" transform="translate(-4430.71 -2532.463)" fill="#463b39"/>
          </g>
          <g id="Grupo_16293" data-name="Grupo 16293" transform="translate(17.39)">
            <path id="Trazado_41894" data-name="Trazado 41894" d="M4441.17,2535.607a2.473,2.473,0,1,1,2.473,2.542A2.509,2.509,0,0,1,4441.17,2535.607Z" transform="translate(-4440.562 -2532.456)" fill="#d8d6d7" fill-rule="evenodd"/>
            <path id="Trazado_41895" data-name="Trazado 41895" d="M4443.559,2538.674a3.151,3.151,0,1,1,3.079-3.15A3.119,3.119,0,0,1,4443.559,2538.674Zm0-5.084a1.935,1.935,0,1,0,1.864,1.935A1.9,1.9,0,0,0,4443.559,2533.589Z" transform="translate(-4440.479 -2532.373)" fill="#463b39"/>
          </g>
        </g>
      </g>
      <g id="Ñëîé_3" data-name="Ñëîé 3">
        <g id="Grupo_16295" data-name="Grupo 16295">
          <path id="Trazado_41896" data-name="Trazado 41896" d="M4421.3,2504.464H4301.158a.811.811,0,1,1,0-1.621H4421.3a3.293,3.293,0,0,0,3.243-3.334v-128.63a3.293,3.293,0,0,0-3.243-3.334H4222.038a3.294,3.294,0,0,0-3.243,3.334v128.63a3.294,3.294,0,0,0,3.243,3.334h56a.811.811,0,0,1,0,1.621h-56a4.917,4.917,0,0,1-4.865-4.956v-128.63a4.917,4.917,0,0,1,4.865-4.956H4421.3a4.916,4.916,0,0,1,4.864,4.956v128.63A4.917,4.917,0,0,1,4421.3,2504.464Z" transform="translate(-4217.173 -2365.922)" fill="#463b39"/>
        </g>
        <g id="Grupo_16296" data-name="Grupo 16296" transform="translate(81.015 8.673)">
          <path id="Trazado_41897" data-name="Trazado 41897" d="M4429.8,2502.677H4310.019a.811.811,0,0,1,0-1.621H4429.8a3.068,3.068,0,0,0,3.14-2.982V2380.379a3.068,3.068,0,0,0-3.14-2.982h-91.41a.811.811,0,0,1,0-1.622h91.41a4.69,4.69,0,0,1,4.761,4.6v117.694A4.69,4.69,0,0,1,4429.8,2502.677Z" transform="translate(-4309.208 -2375.775)" fill="#463b39"/>
        </g>
        <g id="Grupo_16297" data-name="Grupo 16297" transform="translate(2.62 8.673)">
          <path id="Trazado_41898" data-name="Trazado 41898" d="M4277.4,2502.677h-52.486a4.69,4.69,0,0,1-4.763-4.6V2380.379a4.691,4.691,0,0,1,4.763-4.6h71.661a.811.811,0,1,1,0,1.622h-71.661a3.068,3.068,0,0,0-3.141,2.982v117.694a3.069,3.069,0,0,0,3.141,2.982H4277.4a.811.811,0,1,1,0,1.621Z" transform="translate(-4220.149 -2375.775)" fill="#463b39"/>
        </g>
        <g id="Grupo_16298" data-name="Grupo 16298" transform="translate(169.755 144.494)">
          <path id="Trazado_41899" data-name="Trazado 41899" d="M4614.14,2668.517H4414.882a4.915,4.915,0,0,1-4.864-4.953v-65.969a.811.811,0,1,1,1.621,0v65.969a3.292,3.292,0,0,0,3.243,3.332H4614.14a3.292,3.292,0,0,0,3.243-3.332v-128.54a3.292,3.292,0,0,0-3.243-3.331h-82.865a.811.811,0,0,1,0-1.622h82.865a4.914,4.914,0,0,1,4.865,4.953v128.54A4.914,4.914,0,0,1,4614.14,2668.517Z" transform="translate(-4410.018 -2530.07)" fill="#463b39"/>
        </g>
        <g id="Grupo_16299" data-name="Grupo 16299" transform="translate(169.755 144.494)">
          <path id="Trazado_41900" data-name="Trazado 41900" d="M4410.829,2558.625a.81.81,0,0,1-.811-.811v-22.826a4.9,4.9,0,0,1,4.864-4.918h80.753a.811.811,0,0,1,0,1.622h-80.753a3.273,3.273,0,0,0-3.243,3.3v22.826A.811.811,0,0,1,4410.829,2558.625Z" transform="translate(-4410.018 -2530.07)" fill="#463b39"/>
        </g>
        <g id="Grupo_16300" data-name="Grupo 16300" transform="translate(172.374 153.167)">
          <path id="Trazado_41901" data-name="Trazado 41901" d="M4611.979,2666.825H4417.756a4.691,4.691,0,0,1-4.763-4.6v-66.889a.811.811,0,0,1,1.622,0v66.889a3.068,3.068,0,0,0,3.141,2.982h194.223a3.068,3.068,0,0,0,3.141-2.982V2544.526a3.067,3.067,0,0,0-3.141-2.982h-76.052a.811.811,0,0,1,0-1.621h76.052a4.69,4.69,0,0,1,4.762,4.6v117.695A4.69,4.69,0,0,1,4611.979,2666.825Z" transform="translate(-4412.993 -2539.923)" fill="#463b39"/>
        </g>
        <g id="Grupo_16301" data-name="Grupo 16301" transform="translate(172.374 153.167)">
          <path id="Trazado_41902" data-name="Trazado 41902" d="M4413.8,2563.432a.811.811,0,0,1-.811-.811v-18.1a4.691,4.691,0,0,1,4.763-4.6H4490.2a.811.811,0,0,1,0,1.621h-72.445a3.067,3.067,0,0,0-3.141,2.982v18.1A.811.811,0,0,1,4413.8,2563.432Z" transform="translate(-4412.993 -2539.923)" fill="#463b39"/>
        </g>
      </g>
    </g>
  </g>
</svg>
