<svg xmlns="http://www.w3.org/2000/svg" width="1076" height="668.234" viewBox="0 0 1076 668.234">
  <g id="Grupo_15428" data-name="Grupo 15428" transform="translate(-354.967 -3511.729)">
    <rect id="Rectángulo_3977" data-name="Rectángulo 3977" width="125.667" height="148.864" transform="translate(1057.774 3511.729)" fill="#4463aa"/>
    <rect id="Rectángulo_3978" data-name="Rectángulo 3978" width="173.414" height="64.769" transform="translate(354.967 3511.729)" fill="#4463aa"/>
    <rect id="Rectángulo_3979" data-name="Rectángulo 3979" width="368.765" height="64.769" transform="translate(533.604 3511.729)" fill="#4463aa"/>
    <rect id="Rectángulo_3980" data-name="Rectángulo 3980" width="547.402" height="38.652" transform="translate(354.967 3580.676)" fill="#678cdf"/>
    <rect id="Rectángulo_3981" data-name="Rectángulo 3981" width="101.332" height="38.652" transform="translate(354.967 3623.507)" fill="#89ace0"/>
    <rect id="Rectángulo_3982" data-name="Rectángulo 3982" width="67.903" height="38.652" transform="translate(459.433 3623.507)" fill="#89ace0"/>
    <rect id="Rectángulo_3983" data-name="Rectángulo 3983" width="56.412" height="38.652" transform="translate(531.515 3623.507)" fill="#89ace0"/>
    <rect id="Rectángulo_3984" data-name="Rectángulo 3984" width="71.037" height="38.652" transform="translate(592.105 3623.507)" fill="#89ace0"/>
    <rect id="Rectángulo_3985" data-name="Rectángulo 3985" width="77.305" height="38.652" transform="translate(666.276 3623.507)" fill="#89ace0"/>
    <rect id="Rectángulo_3986" data-name="Rectángulo 3986" width="154.958" height="38.652" transform="translate(746.367 3623.507)" fill="#89ace0"/>
    <rect id="Rectángulo_3987" data-name="Rectángulo 3987" width="146.969" height="148.864" transform="translate(904.459 3511.729)" fill="#4463aa"/>
    <rect id="Rectángulo_3988" data-name="Rectángulo 3988" width="242.449" height="148.864" transform="translate(1188.519 3511.729)" fill="#4463aa"/>
    <rect id="Rectángulo_3989" data-name="Rectángulo 3989" width="308.523" height="38.652" transform="translate(354.967 4031.621)" fill="#b4d0ef"/>
    <rect id="Rectángulo_3990" data-name="Rectángulo 3990" width="146.949" height="38.652" transform="translate(666.972 4031.621)" fill="#b4d0ef"/>
    <rect id="Rectángulo_3991" data-name="Rectángulo 3991" width="234.198" height="38.652" transform="translate(817.229 4031.621)" fill="#b4d0ef"/>
    <rect id="Rectángulo_3992" data-name="Rectángulo 3992" width="125.667" height="38.652" transform="translate(1057.986 4031.824)" fill="#b4d0ef"/>
    <rect id="Rectángulo_3993" data-name="Rectángulo 3993" width="242.449" height="37.782" transform="translate(1188.519 4031.824)" fill="#b4d0ef"/>
    <rect id="Rectángulo_3994" data-name="Rectángulo 3994" width="308.523" height="38.652" transform="translate(354.967 4072.711)" fill="#b4d0ef"/>
    <rect id="Rectángulo_3995" data-name="Rectángulo 3995" width="146.949" height="38.652" transform="translate(666.972 4072.711)" fill="#b4d0ef"/>
    <rect id="Rectángulo_3996" data-name="Rectángulo 3996" width="234.198" height="38.652" transform="translate(817.229 4072.711)" fill="#b4d0ef"/>
    <rect id="Rectángulo_3997" data-name="Rectángulo 3997" width="125.667" height="38.652" transform="translate(1057.986 4072.711)" fill="#b4d0ef"/>
    <rect id="Rectángulo_3998" data-name="Rectángulo 3998" width="242.449" height="37.782" transform="translate(1188.519 4072.914)" fill="#b4d0ef"/>
    <rect id="Rectángulo_3999" data-name="Rectángulo 3999" width="308.523" height="38.652" transform="translate(354.967 4113.801)" fill="#b4d0ef"/>
    <rect id="Rectángulo_4000" data-name="Rectángulo 4000" width="1076" height="25.072" transform="translate(354.967 4154.891)" fill="#4463aa"/>
    <rect id="Rectángulo_4001" data-name="Rectángulo 4001" width="146.949" height="38.652" transform="translate(666.972 4113.801)" fill="#b4d0ef"/>
    <rect id="Rectángulo_4002" data-name="Rectángulo 4002" width="234.198" height="38.652" transform="translate(817.229 4113.801)" fill="#b4d0ef"/>
    <rect id="Rectángulo_4003" data-name="Rectángulo 4003" width="373.193" height="38.449" transform="translate(1057.774 4114.004)" fill="#b4d0ef"/>
    <rect id="Rectángulo_4004" data-name="Rectángulo 4004" width="101.332" height="19.953" transform="translate(354.967 3663.67)" fill="#cae0fc"/>
    <rect id="Rectángulo_4005" data-name="Rectángulo 4005" width="67.903" height="19.953" transform="translate(459.433 3663.67)" fill="#cae0fc"/>
    <rect id="Rectángulo_4006" data-name="Rectángulo 4006" width="56.412" height="19.953" transform="translate(531.515 3663.67)" fill="#cae0fc"/>
    <rect id="Rectángulo_4007" data-name="Rectángulo 4007" width="71.037" height="19.953" transform="translate(592.105 3663.67)" fill="#cae0fc"/>
    <rect id="Rectángulo_4008" data-name="Rectángulo 4008" width="77.305" height="19.953" transform="translate(666.276 3663.67)" fill="#cae0fc"/>
    <rect id="Rectángulo_4009" data-name="Rectángulo 4009" width="154.958" height="19.953" transform="translate(746.367 3663.67)" fill="#cae0fc"/>
    <rect id="Rectángulo_4010" data-name="Rectángulo 4010" width="146.969" height="20.433" transform="translate(904.459 3663.43)" fill="#cae0fc"/>
    <rect id="Rectángulo_4011" data-name="Rectángulo 4011" width="21.579" height="20.433" transform="translate(1057.774 3663.43)" fill="#cae0fc"/>
    <rect id="Rectángulo_4012" data-name="Rectángulo 4012" width="18.406" height="20.433" transform="translate(1081.892 3663.43)" fill="#cae0fc"/>
    <rect id="Rectángulo_4013" data-name="Rectángulo 4013" width="18.406" height="20.433" transform="translate(1102.449 3663.43)" fill="#cae0fc"/>
    <rect id="Rectángulo_4014" data-name="Rectángulo 4014" width="18.406" height="20.433" transform="translate(1123.146 3663.43)" fill="#cae0fc"/>
    <rect id="Rectángulo_4015" data-name="Rectángulo 4015" width="18.406" height="20.433" transform="translate(1144.091 3663.43)" fill="#cae0fc"/>
    <rect id="Rectángulo_4016" data-name="Rectángulo 4016" width="18.406" height="20.433" transform="translate(1165.035 3663.43)" fill="#cae0fc"/>
    <rect id="Rectángulo_4017" data-name="Rectángulo 4017" width="242.449" height="20.433" transform="translate(1188.519 3663.43)" fill="#cae0fc"/>
    <rect id="Rectángulo_4018" data-name="Rectángulo 4018" width="101.332" height="19.953" transform="translate(354.967 3685.259)" fill="#cae0fc"/>
    <rect id="Rectángulo_4019" data-name="Rectángulo 4019" width="67.903" height="19.953" transform="translate(459.433 3685.259)" fill="#cae0fc"/>
    <rect id="Rectángulo_4020" data-name="Rectángulo 4020" width="56.412" height="19.953" transform="translate(531.515 3685.259)" fill="#cae0fc"/>
    <rect id="Rectángulo_4021" data-name="Rectángulo 4021" width="71.037" height="19.953" transform="translate(592.105 3685.259)" fill="#cae0fc"/>
    <rect id="Rectángulo_4022" data-name="Rectángulo 4022" width="77.305" height="19.953" transform="translate(666.276 3685.259)" fill="#cae0fc"/>
    <rect id="Rectángulo_4023" data-name="Rectángulo 4023" width="154.958" height="19.953" transform="translate(746.367 3685.259)" fill="#cae0fc"/>
    <rect id="Rectángulo_4024" data-name="Rectángulo 4024" width="146.969" height="20.433" transform="translate(904.459 3685.02)" fill="#cae0fc"/>
    <rect id="Rectángulo_4025" data-name="Rectángulo 4025" width="21.579" height="20.433" transform="translate(1057.774 3685.02)" fill="#cae0fc"/>
    <rect id="Rectángulo_4026" data-name="Rectángulo 4026" width="18.406" height="20.433" transform="translate(1081.892 3685.02)" fill="#cae0fc"/>
    <rect id="Rectángulo_4027" data-name="Rectángulo 4027" width="18.406" height="20.433" transform="translate(1102.449 3685.02)" fill="#cae0fc"/>
    <rect id="Rectángulo_4028" data-name="Rectángulo 4028" width="18.406" height="20.433" transform="translate(1123.146 3685.02)" fill="#cae0fc"/>
    <rect id="Rectángulo_4029" data-name="Rectángulo 4029" width="18.406" height="20.433" transform="translate(1144.091 3685.02)" fill="#cae0fc"/>
    <rect id="Rectángulo_4030" data-name="Rectángulo 4030" width="18.406" height="20.433" transform="translate(1165.035 3685.02)" fill="#cae0fc"/>
    <rect id="Rectángulo_4031" data-name="Rectángulo 4031" width="242.449" height="20.433" transform="translate(1188.519 3685.02)" fill="#cae0fc"/>
    <rect id="Rectángulo_4032" data-name="Rectángulo 4032" width="101.332" height="19.953" transform="translate(354.967 3706.849)" fill="#cae0fc"/>
    <rect id="Rectángulo_4033" data-name="Rectángulo 4033" width="67.903" height="19.953" transform="translate(459.433 3706.849)" fill="#cae0fc"/>
    <rect id="Rectángulo_4034" data-name="Rectángulo 4034" width="56.412" height="19.953" transform="translate(531.515 3706.849)" fill="#cae0fc"/>
    <rect id="Rectángulo_4035" data-name="Rectángulo 4035" width="71.037" height="19.953" transform="translate(592.105 3706.849)" fill="#cae0fc"/>
    <rect id="Rectángulo_4036" data-name="Rectángulo 4036" width="77.305" height="19.953" transform="translate(666.276 3706.849)" fill="#cae0fc"/>
    <rect id="Rectángulo_4037" data-name="Rectángulo 4037" width="154.958" height="19.953" transform="translate(746.367 3706.849)" fill="#cae0fc"/>
    <rect id="Rectángulo_4038" data-name="Rectángulo 4038" width="146.969" height="20.433" transform="translate(904.459 3706.609)" fill="#cae0fc"/>
    <rect id="Rectángulo_4039" data-name="Rectángulo 4039" width="21.579" height="20.433" transform="translate(1057.774 3706.609)" fill="#cae0fc"/>
    <rect id="Rectángulo_4040" data-name="Rectángulo 4040" width="18.406" height="20.433" transform="translate(1081.892 3706.609)" fill="#cae0fc"/>
    <rect id="Rectángulo_4041" data-name="Rectángulo 4041" width="18.406" height="20.433" transform="translate(1102.449 3706.609)" fill="#cae0fc"/>
    <rect id="Rectángulo_4042" data-name="Rectángulo 4042" width="18.406" height="20.433" transform="translate(1123.146 3706.609)" fill="#cae0fc"/>
    <rect id="Rectángulo_4043" data-name="Rectángulo 4043" width="18.406" height="20.433" transform="translate(1144.091 3706.609)" fill="#cae0fc"/>
    <rect id="Rectángulo_4044" data-name="Rectángulo 4044" width="18.406" height="20.433" transform="translate(1165.035 3706.609)" fill="#cae0fc"/>
    <rect id="Rectángulo_4045" data-name="Rectángulo 4045" width="242.449" height="20.433" transform="translate(1188.519 3706.609)" fill="#cae0fc"/>
    <rect id="Rectángulo_4046" data-name="Rectángulo 4046" width="101.332" height="19.953" transform="translate(354.967 3728.439)" fill="#cae0fc"/>
    <rect id="Rectángulo_4047" data-name="Rectángulo 4047" width="67.903" height="19.953" transform="translate(459.433 3728.439)" fill="#cae0fc"/>
    <rect id="Rectángulo_4048" data-name="Rectángulo 4048" width="56.412" height="19.953" transform="translate(531.515 3728.439)" fill="#cae0fc"/>
    <rect id="Rectángulo_4049" data-name="Rectángulo 4049" width="71.037" height="19.953" transform="translate(592.105 3728.439)" fill="#cae0fc"/>
    <rect id="Rectángulo_4050" data-name="Rectángulo 4050" width="77.305" height="19.953" transform="translate(666.276 3728.439)" fill="#cae0fc"/>
    <rect id="Rectángulo_4051" data-name="Rectángulo 4051" width="154.958" height="19.953" transform="translate(746.367 3728.439)" fill="#cae0fc"/>
    <rect id="Rectángulo_4052" data-name="Rectángulo 4052" width="146.969" height="20.433" transform="translate(904.459 3728.199)" fill="#cae0fc"/>
    <rect id="Rectángulo_4053" data-name="Rectángulo 4053" width="21.579" height="20.433" transform="translate(1057.774 3728.199)" fill="#cae0fc"/>
    <rect id="Rectángulo_4054" data-name="Rectángulo 4054" width="18.406" height="20.433" transform="translate(1081.892 3728.199)" fill="#cae0fc"/>
    <rect id="Rectángulo_4055" data-name="Rectángulo 4055" width="18.406" height="20.433" transform="translate(1102.449 3728.199)" fill="#cae0fc"/>
    <rect id="Rectángulo_4056" data-name="Rectángulo 4056" width="18.406" height="20.433" transform="translate(1123.146 3728.199)" fill="#cae0fc"/>
    <rect id="Rectángulo_4057" data-name="Rectángulo 4057" width="18.406" height="20.433" transform="translate(1144.091 3728.199)" fill="#cae0fc"/>
    <rect id="Rectángulo_4058" data-name="Rectángulo 4058" width="18.406" height="20.433" transform="translate(1165.035 3728.199)" fill="#cae0fc"/>
    <rect id="Rectángulo_4059" data-name="Rectángulo 4059" width="242.449" height="20.433" transform="translate(1188.519 3728.199)" fill="#cae0fc"/>
    <rect id="Rectángulo_4060" data-name="Rectángulo 4060" width="101.332" height="19.953" transform="translate(354.967 3750.028)" fill="#cae0fc"/>
    <rect id="Rectángulo_4061" data-name="Rectángulo 4061" width="67.903" height="19.953" transform="translate(459.433 3750.028)" fill="#cae0fc"/>
    <rect id="Rectángulo_4062" data-name="Rectángulo 4062" width="56.412" height="19.953" transform="translate(531.515 3750.028)" fill="#cae0fc"/>
    <rect id="Rectángulo_4063" data-name="Rectángulo 4063" width="71.037" height="19.953" transform="translate(592.105 3750.028)" fill="#cae0fc"/>
    <rect id="Rectángulo_4064" data-name="Rectángulo 4064" width="77.305" height="19.953" transform="translate(666.276 3750.028)" fill="#cae0fc"/>
    <rect id="Rectángulo_4065" data-name="Rectángulo 4065" width="154.958" height="19.953" transform="translate(746.367 3750.028)" fill="#cae0fc"/>
    <rect id="Rectángulo_4066" data-name="Rectángulo 4066" width="146.969" height="20.433" transform="translate(904.459 3749.789)" fill="#cae0fc"/>
    <rect id="Rectángulo_4067" data-name="Rectángulo 4067" width="21.579" height="20.433" transform="translate(1057.774 3749.789)" fill="#cae0fc"/>
    <rect id="Rectángulo_4068" data-name="Rectángulo 4068" width="18.406" height="20.433" transform="translate(1081.892 3749.789)" fill="#cae0fc"/>
    <rect id="Rectángulo_4069" data-name="Rectángulo 4069" width="18.406" height="20.433" transform="translate(1102.449 3749.789)" fill="#cae0fc"/>
    <rect id="Rectángulo_4070" data-name="Rectángulo 4070" width="18.406" height="20.433" transform="translate(1123.146 3749.789)" fill="#cae0fc"/>
    <rect id="Rectángulo_4071" data-name="Rectángulo 4071" width="18.406" height="20.433" transform="translate(1144.091 3749.789)" fill="#cae0fc"/>
    <rect id="Rectángulo_4072" data-name="Rectángulo 4072" width="18.406" height="20.433" transform="translate(1165.035 3749.789)" fill="#cae0fc"/>
    <rect id="Rectángulo_4073" data-name="Rectángulo 4073" width="242.449" height="20.433" transform="translate(1188.519 3749.789)" fill="#cae0fc"/>
    <rect id="Rectángulo_4074" data-name="Rectángulo 4074" width="101.332" height="19.953" transform="translate(354.967 3771.618)" fill="#cae0fc"/>
    <rect id="Rectángulo_4075" data-name="Rectángulo 4075" width="67.903" height="19.953" transform="translate(459.433 3771.618)" fill="#cae0fc"/>
    <rect id="Rectángulo_4076" data-name="Rectángulo 4076" width="56.412" height="19.953" transform="translate(531.515 3771.618)" fill="#cae0fc"/>
    <rect id="Rectángulo_4077" data-name="Rectángulo 4077" width="71.037" height="19.953" transform="translate(592.105 3771.618)" fill="#cae0fc"/>
    <rect id="Rectángulo_4078" data-name="Rectángulo 4078" width="77.305" height="19.953" transform="translate(666.276 3771.618)" fill="#cae0fc"/>
    <rect id="Rectángulo_4079" data-name="Rectángulo 4079" width="154.958" height="19.953" transform="translate(746.367 3771.618)" fill="#cae0fc"/>
    <rect id="Rectángulo_4080" data-name="Rectángulo 4080" width="146.969" height="20.433" transform="translate(904.459 3771.378)" fill="#cae0fc"/>
    <rect id="Rectángulo_4081" data-name="Rectángulo 4081" width="21.579" height="20.433" transform="translate(1057.774 3771.378)" fill="#cae0fc"/>
    <rect id="Rectángulo_4082" data-name="Rectángulo 4082" width="18.406" height="20.433" transform="translate(1081.892 3771.378)" fill="#cae0fc"/>
    <rect id="Rectángulo_4083" data-name="Rectángulo 4083" width="18.406" height="20.433" transform="translate(1102.449 3771.378)" fill="#cae0fc"/>
    <rect id="Rectángulo_4084" data-name="Rectángulo 4084" width="18.406" height="20.433" transform="translate(1123.146 3771.378)" fill="#cae0fc"/>
    <rect id="Rectángulo_4085" data-name="Rectángulo 4085" width="18.406" height="20.433" transform="translate(1144.091 3771.378)" fill="#cae0fc"/>
    <rect id="Rectángulo_4086" data-name="Rectángulo 4086" width="18.406" height="20.433" transform="translate(1165.035 3771.378)" fill="#cae0fc"/>
    <rect id="Rectángulo_4087" data-name="Rectángulo 4087" width="242.449" height="20.433" transform="translate(1188.519 3771.378)" fill="#cae0fc"/>
    <rect id="Rectángulo_4088" data-name="Rectángulo 4088" width="101.332" height="19.953" transform="translate(354.967 3793.208)" fill="#cae0fc"/>
    <rect id="Rectángulo_4089" data-name="Rectángulo 4089" width="67.903" height="19.953" transform="translate(459.433 3793.208)" fill="#cae0fc"/>
    <rect id="Rectángulo_4090" data-name="Rectángulo 4090" width="56.412" height="19.953" transform="translate(531.515 3793.208)" fill="#cae0fc"/>
    <rect id="Rectángulo_4091" data-name="Rectángulo 4091" width="71.037" height="19.953" transform="translate(592.105 3793.208)" fill="#cae0fc"/>
    <rect id="Rectángulo_4092" data-name="Rectángulo 4092" width="77.305" height="19.953" transform="translate(666.276 3793.208)" fill="#cae0fc"/>
    <rect id="Rectángulo_4093" data-name="Rectángulo 4093" width="154.958" height="19.953" transform="translate(746.367 3793.208)" fill="#cae0fc"/>
    <rect id="Rectángulo_4094" data-name="Rectángulo 4094" width="146.969" height="20.433" transform="translate(904.459 3792.968)" fill="#cae0fc"/>
    <rect id="Rectángulo_4095" data-name="Rectángulo 4095" width="21.579" height="20.433" transform="translate(1057.774 3792.968)" fill="#cae0fc"/>
    <rect id="Rectángulo_4096" data-name="Rectángulo 4096" width="18.406" height="20.433" transform="translate(1081.892 3792.968)" fill="#cae0fc"/>
    <rect id="Rectángulo_4097" data-name="Rectángulo 4097" width="18.406" height="20.433" transform="translate(1102.449 3792.968)" fill="#cae0fc"/>
    <rect id="Rectángulo_4098" data-name="Rectángulo 4098" width="18.406" height="20.433" transform="translate(1123.146 3792.968)" fill="#cae0fc"/>
    <rect id="Rectángulo_4099" data-name="Rectángulo 4099" width="18.406" height="20.433" transform="translate(1144.091 3792.968)" fill="#cae0fc"/>
    <rect id="Rectángulo_4100" data-name="Rectángulo 4100" width="18.406" height="20.433" transform="translate(1165.035 3792.968)" fill="#cae0fc"/>
    <rect id="Rectángulo_4101" data-name="Rectángulo 4101" width="242.449" height="20.433" transform="translate(1188.519 3792.968)" fill="#cae0fc"/>
    <rect id="Rectángulo_4102" data-name="Rectángulo 4102" width="101.332" height="19.953" transform="translate(354.967 3814.797)" fill="#cae0fc"/>
    <rect id="Rectángulo_4103" data-name="Rectángulo 4103" width="67.903" height="19.953" transform="translate(459.433 3814.797)" fill="#cae0fc"/>
    <rect id="Rectángulo_4104" data-name="Rectángulo 4104" width="56.412" height="19.953" transform="translate(531.515 3814.797)" fill="#cae0fc"/>
    <rect id="Rectángulo_4105" data-name="Rectángulo 4105" width="71.037" height="19.953" transform="translate(592.105 3814.797)" fill="#cae0fc"/>
    <rect id="Rectángulo_4106" data-name="Rectángulo 4106" width="77.305" height="19.953" transform="translate(666.276 3814.797)" fill="#cae0fc"/>
    <rect id="Rectángulo_4107" data-name="Rectángulo 4107" width="154.958" height="19.953" transform="translate(746.367 3814.797)" fill="#cae0fc"/>
    <rect id="Rectángulo_4108" data-name="Rectángulo 4108" width="146.969" height="20.433" transform="translate(904.459 3814.557)" fill="#cae0fc"/>
    <rect id="Rectángulo_4109" data-name="Rectángulo 4109" width="21.579" height="20.433" transform="translate(1057.774 3814.557)" fill="#cae0fc"/>
    <rect id="Rectángulo_4110" data-name="Rectángulo 4110" width="18.406" height="20.433" transform="translate(1081.892 3814.557)" fill="#cae0fc"/>
    <rect id="Rectángulo_4111" data-name="Rectángulo 4111" width="18.406" height="20.433" transform="translate(1102.449 3814.557)" fill="#cae0fc"/>
    <rect id="Rectángulo_4112" data-name="Rectángulo 4112" width="18.406" height="20.433" transform="translate(1123.146 3814.557)" fill="#cae0fc"/>
    <rect id="Rectángulo_4113" data-name="Rectángulo 4113" width="18.406" height="20.433" transform="translate(1144.091 3814.557)" fill="#cae0fc"/>
    <rect id="Rectángulo_4114" data-name="Rectángulo 4114" width="18.406" height="20.433" transform="translate(1165.035 3814.557)" fill="#cae0fc"/>
    <rect id="Rectángulo_4115" data-name="Rectángulo 4115" width="242.449" height="20.433" transform="translate(1188.519 3814.557)" fill="#cae0fc"/>
    <rect id="Rectángulo_4116" data-name="Rectángulo 4116" width="101.332" height="19.953" transform="translate(354.967 3836.387)" fill="#cae0fc"/>
    <rect id="Rectángulo_4117" data-name="Rectángulo 4117" width="67.903" height="19.953" transform="translate(459.433 3836.387)" fill="#cae0fc"/>
    <rect id="Rectángulo_4118" data-name="Rectángulo 4118" width="56.412" height="19.953" transform="translate(531.515 3836.387)" fill="#cae0fc"/>
    <rect id="Rectángulo_4119" data-name="Rectángulo 4119" width="71.037" height="19.953" transform="translate(592.105 3836.387)" fill="#cae0fc"/>
    <rect id="Rectángulo_4120" data-name="Rectángulo 4120" width="77.305" height="19.953" transform="translate(666.276 3836.387)" fill="#cae0fc"/>
    <rect id="Rectángulo_4121" data-name="Rectángulo 4121" width="154.958" height="19.953" transform="translate(746.367 3836.387)" fill="#cae0fc"/>
    <rect id="Rectángulo_4122" data-name="Rectángulo 4122" width="146.969" height="20.433" transform="translate(904.459 3836.147)" fill="#cae0fc"/>
    <rect id="Rectángulo_4123" data-name="Rectángulo 4123" width="21.579" height="20.433" transform="translate(1057.774 3836.147)" fill="#cae0fc"/>
    <rect id="Rectángulo_4124" data-name="Rectángulo 4124" width="18.406" height="20.433" transform="translate(1081.892 3836.147)" fill="#cae0fc"/>
    <rect id="Rectángulo_4125" data-name="Rectángulo 4125" width="18.406" height="20.433" transform="translate(1102.449 3836.147)" fill="#cae0fc"/>
    <rect id="Rectángulo_4126" data-name="Rectángulo 4126" width="18.406" height="20.433" transform="translate(1123.146 3836.147)" fill="#cae0fc"/>
    <rect id="Rectángulo_4127" data-name="Rectángulo 4127" width="18.406" height="20.433" transform="translate(1144.091 3836.147)" fill="#cae0fc"/>
    <rect id="Rectángulo_4128" data-name="Rectángulo 4128" width="18.406" height="20.433" transform="translate(1165.035 3836.147)" fill="#cae0fc"/>
    <rect id="Rectángulo_4129" data-name="Rectángulo 4129" width="242.449" height="20.433" transform="translate(1188.519 3836.147)" fill="#cae0fc"/>
    <rect id="Rectángulo_4130" data-name="Rectángulo 4130" width="101.332" height="19.953" transform="translate(354.967 3857.977)" fill="#cae0fc"/>
    <rect id="Rectángulo_4131" data-name="Rectángulo 4131" width="67.903" height="19.953" transform="translate(459.433 3857.977)" fill="#cae0fc"/>
    <rect id="Rectángulo_4132" data-name="Rectángulo 4132" width="56.412" height="19.953" transform="translate(531.515 3857.977)" fill="#cae0fc"/>
    <rect id="Rectángulo_4133" data-name="Rectángulo 4133" width="71.037" height="19.953" transform="translate(592.105 3857.977)" fill="#cae0fc"/>
    <rect id="Rectángulo_4134" data-name="Rectángulo 4134" width="77.305" height="19.953" transform="translate(666.276 3857.977)" fill="#cae0fc"/>
    <rect id="Rectángulo_4135" data-name="Rectángulo 4135" width="154.958" height="19.953" transform="translate(746.367 3857.977)" fill="#cae0fc"/>
    <rect id="Rectángulo_4136" data-name="Rectángulo 4136" width="146.969" height="20.433" transform="translate(904.459 3857.737)" fill="#cae0fc"/>
    <rect id="Rectángulo_4137" data-name="Rectángulo 4137" width="21.579" height="20.433" transform="translate(1057.774 3857.737)" fill="#cae0fc"/>
    <rect id="Rectángulo_4138" data-name="Rectángulo 4138" width="18.406" height="20.433" transform="translate(1081.892 3857.737)" fill="#cae0fc"/>
    <rect id="Rectángulo_4139" data-name="Rectángulo 4139" width="18.406" height="20.433" transform="translate(1102.449 3857.737)" fill="#cae0fc"/>
    <rect id="Rectángulo_4140" data-name="Rectángulo 4140" width="18.406" height="20.433" transform="translate(1123.146 3857.737)" fill="#cae0fc"/>
    <rect id="Rectángulo_4141" data-name="Rectángulo 4141" width="18.406" height="20.433" transform="translate(1144.091 3857.737)" fill="#cae0fc"/>
    <rect id="Rectángulo_4142" data-name="Rectángulo 4142" width="18.406" height="20.433" transform="translate(1165.035 3857.737)" fill="#cae0fc"/>
    <rect id="Rectángulo_4143" data-name="Rectángulo 4143" width="242.449" height="20.433" transform="translate(1188.519 3857.737)" fill="#cae0fc"/>
    <rect id="Rectángulo_4144" data-name="Rectángulo 4144" width="101.332" height="19.953" transform="translate(354.967 3879.566)" fill="#cae0fc"/>
    <rect id="Rectángulo_4145" data-name="Rectángulo 4145" width="67.903" height="19.953" transform="translate(459.433 3879.566)" fill="#cae0fc"/>
    <rect id="Rectángulo_4146" data-name="Rectángulo 4146" width="56.412" height="19.953" transform="translate(531.515 3879.566)" fill="#cae0fc"/>
    <rect id="Rectángulo_4147" data-name="Rectángulo 4147" width="71.037" height="19.953" transform="translate(592.105 3879.566)" fill="#cae0fc"/>
    <rect id="Rectángulo_4148" data-name="Rectángulo 4148" width="77.305" height="19.953" transform="translate(666.276 3879.566)" fill="#cae0fc"/>
    <rect id="Rectángulo_4149" data-name="Rectángulo 4149" width="154.958" height="19.953" transform="translate(746.367 3879.566)" fill="#cae0fc"/>
    <rect id="Rectángulo_4150" data-name="Rectángulo 4150" width="146.969" height="20.433" transform="translate(904.459 3879.326)" fill="#cae0fc"/>
    <rect id="Rectángulo_4151" data-name="Rectángulo 4151" width="21.579" height="20.433" transform="translate(1057.774 3879.326)" fill="#cae0fc"/>
    <rect id="Rectángulo_4152" data-name="Rectángulo 4152" width="18.406" height="20.433" transform="translate(1081.892 3879.326)" fill="#cae0fc"/>
    <rect id="Rectángulo_4153" data-name="Rectángulo 4153" width="18.406" height="20.433" transform="translate(1102.449 3879.326)" fill="#cae0fc"/>
    <rect id="Rectángulo_4154" data-name="Rectángulo 4154" width="18.406" height="20.433" transform="translate(1123.146 3879.326)" fill="#cae0fc"/>
    <rect id="Rectángulo_4155" data-name="Rectángulo 4155" width="18.406" height="20.433" transform="translate(1144.091 3879.326)" fill="#cae0fc"/>
    <rect id="Rectángulo_4156" data-name="Rectángulo 4156" width="18.406" height="20.433" transform="translate(1165.035 3879.326)" fill="#cae0fc"/>
    <rect id="Rectángulo_4157" data-name="Rectángulo 4157" width="242.449" height="20.433" transform="translate(1188.519 3879.326)" fill="#cae0fc"/>
    <rect id="Rectángulo_4158" data-name="Rectángulo 4158" width="101.332" height="19.953" transform="translate(354.967 3901.156)" fill="#cae0fc"/>
    <rect id="Rectángulo_4159" data-name="Rectángulo 4159" width="67.903" height="19.953" transform="translate(459.433 3901.156)" fill="#cae0fc"/>
    <rect id="Rectángulo_4160" data-name="Rectángulo 4160" width="56.412" height="19.953" transform="translate(531.515 3901.156)" fill="#cae0fc"/>
    <rect id="Rectángulo_4161" data-name="Rectángulo 4161" width="71.037" height="19.953" transform="translate(592.105 3901.156)" fill="#cae0fc"/>
    <rect id="Rectángulo_4162" data-name="Rectángulo 4162" width="77.305" height="19.953" transform="translate(666.276 3901.156)" fill="#cae0fc"/>
    <rect id="Rectángulo_4163" data-name="Rectángulo 4163" width="154.958" height="19.953" transform="translate(746.367 3901.156)" fill="#cae0fc"/>
    <rect id="Rectángulo_4164" data-name="Rectángulo 4164" width="146.969" height="20.433" transform="translate(904.459 3900.916)" fill="#cae0fc"/>
    <rect id="Rectángulo_4165" data-name="Rectángulo 4165" width="21.579" height="20.433" transform="translate(1057.774 3900.916)" fill="#cae0fc"/>
    <rect id="Rectángulo_4166" data-name="Rectángulo 4166" width="18.406" height="20.433" transform="translate(1081.892 3900.916)" fill="#cae0fc"/>
    <rect id="Rectángulo_4167" data-name="Rectángulo 4167" width="18.406" height="20.433" transform="translate(1102.449 3900.916)" fill="#cae0fc"/>
    <rect id="Rectángulo_4168" data-name="Rectángulo 4168" width="18.406" height="20.433" transform="translate(1123.146 3900.916)" fill="#cae0fc"/>
    <rect id="Rectángulo_4169" data-name="Rectángulo 4169" width="18.406" height="20.433" transform="translate(1144.091 3900.916)" fill="#cae0fc"/>
    <rect id="Rectángulo_4170" data-name="Rectángulo 4170" width="18.406" height="20.433" transform="translate(1165.035 3900.916)" fill="#cae0fc"/>
    <rect id="Rectángulo_4171" data-name="Rectángulo 4171" width="242.449" height="20.433" transform="translate(1188.519 3900.916)" fill="#cae0fc"/>
    <rect id="Rectángulo_4172" data-name="Rectángulo 4172" width="101.332" height="19.953" transform="translate(354.967 3922.745)" fill="#cae0fc"/>
    <rect id="Rectángulo_4173" data-name="Rectángulo 4173" width="67.903" height="19.953" transform="translate(459.433 3922.745)" fill="#cae0fc"/>
    <rect id="Rectángulo_4174" data-name="Rectángulo 4174" width="56.412" height="19.953" transform="translate(531.515 3922.745)" fill="#cae0fc"/>
    <rect id="Rectángulo_4175" data-name="Rectángulo 4175" width="71.037" height="19.953" transform="translate(592.105 3922.745)" fill="#cae0fc"/>
    <rect id="Rectángulo_4176" data-name="Rectángulo 4176" width="77.305" height="19.953" transform="translate(666.276 3922.745)" fill="#cae0fc"/>
    <rect id="Rectángulo_4177" data-name="Rectángulo 4177" width="154.958" height="19.953" transform="translate(746.367 3922.745)" fill="#cae0fc"/>
    <rect id="Rectángulo_4178" data-name="Rectángulo 4178" width="146.969" height="20.433" transform="translate(904.459 3922.506)" fill="#cae0fc"/>
    <rect id="Rectángulo_4179" data-name="Rectángulo 4179" width="21.579" height="20.433" transform="translate(1057.774 3922.506)" fill="#cae0fc"/>
    <rect id="Rectángulo_4180" data-name="Rectángulo 4180" width="18.406" height="20.433" transform="translate(1081.892 3922.506)" fill="#cae0fc"/>
    <rect id="Rectángulo_4181" data-name="Rectángulo 4181" width="18.406" height="20.433" transform="translate(1102.449 3922.506)" fill="#cae0fc"/>
    <rect id="Rectángulo_4182" data-name="Rectángulo 4182" width="18.406" height="20.433" transform="translate(1123.146 3922.506)" fill="#cae0fc"/>
    <rect id="Rectángulo_4183" data-name="Rectángulo 4183" width="18.406" height="20.433" transform="translate(1144.091 3922.506)" fill="#cae0fc"/>
    <rect id="Rectángulo_4184" data-name="Rectángulo 4184" width="18.406" height="20.433" transform="translate(1165.035 3922.506)" fill="#cae0fc"/>
    <rect id="Rectángulo_4185" data-name="Rectángulo 4185" width="242.449" height="20.433" transform="translate(1188.519 3922.506)" fill="#cae0fc"/>
    <rect id="Rectángulo_4186" data-name="Rectángulo 4186" width="101.332" height="19.953" transform="translate(354.967 3944.335)" fill="#cae0fc"/>
    <rect id="Rectángulo_4187" data-name="Rectángulo 4187" width="67.903" height="19.953" transform="translate(459.433 3944.335)" fill="#cae0fc"/>
    <rect id="Rectángulo_4188" data-name="Rectángulo 4188" width="56.412" height="19.953" transform="translate(531.515 3944.335)" fill="#cae0fc"/>
    <rect id="Rectángulo_4189" data-name="Rectángulo 4189" width="71.037" height="19.953" transform="translate(592.105 3944.335)" fill="#cae0fc"/>
    <rect id="Rectángulo_4190" data-name="Rectángulo 4190" width="77.305" height="19.953" transform="translate(666.276 3944.335)" fill="#cae0fc"/>
    <rect id="Rectángulo_4191" data-name="Rectángulo 4191" width="154.958" height="19.953" transform="translate(746.367 3944.335)" fill="#cae0fc"/>
    <rect id="Rectángulo_4192" data-name="Rectángulo 4192" width="146.969" height="20.433" transform="translate(904.459 3944.095)" fill="#cae0fc"/>
    <rect id="Rectángulo_4193" data-name="Rectángulo 4193" width="21.579" height="20.433" transform="translate(1057.774 3944.095)" fill="#cae0fc"/>
    <rect id="Rectángulo_4194" data-name="Rectángulo 4194" width="18.406" height="20.433" transform="translate(1081.892 3944.095)" fill="#cae0fc"/>
    <rect id="Rectángulo_4195" data-name="Rectángulo 4195" width="18.406" height="20.433" transform="translate(1102.449 3944.095)" fill="#cae0fc"/>
    <rect id="Rectángulo_4196" data-name="Rectángulo 4196" width="18.406" height="20.433" transform="translate(1123.146 3944.095)" fill="#cae0fc"/>
    <rect id="Rectángulo_4197" data-name="Rectángulo 4197" width="18.406" height="20.433" transform="translate(1144.091 3944.095)" fill="#cae0fc"/>
    <rect id="Rectángulo_4198" data-name="Rectángulo 4198" width="18.406" height="20.433" transform="translate(1165.035 3944.095)" fill="#cae0fc"/>
    <rect id="Rectángulo_4199" data-name="Rectángulo 4199" width="242.449" height="20.433" transform="translate(1188.519 3944.095)" fill="#cae0fc"/>
    <rect id="Rectángulo_4200" data-name="Rectángulo 4200" width="101.332" height="19.953" transform="translate(354.967 3965.925)" fill="#cae0fc"/>
    <rect id="Rectángulo_4201" data-name="Rectángulo 4201" width="67.903" height="19.953" transform="translate(459.433 3965.925)" fill="#cae0fc"/>
    <rect id="Rectángulo_4202" data-name="Rectángulo 4202" width="56.412" height="19.953" transform="translate(531.515 3965.925)" fill="#cae0fc"/>
    <rect id="Rectángulo_4203" data-name="Rectángulo 4203" width="71.037" height="19.953" transform="translate(592.105 3965.925)" fill="#cae0fc"/>
    <rect id="Rectángulo_4204" data-name="Rectángulo 4204" width="77.305" height="19.953" transform="translate(666.276 3965.925)" fill="#cae0fc"/>
    <rect id="Rectángulo_4205" data-name="Rectángulo 4205" width="154.958" height="19.953" transform="translate(746.367 3965.925)" fill="#cae0fc"/>
    <rect id="Rectángulo_4206" data-name="Rectángulo 4206" width="146.969" height="20.433" transform="translate(904.459 3965.685)" fill="#cae0fc"/>
    <rect id="Rectángulo_4207" data-name="Rectángulo 4207" width="21.579" height="20.433" transform="translate(1057.774 3965.685)" fill="#cae0fc"/>
    <rect id="Rectángulo_4208" data-name="Rectángulo 4208" width="18.406" height="20.433" transform="translate(1081.892 3965.685)" fill="#cae0fc"/>
    <rect id="Rectángulo_4209" data-name="Rectángulo 4209" width="18.406" height="20.433" transform="translate(1102.449 3965.685)" fill="#cae0fc"/>
    <rect id="Rectángulo_4210" data-name="Rectángulo 4210" width="18.406" height="20.433" transform="translate(1123.146 3965.685)" fill="#cae0fc"/>
    <rect id="Rectángulo_4211" data-name="Rectángulo 4211" width="18.406" height="20.433" transform="translate(1144.091 3965.685)" fill="#cae0fc"/>
    <rect id="Rectángulo_4212" data-name="Rectángulo 4212" width="18.406" height="20.433" transform="translate(1165.035 3965.685)" fill="#cae0fc"/>
    <rect id="Rectángulo_4213" data-name="Rectángulo 4213" width="242.449" height="20.433" transform="translate(1188.519 3965.685)" fill="#cae0fc"/>
    <rect id="Rectángulo_4214" data-name="Rectángulo 4214" width="101.332" height="19.953" transform="translate(354.967 3987.514)" fill="#cae0fc"/>
    <rect id="Rectángulo_4215" data-name="Rectángulo 4215" width="67.903" height="19.953" transform="translate(459.433 3987.514)" fill="#cae0fc"/>
    <rect id="Rectángulo_4216" data-name="Rectángulo 4216" width="56.412" height="19.953" transform="translate(531.515 3987.514)" fill="#cae0fc"/>
    <rect id="Rectángulo_4217" data-name="Rectángulo 4217" width="71.037" height="19.953" transform="translate(592.105 3987.514)" fill="#cae0fc"/>
    <rect id="Rectángulo_4218" data-name="Rectángulo 4218" width="77.305" height="19.953" transform="translate(666.276 3987.514)" fill="#cae0fc"/>
    <rect id="Rectángulo_4219" data-name="Rectángulo 4219" width="154.958" height="19.953" transform="translate(746.367 3987.514)" fill="#cae0fc"/>
    <rect id="Rectángulo_4220" data-name="Rectángulo 4220" width="146.969" height="20.433" transform="translate(904.459 3987.275)" fill="#cae0fc"/>
    <rect id="Rectángulo_4221" data-name="Rectángulo 4221" width="21.579" height="20.433" transform="translate(1057.774 3987.275)" fill="#cae0fc"/>
    <rect id="Rectángulo_4222" data-name="Rectángulo 4222" width="18.406" height="20.433" transform="translate(1081.892 3987.275)" fill="#cae0fc"/>
    <rect id="Rectángulo_4223" data-name="Rectángulo 4223" width="18.406" height="20.433" transform="translate(1102.449 3987.275)" fill="#cae0fc"/>
    <rect id="Rectángulo_4224" data-name="Rectángulo 4224" width="18.406" height="20.433" transform="translate(1123.146 3987.275)" fill="#cae0fc"/>
    <rect id="Rectángulo_4225" data-name="Rectángulo 4225" width="18.406" height="20.433" transform="translate(1144.091 3987.275)" fill="#cae0fc"/>
    <rect id="Rectángulo_4226" data-name="Rectángulo 4226" width="18.406" height="20.433" transform="translate(1165.035 3987.275)" fill="#cae0fc"/>
    <rect id="Rectángulo_4227" data-name="Rectángulo 4227" width="242.449" height="20.433" transform="translate(1188.519 3987.275)" fill="#cae0fc"/>
    <rect id="Rectángulo_4228" data-name="Rectángulo 4228" width="101.332" height="19.953" transform="translate(354.967 4009.104)" fill="#cae0fc"/>
    <rect id="Rectángulo_4229" data-name="Rectángulo 4229" width="67.903" height="19.953" transform="translate(459.433 4009.104)" fill="#cae0fc"/>
    <rect id="Rectángulo_4230" data-name="Rectángulo 4230" width="56.412" height="19.953" transform="translate(531.515 4009.104)" fill="#cae0fc"/>
    <rect id="Rectángulo_4231" data-name="Rectángulo 4231" width="71.037" height="19.953" transform="translate(592.105 4009.104)" fill="#cae0fc"/>
    <rect id="Rectángulo_4232" data-name="Rectángulo 4232" width="77.305" height="19.953" transform="translate(666.276 4009.104)" fill="#cae0fc"/>
    <rect id="Rectángulo_4233" data-name="Rectángulo 4233" width="154.958" height="19.953" transform="translate(746.367 4009.104)" fill="#cae0fc"/>
    <rect id="Rectángulo_4234" data-name="Rectángulo 4234" width="146.969" height="20.433" transform="translate(904.459 4008.864)" fill="#cae0fc"/>
    <rect id="Rectángulo_4235" data-name="Rectángulo 4235" width="21.579" height="20.433" transform="translate(1057.774 4008.864)" fill="#cae0fc"/>
    <rect id="Rectángulo_4236" data-name="Rectángulo 4236" width="18.406" height="20.433" transform="translate(1081.892 4008.864)" fill="#cae0fc"/>
    <rect id="Rectángulo_4237" data-name="Rectángulo 4237" width="18.406" height="20.433" transform="translate(1102.449 4008.864)" fill="#cae0fc"/>
    <rect id="Rectángulo_4238" data-name="Rectángulo 4238" width="18.406" height="20.433" transform="translate(1123.146 4008.864)" fill="#cae0fc"/>
    <rect id="Rectángulo_4239" data-name="Rectángulo 4239" width="18.406" height="20.433" transform="translate(1144.091 4008.864)" fill="#cae0fc"/>
    <rect id="Rectángulo_4240" data-name="Rectángulo 4240" width="18.406" height="20.433" transform="translate(1165.035 4008.864)" fill="#cae0fc"/>
    <rect id="Rectángulo_4241" data-name="Rectángulo 4241" width="242.449" height="20.433" transform="translate(1188.519 4008.864)" fill="#cae0fc"/>
    <text id="Proyecto_No." data-name="Proyecto No." transform="translate(374.267 3550.603)" fill="#fff" font-size="21" font-family="CerebriSans-Bold, Cerebri Sans" font-weight="700"><tspan x="0" y="0">Proyecto No.</tspan></text>
    <text id="Estación_No." data-name="Estación
No." transform="translate(406.057 3639.511)" fill="#fff" font-size="17" font-family="CerebriSans-Bold, Cerebri Sans" font-weight="700"><tspan x="-34.531" y="0">Estación</tspan><tspan x="-14.746" y="17">No.</tspan></text>
    <text id="Cedido_por._Nombre_y_firma_" data-name="Cedido por. (Nombre y firma)" transform="translate(462.883 4047.308)" fill="#00223d" font-size="15" font-family="SegoeUI, Segoe UI"><tspan x="-97.471" y="0">Cedido por. (Nombre y firma)</tspan></text>
    <text id="Fecha_hora" data-name="Fecha/hora" transform="translate(712.084 4047.308)" fill="#00223d" font-size="15" font-family="SegoeUI, Segoe UI"><tspan x="-37.094" y="0">Fecha/hora</tspan></text>
    <text id="Recibido_por:_nombre_y_firma_" data-name="Recibido por: (nombre y firma)" transform="translate(1195.42 4044.174)" fill="#00223d" font-size="15" font-family="SegoeUI, Segoe UI"><tspan x="0" y="0">Recibido por: (nombre y firma)</tspan></text>
    <text id="Fecha_hora-2" data-name="Fecha/hora" transform="translate(1104.757 4049.397)" fill="#00223d" font-size="15" font-family="SegoeUI, Segoe UI"><tspan x="-37.094" y="0">Fecha/hora</tspan></text>
    <text id="Cedido_por._Nombre_y_firma_2" data-name="Cedido por. (Nombre y firma)" transform="translate(462.883 4089.033)" fill="#00223d" font-size="15" font-family="SegoeUI, Segoe UI"><tspan x="-97.471" y="0">Cedido por. (Nombre y firma)</tspan></text>
    <text id="Fecha_hora-3" data-name="Fecha/hora" transform="translate(712.084 4089.033)" fill="#00223d" font-size="15" font-family="SegoeUI, Segoe UI"><tspan x="-37.094" y="0">Fecha/hora</tspan></text>
    <text id="Recibido_por:_nombre_y_firma_2" data-name="Recibido por: (nombre y firma)" transform="translate(1195.42 4086.944)" fill="#00223d" font-size="15" font-family="SegoeUI, Segoe UI"><tspan x="0" y="0">Recibido por: (nombre y firma)</tspan></text>
    <text id="Recibido_por:_nombre_y_firma_3" data-name="Recibido por: (nombre y firma)" transform="translate(822.476 4044.174)" fill="#00223d" font-size="15" font-family="SegoeUI, Segoe UI"><tspan x="0" y="0">Recibido por: (nombre y firma)</tspan></text>
    <text id="Recibido_por:_nombre_y_firma_4" data-name="Recibido por: (nombre y firma)" transform="translate(822.476 4086.944)" fill="#00223d" font-size="15" font-family="SegoeUI, Segoe UI"><tspan x="0" y="0">Recibido por: (nombre y firma)</tspan></text>
    <text id="Fecha_hora-4" data-name="Fecha/hora" transform="translate(1104.467 4090.078)" fill="#00223d" font-size="15" font-family="SegoeUI, Segoe UI"><tspan x="-37.094" y="0">Fecha/hora</tspan></text>
    <text id="Cedido_por._Nombre_y_firma_3" data-name="Cedido por. (Nombre y firma)" transform="translate(462.883 4131.592)" fill="#00223d" font-size="15" font-family="SegoeUI, Segoe UI"><tspan x="-97.471" y="0">Cedido por. (Nombre y firma)</tspan></text>
    <text id="El_original_de_distribución_acompaña_a_la_copia_de_envio_para_los_archivos_de_campo_del_coordinador" data-name="El original de distribución acompaña a la copia de envio para los archivos de campo del coordinador" transform="translate(863.442 4172.333)" fill="#fff" font-size="15" font-family="SegoeUI, Segoe UI"><tspan x="-331.549" y="0">El original de distribución acompaña a la copia de envio para los archivos de campo del coordinador</tspan></text>
    <text id="Fecha_hora-5" data-name="Fecha/hora" transform="translate(712.084 4130.547)" fill="#00223d" font-size="15" font-family="SegoeUI, Segoe UI"><tspan x="-37.094" y="0">Fecha/hora</tspan></text>
    <text id="Observaciones" transform="translate(1116.579 4132.636)" fill="#00223d" font-size="15" font-family="SegoeUI, Segoe UI"><tspan x="-48.208" y="0">Observaciones</tspan></text>
    <text id="Fecha_hora-6" data-name="Fecha/hora" transform="translate(861.939 4130.547)" fill="#00223d" font-size="15" font-family="SegoeUI, Segoe UI"><tspan x="-37.094" y="0">Fecha/hora</tspan></text>
    <text id="Sitio_de_muestreo_la_estación" data-name="Sitio de muestreo
la estación" transform="translate(821.633 3639.511)" fill="#fff" font-size="17" font-family="CerebriSans-Bold, Cerebri Sans" font-weight="700"><tspan x="-72.258" y="0">Sitio de muestreo</tspan><tspan x="-44.007" y="17">la estación</tspan></text>
    <text id="Fecha" transform="translate(495.501 3648.156)" fill="#fff" font-size="17" font-family="CerebriSans-Bold, Cerebri Sans" font-weight="700"><tspan x="-24.147" y="0">Fecha</tspan></text>
    <text id="Hora" transform="translate(557.515 3648.156)" fill="#fff" font-size="16" font-family="CerebriSans-Bold, Cerebri Sans" font-weight="700"><tspan x="-18.492" y="0">Hora</tspan></text>
    <text id="Comp." transform="translate(627.537 3648.156)" fill="#fff" font-size="16" font-family="CerebriSans-Bold, Cerebri Sans" font-weight="700"><tspan x="-25.949" y="0">Comp.</tspan></text>
    <text id="Puntual" transform="translate(705.473 3648.156)" fill="#fff" font-size="17" font-family="CerebriSans-Bold, Cerebri Sans" font-weight="700"><tspan x="-31.638" y="0">Puntual</tspan></text>
    <text id="Nombre_del_proyecto:" data-name="Nombre del proyecto:" transform="translate(605.136 3551.647)" fill="#fff" font-size="21" font-family="CerebriSans-Bold, Cerebri Sans" font-weight="700"><tspan x="0" y="0">Nombre del proyecto:</tspan></text>
    <text id="Muestreadores:_Nombre_y_firma_" data-name="Muestreadores: ( Nombre y firma)" transform="translate(628.826 3605.97)" fill="#fff" font-size="21" font-family="CerebriSans-Bold, Cerebri Sans" font-weight="700"><tspan x="-170.343" y="0">Muestreadores: ( Nombre y firma)</tspan></text>
    <text id="No._de_recipientes" data-name="No. de
recipientes" transform="translate(973.474 3578.809)" fill="#fff" font-size="21" font-family="CerebriSans-Bold, Cerebri Sans" font-weight="700"><tspan x="-33.766" y="0">No. de</tspan><tspan x="-56.663" y="25">recipientes</tspan></text>
    <text id="Observaciones-2" data-name="Observaciones" transform="translate(1230.888 3592.389)" fill="#fff" font-size="21" font-family="CerebriSans-Bold, Cerebri Sans" font-weight="700"><tspan x="0" y="0">Observaciones</tspan></text>
    <line id="Línea_225" data-name="Línea 225" y1="149.909" x2="33.679" transform="translate(1057.774 3512.773)" fill="none" stroke="#fff" stroke-miterlimit="10" stroke-width="3"/>
    <line id="Línea_226" data-name="Línea 226" y1="147.297" x2="33.679" transform="translate(1078.667 3512.773)" fill="none" stroke="#fff" stroke-miterlimit="10" stroke-width="3"/>
    <line id="Línea_227" data-name="Línea 227" y1="147.297" x2="33.679" transform="translate(1104.784 3512.773)" fill="none" stroke="#fff" stroke-miterlimit="10" stroke-width="3"/>
    <line id="Línea_228" data-name="Línea 228" y1="147.297" x2="33.679" transform="translate(1130.9 3512.773)" fill="none" stroke="#fff" stroke-miterlimit="10" stroke-width="3"/>
    <line id="Línea_229" data-name="Línea 229" y1="112.823" x2="26.366" transform="translate(1157.017 3547.247)" fill="none" stroke="#fff" stroke-miterlimit="10" stroke-width="3"/>
  </g>
</svg>
