<svg id="Grupo_31320" data-name="Grupo 31320" xmlns="http://www.w3.org/2000/svg" xmlns:xlink="http://www.w3.org/1999/xlink" width="223.632" height="223.635" viewBox="0 0 223.632 223.635">
  <defs>
    <clipPath id="clip-path">
      <rect id="Rectángulo_4678" data-name="Rectángulo 4678" width="223.632" height="223.634" fill="none"/>
    </clipPath>
  </defs>
  <rect id="Rectángulo_4676" data-name="Rectángulo 4676" width="146.563" height="146.563" transform="translate(8.18 111.818) rotate(-45)" fill="#fff"/>
  <g id="Grupo_31319" data-name="Grupo 31319">
    <g id="Grupo_31318" data-name="Grupo 31318" clip-path="url(#clip-path)">
      <rect id="Rectángulo_4677" data-name="Rectángulo 4677" width="146.563" height="146.563" transform="translate(8.18 111.818) rotate(-45)" fill="none" stroke="#d9000d" stroke-width="7.018"/>
      <path id="Trazado_50815" data-name="Trazado 50815" d="M80.981,30.166c-8.862,0-15.869,3.091-18.136,5.77a72.1,72.1,0,0,1-8.037,7.625c-3.091,2.679-9.48,7.213-5.977,13.6A61.914,61.914,0,0,0,54.4,66.025" transform="translate(31.014 19.568)" fill="none" stroke="#161615" stroke-width="1.701"/>
      <path id="Trazado_50816" data-name="Trazado 50816" d="M68.371,70.229s-7.831-3.5-12.571-5.77-5.77-4.328-7.419-7.007-9.274-5.976-10.3-1.03a18.647,18.647,0,0,0,.412,9.068" transform="translate(24.459 34.943)" fill="none" stroke="#161615" stroke-width="1.701"/>
      <path id="Trazado_50817" data-name="Trazado 50817" d="M38.771,57.916c-2.061,1.649-3.091,2.267-3.091,5.564s2.679,6.595,6.8,3.916,7.213-1.649,9.274-.618,17.93,9.068,17.93,9.068" transform="translate(23.145 37.569)" fill="none" stroke="#161615" stroke-width="1.701"/>
      <path id="Trazado_50818" data-name="Trazado 50818" d="M39.18,80.767s.206,8.45,1.649,10.51,4.328,5.358,9.068.824.206-5.564,6.8-9.068,16.281-8.243,16.281-8.243" transform="translate(25.416 48.516)" fill="none" stroke="#161615" stroke-width="1.701"/>
      <path id="Trazado_50819" data-name="Trazado 50819" d="M71.21,71.541S59.875,76.9,54.929,79.166s-8.037-.206-9.892-.618-9.274-.206-9.48,3.5,5.977,5.77,5.977,5.77" transform="translate(23.062 46.408)" fill="none" stroke="#161615" stroke-width="1.701"/>
      <path id="Trazado_50820" data-name="Trazado 50820" d="M67.93,30.166c8.862,0,15.869,3.091,18.136,5.77A72.1,72.1,0,0,0,94.1,43.562c3.091,2.679,9.48,7.213,5.977,13.6a61.914,61.914,0,0,1-5.564,8.862" transform="translate(44.066 19.568)" fill="none" stroke="#161615" stroke-width="1.701"/>
      <path id="Trazado_50821" data-name="Trazado 50821" d="M101.763,40.916c3.916,4.122,5.77,7.213,4.534,11.953s-1.855,5.564-.618,7.625,1.649,7.831-.206,10.51-10.716,7.213-12.365,8.45-2.473,1.855-2.267,3.71.206,4.946-2.679,6.389a20.1,20.1,0,0,1-18.548,0c-2.885-1.443-2.885-4.534-2.679-6.389s-.618-2.473-2.267-3.71S54.157,73.684,52.3,71s-1.443-8.45-.206-10.51.618-2.885-.618-7.625.618-7.831,4.534-11.953" transform="translate(33.108 26.542)" fill="none" stroke="#161615" stroke-width="1.701"/>
      <path id="Trazado_50822" data-name="Trazado 50822" d="M94.238,62.666s1.237,8.656-.412,12.571-3.916,7.213-8.037,9.274-8.45,3.3-10.3,3.3-6.183-1.237-10.3-3.3-6.389-5.358-8.037-9.274-.412-12.571-.412-12.571" transform="translate(36.512 40.651)" fill="none" stroke="#161615" stroke-width="1.701"/>
      <path id="Trazado_50823" data-name="Trazado 50823" d="M79.555,70.229s7.831-3.5,12.571-5.77,5.77-4.328,7.419-7.007,9.274-5.976,10.3-1.03a18.646,18.646,0,0,1-.412,9.068" transform="translate(51.607 34.943)" fill="none" stroke="#161615" stroke-width="1.701"/>
      <path id="Trazado_50824" data-name="Trazado 50824" d="M110.468,57.916c2.061,1.649,3.091,2.267,3.091,5.564s-2.679,6.595-6.8,3.916-7.213-1.649-9.274-.618-17.93,9.068-17.93,9.068" transform="translate(51.607 37.569)" fill="none" stroke="#161615" stroke-width="1.701"/>
      <path id="Trazado_50825" data-name="Trazado 50825" d="M109.978,80.767s-.206,8.45-1.649,10.51S104,96.636,99.262,92.1s-.206-5.564-6.8-9.068S76.18,74.791,76.18,74.791" transform="translate(49.417 48.516)" fill="none" stroke="#161615" stroke-width="1.701"/>
      <path id="Trazado_50826" data-name="Trazado 50826" d="M78.68,71.541S90.015,76.9,94.961,79.166s8.037-.206,9.892-.618,9.274-.206,9.48,3.5-5.977,5.77-5.977,5.77" transform="translate(51.039 46.408)" fill="none" stroke="#161615" stroke-width="1.701"/>
      <path id="Trazado_50827" data-name="Trazado 50827" d="M66.948,52s-5.637.137-9.62.137-2.473,3.024-2.2,3.985,3.022,6.046,5.77,6.183,4.672-.412,5.635-1.512a40.534,40.534,0,0,0,3.433-4.808c1.1-1.787,0-3.573-3.02-3.985" transform="translate(35.433 33.732)" fill="#161615"/>
      <path id="Trazado_50828" data-name="Trazado 50828" d="M66.948,52s-5.637.137-9.62.137-2.473,3.024-2.2,3.985,3.022,6.046,5.77,6.183,4.672-.412,5.635-1.512a40.534,40.534,0,0,0,3.433-4.808C71.07,54.2,69.972,52.412,66.948,52Z" transform="translate(35.433 33.732)" fill="none" stroke="#161615" stroke-linejoin="round" stroke-width="0.25"/>
      <path id="Trazado_50829" data-name="Trazado 50829" d="M75.116,52s5.637.137,9.618.137,2.473,3.024,2.2,3.985-3.022,6.046-5.77,6.183-4.672-.412-5.634-1.512a40.338,40.338,0,0,1-3.434-4.808c-1.1-1.787,0-3.573,3.022-3.985" transform="translate(46.496 33.732)" fill="#161615"/>
      <path id="Trazado_50830" data-name="Trazado 50830" d="M75.116,52s5.637.137,9.618.137,2.473,3.024,2.2,3.985-3.022,6.046-5.77,6.183-4.672-.412-5.634-1.512a40.338,40.338,0,0,1-3.434-4.808C70.994,54.2,72.092,52.412,75.116,52Z" transform="translate(46.496 33.732)" fill="none" stroke="#161615" stroke-linejoin="round" stroke-width="0.25"/>
      <path id="Trazado_50831" data-name="Trazado 50831" d="M70.211,69.666c1.373,0,1.926,1.512,3.985,1.512s2.2-3.024,1.237-4.122a7.213,7.213,0,0,1-1.375-3.573c-.275-1.237-1.373-3.985-3.846-3.985s-3.571,2.748-3.845,3.985a7.231,7.231,0,0,1-1.377,3.573c-.961,1.1-.824,4.122,1.237,4.122s2.613-1.512,3.985-1.512" transform="translate(41.785 38.596)" fill="#161615"/>
      <path id="Trazado_50832" data-name="Trazado 50832" d="M70.211,69.666c1.373,0,1.926,1.512,3.985,1.512s2.2-3.024,1.237-4.122a7.213,7.213,0,0,1-1.375-3.573c-.275-1.237-1.373-3.985-3.846-3.985s-3.571,2.748-3.845,3.985a7.231,7.231,0,0,1-1.377,3.573c-.961,1.1-.824,4.122,1.237,4.122S68.839,69.666,70.211,69.666Z" transform="translate(41.785 38.596)" fill="none" stroke="#161615" stroke-linejoin="round" stroke-width="0.25"/>
    </g>
  </g>
</svg>
