<svg id="Grupo_31317" data-name="Grupo 31317" xmlns="http://www.w3.org/2000/svg" xmlns:xlink="http://www.w3.org/1999/xlink" width="223.633" height="223.635" viewBox="0 0 223.633 223.635">
  <defs>
    <clipPath id="clip-path">
      <rect id="Rectángulo_4675" data-name="Rectángulo 4675" width="223.633" height="223.634" fill="none"/>
    </clipPath>
  </defs>
  <rect id="Rectángulo_4673" data-name="Rectángulo 4673" width="146.564" height="146.563" transform="translate(8.181 111.818) rotate(-45)" fill="#fff"/>
  <g id="Grupo_31316" data-name="Grupo 31316">
    <g id="Grupo_31315" data-name="Grupo 31315" clip-path="url(#clip-path)">
      <rect id="Rectángulo_4674" data-name="Rectángulo 4674" width="146.564" height="146.563" transform="translate(8.181 111.818) rotate(-45)" fill="none" stroke="#d9000d" stroke-width="7.018"/>
      <path id="Trazado_50795" data-name="Trazado 50795" d="M45.6,58.89c-.59,1.115,1.1,3.091,1.167,5.083a4.157,4.157,0,0,1-2.473,3.64c-.687.206-.137,2.061.275,3.5A41.115,41.115,0,0,1,45.81,77.3c.069,1.373-.275,3.091-2.542,3.091-2.318,0-2.452-3.449-2.267-4.6.275-1.718,1.512-5.085,1.924-6.8a3.187,3.187,0,0,0-.275-2.612c-1.924-1.924-.274-5.289.481-6.662a7.406,7.406,0,0,0,.427-4.2L40.864,43.776a3.761,3.761,0,0,0,4.4,2.542c7.213-1.169,26.651-4.508,30.252-5.071,5.213-.806,7.393,3.174,7.393,4.59l.015.16c.325,3.4-1.6,5.629-5.721,6.61-4.628,1.1-21.827,3.808-28.916,4.906-1.3.274-2.061.208-2.679,1.377m-1.19-9.917,1.054,4.353c4.961-.765,26.194-1.8,31.192-2.992,4.232-1.007,4.031-3.106,3.935-4.113-.015-.162-.025-.29-.025-.382a4.082,4.082,0,0,0-4.7-2.28c-3.815.6-25.988,4.461-31.46,5.416" transform="translate(26.508 26.687)" fill="#010000"/>
      <path id="Trazado_50796" data-name="Trazado 50796" d="M45.6,58.89c-.59,1.115,1.1,3.091,1.167,5.083a4.157,4.157,0,0,1-2.473,3.64c-.687.206-.137,2.061.275,3.5A41.115,41.115,0,0,1,45.81,77.3c.069,1.373-.275,3.091-2.542,3.091-2.318,0-2.452-3.449-2.267-4.6.275-1.718,1.512-5.085,1.924-6.8a3.187,3.187,0,0,0-.275-2.612c-1.924-1.924-.274-5.289.481-6.662a7.406,7.406,0,0,0,.427-4.2L40.864,43.776a3.761,3.761,0,0,0,4.4,2.542c7.213-1.169,26.651-4.508,30.252-5.071,5.213-.806,7.393,3.174,7.393,4.59l.015.16c.325,3.4-1.6,5.629-5.721,6.61-4.628,1.1-21.827,3.808-28.916,4.906C46.979,57.787,46.222,57.721,45.6,58.89Zm-1.19-9.917,1.054,4.353c4.961-.765,26.194-1.8,31.192-2.992,4.232-1.007,4.031-3.106,3.935-4.113-.015-.162-.025-.29-.025-.382a4.082,4.082,0,0,0-4.7-2.28C72.059,44.152,49.886,48.018,44.414,48.973Z" transform="translate(26.508 26.687)" fill="none" stroke="#161615" stroke-width="0.283"/>
      <path id="Trazado_50797" data-name="Trazado 50797" d="M103.54,57.513c-7.091-1.1-24.289-3.8-28.918-4.906C70.5,51.625,68.576,49.4,68.9,46l.015-.16c0-1.416,2.178-5.4,7.393-4.59,3.6.564,23.039,3.9,30.252,5.071a3.763,3.763,0,0,0,4.4-2.542l-2.7,11.734a7.4,7.4,0,0,0,.429,4.2c.753,1.373,2.213,2.471.287,4.4a3.187,3.187,0,0,0-.275,2.612c.412,1.716,1.649,5.083,1.924,6.8.185,1.152.051,4.6-2.267,4.6-2.267,0-2.612-1.718-2.542-3.091a41.115,41.115,0,0,1,1.237-6.183c.412-1.443.964-3.3.275-3.5a3.777,3.777,0,0,1-1.99-3.571c.066-1.993,1.469-1.771.879-2.885-.618-1.169-1.377-1.1-2.679-1.377m3.868-8.54c-5.47-.955-27.647-4.821-31.459-5.416a4.084,4.084,0,0,0-4.7,2.28c0,.092-.01.221-.023.382-.1,1.007-.3,3.106,3.932,4.113,5,1.19,26.232,2.227,31.193,2.992Z" transform="translate(44.673 26.687)" fill="#010000"/>
      <path id="Trazado_50798" data-name="Trazado 50798" d="M103.54,57.513c-7.091-1.1-24.289-3.8-28.918-4.906C70.5,51.625,68.576,49.4,68.9,46l.015-.16c0-1.416,2.178-5.4,7.393-4.59,3.6.564,23.039,3.9,30.252,5.071a3.763,3.763,0,0,0,4.4-2.542l-2.7,11.734a7.4,7.4,0,0,0,.429,4.2c.753,1.373,2.213,2.471.287,4.4a3.187,3.187,0,0,0-.275,2.612c.412,1.716,1.649,5.083,1.924,6.8.185,1.152.051,4.6-2.267,4.6-2.267,0-2.612-1.718-2.542-3.091a41.115,41.115,0,0,1,1.237-6.183c.412-1.443.964-3.3.275-3.5a3.777,3.777,0,0,1-1.99-3.571c.066-1.993,1.469-1.771.879-2.885C105.6,57.721,104.842,57.787,103.54,57.513Zm3.868-8.54c-5.47-.955-27.647-4.821-31.459-5.416a4.084,4.084,0,0,0-4.7,2.28c0,.092-.01.221-.023.382-.1,1.007-.3,3.106,3.932,4.113,5,1.19,26.232,2.227,31.193,2.992Z" transform="translate(44.673 26.687)" fill="none" stroke="#161615" stroke-width="0.283"/>
      <path id="Trazado_50799" data-name="Trazado 50799" d="M62.168,69.091a9.174,9.174,0,0,1-14.883-.114l0,.054H23.134V80.366h61.93V69.031h-22.9Z" transform="translate(15.007 44.744)" fill="#161615"/>
      <path id="Trazado_50800" data-name="Trazado 50800" d="M33.447,58.864s3.161,2.679,2.679,4.4-.755,2.953.961,4.052,1.924.961,1.924.961" transform="translate(21.697 38.184)" fill="none" stroke="#161615" stroke-width="1.276"/>
      <path id="Trazado_50801" data-name="Trazado 50801" d="M38.059,60.947c-.549,2.336-1.855,7.351-.894,9.137s1.973,1.7,3.024,2.4a15.9,15.9,0,0,1,2.2,1.924" transform="translate(23.886 39.535)" fill="none" stroke="#161615" stroke-width="1.276"/>
      <path id="Trazado_50802" data-name="Trazado 50802" d="M36.989,63.822c2.13,1.237,3.779,2.748,2.473,6.458" transform="translate(23.994 41.4)" fill="none" stroke="#161615" stroke-width="1.276"/>
      <path id="Trazado_50803" data-name="Trazado 50803" d="M47.962,59.906c.206,1.306,1.373,2.954.755,4.122s-2.4,1.718-2.473,3.71.481,3.71-1.922,5.5" transform="translate(28.751 38.86)" fill="none" stroke="#161615" stroke-miterlimit="3" stroke-width="1.276"/>
      <path id="Trazado_50804" data-name="Trazado 50804" d="M53.793,58.531c-1.512,1.718-2.473,2.61-2.473,4.946s.069,2.954-1.167,3.64-1.993,1.169-1.924,2.336a5.587,5.587,0,0,1-2.2,4.6" transform="translate(29.86 37.968)" fill="none" stroke="#161615" stroke-miterlimit="3" stroke-width="1.276"/>
      <path id="Trazado_50805" data-name="Trazado 50805" d="M99.589,53.156c.206,1.306,1.375,2.954.757,4.122S97.94,59,97.873,60.987s.478,3.71-1.926,5.5" transform="translate(62.24 34.482)" fill="none" stroke="#161615" stroke-miterlimit="3" stroke-width="1.276"/>
      <path id="Trazado_50806" data-name="Trazado 50806" d="M105.42,51.781c-1.515,1.718-2.473,2.61-2.473,4.946s.066,2.954-1.171,3.64-1.993,1.169-1.921,2.336a5.592,5.592,0,0,1-2.2,4.6" transform="translate(63.348 33.59)" fill="none" stroke="#161615" stroke-miterlimit="3" stroke-width="1.276"/>
      <path id="Trazado_50807" data-name="Trazado 50807" d="M116.335,69.241s-6.661.275-8.586-.961-3.845-2.473-4.463-2.748-1.237-1.1-2.544-.069-6.458,2.612-10.992-1.1a17.663,17.663,0,0,1-5.358.961s-2.4.688.552,3.3" transform="translate(54.147 41.752)" fill="none" stroke="#010000" stroke-width="1.276"/>
      <path id="Trazado_50808" data-name="Trazado 50808" d="M91.506,65.822c-1.306,3.5-3.294,8.38,6.46,9.686" transform="translate(58.644 42.698)" fill="none" stroke="#010000" stroke-width="1.276"/>
      <path id="Trazado_50809" data-name="Trazado 50809" d="M103.071,66.947a42.752,42.752,0,0,1-6.319.275H81.913s-3.091,0-3.091,4.189" transform="translate(51.131 43.428)" fill="none" stroke="#010000" stroke-width="1.276"/>
      <path id="Trazado_50810" data-name="Trazado 50810" d="M93.576,69.739H78.253s-2.369.137-2.369,2.369a2.312,2.312,0,0,0,2.3,2.3H93.5" transform="translate(49.225 45.239)" fill="none" stroke="#010000" stroke-width="1.276"/>
      <path id="Trazado_50811" data-name="Trazado 50811" d="M78.642,72.572s-.824,4.054,3.225,4.054h12.5" transform="translate(50.97 47.076)" fill="none" stroke="#010000" stroke-width="1.276"/>
      <path id="Trazado_50812" data-name="Trazado 50812" d="M81.989,75.072c-.824,1.237-1.169,4.054,2.679,4.054s14.086.274,16.009.274,5.492-.069,7.691-1.03,5.014-2.128,5.977-2.128h3.231" transform="translate(52.841 48.698)" fill="none" stroke="#010000" stroke-width="1.276"/>
      <path id="Trazado_50813" data-name="Trazado 50813" d="M82.447,52.947c1.751,2.163,2.267,3.3,2.369,4.638s-.412,2.575.722,3.4,2.371,1.443,2.371,2.473-.206,1.855.824,2.989A11.831,11.831,0,0,0,90.69,68.2" transform="translate(53.483 34.346)" fill="none" stroke="#010000" stroke-width="1.276"/>
      <path id="Trazado_50814" data-name="Trazado 50814" d="M87.2,53.51s-1.751,3.194-.514,4.534,2.471,2.369,2.471,3.5-.514,1.957.412,2.987L91.424,66.6" transform="translate(55.944 34.711)" fill="none" stroke="#010000" stroke-width="1.276"/>
    </g>
  </g>
</svg>
