<svg xmlns="http://www.w3.org/2000/svg" width="248.516" height="397.758" viewBox="0 0 248.516 397.758">
  <g id="Grupo_16591" data-name="Grupo 16591" transform="translate(-6916.258 -2547.857)">
    <rect id="Rectángulo_4564" data-name="Rectángulo 4564" width="248.516" height="397.758" transform="translate(6916.258 2547.857)" fill="#e4edf4"/>
    <rect id="Rectángulo_4565" data-name="Rectángulo 4565" width="222.475" height="2.115" transform="translate(6928.155 2673.173)" fill="#bdc2c6"/>
    <rect id="Rectángulo_4566" data-name="Rectángulo 4566" width="189.163" height="2.115" transform="translate(6944.414 2920.632)" fill="#bdc2c6"/>
    <rect id="Rectángulo_4567" data-name="Rectángulo 4567" width="189.163" height="2.115" transform="translate(6944.414 2925.787)" fill="#bdc2c6"/>
    <rect id="Rectángulo_4568" data-name="Rectángulo 4568" width="189.163" height="2.115" transform="translate(6944.414 2930.942)" fill="#bdc2c6"/>
    <rect id="Rectángulo_4569" data-name="Rectángulo 4569" width="189.163" height="2.115" transform="translate(6944.414 2936.098)" fill="#bdc2c6"/>
    <rect id="Rectángulo_4570" data-name="Rectángulo 4570" width="222.475" height="2.115" transform="translate(6928.155 2676.874)" fill="#bdc2c6"/>
    <rect id="Rectángulo_4571" data-name="Rectángulo 4571" width="222.475" height="2.115" transform="translate(6928.155 2680.576)" fill="#bdc2c6"/>
    <rect id="Rectángulo_4572" data-name="Rectángulo 4572" width="222.475" height="2.115" transform="translate(6928.155 2684.277)" fill="#bdc2c6"/>
    <rect id="Rectángulo_4573" data-name="Rectángulo 4573" width="222.475" height="2.115" transform="translate(6928.155 2687.978)" fill="#bdc2c6"/>
    <rect id="Rectángulo_4574" data-name="Rectángulo 4574" width="222.475" height="2.115" transform="translate(6928.155 2691.679)" fill="#bdc2c6"/>
    <rect id="Rectángulo_4575" data-name="Rectángulo 4575" width="222.475" height="2.115" transform="translate(6928.155 2695.381)" fill="#bdc2c6"/>
    <rect id="Rectángulo_4576" data-name="Rectángulo 4576" width="222.475" height="2.115" transform="translate(6928.155 2699.082)" fill="#bdc2c6"/>
    <rect id="Rectángulo_4577" data-name="Rectángulo 4577" width="222.475" height="2.115" transform="translate(6928.155 2702.783)" fill="#bdc2c6"/>
    <rect id="Rectángulo_4578" data-name="Rectángulo 4578" width="222.475" height="2.115" transform="translate(6928.155 2706.485)" fill="#bdc2c6"/>
    <rect id="Rectángulo_4579" data-name="Rectángulo 4579" width="222.475" height="2.115" transform="translate(6928.155 2710.186)" fill="#bdc2c6"/>
    <rect id="Rectángulo_4580" data-name="Rectángulo 4580" width="222.475" height="2.115" transform="translate(6928.155 2713.887)" fill="#bdc2c6"/>
    <rect id="Rectángulo_4581" data-name="Rectángulo 4581" width="222.475" height="2.115" transform="translate(6928.155 2717.589)" fill="#bdc2c6"/>
    <rect id="Rectángulo_4582" data-name="Rectángulo 4582" width="222.475" height="2.115" transform="translate(6928.155 2721.29)" fill="#bdc2c6"/>
    <rect id="Rectángulo_4583" data-name="Rectángulo 4583" width="222.475" height="2.115" transform="translate(6928.155 2724.991)" fill="#bdc2c6"/>
    <rect id="Rectángulo_4584" data-name="Rectángulo 4584" width="222.475" height="2.115" transform="translate(6928.155 2728.693)" fill="#bdc2c6"/>
    <rect id="Rectángulo_4585" data-name="Rectángulo 4585" width="222.475" height="2.115" transform="translate(6928.155 2732.394)" fill="#bdc2c6"/>
    <rect id="Rectángulo_4586" data-name="Rectángulo 4586" width="222.475" height="2.115" transform="translate(6928.155 2736.095)" fill="#bdc2c6"/>
    <rect id="Rectángulo_4587" data-name="Rectángulo 4587" width="222.475" height="2.115" transform="translate(6928.155 2739.796)" fill="#bdc2c6"/>
    <rect id="Rectángulo_4588" data-name="Rectángulo 4588" width="222.475" height="2.115" transform="translate(6928.155 2743.498)" fill="#bdc2c6"/>
    <rect id="Rectángulo_4589" data-name="Rectángulo 4589" width="222.475" height="2.115" transform="translate(6928.155 2747.199)" fill="#bdc2c6"/>
    <rect id="Rectángulo_4590" data-name="Rectángulo 4590" width="222.475" height="2.115" transform="translate(6928.155 2750.9)" fill="#bdc2c6"/>
    <rect id="Rectángulo_4591" data-name="Rectángulo 4591" width="222.475" height="2.115" transform="translate(6928.155 2754.602)" fill="#bdc2c6"/>
    <rect id="Rectángulo_4592" data-name="Rectángulo 4592" width="222.475" height="2.115" transform="translate(6928.155 2758.303)" fill="#bdc2c6"/>
    <rect id="Rectángulo_4593" data-name="Rectángulo 4593" width="222.475" height="2.115" transform="translate(6928.155 2762.004)" fill="#bdc2c6"/>
    <rect id="Rectángulo_4594" data-name="Rectángulo 4594" width="222.475" height="2.115" transform="translate(6928.155 2765.706)" fill="#bdc2c6"/>
    <rect id="Rectángulo_4595" data-name="Rectángulo 4595" width="222.475" height="2.115" transform="translate(6928.155 2769.407)" fill="#bdc2c6"/>
    <rect id="Rectángulo_4596" data-name="Rectángulo 4596" width="222.475" height="2.115" transform="translate(6928.155 2773.108)" fill="#bdc2c6"/>
    <rect id="Rectángulo_4597" data-name="Rectángulo 4597" width="222.475" height="2.115" transform="translate(6928.155 2776.81)" fill="#bdc2c6"/>
    <rect id="Rectángulo_4598" data-name="Rectángulo 4598" width="222.475" height="2.115" transform="translate(6928.155 2780.511)" fill="#bdc2c6"/>
    <rect id="Rectángulo_4599" data-name="Rectángulo 4599" width="222.475" height="2.115" transform="translate(6928.155 2784.212)" fill="#bdc2c6"/>
    <rect id="Rectángulo_4600" data-name="Rectángulo 4600" width="222.475" height="2.115" transform="translate(6928.155 2787.913)" fill="#bdc2c6"/>
    <rect id="Rectángulo_4601" data-name="Rectángulo 4601" width="222.475" height="2.115" transform="translate(6928.155 2791.615)" fill="#bdc2c6"/>
    <rect id="Rectángulo_4602" data-name="Rectángulo 4602" width="222.475" height="2.115" transform="translate(6928.155 2823.076)" fill="#bdc2c6"/>
    <rect id="Rectángulo_4603" data-name="Rectángulo 4603" width="222.475" height="2.115" transform="translate(6928.155 2826.777)" fill="#bdc2c6"/>
    <rect id="Rectángulo_4604" data-name="Rectángulo 4604" width="222.475" height="2.115" transform="translate(6928.155 2830.479)" fill="#bdc2c6"/>
    <rect id="Rectángulo_4605" data-name="Rectángulo 4605" width="222.475" height="2.115" transform="translate(6928.155 2834.18)" fill="#bdc2c6"/>
    <rect id="Rectángulo_4606" data-name="Rectángulo 4606" width="222.475" height="2.115" transform="translate(6928.155 2848.192)" fill="#bdc2c6"/>
    <rect id="Rectángulo_4607" data-name="Rectángulo 4607" width="222.475" height="2.115" transform="translate(6928.155 2851.893)" fill="#bdc2c6"/>
    <rect id="Rectángulo_4608" data-name="Rectángulo 4608" width="222.475" height="2.115" transform="translate(6928.155 2855.594)" fill="#bdc2c6"/>
    <rect id="Rectángulo_4609" data-name="Rectángulo 4609" width="222.475" height="2.115" transform="translate(6928.155 2859.296)" fill="#bdc2c6"/>
    <rect id="Rectángulo_4610" data-name="Rectángulo 4610" width="248.516" height="2.115" transform="translate(6916.258 2588.307)" fill="#cce0ed"/>
    <rect id="Rectángulo_4611" data-name="Rectángulo 4611" width="248.516" height="2.115" transform="translate(6916.258 2657.575)" fill="#cce0ed"/>
    <rect id="Rectángulo_4612" data-name="Rectángulo 4612" width="248.516" height="2.115" transform="translate(6916.258 2798.224)" fill="#cce0ed"/>
    <text id="FICHA_DE_SEGURIDAD" data-name="FICHA DE 
SEGURIDAD" transform="translate(7002.445 2565.571)" fill="#00223d" font-size="12.294" font-family="CerebriSans-Bold, Cerebri Sans" font-weight="700"><tspan x="-30.404" y="0">FICHA DE </tspan><tspan x="-35.695" y="14.752">SEGURIDAD</tspan></text>
    <text id="_1._ELEMENTOS_DE_PROTECCIÓN_PERSONAL" data-name="1. ELEMENTOS DE PROTECCIÓN PERSONAL" transform="translate(6928.419 2599.413)" fill="#00223d" font-size="6.842" font-family="CerebriSans-Bold, Cerebri Sans" font-weight="700"><tspan x="0" y="0">1. ELEMENTOS DE PROTECCIÓN PERSONAL</tspan></text>
    <text id="_2._NORMAS_GENERALES_DENTRO_DEL_LABORATORIO" data-name="2. NORMAS GENERALES DENTRO DEL LABORATORIO" transform="translate(6928.419 2669.725)" fill="#00223d" font-size="6.842" font-family="CerebriSans-Bold, Cerebri Sans" font-weight="700"><tspan x="0" y="0">2. NORMAS GENERALES DENTRO DEL LABORATORIO</tspan></text>
    <text id="_3._RIESGOS_PELIGROS_EN_EL_LABORATORIO" data-name="3. RIESGOS PELIGROS EN EL LABORATORIO" transform="translate(6928.419 2810.395)" fill="#00223d" font-size="6.842" font-family="CerebriSans-Bold, Cerebri Sans" font-weight="700"><tspan x="0" y="0">3. RIESGOS PELIGROS EN EL LABORATORIO</tspan></text>
    <text id="Riesgos_físicos" data-name="Riesgos físicos" transform="translate(6928.419 2820.09)" fill="#00223d" font-size="5.19" font-family="CerebriSans-Bold, Cerebri Sans" font-weight="700"><tspan x="0" y="0">Riesgos físicos</tspan></text>
    <text id="Riesgos_químicos" data-name="Riesgos químicos" transform="translate(6928.419 2844.413)" fill="#00223d" font-size="5.19" font-family="CerebriSans-Bold, Cerebri Sans" font-weight="700"><tspan x="0" y="0">Riesgos químicos</tspan></text>
    <g id="Grupo_16562" data-name="Grupo 16562">
      <rect id="Rectángulo_4613" data-name="Rectángulo 4613" width="30.808" height="48.619" transform="translate(6974.009 2605.254)" fill="#0056af"/>
      <rect id="Rectángulo_4614" data-name="Rectángulo 4614" width="26.957" height="44.503" transform="translate(6975.934 2607.685)" fill="#fff"/>
      <rect id="Rectángulo_4615" data-name="Rectángulo 4615" width="22.264" height="10.939" transform="translate(6978.221 2638.53)" fill="#0056af"/>
      <g id="Grupo_16561" data-name="Grupo 16561">
        <path id="Trazado_42239" data-name="Trazado 42239" d="M7001.928,2621.558a12.195,12.195,0,1,1-12.192-12.453A12.324,12.324,0,0,1,7001.928,2621.558Z" fill="#0056af"/>
        <g id="Grupo_16560" data-name="Grupo 16560">
          <g id="Grupo_16547" data-name="Grupo 16547">
            <path id="Trazado_42240" data-name="Trazado 42240" d="M6995.92,2620.867c.091-.421,1.585-8.245-6.065-8.428v0c-.041,0-.079,0-.119,0s-.078,0-.119,0v0c-7.65.183-6.157,8.007-6.064,8.428-.56-.428-1.727-.726-1.12,1.615s1.54,3.293,2.1,2.722c.459,1.171.369,3.949,5.173,5.447,0,0,.061.039.093.03.032.009.093-.03.093-.03,4.8-1.5,4.591-4.276,5.049-5.447.56.571,1.493-.381,2.1-2.722S6996.48,2620.439,6995.92,2620.867Z" fill="#0056af"/>
            <path id="Trazado_42241" data-name="Trazado 42241" d="M6989.809,2630.872h-.027a.334.334,0,0,1-.152-.045c-4.133-1.3-4.727-3.562-5.082-4.918-.039-.149-.075-.286-.112-.409a.614.614,0,0,1-.256.057c-.706,0-1.444-1.16-1.927-3.026-.243-.934-.236-1.552.017-1.889a.814.814,0,0,1,1.028-.145c-.158-1.066-.394-3.95,1.2-6.029a6.182,6.182,0,0,1,4.933-2.213v-.007l.186,0,.077,0h.085l.076,0h.187v.011a6.183,6.183,0,0,1,4.933,2.213c1.593,2.079,1.357,4.963,1.2,6.029a.815.815,0,0,1,1.028.145c.254.337.259.955.017,1.889-.482,1.865-1.221,3.026-1.926,3.026h0a.64.64,0,0,1-.255-.055c-.039.134-.076.285-.115.449-.326,1.345-.87,3.594-4.957,4.876A.341.341,0,0,1,6989.809,2630.872Zm-5.208-6.008.1.27a6.211,6.211,0,0,1,.2.677c.358,1.364.9,3.425,4.851,4.657l.035.015h.007l.035-.014c3.9-1.218,4.4-3.258,4.724-4.608a5.586,5.586,0,0,1,.207-.726l.1-.27.2.205a.306.306,0,0,0,.221.106c.412,0,1.078-.858,1.566-2.742.272-1.05.146-1.427.047-1.558a.278.278,0,0,0-.247-.112,1.133,1.133,0,0,0-.627.257l-.4.309.109-.5c.008-.037.784-3.723-1.056-6.123a5.917,5.917,0,0,0-4.831-2.073l-.1,0h-.06l-.066,0a5.914,5.914,0,0,0-4.83,2.073c-1.841,2.4-1.065,6.086-1.057,6.123l.109.5-.4-.309a1.132,1.132,0,0,0-.627-.257.28.28,0,0,0-.247.112c-.1.131-.224.508.048,1.558.487,1.884,1.154,2.742,1.566,2.742a.306.306,0,0,0,.22-.106Z" fill="#fff"/>
          </g>
          <g id="Grupo_16559" data-name="Grupo 16559">
            <g id="Grupo_16548" data-name="Grupo 16548">
              <path id="Trazado_42242" data-name="Trazado 42242" d="M6988.8,2621.635l.932-.646.932.646Z" fill="#fff"/>
              <path id="Trazado_42243" data-name="Trazado 42243" d="M6988.8,2620.992l.932-.646.932.646Z" fill="#fff"/>
            </g>
            <g id="Grupo_16553" data-name="Grupo 16553">
              <g id="Grupo_16551" data-name="Grupo 16551">
                <g id="Grupo_16549" data-name="Grupo 16549">
                  <path id="Trazado_42244" data-name="Trazado 42244" d="M6992.536,2624.755a1.96,1.96,0,0,1-1.852-2.048V2620.4h3.7v2.309A1.958,1.958,0,0,1,6992.536,2624.755Z" fill="#fff"/>
                  <path id="Trazado_42245" data-name="Trazado 42245" d="M6994.386,2620.4v2.309a1.861,1.861,0,1,1-3.7,0V2620.4h3.7m.191-.209h-4.083v2.518a2.052,2.052,0,1,0,4.083,0v-2.518Z" fill="#0161a9"/>
                </g>
                <g id="Grupo_16550" data-name="Grupo 16550">
                  <path id="Trazado_42246" data-name="Trazado 42246" d="M6991.331,2622.7v-1.578h2.409v1.578a1.211,1.211,0,1,1-2.409,0Z" fill="#fff"/>
                  <path id="Trazado_42247" data-name="Trazado 42247" d="M6993.74,2621.121v1.578a1.211,1.211,0,1,1-2.409,0v-1.578h2.409m.191-.21h-2.79v1.788a1.4,1.4,0,1,0,2.79,0v-1.788Z" fill="#0161a9"/>
                </g>
              </g>
              <g id="Grupo_16552" data-name="Grupo 16552">
                <path id="Trazado_42248" data-name="Trazado 42248" d="M6995.107,2623.12l-.415.342v-2.183l.725-.5Z" fill="#fff"/>
                <path id="Trazado_42249" data-name="Trazado 42249" d="M6994.687,2620.056h-2.243l3.2-.645Z" fill="#fff"/>
                <path id="Trazado_42250" data-name="Trazado 42250" d="M6995.636,2620.377l-.949.68v-.791l.973-.629Z" fill="#fff"/>
              </g>
            </g>
            <g id="Grupo_16558" data-name="Grupo 16558">
              <g id="Grupo_16556" data-name="Grupo 16556">
                <g id="Grupo_16554" data-name="Grupo 16554">
                  <path id="Trazado_42251" data-name="Trazado 42251" d="M6986.937,2624.687a1.959,1.959,0,0,0,1.851-2.048v-2.308h-3.7v2.308A1.96,1.96,0,0,0,6986.937,2624.687Z" fill="#fff"/>
                  <path id="Trazado_42252" data-name="Trazado 42252" d="M6985.086,2620.331h3.7v2.308a1.861,1.861,0,1,1-3.7,0v-2.308m-.19-.21v2.518a2.052,2.052,0,1,0,4.082,0v-2.518H6984.9Z" fill="#0161a9"/>
                </g>
                <g id="Grupo_16555" data-name="Grupo 16555">
                  <path id="Trazado_42253" data-name="Trazado 42253" d="M6988.142,2622.631v-1.577h-2.409v1.577a1.211,1.211,0,1,0,2.409,0Z" fill="#fff"/>
                  <path id="Trazado_42254" data-name="Trazado 42254" d="M6985.733,2621.054h2.409v1.577a1.211,1.211,0,1,1-2.409,0v-1.577m-.19-.211v1.788a1.4,1.4,0,1,0,2.789,0v-1.788h-2.789Z" fill="#0161a9"/>
                </g>
              </g>
              <g id="Grupo_16557" data-name="Grupo 16557">
                <path id="Trazado_42255" data-name="Trazado 42255" d="M6984.366,2623.053l.416.341v-2.183l-.725-.5Z" fill="#fff"/>
                <path id="Trazado_42256" data-name="Trazado 42256" d="M6984.785,2619.989h2.244l-3.2-.645Z" fill="#fff"/>
                <path id="Trazado_42257" data-name="Trazado 42257" d="M6983.837,2620.31l.948.679v-.79l-.972-.629Z" fill="#fff"/>
              </g>
            </g>
          </g>
        </g>
      </g>
    </g>
    <g id="Grupo_16566" data-name="Grupo 16566">
      <rect id="Rectángulo_4616" data-name="Rectángulo 4616" width="30.808" height="48.619" transform="translate(7010.38 2605.254)" fill="#0056af"/>
      <rect id="Rectángulo_4617" data-name="Rectángulo 4617" width="26.957" height="44.503" transform="translate(7012.306 2607.685)" fill="#fff"/>
      <rect id="Rectángulo_4618" data-name="Rectángulo 4618" width="22.264" height="10.939" transform="translate(7014.592 2638.53)" fill="#0056af"/>
      <g id="Grupo_16565" data-name="Grupo 16565">
        <path id="Trazado_42258" data-name="Trazado 42258" d="M7013.9,2621.552a12.176,12.176,0,1,0,12.175-12.177A12.178,12.178,0,0,0,7013.9,2621.552Z" fill="#0056af"/>
        <g id="Grupo_16564" data-name="Grupo 16564">
          <g id="Grupo_16563" data-name="Grupo 16563">
            <path id="Trazado_42259" data-name="Trazado 42259" d="M7026.049,2628.28l.159-.186-5.909-1.591a3.65,3.65,0,0,0,1.047-3.23c-2.9-6.58-.41-8.642-.087-8.872l.7.047,1.25-1.11a29.015,29.015,0,0,1,3.927.005c1.8.087,3.272,1.006,4.368,4.116l.256-.07c-.731-2.818-2.7-4.229-4.612-4.321a28.052,28.052,0,0,0-4.016,0l-.042,0-1.229,1.093-.673-.047-.038.023c-.132.08-3.234,2.041-.054,9.246.337.729-.549,2.414-.554,2.428l-.571.7Z" fill="#fff"/>
            <path id="Trazado_42260" data-name="Trazado 42260" d="M7021.064,2625.407c.284-.155,3.555-1.991,3.887-2.746l.021-.049-.017-.052c-.434-1.245-.392-1.77-.233-1.891a1,1,0,0,1,1.3-.078l.029-.3a1.1,1.1,0,0,0-1.364.033.738.738,0,0,0-.188.183c-.232.362-.172,1.063.178,2.087-.329.582-2.8,2.02-3.532,2.417Z" fill="#fff"/>
            <path id="Trazado_42261" data-name="Trazado 42261" d="M7026.5,2621.1h.415l.02-.115a14.034,14.034,0,0,0,.162-1.791v-.031l-.013-.03c-.239-.494-.166-.579.053-.832.05-.059.11-.132.172-.214a4.849,4.849,0,0,0,2.411.444l.132-.007v-.416l.469-.035c1.2-.163,1.4-.372,1.448-.536a.25.25,0,0,0-.089-.261l-.17.216,0,0a.031.031,0,0,1,0-.028c0,.007-.1.186-1.213.337l-.715.056v.406a3.925,3.925,0,0,1-2.2-.472l-.117-.11-.091.136a2.867,2.867,0,0,1-.241.306c-.263.307-.389.5-.1,1.1a13.9,13.9,0,0,1-.144,1.6h-.1c-.14-.213-.8-.907-1.1-.66l.08.235c.313-.106.7.428.825.63l.04.068Z" fill="#fff"/>
            <path id="Trazado_42262" data-name="Trazado 42262" d="M7026.049,2628.28l1.787-2.083c.2.047.751.186,1.626.472l.018.005c1.1.221,1.714.033,2.089-.376a1.557,1.557,0,0,0,.269-1.462l0-.017a1.718,1.718,0,0,0,.045-.618l0-.035-.146-.193.169-.04.014-.092a5.837,5.837,0,0,0,.083-.782c.356-.014.576-.115.674-.3a.614.614,0,0,0-.091-.592c0-.01-.78-1.19-1.3-1.956a3.582,3.582,0,0,0-.351-2.487l-.239.139a3.336,3.336,0,0,1,.309,2.334l-.02.064.037.054c.522.759,1.334,2,1.341,2.007.038.054.123.211.072.311s-.259.154-.562.152l-.14,0v.14a5.686,5.686,0,0,1-.064.782l-.4.1.358.468a1.384,1.384,0,0,1-.052.5l-.013.04.012.037a.412.412,0,0,0,.018.066c.073.245.27.9-.079,1.281-.3.329-.977.4-1.956.205-1.113-.362-1.7-.489-1.727-.5l-.08-.014-1.933,2.238Z" fill="#fff"/>
          </g>
          <path id="Trazado_42263" data-name="Trazado 42263" d="M7026.05,2622.784a.442.442,0,1,0,.443-.442A.443.443,0,0,0,7026.05,2622.784Z" fill="#0161a9"/>
          <path id="Trazado_42264" data-name="Trazado 42264" d="M7018.752,2627.032" fill="#fff"/>
          <path id="Trazado_42265" data-name="Trazado 42265" d="M7027.923,2621.536s4.3-.637,4.994.484a6.733,6.733,0,0,1-.154,2.327s-1.029,4.146-4.176,2.332c-3.084-1.542-2.632-3.086-2.632-3.963S7027.923,2621.536,7027.923,2621.536Z" fill="#fff"/>
          <path id="Trazado_42266" data-name="Trazado 42266" d="M7021.813,2623.593l4.744.03.666-1.874h-6.158Z" fill="#fff"/>
          <path id="Trazado_42267" data-name="Trazado 42267" d="M7026.113,2622.979a.781.781,0,1,0,.781-.781A.779.779,0,0,0,7026.113,2622.979Z" fill="#0161a9"/>
        </g>
      </g>
    </g>
    <g id="Grupo_16571" data-name="Grupo 16571">
      <rect id="Rectángulo_4619" data-name="Rectángulo 4619" width="30.808" height="48.619" transform="translate(7046.751 2605.254)" fill="#0056af"/>
      <rect id="Rectángulo_4620" data-name="Rectángulo 4620" width="26.957" height="44.503" transform="translate(7048.677 2607.685)" fill="#fff"/>
      <rect id="Rectángulo_4621" data-name="Rectángulo 4621" width="22.264" height="10.939" transform="translate(7050.963 2638.53)" fill="#0056af"/>
      <g id="Grupo_16570" data-name="Grupo 16570">
        <path id="Trazado_42268" data-name="Trazado 42268" d="M7074.183,2621.831a11.8,11.8,0,1,1-11.8-11.8A11.8,11.8,0,0,1,7074.183,2621.831Z" fill="#0056af"/>
        <g id="Grupo_16569" data-name="Grupo 16569">
          <g id="Grupo_16568" data-name="Grupo 16568">
            <path id="Trazado_42269" data-name="Trazado 42269" d="M7066.231,2614.567c-.449-1.3-1.248-1.2-1.248-1.2h-1.249v-.85h-2.695v.85h-1.249s-.8-.1-1.248,1.2-2.373,5.541-2.373,5.541l.875.8,2.5-4.543.752,4.193-.552,10.585h1.5l1.148-8.75,1.149,8.75h1.5l-.551-10.585.751-4.193,2.5,4.543.876-.8S7066.68,2615.864,7066.231,2614.567Z" fill="#fff"/>
            <path id="Trazado_42270" data-name="Trazado 42270" d="M7062.386,2613.293c.638,0,1.155-.268,1.155-.6h-2.309C7061.232,2613.025,7061.749,2613.293,7062.386,2613.293Z" fill="#0161a9"/>
            <path id="Trazado_42271" data-name="Trazado 42271" d="M7062.462,2622.928l-.076-.536-.076.536v-9.668h.152Z" fill="#0161a9"/>
            <g id="Grupo_16567" data-name="Grupo 16567">
              <path id="Trazado_42272" data-name="Trazado 42272" d="M7063.74,2615.32c-.313,0-.559-.088-.559-.2s.246-.2.559-.2.56.086.56.2S7064.054,2615.32,7063.74,2615.32Zm0-.37c-.286,0-.527.079-.527.172s.241.173.527.173.528-.079.528-.173S7064.027,2614.95,7063.74,2614.95Z" fill="#0161a9"/>
              <path id="Trazado_42273" data-name="Trazado 42273" d="M7063.959,2615.023c.157.214.184.424.061.48s-.341-.069-.5-.283-.184-.422-.062-.478S7063.8,2614.81,7063.959,2615.023Zm-.408.185c.142.2.35.319.453.273s.07-.251-.073-.445-.351-.319-.454-.272S7063.408,2615.015,7063.551,2615.208Z" fill="#0161a9"/>
              <path id="Trazado_42274" data-name="Trazado 42274" d="M7064.02,2614.742c.123.056.1.266-.061.478s-.375.337-.5.283-.095-.266.062-.48S7063.9,2614.687,7064.02,2614.742Zm-.016.022c-.1-.047-.311.078-.453.272s-.177.4-.074.445.311-.078.454-.273S7064.107,2614.81,7064,2614.764Z" fill="#0161a9"/>
            </g>
          </g>
          <rect id="Rectángulo_4622" data-name="Rectángulo 4622" width="1.447" height="0.223" transform="translate(7060.331 2615.707)" fill="#0161a9"/>
        </g>
      </g>
    </g>
    <g id="Grupo_16575" data-name="Grupo 16575">
      <rect id="Rectángulo_4623" data-name="Rectángulo 4623" width="30.808" height="48.619" transform="translate(7083.123 2605.254)" fill="#0056af"/>
      <rect id="Rectángulo_4624" data-name="Rectángulo 4624" width="26.957" height="44.503" transform="translate(7085.048 2607.685)" fill="#fff"/>
      <rect id="Rectángulo_4625" data-name="Rectángulo 4625" width="22.264" height="10.939" transform="translate(7087.335 2638.53)" fill="#0056af"/>
      <g id="Grupo_16574" data-name="Grupo 16574">
        <path id="Trazado_42275" data-name="Trazado 42275" d="M7110.166,2621.47a11.8,11.8,0,1,1-11.8-11.8A11.8,11.8,0,0,1,7110.166,2621.47Z" fill="#0056af"/>
        <g id="Grupo_16573" data-name="Grupo 16573">
          <g id="Grupo_16572" data-name="Grupo 16572">
            <path id="Trazado_42276" data-name="Trazado 42276" d="M7096.426,2629.809s3.755-1.831,5.977-2.015c.212-.641-2.327-5.587-2.327-5.587l-1.678-3.777s-.992-.5-1.231.342c.265.916.529,1.787.529,1.787l-1.27-2.657s-1.006-.687-1.322.413c.316.732,1.057,3.022,1.057,3.022l-1.057-2.565s-.964-.354-1.165.6c.265.915.9,2.656.9,2.656l-.913-1.969s-.924-.389-1.083.573C7093.161,2621.5,7096.426,2629.809,7096.426,2629.809Z" fill="#fff"/>
            <path id="Trazado_42277" data-name="Trazado 42277" d="M7096.426,2629.947a.185.185,0,0,1-.057-.009.147.147,0,0,1-.094-.084c-.032-.083-3.269-8.324-3.583-9.185a.139.139,0,0,1-.006-.06.807.807,0,0,1,.838-.769,1.344,1.344,0,0,1,.419.072c-.06-.186-.113-.36-.158-.511a.144.144,0,0,1,0-.058.889.889,0,0,1,.927-.773,1.519,1.519,0,0,1,.348.044c-.038-.1-.073-.181-.1-.251a.119.119,0,0,1-.006-.082.85.85,0,0,1,.836-.728,1.481,1.481,0,0,1,.739.241.127.127,0,0,1,.048.056l.436.911,0-.022a.771.771,0,0,1,.789-.593,1.688,1.688,0,0,1,.676.165.141.141,0,0,1,.069.07l1.678,3.777c.424.827,2.548,5.018,2.331,5.674a.154.154,0,0,1-.137.1c-2.164.179-5.877,1.98-5.915,2A.168.168,0,0,1,7096.426,2629.947Zm-3.42-9.33c.343.928,3.064,7.861,3.509,8.993a22.7,22.7,0,0,1,5.744-1.94,29.2,29.2,0,0,0-2.328-5.408l-1.66-3.734a1.3,1.3,0,0,0-.47-.107.448.448,0,0,0-.47.352c.261.9.519,1.751.519,1.751a.137.137,0,0,1-.1.165.168.168,0,0,1-.2-.078l-1.253-2.621a1.1,1.1,0,0,0-.511-.162c-.091,0-.362,0-.516.479.325.768,1.015,2.9,1.045,2.993a.135.135,0,0,1-.1.168.167.167,0,0,1-.2-.084l-1.032-2.5a1.089,1.089,0,0,0-.27-.035.579.579,0,0,0-.608.518c.265.909.882,2.6.888,2.619a.133.133,0,0,1-.1.17.169.169,0,0,1-.2-.077l-.886-1.916a.991.991,0,0,0-.281-.045C7093.418,2620.115,7093.1,2620.115,7093.006,2620.617Z" fill="#0161a9"/>
          </g>
          <path id="Trazado_42278" data-name="Trazado 42278" d="M7096.861,2627.621a.168.168,0,0,1-.153-.059.127.127,0,0,1,.042-.191,14.877,14.877,0,0,1,4.284-1.683.159.159,0,0,1,.182.113.14.14,0,0,1-.13.159,14.838,14.838,0,0,0-4.159,1.639A.173.173,0,0,1,7096.861,2627.621Z" fill="#0161a9"/>
          <path id="Trazado_42279" data-name="Trazado 42279" d="M7101.191,2623.529c-.018-.005-.032-.027-.035-.062a.151.151,0,0,1,.042-.125,2.86,2.86,0,0,1,1.482-.522c.026.006.042.05.034.1s-.035.093-.062.089a2.867,2.867,0,0,0-1.439.511A.027.027,0,0,1,7101.191,2623.529Z" fill="#fff"/>
          <path id="Trazado_42280" data-name="Trazado 42280" d="M7102.031,2625.261a.149.149,0,0,1-.137-.074.132.132,0,0,1,.064-.185,4.053,4.053,0,0,1,1.745-.433c-.1-.4-.224-.876-.358-1.378a22.244,22.244,0,0,1-.73-3.27l-.213-5.365a1.043,1.043,0,0,0-.639-.441,1.014,1.014,0,0,0-.763.253l.072,1.81a.149.149,0,0,1-.3.012l-.106-2.646a1.1,1.1,0,0,0-.694-.276h-.007a.943.943,0,0,0-.64.328l.1,2.556a.143.143,0,0,1-.136.143.138.138,0,0,1-.16-.114l-.379-2.106a.669.669,0,0,0-.461-.257.7.7,0,0,0-.486.331c.012.14.023.3.032.459.061,1.026.081,2.418.081,2.432a.143.143,0,0,1-.14.14.151.151,0,0,1-.158-.122l-.271-2.4a.883.883,0,0,0-.632-.133.6.6,0,0,0-.35.431l.094,2.4a.149.149,0,0,1-.3.011l-.1-2.419a.145.145,0,0,1,.005-.043.872.872,0,0,1,.551-.638,1.2,1.2,0,0,1,.9.172c-.007-.112-.015-.218-.024-.316a.128.128,0,0,1,.023-.085.978.978,0,0,1,.744-.5h.018a1,1,0,0,1,.728.4.149.149,0,0,1,.024.054V2614l-.017-.449a.129.129,0,0,1,.033-.092,1.264,1.264,0,0,1,.9-.469h.015a1.414,1.414,0,0,1,.955.4.132.132,0,0,1,.039.087l.022.558a1.211,1.211,0,0,1,.829-.191,1.348,1.348,0,0,1,.864.6.117.117,0,0,1,.018.061l.216,5.4a22.1,22.1,0,0,0,.721,3.214c.163.61.316,1.186.415,1.622a.132.132,0,0,1-.061.141.159.159,0,0,1-.166,0c-.319-.188-1.23.118-1.729.356A.175.175,0,0,1,7102.031,2625.261Z" fill="#fff"/>
          <path id="Trazado_42281" data-name="Trazado 42281" d="M7100.621,2621.826a.166.166,0,0,1-.038,0,.117.117,0,0,1-.1-.143l.719-2.323c.05-.227.114-.888-.22-1.106-.195-.128-.516-.1-.956.085-.4.792-.482.923-.485.927a.145.145,0,0,1-.18.049.107.107,0,0,1-.055-.156c0-.006.086-.144.5-.95a.119.119,0,0,1,.064-.058,1.364,1.364,0,0,1,1.277-.082c.535.35.328,1.3.318,1.341l-.72,2.331A.132.132,0,0,1,7100.621,2621.826Z" fill="#fff"/>
        </g>
      </g>
    </g>
    <g id="Grupo_16577" data-name="Grupo 16577">
      <rect id="Rectángulo_4626" data-name="Rectángulo 4626" width="34.105" height="48.381" transform="translate(6945.273 2866.698)" fill="#fff" stroke="#000" stroke-miterlimit="10" stroke-width="2"/>
      <rect id="Rectángulo_4627" data-name="Rectángulo 4627" width="25.777" height="14.276" transform="translate(6949.129 2896.044)"/>
      <g id="Grupo_16576" data-name="Grupo 16576">
        <path id="Trazado_42282" data-name="Trazado 42282" d="M6963.363,2869.489l12.669,21.943a1.258,1.258,0,0,1-1.09,1.887H6949.6a1.258,1.258,0,0,1-1.09-1.887l12.669-21.943a1.258,1.258,0,0,1,2.179,0Z" fill-rule="evenodd"/>
        <path id="Trazado_42283" data-name="Trazado 42283" d="M6962.274,2872.412l-10.682,18.5h21.364Z" fill="#ffed00" fill-rule="evenodd"/>
      </g>
    </g>
    <g id="Grupo_16579" data-name="Grupo 16579">
      <rect id="Rectángulo_4628" data-name="Rectángulo 4628" width="34.105" height="48.381" transform="translate(6983.74 2866.698)" fill="#fff" stroke="#000" stroke-miterlimit="10" stroke-width="2"/>
      <rect id="Rectángulo_4629" data-name="Rectángulo 4629" width="25.777" height="14.276" transform="translate(6987.596 2896.044)"/>
      <g id="Grupo_16578" data-name="Grupo 16578">
        <path id="Trazado_42284" data-name="Trazado 42284" d="M7001.83,2869.489l12.669,21.943a1.258,1.258,0,0,1-1.089,1.887h-25.338a1.258,1.258,0,0,1-1.09-1.887l12.669-21.943a1.258,1.258,0,0,1,2.179,0Z" fill-rule="evenodd"/>
        <path id="Trazado_42285" data-name="Trazado 42285" d="M7000.741,2872.412l-10.682,18.5h21.364Z" fill="#ffed00" fill-rule="evenodd"/>
      </g>
    </g>
    <g id="Grupo_16581" data-name="Grupo 16581">
      <rect id="Rectángulo_4630" data-name="Rectángulo 4630" width="34.105" height="48.381" transform="translate(7022.208 2866.698)" fill="#fff" stroke="#000" stroke-miterlimit="10" stroke-width="2"/>
      <rect id="Rectángulo_4631" data-name="Rectángulo 4631" width="25.777" height="14.276" transform="translate(7026.063 2896.044)"/>
      <g id="Grupo_16580" data-name="Grupo 16580">
        <path id="Trazado_42286" data-name="Trazado 42286" d="M7040.3,2869.489l12.669,21.943a1.258,1.258,0,0,1-1.089,1.887h-25.338a1.258,1.258,0,0,1-1.089-1.887l12.669-21.943a1.257,1.257,0,0,1,2.178,0Z" fill-rule="evenodd"/>
        <path id="Trazado_42287" data-name="Trazado 42287" d="M7039.208,2872.412l-10.682,18.5h21.364Z" fill="#ffed00" fill-rule="evenodd"/>
      </g>
    </g>
    <g id="Grupo_16583" data-name="Grupo 16583">
      <rect id="Rectángulo_4632" data-name="Rectángulo 4632" width="34.105" height="48.381" transform="translate(7060.674 2866.698)" fill="#fff" stroke="#000" stroke-miterlimit="10" stroke-width="2"/>
      <rect id="Rectángulo_4633" data-name="Rectángulo 4633" width="25.777" height="14.276" transform="translate(7064.53 2896.044)"/>
      <g id="Grupo_16582" data-name="Grupo 16582">
        <path id="Trazado_42288" data-name="Trazado 42288" d="M7078.765,2869.489l12.668,21.943a1.258,1.258,0,0,1-1.089,1.887h-25.338a1.258,1.258,0,0,1-1.089-1.887l12.669-21.943a1.258,1.258,0,0,1,2.179,0Z" fill-rule="evenodd"/>
        <path id="Trazado_42289" data-name="Trazado 42289" d="M7077.675,2872.412l-10.682,18.5h21.364Z" fill="#ffed00" fill-rule="evenodd"/>
      </g>
    </g>
    <g id="Grupo_16585" data-name="Grupo 16585">
      <rect id="Rectángulo_4634" data-name="Rectángulo 4634" width="34.105" height="48.381" transform="translate(7099.142 2866.698)" fill="#fff" stroke="#000" stroke-miterlimit="10" stroke-width="2"/>
      <rect id="Rectángulo_4635" data-name="Rectángulo 4635" width="25.777" height="14.276" transform="translate(7102.997 2896.044)"/>
      <g id="Grupo_16584" data-name="Grupo 16584">
        <path id="Trazado_42290" data-name="Trazado 42290" d="M7117.232,2869.489l12.669,21.943a1.258,1.258,0,0,1-1.09,1.887h-25.338a1.258,1.258,0,0,1-1.089-1.887l12.669-21.943a1.258,1.258,0,0,1,2.179,0Z" fill-rule="evenodd"/>
        <path id="Trazado_42291" data-name="Trazado 42291" d="M7116.142,2872.412l-10.682,18.5h21.364Z" fill="#ffed00" fill-rule="evenodd"/>
      </g>
    </g>
    <path id="Trazado_42292" data-name="Trazado 42292" d="M7114.3,2884.127l-.134-4.065,1.164-2.521Zm3.689-4.094.22-1.838-3.434,6.307Zm2.846,2.216-1.27-.224-4.2,3.145Zm-1.479-1.367-1.033.394-2.2,2.205Zm-2.549-5.069-1.477,5.99,1.477-5.1Zm-3.509,5.069-.251.752.09,2.754Zm-1.242,2.792-.261-.5.369,2.353Zm3.615,1.971,6.366-1.518-1.718-.332Zm7.043-.01-1.7-.16s-3.377.394-3.421.438Zm-.677.979h-6.743l8.634,1.059Zm-5.054.72,6.1,1.488-1.806-.79Zm.237,1.33,1.625.158-3.062-1.265Zm-2.8-.835a2.274,2.274,0,0,0-.451.283c0,.188.409.423.508.423a1.458,1.458,0,0,0,.508-.564C7114.987,2887.882,7114.554,2887.794,7114.422,2887.829Zm1.118-5.91c-.051-.073-.457.1-.545.206a2.213,2.213,0,0,0-.209.489c.107.154.577.115.658.058A1.462,1.462,0,0,0,7115.54,2881.919Zm-1.97,4.916c.061.169.527.043.57,0a.727.727,0,0,0-.094-.516C7113.949,2886.222,7113.531,2886.725,7113.57,2886.835Zm4.857,1.284c0-.086-.407-.027-.435.04-.042.1.226.239.264.237A.448.448,0,0,0,7118.427,2888.119Zm.739-3.039c0-.086-.408-.026-.435.04-.043.1.226.24.263.238A.455.455,0,0,0,7119.166,2885.08Zm-1.552-2.277c-.107-.062-.491.358-.442.434.075.119.539-.027.58-.064S7117.722,2882.864,7117.614,2882.8Zm-2.591,4.005c-.252,0-.315.235-.063.366S7115.252,2886.808,7115.023,2886.808Zm-2.477-2.051c.224.113.259-.313.056-.313C7112.379,2884.444,7112.323,2884.645,7112.546,2884.757Zm1.1-2.8c.252.132.293-.366.063-.366C7113.46,2881.592,7113.4,2881.827,7113.648,2881.958Zm1.087,3.4c-.11-.11-.375.081-.456,0s-.015-.451-.187-.451c-.256,0-.284.749-.153.88S7114.845,2885.466,7114.735,2885.357Zm-1.138-.947c0,.125.414.12.534,0s-.1-.4-.3-.4C7113.67,2884.012,7113.6,2884.284,7113.6,2884.41Zm2.8,1.284c-.094.084.187.387.357.4s.225-.344.092-.492C7116.739,2885.481,7116.488,2885.609,7116.4,2885.694Zm-3.259,1.333c-.092-.254.138-.57.514-.714a1.569,1.569,0,0,0-.572-.468.743.743,0,0,1-.57.42.16.16,0,0,1-.02.132.178.178,0,0,1-.249.04.18.18,0,0,1-.077-.205.747.747,0,0,1-.432-.387,1.564,1.564,0,1,0,1.52,2.726.43.43,0,0,1-.151-.442.232.232,0,0,1,.013-.255.244.244,0,0,1,.2-.115.165.165,0,0,1,.021-.057.181.181,0,0,1,.25-.04.192.192,0,0,1,.063.073.186.186,0,0,1,.035.039.394.394,0,0,1,.1.04.445.445,0,0,1,.062.063,1.572,1.572,0,0,0,.129-.622C7113.6,2887.376,7113.226,2887.279,7113.136,2887.027Z"/>
    <g id="Grupo_16588" data-name="Grupo 16588">
      <path id="Trazado_42293" data-name="Trazado 42293" d="M7078.1,2884.134l-.5,1.11h1l-.5-1.11Zm1.779,1.167h0l-.361,1.17h-2.836l-.362-1.17a3.246,3.246,0,0,1-1.255-2.579,3.04,3.04,0,1,1,6.07,0,3.245,3.245,0,0,1-1.256,2.579Zm-.367-2.714h0a.913.913,0,1,1-.913.912.912.912,0,0,1,.913-.912Zm-2.824,0h0a.913.913,0,1,1-.913.912A.912.912,0,0,1,7076.688,2882.587Z" fill-rule="evenodd"/>
      <path id="Trazado_42294" data-name="Trazado 42294" d="M7076.608,2886.773h2.982l.4-.734h.271l-.147,1.306-1.075,1.381h-1.871l-1.075-1.381-.147-1.306h.271Z" fill-rule="evenodd"/>
      <g id="Grupo_16586" data-name="Grupo 16586">
        <path id="Trazado_42295" data-name="Trazado 42295" d="M7075.686,2886.307l.008-.884-1.138-.751c-.076-.05-.233-.238-.187-.317a1.254,1.254,0,1,0-.586.887c.054-.071.288,0,.363.049Z" fill-rule="evenodd"/>
        <path id="Trazado_42296" data-name="Trazado 42296" d="M7080.514,2886.307l-.009-.884,1.139-.751c.076-.05.233-.238.186-.317a1.256,1.256,0,1,1,.587.887c-.055-.071-.289,0-.364.049Z" fill-rule="evenodd"/>
      </g>
      <g id="Grupo_16587" data-name="Grupo 16587">
        <path id="Trazado_42297" data-name="Trazado 42297" d="M7075.686,2886.784l.008.885-1.138.75c-.076.05-.233.239-.187.318a1.255,1.255,0,1,1-.586-.888c.054.072.288,0,.363-.049Z" fill-rule="evenodd"/>
        <path id="Trazado_42298" data-name="Trazado 42298" d="M7080.514,2886.784l-.009.885,1.139.75c.076.05.233.239.186.318a1.256,1.256,0,1,0,.587-.888c-.055.072-.289,0-.364-.049Z" fill-rule="evenodd"/>
      </g>
    </g>
    <g id="Grupo_16589" data-name="Grupo 16589">
      <rect id="Rectángulo_4636" data-name="Rectángulo 4636" width="6.596" height="0.496" transform="translate(6959.102 2890.441)"/>
      <path id="Trazado_42299" data-name="Trazado 42299" d="M6964,2890.033c2.629-1.794,3.3-2.882,3.44-6.241.036-.887-.316.748-1.028,1.277.449-1.638.534-2.173-.55-3.618a2.108,2.108,0,0,1-.62,1.951c-.186-1.853-.109-2.669-1.33-4.149a2.968,2.968,0,0,1-.24,1.9,28.371,28.371,0,0,0-1.3-3.294,3.086,3.086,0,0,1,.119-2.433,13.4,13.4,0,0,0-.695,1.15,3.526,3.526,0,0,0-.319,1c-.173,1.035.243,1.859-.174,2.943a2.866,2.866,0,0,0-2.2-.9c.9,1.558,1.039,1.692.852,3.351a2.674,2.674,0,0,0-1.986-.834c.656,1.053,1.087,1.5.957,2.82-.9-.386-1.818-.726-2.731-1.073a4.547,4.547,0,0,1,1.874,2.692A5.958,5.958,0,0,0,6960.5,2890Z" fill-rule="evenodd"/>
      <path id="Trazado_42300" data-name="Trazado 42300" d="M6962.612,2890.02a6.937,6.937,0,0,0,1.317-1.595,4.311,4.311,0,0,0,.049-2.1c-.124.248-.249.5-.373.745-.026-.946.029-1.152-.6-1.809q-.018.311-.036.621a6.789,6.789,0,0,1-.629-2.208,6,6,0,0,0-.435,2.349c-.356-.464-.439-.74-1.064-.709a1.8,1.8,0,0,1,.284,1.756c-.2-.252-.5-.711-.869-.665a6.446,6.446,0,0,0,1.631,3.606Z" fill="#ffe300" fill-rule="evenodd"/>
    </g>
    <path id="Trazado_42301" data-name="Trazado 42301" d="M7038.22,2876.695l2.221-.011-2.572,5.716,3.463-1.825-1.913,7.145.9-.505-1.857,2.715-.495-3.21.616.835.648-4.914-3.177,1.649Z" fill-rule="evenodd"/>
    <g id="Grupo_16590" data-name="Grupo 16590">
      <path id="Trazado_42302" data-name="Trazado 42302" d="M7001.629,2888.285a1,1,0,0,1-.233.646.937.937,0,0,1-.772.359.9.9,0,0,1-.736-.323,1.049,1.049,0,0,1-.27-.682,1.005,1.005,0,0,1,2.011,0Z" fill-rule="evenodd"/>
      <path id="Trazado_42303" data-name="Trazado 42303" d="M7001.938,2878.293a2.357,2.357,0,0,1-.02.354c-.013.087-.061.286-.141.6q-.3,1.254-.587,2.488a32.267,32.267,0,0,0-.324,5.218h-.485a34.184,34.184,0,0,0-.3-5.238q-.425-1.68-.607-2.468c-.041-.162-.068-.276-.081-.343a2.684,2.684,0,0,1-.081-.607,1.36,1.36,0,0,1,.486-1.193,1.432,1.432,0,0,1,.829-.223,1.311,1.311,0,0,1,1.011.334A1.584,1.584,0,0,1,7001.938,2878.293Z" fill-rule="evenodd"/>
    </g>
  </g>
</svg>
