<svg xmlns="http://www.w3.org/2000/svg" width="401.2" height="337.392" viewBox="0 0 401.2 337.392">
  <g id="Grupo_16744" data-name="Grupo 16744" transform="translate(-422 -11649.766)">
    <g id="Grupo_16743" data-name="Grupo 16743" transform="translate(422 11649.766)">
      <g id="Grupo_16321" data-name="Grupo 16321">
        <g id="Grupo_16318" data-name="Grupo 16318" opacity="0.6">
          <g id="Grupo_16317" data-name="Grupo 16317">
            <path id="Trazado_41908" data-name="Trazado 41908" d="M4419.435,3812.96s-32.093,8.388-61.85-20.706-50.366-6.374-90.62-21.06c-25.188-9.189-48.092-33.948-48.449-83.064s38.477-61.6,44.174-81.72c10.331-36.487-6.279-55.943,11.4-79.437,22.8-30.3,60.215-4.938,84.453-9.864,34.679-7.047,37.312-24.681,60.893-23.942" transform="translate(-4218.513 -3484.905)" fill="#dceef7"/>
            <path id="Trazado_41909" data-name="Trazado 41909" d="M4361.058,3512.747a55.1,55.1,0,0,0,23.228-2.771c12.66-4.295,21.522-11.083,21.3-18.981s-13.167-9.282-25.73-4.157-23.294,2.079-31.556,5.4S4341.6,3512.608,4361.058,3512.747Z" transform="translate(-4233.162 -3483.811)" fill="#dceef7"/>
            <path id="Trazado_41910" data-name="Trazado 41910" d="M4334.773,3824.376a42.773,42.773,0,0,1,20.037,6.511,63.531,63.531,0,0,1,15.571,13.825c4.061,5.114.1,17.065-15.571,6.957s-21.027-15.466-28.094-16.027S4320.248,3823.572,4334.773,3824.376Z" transform="translate(-4230.672 -3523.699)" fill="#dceef7"/>
          </g>
        </g>
        <g id="Grupo_16320" data-name="Grupo 16320" transform="translate(200.278 5.487)" opacity="0.6">
          <g id="Grupo_16319" data-name="Grupo 16319">
            <path id="Trazado_41911" data-name="Trazado 41911" d="M4445.364,3494.237s32.094-8.388,61.85,20.707,50.365,6.373,90.621,21.06c25.188,9.19,48.092,33.948,48.449,83.063s-38.478,61.6-44.174,81.721c-10.331,36.487,6.28,55.943-11.4,79.437-22.8,30.3-60.215,4.938-84.453,9.863-34.679,7.048-37.312,24.682-60.893,23.943" transform="translate(-4445.364 -3490.387)" fill="#dceef7"/>
            <path id="Trazado_41912" data-name="Trazado 41912" d="M4522.171,3833.158a55.1,55.1,0,0,0-23.228,2.771c-12.661,4.295-21.522,11.084-21.3,18.981s13.167,9.283,25.731,4.156,23.294-2.078,31.556-5.4S4541.627,3833.3,4522.171,3833.158Z" transform="translate(-4449.145 -3530.189)" fill="#dceef7"/>
            <path id="Trazado_41913" data-name="Trazado 41913" d="M4550.109,3521.255a42.771,42.771,0,0,1-20.037-6.51,63.556,63.556,0,0,1-15.571-13.825c-4.061-5.114-.1-17.066,15.571-6.957s21.027,15.465,28.094,16.027S4564.635,3522.059,4550.109,3521.255Z" transform="translate(-4453.288 -3490.026)" fill="#dceef7"/>
          </g>
        </g>
      </g>
    </g>
    <g id="Grupo_16742" data-name="Grupo 16742" transform="translate(81.222 11494.263)">
      <g id="Grupo_16611" data-name="Grupo 16611" transform="translate(422.065 317.975)">
        <path id="Trazado_42339" data-name="Trazado 42339" d="M778.839,1131.856s-4.269-.688-4.645-2.673-.791-7.487-.791-7.487l-13.482-119.116s1.519-3,3.439-3.179,87.584-7.127,87.584-7.127a5.689,5.689,0,0,1,2.79,4.606c.077,3.14,15.921,119.324,15.921,119.324s1.985,2.868-2.4,3.309S778.839,1131.856,778.839,1131.856Z" transform="translate(-759.921 -986.473)" fill="#d8d6d7" fill-rule="evenodd"/>
        <path id="Trazado_42340" data-name="Trazado 42340" d="M786.422,1015.292l2.8-.8,81.639-6.856,1.183,2.131,8.883,65.381,6.526,49.67-2.406.64L803.3,1135.8l-3.252.287-1.692-14.06Z" transform="translate(-781.282 -998.855)" fill="#fff" fill-rule="evenodd"/>
        <path id="Trazado_42341" data-name="Trazado 42341" d="M891.8,1212.813l-12.2-12.061-4.274-7.477,6.685,3.731,12.868,12.938a1.541,1.541,0,0,1-.872,1.15A20.381,20.381,0,0,0,891.8,1212.813Z" transform="translate(-852.942 -1148.491)" fill="#fee1c5" fill-rule="evenodd"/>
        <path id="Trazado_42342" data-name="Trazado 42342" d="M913.858,977.442l-1.126-9.094s3.575-3.153,7.151-3.857,8.98-2.083,11.908-2.027,7.291-.451,9.572.366,7.854,1.464,8.249,2.421.957,8.925.957,8.925Z" transform="translate(-883.096 -962.36)" fill="#d8d6d7" fill-rule="evenodd"/>
      </g>
      <g id="Grupo_16612" data-name="Grupo 16612" transform="translate(436.409 338.773)">
        <path id="Trazado_42343" data-name="Trazado 42343" d="M835.093,1137.942l20.614,6.363-.27,15.036-7.839-7.353-5.7-3.347,3.634,6.473,9.053,9.625a24.317,24.317,0,0,1-6.095-.807c-2.061-.762-5.109-2.062-5.109-2.062l-4.347-3.9-3.092-4.346-1.793-5.288-.269-4.078.4-4.033Z" transform="translate(-833.883 -1124.688)" fill="#a6cbd3" fill-rule="evenodd"/>
        <path id="Trazado_42344" data-name="Trazado 42344" d="M841.047,1116.933l.807-2.868L844,1111.6l17.029,10.621Z" transform="translate(-839.658 -1103.455)" fill="#fee1c5" fill-rule="evenodd"/>
        <path id="Trazado_42345" data-name="Trazado 42345" d="M944.8,1185.58l.241-15.1,18.712,5.147-1.155,3.945-2.261,3.656-3.127,3.079-3.223,2.116-4.185,1.972Z" transform="translate(-923.292 -1150.912)" fill="#ecb1a1" fill-rule="evenodd"/>
        <path id="Trazado_42346" data-name="Trazado 42346" d="M857.992,1090.352l1.106-2.164,3.9-2.791,11.786,15.874Z" transform="translate(-853.316 -1082.334)" fill="#daeca1" fill-rule="evenodd"/>
        <path id="Trazado_42347" data-name="Trazado 42347" d="M885.254,1072.988l1.886-1.8,6.687-1.586,5.872.129,5.1,2.015,4.029,2.272,3.257,3.086-14.4,11.357-1.971-1.157Z" transform="translate(-875.291 -1069.602)" fill="#c5d0f0" fill-rule="evenodd"/>
      </g>
      <g id="Grupo_16628" data-name="Grupo 16628" transform="translate(424.207 210.247)">
        <path id="Trazado_42348" data-name="Trazado 42348" d="M1562.409,464.913c-13.335-3.334-22.591,10.225-26.585,20.777-3.249,8.587-4.045,19.864-3.128,29.042.708,7.075,2.769,13.927,4.246,20.888a244.728,244.728,0,0,1,3.686,27.255c.764,7.948.16,15.845.558,23.793.12,2.4.617,7.062,3.128,8.377,3.153,1.652,6.05-1.843,8.042-3.686,8.324-7.7,15.245-17.148,21.447-26.586,10.958-16.674,18.289-36.609,19.324-56.632.435-8.395.007-16.721-4.579-24.015-3.807-6.058-9.59-10.082-15.638-13.628C1569.649,468.586,1566.106,465.837,1562.409,464.913Z" transform="translate(-1384.682 -453.243)" fill="#feede5" fill-rule="evenodd"/>
        <path id="Trazado_42349" data-name="Trazado 42349" d="M1011.955,1295.1a42.481,42.481,0,0,1-8.141-2.737c-5.274-2.636-9.641-6.474-15.159-8.772a62.829,62.829,0,0,0-18.6-4.352c-5.119-.465-13.195-1.965-15.651,4.282a5.508,5.508,0,0,0,.632,4.351c.309.618.88,1.112.982,1.825.177,1.242-.09,2.485.983,3.438a15.343,15.343,0,0,0,2.456,1.965c.63.36,2,.519,2.315,1.263s-.478,1.833-.35,2.6c.154.926,1.432,1.948,1.122,2.878-.124.372-.621.743-.842,1.052-.739,1.034-.151,3.456.632,4.352a6.287,6.287,0,0,0,3.158,1.965c2.777.771,4.92.867,7.72,1.614,3.187.85,7.285,2.721,10.527,3.368,4.917.984,10.877,1.474,15.791,2.457,2.626.526,4.627.964,7.228,1.614.88.22,2.154,1.053,3.018,1.053.341,0,.033-1.46.07-1.684a28.367,28.367,0,0,1,1.123-4.422c.443-1.33.923-2.64,1.263-4,.26-1.038.375-1.534.561-2.526a33.23,33.23,0,0,0,.562-9.124C1013.247,1296.444,1013.179,1295.436,1011.955,1295.1Z" transform="translate(-918.641 -1109.66)" fill="#feede5" fill-rule="evenodd"/>
        <path id="Trazado_42350" data-name="Trazado 42350" d="M777.44,1470.042c-.586-.44-1.453,1.522-1.943,2.152a5.276,5.276,0,0,0-1.388,2.359c-.07.42.448.826.277,1.111-.889,1.482-3.7,2.791-3.4,4.859a3.16,3.16,0,0,0,.9,1.875c.282.282,1.735.391,1.735.833,0,.382-.453.587-.625.9-.544,1-1.894,3.165-1.388,4.3a4.358,4.358,0,0,0,3.054,2.082c.346.053,1.965.112,2.152.486.178.356-.92,1.266-1.11,1.457-1.04,1.039-2.806,2.966-2.221,4.721a4.679,4.679,0,0,0,3.4,2.5c.516.051,1.878-.274,2.29.139.462.462-.782,1.027-1.041,1.318-1.163,1.309-1.518,3.289,0,4.373a6.18,6.18,0,0,0,3.331,1.25c.6,0,1.064-.894,1.319-1.319a32.45,32.45,0,0,0,2.152-3.678,3.546,3.546,0,0,0-.347-3.471c-.592-.676-2.37-.409-1.736-1.8,1.065-2.34,5.786-3.426,7.566-5.206.8-.8,2.057-3.357.9-4.511-.486-.486-2.414.116-2.569-.347-.179-.538.425-.911.764-1.249.648-.648,1.457-.972,1.457-2.568s-2.7-.939-2.916-2.221a7.03,7.03,0,0,1,.556-2.221c.364-1.184.714-2.549-.208-3.471-2.153-2.153-7.15,0-8.954,0S778.937,1471.162,777.44,1470.042Z" transform="translate(-770.964 -1263.805)" fill="#feede5" fill-rule="evenodd"/>
        <path id="Trazado_42351" data-name="Trazado 42351" d="M1628.59,780.94c.585-.055,5.609.182,8.115.42,2.892.275,10.354.3,10.674.622.186.186-.892,1.606-.987,1.718a11.3,11.3,0,0,1-3.655,3,9.058,9.058,0,0,1-2.523.914,9.844,9.844,0,0,1-9.174-2.851C1629.881,783.6,1627.948,781,1628.59,780.94Z" transform="translate(-1462.163 -708.389)" fill="#fff" fill-rule="evenodd"/>
        <path id="Trazado_42352" data-name="Trazado 42352" d="M1441.705,422.575a9.523,9.523,0,0,1,3.227-.792,17.365,17.365,0,0,1,6.09.244c2.953.738,5.21,4.432,7.429,6.333,6.6,5.657,17.238,10.312,20.422,17.736a25.425,25.425,0,0,1,1.769,7.248c.439,3.522-.3,5.928-1.674,10.218-.648,2.032-2.053,6.389-3.935,12.225a62.451,62.451,0,0,1-9.44,17.2c-1.532,1.955.728,3.521-1.173,9.664-2.685,8.672-8.338,16.28-11.72,30.283a34.921,34.921,0,0,0-.558,14.147c.9,4.562,6.475,15.243,8.31,23.192,1.276,5.529-1.513,14.278-4.35,18.177-.914,1.258-2.182,3.97-2.142,5.312.053,1.761-.007,3.709,2.081,5.015.526.328.361,1.14.95.944.026-.008.7-2.6,1.452-4.892a24.6,24.6,0,0,1,3.734-6.3c7.252-10.016,12.263-12.59,17.125-23.742,3.1-7.1,6.294-14.719,7.786-26.072.941-7.161,1.244-14.7,1.773-23.5.116-1.937,1.369-3.553,2.243-5.3.964-1.931,4.785.389,4.03-1.883-.875-2.637-3.479-8.948-3.827-11.736-1.821-14.573-1.438-28.488-2.253-43.141-.217-3.93-1.577-8.283-2.346-12.131a75.664,75.664,0,0,0-3.779-12.185c-1.964-5.1-6.282-11.641-10.526-14.883-3.105-2.373-6.7-3.425-9.188-4.875-3.006-1.753-5.134,0-7.29-.82-3.559-1.352-7.038-2.067-10.5-.487-6.752,3.076-11.585,5.862-15.207,10.841-6.854,9.424-11.035,15.975-14.581,27-1.412,4.393-2.071,12.639-2.934,17.73-1.024,6.042-1.473,11.41-2.046,18.182a132.5,132.5,0,0,1-3.647,22.661c-2.342,8.7-5.83,17.162-8.6,25.741a123.982,123.982,0,0,0-3.988,16.63c-1.255,8.153-1.222,15.709,4.963,22.708,2.054,2.326,5.769,4.367,8.244,6.222.368.275-.911-2.375-1.15-3.162a22.222,22.222,0,0,1,.173-12.819,59.575,59.575,0,0,1,6.15-12.129c3.909-6.208,6.727-10.236,10.087-16.061a82.486,82.486,0,0,0,6.657-15.814c1.049-3.64,1.081-6.749,2.834-10.067a19.818,19.818,0,0,0,1.771-10.731c-.417-2.344-5.314-6.064-6.929-10.367a66.679,66.679,0,0,1-3.356-15.552c-.247-2.229-.551-3.372-.809-7.082s-1.192-13.075.6-15.832c3.624-5.564,4.205-10.32,8.325-15.7a28.859,28.859,0,0,1,6.212-5.737A22.914,22.914,0,0,1,1441.705,422.575Z" transform="translate(-1272.984 -406.877)" fill="#bf8f8b" fill-rule="evenodd"/>
        <path id="Trazado_42353" data-name="Trazado 42353" d="M1263.435,938.336c-3.61,1.314-9.751,4.275-11.846,7.766-.894,1.491-1.295,3.96-1.75,5.554-.929,3.25-.659,4.547-2.8,7.218-.694.867-3.28,4.883-4.585,4.883-.517,0-.5-1.317-.533-1.6-.237-2.127.88-6.53,1.289-8.573,1.369-6.844-.128-10.471-2-17.025a30.544,30.544,0,0,1-.889-4.088c-.067-.473-.117-1.524-.573-1.666-.594-.185-.743,2.466-1.205,3.622-1.473,3.682-2.637,8.233-4.24,11.9a124.652,124.652,0,0,1-8.559,15.835c-3.718,6.01-8.413,11.713-10.6,18.269a24.089,24.089,0,0,0-1.068,12.142,17.436,17.436,0,0,0,1.355,3.186c.209.382-1.226-.424-1.422-.533a32.965,32.965,0,0,1-4.8-3.127,18.4,18.4,0,0,1-4.667-4.787c-2.9-4.345-3.179-8.744-2.808-13.8.237-3.244,1.2-7.078,1.621-9.532.554-3.2,1.627-6.2.87-5.7-1.846,1.217-4.737,8.571-5.683,12.237-3,11.6-4.286,29.828-5.111,34.695s-.742,11.878-1.155,12.621-3.552-.662-4.62-1.155c-.819-.378-3.992-1.385-4.825-1.732-2.42-1.008-6.022-2.888-8.288-.877-.161.143-.086,1.247-.869,5.331s-1.231,9.052-1.811,12.727a49.883,49.883,0,0,0-.638,8.33c.037,2.364,4.014,3.565,7.129,4.165s5.329,1.9,8.48,3.077c1.8.675,4.658,2.135,6.415,2.181.869.022,1.028-.85,1.516-.459,2.961,2.369,4.828,3.963,4.646,5.1-.212,1.322-2.414,7.014-3.326,6.149a7.192,7.192,0,0,0-7.787-1.367c-.671.271-.593.911-.183,3.78s1.458,5.693-.228,6.149a149.177,149.177,0,0,1-16.123,2.5c-2.447.176-3.962.547-8.066.994-1.569.171-3,.555-4.977.711a12.152,12.152,0,0,0-2.944.481c-.725.726,1.173,2.078,1.412,2.277,2.24,1.866,5.281,4.074,8.109,4.708a62.1,62.1,0,0,1,7.422,2.4c3.332,1.234,6.383,2.974,10.407,3.575,2.532.379,3.848.693,4.721.037.857-.642,1.916-4.511,2.614-6.7,1.587-4.974,3.761-10.515,4.883-13.125s1.671-5.753,2.446-5.144a83.044,83.044,0,0,0,8.57,5.45,57.464,57.464,0,0,0,9.653,3.763,122.453,122.453,0,0,0,22.153,4.357c14.484,1.57,25.228,1.333,39.327,2.03a67.3,67.3,0,0,0,12.2-.757,55.734,55.734,0,0,0,6.519-1.313c1.793-.656,1.46-.95.831-4.681-.613-3.632-2.516-5.35-.656-8.839,1.283-2.4,5.045-4.591,6.451-7,1.584-2.716-.4-4.226.63-6.973.653-1.738,3.231-2.767,4.57-3.939,1.89-1.653,5.007-3.783,6.014-8.242,1.15-5.094,2.526-9.851,3.83-15.77.83-3.766,1.96-7.449,2.66-10.553.823-3.641,2.167-6.735,3.264-10.823,1.138-4.239,3.037-8.084,4.141-11.8,1.1-3.7.178-5.987.336-10.85.1-3.225,1.209-7.961,1.086-11.177-.261-6.767-1.007-13.809-6.11-18.912a65.926,65.926,0,0,0-9.346-7.937c-2.878-1.759-4.843-3-7.622-4.458s-3.48-3.781-5.9-2.646c-3.6,1.692-3.737,6.9-4.041,12.068-.111,1.9-.121,7.8-.362,10.376a96.126,96.126,0,0,1-3.934,21.115c-.91,3.026-2.618,7.209-3.76,10.143-1.851,4.761-4.243,9.856-7.575,13.794-4,4.726-9.391,10.17-12.089,14.372a20.253,20.253,0,0,0-2.854,6.642c-.084.379-.311,2.075-.881,1.712a6.79,6.79,0,0,1-1.655-3.473,8.346,8.346,0,0,1,1.966-7.63c1.972-2.439,2.707-6.7,3.425-9.807.8-3.456.152-7.048-1-10.964a33.779,33.779,0,0,0-2.934-8.032,45.5,45.5,0,0,1-4.324-11.224,27.606,27.606,0,0,1-.309-11.327,66.168,66.168,0,0,1,2.935-10.966c1.6-4.273,4.336-11.353,4.336-10.934A36.215,36.215,0,0,1,1263.435,938.336Z" transform="translate(-1081.025 -829.005)" fill="#fff" fill-rule="evenodd"/>
        <path id="Trazado_42354" data-name="Trazado 42354" d="M1422.055,1648.706c-.049-.255-.1-.513-.144-.778-1.281-7.176-2.891-14.375-4.252-21.521-.265-1.391-.666-2.789-.806-4.194-.047-.468-.034-1.889-.4-2.258-.407-.406-1.118.3-1.546.415a25.1,25.1,0,0,1-5.143,1.2c-1.845.123-4.69.375-6.537.559a43.017,43.017,0,0,1-7.808.134c-2.942-.227-6.263-.3-9.208-.3a236.591,236.591,0,0,1-44.994-4.135,56.772,56.772,0,0,1-12.184-3.85,67.023,67.023,0,0,1-7.661-3.952c-1.888-1.133-3.488-2.367-5.383-3.461-.387-.223-.778,1.473-.922,1.909-.43,1.289-1.075,2.917-1.527,4.2-1.892,5.361-3.553,9.39-5.394,14.773a110.073,110.073,0,0,0-5.121,20.2c-.045.285-.1.647-.162,1.051Z" transform="translate(-1199.705 -1373.894)" fill="#d8d6d7" fill-rule="evenodd"/>
        <g id="Grupo_16613" data-name="Grupo 16613" transform="translate(11.646 127.647)">
          <path id="Trazado_42355" data-name="Trazado 42355" d="M852.252,1106.859a21.157,21.157,0,1,1,7.1-1.2.7.7,0,0,1-.461-1.322,19.9,19.9,0,1,0-6.636,1.118.7.7,0,0,1,0,1.4Z" transform="translate(-831.014 -1065.066)" fill="#6e534e"/>
        </g>
        <g id="Grupo_16614" data-name="Grupo 16614" transform="translate(56.28 131.257)">
          <path id="Trazado_42356" data-name="Trazado 42356" d="M1061.861,1087.742a.7.7,0,0,1-.077-1.4l23.812-2.658a.7.7,0,1,1,.155,1.391l-23.812,2.658A.729.729,0,0,1,1061.861,1087.742Z" transform="translate(-1061.161 -1083.684)" fill="#6e534e"/>
        </g>
        <g id="Grupo_16615" data-name="Grupo 16615" transform="translate(56.878 135.88)">
          <path id="Trazado_42357" data-name="Trazado 42357" d="M1064.944,1111.889a.7.7,0,0,1-.081-1.4l25.011-2.968a.7.7,0,0,1,.165,1.391l-25.011,2.968C1065,1111.887,1064.972,1111.889,1064.944,1111.889Z" transform="translate(-1064.245 -1107.521)" fill="#6e534e"/>
        </g>
        <g id="Grupo_16616" data-name="Grupo 16616" transform="translate(13.309 141.293)">
          <path id="Trazado_42358" data-name="Trazado 42358" d="M878.125,1147.852a.7.7,0,0,1-.2-.028L840.092,1136.8a.7.7,0,1,1,.392-1.344l37.836,11.021a.7.7,0,0,1-.2,1.372Z" transform="translate(-839.587 -1135.431)" fill="#6e534e"/>
        </g>
        <g id="Grupo_16617" data-name="Grupo 16617" transform="translate(16.184 135.792)">
          <path id="Trazado_42359" data-name="Trazado 42359" d="M871.954,1119.109a.693.693,0,0,1-.374-.108l-16.838-10.644a.7.7,0,0,1,.749-1.183l16.838,10.643a.7.7,0,0,1-.375,1.292Z" transform="translate(-854.416 -1107.065)" fill="#6e534e"/>
        </g>
        <g id="Grupo_16618" data-name="Grupo 16618" transform="translate(21.577 130.989)">
          <path id="Trazado_42360" data-name="Trazado 42360" d="M894.309,1115.206h-.015a.7.7,0,0,1-.686-.714l.3-14.879-11.554-16.2a.7.7,0,0,1,1.141-.813l11.688,16.392a.7.7,0,0,1,.13.42l-.3,15.111A.7.7,0,0,1,894.309,1115.206Z" transform="translate(-882.221 -1082.301)" fill="#6e534e"/>
        </g>
        <g id="Grupo_16619" data-name="Grupo 16619" transform="translate(33.791 135.783)">
          <path id="Trazado_42361" data-name="Trazado 42361" d="M945.9,1119.408a.7.7,0,0,1-.435-1.25l13.922-10.987a.7.7,0,1,1,.868,1.1l-13.922,10.987A.7.7,0,0,1,945.9,1119.408Z" transform="translate(-945.199 -1107.02)" fill="#6e534e"/>
        </g>
        <g id="Grupo_16620" data-name="Grupo 16620" transform="translate(57.501 141.079)">
          <path id="Trazado_42362" data-name="Trazado 42362" d="M1068.158,1138.046a.7.7,0,0,1-.073-1.4l21.95-2.317a.7.7,0,1,1,.146,1.393l-21.95,2.317A.724.724,0,0,1,1068.158,1138.046Z" transform="translate(-1067.459 -1134.329)" fill="#6e534e"/>
        </g>
        <g id="Grupo_16621" data-name="Grupo 16621" transform="translate(58.161 145.978)">
          <path id="Trazado_42363" data-name="Trazado 42363" d="M1071.563,1163.506a.7.7,0,0,1-.073-1.4l23.92-2.517a.7.7,0,1,1,.147,1.393l-23.92,2.517C1071.612,1163.505,1071.587,1163.506,1071.563,1163.506Z" transform="translate(-1070.863 -1159.589)" fill="#6e534e"/>
        </g>
        <g id="Grupo_16622" data-name="Grupo 16622" transform="translate(58.785 150.742)">
          <path id="Trazado_42364" data-name="Trazado 42364" d="M1074.779,1188.078a.7.7,0,0,1-.074-1.4l23.338-2.522a.7.7,0,0,1,.15,1.393l-23.338,2.522C1074.83,1188.077,1074.8,1188.078,1074.779,1188.078Z" transform="translate(-1074.08 -1184.155)" fill="#6e534e"/>
        </g>
        <g id="Grupo_16623" data-name="Grupo 16623" transform="translate(26.769 205.733)">
          <path id="Trazado_42365" data-name="Trazado 42365" d="M909.691,1473.8a.7.7,0,0,1-.079-1.4l40.964-4.695a.7.7,0,0,1,.16,1.391l-40.964,4.694A.781.781,0,0,1,909.691,1473.8Z" transform="translate(-908.992 -1467.705)" fill="#6e534e"/>
        </g>
        <g id="Grupo_16624" data-name="Grupo 16624" transform="translate(27.365 209.844)">
          <path id="Trazado_42366" data-name="Trazado 42366" d="M912.767,1495.819a.7.7,0,0,1-.088-1.4l42.947-5.516a.7.7,0,0,1,.179,1.39l-42.947,5.516A.732.732,0,0,1,912.767,1495.819Z" transform="translate(-912.068 -1488.902)" fill="#6e534e"/>
        </g>
        <g id="Grupo_16625" data-name="Grupo 16625" transform="translate(27.989 213.051)">
          <path id="Trazado_42367" data-name="Trazado 42367" d="M915.982,1513.7a.7.7,0,0,1-.089-1.4l52.918-6.858a.7.7,0,0,1,.18,1.39l-52.918,6.858A.731.731,0,0,1,915.982,1513.7Z" transform="translate(-915.283 -1505.438)" fill="#6e534e"/>
        </g>
        <g id="Grupo_16626" data-name="Grupo 16626" transform="translate(28.65 218.137)">
          <path id="Trazado_42368" data-name="Trazado 42368" d="M919.391,1539.937a.7.7,0,0,1-.092-1.394l51.211-6.869a.7.7,0,0,1,.186,1.388l-51.212,6.869A.658.658,0,0,1,919.391,1539.937Z" transform="translate(-918.691 -1531.666)" fill="#6e534e"/>
        </g>
        <g id="Grupo_16627" data-name="Grupo 16627" transform="translate(29.273 221.135)">
          <path id="Trazado_42369" data-name="Trazado 42369" d="M922.606,1557.164a.7.7,0,0,1-.092-1.394l64.668-8.64a.7.7,0,0,1,.185,1.388l-64.668,8.64A.653.653,0,0,1,922.606,1557.164Z" transform="translate(-921.907 -1547.123)" fill="#6e534e"/>
        </g>
      </g>
      <g id="Grupo_16721" data-name="Grupo 16721" transform="translate(421.293 209.581)">
        <g id="Grupo_16629" data-name="Grupo 16629" transform="translate(151.945 40.89)">
          <path id="Trazado_42370" data-name="Trazado 42370" d="M1566.5,668.744a18.982,18.982,0,0,1-6.7-1.246,30.873,30.873,0,0,1-13.384-11.341c-4.553-6.993-5.676-16.3-6.435-25.225-.5-5.884-.556-13.113-.556-15.949a.7.7,0,0,1,1.4,0c0,2.817.054,10,.551,15.83.745,8.752,1.837,17.859,6.214,24.58a29.335,29.335,0,0,0,12.7,10.794c13.584,5.095,25.246-6.873,30.327-20.149a79.569,79.569,0,0,0,3.266-10.731c.2-.844.39-1.612.584-2.326a.7.7,0,0,1,1.351.368c-.192.7-.374,1.457-.575,2.287a80.649,80.649,0,0,1-3.321,10.9C1587.336,658.527,1577.64,668.743,1566.5,668.744Z" transform="translate(-1539.422 -614.283)" fill="#6e534e"/>
        </g>
        <g id="Grupo_16630" data-name="Grupo 16630" transform="translate(162.977 87.07)">
          <path id="Trazado_42371" data-name="Trazado 42371" d="M1597.007,861.563a.7.7,0,0,1-.68-.87,18.813,18.813,0,0,0,.313-5.457c-.027-.7-.055-1.414-.055-2.132a.7.7,0,1,1,1.4,0c0,.7.028,1.39.055,2.076a20.177,20.177,0,0,1-.354,5.853A.7.7,0,0,1,1597.007,861.563Z" transform="translate(-1596.306 -852.403)" fill="#6e534e"/>
        </g>
        <g id="Grupo_16631" data-name="Grupo 16631" transform="translate(181.82 14.101)">
          <path id="Trazado_42372" data-name="Trazado 42372" d="M1722.152,519.027a.718.718,0,0,1-.116-.009.7.7,0,0,1-.576-.806,36.139,36.139,0,0,0,.27-8.335,21.071,21.071,0,0,0-1.613-6.527c-2.536-6.263-7.8-9.782-13.367-13.509-5.079-3.4-10.331-6.91-13.212-12.672a.7.7,0,0,1,1.253-.626c2.715,5.431,7.584,8.687,12.738,12.135,5.5,3.68,11.19,7.485,13.886,14.148a22.412,22.412,0,0,1,1.712,6.959,37.51,37.51,0,0,1-.285,8.659A.7.7,0,0,1,1722.152,519.027Z" transform="translate(-1693.464 -476.155)" fill="#6e534e"/>
        </g>
        <g id="Grupo_16632" data-name="Grupo 16632" transform="translate(166.857 12.678)">
          <path id="Trazado_42373" data-name="Trazado 42373" d="M1629.2,472.192a.694.694,0,0,1-.312-.074c-4.431-2.216-7.047-2.434-11.67-.975a.7.7,0,0,1-.421-1.336c4.98-1.572,7.953-1.325,12.717,1.058a.7.7,0,0,1-.314,1.327Z" transform="translate(-1616.31 -468.813)" fill="#6e534e"/>
        </g>
        <g id="Grupo_16633" data-name="Grupo 16633" transform="translate(150.232 15.764)">
          <path id="Trazado_42374" data-name="Trazado 42374" d="M1531.288,512.915a.7.7,0,0,1-.6-1.053c.716-1.227,1.535-2.4,2.328-3.539s1.6-2.289,2.288-3.479a21.136,21.136,0,0,0,1.558-3.684,26.008,26.008,0,0,1,1.382-3.4,29.789,29.789,0,0,1,8.435-10.13c.289-.207.575-.423.861-.639a9.29,9.29,0,0,1,4.548-2.258.7.7,0,0,1,.155,1.392,8.116,8.116,0,0,0-3.858,1.983c-.3.224-.592.448-.893.662a28.349,28.349,0,0,0-8.007,9.636,24.609,24.609,0,0,0-1.3,3.218,22.54,22.54,0,0,1-1.668,3.923c-.72,1.24-1.549,2.428-2.351,3.577-.777,1.114-1.58,2.265-2.268,3.444A.7.7,0,0,1,1531.288,512.915Z" transform="translate(-1530.589 -484.728)" fill="#6e534e"/>
        </g>
        <g id="Grupo_16634" data-name="Grupo 16634" transform="translate(182.943 3.51)">
          <path id="Trazado_42375" data-name="Trazado 42375" d="M1699.956,428.755a.7.7,0,0,1-.625-1.014c.412-.824,1.695-3.631.917-5.186a.7.7,0,1,1,1.253-.626c1,2-.145,4.894-.917,6.439A.7.7,0,0,1,1699.956,428.755Z" transform="translate(-1699.256 -421.542)" fill="#6e534e"/>
        </g>
        <g id="Grupo_16635" data-name="Grupo 16635" transform="translate(123.016)">
          <path id="Trazado_42376" data-name="Trazado 42376" d="M1394.133,564.911a.7.7,0,0,1-.65-.441c-.28-.7-.6-1.408-.913-2.125a21.337,21.337,0,0,1-2.216-7.108c-.837-12.977,3.719-26.015,8.124-38.625,1.713-4.9,3.331-9.536,4.66-14.182,2.7-9.461,3.653-19.275,4.573-28.765.495-5.107,1.006-10.388,1.786-15.578.176-1.177.34-2.349.5-3.517.967-6.9,1.879-13.423,5.061-19.787,4.777-9.556,11.321-22.644,22.089-28.028l.7-.353c3.282-1.662,8.245-4.175,12.023-2.286a.7.7,0,1,1-.625,1.253c-3.149-1.575-7.551.656-10.765,2.283l-.708.356c-10.35,5.175-16.772,18.022-21.462,27.4-3.08,6.159-3.977,12.569-4.927,19.354-.163,1.172-.328,2.35-.506,3.531-.773,5.153-1.283,10.416-1.776,15.505-.926,9.552-1.884,19.43-4.621,29.014-1.339,4.686-3.039,9.553-4.684,14.26-4.36,12.477-8.868,25.38-8.049,38.072a20.317,20.317,0,0,0,2.1,6.63c.325.733.647,1.458.934,2.174a.7.7,0,0,1-.65.96Z" transform="translate(-1390.254 -403.443)" fill="#6e534e"/>
        </g>
        <g id="Grupo_16636" data-name="Grupo 16636" transform="translate(134.85 94.08)">
          <path id="Trazado_42377" data-name="Trazado 42377" d="M1454.1,963.858a.7.7,0,0,1-.627-.388c-5.833-11.666,1.121-22.117,7.257-31.337,1.345-2.02,2.615-3.928,3.766-5.848,8.936-14.893,13.1-26.66,13.1-37.032a.7.7,0,0,1,1.4,0c0,10.637-4.225,22.633-13.3,37.753-1.169,1.947-2.448,3.869-3.8,5.9-6.214,9.339-12.641,19-7.171,29.936a.7.7,0,0,1-.626,1.013Z" transform="translate(-1451.274 -888.553)" fill="#6e534e"/>
        </g>
        <g id="Grupo_16637" data-name="Grupo 16637" transform="translate(129.054 152.59)">
          <path id="Trazado_42378" data-name="Trazado 42378" d="M1427.365,1204.843a.7.7,0,0,1-.609-.353c-.614-1.074-1.162-1.995-1.652-2.816-2.3-3.87-3.357-5.636-3.718-10.678a.7.7,0,0,1,.648-.749.71.71,0,0,1,.748.648c.338,4.711,1.27,6.277,3.525,10.062.493.828,1.047,1.756,1.665,2.838a.7.7,0,0,1-.607,1.048Z" transform="translate(-1421.385 -1190.246)" fill="#6e534e"/>
        </g>
        <g id="Grupo_16638" data-name="Grupo 16638" transform="translate(186.196 1.402)">
          <path id="Trazado_42379" data-name="Trazado 42379" d="M1753.975,508.843a.7.7,0,0,1-.628-.387c-2.854-5.708-3.462-12.262-4.051-18.6l-.143-1.519c-.457-4.8-.451-9.761-.446-14.557v-1.554c0-4.124-.14-8.555-.441-13.946a62.047,62.047,0,0,0-1.023-7.5l-.144-.812c-2.452-13.892-8.319-31.433-22.348-36.11a19.656,19.656,0,0,1-1.847-.759,11.469,11.469,0,0,0-2.756-.981,7.4,7.4,0,0,0-2.01.052,12.845,12.845,0,0,1-1.408.105.7.7,0,0,1,0-1.4,11.6,11.6,0,0,0,1.252-.1,8.55,8.55,0,0,1,2.4-.041,12.7,12.7,0,0,1,3.1,1.085,18.267,18.267,0,0,0,1.714.707c11.623,3.874,19.674,16.736,23.284,37.195l.144.81a64.146,64.146,0,0,1,1.043,7.663c.3,5.416.442,9.873.442,14.023v1.556c-.005,4.762-.011,9.687.441,14.422l.142,1.522c.576,6.209,1.172,12.63,3.908,18.1a.7.7,0,0,1-.625,1.014Z" transform="translate(-1716.032 -410.672)" fill="#6e534e"/>
        </g>
        <g id="Grupo_16639" data-name="Grupo 16639" transform="translate(181.025 89.782)">
          <path id="Trazado_42380" data-name="Trazado 42380" d="M1698.917,942.861a.7.7,0,0,1-.7-.625c-.5-4.7-2.33-8.754-4.264-13.044a57.977,57.977,0,0,1-3.815-10.123,33.92,33.92,0,0,1-.457-12.027c.915-7.547,4.063-14.7,7.108-21.622l.159-.361c.465-1.056.95-2.1,1.435-3.146,2.259-4.868,4.394-9.466,4.394-14.825a.7.7,0,0,1,1.4,0c0,5.668-2.3,10.623-4.524,15.415-.48,1.035-.962,2.072-1.423,3.12l-.158.36c-3,6.826-6.11,13.885-7,21.226a33.063,33.063,0,0,0,.428,11.528,56.99,56.99,0,0,0,3.731,9.877c1.894,4.2,3.854,8.548,4.381,13.471a.7.7,0,0,1-.622.771A.694.694,0,0,1,1698.917,942.861Z" transform="translate(-1689.366 -866.389)" fill="#6e534e"/>
        </g>
        <g id="Grupo_16640" data-name="Grupo 16640" transform="translate(184.135 154.843)">
          <path id="Trazado_42381" data-name="Trazado 42381" d="M1706.1,1231.235a.7.7,0,0,1-.408-1.27c8.928-6.378,9.725-17.98,9.422-27.375a.7.7,0,0,1,.677-.723.692.692,0,0,1,.723.677c.314,9.745-.54,21.8-10.009,28.561A.693.693,0,0,1,1706.1,1231.235Z" transform="translate(-1705.402 -1201.866)" fill="#6e534e"/>
        </g>
        <g id="Grupo_16641" data-name="Grupo 16641" transform="translate(186.196 105.972)">
          <path id="Trazado_42382" data-name="Trazado 42382" d="M1716.731,1037.382a.7.7,0,0,1-.65-.96c.231-.577.454-1.154.677-1.731a39.241,39.241,0,0,1,3.208-6.92,77.644,77.644,0,0,1,7.976-10.034c1.742-1.958,3.545-3.984,5.164-6.067,2.76-3.548,4.745-8.157,6.5-12.224l.185-.429a88.65,88.65,0,0,0,6.864-26.289c.311-3.108.456-6.286.6-9.361a128.238,128.238,0,0,1,1.027-12.9.692.692,0,0,1,.8-.59.7.7,0,0,1,.59.8,127.076,127.076,0,0,0-1.014,12.758c-.141,3.093-.287,6.291-.6,9.436a90.024,90.024,0,0,1-6.972,26.7l-.184.428c-1.784,4.144-3.807,8.84-6.677,12.531-1.647,2.118-3.465,4.161-5.223,6.137a76.525,76.525,0,0,0-7.837,9.849,37.705,37.705,0,0,0-3.087,6.678c-.225.583-.45,1.165-.683,1.747A.7.7,0,0,1,1716.731,1037.382Z" transform="translate(-1716.03 -949.868)" fill="#6e534e"/>
        </g>
        <g id="Grupo_16642" data-name="Grupo 16642" transform="translate(162.74 110.234)">
          <path id="Trazado_42383" data-name="Trazado 42383" d="M1595.784,1000.133a.7.7,0,0,1-.539-1.147,27.234,27.234,0,0,0,1.892-2.707,28.337,28.337,0,0,1,2-2.855c.281-.339.594-.666.907-.994a7.207,7.207,0,0,0,1.656-2.214,41.718,41.718,0,0,0,1.355-4.519,27.25,27.25,0,0,1,2.651-7.305c1.272-2.071,4.129-3.567,6.65-4.888,1.037-.543,2.018-1.057,2.748-1.542a.7.7,0,0,1,.775,1.166c-.791.526-1.8,1.056-2.873,1.617-2.362,1.236-5.037,2.638-6.107,4.38a26.227,26.227,0,0,0-2.489,6.926,43.406,43.406,0,0,1-1.405,4.672,8.369,8.369,0,0,1-1.949,2.675c-.292.3-.582.606-.842.92a27.158,27.158,0,0,0-1.9,2.716,28.471,28.471,0,0,1-1.993,2.845A.7.7,0,0,1,1595.784,1000.133Z" transform="translate(-1595.083 -971.845)" fill="#6e534e"/>
        </g>
        <g id="Grupo_16643" data-name="Grupo 16643" transform="translate(162.245 106.444)">
          <path id="Trazado_42384" data-name="Trazado 42384" d="M1593.784,978.233a.685.685,0,0,1-.16-.018.7.7,0,0,1-.524-.841c.2-.853.438-1.758.686-2.7,1.029-3.891,2.194-8.3,1.231-11.953-.259-.982-.579-2-.888-2.978a32.477,32.477,0,0,1-1.6-6.674.7.7,0,0,1,1.395-.13,31.366,31.366,0,0,0,1.537,6.383c.315,1,.639,2.028.907,3.042,1.058,4.01-.159,8.61-1.232,12.669-.244.924-.48,1.815-.676,2.656A.7.7,0,0,1,1593.784,978.233Z" transform="translate(-1592.53 -952.306)" fill="#6e534e"/>
        </g>
        <g id="Grupo_16644" data-name="Grupo 16644" transform="translate(175.537 118.912)">
          <path id="Trazado_42385" data-name="Trazado 42385" d="M1665.88,1026.593a.7.7,0,0,1-.661-.468,32.284,32.284,0,0,0-4.006-8.405.7.7,0,0,1,1.114-.849,33.538,33.538,0,0,1,4.214,8.789.7.7,0,0,1-.428.894A.728.728,0,0,1,1665.88,1026.593Z" transform="translate(-1661.069 -1016.595)" fill="#6e534e"/>
        </g>
        <g id="Grupo_16645" data-name="Grupo 16645" transform="translate(154.972 116.856)">
          <path id="Trazado_42386" data-name="Trazado 42386" d="M1556.263,1012.8a.924.924,0,0,1-.591-.219,1.581,1.581,0,0,1-.481-.87,1.4,1.4,0,0,0-.066-.206.708.708,0,0,1,.236-.962.691.691,0,0,1,.952.22,1.455,1.455,0,0,1,.092.173,2.037,2.037,0,0,1,.271-.3c.261-.231.529-.454.8-.678.223-.187.447-.373.666-.564l.459-.4a19.578,19.578,0,0,1,3.95-2.925.7.7,0,0,1,.638,1.246,18.292,18.292,0,0,0-3.661,2.73l-.464.408c-.228.2-.461.393-.692.586-.257.214-.514.428-.764.65a2.5,2.5,0,0,0-.222.292,1.563,1.563,0,0,1-1,.815A.912.912,0,0,1,1556.263,1012.8Z" transform="translate(-1555.027 -1005.991)" fill="#6e534e"/>
        </g>
        <g id="Grupo_16646" data-name="Grupo 16646" transform="translate(147.619 143.594)">
          <path id="Trazado_42387" data-name="Trazado 42387" d="M1517.815,1196.953a.674.674,0,0,1-.192-.027.7.7,0,0,1-.481-.865c1.959-6.86,2.451-14.07,2.925-21.041.246-3.619.5-7.36.958-11.017.605-4.845,2.623-9.5,4.573-13.994.81-1.869,1.648-3.8,2.359-5.694a.7.7,0,1,1,1.311.492c-.722,1.925-1.567,3.874-2.384,5.759-1.912,4.408-3.888,8.966-4.469,13.61-.452,3.618-.706,7.34-.95,10.939-.479,7.044-.976,14.328-2.977,21.331A.7.7,0,0,1,1517.815,1196.953Z" transform="translate(-1517.115 -1143.861)" fill="#6e534e"/>
        </g>
        <g id="Grupo_16647" data-name="Grupo 16647" transform="translate(115.914 126.822)">
          <path id="Trazado_42388" data-name="Trazado 42388" d="M1354.334,1099.905a.586.586,0,0,1-.078,0,.7.7,0,0,1-.619-.773c.167-1.5.323-2.992.479-4.488,1.316-12.615,2.678-25.659,10.2-36.946a.7.7,0,1,1,1.165.777c-7.332,11-8.675,23.869-9.974,36.314-.157,1.5-.313,3-.48,4.5A.7.7,0,0,1,1354.334,1099.905Z" transform="translate(-1353.633 -1057.382)" fill="#6e534e"/>
        </g>
        <g id="Grupo_16648" data-name="Grupo 16648" transform="translate(119.675 161.054)">
          <path id="Trazado_42389" data-name="Trazado 42389" d="M1374.974,1265.268a.7.7,0,0,1-.692-.6c-.02-.135-.063-.358-.122-.661-2.676-13.851-.108-23.8,2.518-29.7a.7.7,0,1,1,1.279.569c-2.543,5.721-5.029,15.374-2.422,28.867.064.331.111.574.133.722a.7.7,0,0,1-.591.8A.819.819,0,0,1,1374.974,1265.268Z" transform="translate(-1373.028 -1233.892)" fill="#6e534e"/>
        </g>
        <g id="Grupo_16649" data-name="Grupo 16649" transform="translate(223.336 101.538)">
          <path id="Trazado_42390" data-name="Trazado 42390" d="M1932.031,989.928a.732.732,0,0,1-.222-.036.7.7,0,0,1-.443-.886c.206-.617.439-1.25.677-1.893a23.942,23.942,0,0,0,1.469-5.083,30.933,30.933,0,0,0,.079-4.991,34.21,34.21,0,0,1,.064-5.012l.08-.721c1.032-9.238,2.2-19.709-4.126-27.188-3.176-3.753-7.016-6.262-11.081-8.92-.707-.461-1.414-.924-2.122-1.4-1-.664-2.07-1.25-3.107-1.817a23.327,23.327,0,0,1-5.56-3.785.7.7,0,0,1,.99-.99,21.935,21.935,0,0,0,5.241,3.546c1.065.581,2.165,1.182,3.213,1.88.7.469,1.409.93,2.111,1.389,3.97,2.6,8.077,5.28,11.384,9.188,6.718,7.94,5.513,18.729,4.449,28.247l-.08.721a33.118,33.118,0,0,0-.056,4.806,32.363,32.363,0,0,1-.09,5.215,24.912,24.912,0,0,1-1.545,5.395c-.232.629-.461,1.247-.661,1.851A.7.7,0,0,1,1932.031,989.928Z" transform="translate(-1907.535 -927.006)" fill="#6e534e"/>
        </g>
        <g id="Grupo_16650" data-name="Grupo 16650" transform="translate(225.947 168.428)">
          <path id="Trazado_42391" data-name="Trazado 42391" d="M1921.7,1322.066a.7.7,0,0,1-.452-1.234c.813-.689,1.689-1.344,2.536-1.979a27.59,27.59,0,0,0,4.494-3.892c1.38-1.61,1.912-4.008,2.427-6.327.2-.9.389-1.751.625-2.556.931-3.162,1.679-6.448,2.4-9.625.56-2.457,1.139-5,1.8-7.479.39-1.463.792-2.923,1.192-4.382.58-2.112,1.16-4.223,1.709-6.35.149-.579.421-1.316.709-2.1a14.2,14.2,0,0,0,1.01-3.532.7.7,0,0,1,1.4,0,14.063,14.063,0,0,1-1.1,4.017c-.275.746-.535,1.451-.666,1.961-.552,2.134-1.133,4.252-1.715,6.37-.4,1.457-.8,2.912-1.189,4.373-.656,2.456-1.231,4.984-1.788,7.429-.729,3.2-1.482,6.506-2.425,9.71-.223.759-.406,1.586-.6,2.464-.526,2.371-1.123,5.059-2.731,6.936a28.631,28.631,0,0,1-4.718,4.1c-.831.622-1.689,1.265-2.471,1.926A.7.7,0,0,1,1921.7,1322.066Z" transform="translate(-1921 -1271.914)" fill="#6e534e"/>
        </g>
        <g id="Grupo_16651" data-name="Grupo 16651" transform="translate(216.951 209.055)">
          <path id="Trazado_42392" data-name="Trazado 42392" d="M1875.312,1506.016a.7.7,0,0,1-.438-1.247c.477-.381.964-.759,1.456-1.139a27.81,27.81,0,0,0,5.387-4.974c.854-1.139.481-3.742.3-4.993a29.189,29.189,0,0,0-4.261-11.2.7.7,0,1,1,1.2-.72,30.526,30.526,0,0,1,4.446,11.724c.222,1.548.635,4.429-.569,6.032a28.84,28.84,0,0,1-5.649,5.242c-.485.375-.967.748-1.438,1.125A.7.7,0,0,1,1875.312,1506.016Z" transform="translate(-1874.611 -1481.4)" fill="#6e534e"/>
        </g>
        <g id="Grupo_16652" data-name="Grupo 16652" transform="translate(105.43 225.05)">
          <path id="Trazado_42393" data-name="Trazado 42393" d="M1300.987,1614.3c1.541-10.733,5.336-21.178,9.024-31.316,2.164-5.946,4.4-12.1,6.151-18.218a.7.7,0,0,0-1.347-.385c-1.735,6.074-3.965,12.2-6.12,18.124-3.737,10.27-7.58,20.853-9.122,31.795Z" transform="translate(-1299.574 -1563.874)" fill="#6e534e"/>
        </g>
        <g id="Grupo_16653" data-name="Grupo 16653" transform="translate(216.985 236.575)">
          <path id="Trazado_42394" data-name="Trazado 42394" d="M1882.391,1662.207h1.421c-1.566-8.779-3.357-17.474-5.1-25.946q-1.271-6.161-2.531-12.394a.7.7,0,0,0-1.373.275q1.25,6.247,2.532,12.4C1879.066,1644.928,1880.839,1653.528,1882.391,1662.207Z" transform="translate(-1874.79 -1623.304)" fill="#6e534e"/>
        </g>
        <g id="Grupo_16654" data-name="Grupo 16654" transform="translate(120.184 233.809)">
          <path id="Trazado_42395" data-name="Trazado 42395" d="M1436.506,1624.731l-.061,0c-2.538-.217-5.107-.41-7.694-.6-18.37-1.37-37.365-2.786-52.808-13.816a.7.7,0,0,1,.814-1.14c15.124,10.8,33.92,12.2,52.1,13.559,2.592.193,5.167.386,7.71.6a.7.7,0,0,1-.059,1.4Z" transform="translate(-1375.649 -1609.04)" fill="#6e534e"/>
        </g>
        <g id="Grupo_16655" data-name="Grupo 16655" transform="translate(198.762 246.021)">
          <path id="Trazado_42396" data-name="Trazado 42396" d="M1781.524,1675.871a.7.7,0,0,1-.025-1.4c1.012-.037,2.022-.065,3.028-.092,5.8-.155,11.283-.3,16.676-2.324a.7.7,0,0,1,.492,1.311c-5.614,2.1-11.468,2.261-17.13,2.413-1,.027-2.007.054-3.015.09Z" transform="translate(-1780.825 -1672.012)" fill="#6e534e"/>
        </g>
        <g id="Grupo_16656" data-name="Grupo 16656" transform="translate(38.067 169.702)">
          <path id="Trazado_42397" data-name="Trazado 42397" d="M952.927,1284.51a.709.709,0,0,1-.26-.05.7.7,0,0,1-.39-.91c.744-1.858,2.272-4.121,4.009-4.99a.7.7,0,1,1,.626,1.253c-1.4.7-2.711,2.7-3.335,4.258A.7.7,0,0,1,952.927,1284.51Z" transform="translate(-952.226 -1278.486)" fill="#6e534e"/>
        </g>
        <g id="Grupo_16657" data-name="Grupo 16657" transform="translate(45.138 169.159)">
          <path id="Trazado_42398" data-name="Trazado 42398" d="M1036.3,1292.586a.7.7,0,0,1-.246-.045,65.14,65.14,0,0,1-10.864-5.722,62.438,62.438,0,0,0-10.886-5.7,70.889,70.889,0,0,0-24.917-4.037.7.7,0,1,1,0-1.4,72.25,72.25,0,0,1,25.4,4.121,63.527,63.527,0,0,1,11.136,5.819,64.152,64.152,0,0,0,10.626,5.606.7.7,0,0,1-.246,1.356Z" transform="translate(-988.687 -1275.684)" fill="#6e534e"/>
        </g>
        <g id="Grupo_16658" data-name="Grupo 16658" transform="translate(89.98 208.536)">
          <path id="Trazado_42399" data-name="Trazado 42399" d="M1222.667,1481a.69.69,0,0,1-.273-.056l-2.057-.871a.7.7,0,0,1,.546-1.289l2.057.871a.7.7,0,0,1-.273,1.345Z" transform="translate(-1219.91 -1478.727)" fill="#6e534e"/>
        </g>
        <g id="Grupo_16659" data-name="Grupo 16659" transform="translate(45.225 196.011)">
          <path id="Trazado_42400" data-name="Trazado 42400" d="M1029.65,1427.051a9.251,9.251,0,0,1-2.395-.441c-.3-.085-.6-.167-.878-.229-1.852-.414-3.766-.738-5.616-1.05-1.339-.226-2.715-.382-4.046-.532a43.429,43.429,0,0,1-7.235-1.24c-1.655-.479-3.282-1.087-4.856-1.674-1.719-.643-3.5-1.307-5.282-1.789-.561-.151-1.312-.279-2.106-.415-3.142-.537-7.447-1.272-8.09-4.711a.7.7,0,0,1,1.377-.257c.464,2.48,4.06,3.094,6.949,3.588.828.141,1.609.275,2.235.444,1.85.5,3.659,1.174,5.407,1.828,1.549.578,3.151,1.177,4.755,1.64a42.276,42.276,0,0,0,7,1.194c1.35.152,2.746.31,4.122.543,1.868.316,3.8.642,5.687,1.063.3.067.62.156.948.247a6.908,6.908,0,0,0,2.217.382.71.71,0,0,1,.754.642.7.7,0,0,1-.642.755C1029.857,1427.047,1029.754,1427.051,1029.65,1427.051Z" transform="translate(-989.135 -1414.14)" fill="#6e534e"/>
        </g>
        <g id="Grupo_16660" data-name="Grupo 16660" transform="translate(45.217 187.473)">
          <path id="Trazado_42401" data-name="Trazado 42401" d="M996.281,1377.452h-.032c-1.895-.083-6.378-.647-7.075-4.075a5.072,5.072,0,0,1,.043-1.956c.035-.214.071-.434.094-.668a.691.691,0,0,1,.766-.627.7.7,0,0,1,.627.766c-.026.265-.066.512-.105.754a3.807,3.807,0,0,0-.053,1.452c.515,2.529,4.543,2.9,5.765,2.956a.7.7,0,0,1-.03,1.4Z" transform="translate(-989.095 -1370.12)" fill="#6e534e"/>
        </g>
        <g id="Grupo_16661" data-name="Grupo 16661" transform="translate(45.851 192.384)">
          <path id="Trazado_42402" data-name="Trazado 42402" d="M993.065,1397.9a.7.7,0,0,1-.626-1.012,3.326,3.326,0,0,1,1.432-1.38.7.7,0,0,1,.626,1.253,1.923,1.923,0,0,0-.8.751A.7.7,0,0,1,993.065,1397.9Z" transform="translate(-992.365 -1395.438)" fill="#6e534e"/>
        </g>
        <g id="Grupo_16662" data-name="Grupo 16662" transform="translate(39.712 177.63)">
          <path id="Trazado_42403" data-name="Trazado 42403" d="M965.937,1328.982a2.4,2.4,0,0,1-.955-.179c-1.548-.664-3.908-2.9-4.235-5.041a2.762,2.762,0,0,1,.966-2.632,6.033,6.033,0,0,1,3.023-1.112c.2-.035.406-.069.6-.108a39.248,39.248,0,0,1,7.966-.547.7.7,0,1,1,0,1.4,38.185,38.185,0,0,0-7.692.52c-.205.041-.418.077-.636.115a4.954,4.954,0,0,0-2.349.795,1.374,1.374,0,0,0-.492,1.358c.238,1.557,2.2,3.449,3.4,3.965a2.433,2.433,0,0,0,1.153-.015l.23-.035a25.62,25.62,0,0,1,3.632-.168h.461a.7.7,0,0,1,0,1.4h-.465a24.359,24.359,0,0,0-3.43.153l-.213.032A6.284,6.284,0,0,1,965.937,1328.982Z" transform="translate(-960.707 -1319.363)" fill="#6e534e"/>
        </g>
        <g id="Grupo_16663" data-name="Grupo 16663" transform="translate(37.915 176.671)">
          <path id="Trazado_42404" data-name="Trazado 42404" d="M954.059,1319.122a.7.7,0,0,1-.313-.074c-1.479-.74-1.981-2.623-2.281-3.748a.7.7,0,0,1,1.353-.361c.239.9.64,2.4,1.554,2.856a.7.7,0,0,1-.314,1.327Z" transform="translate(-951.441 -1314.418)" fill="#6e534e"/>
        </g>
        <g id="Grupo_16664" data-name="Grupo 16664" transform="translate(55.278 185.673)">
          <path id="Trazado_42405" data-name="Trazado 42405" d="M1046.734,1362.82a.693.693,0,0,1-.17-.021,18.227,18.227,0,0,0-3.146-.407c-.611-.044-1.223-.088-1.831-.163a.7.7,0,1,1,.173-1.389c.584.073,1.171.114,1.758.156a19.5,19.5,0,0,1,3.385.445.7.7,0,0,1-.169,1.38Z" transform="translate(-1040.974 -1360.834)" fill="#6e534e"/>
        </g>
        <g id="Grupo_16665" data-name="Grupo 16665" transform="translate(56.556 177.275)">
          <path id="Trazado_42406" data-name="Trazado 42406" d="M1054.76,1320.353a.7.7,0,0,1-.269-.054c-2.27-.946-3.778-1.519-6.175-1.332a.713.713,0,0,1-.752-.645.7.7,0,0,1,.644-.752,13.409,13.409,0,0,1,6.821,1.436.7.7,0,0,1-.27,1.347Z" transform="translate(-1047.563 -1317.533)" fill="#6e534e"/>
        </g>
        <g id="Grupo_16666" data-name="Grupo 16666" transform="translate(22.47 152.543)">
          <path id="Trazado_42407" data-name="Trazado 42407" d="M875.805,1197.428a.7.7,0,0,1-.614-.364l-3.3-6.018a.7.7,0,1,1,1.228-.673l3.3,6.018a.7.7,0,0,1-.277.95A.69.69,0,0,1,875.805,1197.428Z" transform="translate(-871.802 -1190.008)" fill="#6e534e"/>
        </g>
        <g id="Grupo_16667" data-name="Grupo 16667" transform="translate(26.997 159.948)">
          <path id="Trazado_42408" data-name="Trazado 42408" d="M907.618,1241.518a.694.694,0,0,1-.5-.209l-11.77-11.93a.7.7,0,1,1,1-.983l11.77,11.93a.7.7,0,0,1-.5,1.191Z" transform="translate(-895.148 -1228.188)" fill="#6e534e"/>
        </g>
        <g id="Grupo_16668" data-name="Grupo 16668" transform="translate(22.523 152.332)">
          <path id="Trazado_42409" data-name="Trazado 42409" d="M879.328,1194.366a.693.693,0,0,1-.367-.1l-6.55-4.047a.7.7,0,1,1,.736-1.191l6.55,4.047a.7.7,0,0,1-.368,1.3Z" transform="translate(-872.078 -1188.918)" fill="#6e534e"/>
        </g>
        <g id="Grupo_16669" data-name="Grupo 16669" transform="translate(30.299 157.763)">
          <path id="Trazado_42410" data-name="Trazado 42410" d="M924.324,1229.723a.7.7,0,0,1-.494-.2l-11.451-11.4a.7.7,0,1,1,.988-.992l11.451,11.4a.7.7,0,0,1-.494,1.2Z" transform="translate(-912.173 -1216.924)" fill="#6e534e"/>
        </g>
        <g id="Grupo_16670" data-name="Grupo 16670" transform="translate(164.301 47.213)">
          <path id="Trazado_42411" data-name="Trazado 42411" d="M1604.933,650.451a1.781,1.781,0,1,1,1.8-1.781A1.793,1.793,0,0,1,1604.933,650.451Zm0-2.162a.381.381,0,1,0,.4.381A.392.392,0,0,0,1604.933,648.288Z" transform="translate(-1603.133 -646.888)" fill="#6e534e"/>
        </g>
        <g id="Grupo_16671" data-name="Grupo 16671" transform="translate(165.212 48.086)">
          <path id="Trazado_42412" data-name="Trazado 42412" d="M1608.947,653.358a.7.7,0,0,1-.538-.253l-.349-.426a.7.7,0,0,1-.081-.126l-.076-.151a.7.7,0,0,1,.626-1.013h.152a.7.7,0,0,1,.7.7l.1.124a.7.7,0,0,1-.538,1.148Z" transform="translate(-1607.83 -651.389)" fill="#6e534e"/>
        </g>
        <g id="Grupo_16672" data-name="Grupo 16672" transform="translate(191.595 49.788)">
          <path id="Trazado_42413" data-name="Trazado 42413" d="M1745.672,663.732a1.782,1.782,0,1,1,1.8-1.781A1.793,1.793,0,0,1,1745.672,663.732Zm0-2.163a.382.382,0,1,0,.4.381A.391.391,0,0,0,1745.672,661.569Z" transform="translate(-1743.872 -660.169)" fill="#6e534e"/>
        </g>
        <g id="Grupo_16673" data-name="Grupo 16673" transform="translate(192.507 50.661)">
          <path id="Trazado_42414" data-name="Trazado 42414" d="M1749.686,666.636a.7.7,0,0,1-.538-.253l-.35-.427a.654.654,0,0,1-.082-.13l-.075-.152a.7.7,0,0,1,.628-1.009h.151a.7.7,0,0,1,.7.7l.1.124a.7.7,0,0,1-.538,1.148Z" transform="translate(-1748.569 -664.666)" fill="#6e534e"/>
        </g>
        <g id="Grupo_16674" data-name="Grupo 16674" transform="translate(188.98 41.581)">
          <path id="Trazado_42415" data-name="Trazado 42415" d="M1738.46,620.733a.7.7,0,0,1-.419-.14,7.534,7.534,0,0,0-6.731-.943.7.7,0,1,1-.443-1.328,8.849,8.849,0,0,1,8.015,1.151.7.7,0,0,1-.421,1.26Z" transform="translate(-1730.387 -617.847)" fill="#6e534e"/>
        </g>
        <g id="Grupo_16675" data-name="Grupo 16675" transform="translate(161.58 39.365)">
          <path id="Trazado_42416" data-name="Trazado 42416" d="M1589.8,609.561a.7.7,0,0,1-.456-1.232c2.032-1.74,6.02-2.643,8.5-1.159a.7.7,0,1,1-.72,1.2c-1.909-1.147-5.2-.406-6.864,1.022A.7.7,0,0,1,1589.8,609.561Z" transform="translate(-1589.104 -606.422)" fill="#6e534e"/>
        </g>
        <g id="Grupo_16676" data-name="Grupo 16676" transform="translate(172.494 47.645)">
          <path id="Trazado_42417" data-name="Trazado 42417" d="M1648.345,663a.7.7,0,0,1-.388-.118l-.179-.118a3.861,3.861,0,0,1-1.013-.924,9.891,9.891,0,0,1-.933-1.281c-1.207-2.228.247-3.474,1.309-4.383a7.739,7.739,0,0,0,1.05-1.018,4.564,4.564,0,0,0,.026-4.94.7.7,0,0,1,1.14-.814,5.936,5.936,0,0,1-.064,6.62,8.788,8.788,0,0,1-1.241,1.216c-1.149.984-1.63,1.469-.989,2.652a8.887,8.887,0,0,0,.744,1.013,2.746,2.746,0,0,0,.74.69l.186.123a.7.7,0,0,1-.389,1.283Z" transform="translate(-1645.377 -649.115)" fill="#6e534e"/>
        </g>
        <g id="Grupo_16677" data-name="Grupo 16677" transform="translate(168.429 72.538)">
          <path id="Trazado_42418" data-name="Trazado 42418" d="M1635.05,785.829a13.066,13.066,0,0,1-5.636-1.572c-1.06-.509-5.434-5.287-4.963-6.36a.775.775,0,0,1,.9-.4c.665.12,6.825.326,11.332.477,7.914.265,7.914.265,8.128.693.469.94-2.651,4.422-4.016,5.245A10.935,10.935,0,0,1,1635.05,785.829Zm-8.7-6.847c.951,1.348,2.792,3.59,3.671,4.013,4.143,1.988,6.4,1.929,10.049-.278a11.922,11.922,0,0,0,2.974-3.11c-1.373-.061-3.921-.147-6.408-.23C1630.746,779.179,1627.821,779.069,1626.347,778.982Z" transform="translate(-1624.415 -777.472)" fill="#6e534e"/>
        </g>
        <g id="Grupo_16678" data-name="Grupo 16678" transform="translate(92.508 188.244)">
          <path id="Trazado_42419" data-name="Trazado 42419" d="M1255.619,1408.094a6.013,6.013,0,0,1-2.007-.512l-.224-.086c-2.381-.869-4.8-1.864-7.39-3.042a31.564,31.564,0,0,0-5.048-1.644c-1.285-.341-2.614-.694-3.907-1.167-.171-.062-.431-.138-.73-.228-1.512-.452-2.53-.79-2.9-1.357-.67-1.032-.47-2.858-.309-4.325.048-.437.093-.831.1-1.133a121.005,121.005,0,0,1,2.081-17.039q.244-1.436.487-2.885a.7.7,0,1,1,1.381.23q-.241,1.453-.487,2.89a119.953,119.953,0,0,0-2.062,16.843c-.01.332-.056.765-.108,1.246-.122,1.113-.307,2.8.09,3.406a10.754,10.754,0,0,0,2.13.781c.331.1.619.186.808.254,1.234.45,2.532.8,3.787,1.128a33.016,33.016,0,0,1,5.269,1.723c2.558,1.162,4.943,2.144,7.29,3l.248.094a3.667,3.667,0,0,0,1.611.408c.859-.562,1.064-3.031,1.187-4.506.049-.588.091-1.1.16-1.483l.117-.655a43.725,43.725,0,0,1,1.69-7.141,31.042,31.042,0,0,1,2.758-5.312,29.108,29.108,0,0,0,2.583-4.945.7.7,0,0,1,1.316.48,30.519,30.519,0,0,1-2.7,5.189,30.059,30.059,0,0,0-2.641,5.067,42.761,42.761,0,0,0-1.627,6.907l-.117.656c-.058.321-.1.8-.144,1.35-.171,2.062-.384,4.627-1.837,5.573A1.53,1.53,0,0,1,1255.619,1408.094Z" transform="translate(-1232.943 -1374.091)" fill="#6e534e"/>
        </g>
        <g id="Grupo_16679" data-name="Grupo 16679" transform="translate(98.937 183.973)">
          <path id="Trazado_42420" data-name="Trazado 42420" d="M1290.636,1361.6a.7.7,0,0,1-.587-.318c-.417-.639-2.063-.764-3.386-.865a9.532,9.532,0,0,1-3.018-.527c-4.1-1.865-8.409-3.384-12.575-4.852-1.506-.531-3.013-1.062-4.517-1.611a.7.7,0,1,1,.48-1.315c1.5.546,3,1.076,4.5,1.606,4.194,1.479,8.531,3.008,12.689,4.9a9.014,9.014,0,0,0,2.544.4c1.8.137,3.658.277,4.453,1.5a.7.7,0,0,1-.2.968A.69.69,0,0,1,1290.636,1361.6Z" transform="translate(-1266.093 -1352.068)" fill="#6e534e"/>
        </g>
        <g id="Grupo_16680" data-name="Grupo 16680" transform="translate(126.153 194.323)">
          <path id="Trazado_42421" data-name="Trazado 42421" d="M1466.889,1418.69a.7.7,0,0,1-.239-.042,79.093,79.093,0,0,0-7.822-2.294,32.65,32.65,0,0,1-3.385-1.11,25.493,25.493,0,0,0-3.841-1.2,8.509,8.509,0,0,0-2.347.021c-.5.048-1.019.1-1.514.1h-.174a38.723,38.723,0,0,1-9.254-.758,185.774,185.774,0,0,0-22.222-4.193,10.347,10.347,0,0,1-3.421-1.274,6.451,6.451,0,0,0-4.52-1.071c-.351.017-.7.035-1.019.035a.7.7,0,1,1,0-1.4c.3,0,.622-.016.949-.033a7.738,7.738,0,0,1,5.231,1.224,9.17,9.17,0,0,0,2.953,1.13,187,187,0,0,1,22.389,4.224,37.056,37.056,0,0,0,8.915.716h.174c.427,0,.889-.045,1.378-.092a9.491,9.491,0,0,1,2.757,0,26.874,26.874,0,0,1,4.051,1.256,31.761,31.761,0,0,0,3.239,1.065,80.154,80.154,0,0,1,7.96,2.336.7.7,0,0,1-.239,1.358Z" transform="translate(-1406.43 -1405.436)" fill="#6e534e"/>
        </g>
        <g id="Grupo_16681" data-name="Grupo 16681" transform="translate(116.685 220.695)">
          <path id="Trazado_42422" data-name="Trazado 42422" d="M1431.637,1569.753a72.9,72.9,0,0,1-12.745-1.272c-.554-.1-1.127-.173-1.7-.251a20.73,20.73,0,0,1-4.088-.831c-2.076-.727-4.126-1.647-6.109-2.537-1.786-.8-3.633-1.631-5.473-2.306s-3.747-1.245-5.6-1.8c-1.829-.547-3.719-1.112-5.551-1.778a66.348,66.348,0,0,1-7.717-3.587c-1.385-.718-2.817-1.46-4.229-2.118-3.629-1.694-7.444-3.17-11.134-4.6-1.541-.6-3.081-1.191-4.611-1.8a11.622,11.622,0,0,1-3.639-3c-.429-.46-.835-.9-1.2-1.233a.7.7,0,0,1,.946-1.032c.409.375.833.83,1.281,1.311a10.774,10.774,0,0,0,3.135,2.659c1.525.61,3.06,1.2,4.6,1.8,3.712,1.436,7.55,2.921,11.222,4.635,1.438.671,2.884,1.42,4.281,2.143a65.262,65.262,0,0,0,7.55,3.514c1.794.653,3.665,1.212,5.475,1.752,1.871.56,3.807,1.139,5.678,1.825,1.887.692,3.757,1.531,5.565,2.342,1.957.879,3.98,1.787,6,2.494a19.671,19.671,0,0,0,3.811.765c.6.079,1.186.158,1.759.258a71.53,71.53,0,0,0,12.5,1.252.7.7,0,1,1,0,1.4Z" transform="translate(-1357.607 -1541.42)" fill="#6e534e"/>
        </g>
        <g id="Grupo_16682" data-name="Grupo 16682" transform="translate(194.954 235.636)">
          <path id="Trazado_42423" data-name="Trazado 42423" d="M1761.89,1631.591a.7.7,0,0,1-.128-1.388,12.66,12.66,0,0,0,7-3.547,10.647,10.647,0,0,1,.929-.8c1.368-.995,2.53-1.815,3.573-2.552a75.67,75.67,0,0,0,6.168-4.673.7.7,0,0,1,.912,1.063,76.8,76.8,0,0,1-6.272,4.754c-1.038.733-2.2,1.55-3.556,2.54a9.711,9.711,0,0,0-.8.7,13.932,13.932,0,0,1-7.694,3.9A.721.721,0,0,1,1761.89,1631.591Z" transform="translate(-1761.19 -1618.461)" fill="#6e534e"/>
        </g>
        <g id="Grupo_16683" data-name="Grupo 16683" transform="translate(191.03 176.719)">
          <path id="Trazado_42424" data-name="Trazado 42424" d="M1753.476,1342.684a.7.7,0,0,1-.547-.263,45.113,45.113,0,0,0-3.932-4.454,16.483,16.483,0,0,0-5.329-3.006c-.037,0-.221-.013-.433-.029-1.1-.084-1.636-.143-1.914-.556-1.089-1.633.513-3.788,1.471-5.076.126-.169.238-.32.326-.446l.286-.413a14.9,14.9,0,0,0,2.8-5.88c.094-.328.189-.656.287-.982l.283-.927a37.73,37.73,0,0,0,1.378-5.393.707.707,0,0,1,.8-.586.7.7,0,0,1,.586.8,39.308,39.308,0,0,1-1.423,5.593l-.282.922c-.1.319-.189.641-.282.962a16.2,16.2,0,0,1-3,6.293l-.283.409c-.095.137-.216.3-.353.484-.6.808-1.811,2.436-1.508,3.3.248.043.694.077.934.1a3.315,3.315,0,0,1,.8.106,17.944,17.944,0,0,1,5.824,3.31,46.515,46.515,0,0,1,4.062,4.594.7.7,0,0,1-.547,1.138Zm-10.99-9.085h0Z" transform="translate(-1740.956 -1314.666)" fill="#6e534e"/>
        </g>
        <g id="Grupo_16684" data-name="Grupo 16684" transform="translate(186.81 199.443)">
          <path id="Trazado_42425" data-name="Trazado 42425" d="M1739.943,1457.763a2.123,2.123,0,0,1-.792-.166c-1.1-.44-1.952-2.021-2.8-3.744-.15-.305-.283-.575-.393-.774a.7.7,0,0,1,1.224-.68c.119.215.263.505.426.835.48.974,1.372,2.786,2.063,3.062.1.041.289.1.362.039.455-.393.381-2.45.17-3.329a19.3,19.3,0,0,0-4.352-8.309c-2.655-2.8-6.716-4.213-10.643-5.578-1.156-.4-2.248-.78-3.308-1.2-.091-.033-.438-.094-.69-.138a4.775,4.775,0,0,1-1.652-.457c-.812-.545,0-2,.009-2.012a14.62,14.62,0,0,1,2.344-2.695c.2-.192.395-.384.591-.58a.7.7,0,0,1,.99.99c-.2.2-.4.4-.6.594a13.371,13.371,0,0,0-2.137,2.439c-.014.033-.041.11-.068.2.247.054.563.108.77.145a5.683,5.683,0,0,1,.959.213c1.034.4,2.114.78,3.257,1.176,4.085,1.419,8.31,2.887,11.2,5.938a20.768,20.768,0,0,1,4.7,8.945c.008.035.744,3.539-.617,4.715A1.514,1.514,0,0,1,1739.943,1457.763Z" transform="translate(-1719.198 -1431.839)" fill="#6e534e"/>
        </g>
        <g id="Grupo_16685" data-name="Grupo 16685" transform="translate(196.222 210.911)">
          <path id="Trazado_42426" data-name="Trazado 42426" d="M1773.375,1498.265a.7.7,0,0,1-.613-.36,20.612,20.612,0,0,0-3.508-4.348c-.442-.456-.892-.92-1.341-1.41a.7.7,0,1,1,1.032-.946c.441.481.882.934,1.315,1.381a21.693,21.693,0,0,1,3.725,4.643.7.7,0,0,1-.611,1.04Z" transform="translate(-1767.73 -1490.973)" fill="#6e534e"/>
        </g>
        <g id="Grupo_16686" data-name="Grupo 16686" transform="translate(187.385 207.019)">
          <path id="Trazado_42427" data-name="Trazado 42427" d="M1730.752,1491.028a.7.7,0,0,1-.678-.531c-1.337-5.345-3.623-9.987-6.044-14.9-.6-1.22-1.206-2.448-1.8-3.7a.7.7,0,0,1,1.264-.6c.592,1.242,1.194,2.464,1.791,3.678,2.456,4.983,4.774,9.689,6.147,15.18a.7.7,0,0,1-.51.849A.677.677,0,0,1,1730.752,1491.028Z" transform="translate(-1722.161 -1470.901)" fill="#6e534e"/>
        </g>
        <g id="Grupo_16687" data-name="Grupo 16687" transform="translate(113.835 173.603)">
          <path id="Trazado_42428" data-name="Trazado 42428" d="M1343.612,1310.782a.7.7,0,0,1-.7-.7,39.183,39.183,0,0,1,1.232-9.156c.124-.566.251-1.153.381-1.771a.7.7,0,1,1,1.37.288c-.131.622-.259,1.213-.383,1.781a38.078,38.078,0,0,0-1.2,8.858A.7.7,0,0,1,1343.612,1310.782Z" transform="translate(-1342.912 -1298.598)" fill="#6e534e"/>
        </g>
        <g id="Grupo_16688" data-name="Grupo 16688" transform="translate(111.831 229.816)">
          <path id="Trazado_42429" data-name="Trazado 42429" d="M1338.263,1591.484a.7.7,0,0,1-.4-.126,6.442,6.442,0,0,0-4.51-1.479.7.7,0,0,1-.15-1.393,8.045,8.045,0,0,1,5.464,1.725.7.7,0,0,1-.4,1.274Z" transform="translate(-1332.577 -1588.449)" fill="#6e534e"/>
        </g>
        <g id="Grupo_16689" data-name="Grupo 16689" transform="translate(76.878 245.924)">
          <path id="Trazado_42430" data-name="Trazado 42430" d="M1183.63,1685.049c-3.142,0-6.349-1.145-9.219-2.17-.745-.266-1.475-.527-2.186-.762-1.234-.408-2.461-.867-3.647-1.312-1.279-.48-2.6-.977-3.914-1.4-.578-.186-1.2-.33-1.853-.483a13.822,13.822,0,0,1-3.7-1.235,33.832,33.832,0,0,1-5-3.692c-.5-.421-1-.839-1.5-1.243a.7.7,0,1,1,.878-1.09c.509.409,1.016.833,1.525,1.26a32.883,32.883,0,0,0,4.789,3.546,12.853,12.853,0,0,0,3.327,1.091c.654.152,1.331.31,1.964.513,1.344.431,2.683.933,3.977,1.419,1.173.439,2.386.9,3.594,1.294.721.238,1.462.5,2.218.772,3.273,1.17,6.662,2.385,9.881,2.03a.7.7,0,0,1,.151,1.393A12.1,12.1,0,0,1,1183.63,1685.049Z" transform="translate(-1152.35 -1671.508)" fill="#6e534e"/>
        </g>
        <g id="Grupo_16690" data-name="Grupo 16690" transform="translate(5.137 205.765)">
          <path id="Trazado_42431" data-name="Trazado 42431" d="M783.905,1471.471a1.407,1.407,0,0,1-1.281-.591,2.039,2.039,0,0,1,.1-1.862,10.737,10.737,0,0,1,2.115-2.753l.393-.415a3.068,3.068,0,0,0,.674-.973.7.7,0,0,1,1.3.518,4.465,4.465,0,0,1-.952,1.411l-.4.425A9.809,9.809,0,0,0,784,1469.6a2.1,2.1,0,0,0-.165.472l.068,0a.7.7,0,0,1,0,1.4Zm-.078-1.292h0Z" transform="translate(-782.427 -1464.436)" fill="#6e534e"/>
        </g>
        <g id="Grupo_16691" data-name="Grupo 16691" transform="translate(2.339 209.951)">
          <path id="Trazado_42432" data-name="Trazado 42432" d="M768.7,1493.419a.7.7,0,0,1-.643-.976c1.967-4.592,6.419-5.365,10.438-5.73a19.017,19.017,0,0,0,1.958-.316,12.235,12.235,0,0,1,3.762-.332,3.3,3.3,0,0,1,2.96,2.253,3.849,3.849,0,0,1-1.219,4,.7.7,0,1,1-.93-1.047,2.485,2.485,0,0,0,.814-2.532,1.934,1.934,0,0,0-1.781-1.285,11.071,11.071,0,0,0-3.337.315,20.863,20.863,0,0,1-2.1.336c-4.734.429-7.769,1.367-9.277,4.886A.7.7,0,0,1,768.7,1493.419Z" transform="translate(-768.002 -1486.021)" fill="#6e534e"/>
        </g>
        <g id="Grupo_16692" data-name="Grupo 16692" transform="translate(2.285 216.626)">
          <path id="Trazado_42433" data-name="Trazado 42433" d="M784.619,1527.881a.7.7,0,0,1-.336-1.315c.222-.121.456-.241.695-.362a10.15,10.15,0,0,0,1.593-.93,3.889,3.889,0,0,0,.459-.449c.094-.1.189-.205.29-.306.268-.268.565-.649.456-.94-.335-.893-3.177-1.615-4.613-1.711-2.875-.186-5.912.768-8.354,1.54a9.54,9.54,0,0,0-.954.385,7.328,7.328,0,0,1-1.8.615c-1.942.3-3.053-.807-4.123-1.877a.7.7,0,0,1,.99-.99c1.069,1.068,1.729,1.665,2.92,1.483a6.372,6.372,0,0,0,1.451-.512,10.908,10.908,0,0,1,1.1-.439c2.555-.808,5.732-1.813,8.87-1.6.049,0,5.009.429,5.831,2.615a2.211,2.211,0,0,1-.778,2.424c-.087.087-.168.175-.248.262a5,5,0,0,1-.63.608,11.159,11.159,0,0,1-1.818,1.073c-.226.115-.449.228-.659.343A.7.7,0,0,1,784.619,1527.881Z" transform="translate(-767.724 -1520.442)" fill="#6e534e"/>
        </g>
        <g id="Grupo_16693" data-name="Grupo 16693" transform="translate(2.908 219.578)">
          <path id="Trazado_42434" data-name="Trazado 42434" d="M776.645,1544.427a.578.578,0,0,1-.071,0l-.448-.042c-1.424-.13-3.2-.29-4.365-1.46-.64-.64-1.239-1.843-.456-3.94a9.393,9.393,0,0,1,1.972-3.115.7.7,0,0,1,.99.99,8.015,8.015,0,0,0-1.65,2.615,2.354,2.354,0,0,0,.134,2.461c.811.811,2.24.941,3.5,1.055l.461.044a.7.7,0,0,1-.069,1.4Z" transform="translate(-770.934 -1535.661)" fill="#6e534e"/>
        </g>
        <g id="Grupo_16694" data-name="Grupo 16694" transform="translate(4.776 222.773)">
          <path id="Trazado_42435" data-name="Trazado 42435" d="M784.993,1566.448a5.4,5.4,0,0,1-3-.874,3.125,3.125,0,0,1-1.426-2.608.7.7,0,1,1,1.4,0,1.72,1.72,0,0,0,.823,1.458,4.045,4.045,0,0,0,3.377.432,12.37,12.37,0,0,0,3.563-2.541,22.228,22.228,0,0,1,2.133-1.766,19.162,19.162,0,0,1,2.419-1.348,10.04,10.04,0,0,0,3.554-2.414,5.855,5.855,0,0,0,.585-1.035l.148-.3a2.12,2.12,0,0,0,.121-1.555.438.438,0,0,0-.315-.269c-1.2-.3-2.775.247-4.166.728-.363.126-.711.246-1.037.346-1.5.462-3.084,1.041-4.976,1.82-2.08.856-3.928,2.729-5.558,4.382l-.659.664a.7.7,0,0,1-.99-.99l.652-.658c1.725-1.748,3.679-3.729,6.022-4.693,1.933-.8,3.553-1.388,5.1-1.864.311-.1.644-.212.992-.331,1.576-.546,3.362-1.166,4.963-.764a1.826,1.826,0,0,1,1.248,1.043,3.454,3.454,0,0,1-.142,2.766l-.14.287a6.883,6.883,0,0,1-.751,1.3,11.217,11.217,0,0,1-4.026,2.794,18.085,18.085,0,0,0-2.244,1.244,21.193,21.193,0,0,0-1.993,1.656,13.334,13.334,0,0,1-4.008,2.811A4.777,4.777,0,0,1,784.993,1566.448Z" transform="translate(-780.568 -1552.136)" fill="#6e534e"/>
        </g>
        <g id="Grupo_16695" data-name="Grupo 16695" transform="translate(8.892 233.801)">
          <path id="Trazado_42436" data-name="Trazado 42436" d="M807.8,1617.949a.714.714,0,0,1-.221-.036.7.7,0,0,1-.443-.886,7.563,7.563,0,0,1,1.24-2.055,4.75,4.75,0,0,0,1.109-2.01,2.409,2.409,0,0,0-.971-2.262,1.834,1.834,0,0,0-1.956-.037,8.928,8.928,0,0,0-2.937,3.31c-.183.288-.364.573-.547.848a.7.7,0,1,1-1.165-.777c.178-.266.353-.542.531-.822a10.089,10.089,0,0,1,3.46-3.794,3.225,3.225,0,0,1,3.389.1,3.8,3.8,0,0,1,1.591,3.556,5.645,5.645,0,0,1-1.386,2.729,6.5,6.5,0,0,0-1.029,1.653A.7.7,0,0,1,807.8,1617.949Z" transform="translate(-801.793 -1608.998)" fill="#6e534e"/>
        </g>
        <g id="Grupo_16696" data-name="Grupo 16696" transform="translate(8.73 240.431)">
          <path id="Trazado_42437" data-name="Trazado 42437" d="M806.313,1647.077c-2.793,0-4.581-.991-5.314-2.946a.7.7,0,1,1,1.311-.492c.521,1.39,1.793,2.038,4,2.038a.7.7,0,1,1,0,1.4Z" transform="translate(-800.953 -1643.186)" fill="#6e534e"/>
        </g>
        <g id="Grupo_16697" data-name="Grupo 16697" transform="translate(0 123.88)">
          <path id="Trazado_42438" data-name="Trazado 42438" d="M766.361,1129.9a.7.7,0,0,1-.695-.622l-9.72-86.292a.7.7,0,1,1,1.391-.157l9.721,86.292a.7.7,0,0,1-.618.774A.72.72,0,0,1,766.361,1129.9Z" transform="translate(-755.941 -1042.211)" fill="#6e534e"/>
        </g>
        <g id="Grupo_16698" data-name="Grupo 16698" transform="translate(13.501 243.73)">
          <path id="Trazado_42439" data-name="Trazado 42439" d="M826.991,1668.123a.7.7,0,0,1-.695-.622l-.736-6.525a.7.7,0,0,1,1.391-.157l.736,6.525a.7.7,0,0,1-.617.774A.722.722,0,0,1,826.991,1668.123Z" transform="translate(-825.556 -1660.198)" fill="#6e534e"/>
        </g>
        <g id="Grupo_16699" data-name="Grupo 16699" transform="translate(3.61 118.637)">
          <path id="Trazado_42440" data-name="Trazado 42440" d="M775.254,1018.723a.7.7,0,0,1-.056-1.4l26.246-2.149a.743.743,0,0,1,.8.638.663.663,0,0,1-.6.751l-26.334,2.156Z" transform="translate(-774.555 -1015.174)" fill="#6e534e"/>
        </g>
        <g id="Grupo_16700" data-name="Grupo 16700" transform="translate(67.852 113.667)">
          <path id="Trazado_42441" data-name="Trazado 42441" d="M1106.507,992.807a.7.7,0,0,1-.056-1.4l22.725-1.859a.7.7,0,1,1,.114,1.4l-22.725,1.86Z" transform="translate(-1105.808 -989.548)" fill="#6e534e"/>
        </g>
        <g id="Grupo_16701" data-name="Grupo 16701" transform="translate(18.878 240.763)">
          <path id="Trazado_42442" data-name="Trazado 42442" d="M853.982,1658.471a.7.7,0,0,1-.095-1.394L942.3,1644.9a.7.7,0,1,1,.192,1.388l-88.411,12.173A.707.707,0,0,1,853.982,1658.471Z" transform="translate(-853.282 -1644.896)" fill="#6e534e"/>
        </g>
        <g id="Grupo_16702" data-name="Grupo 16702" transform="translate(93.672 118.206)">
          <path id="Trazado_42443" data-name="Trazado 42443" d="M1248.484,1079.551a.7.7,0,0,1-.693-.606l-8.839-65.2a.7.7,0,0,1,1.388-.188l8.839,65.2a.7.7,0,0,1-.6.788A.676.676,0,0,1,1248.484,1079.551Z" transform="translate(-1238.945 -1012.952)" fill="#6e534e"/>
        </g>
        <g id="Grupo_16703" data-name="Grupo 16703" transform="translate(107.301 219.211)">
          <path id="Trazado_42444" data-name="Trazado 42444" d="M1312.486,1553.627a.7.7,0,0,1-.693-.606l-2.574-18.986.683-.172.694-.093,2.584,19.063a.7.7,0,0,1-.6.788A.672.672,0,0,1,1312.486,1553.627Z" transform="translate(-1309.219 -1533.77)" fill="#6e534e"/>
        </g>
        <g id="Grupo_16704" data-name="Grupo 16704" transform="translate(17.042 230.471)">
          <path id="Trazado_42445" data-name="Trazado 42445" d="M846.144,1607.959a.7.7,0,0,1-.7-.623l-1.63-14.7a.727.727,0,0,1,.615-.8.676.676,0,0,1,.77.588l1.638,14.76a.7.7,0,0,1-.619.773A.522.522,0,0,1,846.144,1607.959Z" transform="translate(-843.814 -1591.829)" fill="#6e534e"/>
        </g>
        <g id="Grupo_16705" data-name="Grupo 16705" transform="translate(5.26 124.29)">
          <path id="Trazado_42446" data-name="Trazado 42446" d="M793.293,1131.631a.7.7,0,0,1-.695-.622l-.4-3.629-9.126-82.275a.7.7,0,0,1,1.392-.155l9.528,85.9a.7.7,0,0,1-.618.774A.714.714,0,0,1,793.293,1131.631Z" transform="translate(-783.065 -1044.326)" fill="#6e534e"/>
        </g>
        <g id="Grupo_16706" data-name="Grupo 16706" transform="translate(7.84 121.52)">
          <path id="Trazado_42447" data-name="Trazado 42447" d="M797.067,1033.284a.7.7,0,0,1-.058-1.4l21.841-1.843a.7.7,0,0,1,.119,1.4l-21.842,1.842Z" transform="translate(-796.367 -1030.04)" fill="#6e534e"/>
        </g>
        <g id="Grupo_16707" data-name="Grupo 16707" transform="translate(68.08 116.453)">
          <path id="Trazado_42448" data-name="Trazado 42448" d="M1107.681,1007.143a.7.7,0,0,1-.058-1.4l21.672-1.828a.709.709,0,0,1,.757.639.7.7,0,0,1-.639.757l-21.672,1.828Z" transform="translate(-1106.982 -1003.915)" fill="#6e534e"/>
        </g>
        <g id="Grupo_16708" data-name="Grupo 16708" transform="translate(22.076 234.471)">
          <path id="Trazado_42449" data-name="Trazado 42449" d="M870.472,1624.069a.7.7,0,0,1-.086-1.395l81.912-10.213a.7.7,0,1,1,.173,1.39l-81.912,10.213A.754.754,0,0,1,870.472,1624.069Z" transform="translate(-869.773 -1612.455)" fill="#6e534e"/>
        </g>
        <g id="Grupo_16709" data-name="Grupo 16709" transform="translate(90.783 118.514)">
          <path id="Trazado_42450" data-name="Trazado 42450" d="M1233.308,1079.56a.7.7,0,0,1-.693-.607l-8.558-63.615a.7.7,0,1,1,1.387-.187l8.558,63.616a.7.7,0,0,1-.6.787A.688.688,0,0,1,1233.308,1079.56Z" transform="translate(-1224.05 -1014.542)" fill="#6e534e"/>
        </g>
        <g id="Grupo_16710" data-name="Grupo 16710" transform="translate(104.324 219.172)">
          <path id="Trazado_42451" data-name="Trazado 42451" d="M1296.5,1549.339a.7.7,0,0,1-.693-.607l-1.934-14.368a.7.7,0,0,1,1.388-.187l1.934,14.37a.7.7,0,0,1-.6.787A.713.713,0,0,1,1296.5,1549.339Z" transform="translate(-1293.872 -1533.569)" fill="#6e534e"/>
        </g>
        <g id="Grupo_16711" data-name="Grupo 16711" transform="translate(29.729 113.815)">
          <path id="Trazado_42452" data-name="Trazado 42452" d="M910.9,1000.288a.7.7,0,0,1-.695-.621l-.971-8.577a.7.7,0,0,1,1.391-.158l.971,8.577a.7.7,0,0,1-.617.775C910.956,1000.287,910.929,1000.288,910.9,1000.288Z" transform="translate(-909.232 -990.311)" fill="#6e534e"/>
        </g>
        <g id="Grupo_16712" data-name="Grupo 16712" transform="translate(66.678 111.083)">
          <path id="Trazado_42453" data-name="Trazado 42453" d="M1101.434,985.2a.7.7,0,0,1-.693-.61l-.982-7.575a.7.7,0,1,1,1.389-.18l.982,7.575a.7.7,0,0,1-.6.784A.67.67,0,0,1,1101.434,985.2Z" transform="translate(-1099.753 -976.223)" fill="#6e534e"/>
        </g>
        <g id="Grupo_16713" data-name="Grupo 16713" transform="translate(30.2 107.806)">
          <path id="Trazado_42454" data-name="Trazado 42454" d="M912.361,966.128a.7.7,0,0,1-.462-1.225c.193-.169,4.869-4.161,16.875-5.311,12.1-1.159,18.882,1.839,19.164,1.967a.7.7,0,0,1-.578,1.276c-.067-.03-6.753-2.967-18.453-1.848-11.5,1.1-16.041,4.933-16.086,4.971A.7.7,0,0,1,912.361,966.128Z" transform="translate(-911.66 -959.325)" fill="#6e534e"/>
        </g>
        <g id="Grupo_16714" data-name="Grupo 16714" transform="translate(30.724 119.508)">
          <path id="Trazado_42455" data-name="Trazado 42455" d="M915.063,1024.317a.7.7,0,0,1-.061-1.4l36.679-3.251a.7.7,0,1,1,.124,1.4l-36.679,3.25A.5.5,0,0,1,915.063,1024.317Z" transform="translate(-914.363 -1019.665)" fill="#6e534e"/>
        </g>
        <g id="Grupo_16715" data-name="Grupo 16715" transform="translate(155.042 51.109)">
          <path id="Trazado_42456" data-name="Trazado 42456" d="M1565.207,674.619a10.668,10.668,0,0,1-5.018-1.252c-1.683-.9-4.543-2.818-4.795-5.626a.7.7,0,0,1,1.395-.125c.193,2.151,2.625,3.752,4.058,4.515a9.08,9.08,0,0,0,11.871-2.907.7.7,0,0,1,1.178.759A10.293,10.293,0,0,1,1565.207,674.619Z" transform="translate(-1555.391 -666.977)" fill="#6e534e"/>
        </g>
        <g id="Grupo_16716" data-name="Grupo 16716" transform="translate(174.866 50.199)">
          <path id="Trazado_42457" data-name="Trazado 42457" d="M1663.225,664.76a.7.7,0,0,1-.516-.226,3.827,3.827,0,0,0-3.118-.786c-.336.074-.565.21-.613.362a.7.7,0,1,1-1.335-.421,2.052,2.052,0,0,1,1.644-1.308,5.234,5.234,0,0,1,4.454,1.206.7.7,0,0,1-.516,1.174Z" transform="translate(-1657.61 -662.287)" fill="#6e534e"/>
        </g>
        <g id="Grupo_16717" data-name="Grupo 16717" transform="translate(182.231 50.87)">
          <path id="Trazado_42458" data-name="Trazado 42458" d="M1707.808,675.493a17.212,17.212,0,0,1-5.937-1.06c-3.155-1.221-6.684-4.064-6.248-8.061a.7.7,0,1,1,1.391.151c-.349,3.207,2.671,5.561,5.362,6.6,3.016,1.166,8.614,1.7,11.052-.854a8.767,8.767,0,0,0,1.839-4.348.7.7,0,0,1,1.4.1,10.006,10.006,0,0,1-2.222,5.21C1712.871,674.884,1710.345,675.493,1707.808,675.493Z" transform="translate(-1695.586 -665.747)" fill="#6e534e"/>
        </g>
        <g id="Grupo_16718" data-name="Grupo 16718" transform="translate(204 51.764)">
          <path id="Trazado_42459" data-name="Trazado 42459" d="M1813.016,672.168c-.022,0-.043,0-.065,0l-4.479-.411a.7.7,0,0,1,.128-1.395l4.479.411a.7.7,0,0,1-.063,1.4Z" transform="translate(-1807.835 -670.357)" fill="#6e534e"/>
        </g>
        <g id="Grupo_16719" data-name="Grupo 16719" transform="translate(201.892 48.934)">
          <path id="Trazado_42460" data-name="Trazado 42460" d="M1797.982,659.175a.7.7,0,0,1-.3-1.335l.413-.192.06-.192-.078-.245-.489-.052a.7.7,0,1,1,.148-1.392l.653.069a.7.7,0,0,1,.3.106l.247.158a.691.691,0,0,1,.168.15l.233.288a.693.693,0,0,1,.149.342l.076.536a.7.7,0,0,1-.025.307l-.2.638a.7.7,0,0,1-.373.426l-.694.322A.7.7,0,0,1,1797.982,659.175Z" transform="translate(-1796.966 -655.763)" fill="#6e534e"/>
        </g>
        <g id="Grupo_16720" data-name="Grupo 16720" transform="translate(153.705 46.463)">
          <path id="Trazado_42461" data-name="Trazado 42461" d="M1549.835,646.107a.713.713,0,0,1-.1-.006,1.509,1.509,0,0,1-1.22-1.8,1.293,1.293,0,0,1,1.39-1.265.7.7,0,0,1,.011,1.386.442.442,0,0,0,.015.3.7.7,0,0,1-.1,1.385Z" transform="translate(-1548.498 -643.023)" fill="#6e534e"/>
        </g>
      </g>
      <g id="Grupo_16741" data-name="Grupo 16741" transform="translate(340.778 162.938)" opacity="0.2">
        <g id="Grupo_16722" data-name="Grupo 16722" transform="translate(42.084 98.385)">
          <path id="Trazado_42462" data-name="Trazado 42462" d="M558.777,845.664a.7.7,0,0,1-.7-.7l-.3-174.017a.7.7,0,0,1,.7-.7h0a.7.7,0,0,1,.7.7l.3,174.018a.7.7,0,0,1-.7.7Z" transform="translate(-557.776 -670.246)" fill="#6e534e"/>
        </g>
        <g id="Grupo_16723" data-name="Grupo 16723" transform="translate(82.526 202.866)">
          <path id="Trazado_42463" data-name="Trazado 42463" d="M767.009,1259.243a.7.7,0,0,1-.7-.7v-48.859a.7.7,0,0,1,1.4,0v48.859A.7.7,0,0,1,767.009,1259.243Z" transform="translate(-766.309 -1208.984)" fill="#6e534e"/>
        </g>
        <g id="Grupo_16724" data-name="Grupo 16724" transform="translate(82.526 112.447)">
          <path id="Trazado_42464" data-name="Trazado 42464" d="M767.009,791.8a.7.7,0,0,1-.7-.7V743.455a.7.7,0,0,1,1.4,0V791.1A.7.7,0,0,1,767.009,791.8Z" transform="translate(-766.309 -742.755)" fill="#6e534e"/>
        </g>
        <g id="Grupo_16725" data-name="Grupo 16725" transform="translate(119.018 126.9)">
          <path id="Trazado_42465" data-name="Trazado 42465" d="M955.478,846.361a.7.7,0,0,1-.7-.692l-.3-27.685a.7.7,0,0,1,.693-.708h.008a.7.7,0,0,1,.7.692l.3,27.685a.7.7,0,0,1-.693.708Z" transform="translate(-954.474 -817.276)" fill="#6e534e"/>
        </g>
        <g id="Grupo_16726" data-name="Grupo 16726" transform="translate(143.954 93.29)">
          <path id="Trazado_42466" data-name="Trazado 42466" d="M1083.752,698.434h0a.7.7,0,0,1-.7-.7l.3-53.063a.7.7,0,0,1,.7-.7h0a.7.7,0,0,1,.7.7l-.3,53.063A.7.7,0,0,1,1083.752,698.434Z" transform="translate(-1083.052 -643.971)" fill="#6e534e"/>
        </g>
        <g id="Grupo_16727" data-name="Grupo 16727" transform="translate(19.577 91.464)">
          <path id="Trazado_42467" data-name="Trazado 42467" d="M443.033,817.624a.7.7,0,0,1-.7-.7l-.608-181.665a.7.7,0,0,1,.7-.7h0a.7.7,0,0,1,.7.7l.608,181.664a.7.7,0,0,1-.7.7Z" transform="translate(-441.725 -634.559)" fill="#6e534e"/>
        </g>
        <g id="Grupo_16728" data-name="Grupo 16728" transform="translate(101.746 119.16)">
          <path id="Trazado_42468" data-name="Trazado 42468" d="M866.891,822a.7.7,0,0,1-.7-.687l-.777-43.237a.7.7,0,0,1,.688-.713.71.71,0,0,1,.713.688l.777,43.237a.7.7,0,0,1-.687.713Z" transform="translate(-865.414 -777.367)" fill="#6e534e"/>
        </g>
        <g id="Grupo_16729" data-name="Grupo 16729" transform="translate(255.906 16.933)">
          <path id="Trazado_42469" data-name="Trazado 42469" d="M1661.018,279a.7.7,0,0,1-.7-.7V250.949a.7.7,0,0,1,1.4,0V278.3A.7.7,0,0,1,1661.018,279Z" transform="translate(-1660.318 -250.249)" fill="#6e534e"/>
        </g>
        <g id="Grupo_16730" data-name="Grupo 16730" transform="translate(310.203 271.191)">
          <path id="Trazado_42470" data-name="Trazado 42470" d="M2030.38,1563.01h0l-2.494-.008-86.9-.31a.7.7,0,0,1,0-1.4h0l89.392.318a.7.7,0,0,1,0,1.4Z" transform="translate(-1940.288 -1561.291)" fill="#6e534e"/>
        </g>
        <g id="Grupo_16731" data-name="Grupo 16731" transform="translate(258.603 15.871)">
          <path id="Trazado_42471" data-name="Trazado 42471" d="M1674.924,246.507a.7.7,0,0,1,0-1.4l141.2-.331h0a.7.7,0,0,1,0,1.4l-141.2.331Z" transform="translate(-1674.224 -244.776)" fill="#6e534e"/>
        </g>
        <g id="Grupo_16732" data-name="Grupo 16732" transform="translate(46.365 252.869)">
          <path id="Trazado_42472" data-name="Trazado 42472" d="M580.553,1488.939a.7.7,0,0,1-.353-1.306l35.589-20.724a.7.7,0,0,1,.7,1.211l-35.589,20.725A.7.7,0,0,1,580.553,1488.939Z" transform="translate(-579.853 -1466.814)" fill="#6e534e"/>
        </g>
        <g id="Grupo_16733" data-name="Grupo 16733" transform="translate(0 273.416)">
          <path id="Trazado_42473" data-name="Trazado 42473" d="M341.479,1582.5a.7.7,0,0,1-.267-1.348l20.249-8.337a.7.7,0,0,1,.533,1.295l-20.249,8.337A.685.685,0,0,1,341.479,1582.5Z" transform="translate(-340.778 -1572.761)" fill="#6e534e"/>
        </g>
        <g id="Grupo_16734" data-name="Grupo 16734" transform="translate(20.256 273.571)">
          <path id="Trazado_42474" data-name="Trazado 42474" d="M467.908,1575.237H467.9l-21.981-.276a.7.7,0,0,1,.009-1.4h.009l21.981.275a.7.7,0,0,1-.009,1.4Z" transform="translate(-445.227 -1573.561)" fill="#6e534e"/>
        </g>
        <g id="Grupo_16735" data-name="Grupo 16735" transform="translate(2.434 84.589)">
          <path id="Trazado_42475" data-name="Trazado 42475" d="M393.179,613.872a.7.7,0,0,1-.225-.037l-1.456-.5L353.8,600.468a.7.7,0,0,1,.452-1.326L393.4,612.509a.7.7,0,0,1-.225,1.364Z" transform="translate(-353.329 -599.105)" fill="#6e534e"/>
        </g>
        <g id="Grupo_16736" data-name="Grupo 16736" transform="translate(82.649 111.976)">
          <path id="Trazado_42476" data-name="Trazado 42476" d="M803.676,754.026a.7.7,0,0,1-.226-.037l-36.03-12.3a.7.7,0,1,1,.453-1.326l36.029,12.3a.7.7,0,0,1-.226,1.363Z" transform="translate(-766.947 -740.324)" fill="#6e534e"/>
        </g>
        <g id="Grupo_16737" data-name="Grupo 16737" transform="translate(0.8 8.011)">
          <path id="Trazado_42477" data-name="Trazado 42477" d="M486.927,289.092a.7.7,0,0,1-.355-.1L345.25,205.549a.7.7,0,0,1,.712-1.206l141.321,83.446a.7.7,0,0,1-.356,1.3Z" transform="translate(-344.906 -204.246)" fill="#6e534e"/>
        </g>
        <g id="Grupo_16738" data-name="Grupo 16738" transform="translate(0.54 0)">
          <path id="Trazado_42478" data-name="Trazado 42478" d="M487.693,251.339a.7.7,0,0,1-.363-.1l-143.432-87a.7.7,0,0,1,.726-1.2l143.433,87a.7.7,0,0,1-.364,1.3Z" transform="translate(-343.561 -162.938)" fill="#6e534e"/>
        </g>
        <g id="Grupo_16739" data-name="Grupo 16739" transform="translate(147.014 92.232)">
          <path id="Trazado_42479" data-name="Trazado 42479" d="M1173.052,639.952h0l-73.518-.034a.7.7,0,0,1,0-1.4h0l73.517.034a.7.7,0,1,1,0,1.4Z" transform="translate(-1098.834 -638.517)" fill="#6e534e"/>
        </g>
        <g id="Grupo_16740" data-name="Grupo 16740" transform="translate(144.327 87.151)">
          <path id="Trazado_42480" data-name="Trazado 42480" d="M1085.677,613.747a.7.7,0,0,1,0-1.4l75.684-.029a.7.7,0,0,1,0,1.4l-75.683.029Z" transform="translate(-1084.977 -612.318)" fill="#6e534e"/>
        </g>
      </g>
    </g>
  </g>
</svg>
