<svg xmlns="http://www.w3.org/2000/svg" xmlns:xlink="http://www.w3.org/1999/xlink" width="152" height="152" viewBox="0 0 152 152">
  <defs>
    <radialGradient id="radial-gradient" cx="0.5" cy="0.5" r="0.502" gradientTransform="translate(0.003) scale(0.994 1)" gradientUnits="objectBoundingBox">
      <stop offset="0" stop-color="#fff"/>
      <stop offset="1" stop-color="#fff"/>
    </radialGradient>
  </defs>
  <g id="Grupo_16509" data-name="Grupo 16509" transform="translate(-494 -10477)">
    <ellipse id="Elipse_1062" data-name="Elipse 1062" cx="73.832" cy="73.832" rx="73.832" ry="73.832" transform="translate(496.168 10479.168)" fill="#fff"/>
    <path id="Trazado_40624" data-name="Trazado 40624" d="M2697.842,3761.734a76,76,0,1,1,76-76A76.087,76.087,0,0,1,2697.842,3761.734Zm0-146.581a70.58,70.58,0,1,0,70.581,70.58A70.66,70.66,0,0,0,2697.842,3615.153Z" transform="translate(-2127.841 6867.266)" fill="#0e2571"/>
    <ellipse id="Elipse_1063" data-name="Elipse 1063" cx="62.428" cy="62.428" rx="62.428" ry="62.428" transform="translate(508.045 10490.099)" fill="#0f3384"/>
    <path id="Trazado_42132" data-name="Trazado 42132" d="M8599.045,619.539l-1.017-30.924,8.856-19.176Zm28.063-31.143,1.673-13.984-26.116,47.979Zm21.655,16.856-9.662-1.7-31.96,23.922Zm-11.256-10.393-7.856,2.993-16.776,16.777ZM8618.123,556.3l-11.238,45.567,11.238-38.771Zm-26.7,38.563-1.913,5.718.683,20.946Zm-9.451,21.236-1.982-3.8,2.806,17.9Zm27.5,14.991,48.426-11.547-13.064-2.527Zm53.577-.071-12.9-1.219s-25.691,3-26.022,3.33Zm-5.151,7.442H8606.61l65.68,8.059Zm-38.446,5.476,46.438,11.323-13.734-6.013Zm1.806,10.12,12.358,1.2-23.295-9.623Zm-21.283-6.35a17.247,17.247,0,0,0-3.425,2.15c0,1.434,3.105,3.219,3.863,3.219s3.861-3.616,3.861-4.294S8600.985,647.434,8599.98,647.7Zm8.507-44.962c-.386-.557-3.474.773-4.146,1.567a17.253,17.253,0,0,0-1.59,3.719c.817,1.177,4.388.875,5.009.444S8608.874,603.3,8608.487,602.742Zm-14.984,37.4c.461,1.292,4.009.327,4.335,0s.03-3.177-.712-3.92S8593.206,639.306,8593.5,640.138Zm36.95,9.767c-.034-.653-3.1-.2-3.31.3-.324.79,1.72,1.821,2.006,1.807A3.444,3.444,0,0,0,8630.453,649.9Zm5.617-23.113c-.034-.652-3.1-.2-3.311.3-.324.79,1.72,1.822,2.007,1.807A3.454,3.454,0,0,0,8636.07,626.792Zm-11.8-17.326c-.816-.466-3.737,2.724-3.367,3.3.573.9,4.1-.206,4.41-.485S8625.084,609.932,8624.269,609.466Zm-19.715,30.47c-1.911,0-2.4,1.785-.478,2.787S8606.3,639.936,8604.554,639.936Zm-18.839-15.6c1.7.857,1.972-2.384.423-2.384C8584.443,621.95,8584.014,623.478,8585.715,624.335Zm8.383-21.291c1.918,1,2.225-2.787.478-2.787C8592.664,600.256,8592.181,602.041,8594.1,603.043Zm8.266,25.85c-.837-.836-2.85.619-3.469,0s-.116-3.424-1.424-3.424c-1.946,0-2.156,5.694-1.16,6.689S8603.2,629.73,8602.363,628.894Zm-8.653-7.2c0,.956,3.146.916,4.062,0s-.8-3.027-2.31-3.027C8594.268,618.663,8593.71,620.735,8593.71,621.69Zm21.279,9.769c-.709.64,1.43,2.948,2.723,3.013s1.712-2.619.7-3.742C8617.608,629.843,8615.7,630.818,8614.989,631.459ZM8590.2,641.6c-.7-1.938,1.055-4.339,3.915-5.431a11.931,11.931,0,0,0-4.35-3.562,5.663,5.663,0,0,1-4.338,3.191,1.234,1.234,0,0,1-.153,1.007,1.362,1.362,0,0,1-1.9.307,1.377,1.377,0,0,1-.582-1.565,5.676,5.676,0,0,1-3.29-2.94,11.9,11.9,0,1,0,11.569,20.732,3.262,3.262,0,0,1-1.155-3.361,1.765,1.765,0,0,1,.1-1.937,1.855,1.855,0,0,1,1.483-.879,1.185,1.185,0,0,1,.165-.428,1.361,1.361,0,0,1,1.9-.307,1.455,1.455,0,0,1,.479.553,1.481,1.481,0,0,1,.267.3,2.948,2.948,0,0,1,.791.3,2.873,2.873,0,0,1,.469.482,11.848,11.848,0,0,0,.987-4.731C8593.694,644.255,8590.887,643.517,8590.2,641.6Z" transform="translate(-8048.71 9933.802)" fill="url(#radial-gradient)"/>
  </g>
</svg>
