<svg xmlns="http://www.w3.org/2000/svg" xmlns:xlink="http://www.w3.org/1999/xlink" width="90.581" height="397.758" viewBox="0 0 90.581 397.758">
  <defs>
    <clipPath id="clip-path">
      <rect id="Rectángulo_4698" data-name="Rectángulo 4698" width="82.651" height="82.65" fill="none"/>
    </clipPath>
    <clipPath id="clip-path-2">
      <rect id="Rectángulo_4700" data-name="Rectángulo 4700" width="82.65" height="82.65" fill="none"/>
    </clipPath>
  </defs>
  <g id="Grupo_31353" data-name="Grupo 31353" transform="translate(-817.903 -10256.862)">
    <g id="Grupo_16600" data-name="Grupo 16600" transform="translate(-6359.258 7708.529)">
      <rect id="Rectángulo_4642" data-name="Rectángulo 4642" width="90.581" height="397.758" transform="translate(7177.161 2548.333)" fill="#e4edf4"/>
    </g>
    <g id="Grupo_31352" data-name="Grupo 31352" transform="translate(-741 -827)">
      <g id="Grupo_31342" data-name="Grupo 31342" transform="translate(1563 11370.351)">
        <rect id="Rectángulo_4697" data-name="Rectángulo 4697" width="54.167" height="54.166" transform="translate(3.023 41.325) rotate(-45)" fill="#fff"/>
        <path id="Trazado_51021" data-name="Trazado 51021" d="M6.047,41.326,41.325,6.047,76.6,41.325,41.324,76.6ZM41.325,0,0,41.326,41.324,82.651,82.65,41.325Z" transform="translate(0 0)" fill="#d9000d"/>
        <g id="Grupo_31341" data-name="Grupo 31341">
          <g id="Grupo_31340" data-name="Grupo 31340" clip-path="url(#clip-path)">
            <path id="Trazado_51022" data-name="Trazado 51022" d="M63.794,58.943c1.016,0,2.539-.508,2.945-3.047s2.742-17.67,2.742-17.67c.508-3.656-1.523-5.89-5.687-5.89s-6.195,2.234-5.687,5.89c0,0,2.336,15.132,2.742,17.67s1.929,3.047,2.945,3.047" transform="translate(-22.671 -12.633)" fill="#161615"/>
            <path id="Trazado_51023" data-name="Trazado 51023" d="M63.7,59c-.778,0-2.637-.31-3.1-3.175-.4-2.509-2.718-17.52-2.742-17.671a5.273,5.273,0,0,1,1.012-4.312A6.18,6.18,0,0,1,63.7,32.086a6.18,6.18,0,0,1,4.826,1.754,5.27,5.27,0,0,1,1.012,4.31c-.024.154-2.34,15.164-2.742,17.673C66.334,58.688,64.475,59,63.7,59m0-26.607a5.893,5.893,0,0,0-4.6,1.649,4.979,4.979,0,0,0-.94,4.068c.023.149,2.34,15.158,2.742,17.667.406,2.539,1.925,2.918,2.794,2.918s2.388-.379,2.794-2.918c.4-2.509,2.719-17.518,2.742-17.67a4.975,4.975,0,0,0-.94-4.065,5.893,5.893,0,0,0-4.6-1.649" transform="translate(-22.574 -12.535)" fill="#161615"/>
            <path id="Trazado_51024" data-name="Trazado 51024" d="M69.165,85.674A4.671,4.671,0,1,1,64.493,81a4.671,4.671,0,0,1,4.672,4.671" transform="translate(-23.371 -31.647)" fill="#161615"/>
            <path id="Trazado_51025" data-name="Trazado 51025" d="M64.4,90.4a4.823,4.823,0,1,1,4.824-4.823A4.829,4.829,0,0,1,64.4,90.4m0-9.342a4.519,4.519,0,1,0,4.519,4.519A4.524,4.524,0,0,0,64.4,81.058" transform="translate(-23.274 -31.549)" fill="#161615"/>
          </g>
        </g>
      </g>
      <g id="Grupo_31345" data-name="Grupo 31345" transform="translate(1563.609 11112)">
        <rect id="Rectángulo_4699" data-name="Rectángulo 4699" width="54.166" height="54.166" transform="translate(3.024 41.325) rotate(-45)" fill="#fff"/>
        <path id="Trazado_51026" data-name="Trazado 51026" d="M6.047,41.325,41.325,6.047,76.6,41.325,41.324,76.6ZM41.325,0,0,41.325,41.324,82.65,82.65,41.325Z" fill="#d9000d"/>
        <g id="Grupo_31344" data-name="Grupo 31344">
          <g id="Grupo_31343" data-name="Grupo 31343" clip-path="url(#clip-path-2)">
            <path id="Trazado_51027" data-name="Trazado 51027" d="M53.06,62.43a5.142,5.142,0,0,1,8.995-1.76l-1.726-.107-.267,1.1-1.676-.3.5,1.371-.99,1.371-2.019-1.066-1.98.228Z" transform="translate(-20.73 -22.932)" fill="#161615"/>
            <path id="Trazado_51028" data-name="Trazado 51028" d="M57.846,64.178l-2.074-1.1-2,.231-.918-.922.018-.063a5.254,5.254,0,0,1,9.191-1.8l.154.2-1.881-.117-.269,1.116-1.588-.289.448,1.243Zm-2.031-1.326,1.963,1.037.9-1.244-.541-1.5,1.763.321.264-1.093,1.562.1a5.03,5.03,0,0,0-8.618,1.856l.748.751Z" transform="translate(-20.649 -22.86)" fill="#161615"/>
            <path id="Trazado_51029" data-name="Trazado 51029" d="M62.742,69.075a5.143,5.143,0,0,1-9.8-.772l2.162.519,1.637-1.333,2.056,1.79,1.676-1.028-.038-.99Z" transform="translate(-20.683 -26.277)" fill="#161615"/>
            <path id="Trazado_51030" data-name="Trazado 51030" d="M57.864,72.285a5.284,5.284,0,0,1-5.128-4.11L52.7,68l2.283.548,1.668-1.358,2.066,1.8,1.549-.951-.044-1.167,2.563,2.016-.031.078a5.227,5.227,0,0,1-4.887,3.321M53,68.3a5.061,5.061,0,0,0,4.867,3.758,5,5,0,0,0,4.647-3.1l-2.05-1.612.032.813-1.8,1.106-2.047-1.782-1.607,1.308Z" transform="translate(-20.588 -26.125)" fill="#161615"/>
            <path id="Trazado_51031" data-name="Trazado 51031" d="M65.6,43.445,65.2,42l-.558-.051-.28.863-.482-.33-.3,1.269.558.254.2,1.142Z" transform="translate(-24.837 -16.388)" fill="#161615"/>
            <path id="Trazado_51032" data-name="Trazado 51032" d="M64.234,45.28,64.007,44l-.579-.263.345-1.439.49.335.266-.824.671.062.431,1.534Zm-.629-1.626.537.244.18,1.009,1.142-1.53-.382-1.361-.445-.04-.292.9-.475-.326Z" transform="translate(-24.78 -16.336)" fill="#161615"/>
            <path id="Trazado_51033" data-name="Trazado 51033" d="M73.755,48.556l-.508-.026-.508,1.5.609.609.635-.787Z" transform="translate(-28.418 -18.96)" fill="#161615"/>
            <path id="Trazado_51034" data-name="Trazado 51034" d="M73.3,50.7l-.7-.7.542-1.6.626.031.245,1.389Zm-.528-.743.516.516.56-.695-.213-1.2-.389-.019Z" transform="translate(-28.362 -18.909)" fill="#161615"/>
            <path id="Trazado_51035" data-name="Trazado 51035" d="M83.99,57.157a6.121,6.121,0,0,1,.762-1.168l1.6,1.5Z" transform="translate(-32.814 -21.874)" fill="#161615"/>
            <path id="Trazado_51036" data-name="Trazado 51036" d="M86.5,57.527l-2.7-.378.048-.1a6.135,6.135,0,0,1,.774-1.186l.052-.055Zm-2.471-.5,2.016.282-1.367-1.28a6.018,6.018,0,0,0-.649,1" transform="translate(-32.739 -21.805)" fill="#161615"/>
            <path id="Trazado_51037" data-name="Trazado 51037" d="M94.652,47.7l-.457,1.523-1.422-.026-.533,1.32,1.066.584.787-.863,1.6,1.041V49.551Z" transform="translate(-36.037 -18.635)" fill="#161615"/>
            <path id="Trazado_51038" data-name="Trazado 51038" d="M95.707,51.294l-1.663-1.082-.784.86-1.178-.645.578-1.431,1.417.025.492-1.64,1.138,2.027Zm-1.688-1.28,1.536,1V49.447l-.943-1.68-.422,1.407-1.427-.025-.488,1.208.954.523Z" transform="translate(-35.975 -18.511)" fill="#161615"/>
            <path id="Trazado_51039" data-name="Trazado 51039" d="M37.318,77.614l-.2,1.016.736,1.066.228-.787h.559L39.1,78.2l-.685-.33-.28.3Z" transform="translate(-14.5 -30.322)" fill="#161615"/>
            <path id="Trazado_51040" data-name="Trazado 51040" d="M37.828,79.788l-.846-1.225.232-1.161.854.587.272-.3.814.392-.526.818h-.544Zm-.684-1.258.627.908.2-.689h.574l.388-.6-.558-.268-.285.312-.772-.531Z" transform="translate(-14.448 -30.24)" fill="#161615"/>
            <path id="Trazado_51041" data-name="Trazado 51041" d="M42.74,74.114h1.244l.076.483-.559.279Z" transform="translate(-16.698 -28.955)" fill="#161615"/>
            <path id="Trazado_51042" data-name="Trazado 51042" d="M43.368,74.919l-.93-.93h1.493l.1.6Zm-.562-.778.592.593.46-.23-.058-.363Z" transform="translate(-16.58 -28.906)" fill="#161615"/>
            <path id="Trazado_51043" data-name="Trazado 51043" d="M37.3,69.739l-.685.762,2.082.127Z" transform="translate(-14.305 -27.246)" fill="#161615"/>
            <path id="Trazado_51044" data-name="Trazado 51044" d="M38.883,70.659,36.349,70.5l.834-.927Zm-2.209-.288,1.631.1-1.094-.7Z" transform="translate(-14.201 -27.183)" fill="#161615"/>
            <path id="Trazado_51045" data-name="Trazado 51045" d="M50.38,72.489l-8.1,6.5.508.584,7.667-6.957Z" transform="translate(-16.519 -28.32)" fill="#161615"/>
            <path id="Trazado_51046" data-name="Trazado 51046" d="M42.713,79.608l-.611-.7,8.229-6.6.153.255-.046.042Zm-.392-.682.4.466,7.543-6.844Z" transform="translate(-16.449 -28.247)" fill="#161615"/>
            <path id="Trazado_51047" data-name="Trazado 51047" d="M51.025,76.281l1.193.1a.671.671,0,0,1,.051.863l-.356.406-.355-.381L51,77.7l-.634-.863Z" transform="translate(-19.677 -29.802)" fill="#161615"/>
            <path id="Trazado_51048" data-name="Trazado 51048" d="M50.918,77.76l-.723-.983.739-.625,1.255.107.02.023a.728.728,0,0,1,.051.964l-.411.47-.366-.392ZM50.4,76.8l.547.743.551-.426.345.37.3-.343a.572.572,0,0,0-.032-.74l-1.13-.1Z" transform="translate(-19.61 -29.751)" fill="#161615"/>
            <path id="Trazado_51049" data-name="Trazado 51049" d="M46.563,68.225,33.64,67.489l-.026.3Z" transform="translate(-13.133 -26.367)" fill="#161615"/>
            <path id="Trazado_51050" data-name="Trazado 51050" d="M46.507,68.251l-13.028-.434.038-.458,13,.74Zm-12.863-.581,6.415.214-6.4-.365Z" transform="translate(-13.08 -26.316)" fill="#161615"/>
            <path id="Trazado_51051" data-name="Trazado 51051" d="M45.214,67.906l-1.168.076-.431.711.888.609.94.127.127-.381h.584l.076-.838Z" transform="translate(-17.04 -26.53)" fill="#161615"/>
            <path id="Trazado_51052" data-name="Trazado 51052" d="M45.43,69.464,44.4,69.315l-.948-.65.489-.806,1.221-.079.013,0,1.075.322-.088.969h-.6Zm-.963-.284.859.116.125-.373h.569l.064-.707-.943-.283-1.114.073-.374.615Z" transform="translate(-16.974 -26.481)" fill="#161615"/>
            <path id="Trazado_51053" data-name="Trazado 51053" d="M51.154,67.144,45.035,65.7l-.253.381Z" transform="translate(-17.495 -25.667)" fill="#161615"/>
            <path id="Trazado_51054" data-name="Trazado 51054" d="M51.06,67.164l-6.489-1.085.349-.523,6.17,1.459Zm-6.231-1.2,4,.668-3.837-.907Z" transform="translate(-17.413 -25.612)" fill="#161615"/>
            <path id="Trazado_51055" data-name="Trazado 51055" d="M43.077,69.947,26.448,71.9l.026.33Z" transform="translate(-10.333 -27.327)" fill="#161615"/>
            <path id="Trazado_51056" data-name="Trazado 51056" d="M26.351,72.27l-.037-.484.073-.008,16.629-1.955.02.151Zm.126-.349.013.176,8.875-1.221Z" transform="translate(-10.28 -27.279)" fill="#161615"/>
            <path id="Trazado_51057" data-name="Trazado 51057" d="M51.375,71.156l-4.468,1.269.1.254Z" transform="translate(-18.326 -27.799)" fill="#161615"/>
            <path id="Trazado_51058" data-name="Trazado 51058" d="M46.9,72.728l-.16-.4,4.549-1.292.046.145Zm.044-.3.043.108,1.853-.646Z" transform="translate(-18.26 -27.753)" fill="#161615"/>
            <path id="Trazado_51059" data-name="Trazado 51059" d="M49.9,71.447,42.948,75.23l.152.228Z" transform="translate(-16.779 -27.913)" fill="#161615"/>
            <path id="Trazado_51060" data-name="Trazado 51060" d="M43.007,75.518l-.238-.358L49.8,71.337l.075.133Zm-.019-.3.066.1,2.953-1.741Z" transform="translate(-16.709 -27.87)" fill="#161615"/>
            <path id="Trazado_51061" data-name="Trazado 51061" d="M45.923,70.7,33.406,73.541l.076.253Z" transform="translate(-13.051 -27.62)" fill="#161615"/>
            <path id="Trazado_51062" data-name="Trazado 51062" d="M33.369,73.839l-.12-.4.079-.017,12.516-2.844.036.148Zm.073-.289.032.107,5.2-1.3Z" transform="translate(-12.99 -27.573)" fill="#161615"/>
            <path id="Trazado_51063" data-name="Trazado 51063" d="M52.866,66.109,48.524,63.7l-.076.2Z" transform="translate(-18.928 -24.886)" fill="#161615"/>
            <path id="Trazado_51064" data-name="Trazado 51064" d="M52.771,66.107l-4.479-2.239.131-.35,4.419,2.455Zm-4.288-2.314,1.222.611-1.2-.667Z" transform="translate(-18.867 -24.815)" fill="#161615"/>
            <path id="Trazado_51065" data-name="Trazado 51065" d="M64.582,49.023l6.144-17.188-1.066-.3L63.49,48.9Z" transform="translate(-24.804 -12.319)" fill="#161615"/>
            <path id="Trazado_51066" data-name="Trazado 51066" d="M64.566,49.047,63.319,48.9l.032-.09,6.193-17.433,1.213.346Zm-1.039-.274.937.109,6.1-17.055-.919-.263Z" transform="translate(-24.738 -12.259)" fill="#161615"/>
            <path id="Trazado_51067" data-name="Trazado 51067" d="M62.448,56.233,77.174,40.239l.508.483Z" transform="translate(-24.397 -15.721)" fill="#161615"/>
            <path id="Trazado_51068" data-name="Trazado 51068" d="M62.467,56.217l-.11-.1L77.134,40.061l.62.589-.054.055ZM77.141,40.278,65.671,52.737,77.537,40.653Z" transform="translate(-24.362 -15.651)" fill="#161615"/>
            <path id="Trazado_51069" data-name="Trazado 51069" d="M65.323,59.3l13.532-9.521v1.041Z" transform="translate(-25.521 -19.449)" fill="#161615"/>
            <path id="Trazado_51070" data-name="Trazado 51070" d="M65.336,59.271l-.084-.127L78.9,49.54v1.23l-.036.023Zm13.415-9.438L67.675,57.627l11.077-6.942Z" transform="translate(-25.493 -19.354)" fill="#161615"/>
            <path id="Trazado_51071" data-name="Trazado 51071" d="M67.49,62.537l7.921-3.63.152.457Z" transform="translate(-26.367 -23.014)" fill="#161615"/>
            <path id="Trazado_51072" data-name="Trazado 51072" d="M67.5,62.54l-.06-.14,8-3.666.2.606Zm7.847-3.6L70.007,61.39l5.44-2.139Z" transform="translate(-26.347 -22.946)" fill="#161615"/>
            <path id="Trazado_51073" data-name="Trazado 51073" d="M65.282,54.281l4.8-9.292.508.228Z" transform="translate(-25.504 -17.577)" fill="#161615"/>
            <path id="Trazado_51074" data-name="Trazado 51074" d="M65.3,54.256l-.133-.073L70,44.827l.651.292Zm4.767-9.231L66.625,51.7l3.81-6.509Z" transform="translate(-25.461 -17.513)" fill="#161615"/>
            <path id="Trazado_51075" data-name="Trazado 51075" d="M63.7,51.845,67.126,40.75l-.559-.178Z" transform="translate(-24.886 -15.851)" fill="#161615"/>
            <path id="Trazado_51076" data-name="Trazado 51076" d="M63.724,51.8l-.147-.041,2.889-11.35.707.225-.022.073Zm2.85-11.2-2.1,8.266,2.513-8.136Z" transform="translate(-24.838 -15.789)" fill="#161615"/>
            <path id="Trazado_51077" data-name="Trazado 51077" d="M69.676,57.184l1.345.051L72.6,55.864l-.813,1.549-1.8,1.5-.279-.685-1.092.508-.2-.254Z" transform="translate(-26.725 -21.825)" fill="#161615"/>
            <path id="Trazado_51078" data-name="Trazado 51078" d="M69.885,59,69.6,58.29l-1.073.5-.283-.353,1.34-1.367,1.35.051,1.551-1.351.117.093-.83,1.572Zm-.208-.913.27.663,1.711-1.422.617-1.176-1.291,1.124-1.342-.051-1.2,1.223.123.154Z" transform="translate(-26.66 -21.788)" fill="#161615"/>
            <path id="Trazado_51079" data-name="Trazado 51079" d="M64.427,62.29,88.305,56.2l.266.571Z" transform="translate(-25.171 -21.955)" fill="#161615"/>
            <path id="Trazado_51080" data-name="Trazado 51080" d="M64.432,62.307l-.036-.148L88.335,56.05l.333.714-.092.021ZM88.25,56.229,70.334,60.8,88.45,56.657Z" transform="translate(-25.158 -21.898)" fill="#161615"/>
            <path id="Trazado_51081" data-name="Trazado 51081" d="M65.677,64.628l26.277-4.494v.838Z" transform="translate(-25.659 -23.494)" fill="#161615"/>
            <path id="Trazado_51082" data-name="Trazado 51082" d="M65.679,64.646l-.023-.15,26.366-4.509v.994l-.066.009Zm26.19-4.479L70.5,63.821l21.365-2.973Z" transform="translate(-25.651 -23.436)" fill="#161615"/>
            <path id="Trazado_51083" data-name="Trazado 51083" d="M67.49,69.01l22.05.685V70Z" transform="translate(-26.367 -26.961)" fill="#161615"/>
            <path id="Trazado_51084" data-name="Trazado 51084" d="M89.614,70.031l-22.129-.994.005-.152,22.124.688ZM78.521,69.38l10.941.491V69.72Z" transform="translate(-26.365 -26.912)" fill="#161615"/>
            <path id="Trazado_51085" data-name="Trazado 51085" d="M68.3,70.385l9.6,1.523-.266,1.1Z" transform="translate(-26.685 -27.498)" fill="#161615"/>
            <path id="Trazado_51086" data-name="Trazado 51086" d="M77.675,73.058,68.269,70.41l.032-.149L77.98,71.8Zm-8.114-2.443,8,2.254.229-.947Z" transform="translate(-26.672 -27.45)" fill="#161615"/>
            <path id="Trazado_51087" data-name="Trazado 51087" d="M79.069,67.955l-.266-1.1,1.028-.153.762-.876,2.856,1.295-.8,1.028-1.866-.038-.3-.419-.724.038-.038.342Z" transform="translate(-30.787 -25.716)" fill="#161615"/>
            <path id="Trazado_51088" data-name="Trazado 51088" d="M82.625,68.163l-1.942-.04-.3-.416-.618.033-.04.359-.776-.138-.3-1.233,1.083-.161.781-.9,3,1.358Zm-1.863-.19,1.79.037.717-.922-2.717-1.231-.743.854-.974.144.236.975.518.091.037-.327.829-.043Z" transform="translate(-30.727 -25.656)" fill="#161615"/>
            <path id="Trazado_51089" data-name="Trazado 51089" d="M73.565,71.885l-.19.495-1.1-.228-.343.5,1.181.876,2.7.457.076-.685-1.524-.8.076-.457Z" transform="translate(-28.101 -28.084)" fill="#161615"/>
            <path id="Trazado_51090" data-name="Trazado 51090" d="M75.812,74.013,73,73.529l-1.239-.92.413-.6,1.091.225.19-.493,1.012.176-.08.477,1.521.8Zm-2.74-.618,2.606.441.062-.554-1.526-.8.073-.437-.74-.129-.191.5-1.119-.232-.272.393Z" transform="translate(-28.034 -28.029)" fill="#161615"/>
            <path id="Trazado_51091" data-name="Trazado 51091" d="M67.677,71.572l5.979,3.313.229.609Z" transform="translate(-26.44 -27.962)" fill="#161615"/>
            <path id="Trazado_51092" data-name="Trazado 51092" d="M74.009,75.637l-6.4-4.043.077-.131,6,3.327Zm-4.08-2.758,3.778,2.387-.14-.37Z" transform="translate(-26.414 -27.919)" fill="#161615"/>
            <path id="Trazado_51093" data-name="Trazado 51093" d="M62.552,68.76l9.9,7.2-.228.266Z" transform="translate(-24.438 -26.863)" fill="#161615"/>
            <path id="Trazado_51094" data-name="Trazado 51094" d="M72.206,76.289l-9.73-7.508.091-.122L72.536,75.9Zm-5.428-4.38,5.406,4.172.128-.149Z" transform="translate(-24.408 -26.824)" fill="#161615"/>
            <path id="Trazado_51095" data-name="Trazado 51095" d="M66.365,72.947,71.849,77.1l-.19.191Z" transform="translate(-25.928 -28.499)" fill="#161615"/>
            <path id="Trazado_51096" data-name="Trazado 51096" d="M71.632,77.353l-5.347-4.385.094-.119,5.553,4.2ZM69.4,75.328l2.219,1.819.079-.08Z" transform="translate(-25.896 -28.461)" fill="#161615"/>
            <path id="Trazado_51097" data-name="Trazado 51097" d="M54.04,65.257,50.08,62.135l-.152.191Z" transform="translate(-19.506 -24.275)" fill="#161615"/>
            <path id="Trazado_51098" data-name="Trazado 51098" d="M53.925,65.251l-4.178-2.979L50,61.96l4.02,3.169Zm-3.959-3.009L51.446,63.3l-1.425-1.124Z" transform="translate(-19.435 -24.207)" fill="#161615"/>
          </g>
        </g>
      </g>
      <g id="Grupo_31348" data-name="Grupo 31348" transform="translate(1563.609 11283.827)">
        <rect id="Rectángulo_4701" data-name="Rectángulo 4701" width="54.166" height="54.166" transform="translate(3.024 41.325) rotate(-45)" fill="#fff"/>
        <path id="Trazado_51099" data-name="Trazado 51099" d="M6.047,41.325,41.325,6.047,76.6,41.325,41.324,76.6ZM41.325,0,0,41.325,41.324,82.65,82.65,41.325Z" fill="#d9000d"/>
        <g id="Grupo_31347" data-name="Grupo 31347">
          <g id="Grupo_31346" data-name="Grupo 31346" clip-path="url(#clip-path-2)">
            <path id="Trazado_51100" data-name="Trazado 51100" d="M53.06,62.43a5.142,5.142,0,0,1,8.995-1.76l-1.726-.107-.267,1.1-1.676-.3.5,1.371-.99,1.371-2.019-1.066-1.98.228Z" transform="translate(-20.73 -22.932)" fill="#161615"/>
            <path id="Trazado_51101" data-name="Trazado 51101" d="M57.846,64.178l-2.074-1.1-2,.231-.918-.922.018-.063a5.254,5.254,0,0,1,9.191-1.8l.154.2-1.881-.117-.269,1.116-1.588-.289.448,1.243Zm-2.031-1.326,1.963,1.037.9-1.244-.541-1.5,1.763.321.264-1.093,1.562.1a5.03,5.03,0,0,0-8.618,1.856l.748.751Z" transform="translate(-20.649 -22.86)" fill="#161615"/>
            <path id="Trazado_51102" data-name="Trazado 51102" d="M62.742,69.075a5.143,5.143,0,0,1-9.8-.772l2.162.519,1.637-1.333,2.056,1.79,1.676-1.028-.038-.99Z" transform="translate(-20.683 -26.277)" fill="#161615"/>
            <path id="Trazado_51103" data-name="Trazado 51103" d="M57.864,72.285a5.284,5.284,0,0,1-5.128-4.11L52.7,68l2.283.548,1.668-1.358,2.066,1.8,1.549-.951-.044-1.167,2.563,2.016-.031.078a5.227,5.227,0,0,1-4.887,3.321M53,68.3a5.061,5.061,0,0,0,4.867,3.758,5,5,0,0,0,4.647-3.1l-2.05-1.612.032.813-1.8,1.106-2.047-1.782-1.607,1.308Z" transform="translate(-20.588 -26.125)" fill="#161615"/>
            <path id="Trazado_51104" data-name="Trazado 51104" d="M65.6,43.445,65.2,42l-.558-.051-.28.863-.482-.33-.3,1.269.558.254.2,1.142Z" transform="translate(-24.837 -16.388)" fill="#161615"/>
            <path id="Trazado_51105" data-name="Trazado 51105" d="M64.234,45.28,64.007,44l-.579-.263.345-1.439.49.335.266-.824.671.062.431,1.534Zm-.629-1.626.537.244.18,1.009,1.142-1.53-.382-1.361-.445-.04-.292.9-.475-.326Z" transform="translate(-24.78 -16.336)" fill="#161615"/>
            <path id="Trazado_51106" data-name="Trazado 51106" d="M73.755,48.556l-.508-.026-.508,1.5.609.609.635-.787Z" transform="translate(-28.418 -18.96)" fill="#161615"/>
            <path id="Trazado_51107" data-name="Trazado 51107" d="M73.3,50.7l-.7-.7.542-1.6.626.031.245,1.389Zm-.528-.743.516.516.56-.695-.213-1.2-.389-.019Z" transform="translate(-28.362 -18.909)" fill="#161615"/>
            <path id="Trazado_51108" data-name="Trazado 51108" d="M83.99,57.157a6.121,6.121,0,0,1,.762-1.168l1.6,1.5Z" transform="translate(-32.814 -21.874)" fill="#161615"/>
            <path id="Trazado_51109" data-name="Trazado 51109" d="M86.5,57.527l-2.7-.378.048-.1a6.135,6.135,0,0,1,.774-1.186l.052-.055Zm-2.471-.5,2.016.282-1.367-1.28a6.018,6.018,0,0,0-.649,1" transform="translate(-32.739 -21.805)" fill="#161615"/>
            <path id="Trazado_51110" data-name="Trazado 51110" d="M94.652,47.7l-.457,1.523-1.422-.026-.533,1.32,1.066.584.787-.863,1.6,1.041V49.551Z" transform="translate(-36.037 -18.635)" fill="#161615"/>
            <path id="Trazado_51111" data-name="Trazado 51111" d="M95.707,51.294l-1.663-1.082-.784.86-1.178-.645.578-1.431,1.417.025.492-1.64,1.138,2.027Zm-1.688-1.28,1.536,1V49.447l-.943-1.68-.422,1.407-1.427-.025-.488,1.208.954.523Z" transform="translate(-35.975 -18.511)" fill="#161615"/>
            <path id="Trazado_51112" data-name="Trazado 51112" d="M37.318,77.614l-.2,1.016.736,1.066.228-.787h.559L39.1,78.2l-.685-.33-.28.3Z" transform="translate(-14.5 -30.322)" fill="#161615"/>
            <path id="Trazado_51113" data-name="Trazado 51113" d="M37.828,79.788l-.846-1.225.232-1.161.854.587.272-.3.814.392-.526.818h-.544Zm-.684-1.258.627.908.2-.689h.574l.388-.6-.558-.268-.285.312-.772-.531Z" transform="translate(-14.448 -30.24)" fill="#161615"/>
            <path id="Trazado_51114" data-name="Trazado 51114" d="M42.74,74.114h1.244l.076.483-.559.279Z" transform="translate(-16.698 -28.955)" fill="#161615"/>
            <path id="Trazado_51115" data-name="Trazado 51115" d="M43.368,74.919l-.93-.93h1.493l.1.6Zm-.562-.778.592.593.46-.23-.058-.363Z" transform="translate(-16.58 -28.906)" fill="#161615"/>
            <path id="Trazado_51116" data-name="Trazado 51116" d="M37.3,69.739l-.685.762,2.082.127Z" transform="translate(-14.305 -27.246)" fill="#161615"/>
            <path id="Trazado_51117" data-name="Trazado 51117" d="M38.883,70.659,36.349,70.5l.834-.927Zm-2.209-.288,1.631.1-1.094-.7Z" transform="translate(-14.201 -27.183)" fill="#161615"/>
            <path id="Trazado_51118" data-name="Trazado 51118" d="M50.38,72.489l-8.1,6.5.508.584,7.667-6.957Z" transform="translate(-16.519 -28.32)" fill="#161615"/>
            <path id="Trazado_51119" data-name="Trazado 51119" d="M42.713,79.608l-.611-.7,8.229-6.6.153.255-.046.042Zm-.392-.682.4.466,7.543-6.844Z" transform="translate(-16.449 -28.247)" fill="#161615"/>
            <path id="Trazado_51120" data-name="Trazado 51120" d="M51.025,76.281l1.193.1a.671.671,0,0,1,.051.863l-.356.406-.355-.381L51,77.7l-.634-.863Z" transform="translate(-19.677 -29.802)" fill="#161615"/>
            <path id="Trazado_51121" data-name="Trazado 51121" d="M50.918,77.76l-.723-.983.739-.625,1.255.107.02.023a.728.728,0,0,1,.051.964l-.411.47-.366-.392ZM50.4,76.8l.547.743.551-.426.345.37.3-.343a.572.572,0,0,0-.032-.74l-1.13-.1Z" transform="translate(-19.61 -29.751)" fill="#161615"/>
            <path id="Trazado_51122" data-name="Trazado 51122" d="M46.563,68.225,33.64,67.489l-.026.3Z" transform="translate(-13.133 -26.367)" fill="#161615"/>
            <path id="Trazado_51123" data-name="Trazado 51123" d="M46.507,68.251l-13.028-.434.038-.458,13,.74Zm-12.863-.581,6.415.214-6.4-.365Z" transform="translate(-13.08 -26.316)" fill="#161615"/>
            <path id="Trazado_51124" data-name="Trazado 51124" d="M45.214,67.906l-1.168.076-.431.711.888.609.94.127.127-.381h.584l.076-.838Z" transform="translate(-17.04 -26.53)" fill="#161615"/>
            <path id="Trazado_51125" data-name="Trazado 51125" d="M45.43,69.464,44.4,69.315l-.948-.65.489-.806,1.221-.079.013,0,1.075.322-.088.969h-.6Zm-.963-.284.859.116.125-.373h.569l.064-.707-.943-.283-1.114.073-.374.615Z" transform="translate(-16.974 -26.481)" fill="#161615"/>
            <path id="Trazado_51126" data-name="Trazado 51126" d="M51.154,67.144,45.035,65.7l-.253.381Z" transform="translate(-17.495 -25.667)" fill="#161615"/>
            <path id="Trazado_51127" data-name="Trazado 51127" d="M51.06,67.164l-6.489-1.085.349-.523,6.17,1.459Zm-6.231-1.2,4,.668-3.837-.907Z" transform="translate(-17.413 -25.612)" fill="#161615"/>
            <path id="Trazado_51128" data-name="Trazado 51128" d="M43.077,69.947,26.448,71.9l.026.33Z" transform="translate(-10.333 -27.327)" fill="#161615"/>
            <path id="Trazado_51129" data-name="Trazado 51129" d="M26.351,72.27l-.037-.484.073-.008,16.629-1.955.02.151Zm.126-.349.013.176,8.875-1.221Z" transform="translate(-10.28 -27.279)" fill="#161615"/>
            <path id="Trazado_51130" data-name="Trazado 51130" d="M51.375,71.156l-4.468,1.269.1.254Z" transform="translate(-18.326 -27.799)" fill="#161615"/>
            <path id="Trazado_51131" data-name="Trazado 51131" d="M46.9,72.728l-.16-.4,4.549-1.292.046.145Zm.044-.3.043.108,1.853-.646Z" transform="translate(-18.26 -27.753)" fill="#161615"/>
            <path id="Trazado_51132" data-name="Trazado 51132" d="M49.9,71.447,42.948,75.23l.152.228Z" transform="translate(-16.779 -27.913)" fill="#161615"/>
            <path id="Trazado_51133" data-name="Trazado 51133" d="M43.007,75.518l-.238-.358L49.8,71.337l.075.133Zm-.019-.3.066.1,2.953-1.741Z" transform="translate(-16.709 -27.87)" fill="#161615"/>
            <path id="Trazado_51134" data-name="Trazado 51134" d="M45.923,70.7,33.406,73.541l.076.253Z" transform="translate(-13.051 -27.62)" fill="#161615"/>
            <path id="Trazado_51135" data-name="Trazado 51135" d="M33.369,73.839l-.12-.4.079-.017,12.516-2.844.036.148Zm.073-.289.032.107,5.2-1.3Z" transform="translate(-12.99 -27.573)" fill="#161615"/>
            <path id="Trazado_51136" data-name="Trazado 51136" d="M52.866,66.109,48.524,63.7l-.076.2Z" transform="translate(-18.928 -24.886)" fill="#161615"/>
            <path id="Trazado_51137" data-name="Trazado 51137" d="M52.771,66.107l-4.479-2.239.131-.35,4.419,2.455Zm-4.288-2.314,1.222.611-1.2-.667Z" transform="translate(-18.867 -24.815)" fill="#161615"/>
            <path id="Trazado_51138" data-name="Trazado 51138" d="M64.582,49.023l6.144-17.188-1.066-.3L63.49,48.9Z" transform="translate(-24.804 -12.319)" fill="#161615"/>
            <path id="Trazado_51139" data-name="Trazado 51139" d="M64.566,49.047,63.319,48.9l.032-.09,6.193-17.433,1.213.346Zm-1.039-.274.937.109,6.1-17.055-.919-.263Z" transform="translate(-24.738 -12.259)" fill="#161615"/>
            <path id="Trazado_51140" data-name="Trazado 51140" d="M62.448,56.233,77.174,40.239l.508.483Z" transform="translate(-24.397 -15.721)" fill="#161615"/>
            <path id="Trazado_51141" data-name="Trazado 51141" d="M62.467,56.217l-.11-.1L77.134,40.061l.62.589-.054.055ZM77.141,40.278,65.671,52.737,77.537,40.653Z" transform="translate(-24.362 -15.651)" fill="#161615"/>
            <path id="Trazado_51142" data-name="Trazado 51142" d="M65.323,59.3l13.532-9.521v1.041Z" transform="translate(-25.521 -19.449)" fill="#161615"/>
            <path id="Trazado_51143" data-name="Trazado 51143" d="M65.336,59.271l-.084-.127L78.9,49.54v1.23l-.036.023Zm13.415-9.438L67.675,57.627l11.077-6.942Z" transform="translate(-25.493 -19.354)" fill="#161615"/>
            <path id="Trazado_51144" data-name="Trazado 51144" d="M67.49,62.537l7.921-3.63.152.457Z" transform="translate(-26.367 -23.014)" fill="#161615"/>
            <path id="Trazado_51145" data-name="Trazado 51145" d="M67.5,62.54l-.06-.14,8-3.666.2.606Zm7.847-3.6L70.007,61.39l5.44-2.139Z" transform="translate(-26.347 -22.946)" fill="#161615"/>
            <path id="Trazado_51146" data-name="Trazado 51146" d="M65.282,54.281l4.8-9.292.508.228Z" transform="translate(-25.504 -17.577)" fill="#161615"/>
            <path id="Trazado_51147" data-name="Trazado 51147" d="M65.3,54.256l-.133-.073L70,44.827l.651.292Zm4.767-9.231L66.625,51.7l3.81-6.509Z" transform="translate(-25.461 -17.513)" fill="#161615"/>
            <path id="Trazado_51148" data-name="Trazado 51148" d="M63.7,51.845,67.126,40.75l-.559-.178Z" transform="translate(-24.886 -15.851)" fill="#161615"/>
            <path id="Trazado_51149" data-name="Trazado 51149" d="M63.724,51.8l-.147-.041,2.889-11.35.707.225-.022.073Zm2.85-11.2-2.1,8.266,2.513-8.136Z" transform="translate(-24.838 -15.789)" fill="#161615"/>
            <path id="Trazado_51150" data-name="Trazado 51150" d="M69.676,57.184l1.345.051L72.6,55.864l-.813,1.549-1.8,1.5-.279-.685-1.092.508-.2-.254Z" transform="translate(-26.725 -21.825)" fill="#161615"/>
            <path id="Trazado_51151" data-name="Trazado 51151" d="M69.885,59,69.6,58.29l-1.073.5-.283-.353,1.34-1.367,1.35.051,1.551-1.351.117.093-.83,1.572Zm-.208-.913.27.663,1.711-1.422.617-1.176-1.291,1.124-1.342-.051-1.2,1.223.123.154Z" transform="translate(-26.66 -21.788)" fill="#161615"/>
            <path id="Trazado_51152" data-name="Trazado 51152" d="M64.427,62.29,88.305,56.2l.266.571Z" transform="translate(-25.171 -21.955)" fill="#161615"/>
            <path id="Trazado_51153" data-name="Trazado 51153" d="M64.432,62.307l-.036-.148L88.335,56.05l.333.714-.092.021ZM88.25,56.229,70.334,60.8,88.45,56.657Z" transform="translate(-25.158 -21.898)" fill="#161615"/>
            <path id="Trazado_51154" data-name="Trazado 51154" d="M65.677,64.628l26.277-4.494v.838Z" transform="translate(-25.659 -23.494)" fill="#161615"/>
            <path id="Trazado_51155" data-name="Trazado 51155" d="M65.679,64.646l-.023-.15,26.366-4.509v.994l-.066.009Zm26.19-4.479L70.5,63.821l21.365-2.973Z" transform="translate(-25.651 -23.436)" fill="#161615"/>
            <path id="Trazado_51156" data-name="Trazado 51156" d="M67.49,69.01l22.05.685V70Z" transform="translate(-26.367 -26.961)" fill="#161615"/>
            <path id="Trazado_51157" data-name="Trazado 51157" d="M89.614,70.031l-22.129-.994.005-.152,22.124.688ZM78.521,69.38l10.941.491V69.72Z" transform="translate(-26.365 -26.912)" fill="#161615"/>
            <path id="Trazado_51158" data-name="Trazado 51158" d="M68.3,70.385l9.6,1.523-.266,1.1Z" transform="translate(-26.685 -27.498)" fill="#161615"/>
            <path id="Trazado_51159" data-name="Trazado 51159" d="M77.675,73.058,68.269,70.41l.032-.149L77.98,71.8Zm-8.114-2.443,8,2.254.229-.947Z" transform="translate(-26.672 -27.45)" fill="#161615"/>
            <path id="Trazado_51160" data-name="Trazado 51160" d="M79.069,67.955l-.266-1.1,1.028-.153.762-.876,2.856,1.295-.8,1.028-1.866-.038-.3-.419-.724.038-.038.342Z" transform="translate(-30.787 -25.716)" fill="#161615"/>
            <path id="Trazado_51161" data-name="Trazado 51161" d="M82.625,68.163l-1.942-.04-.3-.416-.618.033-.04.359-.776-.138-.3-1.233,1.083-.161.781-.9,3,1.358Zm-1.863-.19,1.79.037.717-.922-2.717-1.231-.743.854-.974.144.236.975.518.091.037-.327.829-.043Z" transform="translate(-30.727 -25.656)" fill="#161615"/>
            <path id="Trazado_51162" data-name="Trazado 51162" d="M73.565,71.885l-.19.495-1.1-.228-.343.5,1.181.876,2.7.457.076-.685-1.524-.8.076-.457Z" transform="translate(-28.101 -28.084)" fill="#161615"/>
            <path id="Trazado_51163" data-name="Trazado 51163" d="M75.812,74.013,73,73.529l-1.239-.92.413-.6,1.091.225.19-.493,1.012.176-.08.477,1.521.8Zm-2.74-.618,2.606.441.062-.554-1.526-.8.073-.437-.74-.129-.191.5-1.119-.232-.272.393Z" transform="translate(-28.034 -28.029)" fill="#161615"/>
            <path id="Trazado_51164" data-name="Trazado 51164" d="M67.677,71.572l5.979,3.313.229.609Z" transform="translate(-26.44 -27.962)" fill="#161615"/>
            <path id="Trazado_51165" data-name="Trazado 51165" d="M74.009,75.637l-6.4-4.043.077-.131,6,3.327Zm-4.08-2.758,3.778,2.387-.14-.37Z" transform="translate(-26.414 -27.919)" fill="#161615"/>
            <path id="Trazado_51166" data-name="Trazado 51166" d="M62.552,68.76l9.9,7.2-.228.266Z" transform="translate(-24.438 -26.863)" fill="#161615"/>
            <path id="Trazado_51167" data-name="Trazado 51167" d="M72.206,76.289l-9.73-7.508.091-.122L72.536,75.9Zm-5.428-4.38,5.406,4.172.128-.149Z" transform="translate(-24.408 -26.824)" fill="#161615"/>
            <path id="Trazado_51168" data-name="Trazado 51168" d="M66.365,72.947,71.849,77.1l-.19.191Z" transform="translate(-25.928 -28.499)" fill="#161615"/>
            <path id="Trazado_51169" data-name="Trazado 51169" d="M71.632,77.353l-5.347-4.385.094-.119,5.553,4.2ZM69.4,75.328l2.219,1.819.079-.08Z" transform="translate(-25.896 -28.461)" fill="#161615"/>
            <path id="Trazado_51170" data-name="Trazado 51170" d="M54.04,65.257,50.08,62.135l-.152.191Z" transform="translate(-19.506 -24.275)" fill="#161615"/>
            <path id="Trazado_51171" data-name="Trazado 51171" d="M53.925,65.251l-4.178-2.979L50,61.96l4.02,3.169Zm-3.959-3.009L51.446,63.3l-1.425-1.124Z" transform="translate(-19.435 -24.207)" fill="#161615"/>
          </g>
        </g>
      </g>
      <g id="Grupo_31351" data-name="Grupo 31351" transform="translate(1563 11197.305)">
        <rect id="Rectángulo_4703" data-name="Rectángulo 4703" width="54.167" height="54.166" transform="translate(3.023 41.325) rotate(-45)" fill="#fff"/>
        <path id="Trazado_51172" data-name="Trazado 51172" d="M6.046,41.326,41.324,6.047,76.6,41.325,41.324,76.6ZM41.324,0,0,41.326,41.324,82.651,82.65,41.325Z" transform="translate(0 0)" fill="#d9000d"/>
        <g id="Grupo_31350" data-name="Grupo 31350">
          <g id="Grupo_31349" data-name="Grupo 31349" clip-path="url(#clip-path)">
            <path id="Trazado_51173" data-name="Trazado 51173" d="M60.084,23.5c-3.758,0-8.683,3.249-8.683,10.612a17.441,17.441,0,0,0,3.758,10.206l-.3,3L49.014,49.4s-1.078.356-.7.737.609.419.762.419.342-.115.495.152.457.647.762.685.457-.115.533.114.114.609.495.685.648-.152.838.152.572.609.762.572.419-.267.5-.076.342.838.723.838a1.229,1.229,0,0,0,.838-.267c.267-.19.229-.342.572-.19s.381.228.572.152.381-.228.571.038.685.8.8.952.19.19.419,0,.266-.419.457-.609.5-.267.533-.572-.267-.838-.038-1.1.457-.381.266-.572-.3-.342-.152-.571.191-.609.419-.762.647-.343.533-.648-.533-.762-.3-.914.495-.228.456-.457-.152-.342-.456-.419-.724.114-.648-.191.228-.381.228-.762-.19-.609.038-.838.419-.228.457-.457.152-.381.038-.609-.3-.381-.076-.533.381-.19.419-.457.115-.533,0-.723-.266-.609-.152-.8.3-.419.456,0,.267,1.1.381,1.333.5.381.5.723a1.952,1.952,0,0,0,.115.876c.114.19.571.19.342.609s-.648.723-.419.99.533.533.533.723-.115.572.152.762.266.228.266.5.115.8-.114.876-.8.228-.648.533.267.381.3.609a2.951,2.951,0,0,1,.152.838,4.539,4.539,0,0,0-.038.99c.038.152.609.457.457.8s-.343.571-.152.723.685.609.913.381.685-.609.914-.609.609.381.915.152.419-.152.381-.495l-.038-.343s-.3-.647,0-.571a5.947,5.947,0,0,0,.876.3c.342.038.647-.191.762,0s.381.533.609.342.229-.342.495-.342.533.152.762-.038.343-.266.343-.457-.115-.342.152-.495.419-.152.647-.419.3-.419.419-.266.609.457.724.266a4.191,4.191,0,0,1,.647-1.066c.3-.266.685-.533.609-.647a8.173,8.173,0,0,0-1.231-.547l-5.84-2.081-.3-3a17.442,17.442,0,0,0,3.758-10.206c0-7.363-4.925-10.612-8.683-10.612" transform="translate(-18.845 -9.181)" fill="#161615"/>
            <path id="Trazado_51174" data-name="Trazado 51174" d="M62.957,54.721a1.479,1.479,0,0,1-.746-.409l-.066-.054c-.2-.163-.091-.385.029-.621.032-.063.066-.132.1-.205.072-.161-.081-.325-.272-.507a.6.6,0,0,1-.19-.237,4.483,4.483,0,0,1,.037-1.023,1.472,1.472,0,0,0-.087-.548,2.452,2.452,0,0,1-.065-.263.744.744,0,0,0-.137-.307,2.89,2.89,0,0,1-.16-.278.284.284,0,0,1-.013-.244c.089-.21.426-.319.65-.39l.06-.02c.112-.037.085-.369.068-.567-.007-.085-.013-.164-.013-.227,0-.255,0-.26-.23-.425a.7.7,0,0,1-.2-.7,1.254,1.254,0,0,0,.01-.131c0-.109-.177-.3-.333-.469-.06-.066-.122-.132-.179-.2-.2-.237-.012-.493.174-.741a2.961,2.961,0,0,0,.235-.347c.114-.209.028-.258-.127-.347a.546.546,0,0,1-.214-.175,1.97,1.97,0,0,1-.127-.921c0-.177-.127-.3-.263-.422a1.008,1.008,0,0,1-.224-.263,3.833,3.833,0,0,1-.189-.643c-.061-.247-.124-.5-.195-.7-.062-.169-.112-.179-.118-.179s-.068,0-.185.194c-.083.139.035.514.152.71a.943.943,0,0,1,.034.641c-.008.046-.016.093-.022.14a.562.562,0,0,1-.341.443l-.115.073c-.1.064-.094.092.017.271.029.048.061.1.088.152a.612.612,0,0,1,.011.494,1.369,1.369,0,0,0-.041.169.463.463,0,0,1-.256.327,1.273,1.273,0,0,0-.225.177c-.112.112-.1.213-.058.414a1.78,1.78,0,0,1,.044.363,1.041,1.041,0,0,1-.129.52,1.284,1.284,0,0,0-.1.263.11.11,0,0,0,0,.059.59.59,0,0,0,.221.01,1.214,1.214,0,0,1,.368.016c.33.083.476.219.522.489.039.235-.162.349-.339.45-.051.029-.1.06-.155.093-.088.059.051.292.162.48a2.357,2.357,0,0,1,.175.332c.122.325-.211.53-.455.679-.04.025-.078.048-.112.071a.828.828,0,0,0-.244.412,1.7,1.7,0,0,1-.15.326c-.109.163-.058.263.141.462s.044.37-.112.528c-.047.047-.1.1-.151.16-.113.132-.055.374,0,.609a1.342,1.342,0,0,1,.059.45.68.68,0,0,1-.365.473,1.245,1.245,0,0,0-.193.148,1.187,1.187,0,0,0-.183.257,1.227,1.227,0,0,1-.28.358c-.138.116-.238.16-.322.147a.34.34,0,0,1-.221-.161c-.044-.058-.149-.179-.272-.319-.183-.21-.412-.471-.529-.635s-.2-.128-.377-.048l-.092.041a.441.441,0,0,1-.435-.057c-.054-.027-.119-.06-.2-.1-.193-.087-.211-.068-.309.028a1.364,1.364,0,0,1-.177.154,1.323,1.323,0,0,1-.888.282c-.3,0-.567-.3-.8-.891-.006-.015-.011-.02-.012-.02-.023-.011-.114.035-.168.062a.9.9,0,0,1-.218.086c-.257.055-.671-.32-.851-.61-.087-.137-.177-.132-.37-.111a1.239,1.239,0,0,1-.411,0c-.374-.074-.462-.394-.527-.629-.011-.041-.022-.079-.034-.114-.025-.077-.035-.079-.168-.062a1.167,1.167,0,0,1-.294.005c-.325-.04-.648-.417-.826-.728-.09-.156-.173-.142-.3-.121a.764.764,0,0,1-.121.012,1.145,1.145,0,0,1-.823-.444.306.306,0,0,1-.1-.295c.078-.328.754-.559.832-.585L54.719,47.2l.295-2.906a17.655,17.655,0,0,1-3.755-10.233c0-7.794,5.378-10.7,8.769-10.7s8.769,2.9,8.769,10.7A17.656,17.656,0,0,1,65.043,44.29l.295,2.906,5.789,2.063a5.83,5.83,0,0,1,1.274.579c.1.154-.117.336-.422.589-.068.056-.137.113-.2.171a2.754,2.754,0,0,0-.512.813c-.047.1-.087.18-.118.233a.214.214,0,0,1-.183.1h-.016a1.119,1.119,0,0,1-.667-.362.1.1,0,0,0-.026-.027,1.224,1.224,0,0,0-.153.172c-.032.038-.066.08-.105.126a1.136,1.136,0,0,1-.462.334c-.062.029-.13.06-.208.1-.151.086-.141.15-.122.276a.913.913,0,0,1,.014.144c0,.214-.119.313-.317.476l-.057.047a.654.654,0,0,1-.584.086,1.376,1.376,0,0,0-.233-.028c-.14,0-.177.044-.261.141a1.4,1.4,0,0,1-.179.182.311.311,0,0,1-.252.071c-.227-.038-.416-.317-.487-.436-.03-.051-.1-.041-.266,0a1.221,1.221,0,0,1-.432.044,1.712,1.712,0,0,1-.543-.174,2.005,2.005,0,0,0-.344-.132.1.1,0,0,0-.029,0,1.068,1.068,0,0,0,.128.454l.008.027.038.342c.032.291-.046.349-.213.444a1.7,1.7,0,0,0-.2.13.665.665,0,0,1-.717-.046.745.745,0,0,0-.249-.089,2.1,2.1,0,0,0-.852.584.3.3,0,0,1-.218.088M60.169,41.986h.019c.11.01.2.106.263.291a7.331,7.331,0,0,1,.2.717,3.9,3.9,0,0,0,.177.607.877.877,0,0,0,.188.214.755.755,0,0,1,.316.548,1.944,1.944,0,0,0,.1.832.437.437,0,0,0,.152.115c.154.089.388.222.193.58a3.1,3.1,0,0,1-.248.368c-.2.274-.283.406-.182.525.055.064.116.129.175.192.2.221.38.41.38.587a1.437,1.437,0,0,1-.011.149c-.019.188-.043.421.127.543.293.209.3.277.3.565,0,.06.006.134.013.213.024.3.054.665-.186.745l-.063.02c-.17.055-.485.156-.543.293a.107.107,0,0,0,.009.1,2.593,2.593,0,0,0,.151.263.9.9,0,0,1,.161.371c.012.07.036.155.062.244a1.589,1.589,0,0,1,.091.62,4.539,4.539,0,0,0-.04.957.789.789,0,0,0,.141.154c.174.166.438.416.311.7-.034.076-.07.147-.1.213-.125.246-.161.339-.074.408l.068.055c.174.144.58.481.731.331.026-.026.639-.634.976-.634a.818.818,0,0,1,.323.106c.189.089.384.181.539.063a1.9,1.9,0,0,1,.221-.142c.133-.076.147-.084.126-.275L65.2,53.3c-.07-.153-.206-.491-.093-.629a.182.182,0,0,1,.2-.05,2.169,2.169,0,0,1,.374.143,1.572,1.572,0,0,0,.491.16,1.179,1.179,0,0,0,.374-.041c.174-.039.354-.08.451.083s.241.333.368.355a.132.132,0,0,0,.112-.034,1.3,1.3,0,0,0,.159-.163.447.447,0,0,1,.392-.2,1.481,1.481,0,0,1,.263.031.5.5,0,0,0,.443-.049l.057-.048c.2-.163.254-.216.254-.344a.8.8,0,0,0-.012-.118.373.373,0,0,1,.208-.452c.082-.048.155-.08.222-.112a.975.975,0,0,0,.4-.288c.038-.045.072-.087.1-.124.119-.146.193-.234.293-.234h0a.207.207,0,0,1,.155.1,1.013,1.013,0,0,0,.536.292c.035,0,.041-.013.044-.019.029-.049.066-.126.11-.218a2.863,2.863,0,0,1,.554-.869c.068-.059.138-.118.207-.174.149-.124.375-.311.383-.375a10.688,10.688,0,0,0-1.185-.5l-5.89-2.1-.314-3.087.024-.027a17.491,17.491,0,0,0,3.738-10.151c0-7.668-5.272-10.525-8.6-10.525s-8.6,2.857-8.6,10.525a17.489,17.489,0,0,0,3.738,10.151l.024.027,0,.037-.31,3.05-.051.018-5.84,2.081c-.257.085-.677.285-.719.461-.007.028-.008.071.054.133.393.394.609.394.7.394a.632.632,0,0,0,.093-.01.4.4,0,0,1,.477.206c.17.3.452.612.7.643a.964.964,0,0,0,.252-.007c.13-.015.281-.035.352.179.013.038.024.079.036.123.062.222.126.452.394.506a1.133,1.133,0,0,0,.358,0c.193-.023.389-.046.537.191.191.306.544.554.672.533a.773.773,0,0,0,.174-.072.4.4,0,0,1,.307-.069.2.2,0,0,1,.11.117c.273.682.52.784.643.784a1.147,1.147,0,0,0,.788-.25,1.267,1.267,0,0,0,.156-.136c.139-.136.227-.183.5-.063.087.038.155.073.211.1.158.078.185.094.293.051.028-.012.056-.024.084-.037a.407.407,0,0,1,.59.105c.112.157.338.414.518.622.125.142.233.265.28.329s.078.091.1.094.079-.014.193-.108a1.087,1.087,0,0,0,.241-.313,1.409,1.409,0,0,1,.21-.292,1.453,1.453,0,0,1,.218-.168c.145-.1.271-.184.291-.352a1.272,1.272,0,0,0-.055-.389c-.062-.264-.133-.562.038-.76.054-.064.109-.119.158-.169.184-.186.186-.211.112-.285-.194-.195-.354-.394-.163-.681a1.465,1.465,0,0,0,.133-.291.959.959,0,0,1,.31-.495l.117-.074c.258-.158.45-.294.383-.472a2.183,2.183,0,0,0-.161-.3c-.157-.263-.335-.562-.11-.712.055-.036.112-.068.166-.1.194-.11.272-.166.254-.271-.029-.174-.1-.275-.392-.35a1.2,1.2,0,0,0-.317-.012c-.154.009-.289.016-.363-.073a.229.229,0,0,1-.03-.21,1.454,1.454,0,0,1,.115-.3.873.873,0,0,0,.112-.444,1.575,1.575,0,0,0-.041-.329.547.547,0,0,1,.1-.57,1.479,1.479,0,0,1,.253-.2c.116-.077.164-.112.18-.212a1.577,1.577,0,0,1,.046-.188.448.448,0,0,0,0-.368c-.024-.049-.054-.1-.08-.138-.09-.144-.213-.341.033-.506.044-.029.084-.054.122-.077.156-.1.234-.143.259-.321.007-.048.015-.1.024-.143a.825.825,0,0,0-.012-.523c-.112-.187-.3-.649-.152-.889.072-.121.184-.278.329-.278" transform="translate(-18.789 -9.126)" fill="#161615"/>
            <path id="Trazado_51175" data-name="Trazado 51175" d="M59.4,101.53,48.231,90.265s-.239-.87.37-1.022.876-.038,1.029-.228a1.72,1.72,0,0,1,.876-.648c.343-.038.876.3,1.066.076s.152-.723.533-.876.648-.115.724,0,.19.3.342.152.381-.609.609-.685.572-.191.609-.038.191.5.343.343.19-.419.457-.457,1.066.152.99-.076-.228-.457-.076-.724.381-.647.571-.419.267.495.5.381.381-.267.495-.191.572.457.724.381.571-.381.762-.038.342.457.228.685-.3.19-.228.457.266.342.076.571-.457.381-.228.609.533.609.381.99-.457.5-.228.8.381.685.19.838-.609.495-.571.8.266.343.419.533.572.381.5.724-.343.952-.115,1.219a1.953,1.953,0,0,1,.572.99.868.868,0,0,1-.115.762c-.114.19-.495.228-.3.495a1.29,1.29,0,0,1,.229.8,1.481,1.481,0,0,1-.152.876c-.19.3-.647.609-.457.838s.457.3.343.724-.3.571-.228.8a1.1,1.1,0,0,1-.051.825" transform="translate(-18.825 -33.44)" fill="#161615"/>
            <path id="Trazado_51176" data-name="Trazado 51176" d="M59.367,101.617,48.1,90.256l-.006-.023a1.281,1.281,0,0,1,.058-.854.58.58,0,0,1,.375-.274,3.54,3.54,0,0,1,.631-.1c.2-.017.291-.026.352-.1a1.815,1.815,0,0,1,.933-.679,1.459,1.459,0,0,1,.511.082c.207.058.42.118.5.025a.952.952,0,0,0,.135-.306.813.813,0,0,1,.432-.595c.383-.152.714-.139.827.032.045.069.11.166.155.171h0c.018,0,.04-.02.052-.032a1.882,1.882,0,0,0,.169-.221c.139-.2.3-.426.475-.485.27-.09.505-.16.635-.088a.169.169,0,0,1,.085.111c.035.141.125.3.177.314.006.005.015-.006.02-.012a.8.8,0,0,0,.115-.161.541.541,0,0,1,.391-.32,2.18,2.18,0,0,1,.431.015,1.832,1.832,0,0,0,.485.009c-.013-.04-.028-.077-.043-.115a.706.706,0,0,1-.021-.666c.148-.26.31-.515.5-.531a.243.243,0,0,1,.213.1,2.224,2.224,0,0,1,.133.182c.132.2.169.221.257.177.064-.032.122-.068.175-.1.144-.087.278-.171.407-.085.021.014.053.038.093.068.38.283.5.322.544.308l.068-.037a.82.82,0,0,1,.581-.155.373.373,0,0,1,.227.189c.044.08.087.147.124.206.125.2.216.342.107.56a.626.626,0,0,1-.166.2c-.071.063-.089.079-.057.191a.9.9,0,0,0,.084.191.342.342,0,0,1-.026.459c-.041.049-.085.1-.128.139-.183.189-.214.244-.1.353.394.4.529.76.4,1.084a1.62,1.62,0,0,1-.189.329c-.116.166-.164.235-.051.387.238.316.426.757.175.957-.141.113-.572.458-.539.721a.438.438,0,0,0,.216.319,1.053,1.053,0,0,1,.185.171,1.323,1.323,0,0,0,.163.153c.185.154.415.346.349.643-.018.078-.044.168-.073.266-.088.3-.208.706-.061.879l.066.077a1.869,1.869,0,0,1,.525.955.945.945,0,0,1-.119.809.633.633,0,0,1-.216.2c-.063.041-.127.084-.135.122a.144.144,0,0,0,.036.09,1.377,1.377,0,0,1,.244.85c0,.037,0,.074,0,.113a1.358,1.358,0,0,1-.167.809,2.339,2.339,0,0,1-.24.3c-.185.205-.3.347-.224.439a1.563,1.563,0,0,0,.138.139.567.567,0,0,1,.222.663,2.517,2.517,0,0,1-.156.409c-.074.159-.108.24-.074.341a1.191,1.191,0,0,1-.058.9ZM48.254,90.167l11.068,11.159a1.088,1.088,0,0,0,0-.647.593.593,0,0,1,.082-.469,2.323,2.323,0,0,0,.146-.381.4.4,0,0,0-.172-.49,1.613,1.613,0,0,1-.154-.155c-.179-.214.038-.453.228-.665a2.071,2.071,0,0,0,.222-.274,1.2,1.2,0,0,0,.141-.714c0-.039,0-.078,0-.116a1.219,1.219,0,0,0-.213-.75.285.285,0,0,1-.065-.222c.02-.11.116-.173.21-.235a.513.513,0,0,0,.156-.133.793.793,0,0,0,.1-.7,1.706,1.706,0,0,0-.484-.871l-.067-.078c-.209-.243-.079-.684.026-1.039.027-.093.054-.18.069-.254.044-.195-.126-.336-.29-.474a1.356,1.356,0,0,1-.188-.177.866.866,0,0,0-.156-.143.606.606,0,0,1-.282-.434c-.04-.319.3-.637.6-.878.119-.1.03-.4-.205-.719-.189-.252-.074-.416.047-.589a1.4,1.4,0,0,0,.17-.295c.1-.253-.02-.555-.362-.9-.241-.241-.05-.438.1-.6.04-.041.082-.084.121-.13.091-.11.07-.149.005-.265a1.122,1.122,0,0,1-.1-.227.3.3,0,0,1,.11-.369.478.478,0,0,0,.125-.151c.063-.125.029-.189-.1-.391-.038-.061-.082-.131-.129-.214a.207.207,0,0,0-.122-.107c-.141-.04-.332.073-.45.14l-.076.041c-.157.077-.433-.107-.724-.324-.037-.027-.066-.049-.087-.063s-.126.032-.221.09c-.057.034-.118.072-.188.106-.238.119-.366-.069-.478-.235a2.065,2.065,0,0,0-.122-.168c-.036-.043-.059-.038-.065-.038-.116.01-.3.326-.365.445a.546.546,0,0,0,.032.517c.018.046.036.091.052.137a.15.15,0,0,1-.021.145c-.084.105-.3.091-.648.06a2.265,2.265,0,0,0-.39-.016c-.131.018-.188.1-.269.238a1.009,1.009,0,0,1-.14.194.187.187,0,0,1-.189.057c-.2-.055-.3-.436-.3-.44-.054-.047-.388.063-.5.1s-.27.251-.387.42a2,2,0,0,1-.188.245.235.235,0,0,1-.194.081c-.127-.013-.21-.14-.272-.232-.047-.07-.246-.138-.629.017-.2.08-.264.278-.332.487a1.057,1.057,0,0,1-.167.364c-.149.178-.419.1-.677.03a1.3,1.3,0,0,0-.446-.076,1.6,1.6,0,0,0-.818.615c-.109.137-.261.15-.472.166a3.41,3.41,0,0,0-.6.092.408.408,0,0,0-.267.194,1.092,1.092,0,0,0-.046.7" transform="translate(-18.77 -33.385)" fill="#161615"/>
            <path id="Trazado_51177" data-name="Trazado 51177" d="M42.293,82.053,36.1,75.808s.05-3.2.1-3.859a3.173,3.173,0,0,1,1.727-2.793c1.422-.609,3.249-1.371,3.249-1.371s.838-.19.952.038.228.457.381.381a.731.731,0,0,1,.685.038c.152.152.19.3.419.3s.5-.228.724.191.266.762.457.762.647.038.685.266a1.752,1.752,0,0,0,.266.609.752.752,0,0,0,.572.381c.228,0,.609-.076.8.038s.533.381.572.609-.076.572.152.648.495-.038.609.152.19.724.419.685.533-.228.724-.114.419.685.609.952.266.076.342.381.038.572.191.572.609.419.381.685-.5.495-.3.685.228,1.066-.152.876-.876-.229-.838.3.152,1.523-.343,1.638a.62.62,0,0,1-.8-.5c-.038-.266-.419-.723-.609-.609s-.5.115-.343.381.3.8.038.914-.648,0-.876.038-.762.3-.571.533.457.685-.115.8-1.18-.076-1.295.191-.495.914-.762.914-.8,0-.876.114-.583.81-.977.405" transform="translate(-14.103 -26.454)" fill="#161615"/>
            <path id="Trazado_51178" data-name="Trazado 51178" d="M42.509,82.209a.456.456,0,0,1-.333-.151l-6.22-6.27v-.036c0-.131.051-3.209.1-3.864a3.231,3.231,0,0,1,1.78-2.865c1.406-.6,3.231-1.364,3.249-1.372.226-.053.929-.189,1.063.079.08.16.186.382.264.342a.813.813,0,0,1,.786.054c.043.043.077.087.11.127.079.1.122.153.247.153a.693.693,0,0,0,.161-.028.48.48,0,0,1,.639.264,3.922,3.922,0,0,1,.189.41c.071.171.127.306.192.306.168,0,.718.025.771.339a1.658,1.658,0,0,0,.255.579.668.668,0,0,0,.5.339c.06,0,.13-.005.2-.012a1.177,1.177,0,0,1,.64.062c.023.013.556.338.612.669a1.351,1.351,0,0,1,.007.249c-.007.2,0,.3.087.33a.817.817,0,0,0,.243.027.429.429,0,0,1,.413.162,1.533,1.533,0,0,1,.108.264c.055.157.141.4.222.381a1.629,1.629,0,0,0,.224-.065.675.675,0,0,1,.558-.038,1.717,1.717,0,0,1,.413.595,4.209,4.209,0,0,0,.222.381.336.336,0,0,0,.163.14c.085.038.145.076.194.27a2.64,2.64,0,0,1,.051.288.6.6,0,0,0,.051.218.739.739,0,0,1,.49.413.369.369,0,0,1-.038.416c-.034.04-.068.078-.1.116-.216.242-.3.358-.206.453a.971.971,0,0,1,.074.949.239.239,0,0,1-.327.066.689.689,0,0,0-.614-.075.3.3,0,0,0-.1.3l.009.118c.045.592.115,1.487-.418,1.609a.737.737,0,0,1-.609-.094.706.706,0,0,1-.3-.472.914.914,0,0,0-.394-.536c-.022-.01-.063-.024-.085-.012a1.157,1.157,0,0,1-.178.08c-.067.026-.151.057-.162.09,0,.009-.007.034.027.094a1.238,1.238,0,0,1,.17.842.31.31,0,0,1-.172.194,1.292,1.292,0,0,1-.595.048,1.438,1.438,0,0,0-.3,0,.877.877,0,0,0-.534.319.067.067,0,0,0,.015.074c.123.147.315.428.232.665a.47.47,0,0,1-.395.274,3.309,3.309,0,0,1-.693.042c-.265-.007-.494-.008-.54.1-.082.191-.489.966-.841.966-.6,0-.771.042-.806.078-.034.052-.363.531-.732.565l-.043,0m-6.38-6.492,6.169,6.22a.286.286,0,0,0,.237.1c.235-.022.5-.331.606-.491.085-.127.413-.152.947-.152.182,0,.534-.515.683-.862.091-.212.371-.205.7-.2a3.113,3.113,0,0,0,.657-.037c.148-.03.238-.085.266-.163.047-.132-.073-.343-.2-.5a.239.239,0,0,1-.045-.244c.083-.223.478-.4.668-.43a1.5,1.5,0,0,1,.342,0,1.172,1.172,0,0,0,.514-.033.136.136,0,0,0,.076-.091,1.082,1.082,0,0,0-.155-.7.28.28,0,0,1-.041-.238c.038-.107.153-.151.264-.193a1.058,1.058,0,0,0,.15-.066.249.249,0,0,1,.248,0,1.066,1.066,0,0,1,.492.667.531.531,0,0,0,.222.354.584.584,0,0,0,.472.069c.388-.09.324-.927.285-1.428l-.009-.12a.46.46,0,0,1,.175-.452c.263-.175.67,0,.788.064.074.037.1.007.11-.012a.843.843,0,0,0-.057-.725c-.22-.221,0-.47.2-.69l.1-.113a.192.192,0,0,0,.013-.229.637.637,0,0,0-.329-.314c-.179,0-.2-.188-.227-.369a2.371,2.371,0,0,0-.047-.268c-.032-.126-.05-.134-.1-.153a.506.506,0,0,1-.234-.2,4,4,0,0,1-.233-.4,1.872,1.872,0,0,0-.35-.528c-.094-.056-.257,0-.413.053a1.553,1.553,0,0,1-.252.073c-.225.04-.331-.257-.414-.494a1.471,1.471,0,0,0-.093-.232c-.044-.073-.126-.077-.268-.079a.957.957,0,0,1-.295-.036c-.219-.073-.211-.31-.2-.5a1.173,1.173,0,0,0-.005-.215c-.031-.188-.342-.436-.531-.55a1.1,1.1,0,0,0-.538-.037c-.079.005-.154.011-.217.011a.839.839,0,0,1-.645-.422,1.834,1.834,0,0,1-.278-.64c-.021-.126-.325-.194-.6-.194-.182,0-.257-.182-.352-.413a3.858,3.858,0,0,0-.181-.394c-.138-.253-.267-.22-.446-.178a.835.835,0,0,1-.2.033.444.444,0,0,1-.382-.218,1.276,1.276,0,0,0-.1-.112.655.655,0,0,0-.586-.022c-.23.113-.372-.169-.5-.419-.049-.1-.49-.076-.855.007,0,0-1.829.763-3.234,1.365A3.067,3.067,0,0,0,36.23,71.9c-.047.612-.094,3.462-.1,3.817" transform="translate(-14.047 -26.398)" fill="#161615"/>
            <path id="Trazado_51179" data-name="Trazado 51179" d="M68.535,101.707,80.328,89.838a.851.851,0,0,0-.381-.19c-.152,0-.572-.115-.648-.267s-.114-.381-.3-.229-.647.3-.685.076-.609-1.295-1.1-1.295c0,0-.381,0-.5-.19s-.342-.381-.533-.3-.381.114-.419.381.038.571-.191.457-.114-.457-.457-.419-.571.191-.647-.076,0-.381-.152-.533-.343-.571-.648-.495-.419.228-.495-.038-.228-.495-.5-.495-.495-.038-.647.114-.191.419-.457.191-.724-.572-1.1-.457-.457.228-.457.457.152.457-.076.533-.723-.038-.838.3a.826.826,0,0,0,.228.8c.152.191.3.228.3.419s-.342.495-.114.647.457.3.342.5-.3.609-.152.876a1.577,1.577,0,0,1,.267.685c0,.191-.3,1.066-.381.724s-.038-.648-.228-.8-.533-.266-.572.115.115.381-.114.723-.724.724-.381.952.495.19.495.457-.152.99.191,1.409.266.381.038.609-.685,1.181-.419,1.6.3.457.114.648-.419.685-.3.8.381.5.152.648a.584.584,0,0,0-.228.609c.038.19.3.571.191.8a.858.858,0,0,0,.013,1.13" transform="translate(-26.635 -33.617)" fill="#161615"/>
            <path id="Trazado_51180" data-name="Trazado 51180" d="M68.481,101.773l-.062-.06a.884.884,0,0,1-.065-1.163l.035-.068c.06-.12-.033-.331-.107-.5a1.307,1.307,0,0,1-.091-.244.666.666,0,0,1,.265-.7.1.1,0,0,0,.051-.084.731.731,0,0,0-.216-.43c-.178-.179.122-.739.3-.922.133-.133.133-.133-.093-.489l-.032-.051c-.3-.473.193-1.468.43-1.707l.083-.079c.121-.112.121-.112-.126-.414a1.8,1.8,0,0,1-.222-1.268c.007-.079.012-.146.012-.2,0-.132-.032-.149-.186-.23a2.528,2.528,0,0,1-.271-.155.32.32,0,0,1-.152-.221c-.027-.192.138-.389.313-.6.07-.084.143-.171.2-.252.129-.193.122-.251.107-.368a1.323,1.323,0,0,1-.006-.316.339.339,0,0,1,.191-.311.562.562,0,0,1,.52.138.78.78,0,0,1,.213.556c.01.08.02.165.038.25a2.18,2.18,0,0,0,.219-.662,1.581,1.581,0,0,0-.255-.643c-.2-.345.093-.863.154-.963s-.048-.2-.317-.378c-.21-.141-.087-.369-.005-.519a.6.6,0,0,0,.082-.2c0-.083-.036-.119-.126-.2a1.342,1.342,0,0,1-.16-.165.911.911,0,0,1-.244-.882c.1-.295.42-.314.654-.329a1.014,1.014,0,0,0,.239-.03c.076-.026.082-.055.046-.23a1.185,1.185,0,0,1-.029-.221c0-.291.126-.422.519-.539.317-.1.7.062,1.185.474.078.065.115.067.126.068.03,0,.069-.059.1-.113a.971.971,0,0,1,.11-.141.722.722,0,0,1,.577-.141l.132,0c.27,0,.475.2.578.558.022.078.04.087.04.087.016.012.088-.021.133-.038a1.9,1.9,0,0,1,.218-.071c.285-.072.476.188.616.376a1.19,1.19,0,0,0,.113.141.466.466,0,0,1,.135.338,1.185,1.185,0,0,0,.039.233c.029.1.061.112.3.06a2.515,2.515,0,0,1,.257-.046.327.327,0,0,1,.381.255.29.29,0,0,0,.124.172c.045.023.044.015.044.016,0-.015,0-.117.006-.185a2.025,2.025,0,0,1,.015-.223c.041-.286.236-.359.407-.424l.065-.025c.231-.093.5.1.639.341.073.121.335.149.422.149.563,0,1.152,1.139,1.189,1.367a.039.039,0,0,0,.03.035.749.749,0,0,0,.516-.165.239.239,0,0,1,.208-.064c.1.027.148.135.191.238.012.028.024.057.037.083a.961.961,0,0,0,.57.219.892.892,0,0,1,.436.21l.073.06-.066.066ZM68.962,91.1a.145.145,0,0,0-.057.01c-.048.02-.077.077-.086.169a1.156,1.156,0,0,0,.005.278.581.581,0,0,1-.133.486,3.369,3.369,0,0,1-.208.266c-.136.163-.291.348-.274.464,0,.014.008.055.078.1a2.432,2.432,0,0,0,.253.146c.162.084.28.145.28.383,0,.054-.006.126-.013.21a1.646,1.646,0,0,0,.184,1.144c.3.363.333.444.11.651-.023.021-.049.046-.077.074-.227.227-.638,1.13-.408,1.492l.032.051c.238.372.3.472.071.7a1.08,1.08,0,0,0-.3.678.881.881,0,0,1,.264.569.279.279,0,0,1-.126.21.5.5,0,0,0-.192.521,1.206,1.206,0,0,0,.08.208c.089.2.2.454.1.646l-.037.071a.742.742,0,0,0-.026.9l11.66-11.735a.572.572,0,0,0-.25-.113c-.146,0-.622-.108-.725-.314-.015-.03-.028-.062-.041-.094s-.054-.129-.075-.137c0,0-.017,0-.057.031a.875.875,0,0,1-.687.191.211.211,0,0,1-.138-.168c-.037-.225-.59-1.223-1.019-1.223-.044,0-.434-.006-.569-.232-.1-.171-.294-.327-.427-.269l-.069.026c-.163.062-.271.1-.3.287a1.78,1.78,0,0,0-.013.2c0,.148-.007.276-.1.331a.213.213,0,0,1-.2-.013.441.441,0,0,1-.206-.261c-.047-.113-.072-.166-.2-.149a2.2,2.2,0,0,0-.239.044c-.2.042-.422.093-.5-.182a1.289,1.289,0,0,1-.044-.266.3.3,0,0,0-.086-.23,1.628,1.628,0,0,1-.13-.161c-.149-.2-.276-.352-.435-.311a1.712,1.712,0,0,0-.2.065.335.335,0,0,1-.272.032.293.293,0,0,1-.13-.194c-.056-.2-.173-.433-.412-.433l-.136,0c-.2,0-.35-.009-.45.091a.71.71,0,0,0-.089.116c-.058.085-.118.173-.225.186a.317.317,0,0,1-.26-.107c-.429-.367-.774-.514-1.024-.44-.377.113-.4.211-.4.374a.947.947,0,0,0,.026.186c.029.149.071.352-.161.429a1.2,1.2,0,0,1-.283.039c-.257.016-.442.04-.5.211a.741.741,0,0,0,.213.718,1.194,1.194,0,0,0,.142.145.413.413,0,0,1,.182.328.639.639,0,0,1-.1.282c-.1.194-.114.25-.049.294.233.156.525.35.368.612-.142.236-.267.585-.151.788A1.616,1.616,0,0,1,70,91.23c0,.119-.192.865-.4.888-.032,0-.118,0-.149-.146-.024-.109-.038-.216-.049-.31-.025-.2-.044-.358-.149-.442a.528.528,0,0,0-.288-.124" transform="translate(-26.58 -33.561)" fill="#161615"/>
            <path id="Trazado_51181" data-name="Trazado 51181" d="M83.617,82.092l6.195-6.244s-.051-3.2-.1-3.859A3.173,3.173,0,0,0,87.984,69.2c-1.422-.609-3.249-1.371-3.249-1.371s-.3-.076-.3.152v.228s-.685.152-.724.343-.647.152-.838.19-.762.3-.838.533-.076.685-.3.685-.914-.038-.99.076-.838.533-.838.762.076.533-.038.685a1.087,1.087,0,0,1-.724.342,3.642,3.642,0,0,0-1.18.191,2.1,2.1,0,0,0-.533.648c-.038.152.076.381-.191.419s-.647.115-.723.229-.076.685-.267.685-.838.228-.876.5.19.609.076.8-.533.533-.3.8.495.419.723.228.572-.5.685-.191.152.609,0,.762-.609.457-.3.762.533.343.685.191a1.037,1.037,0,0,1,.609-.3c.191,0,.609,0,.609.3s.228.571-.076.609-.685.038-.495.342.419.609.647.5.3-.267.572-.115.495.533.723.5.5-.228.572-.038.457.685.8.648.724-.457.8-.152.038.457.3.723a1.108,1.108,0,0,0,.762.419c.266,0,.419-.267.495.076a1.056,1.056,0,0,0,.368.748" transform="translate(-29.329 -26.493)" fill="#161615"/>
            <path id="Trazado_51182" data-name="Trazado 51182" d="M83.561,82.16,83.5,82.1a1.012,1.012,0,0,1-.363-.656c-.007-.041-.016-.085-.028-.135-.02-.092-.041-.107-.041-.108a.866.866,0,0,0-.1.032.7.7,0,0,1-.274.067,1.166,1.166,0,0,1-.823-.444.914.914,0,0,1-.289-.578c-.01-.056-.021-.118-.038-.186-.007-.03-.017-.041-.021-.043-.037-.02-.171.052-.257.1a1.286,1.286,0,0,1-.428.161c-.412.043-.816-.516-.89-.7-.018-.043-.065-.04-.248.024a1.329,1.329,0,0,1-.229.066c-.181.03-.338-.118-.5-.275a1.573,1.573,0,0,0-.278-.23c-.155-.088-.21-.056-.338.027a1.728,1.728,0,0,1-.152.09c-.332.166-.62-.3-.76-.527a.281.281,0,0,1-.044-.275c.069-.141.278-.163.5-.187l.1-.012c.06-.008.074-.023.077-.027.018-.026-.005-.116-.025-.188A1.217,1.217,0,0,1,78,77.786c0-.193-.264-.219-.523-.219a.964.964,0,0,0-.548.28c-.116.115-.373.245-.809-.19a.394.394,0,0,1-.127-.29c.007-.214.206-.391.352-.52.03-.027.059-.052.08-.074.107-.107.1-.352-.019-.67-.023-.062-.049-.068-.058-.071-.1-.026-.328.16-.461.272l-.03.025c-.14.116-.433.241-.845-.238-.222-.259.023-.558.185-.754a1.694,1.694,0,0,0,.111-.146c.044-.073.008-.207-.03-.347a1.072,1.072,0,0,1-.057-.42c.048-.333.749-.568.961-.568.023,0,.063-.065.118-.37a.847.847,0,0,1,.077-.277c.028-.041.114-.17.784-.266.109-.016.113-.054.108-.188a.589.589,0,0,1,.01-.166,2.135,2.135,0,0,1,.565-.7,3.691,3.691,0,0,1,1.232-.208,1.012,1.012,0,0,0,.654-.308.726.726,0,0,0,.034-.42c-.007-.074-.013-.147-.013-.214,0-.182.267-.384.616-.629a1.935,1.935,0,0,0,.237-.18c.076-.113.353-.129.913-.116l.148,0c.094,0,.135-.216.168-.389a2.093,2.093,0,0,1,.055-.238c.093-.278.721-.554.9-.59a1.878,1.878,0,0,1,.245-.023c.339-.019.515-.053.525-.1.04-.2.476-.335.722-.394v-.16a.231.231,0,0,1,.087-.193.422.422,0,0,1,.325-.043c.03.012,1.857.773,3.262,1.375a3.23,3.23,0,0,1,1.779,2.865c.05.656.1,3.733.1,3.864v.037l-.026.026Zm-.494-1.131a.177.177,0,0,1,.08.019.318.318,0,0,1,.13.224c.011.051.02.1.029.138a.793.793,0,0,0,.255.506l6.107-6.157c-.006-.356-.054-3.205-.1-3.817a3.067,3.067,0,0,0-1.674-2.72c-1.406-.6-3.231-1.362-3.249-1.37a.257.257,0,0,0-.165.015.067.067,0,0,0-.02.057v.3l-.067.016c-.33.073-.644.2-.658.275-.041.2-.383.222-.684.239a2.057,2.057,0,0,0-.222.019c-.183.037-.712.3-.772.476a1.821,1.821,0,0,0-.049.215c-.044.236-.1.529-.338.529l-.152,0a2.779,2.779,0,0,0-.771.046,1.293,1.293,0,0,1-.276.219c-.176.125-.542.383-.542.489,0,.062.005.13.012.2a.8.8,0,0,1-.067.539,1.163,1.163,0,0,1-.793.377,3.769,3.769,0,0,0-1.129.173,2.114,2.114,0,0,0-.5.6.489.489,0,0,0-.005.119c0,.122.01.326-.256.364-.47.066-.64.154-.664.191a.989.989,0,0,0-.051.212c-.044.24-.093.512-.288.512-.178,0-.762.224-.79.421a.952.952,0,0,0,.052.35.632.632,0,0,1,.012.482,1.547,1.547,0,0,1-.126.167c-.179.217-.306.394-.188.533.165.191.4.386.6.218l.03-.025c.19-.159.427-.36.616-.307a.262.262,0,0,1,.176.177c.1.277.185.649-.019.854-.024.023-.054.051-.089.081-.115.1-.289.256-.293.4a.219.219,0,0,0,.077.162c.249.25.44.315.562.19a1.126,1.126,0,0,1,.671-.33c.191,0,.7,0,.7.391a1.058,1.058,0,0,0,.046.264.4.4,0,0,1,0,.329.262.262,0,0,1-.2.1l-.106.012c-.133.014-.336.036-.363.091-.007.014,0,.049.036.108.162.26.371.547.536.464a1.449,1.449,0,0,0,.135-.08.418.418,0,0,1,.517-.032,1.769,1.769,0,0,1,.312.255c.127.121.252.244.355.23a1.351,1.351,0,0,0,.2-.059c.161-.056.382-.135.466.074.077.191.431.63.71.594a1.169,1.169,0,0,0,.368-.143c.158-.083.3-.154.408-.1a.218.218,0,0,1,.118.159c.018.073.03.137.041.2a.737.737,0,0,0,.241.486,1.017,1.017,0,0,0,.7.394.547.547,0,0,0,.207-.054.442.442,0,0,1,.161-.044" transform="translate(-29.273 -26.438)" fill="#161615"/>
            <path id="Trazado_51183" data-name="Trazado 51183" d="M66.546,84.079a.5.5,0,1,1-.495-.495.494.494,0,0,1,.495.495" transform="translate(-25.612 -32.655)" fill="#161615"/>
            <path id="Trazado_51184" data-name="Trazado 51184" d="M66,84.6a.581.581,0,1,1,.581-.581A.582.582,0,0,1,66,84.6m0-.99a.409.409,0,1,0,.409.409A.409.409,0,0,0,66,83.614" transform="translate(-25.556 -32.599)" fill="#161615"/>
            <path id="Trazado_51185" data-name="Trazado 51185" d="M68.483,92.016a.5.5,0,1,1-.495-.495.494.494,0,0,1,.495.495" transform="translate(-26.368 -35.756)" fill="#161615"/>
            <path id="Trazado_51186" data-name="Trazado 51186" d="M67.933,92.543a.581.581,0,1,1,.581-.581.582.582,0,0,1-.581.581m0-.99a.409.409,0,1,0,.409.409.409.409,0,0,0-.409-.409" transform="translate(-26.313 -35.701)" fill="#161615"/>
            <path id="Trazado_51187" data-name="Trazado 51187" d="M74.608,82.829a.5.5,0,1,1-.495-.495.494.494,0,0,1,.495.495" transform="translate(-28.761 -32.167)" fill="#161615"/>
            <path id="Trazado_51188" data-name="Trazado 51188" d="M74.058,83.355a.581.581,0,1,1,.581-.581.582.582,0,0,1-.581.581m0-.99a.409.409,0,1,0,.409.409.409.409,0,0,0-.409-.409" transform="translate(-28.706 -32.111)" fill="#161615"/>
            <path id="Trazado_51189" data-name="Trazado 51189" d="M73.108,76.579a.5.5,0,1,1-.495-.495.494.494,0,0,1,.495.495" transform="translate(-28.175 -29.725)" fill="#161615"/>
            <path id="Trazado_51190" data-name="Trazado 51190" d="M72.558,77.1a.581.581,0,1,1,.581-.581.582.582,0,0,1-.581.581m0-.99a.409.409,0,1,0,.409.409.409.409,0,0,0-.409-.409" transform="translate(-28.12 -29.669)" fill="#161615"/>
            <path id="Trazado_51191" data-name="Trazado 51191" d="M68.546,69.516a.5.5,0,1,1-.495-.495.494.494,0,0,1,.495.495" transform="translate(-26.393 -26.965)" fill="#161615"/>
            <path id="Trazado_51192" data-name="Trazado 51192" d="M68,70.043a.581.581,0,1,1,.581-.581.582.582,0,0,1-.581.581m0-.99a.409.409,0,1,0,.409.409A.409.409,0,0,0,68,69.052" transform="translate(-26.338 -26.91)" fill="#161615"/>
            <path id="Trazado_51193" data-name="Trazado 51193" d="M60.8,74.391A.5.5,0,1,1,60.3,73.9a.494.494,0,0,1,.495.495" transform="translate(-23.365 -28.87)" fill="#161615"/>
            <path id="Trazado_51194" data-name="Trazado 51194" d="M60.245,74.918a.581.581,0,1,1,.581-.581.582.582,0,0,1-.581.581m0-.99a.409.409,0,1,0,.409.409.409.409,0,0,0-.409-.409" transform="translate(-23.31 -28.815)" fill="#161615"/>
            <path id="Trazado_51195" data-name="Trazado 51195" d="M62.421,78.141a.5.5,0,1,1-.495-.495.494.494,0,0,1,.495.495" transform="translate(-24 -30.335)" fill="#161615"/>
            <path id="Trazado_51196" data-name="Trazado 51196" d="M61.87,78.668a.581.581,0,1,1,.581-.581.582.582,0,0,1-.581.581m0-.99a.409.409,0,1,0,.409.409.409.409,0,0,0-.409-.409" transform="translate(-23.945 -30.28)" fill="#161615"/>
            <path id="Trazado_51197" data-name="Trazado 51197" d="M60.875,84.1a.365.365,0,1,1-.366-.366.365.365,0,0,1,.366.366" transform="translate(-23.497 -32.713)" fill="#161615"/>
            <path id="Trazado_51198" data-name="Trazado 51198" d="M60.468,84.487a.429.429,0,1,1,.429-.429.429.429,0,0,1-.429.429m0-.731a.3.3,0,1,0,.3.3.3.3,0,0,0-.3-.3" transform="translate(-23.456 -32.672)" fill="#161615"/>
            <path id="Trazado_51199" data-name="Trazado 51199" d="M61.312,77.724a.365.365,0,1,1-.366-.366.365.365,0,0,1,.366.366" transform="translate(-23.668 -30.223)" fill="#161615"/>
            <path id="Trazado_51200" data-name="Trazado 51200" d="M60.906,78.112a.429.429,0,1,1,.429-.429.429.429,0,0,1-.429.429m0-.731a.3.3,0,1,0,.3.3.3.3,0,0,0-.3-.3" transform="translate(-23.627 -30.182)" fill="#161615"/>
            <path id="Trazado_51201" data-name="Trazado 51201" d="M68.25,70.724a.365.365,0,1,1-.366-.366.366.366,0,0,1,.366.366" transform="translate(-26.379 -27.488)" fill="#161615"/>
            <path id="Trazado_51202" data-name="Trazado 51202" d="M67.843,71.112a.429.429,0,1,1,.429-.429.429.429,0,0,1-.429.429m0-.731a.3.3,0,1,0,.3.3.3.3,0,0,0-.3-.3" transform="translate(-26.338 -27.447)" fill="#161615"/>
            <path id="Trazado_51203" data-name="Trazado 51203" d="M67.062,73.412a.365.365,0,1,1-.366-.366.365.365,0,0,1,.366.366" transform="translate(-25.914 -28.538)" fill="#161615"/>
            <path id="Trazado_51204" data-name="Trazado 51204" d="M66.656,73.8a.429.429,0,1,1,.429-.429.429.429,0,0,1-.429.429m0-.731a.3.3,0,1,0,.3.3.3.3,0,0,0-.3-.3" transform="translate(-25.874 -28.497)" fill="#161615"/>
            <path id="Trazado_51205" data-name="Trazado 51205" d="M72,76.162a.365.365,0,1,1-.366-.366.365.365,0,0,1,.366.366" transform="translate(-27.844 -29.612)" fill="#161615"/>
            <path id="Trazado_51206" data-name="Trazado 51206" d="M71.593,76.55a.429.429,0,1,1,.429-.429.429.429,0,0,1-.429.429m0-.731a.3.3,0,1,0,.3.3.3.3,0,0,0-.3-.3" transform="translate(-27.803 -29.572)" fill="#161615"/>
            <path id="Trazado_51207" data-name="Trazado 51207" d="M73.75,83.974a.365.365,0,1,1-.366-.366.365.365,0,0,1,.366.366" transform="translate(-28.527 -32.664)" fill="#161615"/>
            <path id="Trazado_51208" data-name="Trazado 51208" d="M73.343,84.362a.429.429,0,1,1,.429-.429.429.429,0,0,1-.429.429m0-.731a.3.3,0,1,0,.3.3.3.3,0,0,0-.3-.3" transform="translate(-28.486 -32.624)" fill="#161615"/>
            <path id="Trazado_51209" data-name="Trazado 51209" d="M68.25,90.787a.365.365,0,1,1-.366-.366.365.365,0,0,1,.366.366" transform="translate(-26.379 -35.326)" fill="#161615"/>
            <path id="Trazado_51210" data-name="Trazado 51210" d="M67.843,91.175a.429.429,0,1,1,.429-.429.429.429,0,0,1-.429.429m0-.731a.3.3,0,1,0,.3.3.3.3,0,0,0-.3-.3" transform="translate(-26.338 -35.285)" fill="#161615"/>
          </g>
        </g>
      </g>
    </g>
  </g>
</svg>
