<svg xmlns="http://www.w3.org/2000/svg" width="209.669" height="209.669" viewBox="0 0 209.669 209.669">
  <g id="Grupo_16601" data-name="Grupo 16601" transform="translate(-7237.81 -3073.797)">
    <rect id="Rect치ngulo_4648" data-name="Rect치ngulo 4648" width="148.258" height="148.258" rx="12.774" transform="translate(7342.645 3073.797) rotate(45)" fill="#d82c2a"/>
    <rect id="Rect치ngulo_4649" data-name="Rect치ngulo 4649" width="130.838" height="130.838" rx="12.774" transform="translate(7342.371 3085.842) rotate(45)" fill="#fff"/>
    <path id="Trazado_42330" data-name="Trazado 42330" d="M7315.025,3142.71a4.468,4.468,0,0,0,5.7,2.716l35.668-12.644.063.179a1.982,1.982,0,1,0,3.736-1.325l-4.892-13.8a2.014,2.014,0,0,0-2.571-1.225,1.949,1.949,0,0,0-1.186,2.489l.074.208-35.668,12.644a4.467,4.467,0,0,0-2.714,5.7Zm1.568-8.931,35.667-12.644,3.481,9.821-35.667,12.643a2.528,2.528,0,0,1-3.222-1.536l-1.795-5.062A2.527,2.527,0,0,1,7316.593,3133.779Zm-.839,2.975a1.787,1.787,0,0,1,1.085-2.28l10.536-3.734h26.764l-34.312,12.163a1.788,1.788,0,0,1-2.279-1.087Zm39.563,18.127c0-2.787,5.046-9.891,5.046-9.891s5.047,7.1,5.047,9.891a5.047,5.047,0,1,1-10.093,0Zm33.973,32.885a4.447,4.447,0,0,1-4.447,4.447h-32.23v2.976H7380.4a4.447,4.447,0,0,1,0,8.894h-27.783v2.975h17.866a4.447,4.447,0,0,1,0,8.894h-66.425v.677h-.01a2.043,2.043,0,0,1-4.081,0h-.011v-45.857h.011a2.043,2.043,0,0,1,4.081,0h.01v.678h7.317l27.465-18.723a6.249,6.249,0,0,1,7.04,10.327l-12.317,8.4h22.051a5.016,5.016,0,0,0,9.507,0H7380.4a4.447,4.447,0,0,1,0,8.894h-27.783v2.975h32.23A4.447,4.447,0,0,1,7389.29,3187.766Z"/>
  </g>
</svg>
