<svg id="Grupo_31314" data-name="Grupo 31314" xmlns="http://www.w3.org/2000/svg" xmlns:xlink="http://www.w3.org/1999/xlink" width="223.633" height="223.635" viewBox="0 0 223.633 223.635">
  <defs>
    <clipPath id="clip-path">
      <rect id="Rectángulo_4672" data-name="Rectángulo 4672" width="223.633" height="223.634" fill="none"/>
    </clipPath>
  </defs>
  <rect id="Rectángulo_4668" data-name="Rectángulo 4668" width="146.564" height="146.563" transform="translate(8.181 111.818) rotate(-45)" fill="#fff"/>
  <g id="Grupo_31313" data-name="Grupo 31313">
    <g id="Grupo_31312" data-name="Grupo 31312" clip-path="url(#clip-path)">
      <rect id="Rectángulo_4669" data-name="Rectángulo 4669" width="146.564" height="146.563" transform="translate(8.181 111.818) rotate(-45)" fill="none" stroke="#d9000d" stroke-width="7.018"/>
      <path id="Trazado_50793" data-name="Trazado 50793" d="M104.137,121.3c-3.231,3.916-10.171,7.419-10.171,7.419,34,0,31.531-36.889,31.531-36.889-2.885,6.595-11.541,7.007-11.541,7.007,12.159-15.044,4.74-29.882,4.74-29.882C115.811,77.607,106.95,81.11,106.95,81.11c8.45-15.869-2.061-30.913-2.061-30.913-.412,22.257-9.48,19.99-9.48,19.99,5.152-8.037-5.77-26.379-7.831-30.707s-3.3-12.159-3.3-12.159a31.956,31.956,0,0,0-3.5,14.426c-.206,8.862.206,20.4-4.74,26.585a20.332,20.332,0,0,1-2.473-5.77c-.412-2.473-2.267-13.6-9.068-14.014a11.648,11.648,0,0,1,.412,6.183c-.618,3.916-3.5,15.25.206,22.051,0,0-4.328-1.649-5.77-4.328s-3.916-7.213-6.595-8.656c0,0,.206,4.534.412,8.656s-.824,14.838,6.183,23.494c0,0-10.716-1.237-16.9-10.51,0,0,.412,8.862,5.152,21.021s15.044,22.257,35.237,22.257c0,0-7.793-1.959-11.95-4.946-6.595-4.74-8.037-14.22-8.037-14.22,4.328,4.534,12.983,3.71,12.983,3.71a17.144,17.144,0,0,1-5.152-18.342c2.473,7.213,10.3,9.892,10.3,9.892-1.855-5.976-.824-13.4,1.645-17.105s1.443-11.953,1.443-11.953,12.159,7.831,9.892,29.058a18.222,18.222,0,0,1,4.74-3.916c2.473-1.237,5.977-3.3,5.977-7.007,0,0,1.443,16.281-6.595,20.2,0,0,8.45.618,12.159-3.71,0,0-2.729,6.819-6.11,10.923" transform="translate(27.536 17.723)" fill="#161615"/>
      <path id="Trazado_50794" data-name="Trazado 50794" d="M104.137,121.3c-3.231,3.916-10.171,7.419-10.171,7.419,34,0,31.531-36.889,31.531-36.889-2.885,6.595-11.541,7.007-11.541,7.007,12.159-15.044,4.74-29.882,4.74-29.882C115.811,77.607,106.95,81.11,106.95,81.11c8.45-15.869-2.061-30.913-2.061-30.913-.412,22.257-9.48,19.99-9.48,19.99,5.152-8.037-5.77-26.379-7.831-30.707s-3.3-12.159-3.3-12.159a31.956,31.956,0,0,0-3.5,14.426c-.206,8.862.206,20.4-4.74,26.585a20.332,20.332,0,0,1-2.473-5.77c-.412-2.473-2.267-13.6-9.068-14.014a11.648,11.648,0,0,1,.412,6.183c-.618,3.916-3.5,15.25.206,22.051,0,0-4.328-1.649-5.77-4.328s-3.916-7.213-6.595-8.656c0,0,.206,4.534.412,8.656s-.824,14.838,6.183,23.494c0,0-10.716-1.237-16.9-10.51,0,0,.412,8.862,5.152,21.021s15.044,22.257,35.237,22.257c0,0-7.793-1.959-11.95-4.946-6.595-4.74-8.037-14.22-8.037-14.22,4.328,4.534,12.983,3.71,12.983,3.71a17.144,17.144,0,0,1-5.152-18.342c2.473,7.213,10.3,9.892,10.3,9.892-1.855-5.976-.824-13.4,1.645-17.105s1.443-11.953,1.443-11.953,12.159,7.831,9.892,29.058a18.222,18.222,0,0,1,4.74-3.916c2.473-1.237,5.977-3.3,5.977-7.007,0,0,1.443,16.281-6.595,20.2,0,0,8.45.618,12.159-3.71C110.247,110.375,107.519,117.194,104.137,121.3Z" transform="translate(27.536 17.723)" fill="none" stroke="#161615" stroke-width="0.368"/>
      <rect id="Rectángulo_4670" data-name="Rectángulo 4670" width="68.145" height="6.87" transform="translate(79.943 153.583)" fill="#161615"/>
      <rect id="Rectángulo_4671" data-name="Rectángulo 4671" width="68.145" height="6.87" transform="translate(79.943 153.583)" fill="none" stroke="#161615" stroke-width="0.368"/>
    </g>
  </g>
</svg>
