<svg xmlns="http://www.w3.org/2000/svg" width="209.668" height="209.669" viewBox="0 0 209.668 209.669">
  <g id="Grupo_16605" data-name="Grupo 16605" transform="translate(-7019.488 -3073.797)">
    <rect id="Rect치ngulo_4650" data-name="Rect치ngulo 4650" width="148.258" height="148.258" rx="12.774" transform="translate(7124.322 3073.797) rotate(45)" fill="#d82c2a"/>
    <rect id="Rect치ngulo_4651" data-name="Rect치ngulo 4651" width="130.838" height="130.838" rx="12.774" transform="translate(7124.048 3085.842) rotate(45)" fill="#fff"/>
    <g id="Grupo_16604" data-name="Grupo 16604">
      <path id="Trazado_42331" data-name="Trazado 42331" d="M7123.507,3167.095l-4.474,9.938h8.949l-4.475-9.938Zm15.94,10.452h0l-3.24,10.474h-25.4l-3.24-10.474a29.078,29.078,0,0,1-11.242-23.1c0-15.643,12.1-28.377,27.182-28.812,15.085.435,27.183,13.169,27.183,28.812a29.075,29.075,0,0,1-11.243,23.1Zm-3.294-24.313h0a8.172,8.172,0,1,1-8.171,8.172,8.169,8.169,0,0,1,8.171-8.172Zm-25.289,0h0a8.172,8.172,0,1,1-8.174,8.172A8.17,8.17,0,0,1,7110.864,3153.234Z" fill-rule="evenodd"/>
      <path id="Trazado_42332" data-name="Trazado 42332" d="M7110.15,3190.729h26.713l3.541-6.574h2.427l-1.315,11.7-9.631,12.367H7115.13l-9.634-12.367-1.313-11.7h2.427Z" fill-rule="evenodd"/>
      <g id="Grupo_16602" data-name="Grupo 16602">
        <path id="Trazado_42333" data-name="Trazado 42333" d="M7101.889,3186.554l.071-7.917-10.195-6.723c-.678-.448-2.083-2.14-1.671-2.842a11.233,11.233,0,1,0-5.249,7.947c.483-.644,2.581-.006,3.254.438Z" fill-rule="evenodd"/>
        <path id="Trazado_42334" data-name="Trazado 42334" d="M7145.128,3186.554l-.074-7.917,10.2-6.723c.68-.448,2.085-2.14,1.668-2.842a11.238,11.238,0,1,1,5.254,7.947c-.488-.644-2.586-.006-3.256.438Z" fill-rule="evenodd"/>
      </g>
      <g id="Grupo_16603" data-name="Grupo 16603">
        <path id="Trazado_42335" data-name="Trazado 42335" d="M7101.889,3190.83l.071,7.919-10.195,6.723c-.678.449-2.083,2.141-1.671,2.842a11.23,11.23,0,1,1-5.249-7.95c.483.645,2.581.007,3.254-.436Z" fill-rule="evenodd"/>
        <path id="Trazado_42336" data-name="Trazado 42336" d="M7145.128,3190.83l-.074,7.919,10.2,6.723c.68.449,2.085,2.141,1.668,2.842a11.236,11.236,0,1,0,5.254-7.95c-.488.645-2.586.007-3.256-.436Z" fill-rule="evenodd"/>
      </g>
    </g>
  </g>
</svg>
